<?xml version="1.0" standalone="no"?>
 <!DOCTYPE svg PUBLIC "-//W3C//DTD SVG 1.1//EN" 
 "http://www.w3.org/Graphics/SVG/1.1/DTD/svg11.dtd"> 
<svg
  xmlns:svg="http://www.w3.org/2000/svg"
  xmlns="http://www.w3.org/2000/svg"
  xmlns:xlink="http://www.w3.org/1999/xlink"
  version="1.1"
  width="297.0022mm" height="210.0072mm" viewBox="0.0000 0.0000 297.0022 210.0072">
<title>SVG Image created as RC-5 Remote Controler-User_Drawings.svg date 2024/03/14 13:06:36 </title>
  <desc>Image generated by PCBNEW </desc>
<g style="fill:#000000; fill-opacity:1.0000;stroke:#000000; stroke-opacity:1.0000;
stroke-linecap:round; stroke-linejoin:round;"
 transform="translate(0 0) scale(1 1)">
</g>
<g style="fill:none; 
stroke:#000000; stroke-width:0.1500; stroke-opacity:1; 
stroke-linecap:round; stroke-linejoin:round;">
<path d="M177.0022 166.0072
L285.0022 166.0072
L285.0022 198.0072
L177.0022 198.0072
L177.0022 166.0072
" />
</g>
<g style="fill:none; 
stroke:#000000; stroke-width:0.1500; stroke-opacity:1; 
stroke-linecap:round; stroke-linejoin:round;">
<path d="M10.0000 10.0000
L287.0022 10.0000
L287.0022 200.0072
L10.0000 200.0072
L10.0000 10.0000
" />
</g>
<g style="fill:none; 
stroke:#000000; stroke-width:0.1500; stroke-opacity:1; 
stroke-linecap:round; stroke-linejoin:round;">
<path d="M12.0000 12.0000
L285.0022 12.0000
L285.0022 198.0072
L12.0000 198.0072
L12.0000 12.0000
" />
</g>
<g style="fill:none; 
stroke:#000000; stroke-width:0.1500; stroke-opacity:1; 
stroke-linecap:round; stroke-linejoin:round;">
<path d="M60.0000 12.0000
L60.0000 10.0000
" />
</g>
<g style="fill:none; 
stroke:#000000; stroke-width:0.1500; stroke-opacity:1; 
stroke-linecap:round; stroke-linejoin:round;">
<path d="M110.0000 12.0000
L110.0000 10.0000
" />
</g>
<g style="fill:none; 
stroke:#000000; stroke-width:0.1500; stroke-opacity:1; 
stroke-linecap:round; stroke-linejoin:round;">
<path d="M160.0000 12.0000
L160.0000 10.0000
" />
</g>
<g style="fill:none; 
stroke:#000000; stroke-width:0.1500; stroke-opacity:1; 
stroke-linecap:round; stroke-linejoin:round;">
<path d="M210.0000 12.0000
L210.0000 10.0000
" />
</g>
<g style="fill:none; 
stroke:#000000; stroke-width:0.1500; stroke-opacity:1; 
stroke-linecap:round; stroke-linejoin:round;">
<path d="M260.0000 12.0000
L260.0000 10.0000
" />
</g>
<g style="fill:none; 
stroke:#000000; stroke-width:0.1500; stroke-opacity:1; 
stroke-linecap:round; stroke-linejoin:round;">
<text x="35.0000" y="11.6500"
textLength="1.4281" font-size="1.7333" lengthAdjust="spacingAndGlyphs"
text-anchor="start" opacity="0">1</text>
<g class="stroked-text"><desc>1</desc>
<path d="M36.0892 11.5936
L35.3463 11.5936
" />
<path d="M35.7177 11.5936
L35.7177 10.2936
" />
<path d="M35.7177 10.2936
L35.5939 10.4793
" />
<path d="M35.5939 10.4793
L35.4701 10.6031
" />
<path d="M35.4701 10.6031
L35.3463 10.6650
" />
</g></g>
<g style="fill:none; 
stroke:#000000; stroke-width:0.1500; stroke-opacity:1; 
stroke-linecap:round; stroke-linejoin:round;">
<text x="85.0000" y="11.6500"
textLength="1.4281" font-size="1.7333" lengthAdjust="spacingAndGlyphs"
text-anchor="start" opacity="0">2</text>
<g class="stroked-text"><desc>2</desc>
<path d="M85.3463 10.4174
L85.4082 10.3555
" />
<path d="M85.4082 10.3555
L85.5320 10.2936
" />
<path d="M85.5320 10.2936
L85.8415 10.2936
" />
<path d="M85.8415 10.2936
L85.9654 10.3555
" />
<path d="M85.9654 10.3555
L86.0273 10.4174
" />
<path d="M86.0273 10.4174
L86.0892 10.5412
" />
<path d="M86.0892 10.5412
L86.0892 10.6650
" />
<path d="M86.0892 10.6650
L86.0273 10.8507
" />
<path d="M86.0273 10.8507
L85.2844 11.5936
" />
<path d="M85.2844 11.5936
L86.0892 11.5936
" />
</g></g>
<g style="fill:none; 
stroke:#000000; stroke-width:0.1500; stroke-opacity:1; 
stroke-linecap:round; stroke-linejoin:round;">
<text x="135.0000" y="11.6500"
textLength="1.4281" font-size="1.7333" lengthAdjust="spacingAndGlyphs"
text-anchor="start" opacity="0">3</text>
<g class="stroked-text"><desc>3</desc>
<path d="M135.2844 10.2936
L136.0892 10.2936
" />
<path d="M136.0892 10.2936
L135.6558 10.7888
" />
<path d="M135.6558 10.7888
L135.8415 10.7888
" />
<path d="M135.8415 10.7888
L135.9654 10.8507
" />
<path d="M135.9654 10.8507
L136.0273 10.9127
" />
<path d="M136.0273 10.9127
L136.0892 11.0365
" />
<path d="M136.0892 11.0365
L136.0892 11.3460
" />
<path d="M136.0892 11.3460
L136.0273 11.4698
" />
<path d="M136.0273 11.4698
L135.9654 11.5317
" />
<path d="M135.9654 11.5317
L135.8415 11.5936
" />
<path d="M135.8415 11.5936
L135.4701 11.5936
" />
<path d="M135.4701 11.5936
L135.3463 11.5317
" />
<path d="M135.3463 11.5317
L135.2844 11.4698
" />
</g></g>
<g style="fill:none; 
stroke:#000000; stroke-width:0.1500; stroke-opacity:1; 
stroke-linecap:round; stroke-linejoin:round;">
<text x="185.0000" y="11.6500"
textLength="1.4281" font-size="1.7333" lengthAdjust="spacingAndGlyphs"
text-anchor="start" opacity="0">4</text>
<g class="stroked-text"><desc>4</desc>
<path d="M185.9654 10.7269
L185.9654 11.5936
" />
<path d="M185.6558 10.2317
L185.3463 11.1603
" />
<path d="M185.3463 11.1603
L186.1511 11.1603
" />
</g></g>
<g style="fill:none; 
stroke:#000000; stroke-width:0.1500; stroke-opacity:1; 
stroke-linecap:round; stroke-linejoin:round;">
<text x="235.0000" y="11.6500"
textLength="1.4281" font-size="1.7333" lengthAdjust="spacingAndGlyphs"
text-anchor="start" opacity="0">5</text>
<g class="stroked-text"><desc>5</desc>
<path d="M236.0273 10.2936
L235.4082 10.2936
" />
<path d="M235.4082 10.2936
L235.3463 10.9127
" />
<path d="M235.3463 10.9127
L235.4082 10.8507
" />
<path d="M235.4082 10.8507
L235.5320 10.7888
" />
<path d="M235.5320 10.7888
L235.8415 10.7888
" />
<path d="M235.8415 10.7888
L235.9654 10.8507
" />
<path d="M235.9654 10.8507
L236.0273 10.9127
" />
<path d="M236.0273 10.9127
L236.0892 11.0365
" />
<path d="M236.0892 11.0365
L236.0892 11.3460
" />
<path d="M236.0892 11.3460
L236.0273 11.4698
" />
<path d="M236.0273 11.4698
L235.9654 11.5317
" />
<path d="M235.9654 11.5317
L235.8415 11.5936
" />
<path d="M235.8415 11.5936
L235.5320 11.5936
" />
<path d="M235.5320 11.5936
L235.4082 11.5317
" />
<path d="M235.4082 11.5317
L235.3463 11.4698
" />
</g></g>
<g style="fill:none; 
stroke:#000000; stroke-width:0.1500; stroke-opacity:1; 
stroke-linecap:round; stroke-linejoin:round;">
<text x="285.0000" y="11.6500"
textLength="1.4281" font-size="1.7333" lengthAdjust="spacingAndGlyphs"
text-anchor="start" opacity="0">6</text>
<g class="stroked-text"><desc>6</desc>
<path d="M285.9654 10.2936
L285.7177 10.2936
" />
<path d="M285.7177 10.2936
L285.5939 10.3555
" />
<path d="M285.5939 10.3555
L285.5320 10.4174
" />
<path d="M285.5320 10.4174
L285.4082 10.6031
" />
<path d="M285.4082 10.6031
L285.3463 10.8507
" />
<path d="M285.3463 10.8507
L285.3463 11.3460
" />
<path d="M285.3463 11.3460
L285.4082 11.4698
" />
<path d="M285.4082 11.4698
L285.4701 11.5317
" />
<path d="M285.4701 11.5317
L285.5939 11.5936
" />
<path d="M285.5939 11.5936
L285.8415 11.5936
" />
<path d="M285.8415 11.5936
L285.9654 11.5317
" />
<path d="M285.9654 11.5317
L286.0273 11.4698
" />
<path d="M286.0273 11.4698
L286.0892 11.3460
" />
<path d="M286.0892 11.3460
L286.0892 11.0365
" />
<path d="M286.0892 11.0365
L286.0273 10.9127
" />
<path d="M286.0273 10.9127
L285.9654 10.8507
" />
<path d="M285.9654 10.8507
L285.8415 10.7888
" />
<path d="M285.8415 10.7888
L285.5939 10.7888
" />
<path d="M285.5939 10.7888
L285.4701 10.8507
" />
<path d="M285.4701 10.8507
L285.4082 10.9127
" />
<path d="M285.4082 10.9127
L285.3463 11.0365
" />
</g></g>
<g style="fill:none; 
stroke:#000000; stroke-width:0.1500; stroke-opacity:1; 
stroke-linecap:round; stroke-linejoin:round;">
<path d="M60.0000 198.0072
L60.0000 200.0072
" />
</g>
<g style="fill:none; 
stroke:#000000; stroke-width:0.1500; stroke-opacity:1; 
stroke-linecap:round; stroke-linejoin:round;">
<path d="M110.0000 198.0072
L110.0000 200.0072
" />
</g>
<g style="fill:none; 
stroke:#000000; stroke-width:0.1500; stroke-opacity:1; 
stroke-linecap:round; stroke-linejoin:round;">
<path d="M160.0000 198.0072
L160.0000 200.0072
" />
</g>
<g style="fill:none; 
stroke:#000000; stroke-width:0.1500; stroke-opacity:1; 
stroke-linecap:round; stroke-linejoin:round;">
<path d="M210.0000 198.0072
L210.0000 200.0072
" />
</g>
<g style="fill:none; 
stroke:#000000; stroke-width:0.1500; stroke-opacity:1; 
stroke-linecap:round; stroke-linejoin:round;">
<path d="M260.0000 198.0072
L260.0000 200.0072
" />
</g>
<g style="fill:none; 
stroke:#000000; stroke-width:0.1500; stroke-opacity:1; 
stroke-linecap:round; stroke-linejoin:round;">
<text x="35.0000" y="199.6572"
textLength="1.4281" font-size="1.7333" lengthAdjust="spacingAndGlyphs"
text-anchor="start" opacity="0">1</text>
<g class="stroked-text"><desc>1</desc>
<path d="M36.0892 199.6008
L35.3463 199.6008
" />
<path d="M35.7177 199.6008
L35.7177 198.3008
" />
<path d="M35.7177 198.3008
L35.5939 198.4865
" />
<path d="M35.5939 198.4865
L35.4701 198.6103
" />
<path d="M35.4701 198.6103
L35.3463 198.6722
" />
</g></g>
<g style="fill:none; 
stroke:#000000; stroke-width:0.1500; stroke-opacity:1; 
stroke-linecap:round; stroke-linejoin:round;">
<text x="85.0000" y="199.6572"
textLength="1.4281" font-size="1.7333" lengthAdjust="spacingAndGlyphs"
text-anchor="start" opacity="0">2</text>
<g class="stroked-text"><desc>2</desc>
<path d="M85.3463 198.4246
L85.4082 198.3627
" />
<path d="M85.4082 198.3627
L85.5320 198.3008
" />
<path d="M85.5320 198.3008
L85.8415 198.3008
" />
<path d="M85.8415 198.3008
L85.9654 198.3627
" />
<path d="M85.9654 198.3627
L86.0273 198.4246
" />
<path d="M86.0273 198.4246
L86.0892 198.5484
" />
<path d="M86.0892 198.5484
L86.0892 198.6722
" />
<path d="M86.0892 198.6722
L86.0273 198.8579
" />
<path d="M86.0273 198.8579
L85.2844 199.6008
" />
<path d="M85.2844 199.6008
L86.0892 199.6008
" />
</g></g>
<g style="fill:none; 
stroke:#000000; stroke-width:0.1500; stroke-opacity:1; 
stroke-linecap:round; stroke-linejoin:round;">
<text x="135.0000" y="199.6572"
textLength="1.4281" font-size="1.7333" lengthAdjust="spacingAndGlyphs"
text-anchor="start" opacity="0">3</text>
<g class="stroked-text"><desc>3</desc>
<path d="M135.2844 198.3008
L136.0892 198.3008
" />
<path d="M136.0892 198.3008
L135.6558 198.7960
" />
<path d="M135.6558 198.7960
L135.8415 198.7960
" />
<path d="M135.8415 198.7960
L135.9654 198.8579
" />
<path d="M135.9654 198.8579
L136.0273 198.9199
" />
<path d="M136.0273 198.9199
L136.0892 199.0437
" />
<path d="M136.0892 199.0437
L136.0892 199.3532
" />
<path d="M136.0892 199.3532
L136.0273 199.4770
" />
<path d="M136.0273 199.4770
L135.9654 199.5389
" />
<path d="M135.9654 199.5389
L135.8415 199.6008
" />
<path d="M135.8415 199.6008
L135.4701 199.6008
" />
<path d="M135.4701 199.6008
L135.3463 199.5389
" />
<path d="M135.3463 199.5389
L135.2844 199.4770
" />
</g></g>
<g style="fill:none; 
stroke:#000000; stroke-width:0.1500; stroke-opacity:1; 
stroke-linecap:round; stroke-linejoin:round;">
<text x="185.0000" y="199.6572"
textLength="1.4281" font-size="1.7333" lengthAdjust="spacingAndGlyphs"
text-anchor="start" opacity="0">4</text>
<g class="stroked-text"><desc>4</desc>
<path d="M185.9654 198.7341
L185.9654 199.6008
" />
<path d="M185.6558 198.2389
L185.3463 199.1675
" />
<path d="M185.3463 199.1675
L186.1511 199.1675
" />
</g></g>
<g style="fill:none; 
stroke:#000000; stroke-width:0.1500; stroke-opacity:1; 
stroke-linecap:round; stroke-linejoin:round;">
<text x="235.0000" y="199.6572"
textLength="1.4281" font-size="1.7333" lengthAdjust="spacingAndGlyphs"
text-anchor="start" opacity="0">5</text>
<g class="stroked-text"><desc>5</desc>
<path d="M236.0273 198.3008
L235.4082 198.3008
" />
<path d="M235.4082 198.3008
L235.3463 198.9199
" />
<path d="M235.3463 198.9199
L235.4082 198.8579
" />
<path d="M235.4082 198.8579
L235.5320 198.7960
" />
<path d="M235.5320 198.7960
L235.8415 198.7960
" />
<path d="M235.8415 198.7960
L235.9654 198.8579
" />
<path d="M235.9654 198.8579
L236.0273 198.9199
" />
<path d="M236.0273 198.9199
L236.0892 199.0437
" />
<path d="M236.0892 199.0437
L236.0892 199.3532
" />
<path d="M236.0892 199.3532
L236.0273 199.4770
" />
<path d="M236.0273 199.4770
L235.9654 199.5389
" />
<path d="M235.9654 199.5389
L235.8415 199.6008
" />
<path d="M235.8415 199.6008
L235.5320 199.6008
" />
<path d="M235.5320 199.6008
L235.4082 199.5389
" />
<path d="M235.4082 199.5389
L235.3463 199.4770
" />
</g></g>
<g style="fill:none; 
stroke:#000000; stroke-width:0.1500; stroke-opacity:1; 
stroke-linecap:round; stroke-linejoin:round;">
<text x="285.0000" y="199.6572"
textLength="1.4281" font-size="1.7333" lengthAdjust="spacingAndGlyphs"
text-anchor="start" opacity="0">6</text>
<g class="stroked-text"><desc>6</desc>
<path d="M285.9654 198.3008
L285.7177 198.3008
" />
<path d="M285.7177 198.3008
L285.5939 198.3627
" />
<path d="M285.5939 198.3627
L285.5320 198.4246
" />
<path d="M285.5320 198.4246
L285.4082 198.6103
" />
<path d="M285.4082 198.6103
L285.3463 198.8579
" />
<path d="M285.3463 198.8579
L285.3463 199.3532
" />
<path d="M285.3463 199.3532
L285.4082 199.4770
" />
<path d="M285.4082 199.4770
L285.4701 199.5389
" />
<path d="M285.4701 199.5389
L285.5939 199.6008
" />
<path d="M285.5939 199.6008
L285.8415 199.6008
" />
<path d="M285.8415 199.6008
L285.9654 199.5389
" />
<path d="M285.9654 199.5389
L286.0273 199.4770
" />
<path d="M286.0273 199.4770
L286.0892 199.3532
" />
<path d="M286.0892 199.3532
L286.0892 199.0437
" />
<path d="M286.0892 199.0437
L286.0273 198.9199
" />
<path d="M286.0273 198.9199
L285.9654 198.8579
" />
<path d="M285.9654 198.8579
L285.8415 198.7960
" />
<path d="M285.8415 198.7960
L285.5939 198.7960
" />
<path d="M285.5939 198.7960
L285.4701 198.8579
" />
<path d="M285.4701 198.8579
L285.4082 198.9199
" />
<path d="M285.4082 198.9199
L285.3463 199.0437
" />
</g></g>
<g style="fill:none; 
stroke:#000000; stroke-width:0.1500; stroke-opacity:1; 
stroke-linecap:round; stroke-linejoin:round;">
<path d="M10.0000 60.0000
L12.0000 60.0000
" />
</g>
<g style="fill:none; 
stroke:#000000; stroke-width:0.1500; stroke-opacity:1; 
stroke-linecap:round; stroke-linejoin:round;">
<path d="M10.0000 110.0000
L12.0000 110.0000
" />
</g>
<g style="fill:none; 
stroke:#000000; stroke-width:0.1500; stroke-opacity:1; 
stroke-linecap:round; stroke-linejoin:round;">
<path d="M10.0000 160.0000
L12.0000 160.0000
" />
</g>
<g style="fill:none; 
stroke:#000000; stroke-width:0.1500; stroke-opacity:1; 
stroke-linecap:round; stroke-linejoin:round;">
<text x="11.0000" y="35.6500"
textLength="1.3043" font-size="1.7333" lengthAdjust="spacingAndGlyphs"
text-anchor="middle" opacity="0">A</text>
<g class="stroked-text"><desc>A</desc>
<path d="M10.6905 35.2222
L11.3095 35.2222
" />
<path d="M10.5667 35.5936
L11.0000 34.2936
" />
<path d="M11.0000 34.2936
L11.4333 35.5936
" />
</g></g>
<g style="fill:none; 
stroke:#000000; stroke-width:0.1500; stroke-opacity:1; 
stroke-linecap:round; stroke-linejoin:round;">
<text x="11.0000" y="85.6500"
textLength="1.4900" font-size="1.7333" lengthAdjust="spacingAndGlyphs"
text-anchor="middle" opacity="0">B</text>
<g class="stroked-text"><desc>B</desc>
<path d="M11.0929 84.9127
L11.2786 84.9746
" />
<path d="M11.2786 84.9746
L11.3405 85.0365
" />
<path d="M11.3405 85.0365
L11.4024 85.1603
" />
<path d="M11.4024 85.1603
L11.4024 85.3460
" />
<path d="M11.4024 85.3460
L11.3405 85.4698
" />
<path d="M11.3405 85.4698
L11.2786 85.5317
" />
<path d="M11.2786 85.5317
L11.1548 85.5936
" />
<path d="M11.1548 85.5936
L10.6595 85.5936
" />
<path d="M10.6595 85.5936
L10.6595 84.2936
" />
<path d="M10.6595 84.2936
L11.0929 84.2936
" />
<path d="M11.0929 84.2936
L11.2167 84.3555
" />
<path d="M11.2167 84.3555
L11.2786 84.4174
" />
<path d="M11.2786 84.4174
L11.3405 84.5412
" />
<path d="M11.3405 84.5412
L11.3405 84.6650
" />
<path d="M11.3405 84.6650
L11.2786 84.7888
" />
<path d="M11.2786 84.7888
L11.2167 84.8507
" />
<path d="M11.2167 84.8507
L11.0929 84.9127
" />
<path d="M11.0929 84.9127
L10.6595 84.9127
" />
</g></g>
<g style="fill:none; 
stroke:#000000; stroke-width:0.1500; stroke-opacity:1; 
stroke-linecap:round; stroke-linejoin:round;">
<text x="11.0000" y="135.6500"
textLength="1.4900" font-size="1.7333" lengthAdjust="spacingAndGlyphs"
text-anchor="middle" opacity="0">C</text>
<g class="stroked-text"><desc>C</desc>
<path d="M11.4024 135.4698
L11.3405 135.5317
" />
<path d="M11.3405 135.5317
L11.1548 135.5936
" />
<path d="M11.1548 135.5936
L11.0310 135.5936
" />
<path d="M11.0310 135.5936
L10.8452 135.5317
" />
<path d="M10.8452 135.5317
L10.7214 135.4079
" />
<path d="M10.7214 135.4079
L10.6595 135.2841
" />
<path d="M10.6595 135.2841
L10.5976 135.0365
" />
<path d="M10.5976 135.0365
L10.5976 134.8507
" />
<path d="M10.5976 134.8507
L10.6595 134.6031
" />
<path d="M10.6595 134.6031
L10.7214 134.4793
" />
<path d="M10.7214 134.4793
L10.8452 134.3555
" />
<path d="M10.8452 134.3555
L11.0310 134.2936
" />
<path d="M11.0310 134.2936
L11.1548 134.2936
" />
<path d="M11.1548 134.2936
L11.3405 134.3555
" />
<path d="M11.3405 134.3555
L11.4024 134.4174
" />
</g></g>
<g style="fill:none; 
stroke:#000000; stroke-width:0.1500; stroke-opacity:1; 
stroke-linecap:round; stroke-linejoin:round;">
<text x="11.0000" y="185.6500"
textLength="1.4900" font-size="1.7333" lengthAdjust="spacingAndGlyphs"
text-anchor="middle" opacity="0">D</text>
<g class="stroked-text"><desc>D</desc>
<path d="M10.6595 185.5936
L10.6595 184.2936
" />
<path d="M10.6595 184.2936
L10.9690 184.2936
" />
<path d="M10.9690 184.2936
L11.1548 184.3555
" />
<path d="M11.1548 184.3555
L11.2786 184.4793
" />
<path d="M11.2786 184.4793
L11.3405 184.6031
" />
<path d="M11.3405 184.6031
L11.4024 184.8507
" />
<path d="M11.4024 184.8507
L11.4024 185.0365
" />
<path d="M11.4024 185.0365
L11.3405 185.2841
" />
<path d="M11.3405 185.2841
L11.2786 185.4079
" />
<path d="M11.2786 185.4079
L11.1548 185.5317
" />
<path d="M11.1548 185.5317
L10.9690 185.5936
" />
<path d="M10.9690 185.5936
L10.6595 185.5936
" />
</g></g>
<g style="fill:none; 
stroke:#000000; stroke-width:0.1500; stroke-opacity:1; 
stroke-linecap:round; stroke-linejoin:round;">
<path d="M287.0022 60.0000
L285.0022 60.0000
" />
</g>
<g style="fill:none; 
stroke:#000000; stroke-width:0.1500; stroke-opacity:1; 
stroke-linecap:round; stroke-linejoin:round;">
<path d="M287.0022 110.0000
L285.0022 110.0000
" />
</g>
<g style="fill:none; 
stroke:#000000; stroke-width:0.1500; stroke-opacity:1; 
stroke-linecap:round; stroke-linejoin:round;">
<path d="M287.0022 160.0000
L285.0022 160.0000
" />
</g>
<g style="fill:none; 
stroke:#000000; stroke-width:0.1500; stroke-opacity:1; 
stroke-linecap:round; stroke-linejoin:round;">
<text x="286.0022" y="35.6500"
textLength="1.3043" font-size="1.7333" lengthAdjust="spacingAndGlyphs"
text-anchor="middle" opacity="0">A</text>
<g class="stroked-text"><desc>A</desc>
<path d="M285.6927 35.2222
L286.3117 35.2222
" />
<path d="M285.5689 35.5936
L286.0022 34.2936
" />
<path d="M286.0022 34.2936
L286.4355 35.5936
" />
</g></g>
<g style="fill:none; 
stroke:#000000; stroke-width:0.1500; stroke-opacity:1; 
stroke-linecap:round; stroke-linejoin:round;">
<text x="286.0022" y="85.6500"
textLength="1.4900" font-size="1.7333" lengthAdjust="spacingAndGlyphs"
text-anchor="middle" opacity="0">B</text>
<g class="stroked-text"><desc>B</desc>
<path d="M286.0951 84.9127
L286.2808 84.9746
" />
<path d="M286.2808 84.9746
L286.3427 85.0365
" />
<path d="M286.3427 85.0365
L286.4046 85.1603
" />
<path d="M286.4046 85.1603
L286.4046 85.3460
" />
<path d="M286.4046 85.3460
L286.3427 85.4698
" />
<path d="M286.3427 85.4698
L286.2808 85.5317
" />
<path d="M286.2808 85.5317
L286.1570 85.5936
" />
<path d="M286.1570 85.5936
L285.6617 85.5936
" />
<path d="M285.6617 85.5936
L285.6617 84.2936
" />
<path d="M285.6617 84.2936
L286.0951 84.2936
" />
<path d="M286.0951 84.2936
L286.2189 84.3555
" />
<path d="M286.2189 84.3555
L286.2808 84.4174
" />
<path d="M286.2808 84.4174
L286.3427 84.5412
" />
<path d="M286.3427 84.5412
L286.3427 84.6650
" />
<path d="M286.3427 84.6650
L286.2808 84.7888
" />
<path d="M286.2808 84.7888
L286.2189 84.8507
" />
<path d="M286.2189 84.8507
L286.0951 84.9127
" />
<path d="M286.0951 84.9127
L285.6617 84.9127
" />
</g></g>
<g style="fill:none; 
stroke:#000000; stroke-width:0.1500; stroke-opacity:1; 
stroke-linecap:round; stroke-linejoin:round;">
<text x="286.0022" y="135.6500"
textLength="1.4900" font-size="1.7333" lengthAdjust="spacingAndGlyphs"
text-anchor="middle" opacity="0">C</text>
<g class="stroked-text"><desc>C</desc>
<path d="M286.4046 135.4698
L286.3427 135.5317
" />
<path d="M286.3427 135.5317
L286.1570 135.5936
" />
<path d="M286.1570 135.5936
L286.0332 135.5936
" />
<path d="M286.0332 135.5936
L285.8474 135.5317
" />
<path d="M285.8474 135.5317
L285.7236 135.4079
" />
<path d="M285.7236 135.4079
L285.6617 135.2841
" />
<path d="M285.6617 135.2841
L285.5998 135.0365
" />
<path d="M285.5998 135.0365
L285.5998 134.8507
" />
<path d="M285.5998 134.8507
L285.6617 134.6031
" />
<path d="M285.6617 134.6031
L285.7236 134.4793
" />
<path d="M285.7236 134.4793
L285.8474 134.3555
" />
<path d="M285.8474 134.3555
L286.0332 134.2936
" />
<path d="M286.0332 134.2936
L286.1570 134.2936
" />
<path d="M286.1570 134.2936
L286.3427 134.3555
" />
<path d="M286.3427 134.3555
L286.4046 134.4174
" />
</g></g>
<g style="fill:none; 
stroke:#000000; stroke-width:0.1500; stroke-opacity:1; 
stroke-linecap:round; stroke-linejoin:round;">
<text x="286.0022" y="185.6500"
textLength="1.4900" font-size="1.7333" lengthAdjust="spacingAndGlyphs"
text-anchor="middle" opacity="0">D</text>
<g class="stroked-text"><desc>D</desc>
<path d="M285.6617 185.5936
L285.6617 184.2936
" />
<path d="M285.6617 184.2936
L285.9712 184.2936
" />
<path d="M285.9712 184.2936
L286.1570 184.3555
" />
<path d="M286.1570 184.3555
L286.2808 184.4793
" />
<path d="M286.2808 184.4793
L286.3427 184.6031
" />
<path d="M286.3427 184.6031
L286.4046 184.8507
" />
<path d="M286.4046 184.8507
L286.4046 185.0365
" />
<path d="M286.4046 185.0365
L286.3427 185.2841
" />
<path d="M286.3427 185.2841
L286.2808 185.4079
" />
<path d="M286.2808 185.4079
L286.1570 185.5317
" />
<path d="M286.1570 185.5317
L285.9712 185.5936
" />
<path d="M285.9712 185.5936
L285.6617 185.5936
" />
</g></g>
<g style="fill:none; 
stroke:#000000; stroke-width:0.1500; stroke-opacity:1; 
stroke-linecap:round; stroke-linejoin:round;">
<text x="200.0022" y="193.8572"
textLength="7.0071" font-size="2.0000" lengthAdjust="spacingAndGlyphs"
text-anchor="start" opacity="0">Date: </text>
<g class="stroked-text"><desc>Date: </desc>
<path d="M200.4580 193.7933
L200.4580 192.2933
" />
<path d="M200.4580 192.2933
L200.8152 192.2933
" />
<path d="M200.8152 192.2933
L201.0295 192.3648
" />
<path d="M201.0295 192.3648
L201.1723 192.5076
" />
<path d="M201.1723 192.5076
L201.2437 192.6505
" />
<path d="M201.2437 192.6505
L201.3152 192.9362
" />
<path d="M201.3152 192.9362
L201.3152 193.1505
" />
<path d="M201.3152 193.1505
L201.2437 193.4362
" />
<path d="M201.2437 193.4362
L201.1723 193.5790
" />
<path d="M201.1723 193.5790
L201.0295 193.7219
" />
<path d="M201.0295 193.7219
L200.8152 193.7933
" />
<path d="M200.8152 193.7933
L200.4580 193.7933
" />
<path d="M202.6009 193.7933
L202.6009 193.0076
" />
<path d="M202.6009 193.0076
L202.5295 192.8648
" />
<path d="M202.5295 192.8648
L202.3866 192.7933
" />
<path d="M202.3866 192.7933
L202.1009 192.7933
" />
<path d="M202.1009 192.7933
L201.9580 192.8648
" />
<path d="M202.6009 193.7219
L202.4580 193.7933
" />
<path d="M202.4580 193.7933
L202.1009 193.7933
" />
<path d="M202.1009 193.7933
L201.9580 193.7219
" />
<path d="M201.9580 193.7219
L201.8866 193.5790
" />
<path d="M201.8866 193.5790
L201.8866 193.4362
" />
<path d="M201.8866 193.4362
L201.9580 193.2933
" />
<path d="M201.9580 193.2933
L202.1009 193.2219
" />
<path d="M202.1009 193.2219
L202.4580 193.2219
" />
<path d="M202.4580 193.2219
L202.6009 193.1505
" />
<path d="M203.1009 192.7933
L203.6723 192.7933
" />
<path d="M203.3152 192.2933
L203.3152 193.5790
" />
<path d="M203.3152 193.5790
L203.3866 193.7219
" />
<path d="M203.3866 193.7219
L203.5295 193.7933
" />
<path d="M203.5295 193.7933
L203.6723 193.7933
" />
<path d="M204.7437 193.7219
L204.6009 193.7933
" />
<path d="M204.6009 193.7933
L204.3152 193.7933
" />
<path d="M204.3152 193.7933
L204.1723 193.7219
" />
<path d="M204.1723 193.7219
L204.1009 193.5790
" />
<path d="M204.1009 193.5790
L204.1009 193.0076
" />
<path d="M204.1009 193.0076
L204.1723 192.8648
" />
<path d="M204.1723 192.8648
L204.3152 192.7933
" />
<path d="M204.3152 192.7933
L204.6009 192.7933
" />
<path d="M204.6009 192.7933
L204.7437 192.8648
" />
<path d="M204.7437 192.8648
L204.8152 193.0076
" />
<path d="M204.8152 193.0076
L204.8152 193.1505
" />
<path d="M204.8152 193.1505
L204.1009 193.2933
" />
<path d="M205.4580 193.6505
L205.5295 193.7219
" />
<path d="M205.5295 193.7219
L205.4580 193.7933
" />
<path d="M205.4580 193.7933
L205.3866 193.7219
" />
<path d="M205.3866 193.7219
L205.4580 193.6505
" />
<path d="M205.4580 193.6505
L205.4580 193.7933
" />
<path d="M205.4580 192.8648
L205.5295 192.9362
" />
<path d="M205.5295 192.9362
L205.4580 193.0076
" />
<path d="M205.4580 193.0076
L205.3866 192.9362
" />
<path d="M205.3866 192.9362
L205.4580 192.8648
" />
<path d="M205.4580 192.8648
L205.4580 193.0076
" />
</g></g>
<g style="fill:none; 
stroke:#000000; stroke-width:0.1500; stroke-opacity:1; 
stroke-linecap:round; stroke-linejoin:round;">
<path d="M177.0022 194.5072
L285.0022 194.5072
" />
</g>
<g style="fill:none; 
stroke:#000000; stroke-width:0.1500; stroke-opacity:1; 
stroke-linecap:round; stroke-linejoin:round;">
<text x="178.0022" y="196.6572"
textLength="20.8643" font-size="2.0000" lengthAdjust="spacingAndGlyphs"
text-anchor="start" opacity="0">KiCad E.D.A. 8.0.0</text>
<g class="stroked-text"><desc>KiCad E.D.A. 8.0.0</desc>
<path d="M178.4580 196.5933
L178.4580 195.0933
" />
<path d="M179.3152 196.5933
L178.6723 195.7362
" />
<path d="M179.3152 195.0933
L178.4580 195.9505
" />
<path d="M179.9580 196.5933
L179.9580 195.5933
" />
<path d="M179.9580 195.0933
L179.8866 195.1648
" />
<path d="M179.8866 195.1648
L179.9580 195.2362
" />
<path d="M179.9580 195.2362
L180.0295 195.1648
" />
<path d="M180.0295 195.1648
L179.9580 195.0933
" />
<path d="M179.9580 195.0933
L179.9580 195.2362
" />
<path d="M181.5295 196.4505
L181.4580 196.5219
" />
<path d="M181.4580 196.5219
L181.2437 196.5933
" />
<path d="M181.2437 196.5933
L181.1009 196.5933
" />
<path d="M181.1009 196.5933
L180.8866 196.5219
" />
<path d="M180.8866 196.5219
L180.7437 196.3790
" />
<path d="M180.7437 196.3790
L180.6723 196.2362
" />
<path d="M180.6723 196.2362
L180.6009 195.9505
" />
<path d="M180.6009 195.9505
L180.6009 195.7362
" />
<path d="M180.6009 195.7362
L180.6723 195.4505
" />
<path d="M180.6723 195.4505
L180.7437 195.3076
" />
<path d="M180.7437 195.3076
L180.8866 195.1648
" />
<path d="M180.8866 195.1648
L181.1009 195.0933
" />
<path d="M181.1009 195.0933
L181.2437 195.0933
" />
<path d="M181.2437 195.0933
L181.4580 195.1648
" />
<path d="M181.4580 195.1648
L181.5295 195.2362
" />
<path d="M182.8152 196.5933
L182.8152 195.8076
" />
<path d="M182.8152 195.8076
L182.7437 195.6648
" />
<path d="M182.7437 195.6648
L182.6009 195.5933
" />
<path d="M182.6009 195.5933
L182.3152 195.5933
" />
<path d="M182.3152 195.5933
L182.1723 195.6648
" />
<path d="M182.8152 196.5219
L182.6723 196.5933
" />
<path d="M182.6723 196.5933
L182.3152 196.5933
" />
<path d="M182.3152 196.5933
L182.1723 196.5219
" />
<path d="M182.1723 196.5219
L182.1009 196.3790
" />
<path d="M182.1009 196.3790
L182.1009 196.2362
" />
<path d="M182.1009 196.2362
L182.1723 196.0933
" />
<path d="M182.1723 196.0933
L182.3152 196.0219
" />
<path d="M182.3152 196.0219
L182.6723 196.0219
" />
<path d="M182.6723 196.0219
L182.8152 195.9505
" />
<path d="M184.1723 196.5933
L184.1723 195.0933
" />
<path d="M184.1723 196.5219
L184.0295 196.5933
" />
<path d="M184.0295 196.5933
L183.7437 196.5933
" />
<path d="M183.7437 196.5933
L183.6009 196.5219
" />
<path d="M183.6009 196.5219
L183.5295 196.4505
" />
<path d="M183.5295 196.4505
L183.4580 196.3076
" />
<path d="M183.4580 196.3076
L183.4580 195.8790
" />
<path d="M183.4580 195.8790
L183.5295 195.7362
" />
<path d="M183.5295 195.7362
L183.6009 195.6648
" />
<path d="M183.6009 195.6648
L183.7437 195.5933
" />
<path d="M183.7437 195.5933
L184.0295 195.5933
" />
<path d="M184.0295 195.5933
L184.1723 195.6648
" />
<path d="M186.0295 195.8076
L186.5295 195.8076
" />
<path d="M186.7437 196.5933
L186.0295 196.5933
" />
<path d="M186.0295 196.5933
L186.0295 195.0933
" />
<path d="M186.0295 195.0933
L186.7437 195.0933
" />
<path d="M187.3866 196.4505
L187.4580 196.5219
" />
<path d="M187.4580 196.5219
L187.3866 196.5933
" />
<path d="M187.3866 196.5933
L187.3152 196.5219
" />
<path d="M187.3152 196.5219
L187.3866 196.4505
" />
<path d="M187.3866 196.4505
L187.3866 196.5933
" />
<path d="M188.1009 196.5933
L188.1009 195.0933
" />
<path d="M188.1009 195.0933
L188.4580 195.0933
" />
<path d="M188.4580 195.0933
L188.6723 195.1648
" />
<path d="M188.6723 195.1648
L188.8152 195.3076
" />
<path d="M188.8152 195.3076
L188.8866 195.4505
" />
<path d="M188.8866 195.4505
L188.9580 195.7362
" />
<path d="M188.9580 195.7362
L188.9580 195.9505
" />
<path d="M188.9580 195.9505
L188.8866 196.2362
" />
<path d="M188.8866 196.2362
L188.8152 196.3790
" />
<path d="M188.8152 196.3790
L188.6723 196.5219
" />
<path d="M188.6723 196.5219
L188.4580 196.5933
" />
<path d="M188.4580 196.5933
L188.1009 196.5933
" />
<path d="M189.6009 196.4505
L189.6723 196.5219
" />
<path d="M189.6723 196.5219
L189.6009 196.5933
" />
<path d="M189.6009 196.5933
L189.5295 196.5219
" />
<path d="M189.5295 196.5219
L189.6009 196.4505
" />
<path d="M189.6009 196.4505
L189.6009 196.5933
" />
<path d="M190.2437 196.1648
L190.9580 196.1648
" />
<path d="M190.1009 196.5933
L190.6009 195.0933
" />
<path d="M190.6009 195.0933
L191.1009 196.5933
" />
<path d="M191.6009 196.4505
L191.6723 196.5219
" />
<path d="M191.6723 196.5219
L191.6009 196.5933
" />
<path d="M191.6009 196.5933
L191.5295 196.5219
" />
<path d="M191.5295 196.5219
L191.6009 196.4505
" />
<path d="M191.6009 196.4505
L191.6009 196.5933
" />
<path d="M193.6723 195.7362
L193.5295 195.6648
" />
<path d="M193.5295 195.6648
L193.4580 195.5933
" />
<path d="M193.4580 195.5933
L193.3866 195.4505
" />
<path d="M193.3866 195.4505
L193.3866 195.3790
" />
<path d="M193.3866 195.3790
L193.4580 195.2362
" />
<path d="M193.4580 195.2362
L193.5295 195.1648
" />
<path d="M193.5295 195.1648
L193.6723 195.0933
" />
<path d="M193.6723 195.0933
L193.9580 195.0933
" />
<path d="M193.9580 195.0933
L194.1009 195.1648
" />
<path d="M194.1009 195.1648
L194.1723 195.2362
" />
<path d="M194.1723 195.2362
L194.2437 195.3790
" />
<path d="M194.2437 195.3790
L194.2437 195.4505
" />
<path d="M194.2437 195.4505
L194.1723 195.5933
" />
<path d="M194.1723 195.5933
L194.1009 195.6648
" />
<path d="M194.1009 195.6648
L193.9580 195.7362
" />
<path d="M193.9580 195.7362
L193.6723 195.7362
" />
<path d="M193.6723 195.7362
L193.5295 195.8076
" />
<path d="M193.5295 195.8076
L193.4580 195.8790
" />
<path d="M193.4580 195.8790
L193.3866 196.0219
" />
<path d="M193.3866 196.0219
L193.3866 196.3076
" />
<path d="M193.3866 196.3076
L193.4580 196.4505
" />
<path d="M193.4580 196.4505
L193.5295 196.5219
" />
<path d="M193.5295 196.5219
L193.6723 196.5933
" />
<path d="M193.6723 196.5933
L193.9580 196.5933
" />
<path d="M193.9580 196.5933
L194.1009 196.5219
" />
<path d="M194.1009 196.5219
L194.1723 196.4505
" />
<path d="M194.1723 196.4505
L194.2437 196.3076
" />
<path d="M194.2437 196.3076
L194.2437 196.0219
" />
<path d="M194.2437 196.0219
L194.1723 195.8790
" />
<path d="M194.1723 195.8790
L194.1009 195.8076
" />
<path d="M194.1009 195.8076
L193.9580 195.7362
" />
<path d="M194.8866 196.4505
L194.9580 196.5219
" />
<path d="M194.9580 196.5219
L194.8866 196.5933
" />
<path d="M194.8866 196.5933
L194.8152 196.5219
" />
<path d="M194.8152 196.5219
L194.8866 196.4505
" />
<path d="M194.8866 196.4505
L194.8866 196.5933
" />
<path d="M195.8866 195.0933
L196.0295 195.0933
" />
<path d="M196.0295 195.0933
L196.1723 195.1648
" />
<path d="M196.1723 195.1648
L196.2437 195.2362
" />
<path d="M196.2437 195.2362
L196.3152 195.3790
" />
<path d="M196.3152 195.3790
L196.3866 195.6648
" />
<path d="M196.3866 195.6648
L196.3866 196.0219
" />
<path d="M196.3866 196.0219
L196.3152 196.3076
" />
<path d="M196.3152 196.3076
L196.2437 196.4505
" />
<path d="M196.2437 196.4505
L196.1723 196.5219
" />
<path d="M196.1723 196.5219
L196.0295 196.5933
" />
<path d="M196.0295 196.5933
L195.8866 196.5933
" />
<path d="M195.8866 196.5933
L195.7437 196.5219
" />
<path d="M195.7437 196.5219
L195.6723 196.4505
" />
<path d="M195.6723 196.4505
L195.6009 196.3076
" />
<path d="M195.6009 196.3076
L195.5295 196.0219
" />
<path d="M195.5295 196.0219
L195.5295 195.6648
" />
<path d="M195.5295 195.6648
L195.6009 195.3790
" />
<path d="M195.6009 195.3790
L195.6723 195.2362
" />
<path d="M195.6723 195.2362
L195.7437 195.1648
" />
<path d="M195.7437 195.1648
L195.8866 195.0933
" />
<path d="M197.0295 196.4505
L197.1009 196.5219
" />
<path d="M197.1009 196.5219
L197.0295 196.5933
" />
<path d="M197.0295 196.5933
L196.9580 196.5219
" />
<path d="M196.9580 196.5219
L197.0295 196.4505
" />
<path d="M197.0295 196.4505
L197.0295 196.5933
" />
<path d="M198.0295 195.0933
L198.1723 195.0933
" />
<path d="M198.1723 195.0933
L198.3152 195.1648
" />
<path d="M198.3152 195.1648
L198.3866 195.2362
" />
<path d="M198.3866 195.2362
L198.4580 195.3790
" />
<path d="M198.4580 195.3790
L198.5295 195.6648
" />
<path d="M198.5295 195.6648
L198.5295 196.0219
" />
<path d="M198.5295 196.0219
L198.4580 196.3076
" />
<path d="M198.4580 196.3076
L198.3866 196.4505
" />
<path d="M198.3866 196.4505
L198.3152 196.5219
" />
<path d="M198.3152 196.5219
L198.1723 196.5933
" />
<path d="M198.1723 196.5933
L198.0295 196.5933
" />
<path d="M198.0295 196.5933
L197.8866 196.5219
" />
<path d="M197.8866 196.5219
L197.8152 196.4505
" />
<path d="M197.8152 196.4505
L197.7437 196.3076
" />
<path d="M197.7437 196.3076
L197.6723 196.0219
" />
<path d="M197.6723 196.0219
L197.6723 195.6648
" />
<path d="M197.6723 195.6648
L197.7437 195.3790
" />
<path d="M197.7437 195.3790
L197.8152 195.2362
" />
<path d="M197.8152 195.2362
L197.8866 195.1648
" />
<path d="M197.8866 195.1648
L198.0295 195.0933
" />
</g></g>
<g style="fill:none; 
stroke:#000000; stroke-width:0.1500; stroke-opacity:1; 
stroke-linecap:round; stroke-linejoin:round;">
<path d="M177.0022 191.5072
L285.0022 191.5072
" />
</g>
<g style="fill:none; 
stroke:#000000; stroke-width:0.3000; stroke-opacity:1; 
stroke-linecap:round; stroke-linejoin:round;">
<text x="263.0022" y="193.8572"
textLength="6.3857" font-size="2.0000" lengthAdjust="spacingAndGlyphs"
text-anchor="start" opacity="0">Rev: </text>
<g class="stroked-text"><desc>Rev: </desc>
<path d="M264.4139 193.7855
L263.9139 193.0712
" />
<path d="M263.5567 193.7855
L263.5567 192.2855
" />
<path d="M263.5567 192.2855
L264.1281 192.2855
" />
<path d="M264.1281 192.2855
L264.2710 192.3570
" />
<path d="M264.2710 192.3570
L264.3424 192.4284
" />
<path d="M264.3424 192.4284
L264.4139 192.5712
" />
<path d="M264.4139 192.5712
L264.4139 192.7855
" />
<path d="M264.4139 192.7855
L264.3424 192.9284
" />
<path d="M264.3424 192.9284
L264.2710 192.9998
" />
<path d="M264.2710 192.9998
L264.1281 193.0712
" />
<path d="M264.1281 193.0712
L263.5567 193.0712
" />
<path d="M265.6281 193.7141
L265.4853 193.7855
" />
<path d="M265.4853 193.7855
L265.1996 193.7855
" />
<path d="M265.1996 193.7855
L265.0567 193.7141
" />
<path d="M265.0567 193.7141
L264.9853 193.5712
" />
<path d="M264.9853 193.5712
L264.9853 192.9998
" />
<path d="M264.9853 192.9998
L265.0567 192.8570
" />
<path d="M265.0567 192.8570
L265.1996 192.7855
" />
<path d="M265.1996 192.7855
L265.4853 192.7855
" />
<path d="M265.4853 192.7855
L265.6281 192.8570
" />
<path d="M265.6281 192.8570
L265.6996 192.9998
" />
<path d="M265.6996 192.9998
L265.6996 193.1427
" />
<path d="M265.6996 193.1427
L264.9853 193.2855
" />
<path d="M266.1996 192.7855
L266.5567 193.7855
" />
<path d="M266.5567 193.7855
L266.9139 192.7855
" />
<path d="M267.4853 193.6427
L267.5567 193.7141
" />
<path d="M267.5567 193.7141
L267.4853 193.7855
" />
<path d="M267.4853 193.7855
L267.4139 193.7141
" />
<path d="M267.4139 193.7141
L267.4853 193.6427
" />
<path d="M267.4853 193.6427
L267.4853 193.7855
" />
<path d="M267.4853 192.8570
L267.5567 192.9284
" />
<path d="M267.5567 192.9284
L267.4853 192.9998
" />
<path d="M267.4853 192.9998
L267.4139 192.9284
" />
<path d="M267.4139 192.9284
L267.4853 192.8570
" />
<path d="M267.4853 192.8570
L267.4853 192.9998
" />
</g></g>
<g style="fill:none; 
stroke:#000000; stroke-width:0.1500; stroke-opacity:1; 
stroke-linecap:round; stroke-linejoin:round;">
<text x="178.0022" y="193.8572"
textLength="9.3643" font-size="2.0000" lengthAdjust="spacingAndGlyphs"
text-anchor="start" opacity="0">Size: A4</text>
<g class="stroked-text"><desc>Size: A4</desc>
<path d="M178.3866 193.7219
L178.6009 193.7933
" />
<path d="M178.6009 193.7933
L178.9580 193.7933
" />
<path d="M178.9580 193.7933
L179.1009 193.7219
" />
<path d="M179.1009 193.7219
L179.1723 193.6505
" />
<path d="M179.1723 193.6505
L179.2437 193.5076
" />
<path d="M179.2437 193.5076
L179.2437 193.3648
" />
<path d="M179.2437 193.3648
L179.1723 193.2219
" />
<path d="M179.1723 193.2219
L179.1009 193.1505
" />
<path d="M179.1009 193.1505
L178.9580 193.0790
" />
<path d="M178.9580 193.0790
L178.6723 193.0076
" />
<path d="M178.6723 193.0076
L178.5295 192.9362
" />
<path d="M178.5295 192.9362
L178.4580 192.8648
" />
<path d="M178.4580 192.8648
L178.3866 192.7219
" />
<path d="M178.3866 192.7219
L178.3866 192.5790
" />
<path d="M178.3866 192.5790
L178.4580 192.4362
" />
<path d="M178.4580 192.4362
L178.5295 192.3648
" />
<path d="M178.5295 192.3648
L178.6723 192.2933
" />
<path d="M178.6723 192.2933
L179.0295 192.2933
" />
<path d="M179.0295 192.2933
L179.2437 192.3648
" />
<path d="M179.8866 193.7933
L179.8866 192.7933
" />
<path d="M179.8866 192.2933
L179.8152 192.3648
" />
<path d="M179.8152 192.3648
L179.8866 192.4362
" />
<path d="M179.8866 192.4362
L179.9580 192.3648
" />
<path d="M179.9580 192.3648
L179.8866 192.2933
" />
<path d="M179.8866 192.2933
L179.8866 192.4362
" />
<path d="M180.4580 192.7933
L181.2437 192.7933
" />
<path d="M181.2437 192.7933
L180.4580 193.7933
" />
<path d="M180.4580 193.7933
L181.2437 193.7933
" />
<path d="M182.3866 193.7219
L182.2437 193.7933
" />
<path d="M182.2437 193.7933
L181.9580 193.7933
" />
<path d="M181.9580 193.7933
L181.8152 193.7219
" />
<path d="M181.8152 193.7219
L181.7437 193.5790
" />
<path d="M181.7437 193.5790
L181.7437 193.0076
" />
<path d="M181.7437 193.0076
L181.8152 192.8648
" />
<path d="M181.8152 192.8648
L181.9580 192.7933
" />
<path d="M181.9580 192.7933
L182.2437 192.7933
" />
<path d="M182.2437 192.7933
L182.3866 192.8648
" />
<path d="M182.3866 192.8648
L182.4580 193.0076
" />
<path d="M182.4580 193.0076
L182.4580 193.1505
" />
<path d="M182.4580 193.1505
L181.7437 193.2933
" />
<path d="M183.1009 193.6505
L183.1723 193.7219
" />
<path d="M183.1723 193.7219
L183.1009 193.7933
" />
<path d="M183.1009 193.7933
L183.0295 193.7219
" />
<path d="M183.0295 193.7219
L183.1009 193.6505
" />
<path d="M183.1009 193.6505
L183.1009 193.7933
" />
<path d="M183.1009 192.8648
L183.1723 192.9362
" />
<path d="M183.1723 192.9362
L183.1009 193.0076
" />
<path d="M183.1009 193.0076
L183.0295 192.9362
" />
<path d="M183.0295 192.9362
L183.1009 192.8648
" />
<path d="M183.1009 192.8648
L183.1009 193.0076
" />
<path d="M184.8866 193.3648
L185.6009 193.3648
" />
<path d="M184.7437 193.7933
L185.2437 192.2933
" />
<path d="M185.2437 192.2933
L185.7437 193.7933
" />
<path d="M186.8866 192.7933
L186.8866 193.7933
" />
<path d="M186.5295 192.2219
L186.1723 193.2933
" />
<path d="M186.1723 193.2933
L187.1009 193.2933
" />
</g></g>
<g style="fill:none; 
stroke:#000000; stroke-width:0.1500; stroke-opacity:1; 
stroke-linecap:round; stroke-linejoin:round;">
<text x="263.0022" y="196.6572"
textLength="8.5071" font-size="2.0000" lengthAdjust="spacingAndGlyphs"
text-anchor="start" opacity="0">Id: 1/1</text>
<g class="stroked-text"><desc>Id: 1/1</desc>
<path d="M263.4580 196.5933
L263.4580 195.0933
" />
<path d="M264.8152 196.5933
L264.8152 195.0933
" />
<path d="M264.8152 196.5219
L264.6723 196.5933
" />
<path d="M264.6723 196.5933
L264.3866 196.5933
" />
<path d="M264.3866 196.5933
L264.2437 196.5219
" />
<path d="M264.2437 196.5219
L264.1723 196.4505
" />
<path d="M264.1723 196.4505
L264.1009 196.3076
" />
<path d="M264.1009 196.3076
L264.1009 195.8790
" />
<path d="M264.1009 195.8790
L264.1723 195.7362
" />
<path d="M264.1723 195.7362
L264.2437 195.6648
" />
<path d="M264.2437 195.6648
L264.3866 195.5933
" />
<path d="M264.3866 195.5933
L264.6723 195.5933
" />
<path d="M264.6723 195.5933
L264.8152 195.6648
" />
<path d="M265.5295 196.4505
L265.6009 196.5219
" />
<path d="M265.6009 196.5219
L265.5295 196.5933
" />
<path d="M265.5295 196.5933
L265.4580 196.5219
" />
<path d="M265.4580 196.5219
L265.5295 196.4505
" />
<path d="M265.5295 196.4505
L265.5295 196.5933
" />
<path d="M265.5295 195.6648
L265.6009 195.7362
" />
<path d="M265.6009 195.7362
L265.5295 195.8076
" />
<path d="M265.5295 195.8076
L265.4580 195.7362
" />
<path d="M265.4580 195.7362
L265.5295 195.6648
" />
<path d="M265.5295 195.6648
L265.5295 195.8076
" />
<path d="M268.1723 196.5933
L267.3152 196.5933
" />
<path d="M267.7437 196.5933
L267.7437 195.0933
" />
<path d="M267.7437 195.0933
L267.6009 195.3076
" />
<path d="M267.6009 195.3076
L267.4580 195.4505
" />
<path d="M267.4580 195.4505
L267.3152 195.5219
" />
<path d="M269.8866 195.0219
L268.6009 196.9505
" />
<path d="M271.1723 196.5933
L270.3152 196.5933
" />
<path d="M270.7437 196.5933
L270.7437 195.0933
" />
<path d="M270.7437 195.0933
L270.6009 195.3076
" />
<path d="M270.6009 195.3076
L270.4580 195.4505
" />
<path d="M270.4580 195.4505
L270.3152 195.5219
" />
</g></g>
<g style="fill:none; 
stroke:#000000; stroke-width:0.1500; stroke-opacity:1; 
stroke-linecap:round; stroke-linejoin:round;">
<path d="M177.0022 187.5072
L285.0022 187.5072
" />
</g>
<g style="fill:none; 
stroke:#000000; stroke-width:0.4000; stroke-opacity:1; 
stroke-linecap:round; stroke-linejoin:round;">
<text x="178.0022" y="190.3072"
textLength="9.6571" font-size="2.6667" lengthAdjust="spacingAndGlyphs"
text-anchor="start" opacity="0">Title: </text>
<g class="stroked-text"><desc>Title: </desc>
<path d="M178.6939 188.2116
L179.8368 188.2116
" />
<path d="M179.0154 190.2116
L179.2654 188.2116
" />
<path d="M180.2535 190.2116
L180.4201 188.8783
" />
<path d="M180.5035 188.2116
L180.3963 188.3069
" />
<path d="M180.3963 188.3069
L180.4796 188.4021
" />
<path d="M180.4796 188.4021
L180.5868 188.3069
" />
<path d="M180.5868 188.3069
L180.5035 188.2116
" />
<path d="M180.5035 188.2116
L180.4796 188.4021
" />
<path d="M181.0868 188.8783
L181.8487 188.8783
" />
<path d="M181.4558 188.2116
L181.2415 189.9259
" />
<path d="M181.2415 189.9259
L181.3130 190.1164
" />
<path d="M181.3130 190.1164
L181.4915 190.2116
" />
<path d="M181.4915 190.2116
L181.6820 190.2116
" />
<path d="M182.6344 190.2116
L182.4558 190.1164
" />
<path d="M182.4558 190.1164
L182.3844 189.9259
" />
<path d="M182.3844 189.9259
L182.5987 188.2116
" />
<path d="M184.1701 190.1164
L183.9677 190.2116
" />
<path d="M183.9677 190.2116
L183.5868 190.2116
" />
<path d="M183.5868 190.2116
L183.4082 190.1164
" />
<path d="M183.4082 190.1164
L183.3368 189.9259
" />
<path d="M183.3368 189.9259
L183.4320 189.1640
" />
<path d="M183.4320 189.1640
L183.5511 188.9735
" />
<path d="M183.5511 188.9735
L183.7535 188.8783
" />
<path d="M183.7535 188.8783
L184.1344 188.8783
" />
<path d="M184.1344 188.8783
L184.3130 188.9735
" />
<path d="M184.3130 188.9735
L184.3844 189.1640
" />
<path d="M184.3844 189.1640
L184.3606 189.3545
" />
<path d="M184.3606 189.3545
L183.3844 189.5450
" />
<path d="M185.1344 190.0212
L185.2177 190.1164
" />
<path d="M185.2177 190.1164
L185.1106 190.2116
" />
<path d="M185.1106 190.2116
L185.0273 190.1164
" />
<path d="M185.0273 190.1164
L185.1344 190.0212
" />
<path d="M185.1344 190.0212
L185.1106 190.2116
" />
<path d="M185.2654 188.9735
L185.3487 189.0688
" />
<path d="M185.3487 189.0688
L185.2415 189.1640
" />
<path d="M185.2415 189.1640
L185.1582 189.0688
" />
<path d="M185.1582 189.0688
L185.2654 188.9735
" />
<path d="M185.2654 188.9735
L185.2415 189.1640
" />
</g></g>
<g style="fill:none; 
stroke:#000000; stroke-width:0.1500; stroke-opacity:1; 
stroke-linecap:round; stroke-linejoin:round;">
<text x="178.0022" y="186.4572"
textLength="45.0786" font-size="2.0000" lengthAdjust="spacingAndGlyphs"
text-anchor="start" opacity="0">File: RC-5 Remote Controler.kicad_pcb</text>
<g class="stroked-text"><desc>File: RC-5 Remote Controler.kicad_pcb</desc>
<path d="M178.9580 185.6076
L178.4580 185.6076
" />
<path d="M178.4580 186.3933
L178.4580 184.8933
" />
<path d="M178.4580 184.8933
L179.1723 184.8933
" />
<path d="M179.7437 186.3933
L179.7437 185.3933
" />
<path d="M179.7437 184.8933
L179.6723 184.9648
" />
<path d="M179.6723 184.9648
L179.7437 185.0362
" />
<path d="M179.7437 185.0362
L179.8152 184.9648
" />
<path d="M179.8152 184.9648
L179.7437 184.8933
" />
<path d="M179.7437 184.8933
L179.7437 185.0362
" />
<path d="M180.6723 186.3933
L180.5295 186.3219
" />
<path d="M180.5295 186.3219
L180.4580 186.1790
" />
<path d="M180.4580 186.1790
L180.4580 184.8933
" />
<path d="M181.8152 186.3219
L181.6723 186.3933
" />
<path d="M181.6723 186.3933
L181.3866 186.3933
" />
<path d="M181.3866 186.3933
L181.2437 186.3219
" />
<path d="M181.2437 186.3219
L181.1723 186.1790
" />
<path d="M181.1723 186.1790
L181.1723 185.6076
" />
<path d="M181.1723 185.6076
L181.2437 185.4648
" />
<path d="M181.2437 185.4648
L181.3866 185.3933
" />
<path d="M181.3866 185.3933
L181.6723 185.3933
" />
<path d="M181.6723 185.3933
L181.8152 185.4648
" />
<path d="M181.8152 185.4648
L181.8866 185.6076
" />
<path d="M181.8866 185.6076
L181.8866 185.7505
" />
<path d="M181.8866 185.7505
L181.1723 185.8933
" />
<path d="M182.5295 186.2505
L182.6009 186.3219
" />
<path d="M182.6009 186.3219
L182.5295 186.3933
" />
<path d="M182.5295 186.3933
L182.4580 186.3219
" />
<path d="M182.4580 186.3219
L182.5295 186.2505
" />
<path d="M182.5295 186.2505
L182.5295 186.3933
" />
<path d="M182.5295 185.4648
L182.6009 185.5362
" />
<path d="M182.6009 185.5362
L182.5295 185.6076
" />
<path d="M182.5295 185.6076
L182.4580 185.5362
" />
<path d="M182.4580 185.5362
L182.5295 185.4648
" />
<path d="M182.5295 185.4648
L182.5295 185.6076
" />
<path d="M185.2437 186.3933
L184.7437 185.6790
" />
<path d="M184.3866 186.3933
L184.3866 184.8933
" />
<path d="M184.3866 184.8933
L184.9580 184.8933
" />
<path d="M184.9580 184.8933
L185.1009 184.9648
" />
<path d="M185.1009 184.9648
L185.1723 185.0362
" />
<path d="M185.1723 185.0362
L185.2437 185.1790
" />
<path d="M185.2437 185.1790
L185.2437 185.3933
" />
<path d="M185.2437 185.3933
L185.1723 185.5362
" />
<path d="M185.1723 185.5362
L185.1009 185.6076
" />
<path d="M185.1009 185.6076
L184.9580 185.6790
" />
<path d="M184.9580 185.6790
L184.3866 185.6790
" />
<path d="M186.7437 186.2505
L186.6723 186.3219
" />
<path d="M186.6723 186.3219
L186.4580 186.3933
" />
<path d="M186.4580 186.3933
L186.3152 186.3933
" />
<path d="M186.3152 186.3933
L186.1009 186.3219
" />
<path d="M186.1009 186.3219
L185.9580 186.1790
" />
<path d="M185.9580 186.1790
L185.8866 186.0362
" />
<path d="M185.8866 186.0362
L185.8152 185.7505
" />
<path d="M185.8152 185.7505
L185.8152 185.5362
" />
<path d="M185.8152 185.5362
L185.8866 185.2505
" />
<path d="M185.8866 185.2505
L185.9580 185.1076
" />
<path d="M185.9580 185.1076
L186.1009 184.9648
" />
<path d="M186.1009 184.9648
L186.3152 184.8933
" />
<path d="M186.3152 184.8933
L186.4580 184.8933
" />
<path d="M186.4580 184.8933
L186.6723 184.9648
" />
<path d="M186.6723 184.9648
L186.7437 185.0362
" />
<path d="M187.3866 185.8219
L188.5295 185.8219
" />
<path d="M189.9580 184.8933
L189.2437 184.8933
" />
<path d="M189.2437 184.8933
L189.1723 185.6076
" />
<path d="M189.1723 185.6076
L189.2437 185.5362
" />
<path d="M189.2437 185.5362
L189.3866 185.4648
" />
<path d="M189.3866 185.4648
L189.7437 185.4648
" />
<path d="M189.7437 185.4648
L189.8866 185.5362
" />
<path d="M189.8866 185.5362
L189.9580 185.6076
" />
<path d="M189.9580 185.6076
L190.0295 185.7505
" />
<path d="M190.0295 185.7505
L190.0295 186.1076
" />
<path d="M190.0295 186.1076
L189.9580 186.2505
" />
<path d="M189.9580 186.2505
L189.8866 186.3219
" />
<path d="M189.8866 186.3219
L189.7437 186.3933
" />
<path d="M189.7437 186.3933
L189.3866 186.3933
" />
<path d="M189.3866 186.3933
L189.2437 186.3219
" />
<path d="M189.2437 186.3219
L189.1723 186.2505
" />
<path d="M192.6723 186.3933
L192.1723 185.6790
" />
<path d="M191.8152 186.3933
L191.8152 184.8933
" />
<path d="M191.8152 184.8933
L192.3866 184.8933
" />
<path d="M192.3866 184.8933
L192.5295 184.9648
" />
<path d="M192.5295 184.9648
L192.6009 185.0362
" />
<path d="M192.6009 185.0362
L192.6723 185.1790
" />
<path d="M192.6723 185.1790
L192.6723 185.3933
" />
<path d="M192.6723 185.3933
L192.6009 185.5362
" />
<path d="M192.6009 185.5362
L192.5295 185.6076
" />
<path d="M192.5295 185.6076
L192.3866 185.6790
" />
<path d="M192.3866 185.6790
L191.8152 185.6790
" />
<path d="M193.8866 186.3219
L193.7437 186.3933
" />
<path d="M193.7437 186.3933
L193.4580 186.3933
" />
<path d="M193.4580 186.3933
L193.3152 186.3219
" />
<path d="M193.3152 186.3219
L193.2437 186.1790
" />
<path d="M193.2437 186.1790
L193.2437 185.6076
" />
<path d="M193.2437 185.6076
L193.3152 185.4648
" />
<path d="M193.3152 185.4648
L193.4580 185.3933
" />
<path d="M193.4580 185.3933
L193.7437 185.3933
" />
<path d="M193.7437 185.3933
L193.8866 185.4648
" />
<path d="M193.8866 185.4648
L193.9580 185.6076
" />
<path d="M193.9580 185.6076
L193.9580 185.7505
" />
<path d="M193.9580 185.7505
L193.2437 185.8933
" />
<path d="M194.6009 186.3933
L194.6009 185.3933
" />
<path d="M194.6009 185.5362
L194.6723 185.4648
" />
<path d="M194.6723 185.4648
L194.8152 185.3933
" />
<path d="M194.8152 185.3933
L195.0295 185.3933
" />
<path d="M195.0295 185.3933
L195.1723 185.4648
" />
<path d="M195.1723 185.4648
L195.2437 185.6076
" />
<path d="M195.2437 185.6076
L195.2437 186.3933
" />
<path d="M195.2437 185.6076
L195.3152 185.4648
" />
<path d="M195.3152 185.4648
L195.4580 185.3933
" />
<path d="M195.4580 185.3933
L195.6723 185.3933
" />
<path d="M195.6723 185.3933
L195.8152 185.4648
" />
<path d="M195.8152 185.4648
L195.8866 185.6076
" />
<path d="M195.8866 185.6076
L195.8866 186.3933
" />
<path d="M196.8152 186.3933
L196.6723 186.3219
" />
<path d="M196.6723 186.3219
L196.6009 186.2505
" />
<path d="M196.6009 186.2505
L196.5295 186.1076
" />
<path d="M196.5295 186.1076
L196.5295 185.6790
" />
<path d="M196.5295 185.6790
L196.6009 185.5362
" />
<path d="M196.6009 185.5362
L196.6723 185.4648
" />
<path d="M196.6723 185.4648
L196.8152 185.3933
" />
<path d="M196.8152 185.3933
L197.0295 185.3933
" />
<path d="M197.0295 185.3933
L197.1723 185.4648
" />
<path d="M197.1723 185.4648
L197.2437 185.5362
" />
<path d="M197.2437 185.5362
L197.3152 185.6790
" />
<path d="M197.3152 185.6790
L197.3152 186.1076
" />
<path d="M197.3152 186.1076
L197.2437 186.2505
" />
<path d="M197.2437 186.2505
L197.1723 186.3219
" />
<path d="M197.1723 186.3219
L197.0295 186.3933
" />
<path d="M197.0295 186.3933
L196.8152 186.3933
" />
<path d="M197.7437 185.3933
L198.3152 185.3933
" />
<path d="M197.9580 184.8933
L197.9580 186.1790
" />
<path d="M197.9580 186.1790
L198.0295 186.3219
" />
<path d="M198.0295 186.3219
L198.1723 186.3933
" />
<path d="M198.1723 186.3933
L198.3152 186.3933
" />
<path d="M199.3866 186.3219
L199.2437 186.3933
" />
<path d="M199.2437 186.3933
L198.9580 186.3933
" />
<path d="M198.9580 186.3933
L198.8152 186.3219
" />
<path d="M198.8152 186.3219
L198.7437 186.1790
" />
<path d="M198.7437 186.1790
L198.7437 185.6076
" />
<path d="M198.7437 185.6076
L198.8152 185.4648
" />
<path d="M198.8152 185.4648
L198.9580 185.3933
" />
<path d="M198.9580 185.3933
L199.2437 185.3933
" />
<path d="M199.2437 185.3933
L199.3866 185.4648
" />
<path d="M199.3866 185.4648
L199.4580 185.6076
" />
<path d="M199.4580 185.6076
L199.4580 185.7505
" />
<path d="M199.4580 185.7505
L198.7437 185.8933
" />
<path d="M202.1009 186.2505
L202.0295 186.3219
" />
<path d="M202.0295 186.3219
L201.8152 186.3933
" />
<path d="M201.8152 186.3933
L201.6723 186.3933
" />
<path d="M201.6723 186.3933
L201.4580 186.3219
" />
<path d="M201.4580 186.3219
L201.3152 186.1790
" />
<path d="M201.3152 186.1790
L201.2437 186.0362
" />
<path d="M201.2437 186.0362
L201.1723 185.7505
" />
<path d="M201.1723 185.7505
L201.1723 185.5362
" />
<path d="M201.1723 185.5362
L201.2437 185.2505
" />
<path d="M201.2437 185.2505
L201.3152 185.1076
" />
<path d="M201.3152 185.1076
L201.4580 184.9648
" />
<path d="M201.4580 184.9648
L201.6723 184.8933
" />
<path d="M201.6723 184.8933
L201.8152 184.8933
" />
<path d="M201.8152 184.8933
L202.0295 184.9648
" />
<path d="M202.0295 184.9648
L202.1009 185.0362
" />
<path d="M202.9580 186.3933
L202.8152 186.3219
" />
<path d="M202.8152 186.3219
L202.7437 186.2505
" />
<path d="M202.7437 186.2505
L202.6723 186.1076
" />
<path d="M202.6723 186.1076
L202.6723 185.6790
" />
<path d="M202.6723 185.6790
L202.7437 185.5362
" />
<path d="M202.7437 185.5362
L202.8152 185.4648
" />
<path d="M202.8152 185.4648
L202.9580 185.3933
" />
<path d="M202.9580 185.3933
L203.1723 185.3933
" />
<path d="M203.1723 185.3933
L203.3152 185.4648
" />
<path d="M203.3152 185.4648
L203.3866 185.5362
" />
<path d="M203.3866 185.5362
L203.4580 185.6790
" />
<path d="M203.4580 185.6790
L203.4580 186.1076
" />
<path d="M203.4580 186.1076
L203.3866 186.2505
" />
<path d="M203.3866 186.2505
L203.3152 186.3219
" />
<path d="M203.3152 186.3219
L203.1723 186.3933
" />
<path d="M203.1723 186.3933
L202.9580 186.3933
" />
<path d="M204.1009 185.3933
L204.1009 186.3933
" />
<path d="M204.1009 185.5362
L204.1723 185.4648
" />
<path d="M204.1723 185.4648
L204.3152 185.3933
" />
<path d="M204.3152 185.3933
L204.5295 185.3933
" />
<path d="M204.5295 185.3933
L204.6723 185.4648
" />
<path d="M204.6723 185.4648
L204.7437 185.6076
" />
<path d="M204.7437 185.6076
L204.7437 186.3933
" />
<path d="M205.2437 185.3933
L205.8152 185.3933
" />
<path d="M205.4580 184.8933
L205.4580 186.1790
" />
<path d="M205.4580 186.1790
L205.5295 186.3219
" />
<path d="M205.5295 186.3219
L205.6723 186.3933
" />
<path d="M205.6723 186.3933
L205.8152 186.3933
" />
<path d="M206.3152 186.3933
L206.3152 185.3933
" />
<path d="M206.3152 185.6790
L206.3866 185.5362
" />
<path d="M206.3866 185.5362
L206.4580 185.4648
" />
<path d="M206.4580 185.4648
L206.6009 185.3933
" />
<path d="M206.6009 185.3933
L206.7437 185.3933
" />
<path d="M207.4580 186.3933
L207.3152 186.3219
" />
<path d="M207.3152 186.3219
L207.2437 186.2505
" />
<path d="M207.2437 186.2505
L207.1723 186.1076
" />
<path d="M207.1723 186.1076
L207.1723 185.6790
" />
<path d="M207.1723 185.6790
L207.2437 185.5362
" />
<path d="M207.2437 185.5362
L207.3152 185.4648
" />
<path d="M207.3152 185.4648
L207.4580 185.3933
" />
<path d="M207.4580 185.3933
L207.6723 185.3933
" />
<path d="M207.6723 185.3933
L207.8152 185.4648
" />
<path d="M207.8152 185.4648
L207.8866 185.5362
" />
<path d="M207.8866 185.5362
L207.9580 185.6790
" />
<path d="M207.9580 185.6790
L207.9580 186.1076
" />
<path d="M207.9580 186.1076
L207.8866 186.2505
" />
<path d="M207.8866 186.2505
L207.8152 186.3219
" />
<path d="M207.8152 186.3219
L207.6723 186.3933
" />
<path d="M207.6723 186.3933
L207.4580 186.3933
" />
<path d="M208.8152 186.3933
L208.6723 186.3219
" />
<path d="M208.6723 186.3219
L208.6009 186.1790
" />
<path d="M208.6009 186.1790
L208.6009 184.8933
" />
<path d="M209.9580 186.3219
L209.8152 186.3933
" />
<path d="M209.8152 186.3933
L209.5295 186.3933
" />
<path d="M209.5295 186.3933
L209.3866 186.3219
" />
<path d="M209.3866 186.3219
L209.3152 186.1790
" />
<path d="M209.3152 186.1790
L209.3152 185.6076
" />
<path d="M209.3152 185.6076
L209.3866 185.4648
" />
<path d="M209.3866 185.4648
L209.5295 185.3933
" />
<path d="M209.5295 185.3933
L209.8152 185.3933
" />
<path d="M209.8152 185.3933
L209.9580 185.4648
" />
<path d="M209.9580 185.4648
L210.0295 185.6076
" />
<path d="M210.0295 185.6076
L210.0295 185.7505
" />
<path d="M210.0295 185.7505
L209.3152 185.8933
" />
<path d="M210.6723 186.3933
L210.6723 185.3933
" />
<path d="M210.6723 185.6790
L210.7437 185.5362
" />
<path d="M210.7437 185.5362
L210.8152 185.4648
" />
<path d="M210.8152 185.4648
L210.9580 185.3933
" />
<path d="M210.9580 185.3933
L211.1009 185.3933
" />
<path d="M211.6009 186.2505
L211.6723 186.3219
" />
<path d="M211.6723 186.3219
L211.6009 186.3933
" />
<path d="M211.6009 186.3933
L211.5295 186.3219
" />
<path d="M211.5295 186.3219
L211.6009 186.2505
" />
<path d="M211.6009 186.2505
L211.6009 186.3933
" />
<path d="M212.3152 186.3933
L212.3152 184.8933
" />
<path d="M212.4580 185.8219
L212.8866 186.3933
" />
<path d="M212.8866 185.3933
L212.3152 185.9648
" />
<path d="M213.5295 186.3933
L213.5295 185.3933
" />
<path d="M213.5295 184.8933
L213.4580 184.9648
" />
<path d="M213.4580 184.9648
L213.5295 185.0362
" />
<path d="M213.5295 185.0362
L213.6009 184.9648
" />
<path d="M213.6009 184.9648
L213.5295 184.8933
" />
<path d="M213.5295 184.8933
L213.5295 185.0362
" />
<path d="M214.8866 186.3219
L214.7437 186.3933
" />
<path d="M214.7437 186.3933
L214.4580 186.3933
" />
<path d="M214.4580 186.3933
L214.3152 186.3219
" />
<path d="M214.3152 186.3219
L214.2437 186.2505
" />
<path d="M214.2437 186.2505
L214.1723 186.1076
" />
<path d="M214.1723 186.1076
L214.1723 185.6790
" />
<path d="M214.1723 185.6790
L214.2437 185.5362
" />
<path d="M214.2437 185.5362
L214.3152 185.4648
" />
<path d="M214.3152 185.4648
L214.4580 185.3933
" />
<path d="M214.4580 185.3933
L214.7437 185.3933
" />
<path d="M214.7437 185.3933
L214.8866 185.4648
" />
<path d="M216.1723 186.3933
L216.1723 185.6076
" />
<path d="M216.1723 185.6076
L216.1009 185.4648
" />
<path d="M216.1009 185.4648
L215.9580 185.3933
" />
<path d="M215.9580 185.3933
L215.6723 185.3933
" />
<path d="M215.6723 185.3933
L215.5295 185.4648
" />
<path d="M216.1723 186.3219
L216.0295 186.3933
" />
<path d="M216.0295 186.3933
L215.6723 186.3933
" />
<path d="M215.6723 186.3933
L215.5295 186.3219
" />
<path d="M215.5295 186.3219
L215.4580 186.1790
" />
<path d="M215.4580 186.1790
L215.4580 186.0362
" />
<path d="M215.4580 186.0362
L215.5295 185.8933
" />
<path d="M215.5295 185.8933
L215.6723 185.8219
" />
<path d="M215.6723 185.8219
L216.0295 185.8219
" />
<path d="M216.0295 185.8219
L216.1723 185.7505
" />
<path d="M217.5295 186.3933
L217.5295 184.8933
" />
<path d="M217.5295 186.3219
L217.3866 186.3933
" />
<path d="M217.3866 186.3933
L217.1009 186.3933
" />
<path d="M217.1009 186.3933
L216.9580 186.3219
" />
<path d="M216.9580 186.3219
L216.8866 186.2505
" />
<path d="M216.8866 186.2505
L216.8152 186.1076
" />
<path d="M216.8152 186.1076
L216.8152 185.6790
" />
<path d="M216.8152 185.6790
L216.8866 185.5362
" />
<path d="M216.8866 185.5362
L216.9580 185.4648
" />
<path d="M216.9580 185.4648
L217.1009 185.3933
" />
<path d="M217.1009 185.3933
L217.3866 185.3933
" />
<path d="M217.3866 185.3933
L217.5295 185.4648
" />
<path d="M217.8866 186.5362
L219.0295 186.5362
" />
<path d="M219.3866 185.3933
L219.3866 186.8933
" />
<path d="M219.3866 185.4648
L219.5295 185.3933
" />
<path d="M219.5295 185.3933
L219.8152 185.3933
" />
<path d="M219.8152 185.3933
L219.9580 185.4648
" />
<path d="M219.9580 185.4648
L220.0295 185.5362
" />
<path d="M220.0295 185.5362
L220.1009 185.6790
" />
<path d="M220.1009 185.6790
L220.1009 186.1076
" />
<path d="M220.1009 186.1076
L220.0295 186.2505
" />
<path d="M220.0295 186.2505
L219.9580 186.3219
" />
<path d="M219.9580 186.3219
L219.8152 186.3933
" />
<path d="M219.8152 186.3933
L219.5295 186.3933
" />
<path d="M219.5295 186.3933
L219.3866 186.3219
" />
<path d="M221.3866 186.3219
L221.2437 186.3933
" />
<path d="M221.2437 186.3933
L220.9580 186.3933
" />
<path d="M220.9580 186.3933
L220.8152 186.3219
" />
<path d="M220.8152 186.3219
L220.7437 186.2505
" />
<path d="M220.7437 186.2505
L220.6723 186.1076
" />
<path d="M220.6723 186.1076
L220.6723 185.6790
" />
<path d="M220.6723 185.6790
L220.7437 185.5362
" />
<path d="M220.7437 185.5362
L220.8152 185.4648
" />
<path d="M220.8152 185.4648
L220.9580 185.3933
" />
<path d="M220.9580 185.3933
L221.2437 185.3933
" />
<path d="M221.2437 185.3933
L221.3866 185.4648
" />
<path d="M222.0295 186.3933
L222.0295 184.8933
" />
<path d="M222.0295 185.4648
L222.1723 185.3933
" />
<path d="M222.1723 185.3933
L222.4580 185.3933
" />
<path d="M222.4580 185.3933
L222.6009 185.4648
" />
<path d="M222.6009 185.4648
L222.6723 185.5362
" />
<path d="M222.6723 185.5362
L222.7437 185.6790
" />
<path d="M222.7437 185.6790
L222.7437 186.1076
" />
<path d="M222.7437 186.1076
L222.6723 186.2505
" />
<path d="M222.6723 186.2505
L222.6009 186.3219
" />
<path d="M222.6009 186.3219
L222.4580 186.3933
" />
<path d="M222.4580 186.3933
L222.1723 186.3933
" />
<path d="M222.1723 186.3933
L222.0295 186.3219
" />
</g></g>
<g style="fill:none; 
stroke:#000000; stroke-width:0.1500; stroke-opacity:1; 
stroke-linecap:round; stroke-linejoin:round;">
<path d="M177.0022 181.5072
L285.0022 181.5072
" />
</g>
<g style="fill:none; 
stroke:#000000; stroke-width:0.1500; stroke-opacity:1; 
stroke-linecap:round; stroke-linejoin:round;">
<text x="178.0022" y="183.7572"
textLength="8.2214" font-size="2.0000" lengthAdjust="spacingAndGlyphs"
text-anchor="start" opacity="0">Sheet: </text>
<g class="stroked-text"><desc>Sheet: </desc>
<path d="M178.3866 183.6219
L178.6009 183.6933
" />
<path d="M178.6009 183.6933
L178.9580 183.6933
" />
<path d="M178.9580 183.6933
L179.1009 183.6219
" />
<path d="M179.1009 183.6219
L179.1723 183.5505
" />
<path d="M179.1723 183.5505
L179.2437 183.4076
" />
<path d="M179.2437 183.4076
L179.2437 183.2648
" />
<path d="M179.2437 183.2648
L179.1723 183.1219
" />
<path d="M179.1723 183.1219
L179.1009 183.0505
" />
<path d="M179.1009 183.0505
L178.9580 182.9790
" />
<path d="M178.9580 182.9790
L178.6723 182.9076
" />
<path d="M178.6723 182.9076
L178.5295 182.8362
" />
<path d="M178.5295 182.8362
L178.4580 182.7648
" />
<path d="M178.4580 182.7648
L178.3866 182.6219
" />
<path d="M178.3866 182.6219
L178.3866 182.4790
" />
<path d="M178.3866 182.4790
L178.4580 182.3362
" />
<path d="M178.4580 182.3362
L178.5295 182.2648
" />
<path d="M178.5295 182.2648
L178.6723 182.1933
" />
<path d="M178.6723 182.1933
L179.0295 182.1933
" />
<path d="M179.0295 182.1933
L179.2437 182.2648
" />
<path d="M179.8866 183.6933
L179.8866 182.1933
" />
<path d="M180.5295 183.6933
L180.5295 182.9076
" />
<path d="M180.5295 182.9076
L180.4580 182.7648
" />
<path d="M180.4580 182.7648
L180.3152 182.6933
" />
<path d="M180.3152 182.6933
L180.1009 182.6933
" />
<path d="M180.1009 182.6933
L179.9580 182.7648
" />
<path d="M179.9580 182.7648
L179.8866 182.8362
" />
<path d="M181.8152 183.6219
L181.6723 183.6933
" />
<path d="M181.6723 183.6933
L181.3866 183.6933
" />
<path d="M181.3866 183.6933
L181.2437 183.6219
" />
<path d="M181.2437 183.6219
L181.1723 183.4790
" />
<path d="M181.1723 183.4790
L181.1723 182.9076
" />
<path d="M181.1723 182.9076
L181.2437 182.7648
" />
<path d="M181.2437 182.7648
L181.3866 182.6933
" />
<path d="M181.3866 182.6933
L181.6723 182.6933
" />
<path d="M181.6723 182.6933
L181.8152 182.7648
" />
<path d="M181.8152 182.7648
L181.8866 182.9076
" />
<path d="M181.8866 182.9076
L181.8866 183.0505
" />
<path d="M181.8866 183.0505
L181.1723 183.1933
" />
<path d="M183.1009 183.6219
L182.9580 183.6933
" />
<path d="M182.9580 183.6933
L182.6723 183.6933
" />
<path d="M182.6723 183.6933
L182.5295 183.6219
" />
<path d="M182.5295 183.6219
L182.4580 183.4790
" />
<path d="M182.4580 183.4790
L182.4580 182.9076
" />
<path d="M182.4580 182.9076
L182.5295 182.7648
" />
<path d="M182.5295 182.7648
L182.6723 182.6933
" />
<path d="M182.6723 182.6933
L182.9580 182.6933
" />
<path d="M182.9580 182.6933
L183.1009 182.7648
" />
<path d="M183.1009 182.7648
L183.1723 182.9076
" />
<path d="M183.1723 182.9076
L183.1723 183.0505
" />
<path d="M183.1723 183.0505
L182.4580 183.1933
" />
<path d="M183.6009 182.6933
L184.1723 182.6933
" />
<path d="M183.8152 182.1933
L183.8152 183.4790
" />
<path d="M183.8152 183.4790
L183.8866 183.6219
" />
<path d="M183.8866 183.6219
L184.0295 183.6933
" />
<path d="M184.0295 183.6933
L184.1723 183.6933
" />
<path d="M184.6723 183.5505
L184.7437 183.6219
" />
<path d="M184.7437 183.6219
L184.6723 183.6933
" />
<path d="M184.6723 183.6933
L184.6009 183.6219
" />
<path d="M184.6009 183.6219
L184.6723 183.5505
" />
<path d="M184.6723 183.5505
L184.6723 183.6933
" />
<path d="M184.6723 182.7648
L184.7437 182.8362
" />
<path d="M184.7437 182.8362
L184.6723 182.9076
" />
<path d="M184.6723 182.9076
L184.6009 182.8362
" />
<path d="M184.6009 182.8362
L184.6723 182.7648
" />
<path d="M184.6723 182.7648
L184.6723 182.9076
" />
</g></g>
<g style="fill:none; 
stroke:#000000; stroke-width:0.3000; stroke-opacity:1; 
stroke-linecap:round; stroke-linejoin:round;">
<text x="178.0022" y="180.7572"
textLength="0.9000" font-size="2.0000" lengthAdjust="spacingAndGlyphs"
text-anchor="start" opacity="0"></text>
<g class="stroked-text"><desc></desc>
</g></g>
<g style="fill:none; 
stroke:#000000; stroke-width:0.1500; stroke-opacity:1; 
stroke-linecap:round; stroke-linejoin:round;">
<text x="178.0022" y="177.7572"
textLength="0.4500" font-size="2.0000" lengthAdjust="spacingAndGlyphs"
text-anchor="start" opacity="0"></text>
<g class="stroked-text"><desc></desc>
</g></g>
<g style="fill:none; 
stroke:#000000; stroke-width:0.1500; stroke-opacity:1; 
stroke-linecap:round; stroke-linejoin:round;">
<text x="178.0022" y="174.7572"
textLength="0.4500" font-size="2.0000" lengthAdjust="spacingAndGlyphs"
text-anchor="start" opacity="0"></text>
<g class="stroked-text"><desc></desc>
</g></g>
<g style="fill:none; 
stroke:#000000; stroke-width:0.1500; stroke-opacity:1; 
stroke-linecap:round; stroke-linejoin:round;">
<text x="178.0022" y="171.7572"
textLength="0.4500" font-size="2.0000" lengthAdjust="spacingAndGlyphs"
text-anchor="start" opacity="0"></text>
<g class="stroked-text"><desc></desc>
</g></g>
<g style="fill:none; 
stroke:#000000; stroke-width:0.1500; stroke-opacity:1; 
stroke-linecap:round; stroke-linejoin:round;">
<text x="178.0022" y="168.7572"
textLength="0.4500" font-size="2.0000" lengthAdjust="spacingAndGlyphs"
text-anchor="start" opacity="0"></text>
<g class="stroked-text"><desc></desc>
</g></g>
<g style="fill:none; 
stroke:#000000; stroke-width:0.1500; stroke-opacity:1; 
stroke-linecap:round; stroke-linejoin:round;">
<path d="M197.0022 191.5072
L197.0022 194.5072
" />
</g>
<g style="fill:none; 
stroke:#000000; stroke-width:0.1500; stroke-opacity:1; 
stroke-linecap:round; stroke-linejoin:round;">
<path d="M261.0022 191.5072
L261.0022 198.0072
" />
<text x="152.7500" y="45.0700"
textLength="7.9643" font-size="1.3333" lengthAdjust="spacingAndGlyphs"
text-anchor="middle" opacity="0">40,00 mm</text>
<g class="stroked-text"><desc>40,00 mm</desc>
<path d="M149.5595 44.3582
L149.5595 45.0248
" />
<path d="M149.3214 43.9772
L149.0833 44.6915
" />
<path d="M149.0833 44.6915
L149.7024 44.6915
" />
<path d="M150.2738 44.0248
L150.3690 44.0248
" />
<path d="M150.3690 44.0248
L150.4643 44.0724
" />
<path d="M150.4643 44.0724
L150.5119 44.1201
" />
<path d="M150.5119 44.1201
L150.5595 44.2153
" />
<path d="M150.5595 44.2153
L150.6071 44.4058
" />
<path d="M150.6071 44.4058
L150.6071 44.6439
" />
<path d="M150.6071 44.6439
L150.5595 44.8343
" />
<path d="M150.5595 44.8343
L150.5119 44.9296
" />
<path d="M150.5119 44.9296
L150.4643 44.9772
" />
<path d="M150.4643 44.9772
L150.3690 45.0248
" />
<path d="M150.3690 45.0248
L150.2738 45.0248
" />
<path d="M150.2738 45.0248
L150.1786 44.9772
" />
<path d="M150.1786 44.9772
L150.1310 44.9296
" />
<path d="M150.1310 44.9296
L150.0833 44.8343
" />
<path d="M150.0833 44.8343
L150.0357 44.6439
" />
<path d="M150.0357 44.6439
L150.0357 44.4058
" />
<path d="M150.0357 44.4058
L150.0833 44.2153
" />
<path d="M150.0833 44.2153
L150.1310 44.1201
" />
<path d="M150.1310 44.1201
L150.1786 44.0724
" />
<path d="M150.1786 44.0724
L150.2738 44.0248
" />
<path d="M151.0833 44.9772
L151.0833 45.0248
" />
<path d="M151.0833 45.0248
L151.0357 45.1201
" />
<path d="M151.0357 45.1201
L150.9881 45.1677
" />
<path d="M151.7024 44.0248
L151.7976 44.0248
" />
<path d="M151.7976 44.0248
L151.8929 44.0724
" />
<path d="M151.8929 44.0724
L151.9405 44.1201
" />
<path d="M151.9405 44.1201
L151.9881 44.2153
" />
<path d="M151.9881 44.2153
L152.0357 44.4058
" />
<path d="M152.0357 44.4058
L152.0357 44.6439
" />
<path d="M152.0357 44.6439
L151.9881 44.8343
" />
<path d="M151.9881 44.8343
L151.9405 44.9296
" />
<path d="M151.9405 44.9296
L151.8929 44.9772
" />
<path d="M151.8929 44.9772
L151.7976 45.0248
" />
<path d="M151.7976 45.0248
L151.7024 45.0248
" />
<path d="M151.7024 45.0248
L151.6071 44.9772
" />
<path d="M151.6071 44.9772
L151.5595 44.9296
" />
<path d="M151.5595 44.9296
L151.5119 44.8343
" />
<path d="M151.5119 44.8343
L151.4643 44.6439
" />
<path d="M151.4643 44.6439
L151.4643 44.4058
" />
<path d="M151.4643 44.4058
L151.5119 44.2153
" />
<path d="M151.5119 44.2153
L151.5595 44.1201
" />
<path d="M151.5595 44.1201
L151.6071 44.0724
" />
<path d="M151.6071 44.0724
L151.7024 44.0248
" />
<path d="M152.6548 44.0248
L152.7500 44.0248
" />
<path d="M152.7500 44.0248
L152.8452 44.0724
" />
<path d="M152.8452 44.0724
L152.8929 44.1201
" />
<path d="M152.8929 44.1201
L152.9405 44.2153
" />
<path d="M152.9405 44.2153
L152.9881 44.4058
" />
<path d="M152.9881 44.4058
L152.9881 44.6439
" />
<path d="M152.9881 44.6439
L152.9405 44.8343
" />
<path d="M152.9405 44.8343
L152.8929 44.9296
" />
<path d="M152.8929 44.9296
L152.8452 44.9772
" />
<path d="M152.8452 44.9772
L152.7500 45.0248
" />
<path d="M152.7500 45.0248
L152.6548 45.0248
" />
<path d="M152.6548 45.0248
L152.5595 44.9772
" />
<path d="M152.5595 44.9772
L152.5119 44.9296
" />
<path d="M152.5119 44.9296
L152.4643 44.8343
" />
<path d="M152.4643 44.8343
L152.4167 44.6439
" />
<path d="M152.4167 44.6439
L152.4167 44.4058
" />
<path d="M152.4167 44.4058
L152.4643 44.2153
" />
<path d="M152.4643 44.2153
L152.5119 44.1201
" />
<path d="M152.5119 44.1201
L152.5595 44.0724
" />
<path d="M152.5595 44.0724
L152.6548 44.0248
" />
<path d="M154.1786 45.0248
L154.1786 44.3582
" />
<path d="M154.1786 44.4534
L154.2262 44.4058
" />
<path d="M154.2262 44.4058
L154.3214 44.3582
" />
<path d="M154.3214 44.3582
L154.4643 44.3582
" />
<path d="M154.4643 44.3582
L154.5595 44.4058
" />
<path d="M154.5595 44.4058
L154.6071 44.5010
" />
<path d="M154.6071 44.5010
L154.6071 45.0248
" />
<path d="M154.6071 44.5010
L154.6548 44.4058
" />
<path d="M154.6548 44.4058
L154.7500 44.3582
" />
<path d="M154.7500 44.3582
L154.8929 44.3582
" />
<path d="M154.8929 44.3582
L154.9881 44.4058
" />
<path d="M154.9881 44.4058
L155.0357 44.5010
" />
<path d="M155.0357 44.5010
L155.0357 45.0248
" />
<path d="M155.5119 45.0248
L155.5119 44.3582
" />
<path d="M155.5119 44.4534
L155.5595 44.4058
" />
<path d="M155.5595 44.4058
L155.6548 44.3582
" />
<path d="M155.6548 44.3582
L155.7976 44.3582
" />
<path d="M155.7976 44.3582
L155.8929 44.4058
" />
<path d="M155.8929 44.4058
L155.9405 44.5010
" />
<path d="M155.9405 44.5010
L155.9405 45.0248
" />
<path d="M155.9405 44.5010
L155.9881 44.4058
" />
<path d="M155.9881 44.4058
L156.0833 44.3582
" />
<path d="M156.0833 44.3582
L156.2262 44.3582
" />
<path d="M156.2262 44.3582
L156.3214 44.4058
" />
<path d="M156.3214 44.4058
L156.3690 44.5010
" />
<path d="M156.3690 44.5010
L156.3690 45.0248
" />
</g></g>
<g style="fill:none; 
stroke:#000000; stroke-width:0.1000; stroke-opacity:1; 
stroke-linecap:round; stroke-linejoin:round;">
<path d="M172.7500 52.7500
L172.7500 45.1336
" />
<path d="M132.7500 52.7500
L132.7500 45.1336
" />
<path d="M172.7500 45.7200
L132.7500 45.7200
" />
<path d="M172.7500 45.7200
L132.7500 45.7200
" />
<path d="M172.7500 45.7200
L171.6235 46.3064
" />
<path d="M172.7500 45.7200
L171.6235 45.1336
" />
<path d="M132.7500 45.7200
L133.8765 45.1336
" />
<path d="M132.7500 45.7200
L133.8765 46.3064
" />
</g>
<g style="fill:none; 
stroke:#000000; stroke-width:0.1500; stroke-opacity:1; 
stroke-linecap:round; stroke-linejoin:round;">
<g transform="rotate(-90.000000 95.3700 77.7500)">
<text x="95.3700" y="78.2500"
textLength="7.9643" font-size="1.3333" lengthAdjust="spacingAndGlyphs"
text-anchor="middle" opacity="0">49,00 mm</text>
</g>
<g class="stroked-text"><desc>49,00 mm</desc>
<path d="M95.1582 80.9405
L95.8248 80.9405
" />
<path d="M94.7772 81.1786
L95.4915 81.4167
" />
<path d="M95.4915 81.4167
L95.4915 80.7976
" />
<path d="M95.8248 80.3690
L95.8248 80.1786
" />
<path d="M95.8248 80.1786
L95.7772 80.0833
" />
<path d="M95.7772 80.0833
L95.7296 80.0357
" />
<path d="M95.7296 80.0357
L95.5867 79.9405
" />
<path d="M95.5867 79.9405
L95.3962 79.8929
" />
<path d="M95.3962 79.8929
L95.0153 79.8929
" />
<path d="M95.0153 79.8929
L94.9201 79.9405
" />
<path d="M94.9201 79.9405
L94.8724 79.9881
" />
<path d="M94.8724 79.9881
L94.8248 80.0833
" />
<path d="M94.8248 80.0833
L94.8248 80.2738
" />
<path d="M94.8248 80.2738
L94.8724 80.3690
" />
<path d="M94.8724 80.3690
L94.9201 80.4167
" />
<path d="M94.9201 80.4167
L95.0153 80.4643
" />
<path d="M95.0153 80.4643
L95.2534 80.4643
" />
<path d="M95.2534 80.4643
L95.3486 80.4167
" />
<path d="M95.3486 80.4167
L95.3962 80.3690
" />
<path d="M95.3962 80.3690
L95.4439 80.2738
" />
<path d="M95.4439 80.2738
L95.4439 80.0833
" />
<path d="M95.4439 80.0833
L95.3962 79.9881
" />
<path d="M95.3962 79.9881
L95.3486 79.9405
" />
<path d="M95.3486 79.9405
L95.2534 79.8929
" />
<path d="M95.7772 79.4167
L95.8248 79.4167
" />
<path d="M95.8248 79.4167
L95.9201 79.4643
" />
<path d="M95.9201 79.4643
L95.9677 79.5119
" />
<path d="M94.8248 78.7976
L94.8248 78.7024
" />
<path d="M94.8248 78.7024
L94.8724 78.6071
" />
<path d="M94.8724 78.6071
L94.9201 78.5595
" />
<path d="M94.9201 78.5595
L95.0153 78.5119
" />
<path d="M95.0153 78.5119
L95.2058 78.4643
" />
<path d="M95.2058 78.4643
L95.4439 78.4643
" />
<path d="M95.4439 78.4643
L95.6343 78.5119
" />
<path d="M95.6343 78.5119
L95.7296 78.5595
" />
<path d="M95.7296 78.5595
L95.7772 78.6071
" />
<path d="M95.7772 78.6071
L95.8248 78.7024
" />
<path d="M95.8248 78.7024
L95.8248 78.7976
" />
<path d="M95.8248 78.7976
L95.7772 78.8929
" />
<path d="M95.7772 78.8929
L95.7296 78.9405
" />
<path d="M95.7296 78.9405
L95.6343 78.9881
" />
<path d="M95.6343 78.9881
L95.4439 79.0357
" />
<path d="M95.4439 79.0357
L95.2058 79.0357
" />
<path d="M95.2058 79.0357
L95.0153 78.9881
" />
<path d="M95.0153 78.9881
L94.9201 78.9405
" />
<path d="M94.9201 78.9405
L94.8724 78.8929
" />
<path d="M94.8724 78.8929
L94.8248 78.7976
" />
<path d="M94.8248 77.8452
L94.8248 77.7500
" />
<path d="M94.8248 77.7500
L94.8724 77.6548
" />
<path d="M94.8724 77.6548
L94.9201 77.6071
" />
<path d="M94.9201 77.6071
L95.0153 77.5595
" />
<path d="M95.0153 77.5595
L95.2058 77.5119
" />
<path d="M95.2058 77.5119
L95.4439 77.5119
" />
<path d="M95.4439 77.5119
L95.6343 77.5595
" />
<path d="M95.6343 77.5595
L95.7296 77.6071
" />
<path d="M95.7296 77.6071
L95.7772 77.6548
" />
<path d="M95.7772 77.6548
L95.8248 77.7500
" />
<path d="M95.8248 77.7500
L95.8248 77.8452
" />
<path d="M95.8248 77.8452
L95.7772 77.9405
" />
<path d="M95.7772 77.9405
L95.7296 77.9881
" />
<path d="M95.7296 77.9881
L95.6343 78.0357
" />
<path d="M95.6343 78.0357
L95.4439 78.0833
" />
<path d="M95.4439 78.0833
L95.2058 78.0833
" />
<path d="M95.2058 78.0833
L95.0153 78.0357
" />
<path d="M95.0153 78.0357
L94.9201 77.9881
" />
<path d="M94.9201 77.9881
L94.8724 77.9405
" />
<path d="M94.8724 77.9405
L94.8248 77.8452
" />
<path d="M95.8248 76.3214
L95.1582 76.3214
" />
<path d="M95.2534 76.3214
L95.2058 76.2738
" />
<path d="M95.2058 76.2738
L95.1582 76.1786
" />
<path d="M95.1582 76.1786
L95.1582 76.0357
" />
<path d="M95.1582 76.0357
L95.2058 75.9405
" />
<path d="M95.2058 75.9405
L95.3010 75.8929
" />
<path d="M95.3010 75.8929
L95.8248 75.8929
" />
<path d="M95.3010 75.8929
L95.2058 75.8452
" />
<path d="M95.2058 75.8452
L95.1582 75.7500
" />
<path d="M95.1582 75.7500
L95.1582 75.6071
" />
<path d="M95.1582 75.6071
L95.2058 75.5119
" />
<path d="M95.2058 75.5119
L95.3010 75.4643
" />
<path d="M95.3010 75.4643
L95.8248 75.4643
" />
<path d="M95.8248 74.9881
L95.1582 74.9881
" />
<path d="M95.2534 74.9881
L95.2058 74.9405
" />
<path d="M95.2058 74.9405
L95.1582 74.8452
" />
<path d="M95.1582 74.8452
L95.1582 74.7024
" />
<path d="M95.1582 74.7024
L95.2058 74.6071
" />
<path d="M95.2058 74.6071
L95.3010 74.5595
" />
<path d="M95.3010 74.5595
L95.8248 74.5595
" />
<path d="M95.3010 74.5595
L95.2058 74.5119
" />
<path d="M95.2058 74.5119
L95.1582 74.4167
" />
<path d="M95.1582 74.4167
L95.1582 74.2738
" />
<path d="M95.1582 74.2738
L95.2058 74.1786
" />
<path d="M95.2058 74.1786
L95.3010 74.1310
" />
<path d="M95.3010 74.1310
L95.8248 74.1310
" />
</g></g>
<g style="fill:none; 
stroke:#000000; stroke-width:0.1000; stroke-opacity:1; 
stroke-linecap:round; stroke-linejoin:round;">
<path d="M132.2500 102.2500
L95.9336 102.2500
" />
<path d="M132.2500 53.2500
L95.9336 53.2500
" />
<path d="M96.5200 102.2500
L96.5200 53.2500
" />
<path d="M96.5200 102.2500
L96.5200 53.2500
" />
<path d="M96.5200 102.2500
L95.9336 101.1235
" />
<path d="M96.5200 102.2500
L97.1064 101.1235
" />
<path d="M96.5200 53.2500
L97.1064 54.3765
" />
<path d="M96.5200 53.2500
L95.9336 54.3765
" />
</g>
<g style="fill:none; 
stroke:#000000; stroke-width:0.1500; stroke-opacity:1; 
stroke-linecap:round; stroke-linejoin:round;">
<g transform="rotate(-45.000000 182.1913 122.4413)">
<text x="182.1913" y="122.9413"
textLength="7.9643" font-size="1.3333" lengthAdjust="spacingAndGlyphs"
text-anchor="middle" opacity="0">15,56 mm</text>
</g>
<g class="stroked-text"><desc>15,56 mm</desc>
<path d="M180.3242 124.9515
L179.9202 125.3556
" />
<path d="M180.1222 125.1536
L179.4151 124.4465
" />
<path d="M179.4151 124.4465
L179.4488 124.6148
" />
<path d="M179.4488 124.6148
L179.4488 124.7495
" />
<path d="M179.4488 124.7495
L179.4151 124.8505
" />
<path d="M180.2569 123.6047
L179.9202 123.9414
" />
<path d="M179.9202 123.9414
L180.2232 124.3118
" />
<path d="M180.2232 124.3118
L180.2232 124.2444
" />
<path d="M180.2232 124.2444
L180.2569 124.1434
" />
<path d="M180.2569 124.1434
L180.4252 123.9751
" />
<path d="M180.4252 123.9751
L180.5262 123.9414
" />
<path d="M180.5262 123.9414
L180.5936 123.9414
" />
<path d="M180.5936 123.9414
L180.6946 123.9751
" />
<path d="M180.6946 123.9751
L180.8630 124.1434
" />
<path d="M180.8630 124.1434
L180.8966 124.2444
" />
<path d="M180.8966 124.2444
L180.8966 124.3118
" />
<path d="M180.8966 124.3118
L180.8630 124.4128
" />
<path d="M180.8630 124.4128
L180.6946 124.5812
" />
<path d="M180.6946 124.5812
L180.5936 124.6148
" />
<path d="M180.5936 124.6148
L180.5262 124.6148
" />
<path d="M181.3007 123.9077
L181.3344 123.9414
" />
<path d="M181.3344 123.9414
L181.3680 124.0424
" />
<path d="M181.3680 124.0424
L181.3680 124.1098
" />
<path d="M181.2670 122.5945
L180.9303 122.9312
" />
<path d="M180.9303 122.9312
L181.2334 123.3016
" />
<path d="M181.2334 123.3016
L181.2334 123.2343
" />
<path d="M181.2334 123.2343
L181.2670 123.1333
" />
<path d="M181.2670 123.1333
L181.4354 122.9649
" />
<path d="M181.4354 122.9649
L181.5364 122.9312
" />
<path d="M181.5364 122.9312
L181.6037 122.9312
" />
<path d="M181.6037 122.9312
L181.7048 122.9649
" />
<path d="M181.7048 122.9649
L181.8731 123.1333
" />
<path d="M181.8731 123.1333
L181.9068 123.2343
" />
<path d="M181.9068 123.2343
L181.9068 123.3016
" />
<path d="M181.9068 123.3016
L181.8731 123.4026
" />
<path d="M181.8731 123.4026
L181.7048 123.5710
" />
<path d="M181.7048 123.5710
L181.6037 123.6047
" />
<path d="M181.6037 123.6047
L181.5364 123.6047
" />
<path d="M181.9068 121.9548
L181.7721 122.0894
" />
<path d="M181.7721 122.0894
L181.7384 122.1905
" />
<path d="M181.7384 122.1905
L181.7384 122.2578
" />
<path d="M181.7384 122.2578
L181.7721 122.4262
" />
<path d="M181.7721 122.4262
L181.8731 122.5945
" />
<path d="M181.8731 122.5945
L182.1425 122.8639
" />
<path d="M182.1425 122.8639
L182.2435 122.8976
" />
<path d="M182.2435 122.8976
L182.3109 122.8976
" />
<path d="M182.3109 122.8976
L182.4119 122.8639
" />
<path d="M182.4119 122.8639
L182.5466 122.7292
" />
<path d="M182.5466 122.7292
L182.5802 122.6282
" />
<path d="M182.5802 122.6282
L182.5802 122.5608
" />
<path d="M182.5802 122.5608
L182.5466 122.4598
" />
<path d="M182.5466 122.4598
L182.3782 122.2915
" />
<path d="M182.3782 122.2915
L182.2772 122.2578
" />
<path d="M182.2772 122.2578
L182.2098 122.2578
" />
<path d="M182.2098 122.2578
L182.1088 122.2915
" />
<path d="M182.1088 122.2915
L181.9741 122.4262
" />
<path d="M181.9741 122.4262
L181.9405 122.5272
" />
<path d="M181.9405 122.5272
L181.9405 122.5945
" />
<path d="M181.9405 122.5945
L181.9741 122.6955
" />
<path d="M183.5230 121.7527
L183.0516 121.2813
" />
<path d="M183.1190 121.3487
L183.1190 121.2813
" />
<path d="M183.1190 121.2813
L183.1526 121.1803
" />
<path d="M183.1526 121.1803
L183.2537 121.0793
" />
<path d="M183.2537 121.0793
L183.3547 121.0456
" />
<path d="M183.3547 121.0456
L183.4557 121.0793
" />
<path d="M183.4557 121.0793
L183.8261 121.4497
" />
<path d="M183.4557 121.0793
L183.4220 120.9783
" />
<path d="M183.4220 120.9783
L183.4557 120.8773
" />
<path d="M183.4557 120.8773
L183.5567 120.7762
" />
<path d="M183.5567 120.7762
L183.6577 120.7426
" />
<path d="M183.6577 120.7426
L183.7587 120.7762
" />
<path d="M183.7587 120.7762
L184.1291 121.1466
" />
<path d="M184.4658 120.8099
L183.9944 120.3385
" />
<path d="M184.0618 120.4059
L184.0618 120.3385
" />
<path d="M184.0618 120.3385
L184.0955 120.2375
" />
<path d="M184.0955 120.2375
L184.1965 120.1365
" />
<path d="M184.1965 120.1365
L184.2975 120.1028
" />
<path d="M184.2975 120.1028
L184.3985 120.1365
" />
<path d="M184.3985 120.1365
L184.7689 120.5069
" />
<path d="M184.3985 120.1365
L184.3648 120.0355
" />
<path d="M184.3648 120.0355
L184.3985 119.9345
" />
<path d="M184.3985 119.9345
L184.4995 119.8334
" />
<path d="M184.4995 119.8334
L184.6005 119.7998
" />
<path d="M184.6005 119.7998
L184.7015 119.8334
" />
<path d="M184.7015 119.8334
L185.0719 120.2038
" />
</g></g>
<g style="fill:none; 
stroke:#000000; stroke-width:0.1000; stroke-opacity:1; 
stroke-linecap:round; stroke-linejoin:round;">
<path d="M162.1036 113.3536
L177.9191 129.1691
" />
<path d="M173.1036 102.3536
L188.9191 118.1691
" />
<path d="M177.5044 128.7544
L188.5044 117.7544
" />
<path d="M177.5044 128.7544
L188.5044 117.7544
" />
<path d="M177.5044 128.7544
L177.8863 127.5432
" />
<path d="M177.5044 128.7544
L178.7157 128.3726
" />
<path d="M188.5044 117.7544
L188.1226 118.9657
" />
<path d="M188.5044 117.7544
L187.2932 118.1363
" />
</g>
<g style="fill:none; 
stroke:#000000; stroke-width:0.1500; stroke-opacity:1; 
stroke-linecap:round; stroke-linejoin:round;">
<g transform="rotate(-315.000000 128.5176 117.2324)">
<text x="128.5176" y="117.7324"
textLength="7.9643" font-size="1.3333" lengthAdjust="spacingAndGlyphs"
text-anchor="middle" opacity="0">15,20 mm</text>
</g>
<g class="stroked-text"><desc>15,20 mm</desc>
<path d="M126.0073 115.3653
L125.6033 114.9613
" />
<path d="M125.8053 115.1633
L126.5124 114.4562
" />
<path d="M126.5124 114.4562
L126.3441 114.4899
" />
<path d="M126.3441 114.4899
L126.2094 114.4899
" />
<path d="M126.2094 114.4899
L126.1084 114.4562
" />
<path d="M127.3542 115.2980
L127.0175 114.9613
" />
<path d="M127.0175 114.9613
L126.6471 115.2643
" />
<path d="M126.6471 115.2643
L126.7144 115.2643
" />
<path d="M126.7144 115.2643
L126.8155 115.2980
" />
<path d="M126.8155 115.2980
L126.9838 115.4663
" />
<path d="M126.9838 115.4663
L127.0175 115.5674
" />
<path d="M127.0175 115.5674
L127.0175 115.6347
" />
<path d="M127.0175 115.6347
L126.9838 115.7357
" />
<path d="M126.9838 115.7357
L126.8155 115.9041
" />
<path d="M126.8155 115.9041
L126.7144 115.9378
" />
<path d="M126.7144 115.9378
L126.6471 115.9378
" />
<path d="M126.6471 115.9378
L126.5461 115.9041
" />
<path d="M126.5461 115.9041
L126.3777 115.7357
" />
<path d="M126.3777 115.7357
L126.3441 115.6347
" />
<path d="M126.3441 115.6347
L126.3441 115.5674
" />
<path d="M127.0512 116.3418
L127.0175 116.3755
" />
<path d="M127.0175 116.3755
L126.9165 116.4092
" />
<path d="M126.9165 116.4092
L126.8491 116.4092
" />
<path d="M127.9266 116.0051
L127.9940 116.0051
" />
<path d="M127.9940 116.0051
L128.0950 116.0388
" />
<path d="M128.0950 116.0388
L128.2633 116.2071
" />
<path d="M128.2633 116.2071
L128.2970 116.3081
" />
<path d="M128.2970 116.3081
L128.2970 116.3755
" />
<path d="M128.2970 116.3755
L128.2633 116.4765
" />
<path d="M128.2633 116.4765
L128.1960 116.5438
" />
<path d="M128.1960 116.5438
L128.0613 116.6112
" />
<path d="M128.0613 116.6112
L127.2532 116.6112
" />
<path d="M127.2532 116.6112
L127.6909 117.0489
" />
<path d="M128.8358 116.7795
L128.9031 116.8469
" />
<path d="M128.9031 116.8469
L128.9368 116.9479
" />
<path d="M128.9368 116.9479
L128.9368 117.0152
" />
<path d="M128.9368 117.0152
L128.9031 117.1163
" />
<path d="M128.9031 117.1163
L128.8021 117.2846
" />
<path d="M128.8021 117.2846
L128.6337 117.4530
" />
<path d="M128.6337 117.4530
L128.4654 117.5540
" />
<path d="M128.4654 117.5540
L128.3644 117.5877
" />
<path d="M128.3644 117.5877
L128.2970 117.5877
" />
<path d="M128.2970 117.5877
L128.1960 117.5540
" />
<path d="M128.1960 117.5540
L128.1287 117.4867
" />
<path d="M128.1287 117.4867
L128.0950 117.3856
" />
<path d="M128.0950 117.3856
L128.0950 117.3183
" />
<path d="M128.0950 117.3183
L128.1287 117.2173
" />
<path d="M128.1287 117.2173
L128.2297 117.0489
" />
<path d="M128.2297 117.0489
L128.3980 116.8806
" />
<path d="M128.3980 116.8806
L128.5664 116.7795
" />
<path d="M128.5664 116.7795
L128.6674 116.7459
" />
<path d="M128.6674 116.7459
L128.7347 116.7459
" />
<path d="M128.7347 116.7459
L128.8358 116.7795
" />
<path d="M129.2062 118.5641
L129.6776 118.0927
" />
<path d="M129.6102 118.1601
L129.6776 118.1601
" />
<path d="M129.6776 118.1601
L129.7786 118.1938
" />
<path d="M129.7786 118.1938
L129.8796 118.2948
" />
<path d="M129.8796 118.2948
L129.9133 118.3958
" />
<path d="M129.9133 118.3958
L129.8796 118.4968
" />
<path d="M129.8796 118.4968
L129.5092 118.8672
" />
<path d="M129.8796 118.4968
L129.9806 118.4631
" />
<path d="M129.9806 118.4631
L130.0816 118.4968
" />
<path d="M130.0816 118.4968
L130.1826 118.5978
" />
<path d="M130.1826 118.5978
L130.2163 118.6988
" />
<path d="M130.2163 118.6988
L130.1826 118.7999
" />
<path d="M130.1826 118.7999
L129.8122 119.1702
" />
<path d="M130.1490 119.5070
L130.6204 119.0356
" />
<path d="M130.5530 119.1029
L130.6204 119.1029
" />
<path d="M130.6204 119.1029
L130.7214 119.1366
" />
<path d="M130.7214 119.1366
L130.8224 119.2376
" />
<path d="M130.8224 119.2376
L130.8561 119.3386
" />
<path d="M130.8561 119.3386
L130.8224 119.4396
" />
<path d="M130.8224 119.4396
L130.4520 119.8100
" />
<path d="M130.8224 119.4396
L130.9234 119.4059
" />
<path d="M130.9234 119.4059
L131.0244 119.4396
" />
<path d="M131.0244 119.4396
L131.1254 119.5406
" />
<path d="M131.1254 119.5406
L131.1591 119.6416
" />
<path d="M131.1591 119.6416
L131.1254 119.7427
" />
<path d="M131.1254 119.7427
L130.7551 120.1131
" />
</g></g>
<g style="fill:none; 
stroke:#000000; stroke-width:0.1000; stroke-opacity:1; 
stroke-linecap:round; stroke-linejoin:round;">
<path d="M132.3964 102.6036
L121.9148 113.0852
" />
<path d="M143.1464 113.3536
L132.6648 123.8352
" />
<path d="M122.3294 112.6706
L133.0794 123.4206
" />
<path d="M122.3294 112.6706
L133.0794 123.4206
" />
<path d="M122.3294 112.6706
L123.5407 113.0525
" />
<path d="M122.3294 112.6706
L122.7113 113.8818
" />
<path d="M133.0794 123.4206
L131.8682 123.0387
" />
<path d="M133.0794 123.4206
L132.6975 122.2093
" />
</g>
<g style="fill:none; 
stroke:#000000; stroke-width:0.1500; stroke-opacity:1; 
stroke-linecap:round; stroke-linejoin:round;">
<text x="152.6250" y="126.3500"
textLength="7.9643" font-size="1.3333" lengthAdjust="spacingAndGlyphs"
text-anchor="middle" opacity="0">18,25 mm</text>
<g class="stroked-text"><desc>18,25 mm</desc>
<path d="M149.5298 126.3048
L148.9583 126.3048
" />
<path d="M149.2440 126.3048
L149.2440 125.3048
" />
<path d="M149.2440 125.3048
L149.1488 125.4477
" />
<path d="M149.1488 125.4477
L149.0536 125.5429
" />
<path d="M149.0536 125.5429
L148.9583 125.5905
" />
<path d="M150.1012 125.7334
L150.0060 125.6858
" />
<path d="M150.0060 125.6858
L149.9583 125.6382
" />
<path d="M149.9583 125.6382
L149.9107 125.5429
" />
<path d="M149.9107 125.5429
L149.9107 125.4953
" />
<path d="M149.9107 125.4953
L149.9583 125.4001
" />
<path d="M149.9583 125.4001
L150.0060 125.3524
" />
<path d="M150.0060 125.3524
L150.1012 125.3048
" />
<path d="M150.1012 125.3048
L150.2917 125.3048
" />
<path d="M150.2917 125.3048
L150.3869 125.3524
" />
<path d="M150.3869 125.3524
L150.4345 125.4001
" />
<path d="M150.4345 125.4001
L150.4821 125.4953
" />
<path d="M150.4821 125.4953
L150.4821 125.5429
" />
<path d="M150.4821 125.5429
L150.4345 125.6382
" />
<path d="M150.4345 125.6382
L150.3869 125.6858
" />
<path d="M150.3869 125.6858
L150.2917 125.7334
" />
<path d="M150.2917 125.7334
L150.1012 125.7334
" />
<path d="M150.1012 125.7334
L150.0060 125.7810
" />
<path d="M150.0060 125.7810
L149.9583 125.8286
" />
<path d="M149.9583 125.8286
L149.9107 125.9239
" />
<path d="M149.9107 125.9239
L149.9107 126.1143
" />
<path d="M149.9107 126.1143
L149.9583 126.2096
" />
<path d="M149.9583 126.2096
L150.0060 126.2572
" />
<path d="M150.0060 126.2572
L150.1012 126.3048
" />
<path d="M150.1012 126.3048
L150.2917 126.3048
" />
<path d="M150.2917 126.3048
L150.3869 126.2572
" />
<path d="M150.3869 126.2572
L150.4345 126.2096
" />
<path d="M150.4345 126.2096
L150.4821 126.1143
" />
<path d="M150.4821 126.1143
L150.4821 125.9239
" />
<path d="M150.4821 125.9239
L150.4345 125.8286
" />
<path d="M150.4345 125.8286
L150.3869 125.7810
" />
<path d="M150.3869 125.7810
L150.2917 125.7334
" />
<path d="M150.9583 126.2572
L150.9583 126.3048
" />
<path d="M150.9583 126.3048
L150.9107 126.4001
" />
<path d="M150.9107 126.4001
L150.8631 126.4477
" />
<path d="M151.3393 125.4001
L151.3869 125.3524
" />
<path d="M151.3869 125.3524
L151.4821 125.3048
" />
<path d="M151.4821 125.3048
L151.7202 125.3048
" />
<path d="M151.7202 125.3048
L151.8155 125.3524
" />
<path d="M151.8155 125.3524
L151.8631 125.4001
" />
<path d="M151.8631 125.4001
L151.9107 125.4953
" />
<path d="M151.9107 125.4953
L151.9107 125.5905
" />
<path d="M151.9107 125.5905
L151.8631 125.7334
" />
<path d="M151.8631 125.7334
L151.2917 126.3048
" />
<path d="M151.2917 126.3048
L151.9107 126.3048
" />
<path d="M152.8155 125.3048
L152.3393 125.3048
" />
<path d="M152.3393 125.3048
L152.2917 125.7810
" />
<path d="M152.2917 125.7810
L152.3393 125.7334
" />
<path d="M152.3393 125.7334
L152.4345 125.6858
" />
<path d="M152.4345 125.6858
L152.6726 125.6858
" />
<path d="M152.6726 125.6858
L152.7679 125.7334
" />
<path d="M152.7679 125.7334
L152.8155 125.7810
" />
<path d="M152.8155 125.7810
L152.8631 125.8762
" />
<path d="M152.8631 125.8762
L152.8631 126.1143
" />
<path d="M152.8631 126.1143
L152.8155 126.2096
" />
<path d="M152.8155 126.2096
L152.7679 126.2572
" />
<path d="M152.7679 126.2572
L152.6726 126.3048
" />
<path d="M152.6726 126.3048
L152.4345 126.3048
" />
<path d="M152.4345 126.3048
L152.3393 126.2572
" />
<path d="M152.3393 126.2572
L152.2917 126.2096
" />
<path d="M154.0536 126.3048
L154.0536 125.6382
" />
<path d="M154.0536 125.7334
L154.1012 125.6858
" />
<path d="M154.1012 125.6858
L154.1964 125.6382
" />
<path d="M154.1964 125.6382
L154.3393 125.6382
" />
<path d="M154.3393 125.6382
L154.4345 125.6858
" />
<path d="M154.4345 125.6858
L154.4821 125.7810
" />
<path d="M154.4821 125.7810
L154.4821 126.3048
" />
<path d="M154.4821 125.7810
L154.5298 125.6858
" />
<path d="M154.5298 125.6858
L154.6250 125.6382
" />
<path d="M154.6250 125.6382
L154.7679 125.6382
" />
<path d="M154.7679 125.6382
L154.8631 125.6858
" />
<path d="M154.8631 125.6858
L154.9107 125.7810
" />
<path d="M154.9107 125.7810
L154.9107 126.3048
" />
<path d="M155.3869 126.3048
L155.3869 125.6382
" />
<path d="M155.3869 125.7334
L155.4345 125.6858
" />
<path d="M155.4345 125.6858
L155.5298 125.6382
" />
<path d="M155.5298 125.6382
L155.6726 125.6382
" />
<path d="M155.6726 125.6382
L155.7679 125.6858
" />
<path d="M155.7679 125.6858
L155.8155 125.7810
" />
<path d="M155.8155 125.7810
L155.8155 126.3048
" />
<path d="M155.8155 125.7810
L155.8631 125.6858
" />
<path d="M155.8631 125.6858
L155.9583 125.6382
" />
<path d="M155.9583 125.6382
L156.1012 125.6382
" />
<path d="M156.1012 125.6382
L156.1964 125.6858
" />
<path d="M156.1964 125.6858
L156.2440 125.7810
" />
<path d="M156.2440 125.7810
L156.2440 126.3048
" />
</g></g>
<g style="fill:none; 
stroke:#000000; stroke-width:0.1000; stroke-opacity:1; 
stroke-linecap:round; stroke-linejoin:round;">
<path d="M143.5000 113.5000
L143.5000 127.5864
" />
<path d="M161.7500 113.5000
L161.7500 127.5864
" />
<path d="M143.5000 127.0000
L161.7500 127.0000
" />
<path d="M143.5000 127.0000
L161.7500 127.0000
" />
<path d="M143.5000 127.0000
L144.6265 126.4136
" />
<path d="M143.5000 127.0000
L144.6265 127.5864
" />
<path d="M161.7500 127.0000
L160.6235 127.5864
" />
<path d="M161.7500 127.0000
L160.6235 126.4136
" />
</g>
<g style="fill:none; 
stroke:#000000; stroke-width:0.1500; stroke-opacity:1; 
stroke-linecap:round; stroke-linejoin:round;">
<g transform="rotate(-90.000000 196.9700 83.1250)">
<text x="196.9700" y="83.6250"
textLength="7.9643" font-size="1.3333" lengthAdjust="spacingAndGlyphs"
text-anchor="middle" opacity="0">59,75 mm</text>
</g>
<g class="stroked-text"><desc>59,75 mm</desc>
<path d="M196.4248 86.2679
L196.4248 86.7440
" />
<path d="M196.4248 86.7440
L196.9010 86.7917
" />
<path d="M196.9010 86.7917
L196.8534 86.7440
" />
<path d="M196.8534 86.7440
L196.8058 86.6488
" />
<path d="M196.8058 86.6488
L196.8058 86.4107
" />
<path d="M196.8058 86.4107
L196.8534 86.3155
" />
<path d="M196.8534 86.3155
L196.9010 86.2679
" />
<path d="M196.9010 86.2679
L196.9962 86.2202
" />
<path d="M196.9962 86.2202
L197.2343 86.2202
" />
<path d="M197.2343 86.2202
L197.3296 86.2679
" />
<path d="M197.3296 86.2679
L197.3772 86.3155
" />
<path d="M197.3772 86.3155
L197.4248 86.4107
" />
<path d="M197.4248 86.4107
L197.4248 86.6488
" />
<path d="M197.4248 86.6488
L197.3772 86.7440
" />
<path d="M197.3772 86.7440
L197.3296 86.7917
" />
<path d="M197.4248 85.7440
L197.4248 85.5536
" />
<path d="M197.4248 85.5536
L197.3772 85.4583
" />
<path d="M197.3772 85.4583
L197.3296 85.4107
" />
<path d="M197.3296 85.4107
L197.1867 85.3155
" />
<path d="M197.1867 85.3155
L196.9962 85.2679
" />
<path d="M196.9962 85.2679
L196.6153 85.2679
" />
<path d="M196.6153 85.2679
L196.5201 85.3155
" />
<path d="M196.5201 85.3155
L196.4724 85.3631
" />
<path d="M196.4724 85.3631
L196.4248 85.4583
" />
<path d="M196.4248 85.4583
L196.4248 85.6488
" />
<path d="M196.4248 85.6488
L196.4724 85.7440
" />
<path d="M196.4724 85.7440
L196.5201 85.7917
" />
<path d="M196.5201 85.7917
L196.6153 85.8393
" />
<path d="M196.6153 85.8393
L196.8534 85.8393
" />
<path d="M196.8534 85.8393
L196.9486 85.7917
" />
<path d="M196.9486 85.7917
L196.9962 85.7440
" />
<path d="M196.9962 85.7440
L197.0439 85.6488
" />
<path d="M197.0439 85.6488
L197.0439 85.4583
" />
<path d="M197.0439 85.4583
L196.9962 85.3631
" />
<path d="M196.9962 85.3631
L196.9486 85.3155
" />
<path d="M196.9486 85.3155
L196.8534 85.2679
" />
<path d="M197.3772 84.7917
L197.4248 84.7917
" />
<path d="M197.4248 84.7917
L197.5201 84.8393
" />
<path d="M197.5201 84.8393
L197.5677 84.8869
" />
<path d="M196.4248 84.4583
L196.4248 83.7917
" />
<path d="M196.4248 83.7917
L197.4248 84.2202
" />
<path d="M196.4248 82.9345
L196.4248 83.4107
" />
<path d="M196.4248 83.4107
L196.9010 83.4583
" />
<path d="M196.9010 83.4583
L196.8534 83.4107
" />
<path d="M196.8534 83.4107
L196.8058 83.3155
" />
<path d="M196.8058 83.3155
L196.8058 83.0774
" />
<path d="M196.8058 83.0774
L196.8534 82.9821
" />
<path d="M196.8534 82.9821
L196.9010 82.9345
" />
<path d="M196.9010 82.9345
L196.9962 82.8869
" />
<path d="M196.9962 82.8869
L197.2343 82.8869
" />
<path d="M197.2343 82.8869
L197.3296 82.9345
" />
<path d="M197.3296 82.9345
L197.3772 82.9821
" />
<path d="M197.3772 82.9821
L197.4248 83.0774
" />
<path d="M197.4248 83.0774
L197.4248 83.3155
" />
<path d="M197.4248 83.3155
L197.3772 83.4107
" />
<path d="M197.3772 83.4107
L197.3296 83.4583
" />
<path d="M197.4248 81.6964
L196.7582 81.6964
" />
<path d="M196.8534 81.6964
L196.8058 81.6488
" />
<path d="M196.8058 81.6488
L196.7582 81.5536
" />
<path d="M196.7582 81.5536
L196.7582 81.4107
" />
<path d="M196.7582 81.4107
L196.8058 81.3155
" />
<path d="M196.8058 81.3155
L196.9010 81.2679
" />
<path d="M196.9010 81.2679
L197.4248 81.2679
" />
<path d="M196.9010 81.2679
L196.8058 81.2202
" />
<path d="M196.8058 81.2202
L196.7582 81.1250
" />
<path d="M196.7582 81.1250
L196.7582 80.9821
" />
<path d="M196.7582 80.9821
L196.8058 80.8869
" />
<path d="M196.8058 80.8869
L196.9010 80.8393
" />
<path d="M196.9010 80.8393
L197.4248 80.8393
" />
<path d="M197.4248 80.3631
L196.7582 80.3631
" />
<path d="M196.8534 80.3631
L196.8058 80.3155
" />
<path d="M196.8058 80.3155
L196.7582 80.2202
" />
<path d="M196.7582 80.2202
L196.7582 80.0774
" />
<path d="M196.7582 80.0774
L196.8058 79.9821
" />
<path d="M196.8058 79.9821
L196.9010 79.9345
" />
<path d="M196.9010 79.9345
L197.4248 79.9345
" />
<path d="M196.9010 79.9345
L196.8058 79.8869
" />
<path d="M196.8058 79.8869
L196.7582 79.7917
" />
<path d="M196.7582 79.7917
L196.7582 79.6488
" />
<path d="M196.7582 79.6488
L196.8058 79.5536
" />
<path d="M196.8058 79.5536
L196.9010 79.5060
" />
<path d="M196.9010 79.5060
L197.4248 79.5060
" />
</g></g>
<g style="fill:none; 
stroke:#000000; stroke-width:0.1000; stroke-opacity:1; 
stroke-linecap:round; stroke-linejoin:round;">
<path d="M173.2500 53.2500
L198.7064 53.2500
" />
<path d="M173.2500 113.0000
L198.7064 113.0000
" />
<path d="M198.1200 53.2500
L198.1200 113.0000
" />
<path d="M198.1200 53.2500
L198.1200 113.0000
" />
<path d="M198.1200 53.2500
L198.7064 54.3765
" />
<path d="M198.1200 53.2500
L197.5336 54.3765
" />
<path d="M198.1200 113.0000
L197.5336 111.8735
" />
<path d="M198.1200 113.0000
L198.7064 111.8735
" />
</g>
<g style="fill:none; 
stroke:#000000; stroke-width:0.0500; stroke-opacity:1; 
stroke-linecap:round; stroke-linejoin:round;">
<path d="M161.7500 113.0000
L143.5000 113.0000
" />
<path d="M172.7500 102.0000
L172.7500 53.2500
" />
<path d="M132.7500 53.2500
L172.7500 53.2500
" />
<path d="M143.5000 113.0000
L132.7500 102.2500
" />
<path d="M161.7500 113.0000
L172.7500 102.0000
" />
<path d="M132.7500 102.2500
L132.7500 53.2500
" />
</g> 
</svg>
