G04 #@! TF.GenerationSoftware,KiCad,Pcbnew,8.0.1*
G04 #@! TF.CreationDate,2024-06-07T17:50:55+02:00*
G04 #@! TF.ProjectId,Remote,52656d6f-7465-42e6-9b69-6361645f7063,rev?*
G04 #@! TF.SameCoordinates,Original*
G04 #@! TF.FileFunction,Paste,Top*
G04 #@! TF.FilePolarity,Positive*
%FSLAX46Y46*%
G04 Gerber Fmt 4.6, Leading zero omitted, Abs format (unit mm)*
G04 Created by KiCad (PCBNEW 8.0.1) date 2024-06-07 17:50:55*
%MOMM*%
%LPD*%
G01*
G04 APERTURE LIST*
G04 Aperture macros list*
%AMRoundRect*
0 Rectangle with rounded corners*
0 $1 Rounding radius*
0 $2 $3 $4 $5 $6 $7 $8 $9 X,Y pos of 4 corners*
0 Add a 4 corners polygon primitive as box body*
4,1,4,$2,$3,$4,$5,$6,$7,$8,$9,$2,$3,0*
0 Add four circle primitives for the rounded corners*
1,1,$1+$1,$2,$3*
1,1,$1+$1,$4,$5*
1,1,$1+$1,$6,$7*
1,1,$1+$1,$8,$9*
0 Add four rect primitives between the rounded corners*
20,1,$1+$1,$2,$3,$4,$5,0*
20,1,$1+$1,$4,$5,$6,$7,0*
20,1,$1+$1,$6,$7,$8,$9,0*
20,1,$1+$1,$8,$9,$2,$3,0*%
G04 Aperture macros list end*
%ADD10RoundRect,0.250000X-0.450000X0.350000X-0.450000X-0.350000X0.450000X-0.350000X0.450000X0.350000X0*%
%ADD11RoundRect,0.250000X0.350000X0.450000X-0.350000X0.450000X-0.350000X-0.450000X0.350000X-0.450000X0*%
%ADD12RoundRect,0.250000X0.450000X-0.325000X0.450000X0.325000X-0.450000X0.325000X-0.450000X-0.325000X0*%
%ADD13RoundRect,0.250000X-0.350000X-0.450000X0.350000X-0.450000X0.350000X0.450000X-0.350000X0.450000X0*%
%ADD14R,1.200000X1.400000*%
%ADD15RoundRect,0.250000X0.450000X-0.350000X0.450000X0.350000X-0.450000X0.350000X-0.450000X-0.350000X0*%
%ADD16RoundRect,0.250000X0.337500X0.475000X-0.337500X0.475000X-0.337500X-0.475000X0.337500X-0.475000X0*%
%ADD17RoundRect,0.250000X-0.337500X-0.475000X0.337500X-0.475000X0.337500X0.475000X-0.337500X0.475000X0*%
%ADD18R,1.600000X0.550000*%
%ADD19R,0.550000X1.600000*%
%ADD20RoundRect,0.150000X-0.512500X-0.150000X0.512500X-0.150000X0.512500X0.150000X-0.512500X0.150000X0*%
%ADD21RoundRect,0.250000X-0.537500X-0.425000X0.537500X-0.425000X0.537500X0.425000X-0.537500X0.425000X0*%
%ADD22R,0.300000X0.650000*%
%ADD23RoundRect,0.250000X0.537500X0.425000X-0.537500X0.425000X-0.537500X-0.425000X0.537500X-0.425000X0*%
%ADD24R,1.500000X1.100000*%
G04 APERTURE END LIST*
D10*
X182135000Y-94250000D03*
X182135000Y-96250000D03*
D11*
X139035000Y-100441000D03*
X137035000Y-100441000D03*
D10*
X159356000Y-92202000D03*
X159356000Y-94202000D03*
D12*
X147296000Y-104641000D03*
X147296000Y-102591000D03*
D13*
X164425000Y-80248000D03*
X162425000Y-80248000D03*
D10*
X156821000Y-102616000D03*
X156821000Y-104616000D03*
D11*
X126235000Y-94050000D03*
X124235000Y-94050000D03*
D14*
X143144000Y-97690000D03*
X143144000Y-99890000D03*
X144844000Y-99890000D03*
X144844000Y-97690000D03*
D15*
X122835000Y-85693000D03*
X122835000Y-83693000D03*
D10*
X122912000Y-104850000D03*
X122912000Y-106850000D03*
X153011000Y-102616000D03*
X153011000Y-104616000D03*
D12*
X159356000Y-98275000D03*
X159356000Y-96225000D03*
D11*
X139035000Y-98282000D03*
X137035000Y-98282000D03*
D10*
X145035000Y-107650000D03*
X145035000Y-105650000D03*
D16*
X145031500Y-93456000D03*
X142956500Y-93456000D03*
D17*
X142829500Y-101990400D03*
X144904500Y-101990400D03*
D12*
X154916000Y-104641000D03*
X154916000Y-102591000D03*
D18*
X147745000Y-92434000D03*
X147745000Y-93234000D03*
X147745000Y-94034000D03*
X147745000Y-94834000D03*
X147745000Y-95634000D03*
X147745000Y-96434000D03*
X147745000Y-97234000D03*
X147745000Y-98034000D03*
D19*
X149195000Y-99484000D03*
X149995000Y-99484000D03*
X150795000Y-99484000D03*
X151595000Y-99484000D03*
X152395000Y-99484000D03*
X153195000Y-99484000D03*
X153995000Y-99484000D03*
X154795000Y-99484000D03*
D18*
X156245000Y-98034000D03*
X156245000Y-97234000D03*
X156245000Y-96434000D03*
X156245000Y-95634000D03*
X156245000Y-94834000D03*
X156245000Y-94034000D03*
X156245000Y-93234000D03*
X156245000Y-92434000D03*
D19*
X154795000Y-90984000D03*
X153995000Y-90984000D03*
X153195000Y-90984000D03*
X152395000Y-90984000D03*
X151595000Y-90984000D03*
X150795000Y-90984000D03*
X149995000Y-90984000D03*
X149195000Y-90984000D03*
D20*
X137097500Y-94030000D03*
X137097500Y-95930000D03*
X139372500Y-94980000D03*
D11*
X164425000Y-89900000D03*
X162425000Y-89900000D03*
D21*
X125919500Y-98282000D03*
X128794500Y-98282000D03*
D16*
X145031500Y-95615000D03*
X142956500Y-95615000D03*
D22*
X153293000Y-88600000D03*
X153793000Y-88600000D03*
X154293000Y-88600000D03*
X154793000Y-88600000D03*
X155293000Y-88600000D03*
X155793000Y-88600000D03*
X156293000Y-88600000D03*
X156793000Y-88600000D03*
X156793000Y-87450000D03*
X156293000Y-87450000D03*
X155793000Y-87450000D03*
X155293000Y-87450000D03*
X154793000Y-87450000D03*
X154293000Y-87450000D03*
X153793000Y-87450000D03*
X153293000Y-87450000D03*
D23*
X145050500Y-91170000D03*
X142175500Y-91170000D03*
D24*
X177146000Y-100314000D03*
X168246000Y-100314000D03*
X177146000Y-97774000D03*
X168246000Y-97774000D03*
X177146000Y-95234000D03*
X168246000Y-95234000D03*
X177146000Y-92694000D03*
X168246000Y-92694000D03*
X177146000Y-90154000D03*
X168246000Y-90154000D03*
D17*
X127886500Y-100568000D03*
X125811500Y-100568000D03*
D10*
X149201000Y-102616000D03*
X149201000Y-104616000D03*
D12*
X151106000Y-104641000D03*
X151106000Y-102591000D03*
D15*
X145137000Y-83534000D03*
X145137000Y-81534000D03*
M02*
