G04 #@! TF.GenerationSoftware,KiCad,Pcbnew,8.0.1*
G04 #@! TF.CreationDate,2024-06-07T17:50:55+02:00*
G04 #@! TF.ProjectId,Remote,52656d6f-7465-42e6-9b69-6361645f7063,rev?*
G04 #@! TF.SameCoordinates,Original*
G04 #@! TF.FileFunction,Copper,L1,Top*
G04 #@! TF.FilePolarity,Positive*
%FSLAX46Y46*%
G04 Gerber Fmt 4.6, Leading zero omitted, Abs format (unit mm)*
G04 Created by KiCad (PCBNEW 8.0.1) date 2024-06-07 17:50:55*
%MOMM*%
%LPD*%
G01*
G04 APERTURE LIST*
G04 Aperture macros list*
%AMRoundRect*
0 Rectangle with rounded corners*
0 $1 Rounding radius*
0 $2 $3 $4 $5 $6 $7 $8 $9 X,Y pos of 4 corners*
0 Add a 4 corners polygon primitive as box body*
4,1,4,$2,$3,$4,$5,$6,$7,$8,$9,$2,$3,0*
0 Add four circle primitives for the rounded corners*
1,1,$1+$1,$2,$3*
1,1,$1+$1,$4,$5*
1,1,$1+$1,$6,$7*
1,1,$1+$1,$8,$9*
0 Add four rect primitives between the rounded corners*
20,1,$1+$1,$2,$3,$4,$5,0*
20,1,$1+$1,$4,$5,$6,$7,0*
20,1,$1+$1,$6,$7,$8,$9,0*
20,1,$1+$1,$8,$9,$2,$3,0*%
%AMRotRect*
0 Rectangle, with rotation*
0 The origin of the aperture is its center*
0 $1 length*
0 $2 width*
0 $3 Rotation angle, in degrees counterclockwise*
0 Add horizontal line*
21,1,$1,$2,0,0,$3*%
G04 Aperture macros list end*
G04 #@! TA.AperFunction,SMDPad,CuDef*
%ADD10RoundRect,0.250000X-0.450000X0.350000X-0.450000X-0.350000X0.450000X-0.350000X0.450000X0.350000X0*%
G04 #@! TD*
G04 #@! TA.AperFunction,SMDPad,CuDef*
%ADD11RoundRect,0.250000X0.350000X0.450000X-0.350000X0.450000X-0.350000X-0.450000X0.350000X-0.450000X0*%
G04 #@! TD*
G04 #@! TA.AperFunction,ComponentPad*
%ADD12R,1.700000X1.700000*%
G04 #@! TD*
G04 #@! TA.AperFunction,ComponentPad*
%ADD13O,1.700000X1.700000*%
G04 #@! TD*
G04 #@! TA.AperFunction,SMDPad,CuDef*
%ADD14RoundRect,0.250000X0.450000X-0.325000X0.450000X0.325000X-0.450000X0.325000X-0.450000X-0.325000X0*%
G04 #@! TD*
G04 #@! TA.AperFunction,SMDPad,CuDef*
%ADD15RoundRect,0.250000X-0.350000X-0.450000X0.350000X-0.450000X0.350000X0.450000X-0.350000X0.450000X0*%
G04 #@! TD*
G04 #@! TA.AperFunction,SMDPad,CuDef*
%ADD16R,1.200000X1.400000*%
G04 #@! TD*
G04 #@! TA.AperFunction,SMDPad,CuDef*
%ADD17RoundRect,0.250000X0.450000X-0.350000X0.450000X0.350000X-0.450000X0.350000X-0.450000X-0.350000X0*%
G04 #@! TD*
G04 #@! TA.AperFunction,ComponentPad*
%ADD18C,5.700000*%
G04 #@! TD*
G04 #@! TA.AperFunction,ComponentPad*
%ADD19RotRect,1.800000X1.800000X240.000000*%
G04 #@! TD*
G04 #@! TA.AperFunction,ComponentPad*
%ADD20C,1.800000*%
G04 #@! TD*
G04 #@! TA.AperFunction,ComponentPad*
%ADD21RotRect,1.800000X1.800000X300.000000*%
G04 #@! TD*
G04 #@! TA.AperFunction,ComponentPad*
%ADD22C,2.000000*%
G04 #@! TD*
G04 #@! TA.AperFunction,ComponentPad*
%ADD23R,1.800000X1.800000*%
G04 #@! TD*
G04 #@! TA.AperFunction,SMDPad,CuDef*
%ADD24RoundRect,0.250000X0.337500X0.475000X-0.337500X0.475000X-0.337500X-0.475000X0.337500X-0.475000X0*%
G04 #@! TD*
G04 #@! TA.AperFunction,SMDPad,CuDef*
%ADD25RoundRect,0.250000X-0.337500X-0.475000X0.337500X-0.475000X0.337500X0.475000X-0.337500X0.475000X0*%
G04 #@! TD*
G04 #@! TA.AperFunction,SMDPad,CuDef*
%ADD26R,1.600000X0.550000*%
G04 #@! TD*
G04 #@! TA.AperFunction,SMDPad,CuDef*
%ADD27R,0.550000X1.600000*%
G04 #@! TD*
G04 #@! TA.AperFunction,SMDPad,CuDef*
%ADD28RoundRect,0.150000X-0.512500X-0.150000X0.512500X-0.150000X0.512500X0.150000X-0.512500X0.150000X0*%
G04 #@! TD*
G04 #@! TA.AperFunction,SMDPad,CuDef*
%ADD29RoundRect,0.250000X-0.537500X-0.425000X0.537500X-0.425000X0.537500X0.425000X-0.537500X0.425000X0*%
G04 #@! TD*
G04 #@! TA.AperFunction,SMDPad,CuDef*
%ADD30R,0.300000X0.650000*%
G04 #@! TD*
G04 #@! TA.AperFunction,SMDPad,CuDef*
%ADD31RoundRect,0.250000X0.537500X0.425000X-0.537500X0.425000X-0.537500X-0.425000X0.537500X-0.425000X0*%
G04 #@! TD*
G04 #@! TA.AperFunction,SMDPad,CuDef*
%ADD32R,1.500000X1.100000*%
G04 #@! TD*
G04 #@! TA.AperFunction,ComponentPad*
%ADD33R,2.000000X2.000000*%
G04 #@! TD*
G04 #@! TA.AperFunction,ViaPad*
%ADD34C,0.800000*%
G04 #@! TD*
G04 #@! TA.AperFunction,Conductor*
%ADD35C,0.500000*%
G04 #@! TD*
G04 #@! TA.AperFunction,Conductor*
%ADD36C,0.250000*%
G04 #@! TD*
G04 #@! TA.AperFunction,Conductor*
%ADD37C,1.000000*%
G04 #@! TD*
G04 APERTURE END LIST*
D10*
X182135000Y-94250000D03*
X182135000Y-96250000D03*
D11*
X139035000Y-100441000D03*
X137035000Y-100441000D03*
D10*
X159356000Y-92202000D03*
X159356000Y-94202000D03*
D12*
X164695000Y-97759000D03*
D13*
X162155000Y-97759000D03*
X164695000Y-95219000D03*
X162155000Y-95219000D03*
X164695000Y-92679000D03*
X162155000Y-92679000D03*
D14*
X147296000Y-104641000D03*
X147296000Y-102591000D03*
D15*
X164425000Y-80248000D03*
X162425000Y-80248000D03*
D10*
X156821000Y-102616000D03*
X156821000Y-104616000D03*
D11*
X126235000Y-94050000D03*
X124235000Y-94050000D03*
D16*
X143144000Y-97690000D03*
X143144000Y-99890000D03*
X144844000Y-99890000D03*
X144844000Y-97690000D03*
D17*
X122835000Y-85693000D03*
X122835000Y-83693000D03*
D10*
X122912000Y-104850000D03*
X122912000Y-106850000D03*
D18*
X187035000Y-78750000D03*
D10*
X153011000Y-102616000D03*
X153011000Y-104616000D03*
D19*
X121505000Y-80817469D03*
D20*
X120235000Y-83017174D03*
D18*
X187035000Y-111750000D03*
D14*
X159356000Y-98275000D03*
X159356000Y-96225000D03*
D21*
X121485001Y-109665064D03*
D20*
X120235000Y-107500000D03*
D22*
X170535000Y-80250000D03*
X177035000Y-80250000D03*
X170535000Y-84750000D03*
X177035000Y-84750000D03*
D11*
X139035000Y-98282000D03*
X137035000Y-98282000D03*
D10*
X145035000Y-107650000D03*
X145035000Y-105650000D03*
D23*
X121835000Y-94000000D03*
D20*
X121835000Y-96540000D03*
D22*
X135535000Y-105250000D03*
X142035000Y-105250000D03*
X135535000Y-109750000D03*
X142035000Y-109750000D03*
D24*
X145031500Y-93456000D03*
X142956500Y-93456000D03*
D25*
X142829500Y-101990400D03*
X144904500Y-101990400D03*
D14*
X154916000Y-104641000D03*
X154916000Y-102591000D03*
D22*
X135535000Y-80250000D03*
X142035000Y-80250000D03*
X135535000Y-84750000D03*
X142035000Y-84750000D03*
D26*
X147745000Y-92434000D03*
X147745000Y-93234000D03*
X147745000Y-94034000D03*
X147745000Y-94834000D03*
X147745000Y-95634000D03*
X147745000Y-96434000D03*
X147745000Y-97234000D03*
X147745000Y-98034000D03*
D27*
X149195000Y-99484000D03*
X149995000Y-99484000D03*
X150795000Y-99484000D03*
X151595000Y-99484000D03*
X152395000Y-99484000D03*
X153195000Y-99484000D03*
X153995000Y-99484000D03*
X154795000Y-99484000D03*
D26*
X156245000Y-98034000D03*
X156245000Y-97234000D03*
X156245000Y-96434000D03*
X156245000Y-95634000D03*
X156245000Y-94834000D03*
X156245000Y-94034000D03*
X156245000Y-93234000D03*
X156245000Y-92434000D03*
D27*
X154795000Y-90984000D03*
X153995000Y-90984000D03*
X153195000Y-90984000D03*
X152395000Y-90984000D03*
X151595000Y-90984000D03*
X150795000Y-90984000D03*
X149995000Y-90984000D03*
X149195000Y-90984000D03*
D28*
X137097500Y-94030000D03*
X137097500Y-95930000D03*
X139372500Y-94980000D03*
D11*
X164425000Y-89900000D03*
X162425000Y-89900000D03*
D29*
X125919500Y-98282000D03*
X128794500Y-98282000D03*
D24*
X145031500Y-95615000D03*
X142956500Y-95615000D03*
D30*
X153293000Y-88600000D03*
X153793000Y-88600000D03*
X154293000Y-88600000D03*
X154793000Y-88600000D03*
X155293000Y-88600000D03*
X155793000Y-88600000D03*
X156293000Y-88600000D03*
X156793000Y-88600000D03*
X156793000Y-87450000D03*
X156293000Y-87450000D03*
X155793000Y-87450000D03*
X155293000Y-87450000D03*
X154793000Y-87450000D03*
X154293000Y-87450000D03*
X153793000Y-87450000D03*
X153293000Y-87450000D03*
D31*
X145050500Y-91170000D03*
X142175500Y-91170000D03*
D32*
X177146000Y-100314000D03*
X168246000Y-100314000D03*
X177146000Y-97774000D03*
X168246000Y-97774000D03*
X177146000Y-95234000D03*
X168246000Y-95234000D03*
X177146000Y-92694000D03*
X168246000Y-92694000D03*
X177146000Y-90154000D03*
X168246000Y-90154000D03*
D25*
X127886500Y-100568000D03*
X125811500Y-100568000D03*
D10*
X149201000Y-102616000D03*
X149201000Y-104616000D03*
D14*
X151106000Y-104641000D03*
X151106000Y-102591000D03*
D17*
X145137000Y-83534000D03*
X145137000Y-81534000D03*
D23*
X184835000Y-93964000D03*
D20*
X184835000Y-96464000D03*
D33*
X125870000Y-102745000D03*
D22*
X125870000Y-87755000D03*
D34*
X161647000Y-89900000D03*
X157645002Y-96250000D03*
X145050500Y-90281000D03*
X152035000Y-94050000D03*
X151233000Y-87741000D03*
X146280000Y-95634000D03*
X121835000Y-98663000D03*
X121835000Y-91805000D03*
X145645000Y-97647000D03*
X146280000Y-100822000D03*
X149963000Y-97621600D03*
X158853000Y-79994000D03*
X158435000Y-98050000D03*
X145035000Y-104850000D03*
X154835000Y-93250000D03*
X151594525Y-89850000D03*
X164435000Y-89050000D03*
X139660000Y-100441000D03*
X148835000Y-99484000D03*
X146821957Y-92371751D03*
X149035000Y-86450000D03*
X153996007Y-98391712D03*
X157645002Y-94853000D03*
D35*
X125811500Y-98390000D02*
X125919500Y-98282000D01*
X125811500Y-100568000D02*
X125811500Y-98390000D01*
X125919500Y-98282000D02*
X125919500Y-98536000D01*
D36*
X126235000Y-95594000D02*
X126235000Y-94050000D01*
X122912000Y-98917000D02*
X126235000Y-95594000D01*
X122912000Y-105029000D02*
X122912000Y-98917000D01*
D35*
X125870000Y-102745000D02*
X125870000Y-100626500D01*
X125870000Y-100626500D02*
X125811500Y-100568000D01*
D36*
X137097500Y-98219500D02*
X137035000Y-98282000D01*
X137097500Y-95930000D02*
X137097500Y-98219500D01*
X137077500Y-94050000D02*
X137097500Y-94030000D01*
X126235000Y-94050000D02*
X137077500Y-94050000D01*
X144069000Y-96665000D02*
X143144000Y-97590000D01*
X146060000Y-96665000D02*
X144069000Y-96665000D01*
X143144000Y-97590000D02*
X143144000Y-97690000D01*
X146629000Y-97234000D02*
X146060000Y-96665000D01*
X147745000Y-97234000D02*
X146629000Y-97234000D01*
X144599000Y-107650000D02*
X144984600Y-107650000D01*
X142199000Y-105250000D02*
X144599000Y-107650000D01*
X135535000Y-105250000D02*
X142199000Y-105250000D01*
X145035000Y-81432000D02*
X145035000Y-81650000D01*
X143853000Y-80250000D02*
X145035000Y-81432000D01*
X135535000Y-80250000D02*
X143853000Y-80250000D01*
X149195000Y-90984000D02*
X149195000Y-87810000D01*
X149195000Y-87810000D02*
X145035000Y-83650000D01*
X160885000Y-96504000D02*
X163410000Y-96504000D01*
X160123000Y-97266000D02*
X160885000Y-96504000D01*
X157323000Y-98034000D02*
X158091000Y-97266000D01*
X158091000Y-97266000D02*
X160123000Y-97266000D01*
X163410000Y-96504000D02*
X164695000Y-95219000D01*
X156245000Y-98034000D02*
X157323000Y-98034000D01*
D35*
X150033000Y-95996000D02*
X150471000Y-96434000D01*
X150471000Y-96434000D02*
X150725000Y-96434000D01*
X149455000Y-96434000D02*
X150471000Y-96434000D01*
X147745000Y-96434000D02*
X149455000Y-96434000D01*
X149963000Y-95996000D02*
X149963000Y-96434000D01*
X149963000Y-95234000D02*
X149963000Y-95996000D01*
X149893000Y-95996000D02*
X149455000Y-96434000D01*
X149563000Y-94834000D02*
X149963000Y-95234000D01*
X147745000Y-94834000D02*
X149563000Y-94834000D01*
D36*
X177035000Y-80250000D02*
X170535000Y-80250000D01*
X182135000Y-94250000D02*
X182135000Y-83210000D01*
X182135000Y-83210000D02*
X177175000Y-78250000D01*
X177175000Y-78250000D02*
X157235000Y-78250000D01*
X157235000Y-78250000D02*
X149035000Y-86450000D01*
X149995000Y-90984000D02*
X149995000Y-87090000D01*
X149995000Y-87090000D02*
X154805000Y-82280000D01*
X154805000Y-82280000D02*
X160393000Y-82280000D01*
X160393000Y-82280000D02*
X162425000Y-80248000D01*
X170533000Y-80248000D02*
X164425000Y-80248000D01*
X170535000Y-80250000D02*
X170533000Y-80248000D01*
D35*
X120235000Y-107502295D02*
X120245000Y-107512295D01*
X121835000Y-96540000D02*
X120235000Y-98140000D01*
X120235000Y-98140000D02*
X120235000Y-107502295D01*
X151601000Y-96434000D02*
X151741000Y-96434000D01*
X151487000Y-96434000D02*
X153195000Y-96434000D01*
X150725000Y-96434000D02*
X151487000Y-96434000D01*
D37*
X142956500Y-93456000D02*
X141327000Y-93456000D01*
X142175500Y-91170000D02*
X140819000Y-91170000D01*
X143144000Y-99890000D02*
X141327000Y-99890000D01*
D36*
X182135000Y-96250000D02*
X184495000Y-96250000D01*
X184495000Y-96250000D02*
X184735000Y-96490000D01*
X170135000Y-88950000D02*
X170135000Y-93345000D01*
X154293000Y-87450000D02*
X154293000Y-86192000D01*
X170135000Y-93345000D02*
X168246000Y-95234000D01*
X154293000Y-86192000D02*
X155835000Y-84650000D01*
X165835000Y-84650000D02*
X170135000Y-88950000D01*
X155835000Y-84650000D02*
X165835000Y-84650000D01*
X171035000Y-94985000D02*
X168246000Y-97774000D01*
X166235000Y-83850000D02*
X171035000Y-88650000D01*
X153793000Y-85692000D02*
X155635000Y-83850000D01*
X155635000Y-83850000D02*
X166235000Y-83850000D01*
X171035000Y-88650000D02*
X171035000Y-94985000D01*
X153793000Y-87450000D02*
X153793000Y-85692000D01*
X166735000Y-83050000D02*
X171835000Y-88150000D01*
X155235000Y-83050000D02*
X166735000Y-83050000D01*
X171835000Y-96725000D02*
X168246000Y-100314000D01*
X153293000Y-87450000D02*
X153293000Y-84992000D01*
X153293000Y-84992000D02*
X155235000Y-83050000D01*
X171835000Y-88150000D02*
X171835000Y-96725000D01*
X169435000Y-91505000D02*
X168246000Y-92694000D01*
X169435000Y-89450000D02*
X169435000Y-91505000D01*
X154793000Y-86692000D02*
X156035000Y-85450000D01*
X165435000Y-85450000D02*
X169435000Y-89450000D01*
X154793000Y-87450000D02*
X154793000Y-86692000D01*
X156035000Y-85450000D02*
X165435000Y-85450000D01*
X164342000Y-86250000D02*
X168246000Y-90154000D01*
X156051500Y-86250000D02*
X164342000Y-86250000D01*
X155293000Y-87450000D02*
X155293000Y-87008500D01*
X155293000Y-87008500D02*
X156051500Y-86250000D01*
D35*
X157645002Y-96758998D02*
X157170000Y-97234000D01*
X145050500Y-90281000D02*
X145050500Y-93437000D01*
X157170000Y-97234000D02*
X156245000Y-97234000D01*
D36*
X145031500Y-93456000D02*
X145264000Y-93456000D01*
D35*
X157645002Y-96250000D02*
X157645002Y-96758998D01*
X121835000Y-96540000D02*
X120235000Y-94940000D01*
X145241000Y-93456000D02*
X146619000Y-94834000D01*
X161647000Y-89900000D02*
X162425000Y-89900000D01*
X120235000Y-94940000D02*
X120235000Y-83111469D01*
X153195000Y-96434000D02*
X153995000Y-97234000D01*
X145031500Y-93456000D02*
X145241000Y-93456000D01*
X146619000Y-94834000D02*
X147745000Y-94834000D01*
X153995000Y-97234000D02*
X156245000Y-97234000D01*
X120235000Y-83111469D02*
X120140705Y-83017174D01*
D37*
X147296000Y-104641000D02*
X147296000Y-106537000D01*
D36*
X146261000Y-95615000D02*
X146280000Y-95634000D01*
X145031500Y-95615000D02*
X146261000Y-95615000D01*
D37*
X142829500Y-101990400D02*
X141352400Y-101990400D01*
D35*
X159343000Y-98050000D02*
X159356000Y-98037000D01*
X158435000Y-98050000D02*
X159343000Y-98050000D01*
X147761000Y-94050000D02*
X150635000Y-94050000D01*
D36*
X147745000Y-94034000D02*
X147761000Y-94050000D01*
D37*
X151106000Y-104641000D02*
X151106000Y-106779000D01*
D36*
X145602000Y-97690000D02*
X145645000Y-97647000D01*
D37*
X154916000Y-104641000D02*
X154916000Y-106731000D01*
X162155000Y-92679000D02*
X161035000Y-91559000D01*
D36*
X146280000Y-95634000D02*
X147745000Y-95634000D01*
D35*
X156245000Y-94834000D02*
X153835000Y-94834000D01*
D36*
X144844000Y-97690000D02*
X145602000Y-97690000D01*
X142956500Y-95615000D02*
X142956500Y-97502500D01*
X142956500Y-97502500D02*
X143144000Y-97690000D01*
X147745000Y-98034000D02*
X147081000Y-98034000D01*
X144904500Y-99950500D02*
X144844000Y-99890000D01*
X147081000Y-98034000D02*
X145225000Y-99890000D01*
X144904500Y-101965000D02*
X144904500Y-99950500D01*
X121885000Y-94050000D02*
X121835000Y-94000000D01*
X124235000Y-94050000D02*
X121885000Y-94050000D01*
X121515000Y-109635065D02*
X121515000Y-109712000D01*
X122912000Y-108238065D02*
X121515000Y-109635065D01*
X122912000Y-107029000D02*
X122912000Y-108238065D01*
X122835000Y-82147469D02*
X121505000Y-80817469D01*
X121505000Y-80817469D02*
X121410705Y-80817469D01*
X122835000Y-83516000D02*
X122835000Y-82147469D01*
X122658000Y-83693000D02*
X122835000Y-83516000D01*
X154835000Y-93250000D02*
X154851000Y-93234000D01*
X154851000Y-93234000D02*
X156245000Y-93234000D01*
X151595000Y-89850475D02*
X151595000Y-90984000D01*
X164695000Y-92679000D02*
X164695000Y-90170000D01*
X164435000Y-89050000D02*
X164425000Y-89060000D01*
X151594525Y-89850000D02*
X151595000Y-89850475D01*
X164695000Y-90170000D02*
X164425000Y-89900000D01*
X164425000Y-89060000D02*
X164425000Y-89900000D01*
X137035000Y-98282000D02*
X137035000Y-100441000D01*
X126235000Y-92080000D02*
X126235000Y-94050000D01*
X122835000Y-85870000D02*
X122835000Y-88680000D01*
X122835000Y-88680000D02*
X126235000Y-92080000D01*
X126469000Y-94284000D02*
X126235000Y-94050000D01*
X122658000Y-85693000D02*
X122835000Y-85870000D01*
X148835000Y-99484000D02*
X149195000Y-99484000D01*
X146884206Y-92434000D02*
X147745000Y-92434000D01*
X146821957Y-92371751D02*
X146884206Y-92434000D01*
X147296000Y-102591000D02*
X147296000Y-102711000D01*
X149176000Y-104641000D02*
X149201000Y-104616000D01*
X147296000Y-102711000D02*
X149201000Y-104616000D01*
X151595000Y-100222000D02*
X151595000Y-99484000D01*
X149201000Y-102616000D02*
X151595000Y-100222000D01*
X151106000Y-102711000D02*
X153011000Y-104616000D01*
X152986000Y-104641000D02*
X153011000Y-104616000D01*
X151106000Y-102591000D02*
X151106000Y-102711000D01*
X153011000Y-102616000D02*
X152395000Y-102000000D01*
X152395000Y-102000000D02*
X152395000Y-99484000D01*
X156796000Y-104641000D02*
X156821000Y-104616000D01*
X154916000Y-102711000D02*
X156821000Y-104616000D01*
X154916000Y-102591000D02*
X154916000Y-102711000D01*
X154154000Y-101203000D02*
X153195000Y-100244000D01*
X153195000Y-100244000D02*
X153195000Y-99484000D01*
X155408000Y-101203000D02*
X154154000Y-101203000D01*
X156821000Y-102616000D02*
X155408000Y-101203000D01*
X159356000Y-94202000D02*
X159356000Y-95987000D01*
X157645002Y-93912998D02*
X159356000Y-92202000D01*
X162155000Y-95219000D02*
X162155000Y-95001000D01*
X153996007Y-98391712D02*
X153995000Y-98392719D01*
X153995000Y-98392719D02*
X153995000Y-99484000D01*
X162155000Y-95001000D02*
X159356000Y-92202000D01*
X157645002Y-94853000D02*
X157645002Y-93912998D01*
X162970000Y-99484000D02*
X154795000Y-99484000D01*
X164695000Y-97759000D02*
X162970000Y-99484000D01*
X155293000Y-89708000D02*
X155293000Y-88600000D01*
X156245000Y-90660000D02*
X155293000Y-89708000D01*
X156245000Y-92434000D02*
X156245000Y-90660000D01*
X154793000Y-90982000D02*
X154793000Y-88600000D01*
X154795000Y-90984000D02*
X154793000Y-90982000D01*
X153793000Y-89492000D02*
X153793000Y-88697000D01*
X153195000Y-90984000D02*
X153195000Y-90090000D01*
X153195000Y-90090000D02*
X153793000Y-89492000D01*
X152395000Y-89498000D02*
X152395000Y-90984000D01*
X153293000Y-88600000D02*
X152395000Y-89498000D01*
X153995000Y-90012000D02*
X154293000Y-89714000D01*
X153995000Y-90984000D02*
X153995000Y-90012000D01*
X154293000Y-89714000D02*
X154293000Y-88600000D01*
G04 #@! TA.AperFunction,Conductor*
G36*
X125278334Y-94970548D02*
G01*
X125322681Y-94999049D01*
X125416344Y-95092712D01*
X125550597Y-95175519D01*
X125597321Y-95227465D01*
X125609500Y-95281057D01*
X125609500Y-95283547D01*
X125589815Y-95350586D01*
X125573181Y-95371228D01*
X122513269Y-98431140D01*
X122513267Y-98431142D01*
X122484898Y-98459511D01*
X122426142Y-98518266D01*
X122397866Y-98560585D01*
X122397865Y-98560586D01*
X122357690Y-98620708D01*
X122357688Y-98620713D01*
X122332827Y-98680732D01*
X122332828Y-98680733D01*
X122310537Y-98734548D01*
X122306486Y-98754913D01*
X122289963Y-98837986D01*
X122286500Y-98855394D01*
X122286500Y-103677983D01*
X122266815Y-103745022D01*
X122214011Y-103790777D01*
X122201510Y-103795686D01*
X122142666Y-103815186D01*
X122142663Y-103815187D01*
X121993342Y-103907289D01*
X121869289Y-104031342D01*
X121777187Y-104180663D01*
X121777185Y-104180668D01*
X121765484Y-104215980D01*
X121722001Y-104347203D01*
X121722001Y-104347204D01*
X121722000Y-104347204D01*
X121711500Y-104449983D01*
X121711500Y-105250001D01*
X121711501Y-105250019D01*
X121722000Y-105352796D01*
X121722001Y-105352799D01*
X121777185Y-105519331D01*
X121777187Y-105519336D01*
X121869289Y-105668657D01*
X121962951Y-105762319D01*
X121996436Y-105823642D01*
X121991452Y-105893334D01*
X121962951Y-105937681D01*
X121869289Y-106031342D01*
X121777187Y-106180663D01*
X121777186Y-106180666D01*
X121722001Y-106347203D01*
X121722001Y-106347204D01*
X121722000Y-106347204D01*
X121711500Y-106449983D01*
X121711500Y-106788226D01*
X121691815Y-106855265D01*
X121639011Y-106901020D01*
X121569853Y-106910964D01*
X121506297Y-106881939D01*
X121473943Y-106838033D01*
X121472811Y-106835453D01*
X121470924Y-106831151D01*
X121391491Y-106709570D01*
X121343983Y-106636852D01*
X121343980Y-106636849D01*
X121343979Y-106636847D01*
X121186784Y-106466087D01*
X121145268Y-106433774D01*
X121033337Y-106346654D01*
X120992524Y-106289944D01*
X120985500Y-106248801D01*
X120985500Y-98502229D01*
X121005185Y-98435190D01*
X121021815Y-98414552D01*
X121482638Y-97953728D01*
X121543959Y-97920245D01*
X121590722Y-97919102D01*
X121718951Y-97940500D01*
X121718953Y-97940500D01*
X121951048Y-97940500D01*
X121951049Y-97940500D01*
X122179981Y-97902298D01*
X122399503Y-97826936D01*
X122603626Y-97716470D01*
X122610490Y-97711128D01*
X122726614Y-97620745D01*
X122786784Y-97573913D01*
X122943979Y-97403153D01*
X122953656Y-97388342D01*
X122978379Y-97350500D01*
X123070924Y-97208849D01*
X123164157Y-96996300D01*
X123221134Y-96771305D01*
X123221135Y-96771297D01*
X123240300Y-96540006D01*
X123240300Y-96539993D01*
X123221135Y-96308702D01*
X123221133Y-96308691D01*
X123164157Y-96083699D01*
X123070924Y-95871151D01*
X122943983Y-95676852D01*
X122943980Y-95676849D01*
X122943979Y-95676847D01*
X122849195Y-95573884D01*
X122818275Y-95511232D01*
X122826135Y-95441806D01*
X122870283Y-95387651D01*
X122897095Y-95373722D01*
X122977326Y-95343798D01*
X122977326Y-95343797D01*
X122977331Y-95343796D01*
X123092546Y-95257546D01*
X123178796Y-95142331D01*
X123189378Y-95113958D01*
X123231246Y-95058025D01*
X123296710Y-95033606D01*
X123364983Y-95048456D01*
X123393241Y-95069609D01*
X123416344Y-95092712D01*
X123565666Y-95184814D01*
X123732203Y-95239999D01*
X123834991Y-95250500D01*
X124635008Y-95250499D01*
X124635016Y-95250498D01*
X124635019Y-95250498D01*
X124691302Y-95244748D01*
X124737797Y-95239999D01*
X124904334Y-95184814D01*
X125053656Y-95092712D01*
X125147319Y-94999049D01*
X125208642Y-94965564D01*
X125278334Y-94970548D01*
G37*
G04 #@! TD.AperFunction*
G04 #@! TA.AperFunction,Conductor*
G36*
X121592404Y-83759058D02*
G01*
X121629736Y-83818118D01*
X121634500Y-83852158D01*
X121634500Y-84093000D01*
X121634501Y-84093019D01*
X121645000Y-84195796D01*
X121645001Y-84195799D01*
X121696979Y-84352656D01*
X121700186Y-84362334D01*
X121770734Y-84476712D01*
X121792289Y-84511657D01*
X121885951Y-84605319D01*
X121919436Y-84666642D01*
X121914452Y-84736334D01*
X121885951Y-84780681D01*
X121792289Y-84874342D01*
X121700187Y-85023663D01*
X121700185Y-85023668D01*
X121673714Y-85103553D01*
X121645001Y-85190203D01*
X121645001Y-85190204D01*
X121645000Y-85190204D01*
X121634500Y-85292983D01*
X121634500Y-86093001D01*
X121634501Y-86093019D01*
X121645000Y-86195796D01*
X121645001Y-86195799D01*
X121700185Y-86362331D01*
X121700187Y-86362336D01*
X121735069Y-86418888D01*
X121792288Y-86511656D01*
X121916344Y-86635712D01*
X122065666Y-86727814D01*
X122065668Y-86727815D01*
X122086110Y-86734588D01*
X122124502Y-86747310D01*
X122181947Y-86787081D01*
X122208772Y-86851596D01*
X122209500Y-86865016D01*
X122209500Y-88741607D01*
X122213896Y-88763713D01*
X122233535Y-88862444D01*
X122233537Y-88862451D01*
X122241273Y-88881129D01*
X122280685Y-88976281D01*
X122280687Y-88976284D01*
X122280688Y-88976286D01*
X122296352Y-88999728D01*
X122349141Y-89078732D01*
X122349144Y-89078736D01*
X122440586Y-89170178D01*
X122440608Y-89170198D01*
X125573181Y-92302771D01*
X125606666Y-92364094D01*
X125609500Y-92390452D01*
X125609500Y-92818942D01*
X125589815Y-92885981D01*
X125550598Y-92924479D01*
X125498479Y-92956627D01*
X125416342Y-93007289D01*
X125322681Y-93100951D01*
X125261358Y-93134436D01*
X125191666Y-93129452D01*
X125147319Y-93100951D01*
X125053657Y-93007289D01*
X125053656Y-93007288D01*
X124904334Y-92915186D01*
X124737797Y-92860001D01*
X124737795Y-92860000D01*
X124635010Y-92849500D01*
X123834998Y-92849500D01*
X123834980Y-92849501D01*
X123732203Y-92860000D01*
X123732200Y-92860001D01*
X123565668Y-92915185D01*
X123565663Y-92915187D01*
X123416341Y-93007290D01*
X123410681Y-93011766D01*
X123408903Y-93009517D01*
X123359026Y-93036722D01*
X123289337Y-93031704D01*
X123233423Y-92989806D01*
X123216544Y-92958876D01*
X123178797Y-92857671D01*
X123178793Y-92857664D01*
X123092547Y-92742455D01*
X123092544Y-92742452D01*
X122977335Y-92656206D01*
X122977328Y-92656202D01*
X122842482Y-92605908D01*
X122842483Y-92605908D01*
X122782883Y-92599501D01*
X122782881Y-92599500D01*
X122782873Y-92599500D01*
X122782865Y-92599500D01*
X121109500Y-92599500D01*
X121042461Y-92579815D01*
X120996706Y-92527011D01*
X120985500Y-92475500D01*
X120985500Y-84268372D01*
X121005185Y-84201333D01*
X121033338Y-84170518D01*
X121186784Y-84051087D01*
X121343979Y-83880327D01*
X121406692Y-83784336D01*
X121459837Y-83738981D01*
X121529068Y-83729557D01*
X121592404Y-83759058D01*
G37*
G04 #@! TD.AperFunction*
G04 #@! TA.AperFunction,Conductor*
G36*
X148036880Y-98829184D02*
G01*
X148082635Y-98881988D01*
X148092579Y-98951146D01*
X148077228Y-98995499D01*
X148007821Y-99115715D01*
X148007818Y-99115722D01*
X147949327Y-99295740D01*
X147949326Y-99295744D01*
X147929540Y-99484000D01*
X147949326Y-99672256D01*
X147949327Y-99672259D01*
X148007818Y-99852277D01*
X148007821Y-99852284D01*
X148102467Y-100016216D01*
X148203833Y-100128794D01*
X148229129Y-100156888D01*
X148370701Y-100259746D01*
X148413367Y-100315076D01*
X148421106Y-100346809D01*
X148425909Y-100391483D01*
X148476202Y-100526328D01*
X148476206Y-100526335D01*
X148562452Y-100641544D01*
X148562455Y-100641547D01*
X148677664Y-100727793D01*
X148677671Y-100727797D01*
X148722618Y-100744561D01*
X148812517Y-100778091D01*
X148872127Y-100784500D01*
X149517872Y-100784499D01*
X149577483Y-100778091D01*
X149577486Y-100778089D01*
X149581744Y-100777632D01*
X149608254Y-100777632D01*
X149612514Y-100778089D01*
X149612517Y-100778091D01*
X149672127Y-100784500D01*
X149848548Y-100784499D01*
X149915586Y-100804183D01*
X149961341Y-100856987D01*
X149971285Y-100926145D01*
X149942260Y-100989701D01*
X149936228Y-100996180D01*
X149453227Y-101479181D01*
X149391904Y-101512666D01*
X149365546Y-101515500D01*
X148700998Y-101515500D01*
X148700980Y-101515501D01*
X148598203Y-101526000D01*
X148598200Y-101526001D01*
X148431668Y-101581185D01*
X148431659Y-101581189D01*
X148313596Y-101654011D01*
X148246204Y-101672451D01*
X148183404Y-101654011D01*
X148065340Y-101581189D01*
X148065335Y-101581187D01*
X148065334Y-101581186D01*
X147898797Y-101526001D01*
X147898795Y-101526000D01*
X147796010Y-101515500D01*
X146795998Y-101515500D01*
X146795980Y-101515501D01*
X146693203Y-101526000D01*
X146693200Y-101526001D01*
X146526668Y-101581185D01*
X146526663Y-101581187D01*
X146377342Y-101673289D01*
X146253287Y-101797344D01*
X146222037Y-101848009D01*
X146170089Y-101894733D01*
X146101126Y-101905954D01*
X146037044Y-101878110D01*
X145998189Y-101820041D01*
X145992499Y-101782911D01*
X145992499Y-101465398D01*
X145992498Y-101465380D01*
X145981999Y-101362603D01*
X145981998Y-101362600D01*
X145980504Y-101358091D01*
X145926814Y-101196066D01*
X145834712Y-101046744D01*
X145834710Y-101046742D01*
X145830920Y-101040597D01*
X145833542Y-101038979D01*
X145812571Y-100987038D01*
X145825591Y-100918392D01*
X145836705Y-100900579D01*
X145887796Y-100832331D01*
X145938091Y-100697483D01*
X145944500Y-100637873D01*
X145944499Y-100106450D01*
X145964183Y-100039412D01*
X145980813Y-100018775D01*
X147153771Y-98845818D01*
X147215094Y-98812333D01*
X147241452Y-98809499D01*
X147969841Y-98809499D01*
X148036880Y-98829184D01*
G37*
G04 #@! TD.AperFunction*
G04 #@! TA.AperFunction,Conductor*
G36*
X160719415Y-97656690D02*
G01*
X160775348Y-97698562D01*
X160799609Y-97762064D01*
X160819936Y-97994403D01*
X160819938Y-97994413D01*
X160881094Y-98222655D01*
X160881096Y-98222659D01*
X160881097Y-98222663D01*
X160951016Y-98372605D01*
X160980965Y-98436830D01*
X160980967Y-98436834D01*
X161071643Y-98566331D01*
X161109721Y-98620713D01*
X161116501Y-98630395D01*
X161116506Y-98630402D01*
X161132923Y-98646819D01*
X161166408Y-98708142D01*
X161161424Y-98777834D01*
X161119552Y-98833767D01*
X161054088Y-98858184D01*
X161045242Y-98858500D01*
X160672011Y-98858500D01*
X160604972Y-98838815D01*
X160559217Y-98786011D01*
X160548653Y-98721898D01*
X160555999Y-98649988D01*
X160556000Y-98649973D01*
X160556000Y-98525000D01*
X159230000Y-98525000D01*
X159162961Y-98505315D01*
X159117206Y-98452511D01*
X159106000Y-98401000D01*
X159106000Y-98149000D01*
X159125685Y-98081961D01*
X159178489Y-98036206D01*
X159230000Y-98025000D01*
X160555999Y-98025000D01*
X160555999Y-97900028D01*
X160555998Y-97900013D01*
X160545078Y-97793119D01*
X160557847Y-97724426D01*
X160580755Y-97692836D01*
X160588400Y-97685191D01*
X160649723Y-97651706D01*
X160719415Y-97656690D01*
G37*
G04 #@! TD.AperFunction*
G04 #@! TA.AperFunction,Conductor*
G36*
X152899809Y-97204185D02*
G01*
X152920451Y-97220819D01*
X153320347Y-97620715D01*
X153353832Y-97682038D01*
X153348848Y-97751730D01*
X153324816Y-97791368D01*
X153263473Y-97859496D01*
X153168828Y-98023427D01*
X153168826Y-98023431D01*
X153144656Y-98097819D01*
X153105218Y-98155494D01*
X153040859Y-98182692D01*
X153026726Y-98183500D01*
X152872130Y-98183500D01*
X152872120Y-98183501D01*
X152808248Y-98190367D01*
X152781742Y-98190367D01*
X152777483Y-98189909D01*
X152717873Y-98183500D01*
X152717864Y-98183500D01*
X152072129Y-98183500D01*
X152072120Y-98183501D01*
X152008248Y-98190367D01*
X151981742Y-98190367D01*
X151977483Y-98189909D01*
X151917873Y-98183500D01*
X151917864Y-98183500D01*
X151272129Y-98183500D01*
X151272120Y-98183501D01*
X151208248Y-98190367D01*
X151181742Y-98190367D01*
X151177483Y-98189909D01*
X151117873Y-98183500D01*
X151117864Y-98183500D01*
X150472129Y-98183500D01*
X150472120Y-98183501D01*
X150408248Y-98190367D01*
X150381742Y-98190367D01*
X150377483Y-98189909D01*
X150317873Y-98183500D01*
X150317864Y-98183500D01*
X149672129Y-98183500D01*
X149672120Y-98183501D01*
X149608248Y-98190367D01*
X149581742Y-98190367D01*
X149577483Y-98189909D01*
X149517873Y-98183500D01*
X149517867Y-98183500D01*
X149169499Y-98183500D01*
X149102460Y-98163815D01*
X149056705Y-98111011D01*
X149045499Y-98059500D01*
X149045499Y-97711129D01*
X149045499Y-97711128D01*
X149039091Y-97651517D01*
X149039089Y-97651513D01*
X149038632Y-97647255D01*
X149038632Y-97620745D01*
X149039089Y-97616486D01*
X149039091Y-97616483D01*
X149045500Y-97556873D01*
X149045499Y-97308498D01*
X149065183Y-97241461D01*
X149117987Y-97195706D01*
X149169499Y-97184500D01*
X149381082Y-97184500D01*
X149381083Y-97184500D01*
X149528917Y-97184500D01*
X149889082Y-97184500D01*
X150036918Y-97184500D01*
X150397082Y-97184500D01*
X150397083Y-97184500D01*
X150544918Y-97184500D01*
X150651082Y-97184500D01*
X151413082Y-97184500D01*
X151527082Y-97184500D01*
X151814918Y-97184500D01*
X152832770Y-97184500D01*
X152899809Y-97204185D01*
G37*
G04 #@! TD.AperFunction*
G04 #@! TA.AperFunction,Conductor*
G36*
X145037039Y-97310185D02*
G01*
X145082794Y-97362989D01*
X145094000Y-97414500D01*
X145094000Y-97440000D01*
X145899048Y-97440000D01*
X145966087Y-97459685D01*
X145986722Y-97476313D01*
X146230267Y-97719858D01*
X146237834Y-97724914D01*
X146272655Y-97748181D01*
X146317459Y-97801794D01*
X146326166Y-97871119D01*
X146296011Y-97934146D01*
X146291445Y-97938964D01*
X146155679Y-98074729D01*
X146094359Y-98108213D01*
X146024667Y-98103229D01*
X145968733Y-98061358D01*
X145944316Y-97995894D01*
X145944000Y-97987047D01*
X145944000Y-97940000D01*
X144718000Y-97940000D01*
X144650961Y-97920315D01*
X144605206Y-97867511D01*
X144594000Y-97816000D01*
X144594000Y-97414500D01*
X144613685Y-97347461D01*
X144666489Y-97301706D01*
X144718000Y-97290500D01*
X144970000Y-97290500D01*
X145037039Y-97310185D01*
G37*
G04 #@! TD.AperFunction*
G04 #@! TA.AperFunction,Conductor*
G36*
X149612514Y-92278089D02*
G01*
X149612517Y-92278091D01*
X149672127Y-92284500D01*
X150317872Y-92284499D01*
X150377483Y-92278091D01*
X150377486Y-92278089D01*
X150381744Y-92277632D01*
X150408254Y-92277632D01*
X150412514Y-92278089D01*
X150412517Y-92278091D01*
X150472127Y-92284500D01*
X151117872Y-92284499D01*
X151177483Y-92278091D01*
X151177486Y-92278089D01*
X151181744Y-92277632D01*
X151208254Y-92277632D01*
X151212514Y-92278089D01*
X151212517Y-92278091D01*
X151272127Y-92284500D01*
X151917872Y-92284499D01*
X151977483Y-92278091D01*
X151977486Y-92278089D01*
X151981744Y-92277632D01*
X152008254Y-92277632D01*
X152012514Y-92278089D01*
X152012517Y-92278091D01*
X152072127Y-92284500D01*
X152717872Y-92284499D01*
X152777483Y-92278091D01*
X152777486Y-92278089D01*
X152781744Y-92277632D01*
X152808254Y-92277632D01*
X152812514Y-92278089D01*
X152812517Y-92278091D01*
X152872127Y-92284500D01*
X153517872Y-92284499D01*
X153577483Y-92278091D01*
X153577486Y-92278089D01*
X153581744Y-92277632D01*
X153608254Y-92277632D01*
X153612514Y-92278089D01*
X153612517Y-92278091D01*
X153672127Y-92284500D01*
X154250243Y-92284499D01*
X154317282Y-92304183D01*
X154363037Y-92356987D01*
X154372981Y-92426146D01*
X154343956Y-92489702D01*
X154323129Y-92508817D01*
X154229127Y-92577113D01*
X154102466Y-92717785D01*
X154007821Y-92881715D01*
X154007818Y-92881722D01*
X153952450Y-93052128D01*
X153949326Y-93061744D01*
X153929540Y-93250000D01*
X153949326Y-93438256D01*
X153949327Y-93438259D01*
X154007818Y-93618277D01*
X154007821Y-93618284D01*
X154102467Y-93782216D01*
X154178400Y-93866548D01*
X154229129Y-93922888D01*
X154382265Y-94034148D01*
X154382270Y-94034151D01*
X154555192Y-94111142D01*
X154555197Y-94111144D01*
X154740354Y-94150500D01*
X154740355Y-94150500D01*
X154820501Y-94150500D01*
X154887540Y-94170185D01*
X154933295Y-94222989D01*
X154944501Y-94274500D01*
X154944501Y-94356876D01*
X154951619Y-94423092D01*
X154951619Y-94449599D01*
X154945000Y-94511169D01*
X154945000Y-94584000D01*
X154963591Y-94584000D01*
X155030630Y-94603685D01*
X155062855Y-94633686D01*
X155087454Y-94666546D01*
X155087455Y-94666546D01*
X155087456Y-94666548D01*
X155178540Y-94734734D01*
X155220411Y-94790668D01*
X155225395Y-94860359D01*
X155191909Y-94921682D01*
X155178540Y-94933266D01*
X155087456Y-95001451D01*
X155087454Y-95001454D01*
X155062856Y-95034312D01*
X155006924Y-95076182D01*
X154963591Y-95084000D01*
X154945000Y-95084000D01*
X154945000Y-95156844D01*
X154951619Y-95218398D01*
X154951620Y-95244909D01*
X154950909Y-95251514D01*
X154950909Y-95251517D01*
X154944500Y-95311127D01*
X154944500Y-95311134D01*
X154944500Y-95311135D01*
X154944500Y-95956870D01*
X154944501Y-95956879D01*
X154951367Y-96020751D01*
X154951367Y-96047257D01*
X154950909Y-96051516D01*
X154950909Y-96051517D01*
X154944500Y-96111127D01*
X154944500Y-96284500D01*
X154944501Y-96359500D01*
X154924817Y-96426539D01*
X154872013Y-96472294D01*
X154820501Y-96483500D01*
X154357230Y-96483500D01*
X154290191Y-96463815D01*
X154269549Y-96447181D01*
X153673421Y-95851052D01*
X153673418Y-95851049D01*
X153599192Y-95801454D01*
X153589759Y-95795151D01*
X153550495Y-95768916D01*
X153550492Y-95768914D01*
X153550491Y-95768914D01*
X153413917Y-95712343D01*
X153413907Y-95712340D01*
X153268920Y-95683500D01*
X153268918Y-95683500D01*
X151560918Y-95683500D01*
X150837500Y-95683500D01*
X150770461Y-95663815D01*
X150724706Y-95611011D01*
X150713500Y-95559500D01*
X150713500Y-95160079D01*
X150684659Y-95015092D01*
X150684658Y-95015091D01*
X150684658Y-95015087D01*
X150681508Y-95007483D01*
X150628087Y-94878511D01*
X150628080Y-94878498D01*
X150545952Y-94755585D01*
X150494119Y-94703752D01*
X150441416Y-94651049D01*
X150341698Y-94551331D01*
X150041421Y-94251052D01*
X150041418Y-94251049D01*
X149967192Y-94201454D01*
X149918495Y-94168916D01*
X149918492Y-94168914D01*
X149918491Y-94168914D01*
X149781917Y-94112343D01*
X149781907Y-94112340D01*
X149636920Y-94083500D01*
X149636918Y-94083500D01*
X148984954Y-94083500D01*
X148917915Y-94063815D01*
X148872160Y-94011011D01*
X148862216Y-93941853D01*
X148891241Y-93878297D01*
X148897273Y-93871819D01*
X148902543Y-93866548D01*
X148902542Y-93866548D01*
X148902546Y-93866546D01*
X148927143Y-93833687D01*
X148983076Y-93791818D01*
X149026409Y-93784000D01*
X149045000Y-93784000D01*
X149045000Y-93711172D01*
X149044999Y-93711160D01*
X149038380Y-93649604D01*
X149038380Y-93623090D01*
X149039090Y-93616485D01*
X149039091Y-93616483D01*
X149045500Y-93556873D01*
X149045499Y-92911128D01*
X149039091Y-92851517D01*
X149039089Y-92851513D01*
X149038632Y-92847255D01*
X149038632Y-92820745D01*
X149039089Y-92816486D01*
X149039091Y-92816483D01*
X149045500Y-92756873D01*
X149045499Y-92408498D01*
X149065183Y-92341460D01*
X149117987Y-92295705D01*
X149169499Y-92284499D01*
X149517871Y-92284499D01*
X149517872Y-92284499D01*
X149577483Y-92278091D01*
X149577486Y-92278089D01*
X149581744Y-92277632D01*
X149608254Y-92277632D01*
X149612514Y-92278089D01*
G37*
G04 #@! TD.AperFunction*
G04 #@! TA.AperFunction,Conductor*
G36*
X146104309Y-95384685D02*
G01*
X146124951Y-95401319D01*
X146140580Y-95416948D01*
X146140584Y-95416951D01*
X146263498Y-95499080D01*
X146263511Y-95499087D01*
X146400082Y-95555656D01*
X146400087Y-95555658D01*
X146534812Y-95582457D01*
X146596723Y-95614842D01*
X146631297Y-95675557D01*
X146627558Y-95745327D01*
X146592493Y-95793951D01*
X146593725Y-95795183D01*
X146587456Y-95801451D01*
X146587454Y-95801454D01*
X146562856Y-95834312D01*
X146506924Y-95876182D01*
X146463591Y-95884000D01*
X146445000Y-95884000D01*
X146445000Y-95960149D01*
X146443768Y-95960149D01*
X146428828Y-96023287D01*
X146378534Y-96071787D01*
X146310003Y-96085397D01*
X146273642Y-96076456D01*
X146242454Y-96063538D01*
X146242456Y-96063538D01*
X146242452Y-96063537D01*
X146242449Y-96063536D01*
X146242448Y-96063536D01*
X146218806Y-96058833D01*
X146156895Y-96026446D01*
X146122323Y-95965729D01*
X146119000Y-95937216D01*
X146119000Y-95865000D01*
X145281500Y-95865000D01*
X145281500Y-95915500D01*
X145261815Y-95982539D01*
X145209011Y-96028294D01*
X145157500Y-96039500D01*
X144905500Y-96039500D01*
X144838461Y-96019815D01*
X144792706Y-95967011D01*
X144781500Y-95915500D01*
X144781500Y-95489000D01*
X144801185Y-95421961D01*
X144853989Y-95376206D01*
X144905500Y-95365000D01*
X146037270Y-95365000D01*
X146104309Y-95384685D01*
G37*
G04 #@! TD.AperFunction*
G04 #@! TA.AperFunction,Conductor*
G36*
X152586834Y-85485270D02*
G01*
X152642767Y-85527142D01*
X152667184Y-85592606D01*
X152667500Y-85601452D01*
X152667500Y-86945299D01*
X152659682Y-86988632D01*
X152650686Y-87012753D01*
X152648909Y-87017517D01*
X152642500Y-87077127D01*
X152642500Y-87077134D01*
X152642500Y-87077135D01*
X152642500Y-87822870D01*
X152642501Y-87822876D01*
X152648909Y-87882484D01*
X152685901Y-87981668D01*
X152690885Y-88051360D01*
X152685901Y-88068332D01*
X152648909Y-88167514D01*
X152648908Y-88167516D01*
X152642501Y-88227116D01*
X152642501Y-88227123D01*
X152642500Y-88227135D01*
X152642500Y-88314547D01*
X152622815Y-88381586D01*
X152606181Y-88402228D01*
X152035075Y-88973333D01*
X151973752Y-89006818D01*
X151904060Y-89001834D01*
X151896958Y-88998931D01*
X151874333Y-88988857D01*
X151874327Y-88988855D01*
X151728526Y-88957865D01*
X151689171Y-88949500D01*
X151499879Y-88949500D01*
X151467422Y-88956398D01*
X151314722Y-88988855D01*
X151314717Y-88988857D01*
X151141795Y-89065848D01*
X151141790Y-89065851D01*
X150988654Y-89177111D01*
X150861991Y-89317785D01*
X150851886Y-89335287D01*
X150801318Y-89383501D01*
X150732711Y-89396723D01*
X150667847Y-89370754D01*
X150627319Y-89313840D01*
X150620500Y-89273285D01*
X150620500Y-87400452D01*
X150640185Y-87333413D01*
X150656819Y-87312771D01*
X152455819Y-85513771D01*
X152517142Y-85480286D01*
X152586834Y-85485270D01*
G37*
G04 #@! TD.AperFunction*
G04 #@! TA.AperFunction,Conductor*
G36*
X161773097Y-78895185D02*
G01*
X161818852Y-78947989D01*
X161828796Y-79017147D01*
X161799771Y-79080703D01*
X161761795Y-79109365D01*
X161761813Y-79109395D01*
X161761503Y-79109585D01*
X161758460Y-79111883D01*
X161755670Y-79113183D01*
X161606342Y-79205289D01*
X161482289Y-79329342D01*
X161390187Y-79478663D01*
X161390185Y-79478668D01*
X161372051Y-79533393D01*
X161335001Y-79645203D01*
X161335001Y-79645204D01*
X161335000Y-79645204D01*
X161324500Y-79747983D01*
X161324500Y-80412547D01*
X161304815Y-80479586D01*
X161288181Y-80500228D01*
X160170229Y-81618181D01*
X160108906Y-81651666D01*
X160082548Y-81654500D01*
X155014451Y-81654500D01*
X154947412Y-81634815D01*
X154901657Y-81582011D01*
X154891713Y-81512853D01*
X154920738Y-81449297D01*
X154926770Y-81442819D01*
X156119585Y-80250005D01*
X157457771Y-78911819D01*
X157519094Y-78878334D01*
X157545452Y-78875500D01*
X161706058Y-78875500D01*
X161773097Y-78895185D01*
G37*
G04 #@! TD.AperFunction*
G04 #@! TA.AperFunction,Conductor*
G36*
X186279001Y-75269685D02*
G01*
X186324756Y-75322489D01*
X186334700Y-75391647D01*
X186305675Y-75455203D01*
X186246897Y-75492977D01*
X186238618Y-75495101D01*
X186137461Y-75517367D01*
X185793210Y-75633359D01*
X185793205Y-75633360D01*
X185463535Y-75785883D01*
X185463522Y-75785890D01*
X185152282Y-75973156D01*
X185152266Y-75973167D01*
X184863075Y-76193002D01*
X184846888Y-76208335D01*
X184846887Y-76208335D01*
X186094301Y-77455748D01*
X185992670Y-77529588D01*
X185814588Y-77707670D01*
X185740748Y-77809300D01*
X184495970Y-76564522D01*
X184495969Y-76564523D01*
X184364177Y-76719680D01*
X184364170Y-76719690D01*
X184160318Y-77020348D01*
X184160316Y-77020352D01*
X183990161Y-77341297D01*
X183990152Y-77341315D01*
X183855697Y-77678772D01*
X183855695Y-77678779D01*
X183758519Y-78028777D01*
X183758517Y-78028785D01*
X183699746Y-78387271D01*
X183680080Y-78749997D01*
X183680080Y-78750002D01*
X183699746Y-79112728D01*
X183758517Y-79471214D01*
X183758519Y-79471222D01*
X183855695Y-79821220D01*
X183855697Y-79821227D01*
X183990152Y-80158684D01*
X183990161Y-80158702D01*
X184160316Y-80479647D01*
X184160318Y-80479651D01*
X184364170Y-80780309D01*
X184364177Y-80780319D01*
X184495969Y-80935475D01*
X184495970Y-80935475D01*
X185740748Y-79690698D01*
X185814588Y-79792330D01*
X185992670Y-79970412D01*
X186094300Y-80044251D01*
X184846888Y-81291662D01*
X184846888Y-81291664D01*
X184863070Y-81306992D01*
X184863071Y-81306993D01*
X185152266Y-81526832D01*
X185152282Y-81526843D01*
X185463522Y-81714109D01*
X185463535Y-81714116D01*
X185793205Y-81866639D01*
X185793210Y-81866640D01*
X186137461Y-81982632D01*
X186492235Y-82060724D01*
X186853366Y-82099999D01*
X186853374Y-82100000D01*
X187216626Y-82100000D01*
X187216633Y-82099999D01*
X187577764Y-82060724D01*
X187932538Y-81982632D01*
X188276789Y-81866640D01*
X188276794Y-81866639D01*
X188606464Y-81714116D01*
X188606477Y-81714109D01*
X188917717Y-81526843D01*
X188917733Y-81526832D01*
X189206929Y-81306992D01*
X189223110Y-81291664D01*
X189223110Y-81291663D01*
X187975698Y-80044251D01*
X188077330Y-79970412D01*
X188255412Y-79792330D01*
X188329251Y-79690698D01*
X189574028Y-80935475D01*
X189574029Y-80935475D01*
X189705827Y-80780311D01*
X189705838Y-80780297D01*
X189909681Y-80479651D01*
X189909683Y-80479647D01*
X190079838Y-80158702D01*
X190079847Y-80158684D01*
X190214302Y-79821227D01*
X190214304Y-79821220D01*
X190291519Y-79543115D01*
X190328420Y-79483785D01*
X190391540Y-79453824D01*
X190460838Y-79462745D01*
X190514312Y-79507714D01*
X190534985Y-79574456D01*
X190534999Y-79576288D01*
X190534999Y-110923708D01*
X190515314Y-110990747D01*
X190462510Y-111036502D01*
X190393352Y-111046446D01*
X190329796Y-111017421D01*
X190292022Y-110958643D01*
X190291519Y-110956881D01*
X190214304Y-110678779D01*
X190214302Y-110678772D01*
X190079847Y-110341315D01*
X190079838Y-110341297D01*
X189909683Y-110020352D01*
X189909681Y-110020348D01*
X189705829Y-109719690D01*
X189705822Y-109719680D01*
X189574029Y-109564523D01*
X189574028Y-109564523D01*
X188329251Y-110809300D01*
X188255412Y-110707670D01*
X188077330Y-110529588D01*
X187975698Y-110455748D01*
X189223110Y-109208336D01*
X189223110Y-109208334D01*
X189206929Y-109193007D01*
X189206928Y-109193006D01*
X188917733Y-108973167D01*
X188917717Y-108973156D01*
X188606477Y-108785890D01*
X188606464Y-108785883D01*
X188276794Y-108633360D01*
X188276789Y-108633359D01*
X187932538Y-108517367D01*
X187577764Y-108439275D01*
X187216633Y-108400000D01*
X186853366Y-108400000D01*
X186492235Y-108439275D01*
X186137461Y-108517367D01*
X185793210Y-108633359D01*
X185793205Y-108633360D01*
X185463535Y-108785883D01*
X185463522Y-108785890D01*
X185152282Y-108973156D01*
X185152266Y-108973167D01*
X184863075Y-109193002D01*
X184846888Y-109208335D01*
X184846887Y-109208335D01*
X186094301Y-110455748D01*
X185992670Y-110529588D01*
X185814588Y-110707670D01*
X185740748Y-110809300D01*
X184495970Y-109564522D01*
X184495969Y-109564523D01*
X184364177Y-109719680D01*
X184364170Y-109719690D01*
X184160318Y-110020348D01*
X184160316Y-110020352D01*
X183990161Y-110341297D01*
X183990152Y-110341315D01*
X183855697Y-110678772D01*
X183855695Y-110678779D01*
X183758519Y-111028777D01*
X183758517Y-111028785D01*
X183699746Y-111387271D01*
X183680080Y-111749997D01*
X183680080Y-111750002D01*
X183699746Y-112112728D01*
X183758517Y-112471214D01*
X183758519Y-112471222D01*
X183855695Y-112821220D01*
X183855697Y-112821227D01*
X183990152Y-113158684D01*
X183990161Y-113158702D01*
X184160316Y-113479647D01*
X184160318Y-113479651D01*
X184364170Y-113780309D01*
X184364177Y-113780319D01*
X184495969Y-113935475D01*
X184495970Y-113935475D01*
X185740748Y-112690698D01*
X185814588Y-112792330D01*
X185992670Y-112970412D01*
X186094300Y-113044251D01*
X184846888Y-114291662D01*
X184846888Y-114291664D01*
X184863070Y-114306992D01*
X184863071Y-114306993D01*
X185152266Y-114526832D01*
X185152282Y-114526843D01*
X185463522Y-114714109D01*
X185463535Y-114714116D01*
X185793205Y-114866639D01*
X185793210Y-114866640D01*
X186137461Y-114982632D01*
X186238614Y-115004898D01*
X186299855Y-115038534D01*
X186333189Y-115099939D01*
X186328033Y-115169618D01*
X186286024Y-115225449D01*
X186220500Y-115249704D01*
X186211958Y-115249999D01*
X116536440Y-115249999D01*
X116533603Y-115249967D01*
X116530960Y-115249906D01*
X116447504Y-115247996D01*
X116426151Y-115245645D01*
X116255946Y-115211789D01*
X116232685Y-115204733D01*
X116073674Y-115138869D01*
X116052235Y-115127410D01*
X115909125Y-115031787D01*
X115890335Y-115016366D01*
X115768633Y-114894664D01*
X115753212Y-114875874D01*
X115747041Y-114866639D01*
X115657588Y-114732763D01*
X115646130Y-114711325D01*
X115580266Y-114552314D01*
X115573210Y-114529053D01*
X115539353Y-114358844D01*
X115537003Y-114337494D01*
X115535954Y-114291664D01*
X115535033Y-114251397D01*
X115535001Y-114248560D01*
X115535001Y-107500006D01*
X118829700Y-107500006D01*
X118848864Y-107731297D01*
X118848866Y-107731308D01*
X118905842Y-107956300D01*
X118999075Y-108168848D01*
X119126016Y-108363147D01*
X119126019Y-108363151D01*
X119126021Y-108363153D01*
X119283216Y-108533913D01*
X119283219Y-108533915D01*
X119283222Y-108533918D01*
X119466365Y-108676464D01*
X119466371Y-108676468D01*
X119466374Y-108676470D01*
X119670497Y-108786936D01*
X119722206Y-108804687D01*
X119804273Y-108832862D01*
X119861288Y-108873248D01*
X119887419Y-108938047D01*
X119874367Y-109006687D01*
X119859629Y-109029092D01*
X119823815Y-109072467D01*
X119823813Y-109072469D01*
X119767162Y-109204764D01*
X119767161Y-109204767D01*
X119750073Y-109347673D01*
X119750074Y-109347675D01*
X119773939Y-109489599D01*
X119773940Y-109489603D01*
X119773941Y-109489604D01*
X119795221Y-109537708D01*
X119798198Y-109544436D01*
X120746064Y-111186188D01*
X120781423Y-111234615D01*
X120892404Y-111326249D01*
X120892406Y-111326251D01*
X121024701Y-111382902D01*
X121024704Y-111382903D01*
X121024707Y-111382904D01*
X121145152Y-111397305D01*
X121167610Y-111399991D01*
X121167610Y-111399990D01*
X121167611Y-111399991D01*
X121286737Y-111379958D01*
X121309536Y-111376125D01*
X121309536Y-111376124D01*
X121309541Y-111376124D01*
X121364369Y-111351869D01*
X123006132Y-110403996D01*
X123054552Y-110368641D01*
X123146187Y-110257660D01*
X123175419Y-110189397D01*
X123202839Y-110125363D01*
X123202840Y-110125360D01*
X123202839Y-110125360D01*
X123202841Y-110125358D01*
X123219928Y-109982454D01*
X123196061Y-109840524D01*
X123171806Y-109785696D01*
X123151200Y-109750005D01*
X134029859Y-109750005D01*
X134050385Y-109997729D01*
X134050387Y-109997738D01*
X134111412Y-110238717D01*
X134211266Y-110466364D01*
X134311564Y-110619882D01*
X135011212Y-109920234D01*
X135022482Y-109962292D01*
X135094890Y-110087708D01*
X135197292Y-110190110D01*
X135322708Y-110262518D01*
X135364765Y-110273787D01*
X134664942Y-110973609D01*
X134711768Y-111010055D01*
X134711770Y-111010056D01*
X134930385Y-111128364D01*
X134930396Y-111128369D01*
X135165506Y-111209083D01*
X135410707Y-111250000D01*
X135659293Y-111250000D01*
X135904493Y-111209083D01*
X136139603Y-111128369D01*
X136139614Y-111128364D01*
X136358228Y-111010057D01*
X136358231Y-111010055D01*
X136405056Y-110973609D01*
X135705234Y-110273787D01*
X135747292Y-110262518D01*
X135872708Y-110190110D01*
X135975110Y-110087708D01*
X136047518Y-109962292D01*
X136058787Y-109920235D01*
X136758434Y-110619882D01*
X136858731Y-110466369D01*
X136958587Y-110238717D01*
X137019612Y-109997738D01*
X137019614Y-109997729D01*
X137040141Y-109750005D01*
X140529859Y-109750005D01*
X140550385Y-109997729D01*
X140550387Y-109997738D01*
X140611412Y-110238717D01*
X140711266Y-110466364D01*
X140811564Y-110619882D01*
X141511212Y-109920234D01*
X141522482Y-109962292D01*
X141594890Y-110087708D01*
X141697292Y-110190110D01*
X141822708Y-110262518D01*
X141864765Y-110273787D01*
X141164942Y-110973609D01*
X141211768Y-111010055D01*
X141211770Y-111010056D01*
X141430385Y-111128364D01*
X141430396Y-111128369D01*
X141665506Y-111209083D01*
X141910707Y-111250000D01*
X142159293Y-111250000D01*
X142404493Y-111209083D01*
X142639603Y-111128369D01*
X142639614Y-111128364D01*
X142858228Y-111010057D01*
X142858231Y-111010055D01*
X142905056Y-110973609D01*
X142205234Y-110273787D01*
X142247292Y-110262518D01*
X142372708Y-110190110D01*
X142475110Y-110087708D01*
X142547518Y-109962292D01*
X142558787Y-109920235D01*
X143258434Y-110619882D01*
X143358731Y-110466369D01*
X143458587Y-110238717D01*
X143519612Y-109997738D01*
X143519614Y-109997729D01*
X143540141Y-109750005D01*
X143540141Y-109749994D01*
X143519614Y-109502270D01*
X143519612Y-109502261D01*
X143458587Y-109261282D01*
X143358731Y-109033630D01*
X143258434Y-108880116D01*
X142558787Y-109579764D01*
X142547518Y-109537708D01*
X142475110Y-109412292D01*
X142372708Y-109309890D01*
X142247292Y-109237482D01*
X142205235Y-109226212D01*
X142905057Y-108526390D01*
X142905056Y-108526389D01*
X142858229Y-108489943D01*
X142639614Y-108371635D01*
X142639603Y-108371630D01*
X142404493Y-108290916D01*
X142159293Y-108250000D01*
X141910707Y-108250000D01*
X141665506Y-108290916D01*
X141430396Y-108371630D01*
X141430390Y-108371632D01*
X141211761Y-108489949D01*
X141164942Y-108526388D01*
X141164942Y-108526390D01*
X141864765Y-109226212D01*
X141822708Y-109237482D01*
X141697292Y-109309890D01*
X141594890Y-109412292D01*
X141522482Y-109537708D01*
X141511212Y-109579764D01*
X140811564Y-108880116D01*
X140711267Y-109033632D01*
X140611412Y-109261282D01*
X140550387Y-109502261D01*
X140550385Y-109502270D01*
X140529859Y-109749994D01*
X140529859Y-109750005D01*
X137040141Y-109750005D01*
X137040141Y-109749994D01*
X137019614Y-109502270D01*
X137019612Y-109502261D01*
X136958587Y-109261282D01*
X136858731Y-109033630D01*
X136758434Y-108880116D01*
X136058787Y-109579764D01*
X136047518Y-109537708D01*
X135975110Y-109412292D01*
X135872708Y-109309890D01*
X135747292Y-109237482D01*
X135705235Y-109226212D01*
X136405057Y-108526390D01*
X136405056Y-108526389D01*
X136358229Y-108489943D01*
X136139614Y-108371635D01*
X136139603Y-108371630D01*
X135904493Y-108290916D01*
X135659293Y-108250000D01*
X135410707Y-108250000D01*
X135165506Y-108290916D01*
X134930396Y-108371630D01*
X134930390Y-108371632D01*
X134711761Y-108489949D01*
X134664942Y-108526388D01*
X134664942Y-108526390D01*
X135364765Y-109226212D01*
X135322708Y-109237482D01*
X135197292Y-109309890D01*
X135094890Y-109412292D01*
X135022482Y-109537708D01*
X135011212Y-109579764D01*
X134311564Y-108880116D01*
X134211267Y-109033632D01*
X134111412Y-109261282D01*
X134050387Y-109502261D01*
X134050385Y-109502270D01*
X134029859Y-109749994D01*
X134029859Y-109750005D01*
X123151200Y-109750005D01*
X122881594Y-109283034D01*
X122865121Y-109215134D01*
X122887974Y-109149107D01*
X122901287Y-109133366D01*
X123397857Y-108636799D01*
X123466311Y-108534351D01*
X123493523Y-108468656D01*
X123513463Y-108420517D01*
X123525481Y-108360094D01*
X123537500Y-108299672D01*
X123537500Y-108176459D01*
X123537500Y-108022016D01*
X123557185Y-107954977D01*
X123609989Y-107909222D01*
X123622488Y-107904313D01*
X123681334Y-107884814D01*
X123830656Y-107792712D01*
X123954712Y-107668656D01*
X124046814Y-107519334D01*
X124101999Y-107352797D01*
X124112500Y-107250009D01*
X124112499Y-106449992D01*
X124101999Y-106347203D01*
X124046814Y-106180666D01*
X123954712Y-106031344D01*
X123861049Y-105937681D01*
X123827564Y-105876358D01*
X123832548Y-105806666D01*
X123861049Y-105762319D01*
X123907370Y-105715998D01*
X123954712Y-105668656D01*
X124046814Y-105519334D01*
X124101999Y-105352797D01*
X124112500Y-105250009D01*
X124112500Y-105250005D01*
X134029357Y-105250005D01*
X134049890Y-105497812D01*
X134049892Y-105497824D01*
X134110936Y-105738881D01*
X134210826Y-105966606D01*
X134346833Y-106174782D01*
X134379245Y-106209991D01*
X134515256Y-106357738D01*
X134711491Y-106510474D01*
X134930190Y-106628828D01*
X135165386Y-106709571D01*
X135410665Y-106750500D01*
X135659335Y-106750500D01*
X135904614Y-106709571D01*
X136139810Y-106628828D01*
X136358509Y-106510474D01*
X136554744Y-106357738D01*
X136723164Y-106174785D01*
X136859173Y-105966607D01*
X136859175Y-105966603D01*
X136866595Y-105949689D01*
X136911551Y-105896203D01*
X136978287Y-105875514D01*
X136980150Y-105875500D01*
X140589850Y-105875500D01*
X140656889Y-105895185D01*
X140702644Y-105947989D01*
X140703405Y-105949689D01*
X140710824Y-105966603D01*
X140846833Y-106174782D01*
X140879245Y-106209991D01*
X141015256Y-106357738D01*
X141211491Y-106510474D01*
X141430190Y-106628828D01*
X141665386Y-106709571D01*
X141910665Y-106750500D01*
X142159335Y-106750500D01*
X142404614Y-106709571D01*
X142606372Y-106640306D01*
X142676170Y-106637157D01*
X142734316Y-106669907D01*
X143798181Y-107733772D01*
X143831666Y-107795095D01*
X143834500Y-107821452D01*
X143834500Y-108050000D01*
X143834501Y-108050019D01*
X143845000Y-108152796D01*
X143845001Y-108152799D01*
X143877211Y-108250000D01*
X143900186Y-108319334D01*
X143992288Y-108468656D01*
X144116344Y-108592712D01*
X144265666Y-108684814D01*
X144432203Y-108739999D01*
X144534991Y-108750500D01*
X145535008Y-108750499D01*
X145535016Y-108750498D01*
X145535019Y-108750498D01*
X145591302Y-108744748D01*
X145637797Y-108739999D01*
X145804334Y-108684814D01*
X145953656Y-108592712D01*
X146077712Y-108468656D01*
X146169814Y-108319334D01*
X146224999Y-108152797D01*
X146235500Y-108050009D01*
X146235499Y-107249992D01*
X146224999Y-107147203D01*
X146169814Y-106980666D01*
X146077712Y-106831344D01*
X145984049Y-106737681D01*
X145950564Y-106676358D01*
X145955548Y-106606666D01*
X145984049Y-106562319D01*
X146077712Y-106468656D01*
X146169814Y-106319334D01*
X146224999Y-106152797D01*
X146235500Y-106050009D01*
X146235499Y-105692806D01*
X146255183Y-105625769D01*
X146307987Y-105580014D01*
X146377146Y-105570070D01*
X146424596Y-105587270D01*
X146526869Y-105650353D01*
X146526880Y-105650358D01*
X146693302Y-105705505D01*
X146693309Y-105705506D01*
X146796019Y-105715999D01*
X147045999Y-105715999D01*
X147046000Y-105715998D01*
X147046000Y-104515000D01*
X147065685Y-104447961D01*
X147118489Y-104402206D01*
X147170000Y-104391000D01*
X147422000Y-104391000D01*
X147489039Y-104410685D01*
X147534794Y-104463489D01*
X147546000Y-104515000D01*
X147546000Y-105715999D01*
X147795972Y-105715999D01*
X147795986Y-105715998D01*
X147898697Y-105705505D01*
X148065119Y-105650358D01*
X148065126Y-105650355D01*
X148182925Y-105577695D01*
X148250318Y-105559254D01*
X148313117Y-105577693D01*
X148431666Y-105650814D01*
X148598203Y-105705999D01*
X148700991Y-105716500D01*
X149701008Y-105716499D01*
X149701016Y-105716498D01*
X149701019Y-105716498D01*
X149757302Y-105710748D01*
X149803797Y-105705999D01*
X149970334Y-105650814D01*
X150088882Y-105577692D01*
X150156271Y-105559254D01*
X150219073Y-105577695D01*
X150336869Y-105650353D01*
X150336880Y-105650358D01*
X150503302Y-105705505D01*
X150503309Y-105705506D01*
X150606019Y-105715999D01*
X150855999Y-105715999D01*
X150856000Y-105715998D01*
X150856000Y-104515000D01*
X150875685Y-104447961D01*
X150928489Y-104402206D01*
X150980000Y-104391000D01*
X151232000Y-104391000D01*
X151299039Y-104410685D01*
X151344794Y-104463489D01*
X151356000Y-104515000D01*
X151356000Y-105715999D01*
X151605972Y-105715999D01*
X151605986Y-105715998D01*
X151708697Y-105705505D01*
X151875119Y-105650358D01*
X151875126Y-105650355D01*
X151992925Y-105577695D01*
X152060318Y-105559254D01*
X152123117Y-105577693D01*
X152241666Y-105650814D01*
X152408203Y-105705999D01*
X152510991Y-105716500D01*
X153511008Y-105716499D01*
X153511016Y-105716498D01*
X153511019Y-105716498D01*
X153567302Y-105710748D01*
X153613797Y-105705999D01*
X153780334Y-105650814D01*
X153898882Y-105577692D01*
X153966271Y-105559254D01*
X154029073Y-105577695D01*
X154146869Y-105650353D01*
X154146880Y-105650358D01*
X154313302Y-105705505D01*
X154313309Y-105705506D01*
X154416019Y-105715999D01*
X154665999Y-105715999D01*
X154666000Y-105715998D01*
X154666000Y-104515000D01*
X154685685Y-104447961D01*
X154738489Y-104402206D01*
X154790000Y-104391000D01*
X155042000Y-104391000D01*
X155109039Y-104410685D01*
X155154794Y-104463489D01*
X155166000Y-104515000D01*
X155166000Y-105715999D01*
X155415972Y-105715999D01*
X155415986Y-105715998D01*
X155518697Y-105705505D01*
X155685119Y-105650358D01*
X155685126Y-105650355D01*
X155802925Y-105577695D01*
X155870318Y-105559254D01*
X155933117Y-105577693D01*
X156051666Y-105650814D01*
X156218203Y-105705999D01*
X156320991Y-105716500D01*
X157321008Y-105716499D01*
X157321016Y-105716498D01*
X157321019Y-105716498D01*
X157377302Y-105710748D01*
X157423797Y-105705999D01*
X157590334Y-105650814D01*
X157739656Y-105558712D01*
X157863712Y-105434656D01*
X157955814Y-105285334D01*
X158010999Y-105118797D01*
X158021500Y-105016009D01*
X158021499Y-104215992D01*
X158017890Y-104180666D01*
X158010999Y-104113203D01*
X158010998Y-104113200D01*
X157995307Y-104065848D01*
X157955814Y-103946666D01*
X157863712Y-103797344D01*
X157770049Y-103703681D01*
X157736564Y-103642358D01*
X157741548Y-103572666D01*
X157770049Y-103528319D01*
X157798500Y-103499868D01*
X157863712Y-103434656D01*
X157955814Y-103285334D01*
X158010999Y-103118797D01*
X158021500Y-103016009D01*
X158021499Y-102215992D01*
X158010999Y-102113203D01*
X157955814Y-101946666D01*
X157863712Y-101797344D01*
X157739656Y-101673288D01*
X157590334Y-101581186D01*
X157423797Y-101526001D01*
X157423795Y-101526000D01*
X157321016Y-101515500D01*
X157321009Y-101515500D01*
X156656452Y-101515500D01*
X156589413Y-101495815D01*
X156568771Y-101479181D01*
X155898198Y-100808608D01*
X155898178Y-100808586D01*
X155806733Y-100717141D01*
X155755509Y-100682915D01*
X155704287Y-100648689D01*
X155704286Y-100648688D01*
X155704283Y-100648686D01*
X155704280Y-100648685D01*
X155623792Y-100615347D01*
X155610299Y-100609758D01*
X155555896Y-100565917D01*
X155533831Y-100499623D01*
X155541569Y-100451866D01*
X155564091Y-100391483D01*
X155570500Y-100331873D01*
X155570500Y-100233500D01*
X155590185Y-100166461D01*
X155642989Y-100120706D01*
X155694500Y-100109500D01*
X163031607Y-100109500D01*
X163092029Y-100097481D01*
X163152452Y-100085463D01*
X163202496Y-100064734D01*
X163266286Y-100038312D01*
X163317509Y-100004084D01*
X163324442Y-99999452D01*
X163330271Y-99995556D01*
X163368733Y-99969858D01*
X163455858Y-99882733D01*
X163455858Y-99882731D01*
X163466066Y-99872524D01*
X163466068Y-99872521D01*
X164192771Y-99145818D01*
X164254094Y-99112333D01*
X164280452Y-99109499D01*
X165592871Y-99109499D01*
X165592872Y-99109499D01*
X165652483Y-99103091D01*
X165787331Y-99052796D01*
X165902546Y-98966546D01*
X165988796Y-98851331D01*
X166039091Y-98716483D01*
X166045500Y-98656873D01*
X166045499Y-96861128D01*
X166039091Y-96801517D01*
X166033530Y-96786608D01*
X165988797Y-96666671D01*
X165988793Y-96666664D01*
X165902547Y-96551455D01*
X165902544Y-96551452D01*
X165787335Y-96465206D01*
X165787328Y-96465202D01*
X165655917Y-96416189D01*
X165599983Y-96374318D01*
X165575566Y-96308853D01*
X165590418Y-96240580D01*
X165611563Y-96212332D01*
X165733495Y-96090401D01*
X165869035Y-95896830D01*
X165968903Y-95682663D01*
X166030063Y-95454408D01*
X166050659Y-95219000D01*
X166030063Y-94983592D01*
X165983415Y-94809499D01*
X165968905Y-94755344D01*
X165968904Y-94755343D01*
X165968903Y-94755337D01*
X165869035Y-94541171D01*
X165863425Y-94533158D01*
X165733494Y-94347597D01*
X165566402Y-94180506D01*
X165566396Y-94180501D01*
X165380842Y-94050575D01*
X165337217Y-93995998D01*
X165330023Y-93926500D01*
X165361546Y-93864145D01*
X165380842Y-93847425D01*
X165473970Y-93782216D01*
X165566401Y-93717495D01*
X165733495Y-93550401D01*
X165869035Y-93356830D01*
X165968903Y-93142663D01*
X166030063Y-92914408D01*
X166050659Y-92679000D01*
X166030063Y-92443592D01*
X165968903Y-92215337D01*
X165869035Y-92001171D01*
X165863731Y-91993595D01*
X165733494Y-91807597D01*
X165566402Y-91640506D01*
X165566401Y-91640505D01*
X165412387Y-91532663D01*
X165373376Y-91505347D01*
X165329751Y-91450770D01*
X165320500Y-91403772D01*
X165320500Y-90917230D01*
X165340185Y-90850191D01*
X165356819Y-90829549D01*
X165367712Y-90818656D01*
X165459814Y-90669334D01*
X165514999Y-90502797D01*
X165525500Y-90400009D01*
X165525499Y-89399992D01*
X165523814Y-89383501D01*
X165514999Y-89297203D01*
X165514998Y-89297200D01*
X165491773Y-89227112D01*
X165459814Y-89130666D01*
X165367712Y-88981344D01*
X165360245Y-88973877D01*
X165326760Y-88912554D01*
X165324607Y-88899174D01*
X165320674Y-88861744D01*
X165262179Y-88681716D01*
X165167533Y-88517784D01*
X165040871Y-88377112D01*
X165030460Y-88369548D01*
X164887734Y-88265851D01*
X164887729Y-88265848D01*
X164714807Y-88188857D01*
X164714802Y-88188855D01*
X164569001Y-88157865D01*
X164529646Y-88149500D01*
X164340354Y-88149500D01*
X164307897Y-88156398D01*
X164155197Y-88188855D01*
X164155192Y-88188857D01*
X163982270Y-88265848D01*
X163982265Y-88265851D01*
X163829129Y-88377111D01*
X163702466Y-88517785D01*
X163607821Y-88681715D01*
X163607818Y-88681722D01*
X163549325Y-88861744D01*
X163547851Y-88875769D01*
X163521263Y-88940383D01*
X163463964Y-88980364D01*
X163394144Y-88983020D01*
X163336850Y-88950482D01*
X163243657Y-88857289D01*
X163243656Y-88857288D01*
X163094334Y-88765186D01*
X162927797Y-88710001D01*
X162927795Y-88710000D01*
X162825010Y-88699500D01*
X162024998Y-88699500D01*
X162024980Y-88699501D01*
X161922203Y-88710000D01*
X161922200Y-88710001D01*
X161755668Y-88765185D01*
X161755663Y-88765187D01*
X161606345Y-88857287D01*
X161482283Y-88981348D01*
X161478614Y-88985989D01*
X161421592Y-89026365D01*
X161407132Y-89030367D01*
X161367194Y-89038856D01*
X161367192Y-89038857D01*
X161194270Y-89115848D01*
X161194265Y-89115851D01*
X161041129Y-89227111D01*
X160914466Y-89367785D01*
X160819821Y-89531715D01*
X160819818Y-89531722D01*
X160794998Y-89608112D01*
X160761326Y-89711744D01*
X160741540Y-89900000D01*
X160761326Y-90088256D01*
X160761327Y-90088259D01*
X160819818Y-90268277D01*
X160819821Y-90268284D01*
X160914467Y-90432216D01*
X160978017Y-90502795D01*
X161041129Y-90572888D01*
X161194265Y-90684148D01*
X161194270Y-90684151D01*
X161367191Y-90761142D01*
X161367193Y-90761142D01*
X161367197Y-90761144D01*
X161407130Y-90769631D01*
X161468609Y-90802822D01*
X161478612Y-90814008D01*
X161482285Y-90818653D01*
X161482288Y-90818656D01*
X161606344Y-90942712D01*
X161755666Y-91034814D01*
X161922203Y-91089999D01*
X161961655Y-91094029D01*
X162026346Y-91120424D01*
X162066498Y-91177604D01*
X162069362Y-91247415D01*
X162034029Y-91307693D01*
X161971716Y-91339298D01*
X161959862Y-91340915D01*
X161919683Y-91344430D01*
X161919673Y-91344432D01*
X161691516Y-91405566D01*
X161691507Y-91405570D01*
X161477422Y-91505399D01*
X161477420Y-91505400D01*
X161283926Y-91640886D01*
X161283920Y-91640891D01*
X161116891Y-91807920D01*
X161116886Y-91807926D01*
X160981400Y-92001420D01*
X160981399Y-92001422D01*
X160881570Y-92215507D01*
X160881566Y-92215516D01*
X160820432Y-92443673D01*
X160820430Y-92443683D01*
X160816402Y-92489730D01*
X160790949Y-92554798D01*
X160734358Y-92595777D01*
X160664596Y-92599655D01*
X160605193Y-92566603D01*
X160592818Y-92554228D01*
X160559333Y-92492905D01*
X160556499Y-92466547D01*
X160556499Y-91801998D01*
X160556498Y-91801981D01*
X160545999Y-91699203D01*
X160545998Y-91699200D01*
X160529828Y-91650403D01*
X160490814Y-91532666D01*
X160398712Y-91383344D01*
X160274656Y-91259288D01*
X160174637Y-91197596D01*
X160125336Y-91167187D01*
X160125331Y-91167185D01*
X160123862Y-91166698D01*
X159958797Y-91112001D01*
X159958795Y-91112000D01*
X159856010Y-91101500D01*
X158855998Y-91101500D01*
X158855980Y-91101501D01*
X158753203Y-91112000D01*
X158753200Y-91112001D01*
X158586668Y-91167185D01*
X158586663Y-91167187D01*
X158437342Y-91259289D01*
X158313289Y-91383342D01*
X158221187Y-91532663D01*
X158221185Y-91532668D01*
X158214619Y-91552483D01*
X158166001Y-91699203D01*
X158166001Y-91699204D01*
X158166000Y-91699204D01*
X158155500Y-91801983D01*
X158155500Y-92466546D01*
X158135815Y-92533585D01*
X158119181Y-92554227D01*
X157749809Y-92923599D01*
X157688486Y-92957084D01*
X157618794Y-92952100D01*
X157562861Y-92910228D01*
X157538837Y-92849160D01*
X157538631Y-92847242D01*
X157538632Y-92820745D01*
X157539089Y-92816486D01*
X157539091Y-92816483D01*
X157545500Y-92756873D01*
X157545499Y-92111128D01*
X157539091Y-92051517D01*
X157538149Y-92048992D01*
X157488797Y-91916671D01*
X157488793Y-91916664D01*
X157402547Y-91801455D01*
X157402544Y-91801452D01*
X157287335Y-91715206D01*
X157287328Y-91715202D01*
X157152482Y-91664908D01*
X157152483Y-91664908D01*
X157092883Y-91658501D01*
X157092881Y-91658500D01*
X157092873Y-91658500D01*
X157092865Y-91658500D01*
X156994500Y-91658500D01*
X156927461Y-91638815D01*
X156881706Y-91586011D01*
X156870500Y-91534500D01*
X156870500Y-90598391D01*
X156865624Y-90573883D01*
X156865624Y-90573876D01*
X156865623Y-90573877D01*
X156851220Y-90501463D01*
X156851220Y-90501462D01*
X156846464Y-90477553D01*
X156846463Y-90477552D01*
X156846463Y-90477548D01*
X156799311Y-90363714D01*
X156799310Y-90363713D01*
X156799307Y-90363707D01*
X156730858Y-90261267D01*
X156730855Y-90261263D01*
X156640637Y-90171045D01*
X156640606Y-90171016D01*
X156106770Y-89637180D01*
X156073285Y-89575857D01*
X156078269Y-89506165D01*
X156120141Y-89450232D01*
X156185605Y-89425815D01*
X156194430Y-89425499D01*
X156490872Y-89425499D01*
X156490885Y-89425498D01*
X156529744Y-89421320D01*
X156556252Y-89421320D01*
X156595127Y-89425500D01*
X156990872Y-89425499D01*
X157050483Y-89419091D01*
X157185331Y-89368796D01*
X157300546Y-89282546D01*
X157386796Y-89167331D01*
X157437091Y-89032483D01*
X157443500Y-88972873D01*
X157443499Y-88227128D01*
X157437091Y-88167517D01*
X157400096Y-88068330D01*
X157395113Y-87998642D01*
X157400092Y-87981680D01*
X157437091Y-87882483D01*
X157443500Y-87822873D01*
X157443499Y-87077128D01*
X157437091Y-87017517D01*
X157436579Y-87012753D01*
X157448986Y-86943994D01*
X157496597Y-86892857D01*
X157559869Y-86875500D01*
X164031548Y-86875500D01*
X164098587Y-86895185D01*
X164119229Y-86911819D01*
X166959181Y-89751771D01*
X166992666Y-89813094D01*
X166995500Y-89839452D01*
X166995500Y-90751870D01*
X166995501Y-90751876D01*
X167001908Y-90811483D01*
X167052202Y-90946328D01*
X167052206Y-90946335D01*
X167138452Y-91061544D01*
X167138455Y-91061547D01*
X167253664Y-91147793D01*
X167253671Y-91147797D01*
X167388517Y-91198091D01*
X167388516Y-91198091D01*
X167395444Y-91198835D01*
X167448127Y-91204500D01*
X168551548Y-91204499D01*
X168618587Y-91224184D01*
X168664342Y-91276987D01*
X168674286Y-91346146D01*
X168645261Y-91409702D01*
X168639229Y-91416180D01*
X168448228Y-91607181D01*
X168386905Y-91640666D01*
X168360547Y-91643500D01*
X167448129Y-91643500D01*
X167448123Y-91643501D01*
X167388516Y-91649908D01*
X167253671Y-91700202D01*
X167253664Y-91700206D01*
X167138455Y-91786452D01*
X167138452Y-91786455D01*
X167052206Y-91901664D01*
X167052202Y-91901671D01*
X167001908Y-92036517D01*
X166995501Y-92096116D01*
X166995500Y-92096135D01*
X166995500Y-93291870D01*
X166995501Y-93291876D01*
X167001908Y-93351483D01*
X167052202Y-93486328D01*
X167052206Y-93486335D01*
X167138452Y-93601544D01*
X167138455Y-93601547D01*
X167253664Y-93687793D01*
X167253671Y-93687797D01*
X167388517Y-93738091D01*
X167388516Y-93738091D01*
X167395444Y-93738835D01*
X167448127Y-93744500D01*
X168551547Y-93744499D01*
X168618586Y-93764184D01*
X168664341Y-93816987D01*
X168674285Y-93886146D01*
X168645260Y-93949702D01*
X168639228Y-93956180D01*
X168448227Y-94147181D01*
X168386904Y-94180666D01*
X168360546Y-94183500D01*
X167448129Y-94183500D01*
X167448123Y-94183501D01*
X167388516Y-94189908D01*
X167253671Y-94240202D01*
X167253664Y-94240206D01*
X167138455Y-94326452D01*
X167138452Y-94326455D01*
X167052206Y-94441664D01*
X167052202Y-94441671D01*
X167001908Y-94576517D01*
X166995501Y-94636116D01*
X166995500Y-94636135D01*
X166995500Y-95831870D01*
X166995501Y-95831876D01*
X167001908Y-95891483D01*
X167052202Y-96026328D01*
X167052206Y-96026335D01*
X167138452Y-96141544D01*
X167138455Y-96141547D01*
X167253664Y-96227793D01*
X167253671Y-96227797D01*
X167388517Y-96278091D01*
X167388516Y-96278091D01*
X167395444Y-96278835D01*
X167448127Y-96284500D01*
X168551547Y-96284499D01*
X168618586Y-96304184D01*
X168664341Y-96356987D01*
X168674285Y-96426146D01*
X168645260Y-96489702D01*
X168639228Y-96496180D01*
X168448227Y-96687181D01*
X168386904Y-96720666D01*
X168360546Y-96723500D01*
X167448129Y-96723500D01*
X167448123Y-96723501D01*
X167388516Y-96729908D01*
X167253671Y-96780202D01*
X167253664Y-96780206D01*
X167138455Y-96866452D01*
X167138452Y-96866455D01*
X167052206Y-96981664D01*
X167052202Y-96981671D01*
X167001908Y-97116517D01*
X166995501Y-97176116D01*
X166995500Y-97176135D01*
X166995500Y-98371870D01*
X166995501Y-98371876D01*
X167001908Y-98431483D01*
X167052202Y-98566328D01*
X167052206Y-98566335D01*
X167138452Y-98681544D01*
X167138455Y-98681547D01*
X167253664Y-98767793D01*
X167253671Y-98767797D01*
X167388517Y-98818091D01*
X167388516Y-98818091D01*
X167395444Y-98818835D01*
X167448127Y-98824500D01*
X168551547Y-98824499D01*
X168618586Y-98844184D01*
X168664341Y-98896987D01*
X168674285Y-98966146D01*
X168645260Y-99029702D01*
X168639228Y-99036180D01*
X168448227Y-99227181D01*
X168386904Y-99260666D01*
X168360546Y-99263500D01*
X167448129Y-99263500D01*
X167448123Y-99263501D01*
X167388516Y-99269908D01*
X167253671Y-99320202D01*
X167253664Y-99320206D01*
X167138455Y-99406452D01*
X167138452Y-99406455D01*
X167052206Y-99521664D01*
X167052202Y-99521671D01*
X167001908Y-99656517D01*
X166995501Y-99716116D01*
X166995500Y-99716135D01*
X166995500Y-100911870D01*
X166995501Y-100911876D01*
X167001908Y-100971483D01*
X167052202Y-101106328D01*
X167052206Y-101106335D01*
X167138452Y-101221544D01*
X167138455Y-101221547D01*
X167253664Y-101307793D01*
X167253671Y-101307797D01*
X167388517Y-101358091D01*
X167388516Y-101358091D01*
X167395444Y-101358835D01*
X167448127Y-101364500D01*
X169043872Y-101364499D01*
X169103483Y-101358091D01*
X169238331Y-101307796D01*
X169353546Y-101221546D01*
X169439796Y-101106331D01*
X169490091Y-100971483D01*
X169496500Y-100911873D01*
X169496500Y-100564000D01*
X175896000Y-100564000D01*
X175896000Y-100911844D01*
X175902401Y-100971372D01*
X175902403Y-100971379D01*
X175952645Y-101106086D01*
X175952649Y-101106093D01*
X176038809Y-101221187D01*
X176038812Y-101221190D01*
X176153906Y-101307350D01*
X176153913Y-101307354D01*
X176288620Y-101357596D01*
X176288627Y-101357598D01*
X176348155Y-101363999D01*
X176348172Y-101364000D01*
X176896000Y-101364000D01*
X176896000Y-100564000D01*
X177396000Y-100564000D01*
X177396000Y-101364000D01*
X177943828Y-101364000D01*
X177943844Y-101363999D01*
X178003372Y-101357598D01*
X178003379Y-101357596D01*
X178138086Y-101307354D01*
X178138093Y-101307350D01*
X178253187Y-101221190D01*
X178253190Y-101221187D01*
X178339350Y-101106093D01*
X178339354Y-101106086D01*
X178389596Y-100971379D01*
X178389598Y-100971372D01*
X178395999Y-100911844D01*
X178396000Y-100911827D01*
X178396000Y-100564000D01*
X177396000Y-100564000D01*
X176896000Y-100564000D01*
X175896000Y-100564000D01*
X169496500Y-100564000D01*
X169496499Y-100064000D01*
X175896000Y-100064000D01*
X176896000Y-100064000D01*
X176896000Y-99264000D01*
X177396000Y-99264000D01*
X177396000Y-100064000D01*
X178396000Y-100064000D01*
X178396000Y-99716172D01*
X178395999Y-99716155D01*
X178389598Y-99656627D01*
X178389596Y-99656620D01*
X178339354Y-99521913D01*
X178339350Y-99521906D01*
X178253190Y-99406812D01*
X178253187Y-99406809D01*
X178138093Y-99320649D01*
X178138086Y-99320645D01*
X178003379Y-99270403D01*
X178003372Y-99270401D01*
X177943844Y-99264000D01*
X177396000Y-99264000D01*
X176896000Y-99264000D01*
X176348155Y-99264000D01*
X176288627Y-99270401D01*
X176288620Y-99270403D01*
X176153913Y-99320645D01*
X176153906Y-99320649D01*
X176038812Y-99406809D01*
X176038809Y-99406812D01*
X175952649Y-99521906D01*
X175952645Y-99521913D01*
X175902403Y-99656620D01*
X175902401Y-99656627D01*
X175896000Y-99716155D01*
X175896000Y-100064000D01*
X169496499Y-100064000D01*
X169496499Y-99999451D01*
X169516183Y-99932413D01*
X169532813Y-99911776D01*
X171420591Y-98024000D01*
X175896000Y-98024000D01*
X175896000Y-98371844D01*
X175902401Y-98431372D01*
X175902403Y-98431379D01*
X175952645Y-98566086D01*
X175952649Y-98566093D01*
X176038809Y-98681187D01*
X176038812Y-98681190D01*
X176153906Y-98767350D01*
X176153913Y-98767354D01*
X176288620Y-98817596D01*
X176288627Y-98817598D01*
X176348155Y-98823999D01*
X176348172Y-98824000D01*
X176896000Y-98824000D01*
X176896000Y-98024000D01*
X177396000Y-98024000D01*
X177396000Y-98824000D01*
X177943828Y-98824000D01*
X177943844Y-98823999D01*
X178003372Y-98817598D01*
X178003379Y-98817596D01*
X178138086Y-98767354D01*
X178138093Y-98767350D01*
X178253187Y-98681190D01*
X178253190Y-98681187D01*
X178339350Y-98566093D01*
X178339354Y-98566086D01*
X178389596Y-98431379D01*
X178389598Y-98431372D01*
X178395999Y-98371844D01*
X178396000Y-98371827D01*
X178396000Y-98024000D01*
X177396000Y-98024000D01*
X176896000Y-98024000D01*
X175896000Y-98024000D01*
X171420591Y-98024000D01*
X171920591Y-97524000D01*
X175896000Y-97524000D01*
X176896000Y-97524000D01*
X176896000Y-96724000D01*
X177396000Y-96724000D01*
X177396000Y-97524000D01*
X178396000Y-97524000D01*
X178396000Y-97176172D01*
X178395999Y-97176155D01*
X178389598Y-97116627D01*
X178389596Y-97116620D01*
X178339354Y-96981913D01*
X178339350Y-96981906D01*
X178253190Y-96866812D01*
X178253187Y-96866809D01*
X178138093Y-96780649D01*
X178138086Y-96780645D01*
X178003379Y-96730403D01*
X178003372Y-96730401D01*
X177943844Y-96724000D01*
X177396000Y-96724000D01*
X176896000Y-96724000D01*
X176348155Y-96724000D01*
X176288627Y-96730401D01*
X176288620Y-96730403D01*
X176153913Y-96780645D01*
X176153906Y-96780649D01*
X176038812Y-96866809D01*
X176038809Y-96866812D01*
X175952649Y-96981906D01*
X175952645Y-96981913D01*
X175902403Y-97116620D01*
X175902401Y-97116627D01*
X175896000Y-97176155D01*
X175896000Y-97524000D01*
X171920591Y-97524000D01*
X172320857Y-97123734D01*
X172325680Y-97116517D01*
X172389311Y-97021286D01*
X172436463Y-96907452D01*
X172448398Y-96847451D01*
X172460500Y-96786607D01*
X172460500Y-96663394D01*
X172460500Y-95484000D01*
X175896000Y-95484000D01*
X175896000Y-95831844D01*
X175902401Y-95891372D01*
X175902403Y-95891379D01*
X175952645Y-96026086D01*
X175952649Y-96026093D01*
X176038809Y-96141187D01*
X176038812Y-96141190D01*
X176153906Y-96227350D01*
X176153913Y-96227354D01*
X176288620Y-96277596D01*
X176288627Y-96277598D01*
X176348155Y-96283999D01*
X176348172Y-96284000D01*
X176896000Y-96284000D01*
X176896000Y-95484000D01*
X177396000Y-95484000D01*
X177396000Y-96284000D01*
X177943828Y-96284000D01*
X177943844Y-96283999D01*
X178003372Y-96277598D01*
X178003379Y-96277596D01*
X178138086Y-96227354D01*
X178138093Y-96227350D01*
X178253187Y-96141190D01*
X178253190Y-96141187D01*
X178339350Y-96026093D01*
X178339354Y-96026086D01*
X178389596Y-95891379D01*
X178389598Y-95891372D01*
X178395999Y-95831844D01*
X178396000Y-95831827D01*
X178396000Y-95484000D01*
X177396000Y-95484000D01*
X176896000Y-95484000D01*
X175896000Y-95484000D01*
X172460500Y-95484000D01*
X172460500Y-94984000D01*
X175896000Y-94984000D01*
X176896000Y-94984000D01*
X176896000Y-94184000D01*
X177396000Y-94184000D01*
X177396000Y-94984000D01*
X178396000Y-94984000D01*
X178396000Y-94636172D01*
X178395999Y-94636155D01*
X178389598Y-94576627D01*
X178389596Y-94576620D01*
X178339354Y-94441913D01*
X178339350Y-94441906D01*
X178253190Y-94326812D01*
X178253187Y-94326809D01*
X178138093Y-94240649D01*
X178138086Y-94240645D01*
X178003379Y-94190403D01*
X178003372Y-94190401D01*
X177943844Y-94184000D01*
X177396000Y-94184000D01*
X176896000Y-94184000D01*
X176348155Y-94184000D01*
X176288627Y-94190401D01*
X176288620Y-94190403D01*
X176153913Y-94240645D01*
X176153906Y-94240649D01*
X176038812Y-94326809D01*
X176038809Y-94326812D01*
X175952649Y-94441906D01*
X175952645Y-94441913D01*
X175902403Y-94576620D01*
X175902401Y-94576627D01*
X175896000Y-94636155D01*
X175896000Y-94984000D01*
X172460500Y-94984000D01*
X172460500Y-92944000D01*
X175896000Y-92944000D01*
X175896000Y-93291844D01*
X175902401Y-93351372D01*
X175902403Y-93351379D01*
X175952645Y-93486086D01*
X175952649Y-93486093D01*
X176038809Y-93601187D01*
X176038812Y-93601190D01*
X176153906Y-93687350D01*
X176153913Y-93687354D01*
X176288620Y-93737596D01*
X176288627Y-93737598D01*
X176348155Y-93743999D01*
X176348172Y-93744000D01*
X176896000Y-93744000D01*
X176896000Y-92944000D01*
X177396000Y-92944000D01*
X177396000Y-93744000D01*
X177943828Y-93744000D01*
X177943844Y-93743999D01*
X178003372Y-93737598D01*
X178003379Y-93737596D01*
X178138086Y-93687354D01*
X178138093Y-93687350D01*
X178253187Y-93601190D01*
X178253190Y-93601187D01*
X178339350Y-93486093D01*
X178339354Y-93486086D01*
X178389596Y-93351379D01*
X178389598Y-93351372D01*
X178395999Y-93291844D01*
X178396000Y-93291827D01*
X178396000Y-92944000D01*
X177396000Y-92944000D01*
X176896000Y-92944000D01*
X175896000Y-92944000D01*
X172460500Y-92944000D01*
X172460500Y-92444000D01*
X175896000Y-92444000D01*
X176896000Y-92444000D01*
X176896000Y-91644000D01*
X177396000Y-91644000D01*
X177396000Y-92444000D01*
X178396000Y-92444000D01*
X178396000Y-92096172D01*
X178395999Y-92096155D01*
X178389598Y-92036627D01*
X178389596Y-92036620D01*
X178339354Y-91901913D01*
X178339350Y-91901906D01*
X178253190Y-91786812D01*
X178253187Y-91786809D01*
X178138093Y-91700649D01*
X178138086Y-91700645D01*
X178003379Y-91650403D01*
X178003372Y-91650401D01*
X177943844Y-91644000D01*
X177396000Y-91644000D01*
X176896000Y-91644000D01*
X176348155Y-91644000D01*
X176288627Y-91650401D01*
X176288620Y-91650403D01*
X176153913Y-91700645D01*
X176153906Y-91700649D01*
X176038812Y-91786809D01*
X176038809Y-91786812D01*
X175952649Y-91901906D01*
X175952645Y-91901913D01*
X175902403Y-92036620D01*
X175902401Y-92036627D01*
X175896000Y-92096155D01*
X175896000Y-92444000D01*
X172460500Y-92444000D01*
X172460500Y-90404000D01*
X175896000Y-90404000D01*
X175896000Y-90751844D01*
X175902401Y-90811372D01*
X175902403Y-90811379D01*
X175952645Y-90946086D01*
X175952649Y-90946093D01*
X176038809Y-91061187D01*
X176038812Y-91061190D01*
X176153906Y-91147350D01*
X176153913Y-91147354D01*
X176288620Y-91197596D01*
X176288627Y-91197598D01*
X176348155Y-91203999D01*
X176348172Y-91204000D01*
X176896000Y-91204000D01*
X176896000Y-90404000D01*
X177396000Y-90404000D01*
X177396000Y-91204000D01*
X177943828Y-91204000D01*
X177943844Y-91203999D01*
X178003372Y-91197598D01*
X178003379Y-91197596D01*
X178138086Y-91147354D01*
X178138093Y-91147350D01*
X178253187Y-91061190D01*
X178253190Y-91061187D01*
X178339350Y-90946093D01*
X178339354Y-90946086D01*
X178389596Y-90811379D01*
X178389598Y-90811372D01*
X178395999Y-90751844D01*
X178396000Y-90751827D01*
X178396000Y-90404000D01*
X177396000Y-90404000D01*
X176896000Y-90404000D01*
X175896000Y-90404000D01*
X172460500Y-90404000D01*
X172460500Y-89904000D01*
X175896000Y-89904000D01*
X176896000Y-89904000D01*
X176896000Y-89104000D01*
X177396000Y-89104000D01*
X177396000Y-89904000D01*
X178396000Y-89904000D01*
X178396000Y-89556172D01*
X178395999Y-89556155D01*
X178389598Y-89496627D01*
X178389596Y-89496620D01*
X178339354Y-89361913D01*
X178339350Y-89361906D01*
X178253190Y-89246812D01*
X178253187Y-89246809D01*
X178138093Y-89160649D01*
X178138086Y-89160645D01*
X178003379Y-89110403D01*
X178003372Y-89110401D01*
X177943844Y-89104000D01*
X177396000Y-89104000D01*
X176896000Y-89104000D01*
X176348155Y-89104000D01*
X176288627Y-89110401D01*
X176288620Y-89110403D01*
X176153913Y-89160645D01*
X176153906Y-89160649D01*
X176038812Y-89246809D01*
X176038809Y-89246812D01*
X175952649Y-89361906D01*
X175952645Y-89361913D01*
X175902403Y-89496620D01*
X175902401Y-89496627D01*
X175896000Y-89556155D01*
X175896000Y-89904000D01*
X172460500Y-89904000D01*
X172460500Y-88088394D01*
X172458539Y-88078537D01*
X172458538Y-88078530D01*
X172458538Y-88078529D01*
X172443460Y-88002729D01*
X172436463Y-87967549D01*
X172425779Y-87941756D01*
X172389313Y-87853718D01*
X172389310Y-87853713D01*
X172374272Y-87831206D01*
X172374270Y-87831204D01*
X172320858Y-87751267D01*
X172320856Y-87751264D01*
X172230637Y-87661045D01*
X172230606Y-87661016D01*
X170951291Y-86381701D01*
X170917806Y-86320378D01*
X170922790Y-86250686D01*
X170964662Y-86194753D01*
X170998709Y-86176739D01*
X171139603Y-86128369D01*
X171139614Y-86128364D01*
X171358228Y-86010057D01*
X171358231Y-86010055D01*
X171405056Y-85973609D01*
X170705234Y-85273787D01*
X170747292Y-85262518D01*
X170872708Y-85190110D01*
X170975110Y-85087708D01*
X171047518Y-84962292D01*
X171058787Y-84920235D01*
X171758434Y-85619882D01*
X171858731Y-85466369D01*
X171958587Y-85238717D01*
X172019612Y-84997738D01*
X172019614Y-84997729D01*
X172040141Y-84750005D01*
X175529859Y-84750005D01*
X175550385Y-84997729D01*
X175550387Y-84997738D01*
X175611412Y-85238717D01*
X175711266Y-85466364D01*
X175811564Y-85619882D01*
X176511212Y-84920234D01*
X176522482Y-84962292D01*
X176594890Y-85087708D01*
X176697292Y-85190110D01*
X176822708Y-85262518D01*
X176864765Y-85273787D01*
X176164942Y-85973609D01*
X176211768Y-86010055D01*
X176211770Y-86010056D01*
X176430385Y-86128364D01*
X176430396Y-86128369D01*
X176665506Y-86209083D01*
X176910707Y-86250000D01*
X177159293Y-86250000D01*
X177404493Y-86209083D01*
X177639603Y-86128369D01*
X177639614Y-86128364D01*
X177858228Y-86010057D01*
X177858231Y-86010055D01*
X177905056Y-85973609D01*
X177205234Y-85273787D01*
X177247292Y-85262518D01*
X177372708Y-85190110D01*
X177475110Y-85087708D01*
X177547518Y-84962292D01*
X177558787Y-84920234D01*
X178258434Y-85619882D01*
X178358731Y-85466369D01*
X178458587Y-85238717D01*
X178519612Y-84997738D01*
X178519614Y-84997729D01*
X178540141Y-84750005D01*
X178540141Y-84749994D01*
X178519614Y-84502270D01*
X178519612Y-84502261D01*
X178458587Y-84261282D01*
X178358731Y-84033630D01*
X178258434Y-83880116D01*
X177558787Y-84579764D01*
X177547518Y-84537708D01*
X177475110Y-84412292D01*
X177372708Y-84309890D01*
X177247292Y-84237482D01*
X177205235Y-84226212D01*
X177905057Y-83526390D01*
X177905056Y-83526389D01*
X177858229Y-83489943D01*
X177639614Y-83371635D01*
X177639603Y-83371630D01*
X177404493Y-83290916D01*
X177159293Y-83250000D01*
X176910707Y-83250000D01*
X176665506Y-83290916D01*
X176430396Y-83371630D01*
X176430390Y-83371632D01*
X176211761Y-83489949D01*
X176164942Y-83526388D01*
X176164942Y-83526390D01*
X176864765Y-84226212D01*
X176822708Y-84237482D01*
X176697292Y-84309890D01*
X176594890Y-84412292D01*
X176522482Y-84537708D01*
X176511212Y-84579764D01*
X175811564Y-83880116D01*
X175711267Y-84033632D01*
X175611412Y-84261282D01*
X175550387Y-84502261D01*
X175550385Y-84502270D01*
X175529859Y-84749994D01*
X175529859Y-84750005D01*
X172040141Y-84750005D01*
X172040141Y-84749994D01*
X172019614Y-84502270D01*
X172019612Y-84502261D01*
X171958587Y-84261282D01*
X171858731Y-84033630D01*
X171758434Y-83880116D01*
X171058787Y-84579764D01*
X171047518Y-84537708D01*
X170975110Y-84412292D01*
X170872708Y-84309890D01*
X170747292Y-84237482D01*
X170705235Y-84226212D01*
X171405057Y-83526390D01*
X171405056Y-83526389D01*
X171358229Y-83489943D01*
X171139614Y-83371635D01*
X171139603Y-83371630D01*
X170904493Y-83290916D01*
X170659293Y-83250000D01*
X170410707Y-83250000D01*
X170165506Y-83290916D01*
X169930396Y-83371630D01*
X169930390Y-83371632D01*
X169711761Y-83489949D01*
X169664942Y-83526388D01*
X169664942Y-83526390D01*
X170364765Y-84226212D01*
X170322708Y-84237482D01*
X170197292Y-84309890D01*
X170094890Y-84412292D01*
X170022482Y-84537708D01*
X170011212Y-84579765D01*
X169311564Y-83880116D01*
X169211267Y-84033632D01*
X169111411Y-84261284D01*
X169111408Y-84261291D01*
X169108295Y-84273585D01*
X169072753Y-84333739D01*
X169010331Y-84365128D01*
X168940848Y-84357787D01*
X168900410Y-84330820D01*
X167225198Y-82655608D01*
X167225178Y-82655586D01*
X167133733Y-82564141D01*
X167082509Y-82529915D01*
X167031287Y-82495689D01*
X167031286Y-82495688D01*
X167031283Y-82495686D01*
X167031280Y-82495685D01*
X166950792Y-82462347D01*
X166917453Y-82448537D01*
X166906301Y-82446319D01*
X166857029Y-82436518D01*
X166796610Y-82424500D01*
X166796607Y-82424500D01*
X166796606Y-82424500D01*
X161432452Y-82424500D01*
X161365413Y-82404815D01*
X161319658Y-82352011D01*
X161309714Y-82282853D01*
X161338739Y-82219297D01*
X161344771Y-82212819D01*
X162072771Y-81484818D01*
X162134094Y-81451333D01*
X162160452Y-81448499D01*
X162825002Y-81448499D01*
X162825008Y-81448499D01*
X162927797Y-81437999D01*
X163094334Y-81382814D01*
X163243656Y-81290712D01*
X163337319Y-81197049D01*
X163398642Y-81163564D01*
X163468334Y-81168548D01*
X163512681Y-81197049D01*
X163606344Y-81290712D01*
X163755666Y-81382814D01*
X163922203Y-81437999D01*
X164024991Y-81448500D01*
X164825008Y-81448499D01*
X164825016Y-81448498D01*
X164825019Y-81448498D01*
X164881302Y-81442748D01*
X164927797Y-81437999D01*
X165094334Y-81382814D01*
X165243656Y-81290712D01*
X165367712Y-81166656D01*
X165459814Y-81017334D01*
X165479311Y-80958493D01*
X165519084Y-80901051D01*
X165583600Y-80874228D01*
X165597017Y-80873500D01*
X169088973Y-80873500D01*
X169156012Y-80893185D01*
X169201767Y-80945989D01*
X169202529Y-80947690D01*
X169210826Y-80966606D01*
X169346833Y-81174782D01*
X169346836Y-81174785D01*
X169515256Y-81357738D01*
X169711491Y-81510474D01*
X169930190Y-81628828D01*
X170165386Y-81709571D01*
X170410665Y-81750500D01*
X170659335Y-81750500D01*
X170904614Y-81709571D01*
X171139810Y-81628828D01*
X171358509Y-81510474D01*
X171554744Y-81357738D01*
X171723164Y-81174785D01*
X171859173Y-80966607D01*
X171859175Y-80966603D01*
X171866595Y-80949689D01*
X171911551Y-80896203D01*
X171978287Y-80875514D01*
X171980150Y-80875500D01*
X175589850Y-80875500D01*
X175656889Y-80895185D01*
X175702644Y-80947989D01*
X175703405Y-80949689D01*
X175710824Y-80966603D01*
X175846833Y-81174782D01*
X175846836Y-81174785D01*
X176015256Y-81357738D01*
X176211491Y-81510474D01*
X176430190Y-81628828D01*
X176665386Y-81709571D01*
X176910665Y-81750500D01*
X177159335Y-81750500D01*
X177404614Y-81709571D01*
X177639810Y-81628828D01*
X177858509Y-81510474D01*
X178054744Y-81357738D01*
X178223164Y-81174785D01*
X178359173Y-80966607D01*
X178459063Y-80738881D01*
X178470196Y-80694914D01*
X178505734Y-80634760D01*
X178568154Y-80603366D01*
X178637637Y-80610703D01*
X178678083Y-80637673D01*
X181473181Y-83432771D01*
X181506666Y-83494094D01*
X181509500Y-83520452D01*
X181509500Y-93077983D01*
X181489815Y-93145022D01*
X181437011Y-93190777D01*
X181424510Y-93195686D01*
X181365666Y-93215186D01*
X181365663Y-93215187D01*
X181216342Y-93307289D01*
X181092289Y-93431342D01*
X181000187Y-93580663D01*
X181000185Y-93580668D01*
X180986128Y-93623090D01*
X180945001Y-93747203D01*
X180945001Y-93747204D01*
X180945000Y-93747204D01*
X180934500Y-93849983D01*
X180934500Y-94650001D01*
X180934501Y-94650019D01*
X180945000Y-94752796D01*
X180945001Y-94752799D01*
X181000185Y-94919331D01*
X181000187Y-94919336D01*
X181028701Y-94965564D01*
X181092287Y-95068655D01*
X181092289Y-95068657D01*
X181185951Y-95162319D01*
X181219436Y-95223642D01*
X181214452Y-95293334D01*
X181185951Y-95337681D01*
X181092289Y-95431342D01*
X181000187Y-95580663D01*
X181000185Y-95580668D01*
X180982359Y-95634463D01*
X180945001Y-95747203D01*
X180945001Y-95747204D01*
X180945000Y-95747204D01*
X180934500Y-95849983D01*
X180934500Y-96650001D01*
X180934501Y-96650019D01*
X180945000Y-96752796D01*
X180945001Y-96752799D01*
X181000185Y-96919331D01*
X181000187Y-96919336D01*
X181014238Y-96942116D01*
X181092288Y-97068656D01*
X181216344Y-97192712D01*
X181365666Y-97284814D01*
X181532203Y-97339999D01*
X181634991Y-97350500D01*
X182635008Y-97350499D01*
X182635016Y-97350498D01*
X182635019Y-97350498D01*
X182691302Y-97344748D01*
X182737797Y-97339999D01*
X182904334Y-97284814D01*
X183053656Y-97192712D01*
X183177712Y-97068656D01*
X183260519Y-96934402D01*
X183312467Y-96887679D01*
X183366058Y-96875500D01*
X183405179Y-96875500D01*
X183472218Y-96895185D01*
X183517973Y-96947989D01*
X183518735Y-96949690D01*
X183599075Y-97132848D01*
X183726016Y-97327147D01*
X183726019Y-97327151D01*
X183726021Y-97327153D01*
X183883216Y-97497913D01*
X183883219Y-97497915D01*
X183883222Y-97497918D01*
X184066365Y-97640464D01*
X184066371Y-97640468D01*
X184066374Y-97640470D01*
X184270497Y-97750936D01*
X184360934Y-97781983D01*
X184490015Y-97826297D01*
X184490017Y-97826297D01*
X184490019Y-97826298D01*
X184718951Y-97864500D01*
X184718952Y-97864500D01*
X184951048Y-97864500D01*
X184951049Y-97864500D01*
X185179981Y-97826298D01*
X185399503Y-97750936D01*
X185603626Y-97640470D01*
X185629008Y-97620715D01*
X185735434Y-97537880D01*
X185786784Y-97497913D01*
X185943979Y-97327153D01*
X186070924Y-97132849D01*
X186164157Y-96920300D01*
X186221134Y-96695305D01*
X186221807Y-96687181D01*
X186240300Y-96464006D01*
X186240300Y-96463993D01*
X186221135Y-96232702D01*
X186221133Y-96232691D01*
X186164157Y-96007699D01*
X186070924Y-95795151D01*
X185943983Y-95600852D01*
X185943980Y-95600849D01*
X185943979Y-95600847D01*
X185876241Y-95527264D01*
X185845321Y-95464612D01*
X185853181Y-95395186D01*
X185897329Y-95341031D01*
X185924140Y-95327102D01*
X185977086Y-95307354D01*
X185977093Y-95307350D01*
X186092187Y-95221190D01*
X186092190Y-95221187D01*
X186178350Y-95106093D01*
X186178354Y-95106086D01*
X186228596Y-94971379D01*
X186228598Y-94971372D01*
X186234999Y-94911844D01*
X186235000Y-94911827D01*
X186235000Y-94214000D01*
X185210278Y-94214000D01*
X185254333Y-94137694D01*
X185285000Y-94023244D01*
X185285000Y-93904756D01*
X185254333Y-93790306D01*
X185210278Y-93714000D01*
X186235000Y-93714000D01*
X186235000Y-93016172D01*
X186234999Y-93016155D01*
X186228598Y-92956627D01*
X186228596Y-92956620D01*
X186178354Y-92821913D01*
X186178350Y-92821906D01*
X186092190Y-92706812D01*
X186092187Y-92706809D01*
X185977093Y-92620649D01*
X185977086Y-92620645D01*
X185842379Y-92570403D01*
X185842372Y-92570401D01*
X185782844Y-92564000D01*
X185085000Y-92564000D01*
X185085000Y-93588722D01*
X185008694Y-93544667D01*
X184894244Y-93514000D01*
X184775756Y-93514000D01*
X184661306Y-93544667D01*
X184585000Y-93588722D01*
X184585000Y-92564000D01*
X183887155Y-92564000D01*
X183827627Y-92570401D01*
X183827620Y-92570403D01*
X183692913Y-92620645D01*
X183692906Y-92620649D01*
X183577812Y-92706809D01*
X183577809Y-92706812D01*
X183491649Y-92821906D01*
X183491645Y-92821913D01*
X183441403Y-92956620D01*
X183441401Y-92956627D01*
X183435000Y-93016155D01*
X183435000Y-93411236D01*
X183415315Y-93478275D01*
X183362511Y-93524030D01*
X183293353Y-93533974D01*
X183229797Y-93504949D01*
X183205461Y-93476333D01*
X183177712Y-93431344D01*
X183053656Y-93307288D01*
X182921356Y-93225685D01*
X182904336Y-93215187D01*
X182904335Y-93215186D01*
X182904334Y-93215186D01*
X182845493Y-93195688D01*
X182788051Y-93155916D01*
X182761228Y-93091400D01*
X182760500Y-93077983D01*
X182760500Y-83148395D01*
X182760500Y-83148394D01*
X182757635Y-83133992D01*
X182740638Y-83048537D01*
X182740638Y-83048535D01*
X182740638Y-83048534D01*
X182736464Y-83027552D01*
X182736463Y-83027550D01*
X182736463Y-83027548D01*
X182689311Y-82913714D01*
X182689310Y-82913713D01*
X182689307Y-82913707D01*
X182620858Y-82811267D01*
X182620855Y-82811263D01*
X182530637Y-82721045D01*
X182530606Y-82721016D01*
X177665198Y-77855608D01*
X177665178Y-77855586D01*
X177573733Y-77764141D01*
X177522509Y-77729915D01*
X177489218Y-77707670D01*
X177471286Y-77695688D01*
X177471283Y-77695686D01*
X177471280Y-77695685D01*
X177390792Y-77662347D01*
X177357453Y-77648537D01*
X177347427Y-77646543D01*
X177297029Y-77636518D01*
X177236610Y-77624500D01*
X177236607Y-77624500D01*
X177236606Y-77624500D01*
X157296607Y-77624500D01*
X157173393Y-77624500D01*
X157173389Y-77624500D01*
X157112971Y-77636518D01*
X157069743Y-77645116D01*
X157052546Y-77648537D01*
X156938716Y-77695687D01*
X156938707Y-77695692D01*
X156836268Y-77764140D01*
X156792705Y-77807703D01*
X156749142Y-77851267D01*
X156749139Y-77851270D01*
X149249072Y-85351336D01*
X149212404Y-85376676D01*
X148684269Y-85615055D01*
X148643536Y-85635705D01*
X148638610Y-85638816D01*
X148638294Y-85638316D01*
X148621200Y-85648515D01*
X148582271Y-85665847D01*
X148582267Y-85665849D01*
X148429132Y-85777109D01*
X148335371Y-85881241D01*
X148275884Y-85917889D01*
X148206027Y-85916558D01*
X148155540Y-85885949D01*
X146366754Y-84097164D01*
X146333269Y-84035841D01*
X146331077Y-83996880D01*
X146337499Y-83934016D01*
X146337500Y-83934009D01*
X146337499Y-83133992D01*
X146328769Y-83048535D01*
X146326999Y-83031203D01*
X146326998Y-83031200D01*
X146325788Y-83027548D01*
X146271814Y-82864666D01*
X146179712Y-82715344D01*
X146086049Y-82621681D01*
X146052564Y-82560358D01*
X146057548Y-82490666D01*
X146086049Y-82446319D01*
X146127553Y-82404815D01*
X146179712Y-82352656D01*
X146271814Y-82203334D01*
X146326999Y-82036797D01*
X146337500Y-81934009D01*
X146337499Y-81133992D01*
X146326999Y-81031203D01*
X146271814Y-80864666D01*
X146179712Y-80715344D01*
X146055656Y-80591288D01*
X145962888Y-80534069D01*
X145906336Y-80499187D01*
X145906331Y-80499185D01*
X145902188Y-80497812D01*
X145739797Y-80444001D01*
X145739795Y-80444000D01*
X145637016Y-80433500D01*
X145637009Y-80433500D01*
X144972453Y-80433500D01*
X144905414Y-80413815D01*
X144884772Y-80397181D01*
X144345928Y-79858338D01*
X144345925Y-79858334D01*
X144345925Y-79858335D01*
X144338858Y-79851268D01*
X144338858Y-79851267D01*
X144251733Y-79764142D01*
X144251732Y-79764141D01*
X144251731Y-79764140D01*
X144200509Y-79729915D01*
X144149287Y-79695689D01*
X144149286Y-79695688D01*
X144149283Y-79695686D01*
X144149280Y-79695685D01*
X144068792Y-79662347D01*
X144035453Y-79648537D01*
X144025427Y-79646543D01*
X143975029Y-79636518D01*
X143914610Y-79624500D01*
X143914607Y-79624500D01*
X143914606Y-79624500D01*
X143480150Y-79624500D01*
X143413111Y-79604815D01*
X143367356Y-79552011D01*
X143366595Y-79550311D01*
X143359175Y-79533396D01*
X143223166Y-79325217D01*
X143112763Y-79205288D01*
X143054744Y-79142262D01*
X142858509Y-78989526D01*
X142858507Y-78989525D01*
X142858506Y-78989524D01*
X142639811Y-78871172D01*
X142639802Y-78871169D01*
X142404616Y-78790429D01*
X142159335Y-78749500D01*
X141910665Y-78749500D01*
X141665383Y-78790429D01*
X141430197Y-78871169D01*
X141430188Y-78871172D01*
X141211493Y-78989524D01*
X141015257Y-79142261D01*
X140846833Y-79325217D01*
X140710824Y-79533396D01*
X140703405Y-79550311D01*
X140658449Y-79603797D01*
X140591713Y-79624486D01*
X140589850Y-79624500D01*
X136980150Y-79624500D01*
X136913111Y-79604815D01*
X136867356Y-79552011D01*
X136866595Y-79550311D01*
X136859175Y-79533396D01*
X136723166Y-79325217D01*
X136612763Y-79205288D01*
X136554744Y-79142262D01*
X136358509Y-78989526D01*
X136358507Y-78989525D01*
X136358506Y-78989524D01*
X136139811Y-78871172D01*
X136139802Y-78871169D01*
X135904616Y-78790429D01*
X135659335Y-78749500D01*
X135410665Y-78749500D01*
X135165383Y-78790429D01*
X134930197Y-78871169D01*
X134930188Y-78871172D01*
X134711493Y-78989524D01*
X134515257Y-79142261D01*
X134346833Y-79325217D01*
X134210826Y-79533393D01*
X134110936Y-79761118D01*
X134049892Y-80002175D01*
X134049890Y-80002187D01*
X134029357Y-80249994D01*
X134029357Y-80250005D01*
X134049890Y-80497812D01*
X134049892Y-80497824D01*
X134110936Y-80738881D01*
X134210826Y-80966606D01*
X134346833Y-81174782D01*
X134346836Y-81174785D01*
X134515256Y-81357738D01*
X134711491Y-81510474D01*
X134930190Y-81628828D01*
X135165386Y-81709571D01*
X135410665Y-81750500D01*
X135659335Y-81750500D01*
X135904614Y-81709571D01*
X136139810Y-81628828D01*
X136358509Y-81510474D01*
X136554744Y-81357738D01*
X136723164Y-81174785D01*
X136859173Y-80966607D01*
X136859175Y-80966603D01*
X136866595Y-80949689D01*
X136911551Y-80896203D01*
X136978287Y-80875514D01*
X136980150Y-80875500D01*
X140589850Y-80875500D01*
X140656889Y-80895185D01*
X140702644Y-80947989D01*
X140703405Y-80949689D01*
X140710824Y-80966603D01*
X140846833Y-81174782D01*
X140846836Y-81174785D01*
X141015256Y-81357738D01*
X141211491Y-81510474D01*
X141430190Y-81628828D01*
X141665386Y-81709571D01*
X141910665Y-81750500D01*
X142159335Y-81750500D01*
X142404614Y-81709571D01*
X142639810Y-81628828D01*
X142858509Y-81510474D01*
X143054744Y-81357738D01*
X143223164Y-81174785D01*
X143359173Y-80966607D01*
X143359175Y-80966603D01*
X143366595Y-80949689D01*
X143411551Y-80896203D01*
X143478287Y-80875514D01*
X143480150Y-80875500D01*
X143542548Y-80875500D01*
X143609587Y-80895185D01*
X143630229Y-80911819D01*
X143900181Y-81181771D01*
X143933666Y-81243094D01*
X143936500Y-81269452D01*
X143936500Y-81934001D01*
X143936501Y-81934019D01*
X143947000Y-82036796D01*
X143947001Y-82036799D01*
X143967944Y-82099999D01*
X144002186Y-82203334D01*
X144093890Y-82352011D01*
X144094289Y-82352657D01*
X144187951Y-82446319D01*
X144221436Y-82507642D01*
X144216452Y-82577334D01*
X144187951Y-82621681D01*
X144094289Y-82715342D01*
X144002187Y-82864663D01*
X144002185Y-82864668D01*
X143998979Y-82874344D01*
X143947001Y-83031203D01*
X143947001Y-83031204D01*
X143947000Y-83031204D01*
X143936500Y-83133983D01*
X143936500Y-83934001D01*
X143936501Y-83934019D01*
X143947000Y-84036796D01*
X143947001Y-84036799D01*
X144002185Y-84203331D01*
X144002187Y-84203336D01*
X144037069Y-84259888D01*
X144094288Y-84352656D01*
X144218344Y-84476712D01*
X144367666Y-84568814D01*
X144534203Y-84623999D01*
X144636991Y-84634500D01*
X145083547Y-84634499D01*
X145150586Y-84654183D01*
X145171228Y-84670818D01*
X148533181Y-88032771D01*
X148566666Y-88094094D01*
X148569500Y-88120452D01*
X148569500Y-89775769D01*
X148549815Y-89842808D01*
X148544767Y-89850080D01*
X148476204Y-89941668D01*
X148476202Y-89941671D01*
X148425908Y-90076517D01*
X148419501Y-90136116D01*
X148419500Y-90136135D01*
X148419500Y-91534500D01*
X148399815Y-91601539D01*
X148347011Y-91647294D01*
X148295500Y-91658500D01*
X147453874Y-91658500D01*
X147399898Y-91646136D01*
X147206199Y-91552483D01*
X147200545Y-91549845D01*
X147193477Y-91546548D01*
X147193457Y-91546539D01*
X147192909Y-91546292D01*
X147192895Y-91546287D01*
X147130624Y-91523183D01*
X147123323Y-91520207D01*
X147101761Y-91510607D01*
X147009181Y-91490929D01*
X146916603Y-91471251D01*
X146727311Y-91471251D01*
X146694854Y-91478149D01*
X146542154Y-91510606D01*
X146542149Y-91510608D01*
X146512933Y-91523616D01*
X146443683Y-91532900D01*
X146380407Y-91503271D01*
X146343194Y-91444135D01*
X146338499Y-91410336D01*
X146338499Y-90694998D01*
X146338498Y-90694981D01*
X146327999Y-90592203D01*
X146327998Y-90592200D01*
X146321599Y-90572888D01*
X146272814Y-90425666D01*
X146180712Y-90276344D01*
X146056656Y-90152288D01*
X146056655Y-90152287D01*
X145968931Y-90098178D01*
X145922207Y-90046230D01*
X145916098Y-90030958D01*
X145907824Y-90005494D01*
X145887087Y-89941671D01*
X145877681Y-89912721D01*
X145877678Y-89912715D01*
X145783033Y-89748784D01*
X145656371Y-89608112D01*
X145611976Y-89575857D01*
X145503234Y-89496851D01*
X145503229Y-89496848D01*
X145330307Y-89419857D01*
X145330302Y-89419855D01*
X145184501Y-89388865D01*
X145145146Y-89380500D01*
X144955854Y-89380500D01*
X144923397Y-89387398D01*
X144770697Y-89419855D01*
X144770692Y-89419857D01*
X144597770Y-89496848D01*
X144597765Y-89496851D01*
X144444629Y-89608111D01*
X144317966Y-89748785D01*
X144223321Y-89912715D01*
X144223317Y-89912725D01*
X144184898Y-90030962D01*
X144145460Y-90088637D01*
X144132065Y-90098180D01*
X144044347Y-90152285D01*
X144044343Y-90152288D01*
X143920289Y-90276342D01*
X143828187Y-90425663D01*
X143828185Y-90425668D01*
X143810994Y-90477547D01*
X143773001Y-90592203D01*
X143773001Y-90592204D01*
X143773000Y-90592204D01*
X143762500Y-90694983D01*
X143762500Y-91645001D01*
X143762501Y-91645019D01*
X143773000Y-91747796D01*
X143773001Y-91747799D01*
X143803400Y-91839535D01*
X143828186Y-91914334D01*
X143920288Y-92063656D01*
X144044344Y-92187712D01*
X144146875Y-92250953D01*
X144193599Y-92302899D01*
X144204822Y-92371862D01*
X144176979Y-92435944D01*
X144169460Y-92444172D01*
X144101283Y-92512349D01*
X144099241Y-92515661D01*
X144097247Y-92517453D01*
X144096807Y-92518011D01*
X144096711Y-92517935D01*
X144047291Y-92562383D01*
X143978328Y-92573602D01*
X143914247Y-92545755D01*
X143888168Y-92515656D01*
X143886319Y-92512659D01*
X143886316Y-92512655D01*
X143762345Y-92388684D01*
X143613124Y-92296643D01*
X143613119Y-92296641D01*
X143446697Y-92241494D01*
X143446690Y-92241493D01*
X143407101Y-92237448D01*
X143342410Y-92211050D01*
X143302260Y-92153868D01*
X143299398Y-92084057D01*
X143314168Y-92048992D01*
X143397355Y-91914126D01*
X143397358Y-91914119D01*
X143452505Y-91747697D01*
X143452506Y-91747690D01*
X143462999Y-91644986D01*
X143463000Y-91644973D01*
X143463000Y-91420000D01*
X140888001Y-91420000D01*
X140888001Y-91644986D01*
X140898494Y-91747697D01*
X140953641Y-91914119D01*
X140953643Y-91914124D01*
X141045684Y-92063345D01*
X141169654Y-92187315D01*
X141318875Y-92279356D01*
X141318880Y-92279358D01*
X141485302Y-92334505D01*
X141485309Y-92334506D01*
X141588019Y-92344999D01*
X141907919Y-92344999D01*
X141974958Y-92364683D01*
X142020713Y-92417487D01*
X142030657Y-92486646D01*
X142013458Y-92534095D01*
X141934645Y-92661871D01*
X141934641Y-92661880D01*
X141879494Y-92828302D01*
X141879493Y-92828309D01*
X141869000Y-92931013D01*
X141869000Y-93206000D01*
X143082500Y-93206000D01*
X143149539Y-93225685D01*
X143195294Y-93278489D01*
X143206500Y-93330000D01*
X143206500Y-93582000D01*
X143186815Y-93649039D01*
X143134011Y-93694794D01*
X143082500Y-93706000D01*
X141869001Y-93706000D01*
X141869001Y-93980986D01*
X141879494Y-94083697D01*
X141934641Y-94250119D01*
X141934643Y-94250124D01*
X142026684Y-94399345D01*
X142074804Y-94447465D01*
X142108289Y-94508788D01*
X142103305Y-94578480D01*
X142074805Y-94622826D01*
X142026289Y-94671342D01*
X141934187Y-94820663D01*
X141934185Y-94820668D01*
X141915022Y-94878498D01*
X141879001Y-94987203D01*
X141879001Y-94987204D01*
X141879000Y-94987204D01*
X141868500Y-95089983D01*
X141868500Y-96140001D01*
X141868501Y-96140019D01*
X141879000Y-96242796D01*
X141879001Y-96242799D01*
X141934185Y-96409331D01*
X141934187Y-96409336D01*
X141944798Y-96426539D01*
X142021846Y-96551455D01*
X142026289Y-96558657D01*
X142075217Y-96607585D01*
X142108702Y-96668908D01*
X142103718Y-96738600D01*
X142102998Y-96740175D01*
X142049908Y-96882517D01*
X142043501Y-96942116D01*
X142043500Y-96942135D01*
X142043500Y-98437870D01*
X142043501Y-98437876D01*
X142049908Y-98497483D01*
X142100202Y-98632328D01*
X142100204Y-98632331D01*
X142156956Y-98708142D01*
X142162917Y-98716104D01*
X142187335Y-98781569D01*
X142172484Y-98849842D01*
X142162918Y-98864727D01*
X142100647Y-98947910D01*
X142100645Y-98947913D01*
X142050403Y-99082620D01*
X142050401Y-99082627D01*
X142044000Y-99142155D01*
X142044000Y-99640000D01*
X143270000Y-99640000D01*
X143337039Y-99659685D01*
X143382794Y-99712489D01*
X143394000Y-99764000D01*
X143394000Y-100016000D01*
X143374315Y-100083039D01*
X143321511Y-100128794D01*
X143270000Y-100140000D01*
X142044000Y-100140000D01*
X142044000Y-100637844D01*
X142050401Y-100697372D01*
X142050402Y-100697376D01*
X142078252Y-100772044D01*
X142083236Y-100841736D01*
X142049751Y-100903059D01*
X142027174Y-100920912D01*
X142023658Y-100923080D01*
X141899682Y-101047057D01*
X141807643Y-101196275D01*
X141807641Y-101196280D01*
X141752494Y-101362702D01*
X141752493Y-101362709D01*
X141742000Y-101465413D01*
X141742000Y-101740400D01*
X142955500Y-101740400D01*
X143022539Y-101760085D01*
X143068294Y-101812889D01*
X143079500Y-101864400D01*
X143079500Y-103215399D01*
X143216972Y-103215399D01*
X143216986Y-103215398D01*
X143319697Y-103204905D01*
X143486119Y-103149758D01*
X143486124Y-103149756D01*
X143635345Y-103057715D01*
X143759318Y-102933742D01*
X143761165Y-102930748D01*
X143762969Y-102929124D01*
X143763798Y-102928077D01*
X143763976Y-102928218D01*
X143813110Y-102884021D01*
X143882073Y-102872796D01*
X143946156Y-102900636D01*
X143972243Y-102930741D01*
X143974288Y-102934056D01*
X144098344Y-103058112D01*
X144247666Y-103150214D01*
X144414203Y-103205399D01*
X144516991Y-103215900D01*
X145292008Y-103215899D01*
X145292016Y-103215898D01*
X145292019Y-103215898D01*
X145348302Y-103210148D01*
X145394797Y-103205399D01*
X145561334Y-103150214D01*
X145710656Y-103058112D01*
X145834712Y-102934056D01*
X145865963Y-102883388D01*
X145917907Y-102836667D01*
X145986869Y-102825443D01*
X146050952Y-102853285D01*
X146089809Y-102911353D01*
X146095500Y-102948481D01*
X146095500Y-102965998D01*
X146095501Y-102966019D01*
X146106000Y-103068796D01*
X146106001Y-103068799D01*
X146154746Y-103215899D01*
X146161186Y-103235334D01*
X146253288Y-103384656D01*
X146377344Y-103508712D01*
X146380628Y-103510737D01*
X146380653Y-103510753D01*
X146382445Y-103512746D01*
X146383011Y-103513193D01*
X146382934Y-103513289D01*
X146427379Y-103562699D01*
X146438603Y-103631661D01*
X146410761Y-103695744D01*
X146380665Y-103721826D01*
X146377660Y-103723679D01*
X146377655Y-103723683D01*
X146253684Y-103847654D01*
X146161643Y-103996875D01*
X146161641Y-103996880D01*
X146106494Y-104163302D01*
X146106493Y-104163309D01*
X146096000Y-104266013D01*
X146096000Y-104423932D01*
X146076315Y-104490971D01*
X146023511Y-104536726D01*
X145954353Y-104546670D01*
X145890797Y-104517645D01*
X145864613Y-104485932D01*
X145862178Y-104481715D01*
X145767533Y-104317784D01*
X145640871Y-104177112D01*
X145621873Y-104163309D01*
X145487734Y-104065851D01*
X145487729Y-104065848D01*
X145314807Y-103988857D01*
X145314802Y-103988855D01*
X145169001Y-103957865D01*
X145129646Y-103949500D01*
X144940354Y-103949500D01*
X144907897Y-103956398D01*
X144755197Y-103988855D01*
X144755192Y-103988857D01*
X144582270Y-104065848D01*
X144582265Y-104065851D01*
X144429129Y-104177111D01*
X144302466Y-104317785D01*
X144207821Y-104481715D01*
X144207819Y-104481719D01*
X144152407Y-104652259D01*
X144119562Y-104700292D01*
X144121451Y-104702181D01*
X143992287Y-104831345D01*
X143900187Y-104980663D01*
X143900185Y-104980668D01*
X143888475Y-105016008D01*
X143845001Y-105147203D01*
X143845001Y-105147204D01*
X143845000Y-105147204D01*
X143834500Y-105249983D01*
X143834500Y-105701548D01*
X143814815Y-105768587D01*
X143762011Y-105814342D01*
X143692853Y-105824286D01*
X143629297Y-105795261D01*
X143622819Y-105789229D01*
X143531799Y-105698209D01*
X143498314Y-105636886D01*
X143499275Y-105580086D01*
X143520106Y-105497829D01*
X143520107Y-105497824D01*
X143520108Y-105497821D01*
X143532125Y-105352796D01*
X143540643Y-105250005D01*
X143540643Y-105249994D01*
X143520109Y-105002187D01*
X143520107Y-105002175D01*
X143459063Y-104761118D01*
X143359173Y-104533393D01*
X143223166Y-104325217D01*
X143143881Y-104239091D01*
X143054744Y-104142262D01*
X142858509Y-103989526D01*
X142858507Y-103989525D01*
X142858506Y-103989524D01*
X142639811Y-103871172D01*
X142639802Y-103871169D01*
X142404616Y-103790429D01*
X142159335Y-103749500D01*
X141910665Y-103749500D01*
X141665383Y-103790429D01*
X141430197Y-103871169D01*
X141430188Y-103871172D01*
X141211493Y-103989524D01*
X141015257Y-104142261D01*
X140846833Y-104325217D01*
X140710824Y-104533396D01*
X140703405Y-104550311D01*
X140658449Y-104603797D01*
X140591713Y-104624486D01*
X140589850Y-104624500D01*
X136980150Y-104624500D01*
X136913111Y-104604815D01*
X136867356Y-104552011D01*
X136866595Y-104550311D01*
X136859175Y-104533396D01*
X136723166Y-104325217D01*
X136643881Y-104239091D01*
X136554744Y-104142262D01*
X136358509Y-103989526D01*
X136358507Y-103989525D01*
X136358506Y-103989524D01*
X136139811Y-103871172D01*
X136139802Y-103871169D01*
X135904616Y-103790429D01*
X135659335Y-103749500D01*
X135410665Y-103749500D01*
X135165383Y-103790429D01*
X134930197Y-103871169D01*
X134930188Y-103871172D01*
X134711493Y-103989524D01*
X134515257Y-104142261D01*
X134346833Y-104325217D01*
X134210826Y-104533393D01*
X134110936Y-104761118D01*
X134049892Y-105002175D01*
X134049890Y-105002187D01*
X134029357Y-105249994D01*
X134029357Y-105250005D01*
X124112500Y-105250005D01*
X124112499Y-104449992D01*
X124101999Y-104347203D01*
X124046814Y-104180666D01*
X123954712Y-104031344D01*
X123830656Y-103907288D01*
X123681334Y-103815186D01*
X123622493Y-103795688D01*
X123565051Y-103755916D01*
X123538228Y-103691400D01*
X123537500Y-103677983D01*
X123537500Y-99227452D01*
X123557185Y-99160413D01*
X123573819Y-99139771D01*
X123996737Y-98716853D01*
X124419821Y-98293768D01*
X124481142Y-98260285D01*
X124550833Y-98265269D01*
X124606767Y-98307141D01*
X124631184Y-98372605D01*
X124631500Y-98381451D01*
X124631500Y-98757001D01*
X124631501Y-98757019D01*
X124642000Y-98859796D01*
X124642001Y-98859799D01*
X124697185Y-99026331D01*
X124697187Y-99026336D01*
X124712604Y-99051331D01*
X124789288Y-99175656D01*
X124913344Y-99299712D01*
X124960827Y-99328999D01*
X125007552Y-99380947D01*
X125018775Y-99449909D01*
X124990931Y-99513992D01*
X124983413Y-99522219D01*
X124881287Y-99624345D01*
X124789187Y-99773663D01*
X124789185Y-99773668D01*
X124767800Y-99838204D01*
X124734001Y-99940203D01*
X124734001Y-99940204D01*
X124734000Y-99940204D01*
X124723500Y-100042983D01*
X124723500Y-101093001D01*
X124723501Y-101093019D01*
X124730735Y-101163827D01*
X124717965Y-101232520D01*
X124670084Y-101283404D01*
X124650713Y-101292609D01*
X124627665Y-101301205D01*
X124512455Y-101387452D01*
X124512452Y-101387455D01*
X124426206Y-101502664D01*
X124426202Y-101502671D01*
X124375908Y-101637517D01*
X124369501Y-101697116D01*
X124369500Y-101697135D01*
X124369500Y-103792870D01*
X124369501Y-103792876D01*
X124375908Y-103852483D01*
X124426202Y-103987328D01*
X124426206Y-103987335D01*
X124512452Y-104102544D01*
X124512455Y-104102547D01*
X124627664Y-104188793D01*
X124627671Y-104188797D01*
X124762517Y-104239091D01*
X124762516Y-104239091D01*
X124769444Y-104239835D01*
X124822127Y-104245500D01*
X126917872Y-104245499D01*
X126977483Y-104239091D01*
X127112331Y-104188796D01*
X127227546Y-104102546D01*
X127313796Y-103987331D01*
X127364091Y-103852483D01*
X127370500Y-103792873D01*
X127370499Y-102240400D01*
X141742001Y-102240400D01*
X141742001Y-102515386D01*
X141752494Y-102618097D01*
X141807641Y-102784519D01*
X141807643Y-102784524D01*
X141899684Y-102933745D01*
X142023654Y-103057715D01*
X142172875Y-103149756D01*
X142172880Y-103149758D01*
X142339302Y-103204905D01*
X142339309Y-103204906D01*
X142442019Y-103215399D01*
X142579499Y-103215399D01*
X142579500Y-103215398D01*
X142579500Y-102240400D01*
X141742001Y-102240400D01*
X127370499Y-102240400D01*
X127370499Y-101916929D01*
X127390184Y-101849891D01*
X127442987Y-101804136D01*
X127495864Y-101794042D01*
X127495864Y-101793000D01*
X127636499Y-101792999D01*
X127636500Y-101792998D01*
X127636500Y-100818000D01*
X128136500Y-100818000D01*
X128136500Y-101792999D01*
X128273972Y-101792999D01*
X128273986Y-101792998D01*
X128376697Y-101782505D01*
X128543119Y-101727358D01*
X128543124Y-101727356D01*
X128692345Y-101635315D01*
X128816315Y-101511345D01*
X128908356Y-101362124D01*
X128908358Y-101362119D01*
X128963505Y-101195697D01*
X128963506Y-101195690D01*
X128973999Y-101092986D01*
X128974000Y-101092973D01*
X128974000Y-100941001D01*
X135934500Y-100941001D01*
X135934501Y-100941019D01*
X135945000Y-101043796D01*
X135945001Y-101043799D01*
X136000185Y-101210331D01*
X136000187Y-101210336D01*
X136007102Y-101221547D01*
X136092288Y-101359656D01*
X136216344Y-101483712D01*
X136365666Y-101575814D01*
X136532203Y-101630999D01*
X136634991Y-101641500D01*
X137435008Y-101641499D01*
X137435016Y-101641498D01*
X137435019Y-101641498D01*
X137495546Y-101635315D01*
X137537797Y-101630999D01*
X137704334Y-101575814D01*
X137853656Y-101483712D01*
X137947319Y-101390049D01*
X138008642Y-101356564D01*
X138078334Y-101361548D01*
X138122681Y-101390049D01*
X138216344Y-101483712D01*
X138365666Y-101575814D01*
X138532203Y-101630999D01*
X138634991Y-101641500D01*
X139435008Y-101641499D01*
X139435016Y-101641498D01*
X139435019Y-101641498D01*
X139495546Y-101635315D01*
X139537797Y-101630999D01*
X139704334Y-101575814D01*
X139853656Y-101483712D01*
X139977712Y-101359656D01*
X140020858Y-101289703D01*
X140072805Y-101242980D01*
X140075923Y-101241538D01*
X140112730Y-101225151D01*
X140265871Y-101113888D01*
X140392533Y-100973216D01*
X140487179Y-100809284D01*
X140545674Y-100629256D01*
X140565460Y-100441000D01*
X140545674Y-100252744D01*
X140487179Y-100072716D01*
X140392533Y-99908784D01*
X140265871Y-99768112D01*
X140265870Y-99768111D01*
X140112733Y-99656850D01*
X140075959Y-99640477D01*
X140022723Y-99595225D01*
X140020859Y-99592295D01*
X139977714Y-99522347D01*
X139977711Y-99522343D01*
X139904195Y-99448827D01*
X139870710Y-99387504D01*
X139875694Y-99317812D01*
X139904195Y-99273464D01*
X139977317Y-99200342D01*
X140069356Y-99051124D01*
X140069358Y-99051119D01*
X140124505Y-98884697D01*
X140124506Y-98884690D01*
X140134999Y-98781986D01*
X140135000Y-98781973D01*
X140135000Y-98532000D01*
X138909000Y-98532000D01*
X138841961Y-98512315D01*
X138796206Y-98459511D01*
X138785000Y-98408000D01*
X138785000Y-97082000D01*
X139285000Y-97082000D01*
X139285000Y-98032000D01*
X140134999Y-98032000D01*
X140134999Y-97782028D01*
X140134998Y-97782013D01*
X140124505Y-97679302D01*
X140069358Y-97512880D01*
X140069356Y-97512875D01*
X139977315Y-97363654D01*
X139853345Y-97239684D01*
X139704124Y-97147643D01*
X139704119Y-97147641D01*
X139537697Y-97092494D01*
X139537690Y-97092493D01*
X139434986Y-97082000D01*
X139285000Y-97082000D01*
X138785000Y-97082000D01*
X138635027Y-97082000D01*
X138635012Y-97082001D01*
X138532302Y-97092494D01*
X138365880Y-97147641D01*
X138365875Y-97147643D01*
X138216657Y-97239682D01*
X138123034Y-97333305D01*
X138061710Y-97366789D01*
X137992019Y-97361805D01*
X137947672Y-97333304D01*
X137853655Y-97239287D01*
X137781902Y-97195029D01*
X137735178Y-97143081D01*
X137723000Y-97089491D01*
X137723000Y-96817668D01*
X137742685Y-96750629D01*
X137795489Y-96704874D01*
X137812395Y-96698595D01*
X137870398Y-96681744D01*
X138011865Y-96598081D01*
X138128081Y-96481865D01*
X138211744Y-96340398D01*
X138257598Y-96182569D01*
X138260500Y-96145694D01*
X138260500Y-95747257D01*
X138280185Y-95680218D01*
X138332989Y-95634463D01*
X138402147Y-95624519D01*
X138450855Y-95645188D01*
X138451729Y-95643712D01*
X138599803Y-95731282D01*
X138599806Y-95731283D01*
X138757504Y-95777099D01*
X138757510Y-95777100D01*
X138794350Y-95779999D01*
X138794366Y-95780000D01*
X139122500Y-95780000D01*
X139122500Y-95230000D01*
X139622500Y-95230000D01*
X139622500Y-95780000D01*
X139950634Y-95780000D01*
X139950649Y-95779999D01*
X139987489Y-95777100D01*
X139987495Y-95777099D01*
X140145193Y-95731283D01*
X140145196Y-95731282D01*
X140286552Y-95647685D01*
X140286561Y-95647678D01*
X140402678Y-95531561D01*
X140402685Y-95531552D01*
X140486281Y-95390198D01*
X140532100Y-95232486D01*
X140532295Y-95230001D01*
X140532295Y-95230000D01*
X139622500Y-95230000D01*
X139122500Y-95230000D01*
X138212704Y-95230000D01*
X138188440Y-95256248D01*
X138128479Y-95292114D01*
X138058645Y-95289869D01*
X138018987Y-95265468D01*
X138018031Y-95266702D01*
X138011862Y-95261917D01*
X137918437Y-95206666D01*
X137870398Y-95178256D01*
X137870397Y-95178255D01*
X137870396Y-95178255D01*
X137870393Y-95178254D01*
X137712573Y-95132402D01*
X137712567Y-95132401D01*
X137675701Y-95129500D01*
X137675694Y-95129500D01*
X136519306Y-95129500D01*
X136519298Y-95129500D01*
X136482432Y-95132401D01*
X136482426Y-95132402D01*
X136324606Y-95178254D01*
X136324603Y-95178255D01*
X136183137Y-95261917D01*
X136183129Y-95261923D01*
X136066923Y-95378129D01*
X136066917Y-95378137D01*
X135983255Y-95519603D01*
X135983254Y-95519606D01*
X135937402Y-95677426D01*
X135937401Y-95677432D01*
X135934500Y-95714298D01*
X135934500Y-96145701D01*
X135937401Y-96182567D01*
X135937402Y-96182573D01*
X135983254Y-96340393D01*
X135983255Y-96340396D01*
X136066917Y-96481862D01*
X136066923Y-96481870D01*
X136183129Y-96598076D01*
X136183133Y-96598079D01*
X136183135Y-96598081D01*
X136324602Y-96681744D01*
X136382595Y-96698592D01*
X136441480Y-96736197D01*
X136470687Y-96799669D01*
X136472000Y-96817668D01*
X136472000Y-97022409D01*
X136452315Y-97089448D01*
X136399511Y-97135203D01*
X136387006Y-97140114D01*
X136365668Y-97147184D01*
X136216342Y-97239289D01*
X136092289Y-97363342D01*
X136000187Y-97512663D01*
X136000185Y-97512668D01*
X135991831Y-97537880D01*
X135945001Y-97679203D01*
X135945001Y-97679204D01*
X135945000Y-97679204D01*
X135934500Y-97781983D01*
X135934500Y-98782001D01*
X135934501Y-98782019D01*
X135945000Y-98884796D01*
X135945001Y-98884799D01*
X136000185Y-99051331D01*
X136000187Y-99051336D01*
X136032110Y-99103091D01*
X136092094Y-99200342D01*
X136092289Y-99200657D01*
X136165451Y-99273819D01*
X136198936Y-99335142D01*
X136193952Y-99404834D01*
X136165451Y-99449181D01*
X136092289Y-99522342D01*
X136000187Y-99671663D01*
X136000185Y-99671668D01*
X135985457Y-99716116D01*
X135945001Y-99838203D01*
X135945001Y-99838204D01*
X135945000Y-99838204D01*
X135934500Y-99940983D01*
X135934500Y-100941001D01*
X128974000Y-100941001D01*
X128974000Y-100818000D01*
X128136500Y-100818000D01*
X127636500Y-100818000D01*
X127636500Y-100442000D01*
X127656185Y-100374961D01*
X127708989Y-100329206D01*
X127760500Y-100318000D01*
X128973999Y-100318000D01*
X128973999Y-100043028D01*
X128973998Y-100043013D01*
X128963505Y-99940302D01*
X128908358Y-99773880D01*
X128908356Y-99773875D01*
X128829541Y-99646096D01*
X128811101Y-99578703D01*
X128832024Y-99512040D01*
X128885666Y-99467270D01*
X128935080Y-99456999D01*
X129381972Y-99456999D01*
X129381986Y-99456998D01*
X129484697Y-99446505D01*
X129651119Y-99391358D01*
X129651124Y-99391356D01*
X129800345Y-99299315D01*
X129924315Y-99175345D01*
X130016356Y-99026124D01*
X130016358Y-99026119D01*
X130071505Y-98859697D01*
X130071506Y-98859690D01*
X130081999Y-98756986D01*
X130082000Y-98756973D01*
X130082000Y-98532000D01*
X127507001Y-98532000D01*
X127507001Y-98756986D01*
X127517494Y-98859697D01*
X127572641Y-99026119D01*
X127572646Y-99026130D01*
X127651458Y-99153903D01*
X127669899Y-99221295D01*
X127648977Y-99287959D01*
X127595335Y-99332729D01*
X127545922Y-99343000D01*
X127499030Y-99343000D01*
X127499012Y-99343001D01*
X127396302Y-99353494D01*
X127229880Y-99408641D01*
X127229875Y-99408643D01*
X127080654Y-99500684D01*
X126956683Y-99624655D01*
X126956679Y-99624660D01*
X126954826Y-99627665D01*
X126953018Y-99629290D01*
X126952202Y-99630323D01*
X126952025Y-99630183D01*
X126902874Y-99674385D01*
X126833911Y-99685601D01*
X126769831Y-99657752D01*
X126743753Y-99627653D01*
X126742053Y-99624897D01*
X126741712Y-99624344D01*
X126717826Y-99600458D01*
X126684341Y-99539135D01*
X126689325Y-99469443D01*
X126731197Y-99413510D01*
X126766502Y-99395071D01*
X126776334Y-99391814D01*
X126925656Y-99299712D01*
X127049712Y-99175656D01*
X127141814Y-99026334D01*
X127196999Y-98859797D01*
X127207500Y-98757009D01*
X127207499Y-98032000D01*
X127507000Y-98032000D01*
X128544500Y-98032000D01*
X128544500Y-97107000D01*
X129044500Y-97107000D01*
X129044500Y-98032000D01*
X130081999Y-98032000D01*
X130081999Y-97807028D01*
X130081998Y-97807013D01*
X130071505Y-97704302D01*
X130016358Y-97537880D01*
X130016356Y-97537875D01*
X129924315Y-97388654D01*
X129800345Y-97264684D01*
X129651124Y-97172643D01*
X129651119Y-97172641D01*
X129484697Y-97117494D01*
X129484690Y-97117493D01*
X129381986Y-97107000D01*
X129044500Y-97107000D01*
X128544500Y-97107000D01*
X128207028Y-97107000D01*
X128207012Y-97107001D01*
X128104302Y-97117494D01*
X127937880Y-97172641D01*
X127937875Y-97172643D01*
X127788654Y-97264684D01*
X127664684Y-97388654D01*
X127572643Y-97537875D01*
X127572641Y-97537880D01*
X127517494Y-97704302D01*
X127517493Y-97704309D01*
X127507000Y-97807013D01*
X127507000Y-98032000D01*
X127207499Y-98032000D01*
X127207499Y-97806992D01*
X127204947Y-97782013D01*
X127196999Y-97704203D01*
X127196998Y-97704200D01*
X127183920Y-97664733D01*
X127141814Y-97537666D01*
X127049712Y-97388344D01*
X126925656Y-97264288D01*
X126809609Y-97192710D01*
X126776336Y-97172187D01*
X126776331Y-97172185D01*
X126735633Y-97158699D01*
X126609797Y-97117001D01*
X126609795Y-97117000D01*
X126507016Y-97106500D01*
X126507009Y-97106500D01*
X125906452Y-97106500D01*
X125839413Y-97086815D01*
X125793658Y-97034011D01*
X125783714Y-96964853D01*
X125812739Y-96901297D01*
X125818771Y-96894819D01*
X126720855Y-95992736D01*
X126720858Y-95992733D01*
X126727669Y-95982539D01*
X126789312Y-95890285D01*
X126819688Y-95816951D01*
X126836463Y-95776452D01*
X126842281Y-95747203D01*
X126842958Y-95743800D01*
X126842958Y-95743798D01*
X126860501Y-95655606D01*
X126860501Y-95532393D01*
X126860501Y-95527283D01*
X126860500Y-95527257D01*
X126860500Y-95281057D01*
X126880185Y-95214018D01*
X126919401Y-95175520D01*
X127053656Y-95092712D01*
X127177712Y-94968656D01*
X127269814Y-94819334D01*
X127289311Y-94760493D01*
X127329084Y-94703051D01*
X127393600Y-94676228D01*
X127407017Y-94675500D01*
X136111569Y-94675500D01*
X136176202Y-94694478D01*
X136176420Y-94694110D01*
X136177872Y-94694969D01*
X136178608Y-94695185D01*
X136180501Y-94696523D01*
X136183134Y-94698080D01*
X136183135Y-94698081D01*
X136324602Y-94781744D01*
X136355318Y-94790668D01*
X136482426Y-94827597D01*
X136482429Y-94827597D01*
X136482431Y-94827598D01*
X136519306Y-94830500D01*
X136519314Y-94830500D01*
X137675686Y-94830500D01*
X137675694Y-94830500D01*
X137712569Y-94827598D01*
X137712571Y-94827597D01*
X137712573Y-94827597D01*
X137774862Y-94809500D01*
X137870398Y-94781744D01*
X138011865Y-94698081D01*
X138011870Y-94698075D01*
X138018031Y-94693298D01*
X138019339Y-94694984D01*
X138071009Y-94666761D01*
X138140701Y-94671735D01*
X138188441Y-94703752D01*
X138212704Y-94730000D01*
X139122500Y-94730000D01*
X139122500Y-94180000D01*
X139622500Y-94180000D01*
X139622500Y-94730000D01*
X140532295Y-94730000D01*
X140532295Y-94729998D01*
X140532100Y-94727513D01*
X140486281Y-94569801D01*
X140402685Y-94428447D01*
X140402678Y-94428438D01*
X140286561Y-94312321D01*
X140286552Y-94312314D01*
X140145196Y-94228717D01*
X140145193Y-94228716D01*
X139987495Y-94182900D01*
X139987489Y-94182899D01*
X139950649Y-94180000D01*
X139622500Y-94180000D01*
X139122500Y-94180000D01*
X138794350Y-94180000D01*
X138757510Y-94182899D01*
X138757504Y-94182900D01*
X138599806Y-94228716D01*
X138599803Y-94228717D01*
X138451729Y-94316288D01*
X138450711Y-94314566D01*
X138395455Y-94336257D01*
X138326938Y-94322572D01*
X138276697Y-94274017D01*
X138260500Y-94212742D01*
X138260500Y-93814313D01*
X138260499Y-93814298D01*
X138257974Y-93782216D01*
X138257598Y-93777431D01*
X138253749Y-93764184D01*
X138211745Y-93619606D01*
X138211744Y-93619603D01*
X138211744Y-93619602D01*
X138128081Y-93478135D01*
X138128079Y-93478133D01*
X138128076Y-93478129D01*
X138011870Y-93361923D01*
X138011862Y-93361917D01*
X137870396Y-93278255D01*
X137870393Y-93278254D01*
X137712573Y-93232402D01*
X137712567Y-93232401D01*
X137675701Y-93229500D01*
X137675694Y-93229500D01*
X136519306Y-93229500D01*
X136519298Y-93229500D01*
X136482432Y-93232401D01*
X136482426Y-93232402D01*
X136324606Y-93278254D01*
X136324603Y-93278255D01*
X136183137Y-93361917D01*
X136183129Y-93361923D01*
X136156872Y-93388181D01*
X136095549Y-93421666D01*
X136069191Y-93424500D01*
X127407017Y-93424500D01*
X127339978Y-93404815D01*
X127294223Y-93352011D01*
X127289311Y-93339505D01*
X127269814Y-93280666D01*
X127177712Y-93131344D01*
X127053656Y-93007288D01*
X126919402Y-92924480D01*
X126872679Y-92872533D01*
X126860500Y-92818942D01*
X126860500Y-92018393D01*
X126860499Y-92018389D01*
X126855567Y-91993594D01*
X126836463Y-91897548D01*
X126812433Y-91839535D01*
X126799204Y-91807597D01*
X126789313Y-91783716D01*
X126789312Y-91783714D01*
X126744161Y-91716143D01*
X126720858Y-91681267D01*
X126720856Y-91681264D01*
X126630637Y-91591045D01*
X126630606Y-91591016D01*
X125959590Y-90920000D01*
X140888000Y-90920000D01*
X141925500Y-90920000D01*
X141925500Y-89995000D01*
X142425500Y-89995000D01*
X142425500Y-90920000D01*
X143462999Y-90920000D01*
X143462999Y-90695028D01*
X143462998Y-90695013D01*
X143452505Y-90592302D01*
X143397358Y-90425880D01*
X143397356Y-90425875D01*
X143305315Y-90276654D01*
X143181345Y-90152684D01*
X143032124Y-90060643D01*
X143032119Y-90060641D01*
X142865697Y-90005494D01*
X142865690Y-90005493D01*
X142762986Y-89995000D01*
X142425500Y-89995000D01*
X141925500Y-89995000D01*
X141588028Y-89995000D01*
X141588012Y-89995001D01*
X141485302Y-90005494D01*
X141318880Y-90060641D01*
X141318875Y-90060643D01*
X141169654Y-90152684D01*
X141045684Y-90276654D01*
X140953643Y-90425875D01*
X140953641Y-90425880D01*
X140898494Y-90592302D01*
X140898493Y-90592309D01*
X140888000Y-90695013D01*
X140888000Y-90920000D01*
X125959590Y-90920000D01*
X123496819Y-88457229D01*
X123463334Y-88395906D01*
X123460500Y-88369548D01*
X123460500Y-87755005D01*
X124364859Y-87755005D01*
X124385385Y-88002729D01*
X124385387Y-88002738D01*
X124446412Y-88243717D01*
X124546266Y-88471364D01*
X124646564Y-88624882D01*
X125378871Y-87892575D01*
X125394755Y-87951853D01*
X125461898Y-88068147D01*
X125556853Y-88163102D01*
X125673147Y-88230245D01*
X125732424Y-88246128D01*
X124999942Y-88978609D01*
X125046768Y-89015055D01*
X125046770Y-89015056D01*
X125265385Y-89133364D01*
X125265396Y-89133369D01*
X125500506Y-89214083D01*
X125745707Y-89255000D01*
X125994293Y-89255000D01*
X126239493Y-89214083D01*
X126474603Y-89133369D01*
X126474614Y-89133364D01*
X126693228Y-89015057D01*
X126693231Y-89015055D01*
X126740056Y-88978609D01*
X126007575Y-88246128D01*
X126066853Y-88230245D01*
X126183147Y-88163102D01*
X126278102Y-88068147D01*
X126345245Y-87951853D01*
X126361127Y-87892575D01*
X127093434Y-88624882D01*
X127193731Y-88471369D01*
X127293587Y-88243717D01*
X127354612Y-88002738D01*
X127354614Y-88002729D01*
X127375141Y-87755005D01*
X127375141Y-87754994D01*
X127354614Y-87507270D01*
X127354612Y-87507261D01*
X127293587Y-87266282D01*
X127193731Y-87038630D01*
X127093434Y-86885116D01*
X126361127Y-87617423D01*
X126345245Y-87558147D01*
X126278102Y-87441853D01*
X126183147Y-87346898D01*
X126066853Y-87279755D01*
X126007575Y-87263872D01*
X126740057Y-86531390D01*
X126740056Y-86531389D01*
X126693229Y-86494943D01*
X126474614Y-86376635D01*
X126474603Y-86376630D01*
X126239493Y-86295916D01*
X125994293Y-86255000D01*
X125745707Y-86255000D01*
X125500506Y-86295916D01*
X125265396Y-86376630D01*
X125265390Y-86376632D01*
X125046761Y-86494949D01*
X124999942Y-86531388D01*
X124999942Y-86531390D01*
X125732424Y-87263871D01*
X125673147Y-87279755D01*
X125556853Y-87346898D01*
X125461898Y-87441853D01*
X125394755Y-87558147D01*
X125378872Y-87617424D01*
X124646564Y-86885116D01*
X124546267Y-87038632D01*
X124446412Y-87266282D01*
X124385387Y-87507261D01*
X124385385Y-87507270D01*
X124364859Y-87754994D01*
X124364859Y-87755005D01*
X123460500Y-87755005D01*
X123460500Y-86865016D01*
X123480185Y-86797977D01*
X123532989Y-86752222D01*
X123545488Y-86747313D01*
X123604334Y-86727814D01*
X123753656Y-86635712D01*
X123877712Y-86511656D01*
X123969814Y-86362334D01*
X124024999Y-86195797D01*
X124035500Y-86093009D01*
X124035499Y-85292992D01*
X124024999Y-85190203D01*
X123969814Y-85023666D01*
X123877712Y-84874344D01*
X123784049Y-84780681D01*
X123767299Y-84750005D01*
X134029859Y-84750005D01*
X134050385Y-84997729D01*
X134050387Y-84997738D01*
X134111412Y-85238717D01*
X134211266Y-85466364D01*
X134311564Y-85619882D01*
X135011212Y-84920234D01*
X135022482Y-84962292D01*
X135094890Y-85087708D01*
X135197292Y-85190110D01*
X135322708Y-85262518D01*
X135364765Y-85273787D01*
X134664942Y-85973609D01*
X134711768Y-86010055D01*
X134711770Y-86010056D01*
X134930385Y-86128364D01*
X134930396Y-86128369D01*
X135165506Y-86209083D01*
X135410707Y-86250000D01*
X135659293Y-86250000D01*
X135904493Y-86209083D01*
X136139603Y-86128369D01*
X136139614Y-86128364D01*
X136358228Y-86010057D01*
X136358231Y-86010055D01*
X136405056Y-85973609D01*
X135705234Y-85273787D01*
X135747292Y-85262518D01*
X135872708Y-85190110D01*
X135975110Y-85087708D01*
X136047518Y-84962292D01*
X136058787Y-84920235D01*
X136758434Y-85619882D01*
X136858731Y-85466369D01*
X136958587Y-85238717D01*
X137019612Y-84997738D01*
X137019614Y-84997729D01*
X137040141Y-84750005D01*
X140529859Y-84750005D01*
X140550385Y-84997729D01*
X140550387Y-84997738D01*
X140611412Y-85238717D01*
X140711266Y-85466364D01*
X140811564Y-85619882D01*
X141511212Y-84920234D01*
X141522482Y-84962292D01*
X141594890Y-85087708D01*
X141697292Y-85190110D01*
X141822708Y-85262518D01*
X141864765Y-85273787D01*
X141164942Y-85973609D01*
X141211768Y-86010055D01*
X141211770Y-86010056D01*
X141430385Y-86128364D01*
X141430396Y-86128369D01*
X141665506Y-86209083D01*
X141910707Y-86250000D01*
X142159293Y-86250000D01*
X142404493Y-86209083D01*
X142639603Y-86128369D01*
X142639614Y-86128364D01*
X142858228Y-86010057D01*
X142858231Y-86010055D01*
X142905056Y-85973609D01*
X142205234Y-85273787D01*
X142247292Y-85262518D01*
X142372708Y-85190110D01*
X142475110Y-85087708D01*
X142547518Y-84962292D01*
X142558787Y-84920235D01*
X143258434Y-85619882D01*
X143358731Y-85466369D01*
X143458587Y-85238717D01*
X143519612Y-84997738D01*
X143519614Y-84997729D01*
X143540141Y-84750005D01*
X143540141Y-84749994D01*
X143519614Y-84502270D01*
X143519612Y-84502261D01*
X143458587Y-84261282D01*
X143358731Y-84033630D01*
X143258434Y-83880116D01*
X142558787Y-84579764D01*
X142547518Y-84537708D01*
X142475110Y-84412292D01*
X142372708Y-84309890D01*
X142247292Y-84237482D01*
X142205235Y-84226212D01*
X142905057Y-83526390D01*
X142905056Y-83526389D01*
X142858229Y-83489943D01*
X142639614Y-83371635D01*
X142639603Y-83371630D01*
X142404493Y-83290916D01*
X142159293Y-83250000D01*
X141910707Y-83250000D01*
X141665506Y-83290916D01*
X141430396Y-83371630D01*
X141430390Y-83371632D01*
X141211761Y-83489949D01*
X141164942Y-83526388D01*
X141164942Y-83526390D01*
X141864765Y-84226212D01*
X141822708Y-84237482D01*
X141697292Y-84309890D01*
X141594890Y-84412292D01*
X141522482Y-84537708D01*
X141511212Y-84579764D01*
X140811564Y-83880116D01*
X140711267Y-84033632D01*
X140611412Y-84261282D01*
X140550387Y-84502261D01*
X140550385Y-84502270D01*
X140529859Y-84749994D01*
X140529859Y-84750005D01*
X137040141Y-84750005D01*
X137040141Y-84749994D01*
X137019614Y-84502270D01*
X137019612Y-84502261D01*
X136958587Y-84261282D01*
X136858731Y-84033630D01*
X136758434Y-83880116D01*
X136058787Y-84579764D01*
X136047518Y-84537708D01*
X135975110Y-84412292D01*
X135872708Y-84309890D01*
X135747292Y-84237482D01*
X135705235Y-84226212D01*
X136405057Y-83526390D01*
X136405056Y-83526389D01*
X136358229Y-83489943D01*
X136139614Y-83371635D01*
X136139603Y-83371630D01*
X135904493Y-83290916D01*
X135659293Y-83250000D01*
X135410707Y-83250000D01*
X135165506Y-83290916D01*
X134930396Y-83371630D01*
X134930390Y-83371632D01*
X134711761Y-83489949D01*
X134664942Y-83526388D01*
X134664942Y-83526390D01*
X135364765Y-84226212D01*
X135322708Y-84237482D01*
X135197292Y-84309890D01*
X135094890Y-84412292D01*
X135022482Y-84537708D01*
X135011212Y-84579764D01*
X134311564Y-83880116D01*
X134211267Y-84033632D01*
X134111412Y-84261282D01*
X134050387Y-84502261D01*
X134050385Y-84502270D01*
X134029859Y-84749994D01*
X134029859Y-84750005D01*
X123767299Y-84750005D01*
X123750564Y-84719358D01*
X123755548Y-84649666D01*
X123784049Y-84605319D01*
X123820556Y-84568812D01*
X123877712Y-84511656D01*
X123969814Y-84362334D01*
X124024999Y-84195797D01*
X124035500Y-84093009D01*
X124035499Y-83292992D01*
X124024999Y-83190203D01*
X123969814Y-83023666D01*
X123877712Y-82874344D01*
X123753656Y-82750288D01*
X123604334Y-82658186D01*
X123545493Y-82638688D01*
X123488051Y-82598916D01*
X123461228Y-82534400D01*
X123460500Y-82520983D01*
X123460500Y-82085863D01*
X123454858Y-82057502D01*
X123454858Y-82057501D01*
X123450740Y-82036799D01*
X123448481Y-82025440D01*
X123436463Y-81965017D01*
X123416929Y-81917857D01*
X123389312Y-81851183D01*
X123351197Y-81794142D01*
X123320858Y-81748736D01*
X123320856Y-81748733D01*
X123230637Y-81658514D01*
X123230606Y-81658485D01*
X122921299Y-81349178D01*
X122887814Y-81287855D01*
X122892798Y-81218163D01*
X122901593Y-81199497D01*
X122903007Y-81197049D01*
X123191804Y-80696837D01*
X123216060Y-80642009D01*
X123239927Y-80500079D01*
X123222840Y-80357175D01*
X123222839Y-80357172D01*
X123222838Y-80357169D01*
X123166187Y-80224875D01*
X123166186Y-80224874D01*
X123166186Y-80224873D01*
X123078309Y-80118443D01*
X123074550Y-80113890D01*
X123026140Y-80078542D01*
X123026125Y-80078532D01*
X121384363Y-79130662D01*
X121329540Y-79106409D01*
X121329537Y-79106408D01*
X121187611Y-79082542D01*
X121187609Y-79082541D01*
X121044703Y-79099629D01*
X121044700Y-79099630D01*
X120912406Y-79156281D01*
X120801421Y-79247918D01*
X120801421Y-79247919D01*
X120766073Y-79296328D01*
X120766063Y-79296343D01*
X119818193Y-80938105D01*
X119793940Y-80992928D01*
X119793939Y-80992931D01*
X119770073Y-81134857D01*
X119770072Y-81134859D01*
X119787160Y-81277765D01*
X119787161Y-81277768D01*
X119843812Y-81410063D01*
X119843814Y-81410065D01*
X119897496Y-81475082D01*
X119925000Y-81539310D01*
X119913413Y-81608213D01*
X119866415Y-81659913D01*
X119842140Y-81671312D01*
X119670504Y-81730235D01*
X119670495Y-81730238D01*
X119466371Y-81840705D01*
X119466365Y-81840709D01*
X119283222Y-81983255D01*
X119283219Y-81983258D01*
X119126016Y-82154026D01*
X118999075Y-82348325D01*
X118905842Y-82560873D01*
X118848866Y-82785865D01*
X118848864Y-82785876D01*
X118829700Y-83017167D01*
X118829700Y-83017180D01*
X118848864Y-83248471D01*
X118848866Y-83248482D01*
X118905842Y-83473474D01*
X118999075Y-83686022D01*
X119126016Y-83880321D01*
X119126019Y-83880325D01*
X119126021Y-83880327D01*
X119283216Y-84051087D01*
X119436662Y-84170518D01*
X119477475Y-84227229D01*
X119484500Y-84268372D01*
X119484500Y-95013918D01*
X119484500Y-95013920D01*
X119484499Y-95013920D01*
X119513340Y-95158907D01*
X119513343Y-95158917D01*
X119569912Y-95295488D01*
X119569916Y-95295495D01*
X119591992Y-95328534D01*
X119591993Y-95328537D01*
X119591994Y-95328537D01*
X119640624Y-95401319D01*
X119652051Y-95418420D01*
X119652052Y-95418421D01*
X120417930Y-96184298D01*
X120451415Y-96245621D01*
X120450456Y-96302415D01*
X120448865Y-96308697D01*
X120429700Y-96539993D01*
X120429700Y-96540006D01*
X120448865Y-96771304D01*
X120448865Y-96771307D01*
X120450454Y-96777578D01*
X120447830Y-96847398D01*
X120417930Y-96895700D01*
X119652047Y-97661584D01*
X119652043Y-97661589D01*
X119609733Y-97724914D01*
X119609732Y-97724916D01*
X119569919Y-97784499D01*
X119569912Y-97784511D01*
X119513343Y-97921082D01*
X119513340Y-97921092D01*
X119484500Y-98066079D01*
X119484500Y-106248801D01*
X119464815Y-106315840D01*
X119436663Y-106346654D01*
X119283218Y-106466085D01*
X119126016Y-106636852D01*
X118999075Y-106831151D01*
X118905842Y-107043699D01*
X118848866Y-107268691D01*
X118848864Y-107268702D01*
X118829700Y-107499993D01*
X118829700Y-107500006D01*
X115535001Y-107500006D01*
X115535001Y-76251439D01*
X115535033Y-76248602D01*
X115535036Y-76248490D01*
X115537003Y-76162500D01*
X115539354Y-76141151D01*
X115572769Y-75973167D01*
X115573211Y-75970941D01*
X115580264Y-75947689D01*
X115646132Y-75788668D01*
X115657586Y-75767240D01*
X115753217Y-75624118D01*
X115768628Y-75605340D01*
X115890340Y-75483628D01*
X115909118Y-75468217D01*
X116052240Y-75372586D01*
X116073668Y-75361132D01*
X116232689Y-75295264D01*
X116255941Y-75288211D01*
X116426156Y-75254353D01*
X116447498Y-75252003D01*
X116533690Y-75250030D01*
X116536350Y-75250000D01*
X186211962Y-75250000D01*
X186279001Y-75269685D01*
G37*
G04 #@! TD.AperFunction*
G04 #@! TA.AperFunction,Conductor*
G36*
X190460838Y-112462748D02*
G01*
X190514313Y-112507718D01*
X190534985Y-112574459D01*
X190534999Y-112576291D01*
X190534999Y-114248560D01*
X190534967Y-114251398D01*
X190532996Y-114337495D01*
X190530645Y-114358848D01*
X190496789Y-114529053D01*
X190489733Y-114552314D01*
X190423869Y-114711325D01*
X190412410Y-114732764D01*
X190316787Y-114875874D01*
X190301366Y-114894664D01*
X190179664Y-115016366D01*
X190160874Y-115031787D01*
X190017764Y-115127410D01*
X189996325Y-115138869D01*
X189837314Y-115204733D01*
X189814053Y-115211789D01*
X189643848Y-115245645D01*
X189622495Y-115247996D01*
X189538937Y-115249908D01*
X189536396Y-115249967D01*
X189533560Y-115249999D01*
X187858042Y-115249999D01*
X187791003Y-115230314D01*
X187745248Y-115177510D01*
X187735304Y-115108352D01*
X187764329Y-115044796D01*
X187823107Y-115007022D01*
X187831386Y-115004898D01*
X187932538Y-114982632D01*
X188276789Y-114866640D01*
X188276794Y-114866639D01*
X188606464Y-114714116D01*
X188606477Y-114714109D01*
X188917717Y-114526843D01*
X188917733Y-114526832D01*
X189206929Y-114306992D01*
X189223110Y-114291664D01*
X189223110Y-114291663D01*
X187975698Y-113044251D01*
X188077330Y-112970412D01*
X188255412Y-112792330D01*
X188329251Y-112690698D01*
X189574028Y-113935475D01*
X189574029Y-113935475D01*
X189705827Y-113780311D01*
X189705838Y-113780297D01*
X189909681Y-113479651D01*
X189909683Y-113479647D01*
X190079838Y-113158702D01*
X190079847Y-113158684D01*
X190214302Y-112821227D01*
X190214304Y-112821220D01*
X190291519Y-112543118D01*
X190328421Y-112483788D01*
X190391541Y-112453827D01*
X190460838Y-112462748D01*
G37*
G04 #@! TD.AperFunction*
G04 #@! TA.AperFunction,Conductor*
G36*
X189536509Y-75250037D02*
G01*
X189542232Y-75250177D01*
X189622583Y-75252145D01*
X189643728Y-75254490D01*
X189814013Y-75288362D01*
X189837261Y-75295413D01*
X189996257Y-75361272D01*
X190017689Y-75372728D01*
X190150493Y-75461465D01*
X190160775Y-75468335D01*
X190179565Y-75483756D01*
X190301243Y-75605434D01*
X190316664Y-75624224D01*
X190412269Y-75767307D01*
X190423728Y-75788745D01*
X190489583Y-75947731D01*
X190496639Y-75970993D01*
X190530508Y-76141266D01*
X190532854Y-76162421D01*
X190534962Y-76248490D01*
X190534999Y-76251526D01*
X190534999Y-77923711D01*
X190515314Y-77990750D01*
X190462510Y-78036505D01*
X190393352Y-78046449D01*
X190329796Y-78017424D01*
X190292022Y-77958646D01*
X190291519Y-77956884D01*
X190214304Y-77678779D01*
X190214302Y-77678772D01*
X190079847Y-77341315D01*
X190079838Y-77341297D01*
X189909683Y-77020352D01*
X189909681Y-77020348D01*
X189705829Y-76719690D01*
X189705822Y-76719680D01*
X189574029Y-76564523D01*
X189574028Y-76564523D01*
X188329251Y-77809300D01*
X188255412Y-77707670D01*
X188077330Y-77529588D01*
X187975698Y-77455748D01*
X189223110Y-76208336D01*
X189223110Y-76208334D01*
X189206929Y-76193007D01*
X189206928Y-76193006D01*
X188917733Y-75973167D01*
X188917717Y-75973156D01*
X188606477Y-75785890D01*
X188606464Y-75785883D01*
X188276794Y-75633360D01*
X188276789Y-75633359D01*
X187932538Y-75517367D01*
X187831381Y-75495101D01*
X187770140Y-75461465D01*
X187736806Y-75400060D01*
X187741962Y-75330381D01*
X187783971Y-75274550D01*
X187849495Y-75250295D01*
X187858036Y-75250000D01*
X189533473Y-75250000D01*
X189536509Y-75250037D01*
G37*
G04 #@! TD.AperFunction*
G04 #@! TA.AperFunction,Conductor*
G36*
X149518014Y-85801643D02*
G01*
X149683356Y-85966985D01*
X149686783Y-85975258D01*
X149685747Y-85980071D01*
X149409206Y-86592760D01*
X149402679Y-86598891D01*
X149394090Y-86598767D01*
X149038804Y-86452563D01*
X149032457Y-86446245D01*
X149032436Y-86446195D01*
X148886232Y-86090909D01*
X148886253Y-86081955D01*
X148892237Y-86075794D01*
X149504928Y-85799251D01*
X149513878Y-85798972D01*
X149518014Y-85801643D01*
G37*
G04 #@! TD.AperFunction*
G04 #@! TA.AperFunction,Conductor*
G36*
X157647879Y-96250197D02*
G01*
X158002619Y-96398097D01*
X158008936Y-96404443D01*
X158008915Y-96413397D01*
X158008412Y-96414452D01*
X157623470Y-97127719D01*
X157616525Y-97133372D01*
X157607617Y-97132458D01*
X157604901Y-97130435D01*
X157265727Y-96791261D01*
X157262306Y-96783367D01*
X157245506Y-96265534D01*
X157245500Y-96265155D01*
X157245500Y-96261678D01*
X157248927Y-96253405D01*
X157257177Y-96249978D01*
X157643357Y-96249297D01*
X157647879Y-96250197D01*
G37*
G04 #@! TD.AperFunction*
G04 #@! TA.AperFunction,Conductor*
G36*
X161660879Y-89502676D02*
G01*
X161863850Y-89541809D01*
X162415515Y-89648171D01*
X162422990Y-89653102D01*
X162425000Y-89659659D01*
X162425000Y-90140340D01*
X162421573Y-90148613D01*
X162415515Y-90151828D01*
X161660879Y-90297323D01*
X161652107Y-90295525D01*
X161647176Y-90288050D01*
X161646964Y-90285870D01*
X161646000Y-89900000D01*
X161646964Y-89514133D01*
X161650412Y-89505870D01*
X161658693Y-89502464D01*
X161660879Y-89502676D01*
G37*
G04 #@! TD.AperFunction*
G04 #@! TA.AperFunction,Conductor*
G36*
X146281000Y-95634000D02*
G01*
X146126927Y-96003552D01*
X145483779Y-95740000D01*
X145483779Y-95490000D01*
X146126927Y-95264448D01*
X146281000Y-95634000D01*
G37*
G04 #@! TD.AperFunction*
G04 #@! TA.AperFunction,Conductor*
G36*
X159235000Y-97800000D02*
G01*
X159235000Y-98300000D01*
X158435000Y-98450000D01*
X158434000Y-98050000D01*
X158435000Y-97650000D01*
X159235000Y-97800000D01*
G37*
G04 #@! TD.AperFunction*
G04 #@! TA.AperFunction,Conductor*
G36*
X147080000Y-95509000D02*
G01*
X147080000Y-95759000D01*
X146433073Y-96003552D01*
X146279000Y-95634000D01*
X146433073Y-95264448D01*
X147080000Y-95509000D01*
G37*
G04 #@! TD.AperFunction*
G04 #@! TA.AperFunction,Conductor*
G36*
X145646000Y-97647000D02*
G01*
X145491927Y-98016552D01*
X144853553Y-97815000D01*
X144853553Y-97565000D01*
X145491927Y-97277448D01*
X145646000Y-97647000D01*
G37*
G04 #@! TD.AperFunction*
G04 #@! TA.AperFunction,Conductor*
G36*
X155624032Y-93106236D02*
G01*
X155630681Y-93112234D01*
X155631817Y-93117262D01*
X155631817Y-93351113D01*
X155628390Y-93359386D01*
X155624507Y-93361958D01*
X154998806Y-93615207D01*
X154989851Y-93615135D01*
X154983617Y-93608864D01*
X154880677Y-93361958D01*
X154835875Y-93254499D01*
X154835855Y-93245550D01*
X154983807Y-92890679D01*
X154990153Y-92884363D01*
X154998520Y-92884157D01*
X155624032Y-93106236D01*
G37*
G04 #@! TD.AperFunction*
G04 #@! TA.AperFunction,Conductor*
G36*
X151953641Y-89998722D02*
G01*
X151959958Y-90005068D01*
X151960085Y-90013651D01*
X151722856Y-90642337D01*
X151716729Y-90648867D01*
X151711909Y-90649906D01*
X151478079Y-90649906D01*
X151469806Y-90646479D01*
X151467138Y-90642351D01*
X151228983Y-90013660D01*
X151229257Y-90004709D01*
X151235420Y-89998717D01*
X151590025Y-89850875D01*
X151598974Y-89850855D01*
X151953641Y-89998722D01*
G37*
G04 #@! TD.AperFunction*
G04 #@! TA.AperFunction,Conductor*
G36*
X164793956Y-89198655D02*
G01*
X164800274Y-89205002D01*
X164800337Y-89213749D01*
X164552923Y-89840606D01*
X164546698Y-89847044D01*
X164542040Y-89848011D01*
X164308194Y-89848011D01*
X164299921Y-89844584D01*
X164297199Y-89840310D01*
X164069266Y-89213571D01*
X164069658Y-89204626D01*
X164075759Y-89198774D01*
X164430500Y-89050875D01*
X164439449Y-89050855D01*
X164793956Y-89198655D01*
G37*
G04 #@! TD.AperFunction*
G04 #@! TA.AperFunction,Conductor*
G36*
X146985572Y-92007315D02*
G01*
X146986139Y-92007570D01*
X147602968Y-92305805D01*
X147608924Y-92312491D01*
X147609575Y-92316338D01*
X147609575Y-92550188D01*
X147606148Y-92558461D01*
X147601106Y-92561433D01*
X146985048Y-92738424D01*
X146976150Y-92737415D01*
X146971018Y-92731681D01*
X146822832Y-92376250D01*
X146822812Y-92367301D01*
X146970272Y-92013610D01*
X146976618Y-92007294D01*
X146985572Y-92007315D01*
G37*
G04 #@! TD.AperFunction*
G04 #@! TA.AperFunction,Conductor*
G36*
X154355102Y-98540425D02*
G01*
X154361419Y-98546771D01*
X154361537Y-98555377D01*
X154357708Y-98565460D01*
X154356498Y-98567806D01*
X154331133Y-98605768D01*
X154319499Y-98664255D01*
X154319443Y-98664827D01*
X154319339Y-98664816D01*
X154318738Y-98668096D01*
X154122866Y-99183965D01*
X154116726Y-99190483D01*
X154111928Y-99191512D01*
X153878096Y-99191512D01*
X153869823Y-99188085D01*
X153867147Y-99183935D01*
X153669782Y-98659838D01*
X153669256Y-98657998D01*
X153658867Y-98605769D01*
X153637965Y-98574488D01*
X153636748Y-98572118D01*
X153630436Y-98555356D01*
X153630727Y-98546408D01*
X153636880Y-98540438D01*
X153991507Y-98392587D01*
X154000456Y-98392567D01*
X154355102Y-98540425D01*
G37*
G04 #@! TD.AperFunction*
G04 #@! TA.AperFunction,Conductor*
G36*
X157770190Y-94056427D02*
G01*
X157772861Y-94060563D01*
X158010553Y-94689344D01*
X158010273Y-94698294D01*
X158004111Y-94704280D01*
X157649504Y-94852123D01*
X157640550Y-94852144D01*
X157640500Y-94852123D01*
X157285892Y-94704280D01*
X157279574Y-94697933D01*
X157279450Y-94689345D01*
X157517143Y-94060562D01*
X157523274Y-94054036D01*
X157528087Y-94053000D01*
X157761917Y-94053000D01*
X157770190Y-94056427D01*
G37*
G04 #@! TD.AperFunction*
M02*
