G04 #@! TF.GenerationSoftware,KiCad,Pcbnew,8.0.2*
G04 #@! TF.CreationDate,2024-06-09T12:52:48+02:00*
G04 #@! TF.ProjectId,Remote,52656d6f-7465-42e6-9b69-6361645f7063,rev?*
G04 #@! TF.SameCoordinates,Original*
G04 #@! TF.FileFunction,Soldermask,Top*
G04 #@! TF.FilePolarity,Negative*
%FSLAX46Y46*%
G04 Gerber Fmt 4.6, Leading zero omitted, Abs format (unit mm)*
G04 Created by KiCad (PCBNEW 8.0.2) date 2024-06-09 12:52:48*
%MOMM*%
%LPD*%
G01*
G04 APERTURE LIST*
G04 Aperture macros list*
%AMRoundRect*
0 Rectangle with rounded corners*
0 $1 Rounding radius*
0 $2 $3 $4 $5 $6 $7 $8 $9 X,Y pos of 4 corners*
0 Add a 4 corners polygon primitive as box body*
4,1,4,$2,$3,$4,$5,$6,$7,$8,$9,$2,$3,0*
0 Add four circle primitives for the rounded corners*
1,1,$1+$1,$2,$3*
1,1,$1+$1,$4,$5*
1,1,$1+$1,$6,$7*
1,1,$1+$1,$8,$9*
0 Add four rect primitives between the rounded corners*
20,1,$1+$1,$2,$3,$4,$5,0*
20,1,$1+$1,$4,$5,$6,$7,0*
20,1,$1+$1,$6,$7,$8,$9,0*
20,1,$1+$1,$8,$9,$2,$3,0*%
%AMRotRect*
0 Rectangle, with rotation*
0 The origin of the aperture is its center*
0 $1 length*
0 $2 width*
0 $3 Rotation angle, in degrees counterclockwise*
0 Add horizontal line*
21,1,$1,$2,0,0,$3*%
G04 Aperture macros list end*
%ADD10RoundRect,0.250000X-0.450000X0.350000X-0.450000X-0.350000X0.450000X-0.350000X0.450000X0.350000X0*%
%ADD11RoundRect,0.250000X0.350000X0.450000X-0.350000X0.450000X-0.350000X-0.450000X0.350000X-0.450000X0*%
%ADD12R,1.700000X1.700000*%
%ADD13O,1.700000X1.700000*%
%ADD14C,1.500000*%
%ADD15RoundRect,0.250000X0.450000X-0.325000X0.450000X0.325000X-0.450000X0.325000X-0.450000X-0.325000X0*%
%ADD16RoundRect,0.250000X-0.350000X-0.450000X0.350000X-0.450000X0.350000X0.450000X-0.350000X0.450000X0*%
%ADD17R,1.200000X1.400000*%
%ADD18RoundRect,0.250000X0.450000X-0.350000X0.450000X0.350000X-0.450000X0.350000X-0.450000X-0.350000X0*%
%ADD19C,0.800000*%
%ADD20C,6.400000*%
%ADD21RotRect,1.800000X1.800000X240.000000*%
%ADD22C,1.800000*%
%ADD23RotRect,1.800000X1.800000X300.000000*%
%ADD24C,2.000000*%
%ADD25R,1.800000X1.800000*%
%ADD26RoundRect,0.250000X0.337500X0.475000X-0.337500X0.475000X-0.337500X-0.475000X0.337500X-0.475000X0*%
%ADD27RoundRect,0.250000X-0.337500X-0.475000X0.337500X-0.475000X0.337500X0.475000X-0.337500X0.475000X0*%
%ADD28R,1.600000X0.550000*%
%ADD29R,0.550000X1.600000*%
%ADD30RoundRect,0.150000X-0.512500X-0.150000X0.512500X-0.150000X0.512500X0.150000X-0.512500X0.150000X0*%
%ADD31RoundRect,0.250000X-0.537500X-0.425000X0.537500X-0.425000X0.537500X0.425000X-0.537500X0.425000X0*%
%ADD32R,0.300000X0.650000*%
%ADD33RoundRect,0.250000X0.537500X0.425000X-0.537500X0.425000X-0.537500X-0.425000X0.537500X-0.425000X0*%
%ADD34R,1.500000X1.100000*%
%ADD35R,2.000000X2.000000*%
G04 APERTURE END LIST*
D10*
X143845000Y-74176000D03*
X143845000Y-76176000D03*
D11*
X100745000Y-80367000D03*
X98745000Y-80367000D03*
D10*
X121066000Y-72128000D03*
X121066000Y-74128000D03*
D12*
X126405000Y-77685000D03*
D13*
X123865000Y-77685000D03*
X126405000Y-75145000D03*
X123865000Y-75145000D03*
X126405000Y-72605000D03*
X123865000Y-72605000D03*
D14*
X136495000Y-84984000D03*
D15*
X109006000Y-84567000D03*
X109006000Y-82517000D03*
D16*
X124135000Y-60174000D03*
X126135000Y-60174000D03*
D10*
X118531000Y-82542000D03*
X118531000Y-84542000D03*
D11*
X87945000Y-73976000D03*
X85945000Y-73976000D03*
D17*
X104854000Y-77616000D03*
X104854000Y-79816000D03*
X106554000Y-79816000D03*
X106554000Y-77616000D03*
D18*
X84545000Y-65619000D03*
X84545000Y-63619000D03*
D10*
X84622000Y-84776000D03*
X84622000Y-86776000D03*
D19*
X146095000Y-58984000D03*
X146797944Y-57286944D03*
X146797944Y-60681056D03*
X148495000Y-56584000D03*
D20*
X148495000Y-58984000D03*
D19*
X148495000Y-61384000D03*
X150192056Y-57286944D03*
X150192056Y-60681056D03*
X150895000Y-58984000D03*
D10*
X114721000Y-82542000D03*
X114721000Y-84542000D03*
D21*
X83215000Y-60743469D03*
D22*
X81945000Y-62943174D03*
D14*
X136495000Y-92984000D03*
X136495000Y-88984000D03*
D19*
X146095000Y-91484000D03*
X146797944Y-89786944D03*
X146797944Y-93181056D03*
X148495000Y-89084000D03*
D20*
X148495000Y-91484000D03*
D19*
X148495000Y-93884000D03*
X150192056Y-89786944D03*
X150192056Y-93181056D03*
X150895000Y-91484000D03*
D15*
X121066000Y-78201000D03*
X121066000Y-76151000D03*
D23*
X83195001Y-89591064D03*
D22*
X81945000Y-87426000D03*
D24*
X132245000Y-60176000D03*
X138745000Y-60176000D03*
X132245000Y-64676000D03*
X138745000Y-64676000D03*
D11*
X100745000Y-78208000D03*
X98745000Y-78208000D03*
D10*
X106745000Y-85576000D03*
X106745000Y-87576000D03*
D25*
X83545000Y-73926000D03*
D22*
X83545000Y-76466000D03*
D24*
X97245000Y-85176000D03*
X103745000Y-85176000D03*
X97245000Y-89676000D03*
X103745000Y-89676000D03*
D26*
X106741500Y-73382000D03*
X104666500Y-73382000D03*
D27*
X104539500Y-81916400D03*
X106614500Y-81916400D03*
D15*
X116626000Y-84567000D03*
X116626000Y-82517000D03*
D24*
X97245000Y-60176000D03*
X103745000Y-60176000D03*
X97245000Y-64676000D03*
X103745000Y-64676000D03*
D28*
X109455000Y-72360000D03*
X109455000Y-73160000D03*
X109455000Y-73960000D03*
X109455000Y-74760000D03*
X109455000Y-75560000D03*
X109455000Y-76360000D03*
X109455000Y-77160000D03*
X109455000Y-77960000D03*
D29*
X110905000Y-79410000D03*
X111705000Y-79410000D03*
X112505000Y-79410000D03*
X113305000Y-79410000D03*
X114105000Y-79410000D03*
X114905000Y-79410000D03*
X115705000Y-79410000D03*
X116505000Y-79410000D03*
D28*
X117955000Y-77960000D03*
X117955000Y-77160000D03*
X117955000Y-76360000D03*
X117955000Y-75560000D03*
X117955000Y-74760000D03*
X117955000Y-73960000D03*
X117955000Y-73160000D03*
X117955000Y-72360000D03*
D29*
X116505000Y-70910000D03*
X115705000Y-70910000D03*
X114905000Y-70910000D03*
X114105000Y-70910000D03*
X113305000Y-70910000D03*
X112505000Y-70910000D03*
X111705000Y-70910000D03*
X110905000Y-70910000D03*
D30*
X98807500Y-73956000D03*
X98807500Y-75856000D03*
X101082500Y-74906000D03*
D11*
X126135000Y-69826000D03*
X124135000Y-69826000D03*
D31*
X87629500Y-78208000D03*
X90504500Y-78208000D03*
D26*
X106741500Y-75541000D03*
X104666500Y-75541000D03*
D32*
X115003000Y-68526000D03*
X115503000Y-68526000D03*
X116003000Y-68526000D03*
X116503000Y-68526000D03*
X117003000Y-68526000D03*
X117503000Y-68526000D03*
X118003000Y-68526000D03*
X118503000Y-68526000D03*
X118503000Y-67376000D03*
X118003000Y-67376000D03*
X117503000Y-67376000D03*
X117003000Y-67376000D03*
X116503000Y-67376000D03*
X116003000Y-67376000D03*
X115503000Y-67376000D03*
X115003000Y-67376000D03*
D33*
X106760500Y-71096000D03*
X103885500Y-71096000D03*
D34*
X138856000Y-80240000D03*
X129956000Y-80240000D03*
X138856000Y-77700000D03*
X129956000Y-77700000D03*
X138856000Y-75160000D03*
X129956000Y-75160000D03*
X138856000Y-72620000D03*
X129956000Y-72620000D03*
X138856000Y-70080000D03*
X129956000Y-70080000D03*
D27*
X87521500Y-80494000D03*
X89596500Y-80494000D03*
D10*
X110911000Y-82542000D03*
X110911000Y-84542000D03*
D15*
X112816000Y-84567000D03*
X112816000Y-82517000D03*
D18*
X106847000Y-63460000D03*
X106847000Y-61460000D03*
D25*
X146545000Y-73890000D03*
D22*
X146545000Y-76390000D03*
D35*
X87580000Y-82671000D03*
D24*
X87580000Y-67681000D03*
M02*
