G04 #@! TF.GenerationSoftware,KiCad,Pcbnew,8.0.2*
G04 #@! TF.CreationDate,2024-06-08T23:01:55+02:00*
G04 #@! TF.ProjectId,Remote,52656d6f-7465-42e6-9b69-6361645f7063,rev?*
G04 #@! TF.SameCoordinates,Original*
G04 #@! TF.FileFunction,Copper,L1,Top*
G04 #@! TF.FilePolarity,Positive*
%FSLAX46Y46*%
G04 Gerber Fmt 4.6, Leading zero omitted, Abs format (unit mm)*
G04 Created by KiCad (PCBNEW 8.0.2) date 2024-06-08 23:01:55*
%MOMM*%
%LPD*%
G01*
G04 APERTURE LIST*
G04 Aperture macros list*
%AMRoundRect*
0 Rectangle with rounded corners*
0 $1 Rounding radius*
0 $2 $3 $4 $5 $6 $7 $8 $9 X,Y pos of 4 corners*
0 Add a 4 corners polygon primitive as box body*
4,1,4,$2,$3,$4,$5,$6,$7,$8,$9,$2,$3,0*
0 Add four circle primitives for the rounded corners*
1,1,$1+$1,$2,$3*
1,1,$1+$1,$4,$5*
1,1,$1+$1,$6,$7*
1,1,$1+$1,$8,$9*
0 Add four rect primitives between the rounded corners*
20,1,$1+$1,$2,$3,$4,$5,0*
20,1,$1+$1,$4,$5,$6,$7,0*
20,1,$1+$1,$6,$7,$8,$9,0*
20,1,$1+$1,$8,$9,$2,$3,0*%
%AMRotRect*
0 Rectangle, with rotation*
0 The origin of the aperture is its center*
0 $1 length*
0 $2 width*
0 $3 Rotation angle, in degrees counterclockwise*
0 Add horizontal line*
21,1,$1,$2,0,0,$3*%
G04 Aperture macros list end*
G04 #@! TA.AperFunction,SMDPad,CuDef*
%ADD10C,1.500000*%
G04 #@! TD*
G04 #@! TA.AperFunction,SMDPad,CuDef*
%ADD11RoundRect,0.250000X-0.450000X0.350000X-0.450000X-0.350000X0.450000X-0.350000X0.450000X0.350000X0*%
G04 #@! TD*
G04 #@! TA.AperFunction,SMDPad,CuDef*
%ADD12RoundRect,0.250000X0.350000X0.450000X-0.350000X0.450000X-0.350000X-0.450000X0.350000X-0.450000X0*%
G04 #@! TD*
G04 #@! TA.AperFunction,ComponentPad*
%ADD13R,1.700000X1.700000*%
G04 #@! TD*
G04 #@! TA.AperFunction,ComponentPad*
%ADD14O,1.700000X1.700000*%
G04 #@! TD*
G04 #@! TA.AperFunction,SMDPad,CuDef*
%ADD15RoundRect,0.250000X0.450000X-0.325000X0.450000X0.325000X-0.450000X0.325000X-0.450000X-0.325000X0*%
G04 #@! TD*
G04 #@! TA.AperFunction,SMDPad,CuDef*
%ADD16RoundRect,0.250000X-0.350000X-0.450000X0.350000X-0.450000X0.350000X0.450000X-0.350000X0.450000X0*%
G04 #@! TD*
G04 #@! TA.AperFunction,SMDPad,CuDef*
%ADD17R,1.200000X1.400000*%
G04 #@! TD*
G04 #@! TA.AperFunction,SMDPad,CuDef*
%ADD18RoundRect,0.250000X0.450000X-0.350000X0.450000X0.350000X-0.450000X0.350000X-0.450000X-0.350000X0*%
G04 #@! TD*
G04 #@! TA.AperFunction,ComponentPad*
%ADD19C,0.800000*%
G04 #@! TD*
G04 #@! TA.AperFunction,ComponentPad*
%ADD20C,6.400000*%
G04 #@! TD*
G04 #@! TA.AperFunction,ComponentPad*
%ADD21RotRect,1.800000X1.800000X240.000000*%
G04 #@! TD*
G04 #@! TA.AperFunction,ComponentPad*
%ADD22C,1.800000*%
G04 #@! TD*
G04 #@! TA.AperFunction,ComponentPad*
%ADD23RotRect,1.800000X1.800000X300.000000*%
G04 #@! TD*
G04 #@! TA.AperFunction,ComponentPad*
%ADD24C,2.000000*%
G04 #@! TD*
G04 #@! TA.AperFunction,ComponentPad*
%ADD25R,1.800000X1.800000*%
G04 #@! TD*
G04 #@! TA.AperFunction,SMDPad,CuDef*
%ADD26RoundRect,0.250000X0.337500X0.475000X-0.337500X0.475000X-0.337500X-0.475000X0.337500X-0.475000X0*%
G04 #@! TD*
G04 #@! TA.AperFunction,SMDPad,CuDef*
%ADD27RoundRect,0.250000X-0.337500X-0.475000X0.337500X-0.475000X0.337500X0.475000X-0.337500X0.475000X0*%
G04 #@! TD*
G04 #@! TA.AperFunction,SMDPad,CuDef*
%ADD28R,1.600000X0.550000*%
G04 #@! TD*
G04 #@! TA.AperFunction,SMDPad,CuDef*
%ADD29R,0.550000X1.600000*%
G04 #@! TD*
G04 #@! TA.AperFunction,SMDPad,CuDef*
%ADD30RoundRect,0.150000X-0.512500X-0.150000X0.512500X-0.150000X0.512500X0.150000X-0.512500X0.150000X0*%
G04 #@! TD*
G04 #@! TA.AperFunction,SMDPad,CuDef*
%ADD31RoundRect,0.250000X-0.537500X-0.425000X0.537500X-0.425000X0.537500X0.425000X-0.537500X0.425000X0*%
G04 #@! TD*
G04 #@! TA.AperFunction,SMDPad,CuDef*
%ADD32R,0.300000X0.650000*%
G04 #@! TD*
G04 #@! TA.AperFunction,SMDPad,CuDef*
%ADD33RoundRect,0.250000X0.537500X0.425000X-0.537500X0.425000X-0.537500X-0.425000X0.537500X-0.425000X0*%
G04 #@! TD*
G04 #@! TA.AperFunction,SMDPad,CuDef*
%ADD34R,1.500000X1.100000*%
G04 #@! TD*
G04 #@! TA.AperFunction,ComponentPad*
%ADD35R,2.000000X2.000000*%
G04 #@! TD*
G04 #@! TA.AperFunction,ViaPad*
%ADD36C,0.800000*%
G04 #@! TD*
G04 #@! TA.AperFunction,Conductor*
%ADD37C,0.250000*%
G04 #@! TD*
G04 #@! TA.AperFunction,Conductor*
%ADD38C,0.500000*%
G04 #@! TD*
G04 #@! TA.AperFunction,Conductor*
%ADD39C,1.000000*%
G04 #@! TD*
G04 APERTURE END LIST*
D10*
X136495000Y-84984000D03*
X136495000Y-88984000D03*
X136495000Y-92984000D03*
D11*
X143845000Y-74176000D03*
X143845000Y-76176000D03*
D12*
X100745000Y-80367000D03*
X98745000Y-80367000D03*
D11*
X121066000Y-72128000D03*
X121066000Y-74128000D03*
D13*
X126405000Y-77685000D03*
D14*
X123865000Y-77685000D03*
X126405000Y-75145000D03*
X123865000Y-75145000D03*
X126405000Y-72605000D03*
X123865000Y-72605000D03*
D15*
X109006000Y-84567000D03*
X109006000Y-82517000D03*
D16*
X124135000Y-60174000D03*
X126135000Y-60174000D03*
D11*
X118531000Y-82542000D03*
X118531000Y-84542000D03*
D12*
X87945000Y-73976000D03*
X85945000Y-73976000D03*
D17*
X104854000Y-77616000D03*
X104854000Y-79816000D03*
X106554000Y-79816000D03*
X106554000Y-77616000D03*
D18*
X84545000Y-65619000D03*
X84545000Y-63619000D03*
D11*
X84622000Y-84776000D03*
X84622000Y-86776000D03*
D19*
X146095000Y-58984000D03*
X146797944Y-57286944D03*
X146797944Y-60681056D03*
X148495000Y-56584000D03*
D20*
X148495000Y-58984000D03*
D19*
X148495000Y-61384000D03*
X150192056Y-57286944D03*
X150192056Y-60681056D03*
X150895000Y-58984000D03*
D11*
X114721000Y-82542000D03*
X114721000Y-84542000D03*
D21*
X83215000Y-60743469D03*
D22*
X81945000Y-62943174D03*
D19*
X146095000Y-91484000D03*
X146797944Y-89786944D03*
X146797944Y-93181056D03*
X148495000Y-89084000D03*
D20*
X148495000Y-91484000D03*
D19*
X148495000Y-93884000D03*
X150192056Y-89786944D03*
X150192056Y-93181056D03*
X150895000Y-91484000D03*
D15*
X121066000Y-78201000D03*
X121066000Y-76151000D03*
D23*
X83195001Y-89591064D03*
D22*
X81945000Y-87426000D03*
D24*
X132245000Y-60176000D03*
X138745000Y-60176000D03*
X132245000Y-64676000D03*
X138745000Y-64676000D03*
D12*
X100745000Y-78208000D03*
X98745000Y-78208000D03*
D11*
X106745000Y-85576000D03*
X106745000Y-87576000D03*
D25*
X83545000Y-73926000D03*
D22*
X83545000Y-76466000D03*
D24*
X97245000Y-85176000D03*
X103745000Y-85176000D03*
X97245000Y-89676000D03*
X103745000Y-89676000D03*
D26*
X106741500Y-73382000D03*
X104666500Y-73382000D03*
D27*
X104539500Y-81916400D03*
X106614500Y-81916400D03*
D15*
X116626000Y-84567000D03*
X116626000Y-82517000D03*
D24*
X97245000Y-60176000D03*
X103745000Y-60176000D03*
X97245000Y-64676000D03*
X103745000Y-64676000D03*
D28*
X109455000Y-72360000D03*
X109455000Y-73160000D03*
X109455000Y-73960000D03*
X109455000Y-74760000D03*
X109455000Y-75560000D03*
X109455000Y-76360000D03*
X109455000Y-77160000D03*
X109455000Y-77960000D03*
D29*
X110905000Y-79410000D03*
X111705000Y-79410000D03*
X112505000Y-79410000D03*
X113305000Y-79410000D03*
X114105000Y-79410000D03*
X114905000Y-79410000D03*
X115705000Y-79410000D03*
X116505000Y-79410000D03*
D28*
X117955000Y-77960000D03*
X117955000Y-77160000D03*
X117955000Y-76360000D03*
X117955000Y-75560000D03*
X117955000Y-74760000D03*
X117955000Y-73960000D03*
X117955000Y-73160000D03*
X117955000Y-72360000D03*
D29*
X116505000Y-70910000D03*
X115705000Y-70910000D03*
X114905000Y-70910000D03*
X114105000Y-70910000D03*
X113305000Y-70910000D03*
X112505000Y-70910000D03*
X111705000Y-70910000D03*
X110905000Y-70910000D03*
D30*
X98807500Y-73956000D03*
X98807500Y-75856000D03*
X101082500Y-74906000D03*
D12*
X126135000Y-69826000D03*
X124135000Y-69826000D03*
D31*
X87629500Y-78208000D03*
X90504500Y-78208000D03*
D26*
X106741500Y-75541000D03*
X104666500Y-75541000D03*
D32*
X115003000Y-68526000D03*
X115503000Y-68526000D03*
X116003000Y-68526000D03*
X116503000Y-68526000D03*
X117003000Y-68526000D03*
X117503000Y-68526000D03*
X118003000Y-68526000D03*
X118503000Y-68526000D03*
X118503000Y-67376000D03*
X118003000Y-67376000D03*
X117503000Y-67376000D03*
X117003000Y-67376000D03*
X116503000Y-67376000D03*
X116003000Y-67376000D03*
X115503000Y-67376000D03*
X115003000Y-67376000D03*
D33*
X106760500Y-71096000D03*
X103885500Y-71096000D03*
D34*
X138856000Y-80240000D03*
X129956000Y-80240000D03*
X138856000Y-77700000D03*
X129956000Y-77700000D03*
X138856000Y-75160000D03*
X129956000Y-75160000D03*
X138856000Y-72620000D03*
X129956000Y-72620000D03*
X138856000Y-70080000D03*
X129956000Y-70080000D03*
D27*
X87521500Y-80494000D03*
X89596500Y-80494000D03*
D11*
X110911000Y-82542000D03*
X110911000Y-84542000D03*
D15*
X112816000Y-84567000D03*
X112816000Y-82517000D03*
D18*
X106847000Y-63460000D03*
X106847000Y-61460000D03*
D25*
X146545000Y-73890000D03*
D22*
X146545000Y-76390000D03*
D35*
X87580000Y-82671000D03*
D24*
X87580000Y-67681000D03*
D36*
X143870000Y-74859000D03*
X134495000Y-92984000D03*
X134495000Y-88984000D03*
X134495000Y-84984000D03*
X123357000Y-69826000D03*
X119355002Y-76176000D03*
X106760500Y-70207000D03*
X113745000Y-73976000D03*
X112943000Y-67667000D03*
X108101786Y-75579069D03*
X83545000Y-78589000D03*
X83545000Y-71731000D03*
X107355000Y-77573000D03*
X107990000Y-80748000D03*
X111673000Y-77547600D03*
X120563000Y-59920000D03*
X120145000Y-77976000D03*
X106745000Y-84776000D03*
X116545000Y-73176000D03*
X113304525Y-69776000D03*
X126145000Y-68976000D03*
X101370000Y-80367000D03*
X110545000Y-79410000D03*
X108531957Y-72297751D03*
X110745000Y-66376000D03*
X115706007Y-78317712D03*
X119355002Y-74779000D03*
D37*
X136245000Y-88984000D02*
X136495000Y-89234000D01*
X134495000Y-88984000D02*
X136245000Y-88984000D01*
X136495000Y-84984000D02*
X134495000Y-84984000D01*
X136495000Y-85234000D02*
X136495000Y-84984000D01*
X136495000Y-92984000D02*
X134495000Y-92984000D01*
X143870000Y-74201000D02*
X143845000Y-74176000D01*
X143870000Y-74859000D02*
X143870000Y-74201000D01*
X143870000Y-74859000D02*
X143845000Y-74834000D01*
X143845000Y-74834000D02*
X143845000Y-74176000D01*
X108063717Y-75541000D02*
X106741500Y-75541000D01*
X108101786Y-75579069D02*
X108063717Y-75541000D01*
X108120855Y-75560000D02*
X109455000Y-75560000D01*
X108101786Y-75579069D02*
X108120855Y-75560000D01*
D38*
X111273000Y-74760000D02*
X111673000Y-75160000D01*
X87629500Y-78208000D02*
X87629500Y-78462000D01*
X119355002Y-76684998D02*
X118880000Y-77160000D01*
X106760500Y-70207000D02*
X106760500Y-73363000D01*
X118880000Y-77160000D02*
X117955000Y-77160000D01*
X87580000Y-82671000D02*
X87580000Y-80552500D01*
X111165000Y-76360000D02*
X112181000Y-76360000D01*
X109455000Y-74760000D02*
X111273000Y-74760000D01*
X87580000Y-80552500D02*
X87521500Y-80494000D01*
D37*
X106741500Y-73382000D02*
X106974000Y-73382000D01*
D38*
X119355002Y-76176000D02*
X119355002Y-76684998D01*
X111673000Y-75160000D02*
X111673000Y-75922000D01*
X111603000Y-75922000D02*
X111165000Y-76360000D01*
X111743000Y-75922000D02*
X112181000Y-76360000D01*
X83545000Y-76466000D02*
X81945000Y-74866000D01*
X87521500Y-80494000D02*
X87521500Y-78316000D01*
X106951000Y-73382000D02*
X108329000Y-74760000D01*
X123357000Y-69826000D02*
X124135000Y-69826000D01*
X113197000Y-76360000D02*
X114905000Y-76360000D01*
X81945000Y-74866000D02*
X81945000Y-63037469D01*
X87521500Y-78316000D02*
X87629500Y-78208000D01*
X112181000Y-76360000D02*
X112435000Y-76360000D01*
X83545000Y-76466000D02*
X81945000Y-78066000D01*
X111673000Y-75922000D02*
X111673000Y-76360000D01*
X81945000Y-78066000D02*
X81945000Y-87428295D01*
X109455000Y-76360000D02*
X111165000Y-76360000D01*
X114905000Y-76360000D02*
X115705000Y-77160000D01*
X106741500Y-73382000D02*
X106951000Y-73382000D01*
X108329000Y-74760000D02*
X109455000Y-74760000D01*
X81945000Y-87428295D02*
X81955000Y-87438295D01*
X112435000Y-76360000D02*
X113197000Y-76360000D01*
X113311000Y-76360000D02*
X113451000Y-76360000D01*
X115705000Y-77160000D02*
X117955000Y-77160000D01*
X81945000Y-63037469D02*
X81850705Y-62943174D01*
D39*
X109006000Y-84567000D02*
X109006000Y-86463000D01*
X103885500Y-71096000D02*
X102529000Y-71096000D01*
X104854000Y-79816000D02*
X103037000Y-79816000D01*
X104539500Y-81916400D02*
X103062400Y-81916400D01*
X104666500Y-73382000D02*
X103037000Y-73382000D01*
D38*
X121053000Y-77976000D02*
X121066000Y-77963000D01*
X120145000Y-77976000D02*
X121053000Y-77976000D01*
X109471000Y-73976000D02*
X112345000Y-73976000D01*
D37*
X109455000Y-73960000D02*
X109471000Y-73976000D01*
D39*
X112816000Y-84567000D02*
X112816000Y-86705000D01*
D37*
X107312000Y-77616000D02*
X107355000Y-77573000D01*
D39*
X116626000Y-84567000D02*
X116626000Y-86657000D01*
X123865000Y-72605000D02*
X122745000Y-71485000D01*
D38*
X117955000Y-74760000D02*
X115545000Y-74760000D01*
D37*
X106554000Y-77616000D02*
X107312000Y-77616000D01*
X104666500Y-75541000D02*
X104666500Y-77428500D01*
X107770000Y-76591000D02*
X105779000Y-76591000D01*
X109455000Y-77160000D02*
X108339000Y-77160000D01*
X104666500Y-77428500D02*
X104854000Y-77616000D01*
X104854000Y-77516000D02*
X104854000Y-77616000D01*
X105779000Y-76591000D02*
X104854000Y-77516000D01*
X108339000Y-77160000D02*
X107770000Y-76591000D01*
X109455000Y-77960000D02*
X108791000Y-77960000D01*
X106614500Y-79876500D02*
X106554000Y-79816000D01*
X108791000Y-77960000D02*
X106935000Y-79816000D01*
X106614500Y-81891000D02*
X106614500Y-79876500D01*
X83595000Y-73976000D02*
X83545000Y-73926000D01*
X85945000Y-73976000D02*
X83595000Y-73976000D01*
X83225000Y-89561065D02*
X83225000Y-89638000D01*
X84622000Y-88164065D02*
X83225000Y-89561065D01*
X84622000Y-86955000D02*
X84622000Y-88164065D01*
X84545000Y-62073469D02*
X83215000Y-60743469D01*
X83215000Y-60743469D02*
X83120705Y-60743469D01*
X84545000Y-63442000D02*
X84545000Y-62073469D01*
X84368000Y-63619000D02*
X84545000Y-63442000D01*
X146205000Y-76176000D02*
X146445000Y-76416000D01*
X143845000Y-76176000D02*
X146205000Y-76176000D01*
X116545000Y-73176000D02*
X116561000Y-73160000D01*
X116561000Y-73160000D02*
X117955000Y-73160000D01*
X110905000Y-70910000D02*
X110905000Y-67736000D01*
X110905000Y-67736000D02*
X106745000Y-63576000D01*
X111705000Y-67016000D02*
X116515000Y-62206000D01*
X111705000Y-70910000D02*
X111705000Y-67016000D01*
X116515000Y-62206000D02*
X122103000Y-62206000D01*
X122103000Y-62206000D02*
X124135000Y-60174000D01*
X113305000Y-69776475D02*
X113305000Y-70910000D01*
X126405000Y-72605000D02*
X126405000Y-70096000D01*
X126145000Y-68976000D02*
X126135000Y-68986000D01*
X113304525Y-69776000D02*
X113305000Y-69776475D01*
X126405000Y-70096000D02*
X126135000Y-69826000D01*
X126135000Y-68986000D02*
X126135000Y-69826000D01*
X98807500Y-75856000D02*
X98807500Y-78145500D01*
X98807500Y-78145500D02*
X98745000Y-78208000D01*
X98745000Y-78208000D02*
X98745000Y-80367000D01*
X87945000Y-72006000D02*
X87945000Y-73976000D01*
X84545000Y-65796000D02*
X84545000Y-68606000D01*
X84545000Y-68606000D02*
X87945000Y-72006000D01*
X84622000Y-78843000D02*
X87945000Y-75520000D01*
X88179000Y-74210000D02*
X87945000Y-73976000D01*
X84368000Y-65619000D02*
X84545000Y-65796000D01*
X84622000Y-84955000D02*
X84622000Y-78843000D01*
X87945000Y-75520000D02*
X87945000Y-73976000D01*
X87945000Y-73976000D02*
X98787500Y-73976000D01*
X98787500Y-73976000D02*
X98807500Y-73956000D01*
X110545000Y-79410000D02*
X110905000Y-79410000D01*
X143845000Y-63136000D02*
X138885000Y-58176000D01*
X118945000Y-58176000D02*
X110745000Y-66376000D01*
X108594206Y-72360000D02*
X109455000Y-72360000D01*
X138885000Y-58176000D02*
X118945000Y-58176000D01*
X143845000Y-74176000D02*
X143845000Y-63136000D01*
X108531957Y-72297751D02*
X108594206Y-72360000D01*
X109006000Y-82517000D02*
X109006000Y-82637000D01*
X110886000Y-84567000D02*
X110911000Y-84542000D01*
X109006000Y-82637000D02*
X110911000Y-84542000D01*
X113305000Y-80148000D02*
X113305000Y-79410000D01*
X110911000Y-82542000D02*
X113305000Y-80148000D01*
X112816000Y-82637000D02*
X114721000Y-84542000D01*
X114696000Y-84567000D02*
X114721000Y-84542000D01*
X112816000Y-82517000D02*
X112816000Y-82637000D01*
X114721000Y-82542000D02*
X114105000Y-81926000D01*
X114105000Y-81926000D02*
X114105000Y-79410000D01*
X118506000Y-84567000D02*
X118531000Y-84542000D01*
X116626000Y-82637000D02*
X118531000Y-84542000D01*
X116626000Y-82517000D02*
X116626000Y-82637000D01*
X115864000Y-81129000D02*
X114905000Y-80170000D01*
X114905000Y-80170000D02*
X114905000Y-79410000D01*
X117118000Y-81129000D02*
X115864000Y-81129000D01*
X118531000Y-82542000D02*
X117118000Y-81129000D01*
X121066000Y-74128000D02*
X121066000Y-75913000D01*
X119355002Y-73838998D02*
X121066000Y-72128000D01*
X123865000Y-75145000D02*
X123865000Y-74927000D01*
X115706007Y-78317712D02*
X115705000Y-78318719D01*
X115705000Y-78318719D02*
X115705000Y-79410000D01*
X123865000Y-74927000D02*
X121066000Y-72128000D01*
X119355002Y-74779000D02*
X119355002Y-73838998D01*
X121833000Y-77192000D02*
X122595000Y-76430000D01*
X119801000Y-77192000D02*
X121833000Y-77192000D01*
X117955000Y-77960000D02*
X119033000Y-77960000D01*
X125120000Y-76430000D02*
X126405000Y-75145000D01*
X119033000Y-77960000D02*
X119801000Y-77192000D01*
X122595000Y-76430000D02*
X125120000Y-76430000D01*
X124680000Y-79410000D02*
X116505000Y-79410000D01*
X126405000Y-77685000D02*
X124680000Y-79410000D01*
X117003000Y-69634000D02*
X117003000Y-68526000D01*
X117955000Y-70586000D02*
X117003000Y-69634000D01*
X117955000Y-72360000D02*
X117955000Y-70586000D01*
X116503000Y-70908000D02*
X116503000Y-68526000D01*
X116505000Y-70910000D02*
X116503000Y-70908000D01*
X115503000Y-69418000D02*
X115503000Y-68623000D01*
X114905000Y-70910000D02*
X114905000Y-70016000D01*
X114905000Y-70016000D02*
X115503000Y-69418000D01*
X114105000Y-69424000D02*
X114105000Y-70910000D01*
X115003000Y-68526000D02*
X114105000Y-69424000D01*
X115705000Y-69938000D02*
X116003000Y-69640000D01*
X115705000Y-70910000D02*
X115705000Y-69938000D01*
X116003000Y-69640000D02*
X116003000Y-68526000D01*
X117003000Y-66934500D02*
X117761500Y-66176000D01*
X117003000Y-67376000D02*
X117003000Y-66934500D01*
X126052000Y-66176000D02*
X129956000Y-70080000D01*
X117761500Y-66176000D02*
X126052000Y-66176000D01*
X133545000Y-76651000D02*
X129956000Y-80240000D01*
X128445000Y-62976000D02*
X133545000Y-68076000D01*
X115003000Y-67376000D02*
X115003000Y-64918000D01*
X115003000Y-64918000D02*
X116945000Y-62976000D01*
X133545000Y-68076000D02*
X133545000Y-76651000D01*
X116945000Y-62976000D02*
X128445000Y-62976000D01*
X116503000Y-66618000D02*
X117745000Y-65376000D01*
X127145000Y-65376000D02*
X131145000Y-69376000D01*
X131145000Y-71431000D02*
X129956000Y-72620000D01*
X131145000Y-69376000D02*
X131145000Y-71431000D01*
X117745000Y-65376000D02*
X127145000Y-65376000D01*
X116503000Y-67376000D02*
X116503000Y-66618000D01*
X127945000Y-63776000D02*
X132745000Y-68576000D01*
X132745000Y-74911000D02*
X129956000Y-77700000D01*
X115503000Y-65618000D02*
X117345000Y-63776000D01*
X117345000Y-63776000D02*
X127945000Y-63776000D01*
X115503000Y-67376000D02*
X115503000Y-65618000D01*
X132745000Y-68576000D02*
X132745000Y-74911000D01*
X131845000Y-73271000D02*
X129956000Y-75160000D01*
X117545000Y-64576000D02*
X127545000Y-64576000D01*
X116003000Y-66118000D02*
X117545000Y-64576000D01*
X116003000Y-67376000D02*
X116003000Y-66118000D01*
X127545000Y-64576000D02*
X131845000Y-68876000D01*
X131845000Y-68876000D02*
X131845000Y-73271000D01*
X103909000Y-85176000D02*
X106309000Y-87576000D01*
X106309000Y-87576000D02*
X106694600Y-87576000D01*
X97245000Y-85176000D02*
X103909000Y-85176000D01*
X97245000Y-60176000D02*
X105563000Y-60176000D01*
X105563000Y-60176000D02*
X106745000Y-61358000D01*
X106745000Y-61358000D02*
X106745000Y-61576000D01*
X132243000Y-60174000D02*
X126135000Y-60174000D01*
X138745000Y-60176000D02*
X132245000Y-60176000D01*
X132245000Y-60176000D02*
X132243000Y-60174000D01*
G04 #@! TA.AperFunction,Conductor*
G36*
X152245000Y-91483217D02*
G01*
X152244989Y-91484840D01*
X152242504Y-91674703D01*
X152241836Y-91686041D01*
X152202051Y-92064573D01*
X152200020Y-92077393D01*
X152121058Y-92448877D01*
X152117699Y-92461414D01*
X152000337Y-92822619D01*
X151995686Y-92834736D01*
X151841209Y-93181697D01*
X151835316Y-93193262D01*
X151645421Y-93522171D01*
X151638352Y-93533056D01*
X151415118Y-93840311D01*
X151406950Y-93850398D01*
X151152818Y-94132640D01*
X151143640Y-94141818D01*
X150861398Y-94395950D01*
X150851311Y-94404118D01*
X150544056Y-94627352D01*
X150533171Y-94634421D01*
X150204262Y-94824316D01*
X150192697Y-94830209D01*
X149845736Y-94984686D01*
X149833619Y-94989337D01*
X149472414Y-95106699D01*
X149459877Y-95110058D01*
X149088393Y-95189020D01*
X149075574Y-95191051D01*
X148992784Y-95199753D01*
X148980750Y-95200429D01*
X144604473Y-95233180D01*
X144537288Y-95213997D01*
X144515864Y-95196864D01*
X144495000Y-95176000D01*
X144495000Y-86734000D01*
X152245000Y-86734000D01*
X152245000Y-91483217D01*
G37*
G04 #@! TD.AperFunction*
G04 #@! TA.AperFunction,Conductor*
G36*
X86988334Y-74896548D02*
G01*
X87032681Y-74925049D01*
X87126344Y-75018712D01*
X87260597Y-75101519D01*
X87307321Y-75153465D01*
X87319500Y-75207057D01*
X87319500Y-75209547D01*
X87299815Y-75276586D01*
X87283181Y-75297228D01*
X84223269Y-78357140D01*
X84223267Y-78357142D01*
X84194898Y-78385511D01*
X84136142Y-78444266D01*
X84107866Y-78486585D01*
X84107865Y-78486586D01*
X84067690Y-78546708D01*
X84067688Y-78546713D01*
X84042827Y-78606732D01*
X84042828Y-78606733D01*
X84020537Y-78660548D01*
X84016486Y-78680913D01*
X83999963Y-78763986D01*
X83996500Y-78781394D01*
X83996500Y-83603983D01*
X83976815Y-83671022D01*
X83924011Y-83716777D01*
X83911510Y-83721686D01*
X83890277Y-83728723D01*
X83852666Y-83741186D01*
X83852663Y-83741187D01*
X83703342Y-83833289D01*
X83579289Y-83957342D01*
X83487187Y-84106663D01*
X83487185Y-84106668D01*
X83481821Y-84122855D01*
X83432001Y-84273203D01*
X83432001Y-84273204D01*
X83432000Y-84273204D01*
X83421500Y-84375983D01*
X83421500Y-85176001D01*
X83421501Y-85176019D01*
X83432000Y-85278796D01*
X83432001Y-85278799D01*
X83487185Y-85445331D01*
X83487187Y-85445336D01*
X83579289Y-85594657D01*
X83672951Y-85688319D01*
X83706436Y-85749642D01*
X83701452Y-85819334D01*
X83672951Y-85863681D01*
X83579289Y-85957342D01*
X83487187Y-86106663D01*
X83487185Y-86106668D01*
X83464608Y-86174801D01*
X83432001Y-86273203D01*
X83432001Y-86273204D01*
X83432000Y-86273204D01*
X83421500Y-86375983D01*
X83421500Y-86714226D01*
X83401815Y-86781265D01*
X83349011Y-86827020D01*
X83279853Y-86836964D01*
X83216297Y-86807939D01*
X83183943Y-86764033D01*
X83182811Y-86761453D01*
X83180924Y-86757151D01*
X83101491Y-86635570D01*
X83053983Y-86562852D01*
X83053980Y-86562849D01*
X83053979Y-86562847D01*
X82896784Y-86392087D01*
X82855268Y-86359774D01*
X82743337Y-86272654D01*
X82702524Y-86215944D01*
X82695500Y-86174801D01*
X82695500Y-78428229D01*
X82715185Y-78361190D01*
X82731815Y-78340552D01*
X83192638Y-77879728D01*
X83253959Y-77846245D01*
X83300722Y-77845102D01*
X83428951Y-77866500D01*
X83428953Y-77866500D01*
X83661048Y-77866500D01*
X83661049Y-77866500D01*
X83889981Y-77828298D01*
X84109503Y-77752936D01*
X84313626Y-77642470D01*
X84320490Y-77637128D01*
X84436614Y-77546745D01*
X84496784Y-77499913D01*
X84653979Y-77329153D01*
X84663656Y-77314342D01*
X84688379Y-77276500D01*
X84780924Y-77134849D01*
X84874157Y-76922300D01*
X84931134Y-76697305D01*
X84931135Y-76697297D01*
X84950300Y-76466006D01*
X84950300Y-76465993D01*
X84931135Y-76234702D01*
X84931133Y-76234691D01*
X84874157Y-76009699D01*
X84780924Y-75797151D01*
X84653983Y-75602852D01*
X84653980Y-75602849D01*
X84653979Y-75602847D01*
X84559195Y-75499884D01*
X84528275Y-75437232D01*
X84536135Y-75367806D01*
X84580283Y-75313651D01*
X84607095Y-75299722D01*
X84687326Y-75269798D01*
X84687326Y-75269797D01*
X84687331Y-75269796D01*
X84802546Y-75183546D01*
X84888796Y-75068331D01*
X84899378Y-75039958D01*
X84941246Y-74984025D01*
X85006710Y-74959606D01*
X85074983Y-74974456D01*
X85103241Y-74995609D01*
X85126344Y-75018712D01*
X85275666Y-75110814D01*
X85442203Y-75165999D01*
X85544991Y-75176500D01*
X86345008Y-75176499D01*
X86345016Y-75176498D01*
X86345019Y-75176498D01*
X86401302Y-75170748D01*
X86447797Y-75165999D01*
X86614334Y-75110814D01*
X86763656Y-75018712D01*
X86857319Y-74925049D01*
X86918642Y-74891564D01*
X86988334Y-74896548D01*
G37*
G04 #@! TD.AperFunction*
G04 #@! TA.AperFunction,Conductor*
G36*
X83302404Y-63685058D02*
G01*
X83339736Y-63744118D01*
X83344500Y-63778158D01*
X83344500Y-64019000D01*
X83344501Y-64019019D01*
X83355000Y-64121796D01*
X83355001Y-64121799D01*
X83406979Y-64278656D01*
X83410186Y-64288334D01*
X83480734Y-64402712D01*
X83502289Y-64437657D01*
X83595951Y-64531319D01*
X83629436Y-64592642D01*
X83624452Y-64662334D01*
X83595951Y-64706681D01*
X83502289Y-64800342D01*
X83410187Y-64949663D01*
X83410185Y-64949668D01*
X83383714Y-65029553D01*
X83355001Y-65116203D01*
X83355001Y-65116204D01*
X83355000Y-65116204D01*
X83344500Y-65218983D01*
X83344500Y-66019001D01*
X83344501Y-66019019D01*
X83355000Y-66121796D01*
X83355001Y-66121799D01*
X83410185Y-66288331D01*
X83410187Y-66288336D01*
X83445069Y-66344888D01*
X83502288Y-66437656D01*
X83626344Y-66561712D01*
X83775666Y-66653814D01*
X83775668Y-66653815D01*
X83796110Y-66660588D01*
X83834502Y-66673310D01*
X83891947Y-66713081D01*
X83918772Y-66777596D01*
X83919500Y-66791016D01*
X83919500Y-68667607D01*
X83923896Y-68689713D01*
X83943535Y-68788444D01*
X83943537Y-68788451D01*
X83951273Y-68807129D01*
X83990685Y-68902281D01*
X83990687Y-68902284D01*
X83990688Y-68902286D01*
X84006352Y-68925728D01*
X84059141Y-69004732D01*
X84059144Y-69004736D01*
X84150586Y-69096178D01*
X84150608Y-69096198D01*
X87283181Y-72228771D01*
X87316666Y-72290094D01*
X87319500Y-72316452D01*
X87319500Y-72744942D01*
X87299815Y-72811981D01*
X87260598Y-72850479D01*
X87208479Y-72882627D01*
X87126342Y-72933289D01*
X87032681Y-73026951D01*
X86971358Y-73060436D01*
X86901666Y-73055452D01*
X86857319Y-73026951D01*
X86763657Y-72933289D01*
X86763656Y-72933288D01*
X86614334Y-72841186D01*
X86447797Y-72786001D01*
X86447795Y-72786000D01*
X86345010Y-72775500D01*
X85544998Y-72775500D01*
X85544980Y-72775501D01*
X85442203Y-72786000D01*
X85442200Y-72786001D01*
X85275668Y-72841185D01*
X85275663Y-72841187D01*
X85126341Y-72933290D01*
X85120681Y-72937766D01*
X85118903Y-72935517D01*
X85069026Y-72962722D01*
X84999337Y-72957704D01*
X84943423Y-72915806D01*
X84926544Y-72884876D01*
X84888797Y-72783671D01*
X84888793Y-72783664D01*
X84802547Y-72668455D01*
X84802544Y-72668452D01*
X84687335Y-72582206D01*
X84687328Y-72582202D01*
X84552482Y-72531908D01*
X84552483Y-72531908D01*
X84492883Y-72525501D01*
X84492881Y-72525500D01*
X84492873Y-72525500D01*
X84492865Y-72525500D01*
X82819500Y-72525500D01*
X82752461Y-72505815D01*
X82706706Y-72453011D01*
X82695500Y-72401500D01*
X82695500Y-64194372D01*
X82715185Y-64127333D01*
X82743338Y-64096518D01*
X82896784Y-63977087D01*
X83053979Y-63806327D01*
X83116692Y-63710336D01*
X83169837Y-63664981D01*
X83239068Y-63655557D01*
X83302404Y-63685058D01*
G37*
G04 #@! TD.AperFunction*
G04 #@! TA.AperFunction,Conductor*
G36*
X122429415Y-77582690D02*
G01*
X122485348Y-77624562D01*
X122509609Y-77688064D01*
X122529936Y-77920403D01*
X122529938Y-77920413D01*
X122591094Y-78148655D01*
X122591096Y-78148659D01*
X122591097Y-78148663D01*
X122661016Y-78298605D01*
X122690965Y-78362830D01*
X122690967Y-78362834D01*
X122781643Y-78492331D01*
X122819721Y-78546713D01*
X122826501Y-78556395D01*
X122826506Y-78556402D01*
X122842923Y-78572819D01*
X122876408Y-78634142D01*
X122871424Y-78703834D01*
X122829552Y-78759767D01*
X122764088Y-78784184D01*
X122755242Y-78784500D01*
X122382011Y-78784500D01*
X122314972Y-78764815D01*
X122269217Y-78712011D01*
X122258653Y-78647898D01*
X122265999Y-78575988D01*
X122266000Y-78575973D01*
X122266000Y-78451000D01*
X120940000Y-78451000D01*
X120872961Y-78431315D01*
X120827206Y-78378511D01*
X120816000Y-78327000D01*
X120816000Y-78075000D01*
X120835685Y-78007961D01*
X120888489Y-77962206D01*
X120940000Y-77951000D01*
X122265999Y-77951000D01*
X122265999Y-77826028D01*
X122265998Y-77826013D01*
X122255078Y-77719119D01*
X122267847Y-77650426D01*
X122290755Y-77618836D01*
X122298400Y-77611191D01*
X122359723Y-77577706D01*
X122429415Y-77582690D01*
G37*
G04 #@! TD.AperFunction*
G04 #@! TA.AperFunction,Conductor*
G36*
X114609809Y-77130185D02*
G01*
X114630451Y-77146819D01*
X115030347Y-77546715D01*
X115063832Y-77608038D01*
X115058848Y-77677730D01*
X115034816Y-77717368D01*
X114973473Y-77785496D01*
X114878828Y-77949427D01*
X114878826Y-77949431D01*
X114854656Y-78023819D01*
X114815218Y-78081494D01*
X114750859Y-78108692D01*
X114736726Y-78109500D01*
X114582130Y-78109500D01*
X114582120Y-78109501D01*
X114518248Y-78116367D01*
X114491742Y-78116367D01*
X114487483Y-78115909D01*
X114427873Y-78109500D01*
X114427864Y-78109500D01*
X113782129Y-78109500D01*
X113782120Y-78109501D01*
X113718248Y-78116367D01*
X113691742Y-78116367D01*
X113687483Y-78115909D01*
X113627873Y-78109500D01*
X113627864Y-78109500D01*
X112982129Y-78109500D01*
X112982120Y-78109501D01*
X112918248Y-78116367D01*
X112891742Y-78116367D01*
X112887483Y-78115909D01*
X112827873Y-78109500D01*
X112827864Y-78109500D01*
X112182129Y-78109500D01*
X112182120Y-78109501D01*
X112118248Y-78116367D01*
X112091742Y-78116367D01*
X112087483Y-78115909D01*
X112027873Y-78109500D01*
X112027864Y-78109500D01*
X111382129Y-78109500D01*
X111382120Y-78109501D01*
X111318248Y-78116367D01*
X111291742Y-78116367D01*
X111287483Y-78115909D01*
X111227873Y-78109500D01*
X111227867Y-78109500D01*
X110879499Y-78109500D01*
X110812460Y-78089815D01*
X110766705Y-78037011D01*
X110755499Y-77985500D01*
X110755499Y-77637129D01*
X110755499Y-77637128D01*
X110749091Y-77577517D01*
X110749089Y-77577513D01*
X110748632Y-77573255D01*
X110748632Y-77546745D01*
X110749089Y-77542486D01*
X110749091Y-77542483D01*
X110755500Y-77482873D01*
X110755499Y-77234498D01*
X110775183Y-77167461D01*
X110827987Y-77121706D01*
X110879499Y-77110500D01*
X111091082Y-77110500D01*
X111091083Y-77110500D01*
X111238917Y-77110500D01*
X111599082Y-77110500D01*
X111746918Y-77110500D01*
X112107082Y-77110500D01*
X112107083Y-77110500D01*
X112254918Y-77110500D01*
X112361082Y-77110500D01*
X113123082Y-77110500D01*
X113237082Y-77110500D01*
X113524918Y-77110500D01*
X114542770Y-77110500D01*
X114609809Y-77130185D01*
G37*
G04 #@! TD.AperFunction*
G04 #@! TA.AperFunction,Conductor*
G36*
X106747039Y-77236185D02*
G01*
X106792794Y-77288989D01*
X106804000Y-77340500D01*
X106804000Y-77366000D01*
X107609048Y-77366000D01*
X107676087Y-77385685D01*
X107696722Y-77402313D01*
X107940267Y-77645858D01*
X107947834Y-77650914D01*
X107982655Y-77674181D01*
X108027459Y-77727794D01*
X108036166Y-77797119D01*
X108006011Y-77860146D01*
X108001445Y-77864964D01*
X107865679Y-78000729D01*
X107804359Y-78034213D01*
X107734667Y-78029229D01*
X107678733Y-77987358D01*
X107654316Y-77921894D01*
X107654000Y-77913047D01*
X107654000Y-77866000D01*
X106428000Y-77866000D01*
X106360961Y-77846315D01*
X106315206Y-77793511D01*
X106304000Y-77742000D01*
X106304000Y-77340500D01*
X106323685Y-77273461D01*
X106376489Y-77227706D01*
X106428000Y-77216500D01*
X106680000Y-77216500D01*
X106747039Y-77236185D01*
G37*
G04 #@! TD.AperFunction*
G04 #@! TA.AperFunction,Conductor*
G36*
X111322514Y-72204089D02*
G01*
X111322517Y-72204091D01*
X111382127Y-72210500D01*
X112027872Y-72210499D01*
X112087483Y-72204091D01*
X112087486Y-72204089D01*
X112091744Y-72203632D01*
X112118254Y-72203632D01*
X112122514Y-72204089D01*
X112122517Y-72204091D01*
X112182127Y-72210500D01*
X112827872Y-72210499D01*
X112887483Y-72204091D01*
X112887486Y-72204089D01*
X112891744Y-72203632D01*
X112918254Y-72203632D01*
X112922514Y-72204089D01*
X112922517Y-72204091D01*
X112982127Y-72210500D01*
X113627872Y-72210499D01*
X113687483Y-72204091D01*
X113687486Y-72204089D01*
X113691744Y-72203632D01*
X113718254Y-72203632D01*
X113722514Y-72204089D01*
X113722517Y-72204091D01*
X113782127Y-72210500D01*
X114427872Y-72210499D01*
X114487483Y-72204091D01*
X114487486Y-72204089D01*
X114491744Y-72203632D01*
X114518254Y-72203632D01*
X114522514Y-72204089D01*
X114522517Y-72204091D01*
X114582127Y-72210500D01*
X115227872Y-72210499D01*
X115287483Y-72204091D01*
X115287486Y-72204089D01*
X115291744Y-72203632D01*
X115318254Y-72203632D01*
X115322514Y-72204089D01*
X115322517Y-72204091D01*
X115382127Y-72210500D01*
X115960243Y-72210499D01*
X116027282Y-72230183D01*
X116073037Y-72282987D01*
X116082981Y-72352146D01*
X116053956Y-72415702D01*
X116033129Y-72434817D01*
X115939127Y-72503113D01*
X115812466Y-72643785D01*
X115717821Y-72807715D01*
X115717818Y-72807722D01*
X115662450Y-72978128D01*
X115659326Y-72987744D01*
X115639540Y-73176000D01*
X115659326Y-73364256D01*
X115659327Y-73364259D01*
X115717818Y-73544277D01*
X115717821Y-73544284D01*
X115812467Y-73708216D01*
X115888400Y-73792548D01*
X115939129Y-73848888D01*
X116092265Y-73960148D01*
X116092270Y-73960151D01*
X116265192Y-74037142D01*
X116265197Y-74037144D01*
X116450354Y-74076500D01*
X116450355Y-74076500D01*
X116530501Y-74076500D01*
X116597540Y-74096185D01*
X116643295Y-74148989D01*
X116654501Y-74200500D01*
X116654501Y-74282876D01*
X116661619Y-74349092D01*
X116661619Y-74375599D01*
X116655000Y-74437169D01*
X116655000Y-74510000D01*
X116673591Y-74510000D01*
X116740630Y-74529685D01*
X116772855Y-74559686D01*
X116797454Y-74592546D01*
X116797455Y-74592546D01*
X116797456Y-74592548D01*
X116888540Y-74660734D01*
X116930411Y-74716668D01*
X116935395Y-74786359D01*
X116901909Y-74847682D01*
X116888540Y-74859266D01*
X116797456Y-74927451D01*
X116797454Y-74927454D01*
X116772856Y-74960312D01*
X116716924Y-75002182D01*
X116673591Y-75010000D01*
X116655000Y-75010000D01*
X116655000Y-75082844D01*
X116661619Y-75144398D01*
X116661620Y-75170909D01*
X116660909Y-75177514D01*
X116660909Y-75177517D01*
X116654500Y-75237127D01*
X116654500Y-75237134D01*
X116654500Y-75237135D01*
X116654500Y-75882870D01*
X116654501Y-75882879D01*
X116661367Y-75946751D01*
X116661367Y-75973257D01*
X116660909Y-75977516D01*
X116660909Y-75977517D01*
X116654500Y-76037127D01*
X116654500Y-76210500D01*
X116654501Y-76285500D01*
X116634817Y-76352539D01*
X116582013Y-76398294D01*
X116530501Y-76409500D01*
X116067230Y-76409500D01*
X116000191Y-76389815D01*
X115979549Y-76373181D01*
X115383421Y-75777052D01*
X115383418Y-75777049D01*
X115309192Y-75727454D01*
X115299759Y-75721151D01*
X115260495Y-75694916D01*
X115260492Y-75694914D01*
X115260491Y-75694914D01*
X115123917Y-75638343D01*
X115123907Y-75638340D01*
X114978920Y-75609500D01*
X114978918Y-75609500D01*
X113270918Y-75609500D01*
X112547500Y-75609500D01*
X112480461Y-75589815D01*
X112434706Y-75537011D01*
X112423500Y-75485500D01*
X112423500Y-75086079D01*
X112394659Y-74941092D01*
X112394658Y-74941091D01*
X112394658Y-74941087D01*
X112391508Y-74933483D01*
X112338087Y-74804511D01*
X112338080Y-74804498D01*
X112255952Y-74681585D01*
X112204119Y-74629752D01*
X112151416Y-74577049D01*
X112051698Y-74477331D01*
X111751421Y-74177052D01*
X111751418Y-74177049D01*
X111677192Y-74127454D01*
X111628495Y-74094916D01*
X111628492Y-74094914D01*
X111628491Y-74094914D01*
X111491917Y-74038343D01*
X111491907Y-74038340D01*
X111346920Y-74009500D01*
X111346918Y-74009500D01*
X110694954Y-74009500D01*
X110627915Y-73989815D01*
X110582160Y-73937011D01*
X110572216Y-73867853D01*
X110601241Y-73804297D01*
X110607273Y-73797819D01*
X110612543Y-73792548D01*
X110612542Y-73792548D01*
X110612546Y-73792546D01*
X110637143Y-73759687D01*
X110693076Y-73717818D01*
X110736409Y-73710000D01*
X110755000Y-73710000D01*
X110755000Y-73637172D01*
X110754999Y-73637160D01*
X110748380Y-73575604D01*
X110748380Y-73549090D01*
X110749090Y-73542485D01*
X110749091Y-73542483D01*
X110755500Y-73482873D01*
X110755499Y-72837128D01*
X110749091Y-72777517D01*
X110749089Y-72777513D01*
X110748632Y-72773255D01*
X110748632Y-72746745D01*
X110749089Y-72742486D01*
X110749091Y-72742483D01*
X110755500Y-72682873D01*
X110755499Y-72334498D01*
X110775183Y-72267460D01*
X110827987Y-72221705D01*
X110879499Y-72210499D01*
X111227871Y-72210499D01*
X111227872Y-72210499D01*
X111287483Y-72204091D01*
X111287486Y-72204089D01*
X111291744Y-72203632D01*
X111318254Y-72203632D01*
X111322514Y-72204089D01*
G37*
G04 #@! TD.AperFunction*
G04 #@! TA.AperFunction,Conductor*
G36*
X107814309Y-75310685D02*
G01*
X107834951Y-75327319D01*
X107850580Y-75342948D01*
X107850584Y-75342951D01*
X107973498Y-75425080D01*
X107973511Y-75425087D01*
X108110082Y-75481656D01*
X108110087Y-75481658D01*
X108244812Y-75508457D01*
X108306723Y-75540842D01*
X108341297Y-75601557D01*
X108337558Y-75671327D01*
X108302493Y-75719951D01*
X108303725Y-75721183D01*
X108297456Y-75727451D01*
X108297454Y-75727454D01*
X108272856Y-75760312D01*
X108216924Y-75802182D01*
X108173591Y-75810000D01*
X108155000Y-75810000D01*
X108155000Y-75886149D01*
X108153768Y-75886149D01*
X108138828Y-75949287D01*
X108088534Y-75997787D01*
X108020003Y-76011397D01*
X107983642Y-76002456D01*
X107952454Y-75989538D01*
X107952456Y-75989538D01*
X107952452Y-75989537D01*
X107952449Y-75989536D01*
X107952448Y-75989536D01*
X107928806Y-75984833D01*
X107866895Y-75952446D01*
X107832323Y-75891729D01*
X107829000Y-75863216D01*
X107829000Y-75791000D01*
X106991500Y-75791000D01*
X106991500Y-75841500D01*
X106971815Y-75908539D01*
X106919011Y-75954294D01*
X106867500Y-75965500D01*
X106615500Y-75965500D01*
X106548461Y-75945815D01*
X106502706Y-75893011D01*
X106491500Y-75841500D01*
X106491500Y-75415000D01*
X106511185Y-75347961D01*
X106563989Y-75302206D01*
X106615500Y-75291000D01*
X107747270Y-75291000D01*
X107814309Y-75310685D01*
G37*
G04 #@! TD.AperFunction*
G04 #@! TA.AperFunction,Conductor*
G36*
X114296834Y-65411270D02*
G01*
X114352767Y-65453142D01*
X114377184Y-65518606D01*
X114377500Y-65527452D01*
X114377500Y-66871299D01*
X114369682Y-66914632D01*
X114360686Y-66938753D01*
X114358909Y-66943517D01*
X114352500Y-67003127D01*
X114352500Y-67003134D01*
X114352500Y-67003135D01*
X114352500Y-67748870D01*
X114352501Y-67748876D01*
X114358909Y-67808484D01*
X114395901Y-67907668D01*
X114400885Y-67977360D01*
X114395901Y-67994332D01*
X114358909Y-68093514D01*
X114358908Y-68093516D01*
X114352501Y-68153116D01*
X114352501Y-68153123D01*
X114352500Y-68153135D01*
X114352500Y-68240547D01*
X114332815Y-68307586D01*
X114316181Y-68328228D01*
X113745075Y-68899333D01*
X113683752Y-68932818D01*
X113614060Y-68927834D01*
X113606958Y-68924931D01*
X113584333Y-68914857D01*
X113584327Y-68914855D01*
X113438526Y-68883865D01*
X113399171Y-68875500D01*
X113209879Y-68875500D01*
X113177422Y-68882398D01*
X113024722Y-68914855D01*
X113024717Y-68914857D01*
X112851795Y-68991848D01*
X112851790Y-68991851D01*
X112698654Y-69103111D01*
X112571991Y-69243785D01*
X112561886Y-69261287D01*
X112511318Y-69309501D01*
X112442711Y-69322723D01*
X112377847Y-69296754D01*
X112337319Y-69239840D01*
X112330500Y-69199285D01*
X112330500Y-67326452D01*
X112350185Y-67259413D01*
X112366819Y-67238771D01*
X114165819Y-65439771D01*
X114227142Y-65406286D01*
X114296834Y-65411270D01*
G37*
G04 #@! TD.AperFunction*
G04 #@! TA.AperFunction,Conductor*
G36*
X123483097Y-58821185D02*
G01*
X123528852Y-58873989D01*
X123538796Y-58943147D01*
X123509771Y-59006703D01*
X123471795Y-59035365D01*
X123471813Y-59035395D01*
X123471503Y-59035585D01*
X123468460Y-59037883D01*
X123465670Y-59039183D01*
X123316342Y-59131289D01*
X123192289Y-59255342D01*
X123100187Y-59404663D01*
X123100185Y-59404668D01*
X123082051Y-59459393D01*
X123045001Y-59571203D01*
X123045001Y-59571204D01*
X123045000Y-59571204D01*
X123034500Y-59673983D01*
X123034500Y-60338547D01*
X123014815Y-60405586D01*
X122998181Y-60426228D01*
X121880229Y-61544181D01*
X121818906Y-61577666D01*
X121792548Y-61580500D01*
X116724451Y-61580500D01*
X116657412Y-61560815D01*
X116611657Y-61508011D01*
X116601713Y-61438853D01*
X116630738Y-61375297D01*
X116636770Y-61368819D01*
X117829585Y-60176005D01*
X119167771Y-58837819D01*
X119229094Y-58804334D01*
X119255452Y-58801500D01*
X123416058Y-58801500D01*
X123483097Y-58821185D01*
G37*
G04 #@! TD.AperFunction*
G04 #@! TA.AperFunction,Conductor*
G36*
X144495000Y-63734000D02*
G01*
X152245000Y-63676000D01*
X152245000Y-86734000D01*
X144495000Y-86734000D01*
X144495000Y-95176000D01*
X80353381Y-95176000D01*
X80327600Y-95173290D01*
X80030122Y-95110058D01*
X80017585Y-95106699D01*
X79656380Y-94989337D01*
X79644263Y-94984686D01*
X79297302Y-94830209D01*
X79285737Y-94824316D01*
X78956828Y-94634421D01*
X78945943Y-94627352D01*
X78638688Y-94404118D01*
X78628601Y-94395950D01*
X78346359Y-94141818D01*
X78337181Y-94132640D01*
X78083049Y-93850398D01*
X78074881Y-93840311D01*
X78022451Y-93768148D01*
X77851645Y-93533053D01*
X77844578Y-93522171D01*
X77841139Y-93516214D01*
X77654679Y-93193255D01*
X77648794Y-93181705D01*
X77560770Y-92984000D01*
X133589540Y-92984000D01*
X133609326Y-93172256D01*
X133609327Y-93172259D01*
X133667818Y-93352277D01*
X133667821Y-93352284D01*
X133762467Y-93516216D01*
X133864185Y-93629185D01*
X133889129Y-93656888D01*
X134042265Y-93768148D01*
X134042270Y-93768151D01*
X134215192Y-93845142D01*
X134215197Y-93845144D01*
X134400354Y-93884500D01*
X134400355Y-93884500D01*
X134589644Y-93884500D01*
X134589646Y-93884500D01*
X134774803Y-93845144D01*
X134947730Y-93768151D01*
X135100871Y-93656888D01*
X135103788Y-93653647D01*
X135106600Y-93650526D01*
X135166087Y-93613879D01*
X135198748Y-93609500D01*
X135341851Y-93609500D01*
X135408890Y-93629185D01*
X135443423Y-93662374D01*
X135533402Y-93790877D01*
X135688123Y-93945598D01*
X135867361Y-94071102D01*
X136065670Y-94163575D01*
X136277023Y-94220207D01*
X136459926Y-94236208D01*
X136494998Y-94239277D01*
X136495000Y-94239277D01*
X136495002Y-94239277D01*
X136523254Y-94236805D01*
X136712977Y-94220207D01*
X136924330Y-94163575D01*
X137122639Y-94071102D01*
X137301877Y-93945598D01*
X137456598Y-93790877D01*
X137582102Y-93611639D01*
X137674575Y-93413330D01*
X137731207Y-93201977D01*
X137750277Y-92984000D01*
X137748770Y-92966779D01*
X137746569Y-92941618D01*
X137731207Y-92766023D01*
X137674575Y-92554670D01*
X137582102Y-92356362D01*
X137582100Y-92356359D01*
X137582099Y-92356357D01*
X137456599Y-92177124D01*
X137402330Y-92122855D01*
X137301877Y-92022402D01*
X137122639Y-91896898D01*
X137122640Y-91896898D01*
X137122638Y-91896897D01*
X136995373Y-91837553D01*
X136924330Y-91804425D01*
X136924326Y-91804424D01*
X136924322Y-91804422D01*
X136712977Y-91747793D01*
X136495002Y-91728723D01*
X136494998Y-91728723D01*
X136349682Y-91741436D01*
X136277023Y-91747793D01*
X136277020Y-91747793D01*
X136065677Y-91804422D01*
X136065668Y-91804426D01*
X135867361Y-91896898D01*
X135867357Y-91896900D01*
X135688121Y-92022402D01*
X135533402Y-92177121D01*
X135443425Y-92305623D01*
X135388848Y-92349248D01*
X135341850Y-92358500D01*
X135198748Y-92358500D01*
X135131709Y-92338815D01*
X135106600Y-92317474D01*
X135100873Y-92311114D01*
X135100869Y-92311110D01*
X134947734Y-92199851D01*
X134947729Y-92199848D01*
X134774807Y-92122857D01*
X134774802Y-92122855D01*
X134629001Y-92091865D01*
X134589646Y-92083500D01*
X134400354Y-92083500D01*
X134367897Y-92090398D01*
X134215197Y-92122855D01*
X134215192Y-92122857D01*
X134042270Y-92199848D01*
X134042265Y-92199851D01*
X133889129Y-92311111D01*
X133762466Y-92451785D01*
X133667821Y-92615715D01*
X133667818Y-92615722D01*
X133609327Y-92795740D01*
X133609326Y-92795744D01*
X133589540Y-92984000D01*
X77560770Y-92984000D01*
X77494313Y-92834736D01*
X77489662Y-92822619D01*
X77372300Y-92461414D01*
X77368941Y-92448877D01*
X77345546Y-92338815D01*
X77289978Y-92077391D01*
X77287948Y-92064573D01*
X77267633Y-91871287D01*
X77248162Y-91686029D01*
X77247495Y-91674713D01*
X77245011Y-91484839D01*
X77245000Y-91483217D01*
X77245000Y-62943167D01*
X80539700Y-62943167D01*
X80539700Y-62943180D01*
X80558864Y-63174471D01*
X80558866Y-63174482D01*
X80615842Y-63399474D01*
X80709075Y-63612022D01*
X80836016Y-63806321D01*
X80836019Y-63806325D01*
X80836021Y-63806327D01*
X80993216Y-63977087D01*
X81146662Y-64096518D01*
X81187475Y-64153229D01*
X81194500Y-64194372D01*
X81194500Y-74939918D01*
X81194500Y-74939920D01*
X81194499Y-74939920D01*
X81223340Y-75084907D01*
X81223343Y-75084917D01*
X81279912Y-75221488D01*
X81279920Y-75221502D01*
X81307981Y-75263497D01*
X81307982Y-75263500D01*
X81307983Y-75263500D01*
X81350624Y-75327319D01*
X81362049Y-75344417D01*
X82127930Y-76110298D01*
X82161415Y-76171621D01*
X82160456Y-76228415D01*
X82158865Y-76234697D01*
X82139700Y-76465993D01*
X82139700Y-76466006D01*
X82158865Y-76697304D01*
X82158865Y-76697307D01*
X82160454Y-76703578D01*
X82157830Y-76773398D01*
X82127930Y-76821700D01*
X81362047Y-77587584D01*
X81362043Y-77587589D01*
X81319733Y-77650914D01*
X81319732Y-77650916D01*
X81279919Y-77710499D01*
X81279912Y-77710511D01*
X81223343Y-77847082D01*
X81223340Y-77847092D01*
X81194500Y-77992079D01*
X81194500Y-86174801D01*
X81174815Y-86241840D01*
X81146663Y-86272654D01*
X80993218Y-86392085D01*
X80836016Y-86562852D01*
X80709075Y-86757151D01*
X80615842Y-86969699D01*
X80558866Y-87194691D01*
X80558864Y-87194702D01*
X80539700Y-87425993D01*
X80539700Y-87426006D01*
X80558864Y-87657297D01*
X80558866Y-87657308D01*
X80615842Y-87882300D01*
X80709075Y-88094848D01*
X80836016Y-88289147D01*
X80836019Y-88289151D01*
X80836021Y-88289153D01*
X80993216Y-88459913D01*
X80993219Y-88459915D01*
X80993222Y-88459918D01*
X81176365Y-88602464D01*
X81176371Y-88602468D01*
X81176374Y-88602470D01*
X81380497Y-88712936D01*
X81432206Y-88730687D01*
X81514273Y-88758862D01*
X81571288Y-88799248D01*
X81597419Y-88864047D01*
X81584367Y-88932687D01*
X81569629Y-88955092D01*
X81533815Y-88998467D01*
X81533813Y-88998469D01*
X81477162Y-89130764D01*
X81477161Y-89130767D01*
X81460073Y-89273673D01*
X81460074Y-89273675D01*
X81483939Y-89415599D01*
X81483940Y-89415603D01*
X81483941Y-89415604D01*
X81505221Y-89463708D01*
X81508198Y-89470436D01*
X82456064Y-91112188D01*
X82491423Y-91160615D01*
X82602404Y-91252249D01*
X82602406Y-91252251D01*
X82734701Y-91308902D01*
X82734704Y-91308903D01*
X82734707Y-91308904D01*
X82855152Y-91323305D01*
X82877610Y-91325991D01*
X82877610Y-91325990D01*
X82877611Y-91325991D01*
X82996737Y-91305958D01*
X83019536Y-91302125D01*
X83019536Y-91302124D01*
X83019541Y-91302124D01*
X83074369Y-91277869D01*
X84716132Y-90329996D01*
X84764552Y-90294641D01*
X84856187Y-90183660D01*
X84912841Y-90051358D01*
X84929928Y-89908454D01*
X84910157Y-89790881D01*
X84906062Y-89766528D01*
X84906061Y-89766526D01*
X84906061Y-89766524D01*
X84881806Y-89711696D01*
X84861193Y-89675994D01*
X95739859Y-89675994D01*
X95739859Y-89676005D01*
X95760385Y-89923729D01*
X95760387Y-89923738D01*
X95821412Y-90164717D01*
X95921266Y-90392364D01*
X96021564Y-90545882D01*
X96721212Y-89846234D01*
X96732482Y-89888292D01*
X96804890Y-90013708D01*
X96907292Y-90116110D01*
X97032708Y-90188518D01*
X97074765Y-90199787D01*
X96374942Y-90899609D01*
X96421768Y-90936055D01*
X96421770Y-90936056D01*
X96640385Y-91054364D01*
X96640396Y-91054369D01*
X96875506Y-91135083D01*
X97120707Y-91176000D01*
X97369293Y-91176000D01*
X97614493Y-91135083D01*
X97849603Y-91054369D01*
X97849614Y-91054364D01*
X98068228Y-90936057D01*
X98068231Y-90936055D01*
X98115056Y-90899609D01*
X97415234Y-90199787D01*
X97457292Y-90188518D01*
X97582708Y-90116110D01*
X97685110Y-90013708D01*
X97757518Y-89888292D01*
X97768787Y-89846235D01*
X98468434Y-90545882D01*
X98568731Y-90392369D01*
X98668587Y-90164717D01*
X98729612Y-89923738D01*
X98729614Y-89923729D01*
X98750141Y-89676005D01*
X98750141Y-89675994D01*
X102239859Y-89675994D01*
X102239859Y-89676005D01*
X102260385Y-89923729D01*
X102260387Y-89923738D01*
X102321412Y-90164717D01*
X102421266Y-90392364D01*
X102521564Y-90545882D01*
X103221212Y-89846234D01*
X103232482Y-89888292D01*
X103304890Y-90013708D01*
X103407292Y-90116110D01*
X103532708Y-90188518D01*
X103574765Y-90199787D01*
X102874942Y-90899609D01*
X102921768Y-90936055D01*
X102921770Y-90936056D01*
X103140385Y-91054364D01*
X103140396Y-91054369D01*
X103375506Y-91135083D01*
X103620707Y-91176000D01*
X103869293Y-91176000D01*
X104114493Y-91135083D01*
X104349603Y-91054369D01*
X104349614Y-91054364D01*
X104568228Y-90936057D01*
X104568231Y-90936055D01*
X104615056Y-90899609D01*
X103915234Y-90199787D01*
X103957292Y-90188518D01*
X104082708Y-90116110D01*
X104185110Y-90013708D01*
X104257518Y-89888292D01*
X104268787Y-89846235D01*
X104968434Y-90545882D01*
X105068731Y-90392369D01*
X105168587Y-90164717D01*
X105229612Y-89923738D01*
X105229614Y-89923729D01*
X105250141Y-89676005D01*
X105250141Y-89675994D01*
X105229614Y-89428270D01*
X105229612Y-89428261D01*
X105168587Y-89187282D01*
X105079421Y-88984000D01*
X133589540Y-88984000D01*
X133609326Y-89172256D01*
X133609327Y-89172259D01*
X133667818Y-89352277D01*
X133667821Y-89352284D01*
X133762467Y-89516216D01*
X133864185Y-89629185D01*
X133889129Y-89656888D01*
X134042265Y-89768148D01*
X134042270Y-89768151D01*
X134215192Y-89845142D01*
X134215197Y-89845144D01*
X134400354Y-89884500D01*
X134400355Y-89884500D01*
X134589644Y-89884500D01*
X134589646Y-89884500D01*
X134774803Y-89845144D01*
X134947730Y-89768151D01*
X135100871Y-89656888D01*
X135103788Y-89653647D01*
X135106600Y-89650526D01*
X135166087Y-89613879D01*
X135198748Y-89609500D01*
X135341851Y-89609500D01*
X135408890Y-89629185D01*
X135443423Y-89662374D01*
X135533402Y-89790877D01*
X135688123Y-89945598D01*
X135867361Y-90071102D01*
X136065670Y-90163575D01*
X136277023Y-90220207D01*
X136459926Y-90236208D01*
X136494998Y-90239277D01*
X136495000Y-90239277D01*
X136495002Y-90239277D01*
X136523254Y-90236805D01*
X136712977Y-90220207D01*
X136924330Y-90163575D01*
X137122639Y-90071102D01*
X137301877Y-89945598D01*
X137456598Y-89790877D01*
X137582102Y-89611639D01*
X137674575Y-89413330D01*
X137731207Y-89201977D01*
X137750277Y-88984000D01*
X137731207Y-88766023D01*
X137687383Y-88602470D01*
X137674577Y-88554677D01*
X137674576Y-88554676D01*
X137674575Y-88554670D01*
X137582102Y-88356362D01*
X137582100Y-88356359D01*
X137582099Y-88356357D01*
X137456599Y-88177124D01*
X137381934Y-88102459D01*
X137301877Y-88022402D01*
X137122639Y-87896898D01*
X137122640Y-87896898D01*
X137122638Y-87896897D01*
X136979838Y-87830309D01*
X136924330Y-87804425D01*
X136924326Y-87804424D01*
X136924322Y-87804422D01*
X136712977Y-87747793D01*
X136495002Y-87728723D01*
X136494998Y-87728723D01*
X136349682Y-87741436D01*
X136277023Y-87747793D01*
X136277020Y-87747793D01*
X136065677Y-87804422D01*
X136065668Y-87804426D01*
X135867361Y-87896898D01*
X135867357Y-87896900D01*
X135688121Y-88022402D01*
X135533402Y-88177121D01*
X135443425Y-88305623D01*
X135388848Y-88349248D01*
X135341850Y-88358500D01*
X135198748Y-88358500D01*
X135131709Y-88338815D01*
X135106600Y-88317474D01*
X135100873Y-88311114D01*
X135100869Y-88311110D01*
X134947734Y-88199851D01*
X134947729Y-88199848D01*
X134774807Y-88122857D01*
X134774802Y-88122855D01*
X134629001Y-88091865D01*
X134589646Y-88083500D01*
X134400354Y-88083500D01*
X134367897Y-88090398D01*
X134215197Y-88122855D01*
X134215192Y-88122857D01*
X134042270Y-88199848D01*
X134042265Y-88199851D01*
X133889129Y-88311111D01*
X133762466Y-88451785D01*
X133667821Y-88615715D01*
X133667818Y-88615722D01*
X133611745Y-88788298D01*
X133609326Y-88795744D01*
X133589540Y-88984000D01*
X105079421Y-88984000D01*
X105068731Y-88959630D01*
X104968434Y-88806116D01*
X104268787Y-89505764D01*
X104257518Y-89463708D01*
X104185110Y-89338292D01*
X104082708Y-89235890D01*
X103957292Y-89163482D01*
X103915235Y-89152212D01*
X104615057Y-88452390D01*
X104615056Y-88452389D01*
X104568229Y-88415943D01*
X104349614Y-88297635D01*
X104349603Y-88297630D01*
X104114493Y-88216916D01*
X103869293Y-88176000D01*
X103620707Y-88176000D01*
X103375506Y-88216916D01*
X103140396Y-88297630D01*
X103140390Y-88297632D01*
X102921761Y-88415949D01*
X102874942Y-88452388D01*
X102874942Y-88452390D01*
X103574765Y-89152212D01*
X103532708Y-89163482D01*
X103407292Y-89235890D01*
X103304890Y-89338292D01*
X103232482Y-89463708D01*
X103221212Y-89505764D01*
X102521564Y-88806116D01*
X102421267Y-88959632D01*
X102321412Y-89187282D01*
X102260387Y-89428261D01*
X102260385Y-89428270D01*
X102239859Y-89675994D01*
X98750141Y-89675994D01*
X98729614Y-89428270D01*
X98729612Y-89428261D01*
X98668587Y-89187282D01*
X98568731Y-88959630D01*
X98468434Y-88806116D01*
X97768787Y-89505764D01*
X97757518Y-89463708D01*
X97685110Y-89338292D01*
X97582708Y-89235890D01*
X97457292Y-89163482D01*
X97415235Y-89152212D01*
X98115057Y-88452390D01*
X98115056Y-88452389D01*
X98068229Y-88415943D01*
X97849614Y-88297635D01*
X97849603Y-88297630D01*
X97614493Y-88216916D01*
X97369293Y-88176000D01*
X97120707Y-88176000D01*
X96875506Y-88216916D01*
X96640396Y-88297630D01*
X96640390Y-88297632D01*
X96421761Y-88415949D01*
X96374942Y-88452388D01*
X96374942Y-88452390D01*
X97074765Y-89152212D01*
X97032708Y-89163482D01*
X96907292Y-89235890D01*
X96804890Y-89338292D01*
X96732482Y-89463708D01*
X96721212Y-89505764D01*
X96021564Y-88806116D01*
X95921267Y-88959632D01*
X95821412Y-89187282D01*
X95760387Y-89428261D01*
X95760385Y-89428270D01*
X95739859Y-89675994D01*
X84861193Y-89675994D01*
X84801499Y-89572601D01*
X84591594Y-89209034D01*
X84575121Y-89141134D01*
X84597974Y-89075107D01*
X84611287Y-89059366D01*
X85107857Y-88562799D01*
X85176311Y-88460351D01*
X85189012Y-88429688D01*
X85223463Y-88346517D01*
X85234874Y-88289147D01*
X85235997Y-88283503D01*
X85235997Y-88283500D01*
X85247500Y-88225672D01*
X85247500Y-88102459D01*
X85247500Y-87948016D01*
X85267185Y-87880977D01*
X85319989Y-87835222D01*
X85332488Y-87830313D01*
X85391334Y-87810814D01*
X85540656Y-87718712D01*
X85664712Y-87594656D01*
X85756814Y-87445334D01*
X85811999Y-87278797D01*
X85822500Y-87176009D01*
X85822499Y-86375992D01*
X85811999Y-86273203D01*
X85756814Y-86106666D01*
X85664712Y-85957344D01*
X85571049Y-85863681D01*
X85537564Y-85802358D01*
X85542548Y-85732666D01*
X85571049Y-85688319D01*
X85617370Y-85641998D01*
X85664712Y-85594656D01*
X85756814Y-85445334D01*
X85811999Y-85278797D01*
X85822500Y-85176009D01*
X85822499Y-84375992D01*
X85815871Y-84311112D01*
X85811999Y-84273203D01*
X85811998Y-84273200D01*
X85756814Y-84106666D01*
X85664712Y-83957344D01*
X85540656Y-83833288D01*
X85391334Y-83741186D01*
X85332493Y-83721688D01*
X85275051Y-83681916D01*
X85248228Y-83617400D01*
X85247500Y-83603983D01*
X85247500Y-79153452D01*
X85267185Y-79086413D01*
X85283819Y-79065771D01*
X85706737Y-78642853D01*
X86129821Y-78219768D01*
X86191142Y-78186285D01*
X86260833Y-78191269D01*
X86316767Y-78233141D01*
X86341184Y-78298605D01*
X86341500Y-78307451D01*
X86341500Y-78683001D01*
X86341501Y-78683019D01*
X86352000Y-78785796D01*
X86352001Y-78785799D01*
X86407185Y-78952331D01*
X86407187Y-78952336D01*
X86422604Y-78977331D01*
X86499288Y-79101656D01*
X86623344Y-79225712D01*
X86670827Y-79254999D01*
X86717552Y-79306947D01*
X86728775Y-79375909D01*
X86700931Y-79439992D01*
X86693413Y-79448219D01*
X86591287Y-79550345D01*
X86499187Y-79699663D01*
X86499185Y-79699668D01*
X86477800Y-79764204D01*
X86444001Y-79866203D01*
X86444001Y-79866204D01*
X86444000Y-79866204D01*
X86433500Y-79968983D01*
X86433500Y-81019001D01*
X86433501Y-81019019D01*
X86440735Y-81089827D01*
X86427965Y-81158520D01*
X86380084Y-81209404D01*
X86360713Y-81218609D01*
X86337665Y-81227205D01*
X86222455Y-81313452D01*
X86222452Y-81313455D01*
X86136206Y-81428664D01*
X86136202Y-81428671D01*
X86085908Y-81563517D01*
X86079501Y-81623116D01*
X86079500Y-81623135D01*
X86079500Y-83718870D01*
X86079501Y-83718876D01*
X86085908Y-83778483D01*
X86136202Y-83913328D01*
X86136206Y-83913335D01*
X86222452Y-84028544D01*
X86222455Y-84028547D01*
X86337664Y-84114793D01*
X86337671Y-84114797D01*
X86472517Y-84165091D01*
X86472516Y-84165091D01*
X86479444Y-84165835D01*
X86532127Y-84171500D01*
X88627872Y-84171499D01*
X88687483Y-84165091D01*
X88822331Y-84114796D01*
X88937546Y-84028546D01*
X89023796Y-83913331D01*
X89074091Y-83778483D01*
X89080500Y-83718873D01*
X89080499Y-82441386D01*
X103452001Y-82441386D01*
X103462494Y-82544097D01*
X103517641Y-82710519D01*
X103517643Y-82710524D01*
X103609684Y-82859745D01*
X103733654Y-82983715D01*
X103882875Y-83075756D01*
X103882880Y-83075758D01*
X104049302Y-83130905D01*
X104049309Y-83130906D01*
X104152019Y-83141399D01*
X104289499Y-83141399D01*
X104289500Y-83141398D01*
X104289500Y-82166400D01*
X103452001Y-82166400D01*
X103452001Y-82441386D01*
X89080499Y-82441386D01*
X89080499Y-81842929D01*
X89100184Y-81775891D01*
X89152987Y-81730136D01*
X89205864Y-81720042D01*
X89205864Y-81719000D01*
X89346499Y-81718999D01*
X89846500Y-81718999D01*
X89983972Y-81718999D01*
X89983986Y-81718998D01*
X90086697Y-81708505D01*
X90253119Y-81653358D01*
X90253124Y-81653356D01*
X90402345Y-81561315D01*
X90526315Y-81437345D01*
X90618356Y-81288124D01*
X90618358Y-81288119D01*
X90673505Y-81121697D01*
X90673506Y-81121690D01*
X90683999Y-81018986D01*
X90684000Y-81018973D01*
X90684000Y-80744000D01*
X89846500Y-80744000D01*
X89846500Y-81718999D01*
X89346499Y-81718999D01*
X89346500Y-81718998D01*
X89346500Y-80368000D01*
X89366185Y-80300961D01*
X89418989Y-80255206D01*
X89470500Y-80244000D01*
X90683999Y-80244000D01*
X90683999Y-79969028D01*
X90683998Y-79969013D01*
X90673505Y-79866302D01*
X90618358Y-79699880D01*
X90618356Y-79699875D01*
X90539541Y-79572096D01*
X90521101Y-79504703D01*
X90542024Y-79438040D01*
X90595666Y-79393270D01*
X90645080Y-79382999D01*
X91091972Y-79382999D01*
X91091986Y-79382998D01*
X91194697Y-79372505D01*
X91361119Y-79317358D01*
X91361124Y-79317356D01*
X91510345Y-79225315D01*
X91634315Y-79101345D01*
X91726356Y-78952124D01*
X91726358Y-78952119D01*
X91781505Y-78785697D01*
X91781506Y-78785690D01*
X91791999Y-78682986D01*
X91792000Y-78682973D01*
X91792000Y-78458000D01*
X89217001Y-78458000D01*
X89217001Y-78682986D01*
X89227494Y-78785697D01*
X89282641Y-78952119D01*
X89282646Y-78952130D01*
X89361458Y-79079903D01*
X89379899Y-79147295D01*
X89358977Y-79213959D01*
X89305335Y-79258729D01*
X89255922Y-79269000D01*
X89209030Y-79269000D01*
X89209012Y-79269001D01*
X89106302Y-79279494D01*
X88939880Y-79334641D01*
X88939875Y-79334643D01*
X88790654Y-79426684D01*
X88666683Y-79550655D01*
X88666679Y-79550660D01*
X88664826Y-79553665D01*
X88663018Y-79555290D01*
X88662202Y-79556323D01*
X88662025Y-79556183D01*
X88612874Y-79600385D01*
X88543911Y-79611601D01*
X88479831Y-79583752D01*
X88453753Y-79553653D01*
X88452053Y-79550897D01*
X88451712Y-79550344D01*
X88427826Y-79526458D01*
X88394341Y-79465135D01*
X88399325Y-79395443D01*
X88441197Y-79339510D01*
X88476502Y-79321071D01*
X88486334Y-79317814D01*
X88635656Y-79225712D01*
X88759712Y-79101656D01*
X88851814Y-78952334D01*
X88906999Y-78785797D01*
X88917500Y-78683009D01*
X88917499Y-77733013D01*
X89217000Y-77733013D01*
X89217000Y-77958000D01*
X90254500Y-77958000D01*
X90754500Y-77958000D01*
X91791999Y-77958000D01*
X91791999Y-77733028D01*
X91791998Y-77733013D01*
X91781505Y-77630302D01*
X91726358Y-77463880D01*
X91726356Y-77463875D01*
X91634315Y-77314654D01*
X91510345Y-77190684D01*
X91361124Y-77098643D01*
X91361119Y-77098641D01*
X91194697Y-77043494D01*
X91194690Y-77043493D01*
X91091986Y-77033000D01*
X90754500Y-77033000D01*
X90754500Y-77958000D01*
X90254500Y-77958000D01*
X90254500Y-77033000D01*
X89917028Y-77033000D01*
X89917012Y-77033001D01*
X89814302Y-77043494D01*
X89647880Y-77098641D01*
X89647875Y-77098643D01*
X89498654Y-77190684D01*
X89374684Y-77314654D01*
X89282643Y-77463875D01*
X89282641Y-77463880D01*
X89227494Y-77630302D01*
X89227493Y-77630309D01*
X89217000Y-77733013D01*
X88917499Y-77733013D01*
X88917499Y-77732992D01*
X88914947Y-77708013D01*
X88906999Y-77630203D01*
X88906998Y-77630200D01*
X88893920Y-77590733D01*
X88851814Y-77463666D01*
X88759712Y-77314344D01*
X88635656Y-77190288D01*
X88519609Y-77118710D01*
X88486336Y-77098187D01*
X88486331Y-77098185D01*
X88445633Y-77084699D01*
X88319797Y-77043001D01*
X88319795Y-77043000D01*
X88217016Y-77032500D01*
X88217009Y-77032500D01*
X87616452Y-77032500D01*
X87549413Y-77012815D01*
X87503658Y-76960011D01*
X87493714Y-76890853D01*
X87522739Y-76827297D01*
X87528771Y-76820819D01*
X88430855Y-75918736D01*
X88430858Y-75918733D01*
X88437669Y-75908539D01*
X88499312Y-75816285D01*
X88529688Y-75742951D01*
X88546463Y-75702452D01*
X88552281Y-75673203D01*
X88552958Y-75669800D01*
X88552958Y-75669798D01*
X88558826Y-75640298D01*
X97644500Y-75640298D01*
X97644500Y-76071701D01*
X97647401Y-76108567D01*
X97647402Y-76108573D01*
X97693254Y-76266393D01*
X97693255Y-76266396D01*
X97776917Y-76407862D01*
X97776923Y-76407870D01*
X97893129Y-76524076D01*
X97893133Y-76524079D01*
X97893135Y-76524081D01*
X98034602Y-76607744D01*
X98092595Y-76624592D01*
X98151480Y-76662197D01*
X98180687Y-76725669D01*
X98182000Y-76743668D01*
X98182000Y-76948409D01*
X98162315Y-77015448D01*
X98109511Y-77061203D01*
X98097006Y-77066114D01*
X98075668Y-77073184D01*
X97926342Y-77165289D01*
X97802289Y-77289342D01*
X97710187Y-77438663D01*
X97710185Y-77438668D01*
X97701831Y-77463880D01*
X97655001Y-77605203D01*
X97655001Y-77605204D01*
X97655000Y-77605204D01*
X97644500Y-77707983D01*
X97644500Y-78708001D01*
X97644501Y-78708019D01*
X97655000Y-78810796D01*
X97655001Y-78810799D01*
X97710185Y-78977331D01*
X97710187Y-78977336D01*
X97742110Y-79029091D01*
X97802094Y-79126342D01*
X97802289Y-79126657D01*
X97875451Y-79199819D01*
X97908936Y-79261142D01*
X97903952Y-79330834D01*
X97875451Y-79375181D01*
X97802289Y-79448342D01*
X97710187Y-79597663D01*
X97710185Y-79597668D01*
X97695457Y-79642116D01*
X97655001Y-79764203D01*
X97655001Y-79764204D01*
X97655000Y-79764204D01*
X97644500Y-79866983D01*
X97644500Y-80867001D01*
X97644501Y-80867019D01*
X97655000Y-80969796D01*
X97655001Y-80969799D01*
X97710185Y-81136331D01*
X97710187Y-81136336D01*
X97717102Y-81147547D01*
X97802288Y-81285656D01*
X97926344Y-81409712D01*
X98075666Y-81501814D01*
X98242203Y-81556999D01*
X98344991Y-81567500D01*
X99145008Y-81567499D01*
X99145016Y-81567498D01*
X99145019Y-81567498D01*
X99205546Y-81561315D01*
X99247797Y-81556999D01*
X99414334Y-81501814D01*
X99563656Y-81409712D01*
X99657319Y-81316049D01*
X99718642Y-81282564D01*
X99788334Y-81287548D01*
X99832681Y-81316049D01*
X99926344Y-81409712D01*
X100075666Y-81501814D01*
X100242203Y-81556999D01*
X100344991Y-81567500D01*
X101145008Y-81567499D01*
X101145016Y-81567498D01*
X101145019Y-81567498D01*
X101205546Y-81561315D01*
X101247797Y-81556999D01*
X101414334Y-81501814D01*
X101563656Y-81409712D01*
X101687712Y-81285656D01*
X101730858Y-81215703D01*
X101782805Y-81168980D01*
X101785923Y-81167538D01*
X101822730Y-81151151D01*
X101975871Y-81039888D01*
X102102533Y-80899216D01*
X102197179Y-80735284D01*
X102255674Y-80555256D01*
X102275460Y-80367000D01*
X102255674Y-80178744D01*
X102197179Y-79998716D01*
X102102533Y-79834784D01*
X101975871Y-79694112D01*
X101975870Y-79694111D01*
X101822733Y-79582850D01*
X101785959Y-79566477D01*
X101732723Y-79521225D01*
X101730859Y-79518295D01*
X101687714Y-79448347D01*
X101687711Y-79448343D01*
X101614195Y-79374827D01*
X101580710Y-79313504D01*
X101585694Y-79243812D01*
X101614195Y-79199464D01*
X101687317Y-79126342D01*
X101779356Y-78977124D01*
X101779358Y-78977119D01*
X101834505Y-78810697D01*
X101834506Y-78810690D01*
X101844999Y-78707986D01*
X101845000Y-78707973D01*
X101845000Y-78458000D01*
X100619000Y-78458000D01*
X100551961Y-78438315D01*
X100506206Y-78385511D01*
X100495000Y-78334000D01*
X100495000Y-77958000D01*
X100995000Y-77958000D01*
X101844999Y-77958000D01*
X101844999Y-77708028D01*
X101844998Y-77708013D01*
X101834505Y-77605302D01*
X101779358Y-77438880D01*
X101779356Y-77438875D01*
X101687315Y-77289654D01*
X101563345Y-77165684D01*
X101414124Y-77073643D01*
X101414119Y-77073641D01*
X101247697Y-77018494D01*
X101247690Y-77018493D01*
X101144986Y-77008000D01*
X100995000Y-77008000D01*
X100995000Y-77958000D01*
X100495000Y-77958000D01*
X100495000Y-77008000D01*
X100345027Y-77008000D01*
X100345012Y-77008001D01*
X100242302Y-77018494D01*
X100075880Y-77073641D01*
X100075875Y-77073643D01*
X99926657Y-77165682D01*
X99833034Y-77259305D01*
X99771710Y-77292789D01*
X99702019Y-77287805D01*
X99657672Y-77259304D01*
X99563655Y-77165287D01*
X99491902Y-77121029D01*
X99445178Y-77069081D01*
X99433000Y-77015491D01*
X99433000Y-76743668D01*
X99452685Y-76676629D01*
X99505489Y-76630874D01*
X99522395Y-76624595D01*
X99580398Y-76607744D01*
X99721865Y-76524081D01*
X99838081Y-76407865D01*
X99921744Y-76266398D01*
X99967598Y-76108569D01*
X99970500Y-76071694D01*
X99970500Y-75673257D01*
X99990185Y-75606218D01*
X100042989Y-75560463D01*
X100112147Y-75550519D01*
X100160855Y-75571188D01*
X100161729Y-75569712D01*
X100309803Y-75657282D01*
X100309806Y-75657283D01*
X100467504Y-75703099D01*
X100467510Y-75703100D01*
X100504350Y-75705999D01*
X100504366Y-75706000D01*
X100832500Y-75706000D01*
X101332500Y-75706000D01*
X101660634Y-75706000D01*
X101660649Y-75705999D01*
X101697489Y-75703100D01*
X101697495Y-75703099D01*
X101855193Y-75657283D01*
X101855196Y-75657282D01*
X101996552Y-75573685D01*
X101996561Y-75573678D01*
X102112678Y-75457561D01*
X102112685Y-75457552D01*
X102196281Y-75316198D01*
X102242100Y-75158486D01*
X102242295Y-75156001D01*
X102242295Y-75156000D01*
X101332500Y-75156000D01*
X101332500Y-75706000D01*
X100832500Y-75706000D01*
X100832500Y-75156000D01*
X99922704Y-75156000D01*
X99898440Y-75182248D01*
X99838479Y-75218114D01*
X99768645Y-75215869D01*
X99728987Y-75191468D01*
X99728031Y-75192702D01*
X99721862Y-75187917D01*
X99628437Y-75132666D01*
X99580398Y-75104256D01*
X99580397Y-75104255D01*
X99580396Y-75104255D01*
X99580393Y-75104254D01*
X99422573Y-75058402D01*
X99422567Y-75058401D01*
X99385701Y-75055500D01*
X99385694Y-75055500D01*
X98229306Y-75055500D01*
X98229298Y-75055500D01*
X98192432Y-75058401D01*
X98192426Y-75058402D01*
X98034606Y-75104254D01*
X98034603Y-75104255D01*
X97893137Y-75187917D01*
X97893129Y-75187923D01*
X97776923Y-75304129D01*
X97776917Y-75304137D01*
X97693255Y-75445603D01*
X97693254Y-75445606D01*
X97647402Y-75603426D01*
X97647401Y-75603432D01*
X97644500Y-75640298D01*
X88558826Y-75640298D01*
X88570501Y-75581606D01*
X88570501Y-75458393D01*
X88570501Y-75453283D01*
X88570500Y-75453257D01*
X88570500Y-75207057D01*
X88590185Y-75140018D01*
X88629401Y-75101520D01*
X88763656Y-75018712D01*
X88887712Y-74894656D01*
X88979814Y-74745334D01*
X88999311Y-74686493D01*
X89039084Y-74629051D01*
X89103600Y-74602228D01*
X89117017Y-74601500D01*
X97821569Y-74601500D01*
X97886202Y-74620478D01*
X97886420Y-74620110D01*
X97887872Y-74620969D01*
X97888608Y-74621185D01*
X97890501Y-74622523D01*
X97893134Y-74624080D01*
X97893135Y-74624081D01*
X98034602Y-74707744D01*
X98065318Y-74716668D01*
X98192426Y-74753597D01*
X98192429Y-74753597D01*
X98192431Y-74753598D01*
X98229306Y-74756500D01*
X98229314Y-74756500D01*
X99385686Y-74756500D01*
X99385694Y-74756500D01*
X99422569Y-74753598D01*
X99422571Y-74753597D01*
X99422573Y-74753597D01*
X99484862Y-74735500D01*
X99580398Y-74707744D01*
X99721865Y-74624081D01*
X99721870Y-74624075D01*
X99728031Y-74619298D01*
X99729339Y-74620984D01*
X99781009Y-74592761D01*
X99850701Y-74597735D01*
X99898441Y-74629752D01*
X99922704Y-74656000D01*
X100832500Y-74656000D01*
X101332500Y-74656000D01*
X102242295Y-74656000D01*
X102242295Y-74655998D01*
X102242100Y-74653513D01*
X102196281Y-74495801D01*
X102112685Y-74354447D01*
X102112678Y-74354438D01*
X101996561Y-74238321D01*
X101996552Y-74238314D01*
X101855196Y-74154717D01*
X101855193Y-74154716D01*
X101697495Y-74108900D01*
X101697489Y-74108899D01*
X101660649Y-74106000D01*
X101332500Y-74106000D01*
X101332500Y-74656000D01*
X100832500Y-74656000D01*
X100832500Y-74106000D01*
X100504350Y-74106000D01*
X100467510Y-74108899D01*
X100467504Y-74108900D01*
X100309806Y-74154716D01*
X100309803Y-74154717D01*
X100161729Y-74242288D01*
X100160711Y-74240566D01*
X100105455Y-74262257D01*
X100036938Y-74248572D01*
X99986697Y-74200017D01*
X99970500Y-74138742D01*
X99970500Y-73740313D01*
X99970499Y-73740298D01*
X99967974Y-73708216D01*
X99967598Y-73703431D01*
X99963749Y-73690184D01*
X99921745Y-73545606D01*
X99921744Y-73545603D01*
X99921744Y-73545602D01*
X99838081Y-73404135D01*
X99838079Y-73404133D01*
X99838076Y-73404129D01*
X99721870Y-73287923D01*
X99721862Y-73287917D01*
X99580396Y-73204255D01*
X99580393Y-73204254D01*
X99422573Y-73158402D01*
X99422567Y-73158401D01*
X99385701Y-73155500D01*
X99385694Y-73155500D01*
X98229306Y-73155500D01*
X98229298Y-73155500D01*
X98192432Y-73158401D01*
X98192426Y-73158402D01*
X98034606Y-73204254D01*
X98034603Y-73204255D01*
X97893137Y-73287917D01*
X97893129Y-73287923D01*
X97866872Y-73314181D01*
X97805549Y-73347666D01*
X97779191Y-73350500D01*
X89117017Y-73350500D01*
X89049978Y-73330815D01*
X89004223Y-73278011D01*
X88999311Y-73265505D01*
X88979814Y-73206666D01*
X88887712Y-73057344D01*
X88763656Y-72933288D01*
X88629402Y-72850480D01*
X88582679Y-72798533D01*
X88570500Y-72744942D01*
X88570500Y-71944393D01*
X88570499Y-71944389D01*
X88565567Y-71919594D01*
X88546463Y-71823548D01*
X88522433Y-71765535D01*
X88509204Y-71733597D01*
X88499313Y-71709716D01*
X88499312Y-71709714D01*
X88454161Y-71642143D01*
X88430858Y-71607267D01*
X88430856Y-71607264D01*
X88340637Y-71517045D01*
X88340606Y-71517016D01*
X87444603Y-70621013D01*
X102598000Y-70621013D01*
X102598000Y-70846000D01*
X103635500Y-70846000D01*
X104135500Y-70846000D01*
X105172999Y-70846000D01*
X105172999Y-70621028D01*
X105172998Y-70621013D01*
X105162505Y-70518302D01*
X105107358Y-70351880D01*
X105107356Y-70351875D01*
X105015315Y-70202654D01*
X104891345Y-70078684D01*
X104742124Y-69986643D01*
X104742119Y-69986641D01*
X104575697Y-69931494D01*
X104575690Y-69931493D01*
X104472986Y-69921000D01*
X104135500Y-69921000D01*
X104135500Y-70846000D01*
X103635500Y-70846000D01*
X103635500Y-69921000D01*
X103298028Y-69921000D01*
X103298012Y-69921001D01*
X103195302Y-69931494D01*
X103028880Y-69986641D01*
X103028875Y-69986643D01*
X102879654Y-70078684D01*
X102755684Y-70202654D01*
X102663643Y-70351875D01*
X102663641Y-70351880D01*
X102608494Y-70518302D01*
X102608493Y-70518309D01*
X102598000Y-70621013D01*
X87444603Y-70621013D01*
X85206819Y-68383229D01*
X85173334Y-68321906D01*
X85170500Y-68295548D01*
X85170500Y-67680994D01*
X86074859Y-67680994D01*
X86074859Y-67681005D01*
X86095385Y-67928729D01*
X86095387Y-67928738D01*
X86156412Y-68169717D01*
X86256266Y-68397364D01*
X86356564Y-68550882D01*
X87088871Y-67818575D01*
X87104755Y-67877853D01*
X87171898Y-67994147D01*
X87266853Y-68089102D01*
X87383147Y-68156245D01*
X87442424Y-68172128D01*
X86709942Y-68904609D01*
X86756768Y-68941055D01*
X86756770Y-68941056D01*
X86975385Y-69059364D01*
X86975396Y-69059369D01*
X87210506Y-69140083D01*
X87455707Y-69181000D01*
X87704293Y-69181000D01*
X87949493Y-69140083D01*
X88184603Y-69059369D01*
X88184614Y-69059364D01*
X88403228Y-68941057D01*
X88403231Y-68941055D01*
X88450056Y-68904609D01*
X87717575Y-68172128D01*
X87776853Y-68156245D01*
X87893147Y-68089102D01*
X87988102Y-67994147D01*
X88055245Y-67877853D01*
X88071127Y-67818575D01*
X88803434Y-68550882D01*
X88903731Y-68397369D01*
X89003587Y-68169717D01*
X89064612Y-67928738D01*
X89064614Y-67928729D01*
X89085141Y-67681005D01*
X89085141Y-67680994D01*
X89064614Y-67433270D01*
X89064612Y-67433261D01*
X89003587Y-67192282D01*
X88903731Y-66964630D01*
X88803434Y-66811116D01*
X88071127Y-67543423D01*
X88055245Y-67484147D01*
X87988102Y-67367853D01*
X87893147Y-67272898D01*
X87776853Y-67205755D01*
X87717575Y-67189872D01*
X88450057Y-66457390D01*
X88450056Y-66457389D01*
X88403229Y-66420943D01*
X88184614Y-66302635D01*
X88184603Y-66302630D01*
X87949493Y-66221916D01*
X87704293Y-66181000D01*
X87455707Y-66181000D01*
X87210506Y-66221916D01*
X86975396Y-66302630D01*
X86975390Y-66302632D01*
X86756761Y-66420949D01*
X86709942Y-66457388D01*
X86709942Y-66457390D01*
X87442424Y-67189871D01*
X87383147Y-67205755D01*
X87266853Y-67272898D01*
X87171898Y-67367853D01*
X87104755Y-67484147D01*
X87088872Y-67543424D01*
X86356564Y-66811116D01*
X86256267Y-66964632D01*
X86156412Y-67192282D01*
X86095387Y-67433261D01*
X86095385Y-67433270D01*
X86074859Y-67680994D01*
X85170500Y-67680994D01*
X85170500Y-66791016D01*
X85190185Y-66723977D01*
X85242989Y-66678222D01*
X85255488Y-66673313D01*
X85314334Y-66653814D01*
X85463656Y-66561712D01*
X85587712Y-66437656D01*
X85679814Y-66288334D01*
X85734999Y-66121797D01*
X85745500Y-66019009D01*
X85745499Y-65218992D01*
X85734999Y-65116203D01*
X85679814Y-64949666D01*
X85587712Y-64800344D01*
X85494049Y-64706681D01*
X85477293Y-64675994D01*
X95739859Y-64675994D01*
X95739859Y-64676005D01*
X95760385Y-64923729D01*
X95760387Y-64923738D01*
X95821412Y-65164717D01*
X95921266Y-65392364D01*
X96021564Y-65545882D01*
X96721212Y-64846234D01*
X96732482Y-64888292D01*
X96804890Y-65013708D01*
X96907292Y-65116110D01*
X97032708Y-65188518D01*
X97074765Y-65199787D01*
X96374942Y-65899609D01*
X96421768Y-65936055D01*
X96421770Y-65936056D01*
X96640385Y-66054364D01*
X96640396Y-66054369D01*
X96875506Y-66135083D01*
X97120707Y-66176000D01*
X97369293Y-66176000D01*
X97614493Y-66135083D01*
X97849603Y-66054369D01*
X97849614Y-66054364D01*
X98068228Y-65936057D01*
X98068231Y-65936055D01*
X98115056Y-65899609D01*
X97415234Y-65199787D01*
X97457292Y-65188518D01*
X97582708Y-65116110D01*
X97685110Y-65013708D01*
X97757518Y-64888292D01*
X97768787Y-64846234D01*
X98468434Y-65545882D01*
X98568731Y-65392369D01*
X98668587Y-65164717D01*
X98729612Y-64923738D01*
X98729614Y-64923729D01*
X98750141Y-64676005D01*
X98750141Y-64675994D01*
X102239859Y-64675994D01*
X102239859Y-64676005D01*
X102260385Y-64923729D01*
X102260387Y-64923738D01*
X102321412Y-65164717D01*
X102421266Y-65392364D01*
X102521564Y-65545882D01*
X103221212Y-64846234D01*
X103232482Y-64888292D01*
X103304890Y-65013708D01*
X103407292Y-65116110D01*
X103532708Y-65188518D01*
X103574765Y-65199787D01*
X102874942Y-65899609D01*
X102921768Y-65936055D01*
X102921770Y-65936056D01*
X103140385Y-66054364D01*
X103140396Y-66054369D01*
X103375506Y-66135083D01*
X103620707Y-66176000D01*
X103869293Y-66176000D01*
X104114493Y-66135083D01*
X104349603Y-66054369D01*
X104349614Y-66054364D01*
X104568228Y-65936057D01*
X104568231Y-65936055D01*
X104615056Y-65899609D01*
X103915234Y-65199787D01*
X103957292Y-65188518D01*
X104082708Y-65116110D01*
X104185110Y-65013708D01*
X104257518Y-64888292D01*
X104268787Y-64846235D01*
X104968434Y-65545882D01*
X105068731Y-65392369D01*
X105168587Y-65164717D01*
X105229612Y-64923738D01*
X105229614Y-64923729D01*
X105250141Y-64676005D01*
X105250141Y-64675994D01*
X105229614Y-64428270D01*
X105229612Y-64428261D01*
X105168587Y-64187282D01*
X105068731Y-63959630D01*
X104968434Y-63806116D01*
X104268787Y-64505764D01*
X104257518Y-64463708D01*
X104185110Y-64338292D01*
X104082708Y-64235890D01*
X103957292Y-64163482D01*
X103915235Y-64152212D01*
X104615057Y-63452390D01*
X104615056Y-63452389D01*
X104568229Y-63415943D01*
X104349614Y-63297635D01*
X104349603Y-63297630D01*
X104114493Y-63216916D01*
X103869293Y-63176000D01*
X103620707Y-63176000D01*
X103375506Y-63216916D01*
X103140396Y-63297630D01*
X103140390Y-63297632D01*
X102921761Y-63415949D01*
X102874942Y-63452388D01*
X102874942Y-63452390D01*
X103574765Y-64152212D01*
X103532708Y-64163482D01*
X103407292Y-64235890D01*
X103304890Y-64338292D01*
X103232482Y-64463708D01*
X103221212Y-64505764D01*
X102521564Y-63806116D01*
X102421267Y-63959632D01*
X102321412Y-64187282D01*
X102260387Y-64428261D01*
X102260385Y-64428270D01*
X102239859Y-64675994D01*
X98750141Y-64675994D01*
X98729614Y-64428270D01*
X98729612Y-64428261D01*
X98668587Y-64187282D01*
X98568731Y-63959630D01*
X98468434Y-63806116D01*
X97768787Y-64505764D01*
X97757518Y-64463708D01*
X97685110Y-64338292D01*
X97582708Y-64235890D01*
X97457292Y-64163482D01*
X97415235Y-64152212D01*
X98115057Y-63452390D01*
X98115056Y-63452389D01*
X98068229Y-63415943D01*
X97849614Y-63297635D01*
X97849603Y-63297630D01*
X97614493Y-63216916D01*
X97369293Y-63176000D01*
X97120707Y-63176000D01*
X96875506Y-63216916D01*
X96640396Y-63297630D01*
X96640390Y-63297632D01*
X96421761Y-63415949D01*
X96374942Y-63452388D01*
X96374942Y-63452390D01*
X97074765Y-64152212D01*
X97032708Y-64163482D01*
X96907292Y-64235890D01*
X96804890Y-64338292D01*
X96732482Y-64463708D01*
X96721212Y-64505764D01*
X96021564Y-63806116D01*
X95921267Y-63959632D01*
X95821412Y-64187282D01*
X95760387Y-64428261D01*
X95760385Y-64428270D01*
X95739859Y-64675994D01*
X85477293Y-64675994D01*
X85460564Y-64645358D01*
X85465548Y-64575666D01*
X85494049Y-64531319D01*
X85530556Y-64494812D01*
X85587712Y-64437656D01*
X85679814Y-64288334D01*
X85734999Y-64121797D01*
X85745500Y-64019009D01*
X85745499Y-63218992D01*
X85734999Y-63116203D01*
X85679814Y-62949666D01*
X85587712Y-62800344D01*
X85463656Y-62676288D01*
X85353126Y-62608113D01*
X85314336Y-62584187D01*
X85314335Y-62584186D01*
X85314334Y-62584186D01*
X85255493Y-62564688D01*
X85198051Y-62524916D01*
X85171228Y-62460400D01*
X85170500Y-62446983D01*
X85170500Y-62011863D01*
X85164858Y-61983502D01*
X85164858Y-61983501D01*
X85160740Y-61962799D01*
X85158481Y-61951440D01*
X85146463Y-61891017D01*
X85126929Y-61843857D01*
X85099312Y-61777183D01*
X85061197Y-61720142D01*
X85030858Y-61674736D01*
X85030856Y-61674733D01*
X84940637Y-61584514D01*
X84940606Y-61584485D01*
X84631299Y-61275178D01*
X84597814Y-61213855D01*
X84602798Y-61144163D01*
X84611593Y-61125497D01*
X84613007Y-61123049D01*
X84901804Y-60622837D01*
X84926060Y-60568009D01*
X84949927Y-60426079D01*
X84932840Y-60283175D01*
X84932839Y-60283172D01*
X84932838Y-60283169D01*
X84886943Y-60175994D01*
X95739357Y-60175994D01*
X95739357Y-60176005D01*
X95759890Y-60423812D01*
X95759892Y-60423824D01*
X95820936Y-60664881D01*
X95920826Y-60892606D01*
X96056833Y-61100782D01*
X96056836Y-61100785D01*
X96225256Y-61283738D01*
X96421491Y-61436474D01*
X96640190Y-61554828D01*
X96875386Y-61635571D01*
X97120665Y-61676500D01*
X97369335Y-61676500D01*
X97614614Y-61635571D01*
X97849810Y-61554828D01*
X98068509Y-61436474D01*
X98264744Y-61283738D01*
X98433164Y-61100785D01*
X98569173Y-60892607D01*
X98569175Y-60892603D01*
X98576595Y-60875689D01*
X98621551Y-60822203D01*
X98688287Y-60801514D01*
X98690150Y-60801500D01*
X102299850Y-60801500D01*
X102366889Y-60821185D01*
X102412644Y-60873989D01*
X102413405Y-60875689D01*
X102420824Y-60892603D01*
X102556833Y-61100782D01*
X102556836Y-61100785D01*
X102725256Y-61283738D01*
X102921491Y-61436474D01*
X103140190Y-61554828D01*
X103375386Y-61635571D01*
X103620665Y-61676500D01*
X103869335Y-61676500D01*
X104114614Y-61635571D01*
X104349810Y-61554828D01*
X104568509Y-61436474D01*
X104764744Y-61283738D01*
X104933164Y-61100785D01*
X105069173Y-60892607D01*
X105069175Y-60892603D01*
X105076595Y-60875689D01*
X105121551Y-60822203D01*
X105188287Y-60801514D01*
X105190150Y-60801500D01*
X105252548Y-60801500D01*
X105319587Y-60821185D01*
X105340229Y-60837819D01*
X105610181Y-61107771D01*
X105643666Y-61169094D01*
X105646500Y-61195452D01*
X105646500Y-61860001D01*
X105646501Y-61860019D01*
X105657000Y-61962796D01*
X105657001Y-61962799D01*
X105695845Y-62080021D01*
X105712186Y-62129334D01*
X105803890Y-62278011D01*
X105804289Y-62278657D01*
X105897951Y-62372319D01*
X105931436Y-62433642D01*
X105926452Y-62503334D01*
X105897951Y-62547681D01*
X105804289Y-62641342D01*
X105712187Y-62790663D01*
X105712185Y-62790668D01*
X105708979Y-62800344D01*
X105657001Y-62957203D01*
X105657001Y-62957204D01*
X105657000Y-62957204D01*
X105646500Y-63059983D01*
X105646500Y-63860001D01*
X105646501Y-63860019D01*
X105657000Y-63962796D01*
X105657001Y-63962799D01*
X105712185Y-64129331D01*
X105712187Y-64129336D01*
X105747069Y-64185888D01*
X105804288Y-64278656D01*
X105928344Y-64402712D01*
X106077666Y-64494814D01*
X106244203Y-64549999D01*
X106346991Y-64560500D01*
X106793547Y-64560499D01*
X106860586Y-64580183D01*
X106881228Y-64596818D01*
X110243181Y-67958771D01*
X110276666Y-68020094D01*
X110279500Y-68046452D01*
X110279500Y-69701769D01*
X110259815Y-69768808D01*
X110254767Y-69776080D01*
X110186204Y-69867668D01*
X110186202Y-69867671D01*
X110135908Y-70002517D01*
X110129501Y-70062116D01*
X110129500Y-70062135D01*
X110129500Y-71460500D01*
X110109815Y-71527539D01*
X110057011Y-71573294D01*
X110005500Y-71584500D01*
X109163874Y-71584500D01*
X109109898Y-71572136D01*
X108916199Y-71478483D01*
X108910545Y-71475845D01*
X108903477Y-71472548D01*
X108903457Y-71472539D01*
X108902909Y-71472292D01*
X108902895Y-71472287D01*
X108840624Y-71449183D01*
X108833323Y-71446207D01*
X108811761Y-71436607D01*
X108719181Y-71416929D01*
X108626603Y-71397251D01*
X108437311Y-71397251D01*
X108404854Y-71404149D01*
X108252154Y-71436606D01*
X108252149Y-71436608D01*
X108222933Y-71449616D01*
X108153683Y-71458900D01*
X108090407Y-71429271D01*
X108053194Y-71370135D01*
X108048499Y-71336336D01*
X108048499Y-70620998D01*
X108048498Y-70620981D01*
X108037999Y-70518203D01*
X108037998Y-70518200D01*
X108031599Y-70498888D01*
X107982814Y-70351666D01*
X107890712Y-70202344D01*
X107766656Y-70078288D01*
X107766655Y-70078287D01*
X107678931Y-70024178D01*
X107632207Y-69972230D01*
X107626098Y-69956958D01*
X107617824Y-69931494D01*
X107597087Y-69867671D01*
X107587681Y-69838721D01*
X107587678Y-69838715D01*
X107493033Y-69674784D01*
X107366371Y-69534112D01*
X107321976Y-69501857D01*
X107213234Y-69422851D01*
X107213229Y-69422848D01*
X107040307Y-69345857D01*
X107040302Y-69345855D01*
X106894501Y-69314865D01*
X106855146Y-69306500D01*
X106665854Y-69306500D01*
X106633397Y-69313398D01*
X106480697Y-69345855D01*
X106480692Y-69345857D01*
X106307770Y-69422848D01*
X106307765Y-69422851D01*
X106154629Y-69534111D01*
X106027966Y-69674785D01*
X105933321Y-69838715D01*
X105933317Y-69838725D01*
X105894898Y-69956962D01*
X105855460Y-70014637D01*
X105842065Y-70024180D01*
X105754347Y-70078285D01*
X105754343Y-70078288D01*
X105630289Y-70202342D01*
X105538187Y-70351663D01*
X105538185Y-70351668D01*
X105520994Y-70403547D01*
X105483001Y-70518203D01*
X105483001Y-70518204D01*
X105483000Y-70518204D01*
X105472500Y-70620983D01*
X105472500Y-71571001D01*
X105472501Y-71571019D01*
X105483000Y-71673796D01*
X105483001Y-71673799D01*
X105513400Y-71765535D01*
X105538186Y-71840334D01*
X105630288Y-71989656D01*
X105754344Y-72113712D01*
X105856875Y-72176953D01*
X105903599Y-72228899D01*
X105914822Y-72297862D01*
X105886979Y-72361944D01*
X105879460Y-72370172D01*
X105811283Y-72438349D01*
X105809241Y-72441661D01*
X105807247Y-72443453D01*
X105806807Y-72444011D01*
X105806711Y-72443935D01*
X105757291Y-72488383D01*
X105688328Y-72499602D01*
X105624247Y-72471755D01*
X105598168Y-72441656D01*
X105596319Y-72438659D01*
X105596316Y-72438655D01*
X105472345Y-72314684D01*
X105323124Y-72222643D01*
X105323119Y-72222641D01*
X105156697Y-72167494D01*
X105156690Y-72167493D01*
X105117101Y-72163448D01*
X105052410Y-72137050D01*
X105012260Y-72079868D01*
X105009398Y-72010057D01*
X105024168Y-71974992D01*
X105107355Y-71840126D01*
X105107358Y-71840119D01*
X105162505Y-71673697D01*
X105162506Y-71673690D01*
X105172999Y-71570986D01*
X105173000Y-71570973D01*
X105173000Y-71346000D01*
X102598001Y-71346000D01*
X102598001Y-71570986D01*
X102608494Y-71673697D01*
X102663641Y-71840119D01*
X102663643Y-71840124D01*
X102755684Y-71989345D01*
X102879654Y-72113315D01*
X103028875Y-72205356D01*
X103028880Y-72205358D01*
X103195302Y-72260505D01*
X103195309Y-72260506D01*
X103298019Y-72270999D01*
X103617919Y-72270999D01*
X103684958Y-72290683D01*
X103730713Y-72343487D01*
X103740657Y-72412646D01*
X103723458Y-72460095D01*
X103644645Y-72587871D01*
X103644641Y-72587880D01*
X103589494Y-72754302D01*
X103589493Y-72754309D01*
X103579000Y-72857013D01*
X103579000Y-73132000D01*
X104792500Y-73132000D01*
X104859539Y-73151685D01*
X104905294Y-73204489D01*
X104916500Y-73256000D01*
X104916500Y-73508000D01*
X104896815Y-73575039D01*
X104844011Y-73620794D01*
X104792500Y-73632000D01*
X103579001Y-73632000D01*
X103579001Y-73906986D01*
X103589494Y-74009697D01*
X103644641Y-74176119D01*
X103644643Y-74176124D01*
X103736684Y-74325345D01*
X103784804Y-74373465D01*
X103818289Y-74434788D01*
X103813305Y-74504480D01*
X103784805Y-74548826D01*
X103736289Y-74597342D01*
X103644187Y-74746663D01*
X103644185Y-74746668D01*
X103625022Y-74804498D01*
X103589001Y-74913203D01*
X103589001Y-74913204D01*
X103589000Y-74913204D01*
X103578500Y-75015983D01*
X103578500Y-76066001D01*
X103578501Y-76066019D01*
X103589000Y-76168796D01*
X103589001Y-76168799D01*
X103644185Y-76335331D01*
X103644187Y-76335336D01*
X103654798Y-76352539D01*
X103731846Y-76477455D01*
X103736289Y-76484657D01*
X103785217Y-76533585D01*
X103818702Y-76594908D01*
X103813718Y-76664600D01*
X103812998Y-76666175D01*
X103759908Y-76808517D01*
X103753501Y-76868116D01*
X103753500Y-76868135D01*
X103753500Y-78363870D01*
X103753501Y-78363876D01*
X103759908Y-78423483D01*
X103810202Y-78558328D01*
X103810204Y-78558331D01*
X103866956Y-78634142D01*
X103872917Y-78642104D01*
X103897335Y-78707569D01*
X103882484Y-78775842D01*
X103872918Y-78790727D01*
X103810647Y-78873910D01*
X103810645Y-78873913D01*
X103760403Y-79008620D01*
X103760401Y-79008627D01*
X103754000Y-79068155D01*
X103754000Y-79566000D01*
X104980000Y-79566000D01*
X105047039Y-79585685D01*
X105092794Y-79638489D01*
X105104000Y-79690000D01*
X105104000Y-79942000D01*
X105084315Y-80009039D01*
X105031511Y-80054794D01*
X104980000Y-80066000D01*
X103754000Y-80066000D01*
X103754000Y-80563844D01*
X103760401Y-80623372D01*
X103760402Y-80623376D01*
X103788252Y-80698044D01*
X103793236Y-80767736D01*
X103759751Y-80829059D01*
X103737174Y-80846912D01*
X103733658Y-80849080D01*
X103609682Y-80973057D01*
X103517643Y-81122275D01*
X103517641Y-81122280D01*
X103462494Y-81288702D01*
X103462493Y-81288709D01*
X103452000Y-81391413D01*
X103452000Y-81666400D01*
X104665500Y-81666400D01*
X104732539Y-81686085D01*
X104778294Y-81738889D01*
X104789500Y-81790400D01*
X104789500Y-83141399D01*
X104926972Y-83141399D01*
X104926986Y-83141398D01*
X105029697Y-83130905D01*
X105196119Y-83075758D01*
X105196124Y-83075756D01*
X105345345Y-82983715D01*
X105469318Y-82859742D01*
X105471165Y-82856748D01*
X105472969Y-82855124D01*
X105473798Y-82854077D01*
X105473976Y-82854218D01*
X105523110Y-82810021D01*
X105592073Y-82798796D01*
X105656156Y-82826636D01*
X105682243Y-82856741D01*
X105684288Y-82860056D01*
X105808344Y-82984112D01*
X105957666Y-83076214D01*
X106124203Y-83131399D01*
X106226991Y-83141900D01*
X107002008Y-83141899D01*
X107002016Y-83141898D01*
X107002019Y-83141898D01*
X107058302Y-83136148D01*
X107104797Y-83131399D01*
X107271334Y-83076214D01*
X107420656Y-82984112D01*
X107544712Y-82860056D01*
X107575963Y-82809388D01*
X107627907Y-82762667D01*
X107696869Y-82751443D01*
X107760952Y-82779285D01*
X107799809Y-82837353D01*
X107805500Y-82874481D01*
X107805500Y-82891998D01*
X107805501Y-82892019D01*
X107816000Y-82994796D01*
X107816001Y-82994799D01*
X107864746Y-83141899D01*
X107871186Y-83161334D01*
X107963288Y-83310656D01*
X108087344Y-83434712D01*
X108090628Y-83436737D01*
X108090653Y-83436753D01*
X108092445Y-83438746D01*
X108093011Y-83439193D01*
X108092934Y-83439289D01*
X108137379Y-83488699D01*
X108148603Y-83557661D01*
X108120761Y-83621744D01*
X108090665Y-83647826D01*
X108087660Y-83649679D01*
X108087655Y-83649683D01*
X107963684Y-83773654D01*
X107871643Y-83922875D01*
X107871641Y-83922880D01*
X107816494Y-84089302D01*
X107816493Y-84089309D01*
X107806000Y-84192013D01*
X107806000Y-84349932D01*
X107786315Y-84416971D01*
X107733511Y-84462726D01*
X107664353Y-84472670D01*
X107600797Y-84443645D01*
X107574613Y-84411932D01*
X107572178Y-84407715D01*
X107477533Y-84243784D01*
X107350871Y-84103112D01*
X107331873Y-84089309D01*
X107197734Y-83991851D01*
X107197729Y-83991848D01*
X107024807Y-83914857D01*
X107024802Y-83914855D01*
X106879001Y-83883865D01*
X106839646Y-83875500D01*
X106650354Y-83875500D01*
X106617897Y-83882398D01*
X106465197Y-83914855D01*
X106465192Y-83914857D01*
X106292270Y-83991848D01*
X106292265Y-83991851D01*
X106139129Y-84103111D01*
X106012466Y-84243785D01*
X105917821Y-84407715D01*
X105917819Y-84407719D01*
X105862407Y-84578259D01*
X105829562Y-84626292D01*
X105831451Y-84628181D01*
X105702287Y-84757345D01*
X105610187Y-84906663D01*
X105610185Y-84906668D01*
X105598475Y-84942008D01*
X105555001Y-85073203D01*
X105555001Y-85073204D01*
X105555000Y-85073204D01*
X105544500Y-85175983D01*
X105544500Y-85627548D01*
X105524815Y-85694587D01*
X105472011Y-85740342D01*
X105402853Y-85750286D01*
X105339297Y-85721261D01*
X105332819Y-85715229D01*
X105241799Y-85624209D01*
X105208314Y-85562886D01*
X105209275Y-85506086D01*
X105230106Y-85423829D01*
X105230107Y-85423824D01*
X105230108Y-85423821D01*
X105230977Y-85413331D01*
X105250643Y-85176005D01*
X105250643Y-85175994D01*
X105230109Y-84928187D01*
X105230107Y-84928175D01*
X105169063Y-84687118D01*
X105069173Y-84459393D01*
X104933166Y-84251217D01*
X104864958Y-84177124D01*
X104764744Y-84068262D01*
X104568509Y-83915526D01*
X104568507Y-83915525D01*
X104568506Y-83915524D01*
X104349811Y-83797172D01*
X104349802Y-83797169D01*
X104114616Y-83716429D01*
X103869335Y-83675500D01*
X103620665Y-83675500D01*
X103375383Y-83716429D01*
X103140197Y-83797169D01*
X103140188Y-83797172D01*
X102921493Y-83915524D01*
X102725257Y-84068261D01*
X102556833Y-84251217D01*
X102420824Y-84459396D01*
X102413405Y-84476311D01*
X102368449Y-84529797D01*
X102301713Y-84550486D01*
X102299850Y-84550500D01*
X98690150Y-84550500D01*
X98623111Y-84530815D01*
X98577356Y-84478011D01*
X98576595Y-84476311D01*
X98569175Y-84459396D01*
X98433166Y-84251217D01*
X98364958Y-84177124D01*
X98264744Y-84068262D01*
X98068509Y-83915526D01*
X98068507Y-83915525D01*
X98068506Y-83915524D01*
X97849811Y-83797172D01*
X97849802Y-83797169D01*
X97614616Y-83716429D01*
X97369335Y-83675500D01*
X97120665Y-83675500D01*
X96875383Y-83716429D01*
X96640197Y-83797169D01*
X96640188Y-83797172D01*
X96421493Y-83915524D01*
X96225257Y-84068261D01*
X96056833Y-84251217D01*
X95920826Y-84459393D01*
X95820936Y-84687118D01*
X95759892Y-84928175D01*
X95759890Y-84928187D01*
X95739357Y-85175994D01*
X95739357Y-85176005D01*
X95759890Y-85423812D01*
X95759892Y-85423824D01*
X95820936Y-85664881D01*
X95920826Y-85892606D01*
X96056833Y-86100782D01*
X96089245Y-86135991D01*
X96225256Y-86283738D01*
X96421491Y-86436474D01*
X96640190Y-86554828D01*
X96875386Y-86635571D01*
X97120665Y-86676500D01*
X97369335Y-86676500D01*
X97614614Y-86635571D01*
X97849810Y-86554828D01*
X98068509Y-86436474D01*
X98264744Y-86283738D01*
X98433164Y-86100785D01*
X98569173Y-85892607D01*
X98569175Y-85892603D01*
X98576595Y-85875689D01*
X98621551Y-85822203D01*
X98688287Y-85801514D01*
X98690150Y-85801500D01*
X102299850Y-85801500D01*
X102366889Y-85821185D01*
X102412644Y-85873989D01*
X102413405Y-85875689D01*
X102420824Y-85892603D01*
X102556833Y-86100782D01*
X102589245Y-86135991D01*
X102725256Y-86283738D01*
X102921491Y-86436474D01*
X103140190Y-86554828D01*
X103375386Y-86635571D01*
X103620665Y-86676500D01*
X103869335Y-86676500D01*
X104114614Y-86635571D01*
X104316372Y-86566306D01*
X104386170Y-86563157D01*
X104444316Y-86595907D01*
X105508181Y-87659772D01*
X105541666Y-87721095D01*
X105544500Y-87747452D01*
X105544500Y-87976000D01*
X105544501Y-87976019D01*
X105555000Y-88078796D01*
X105555001Y-88078799D01*
X105569601Y-88122857D01*
X105610186Y-88245334D01*
X105702288Y-88394656D01*
X105826344Y-88518712D01*
X105975666Y-88610814D01*
X106142203Y-88665999D01*
X106244991Y-88676500D01*
X107245008Y-88676499D01*
X107245016Y-88676498D01*
X107245019Y-88676498D01*
X107301302Y-88670748D01*
X107347797Y-88665999D01*
X107514334Y-88610814D01*
X107663656Y-88518712D01*
X107787712Y-88394656D01*
X107879814Y-88245334D01*
X107934999Y-88078797D01*
X107945500Y-87976009D01*
X107945499Y-87175992D01*
X107934999Y-87073203D01*
X107879814Y-86906666D01*
X107787712Y-86757344D01*
X107694049Y-86663681D01*
X107660564Y-86602358D01*
X107665548Y-86532666D01*
X107694049Y-86488319D01*
X107787712Y-86394656D01*
X107879814Y-86245334D01*
X107934999Y-86078797D01*
X107945500Y-85976009D01*
X107945499Y-85618806D01*
X107965183Y-85551769D01*
X108017987Y-85506014D01*
X108087146Y-85496070D01*
X108134596Y-85513270D01*
X108236869Y-85576353D01*
X108236880Y-85576358D01*
X108403302Y-85631505D01*
X108403309Y-85631506D01*
X108506019Y-85641999D01*
X108755999Y-85641999D01*
X108756000Y-85641998D01*
X108756000Y-84441000D01*
X108775685Y-84373961D01*
X108828489Y-84328206D01*
X108880000Y-84317000D01*
X109132000Y-84317000D01*
X109199039Y-84336685D01*
X109244794Y-84389489D01*
X109256000Y-84441000D01*
X109256000Y-85641999D01*
X109505972Y-85641999D01*
X109505986Y-85641998D01*
X109608697Y-85631505D01*
X109775119Y-85576358D01*
X109775126Y-85576355D01*
X109892925Y-85503695D01*
X109960318Y-85485254D01*
X110023117Y-85503693D01*
X110141666Y-85576814D01*
X110308203Y-85631999D01*
X110410991Y-85642500D01*
X111411008Y-85642499D01*
X111411016Y-85642498D01*
X111411019Y-85642498D01*
X111467302Y-85636748D01*
X111513797Y-85631999D01*
X111680334Y-85576814D01*
X111798882Y-85503692D01*
X111866271Y-85485254D01*
X111929073Y-85503695D01*
X112046869Y-85576353D01*
X112046880Y-85576358D01*
X112213302Y-85631505D01*
X112213309Y-85631506D01*
X112316019Y-85641999D01*
X112565999Y-85641999D01*
X112566000Y-85641998D01*
X112566000Y-84441000D01*
X112585685Y-84373961D01*
X112638489Y-84328206D01*
X112690000Y-84317000D01*
X112942000Y-84317000D01*
X113009039Y-84336685D01*
X113054794Y-84389489D01*
X113066000Y-84441000D01*
X113066000Y-85641999D01*
X113315972Y-85641999D01*
X113315986Y-85641998D01*
X113418697Y-85631505D01*
X113585119Y-85576358D01*
X113585126Y-85576355D01*
X113702925Y-85503695D01*
X113770318Y-85485254D01*
X113833117Y-85503693D01*
X113951666Y-85576814D01*
X114118203Y-85631999D01*
X114220991Y-85642500D01*
X115221008Y-85642499D01*
X115221016Y-85642498D01*
X115221019Y-85642498D01*
X115277302Y-85636748D01*
X115323797Y-85631999D01*
X115490334Y-85576814D01*
X115608882Y-85503692D01*
X115676271Y-85485254D01*
X115739073Y-85503695D01*
X115856869Y-85576353D01*
X115856880Y-85576358D01*
X116023302Y-85631505D01*
X116023309Y-85631506D01*
X116126019Y-85641999D01*
X116375999Y-85641999D01*
X116376000Y-85641998D01*
X116376000Y-84441000D01*
X116395685Y-84373961D01*
X116448489Y-84328206D01*
X116500000Y-84317000D01*
X116752000Y-84317000D01*
X116819039Y-84336685D01*
X116864794Y-84389489D01*
X116876000Y-84441000D01*
X116876000Y-85641999D01*
X117125972Y-85641999D01*
X117125986Y-85641998D01*
X117228697Y-85631505D01*
X117395119Y-85576358D01*
X117395126Y-85576355D01*
X117512925Y-85503695D01*
X117580318Y-85485254D01*
X117643117Y-85503693D01*
X117761666Y-85576814D01*
X117928203Y-85631999D01*
X118030991Y-85642500D01*
X119031008Y-85642499D01*
X119031016Y-85642498D01*
X119031019Y-85642498D01*
X119087302Y-85636748D01*
X119133797Y-85631999D01*
X119300334Y-85576814D01*
X119449656Y-85484712D01*
X119573712Y-85360656D01*
X119665814Y-85211334D01*
X119720999Y-85044797D01*
X119727210Y-84984000D01*
X133589540Y-84984000D01*
X133609326Y-85172256D01*
X133609327Y-85172259D01*
X133667818Y-85352277D01*
X133667821Y-85352284D01*
X133762467Y-85516216D01*
X133854842Y-85618808D01*
X133889129Y-85656888D01*
X134042265Y-85768148D01*
X134042270Y-85768151D01*
X134215192Y-85845142D01*
X134215197Y-85845144D01*
X134400354Y-85884500D01*
X134400355Y-85884500D01*
X134589644Y-85884500D01*
X134589646Y-85884500D01*
X134774803Y-85845144D01*
X134947730Y-85768151D01*
X135100871Y-85656888D01*
X135103788Y-85653647D01*
X135106600Y-85650526D01*
X135166087Y-85613879D01*
X135198748Y-85609500D01*
X135341851Y-85609500D01*
X135408890Y-85629185D01*
X135443423Y-85662374D01*
X135533402Y-85790877D01*
X135688123Y-85945598D01*
X135867361Y-86071102D01*
X136065670Y-86163575D01*
X136277023Y-86220207D01*
X136459926Y-86236208D01*
X136494998Y-86239277D01*
X136495000Y-86239277D01*
X136495002Y-86239277D01*
X136523254Y-86236805D01*
X136712977Y-86220207D01*
X136924330Y-86163575D01*
X137122639Y-86071102D01*
X137301877Y-85945598D01*
X137456598Y-85790877D01*
X137582102Y-85611639D01*
X137674575Y-85413330D01*
X137731207Y-85201977D01*
X137750277Y-84984000D01*
X137731207Y-84766023D01*
X137674575Y-84554670D01*
X137582102Y-84356362D01*
X137582100Y-84356359D01*
X137582099Y-84356357D01*
X137456599Y-84177124D01*
X137382586Y-84103111D01*
X137301877Y-84022402D01*
X137159738Y-83922875D01*
X137122638Y-83896897D01*
X136986229Y-83833289D01*
X136924330Y-83804425D01*
X136924326Y-83804424D01*
X136924322Y-83804422D01*
X136712977Y-83747793D01*
X136495002Y-83728723D01*
X136494998Y-83728723D01*
X136352543Y-83741186D01*
X136277023Y-83747793D01*
X136277020Y-83747793D01*
X136065677Y-83804422D01*
X136065668Y-83804426D01*
X135867361Y-83896898D01*
X135867357Y-83896900D01*
X135688121Y-84022402D01*
X135533402Y-84177121D01*
X135443425Y-84305623D01*
X135388848Y-84349248D01*
X135341850Y-84358500D01*
X135198748Y-84358500D01*
X135131709Y-84338815D01*
X135106600Y-84317474D01*
X135100873Y-84311114D01*
X135100869Y-84311110D01*
X134947734Y-84199851D01*
X134947729Y-84199848D01*
X134774807Y-84122857D01*
X134774802Y-84122855D01*
X134616942Y-84089302D01*
X134589646Y-84083500D01*
X134400354Y-84083500D01*
X134373058Y-84089302D01*
X134215197Y-84122855D01*
X134215192Y-84122857D01*
X134042270Y-84199848D01*
X134042265Y-84199851D01*
X133889129Y-84311111D01*
X133762466Y-84451785D01*
X133667821Y-84615715D01*
X133667818Y-84615722D01*
X133609327Y-84795740D01*
X133609326Y-84795744D01*
X133589540Y-84984000D01*
X119727210Y-84984000D01*
X119731500Y-84942009D01*
X119731499Y-84141992D01*
X119729544Y-84122857D01*
X119720999Y-84039203D01*
X119720998Y-84039200D01*
X119705307Y-83991848D01*
X119665814Y-83872666D01*
X119573712Y-83723344D01*
X119480049Y-83629681D01*
X119446564Y-83568358D01*
X119451548Y-83498666D01*
X119480049Y-83454319D01*
X119508500Y-83425868D01*
X119573712Y-83360656D01*
X119665814Y-83211334D01*
X119720999Y-83044797D01*
X119731500Y-82942009D01*
X119731499Y-82141992D01*
X119720999Y-82039203D01*
X119665814Y-81872666D01*
X119573712Y-81723344D01*
X119449656Y-81599288D01*
X119300334Y-81507186D01*
X119133797Y-81452001D01*
X119133795Y-81452000D01*
X119031016Y-81441500D01*
X119031009Y-81441500D01*
X118366452Y-81441500D01*
X118299413Y-81421815D01*
X118278771Y-81405181D01*
X117608198Y-80734608D01*
X117608178Y-80734586D01*
X117516733Y-80643141D01*
X117465509Y-80608915D01*
X117414287Y-80574689D01*
X117414286Y-80574688D01*
X117414283Y-80574686D01*
X117414280Y-80574685D01*
X117333792Y-80541347D01*
X117320299Y-80535758D01*
X117265896Y-80491917D01*
X117243831Y-80425623D01*
X117251569Y-80377866D01*
X117274091Y-80317483D01*
X117280500Y-80257873D01*
X117280500Y-80159500D01*
X117300185Y-80092461D01*
X117352989Y-80046706D01*
X117404500Y-80035500D01*
X124741607Y-80035500D01*
X124802029Y-80023481D01*
X124862452Y-80011463D01*
X124912496Y-79990734D01*
X124976286Y-79964312D01*
X125027509Y-79930084D01*
X125034442Y-79925452D01*
X125040271Y-79921556D01*
X125078733Y-79895858D01*
X125165858Y-79808733D01*
X125165858Y-79808731D01*
X125176066Y-79798524D01*
X125176068Y-79798521D01*
X125902771Y-79071818D01*
X125964094Y-79038333D01*
X125990452Y-79035499D01*
X127302871Y-79035499D01*
X127302872Y-79035499D01*
X127362483Y-79029091D01*
X127497331Y-78978796D01*
X127612546Y-78892546D01*
X127698796Y-78777331D01*
X127749091Y-78642483D01*
X127755500Y-78582873D01*
X127755499Y-76787128D01*
X127749091Y-76727517D01*
X127743530Y-76712608D01*
X127698797Y-76592671D01*
X127698793Y-76592664D01*
X127612547Y-76477455D01*
X127612544Y-76477452D01*
X127497335Y-76391206D01*
X127497328Y-76391202D01*
X127365917Y-76342189D01*
X127309983Y-76300318D01*
X127285566Y-76234853D01*
X127300418Y-76166580D01*
X127321563Y-76138332D01*
X127443495Y-76016401D01*
X127579035Y-75822830D01*
X127678903Y-75608663D01*
X127740063Y-75380408D01*
X127760659Y-75145000D01*
X127740063Y-74909592D01*
X127693415Y-74735499D01*
X127678905Y-74681344D01*
X127678904Y-74681343D01*
X127678903Y-74681337D01*
X127579035Y-74467171D01*
X127573425Y-74459158D01*
X127443494Y-74273597D01*
X127276402Y-74106506D01*
X127276396Y-74106501D01*
X127090842Y-73976575D01*
X127047217Y-73921998D01*
X127040023Y-73852500D01*
X127071546Y-73790145D01*
X127090842Y-73773425D01*
X127183970Y-73708216D01*
X127276401Y-73643495D01*
X127443495Y-73476401D01*
X127579035Y-73282830D01*
X127678903Y-73068663D01*
X127740063Y-72840408D01*
X127760659Y-72605000D01*
X127740063Y-72369592D01*
X127678903Y-72141337D01*
X127579035Y-71927171D01*
X127573731Y-71919595D01*
X127443494Y-71733597D01*
X127276402Y-71566506D01*
X127276401Y-71566505D01*
X127122387Y-71458663D01*
X127083376Y-71431347D01*
X127039751Y-71376770D01*
X127030500Y-71329772D01*
X127030500Y-70843230D01*
X127050185Y-70776191D01*
X127066819Y-70755549D01*
X127077712Y-70744656D01*
X127169814Y-70595334D01*
X127224999Y-70428797D01*
X127235500Y-70326009D01*
X127235499Y-69325992D01*
X127233814Y-69309501D01*
X127224999Y-69223203D01*
X127224998Y-69223200D01*
X127201773Y-69153112D01*
X127169814Y-69056666D01*
X127077712Y-68907344D01*
X127070245Y-68899877D01*
X127036760Y-68838554D01*
X127034607Y-68825174D01*
X127030674Y-68787744D01*
X126972179Y-68607716D01*
X126877533Y-68443784D01*
X126750871Y-68303112D01*
X126740460Y-68295548D01*
X126597734Y-68191851D01*
X126597729Y-68191848D01*
X126424807Y-68114857D01*
X126424802Y-68114855D01*
X126279001Y-68083865D01*
X126239646Y-68075500D01*
X126050354Y-68075500D01*
X126017897Y-68082398D01*
X125865197Y-68114855D01*
X125865192Y-68114857D01*
X125692270Y-68191848D01*
X125692265Y-68191851D01*
X125539129Y-68303111D01*
X125412466Y-68443785D01*
X125317821Y-68607715D01*
X125317818Y-68607722D01*
X125259325Y-68787744D01*
X125257851Y-68801769D01*
X125231263Y-68866383D01*
X125173964Y-68906364D01*
X125104144Y-68909020D01*
X125046850Y-68876482D01*
X124953657Y-68783289D01*
X124953656Y-68783288D01*
X124804334Y-68691186D01*
X124637797Y-68636001D01*
X124637795Y-68636000D01*
X124535010Y-68625500D01*
X123734998Y-68625500D01*
X123734980Y-68625501D01*
X123632203Y-68636000D01*
X123632200Y-68636001D01*
X123465668Y-68691185D01*
X123465663Y-68691187D01*
X123316345Y-68783287D01*
X123192283Y-68907348D01*
X123188614Y-68911989D01*
X123131592Y-68952365D01*
X123117132Y-68956367D01*
X123077194Y-68964856D01*
X123077192Y-68964857D01*
X122904270Y-69041848D01*
X122904265Y-69041851D01*
X122751129Y-69153111D01*
X122624466Y-69293785D01*
X122529821Y-69457715D01*
X122529818Y-69457722D01*
X122504998Y-69534112D01*
X122471326Y-69637744D01*
X122451540Y-69826000D01*
X122471326Y-70014256D01*
X122471327Y-70014259D01*
X122529818Y-70194277D01*
X122529821Y-70194284D01*
X122624467Y-70358216D01*
X122688017Y-70428795D01*
X122751129Y-70498888D01*
X122904265Y-70610148D01*
X122904270Y-70610151D01*
X123077191Y-70687142D01*
X123077193Y-70687142D01*
X123077197Y-70687144D01*
X123117130Y-70695631D01*
X123178609Y-70728822D01*
X123188612Y-70740008D01*
X123192285Y-70744653D01*
X123192288Y-70744656D01*
X123316344Y-70868712D01*
X123465666Y-70960814D01*
X123632203Y-71015999D01*
X123671655Y-71020029D01*
X123736346Y-71046424D01*
X123776498Y-71103604D01*
X123779362Y-71173415D01*
X123744029Y-71233693D01*
X123681716Y-71265298D01*
X123669862Y-71266915D01*
X123629683Y-71270430D01*
X123629673Y-71270432D01*
X123401516Y-71331566D01*
X123401507Y-71331570D01*
X123187422Y-71431399D01*
X123187420Y-71431400D01*
X122993926Y-71566886D01*
X122993920Y-71566891D01*
X122826891Y-71733920D01*
X122826886Y-71733926D01*
X122691400Y-71927420D01*
X122691399Y-71927422D01*
X122591570Y-72141507D01*
X122591566Y-72141516D01*
X122530432Y-72369673D01*
X122530430Y-72369683D01*
X122526402Y-72415730D01*
X122500949Y-72480798D01*
X122444358Y-72521777D01*
X122374596Y-72525655D01*
X122315193Y-72492603D01*
X122302818Y-72480228D01*
X122269333Y-72418905D01*
X122266499Y-72392547D01*
X122266499Y-71727998D01*
X122266498Y-71727981D01*
X122255999Y-71625203D01*
X122255998Y-71625200D01*
X122239828Y-71576403D01*
X122200814Y-71458666D01*
X122108712Y-71309344D01*
X121984656Y-71185288D01*
X121884637Y-71123596D01*
X121835336Y-71093187D01*
X121835331Y-71093185D01*
X121833862Y-71092698D01*
X121668797Y-71038001D01*
X121668795Y-71038000D01*
X121566010Y-71027500D01*
X120565998Y-71027500D01*
X120565980Y-71027501D01*
X120463203Y-71038000D01*
X120463200Y-71038001D01*
X120296668Y-71093185D01*
X120296663Y-71093187D01*
X120147342Y-71185289D01*
X120023289Y-71309342D01*
X119931187Y-71458663D01*
X119931185Y-71458668D01*
X119924619Y-71478483D01*
X119876001Y-71625203D01*
X119876001Y-71625204D01*
X119876000Y-71625204D01*
X119865500Y-71727983D01*
X119865500Y-72392546D01*
X119845815Y-72459585D01*
X119829181Y-72480227D01*
X119459809Y-72849599D01*
X119398486Y-72883084D01*
X119328794Y-72878100D01*
X119272861Y-72836228D01*
X119248837Y-72775160D01*
X119248631Y-72773242D01*
X119248632Y-72746745D01*
X119249089Y-72742486D01*
X119249091Y-72742483D01*
X119255500Y-72682873D01*
X119255499Y-72037128D01*
X119249091Y-71977517D01*
X119248149Y-71974992D01*
X119198797Y-71842671D01*
X119198793Y-71842664D01*
X119112547Y-71727455D01*
X119112544Y-71727452D01*
X118997335Y-71641206D01*
X118997328Y-71641202D01*
X118862482Y-71590908D01*
X118862483Y-71590908D01*
X118802883Y-71584501D01*
X118802881Y-71584500D01*
X118802873Y-71584500D01*
X118802865Y-71584500D01*
X118704500Y-71584500D01*
X118637461Y-71564815D01*
X118591706Y-71512011D01*
X118580500Y-71460500D01*
X118580500Y-70524391D01*
X118575624Y-70499883D01*
X118575624Y-70499876D01*
X118575623Y-70499877D01*
X118561220Y-70427463D01*
X118561220Y-70427462D01*
X118556464Y-70403553D01*
X118556463Y-70403552D01*
X118556463Y-70403548D01*
X118509311Y-70289714D01*
X118509310Y-70289713D01*
X118509307Y-70289707D01*
X118440858Y-70187267D01*
X118440855Y-70187263D01*
X118350637Y-70097045D01*
X118350606Y-70097016D01*
X117816770Y-69563180D01*
X117783285Y-69501857D01*
X117788269Y-69432165D01*
X117830141Y-69376232D01*
X117895605Y-69351815D01*
X117904430Y-69351499D01*
X118200872Y-69351499D01*
X118200885Y-69351498D01*
X118239744Y-69347320D01*
X118266252Y-69347320D01*
X118305127Y-69351500D01*
X118700872Y-69351499D01*
X118760483Y-69345091D01*
X118895331Y-69294796D01*
X119010546Y-69208546D01*
X119096796Y-69093331D01*
X119147091Y-68958483D01*
X119153500Y-68898873D01*
X119153499Y-68153128D01*
X119147091Y-68093517D01*
X119110096Y-67994330D01*
X119105113Y-67924642D01*
X119110092Y-67907680D01*
X119147091Y-67808483D01*
X119153500Y-67748873D01*
X119153499Y-67003128D01*
X119147091Y-66943517D01*
X119146579Y-66938753D01*
X119158986Y-66869994D01*
X119206597Y-66818857D01*
X119269869Y-66801500D01*
X125741548Y-66801500D01*
X125808587Y-66821185D01*
X125829229Y-66837819D01*
X128669181Y-69677771D01*
X128702666Y-69739094D01*
X128705500Y-69765452D01*
X128705500Y-70677870D01*
X128705501Y-70677876D01*
X128711908Y-70737483D01*
X128762202Y-70872328D01*
X128762206Y-70872335D01*
X128848452Y-70987544D01*
X128848455Y-70987547D01*
X128963664Y-71073793D01*
X128963671Y-71073797D01*
X129098517Y-71124091D01*
X129098516Y-71124091D01*
X129105444Y-71124835D01*
X129158127Y-71130500D01*
X130261548Y-71130499D01*
X130328587Y-71150184D01*
X130374342Y-71202987D01*
X130384286Y-71272146D01*
X130355261Y-71335702D01*
X130349229Y-71342180D01*
X130158228Y-71533181D01*
X130096905Y-71566666D01*
X130070547Y-71569500D01*
X129158129Y-71569500D01*
X129158123Y-71569501D01*
X129098516Y-71575908D01*
X128963671Y-71626202D01*
X128963664Y-71626206D01*
X128848455Y-71712452D01*
X128848452Y-71712455D01*
X128762206Y-71827664D01*
X128762202Y-71827671D01*
X128711908Y-71962517D01*
X128705501Y-72022116D01*
X128705500Y-72022135D01*
X128705500Y-73217870D01*
X128705501Y-73217876D01*
X128711908Y-73277483D01*
X128762202Y-73412328D01*
X128762206Y-73412335D01*
X128848452Y-73527544D01*
X128848455Y-73527547D01*
X128963664Y-73613793D01*
X128963671Y-73613797D01*
X129098517Y-73664091D01*
X129098516Y-73664091D01*
X129105444Y-73664835D01*
X129158127Y-73670500D01*
X130261547Y-73670499D01*
X130328586Y-73690184D01*
X130374341Y-73742987D01*
X130384285Y-73812146D01*
X130355260Y-73875702D01*
X130349228Y-73882180D01*
X130158227Y-74073181D01*
X130096904Y-74106666D01*
X130070546Y-74109500D01*
X129158129Y-74109500D01*
X129158123Y-74109501D01*
X129098516Y-74115908D01*
X128963671Y-74166202D01*
X128963664Y-74166206D01*
X128848455Y-74252452D01*
X128848452Y-74252455D01*
X128762206Y-74367664D01*
X128762202Y-74367671D01*
X128711908Y-74502517D01*
X128705501Y-74562116D01*
X128705500Y-74562135D01*
X128705500Y-75757870D01*
X128705501Y-75757876D01*
X128711908Y-75817483D01*
X128762202Y-75952328D01*
X128762206Y-75952335D01*
X128848452Y-76067544D01*
X128848455Y-76067547D01*
X128963664Y-76153793D01*
X128963671Y-76153797D01*
X129098517Y-76204091D01*
X129098516Y-76204091D01*
X129105444Y-76204835D01*
X129158127Y-76210500D01*
X130261547Y-76210499D01*
X130328586Y-76230184D01*
X130374341Y-76282987D01*
X130384285Y-76352146D01*
X130355260Y-76415702D01*
X130349228Y-76422180D01*
X130158227Y-76613181D01*
X130096904Y-76646666D01*
X130070546Y-76649500D01*
X129158129Y-76649500D01*
X129158123Y-76649501D01*
X129098516Y-76655908D01*
X128963671Y-76706202D01*
X128963664Y-76706206D01*
X128848455Y-76792452D01*
X128848452Y-76792455D01*
X128762206Y-76907664D01*
X128762202Y-76907671D01*
X128711908Y-77042517D01*
X128705501Y-77102116D01*
X128705500Y-77102135D01*
X128705500Y-78297870D01*
X128705501Y-78297876D01*
X128711908Y-78357483D01*
X128762202Y-78492328D01*
X128762206Y-78492335D01*
X128848452Y-78607544D01*
X128848455Y-78607547D01*
X128963664Y-78693793D01*
X128963671Y-78693797D01*
X129098517Y-78744091D01*
X129098516Y-78744091D01*
X129105444Y-78744835D01*
X129158127Y-78750500D01*
X130261547Y-78750499D01*
X130328586Y-78770184D01*
X130374341Y-78822987D01*
X130384285Y-78892146D01*
X130355260Y-78955702D01*
X130349228Y-78962180D01*
X130158227Y-79153181D01*
X130096904Y-79186666D01*
X130070546Y-79189500D01*
X129158129Y-79189500D01*
X129158123Y-79189501D01*
X129098516Y-79195908D01*
X128963671Y-79246202D01*
X128963664Y-79246206D01*
X128848455Y-79332452D01*
X128848452Y-79332455D01*
X128762206Y-79447664D01*
X128762202Y-79447671D01*
X128711908Y-79582517D01*
X128705501Y-79642116D01*
X128705500Y-79642135D01*
X128705500Y-80837870D01*
X128705501Y-80837876D01*
X128711908Y-80897483D01*
X128762202Y-81032328D01*
X128762206Y-81032335D01*
X128848452Y-81147544D01*
X128848455Y-81147547D01*
X128963664Y-81233793D01*
X128963671Y-81233797D01*
X129098517Y-81284091D01*
X129098516Y-81284091D01*
X129105444Y-81284835D01*
X129158127Y-81290500D01*
X130753872Y-81290499D01*
X130813483Y-81284091D01*
X130948331Y-81233796D01*
X131063546Y-81147546D01*
X131149796Y-81032331D01*
X131200091Y-80897483D01*
X131206500Y-80837873D01*
X131206500Y-80837844D01*
X137606000Y-80837844D01*
X137612401Y-80897372D01*
X137612403Y-80897379D01*
X137662645Y-81032086D01*
X137662649Y-81032093D01*
X137748809Y-81147187D01*
X137748812Y-81147190D01*
X137863906Y-81233350D01*
X137863913Y-81233354D01*
X137998620Y-81283596D01*
X137998627Y-81283598D01*
X138058155Y-81289999D01*
X138058172Y-81290000D01*
X138606000Y-81290000D01*
X139106000Y-81290000D01*
X139653828Y-81290000D01*
X139653844Y-81289999D01*
X139713372Y-81283598D01*
X139713379Y-81283596D01*
X139848086Y-81233354D01*
X139848093Y-81233350D01*
X139963187Y-81147190D01*
X139963190Y-81147187D01*
X140049350Y-81032093D01*
X140049354Y-81032086D01*
X140099596Y-80897379D01*
X140099598Y-80897372D01*
X140105999Y-80837844D01*
X140106000Y-80837827D01*
X140106000Y-80490000D01*
X139106000Y-80490000D01*
X139106000Y-81290000D01*
X138606000Y-81290000D01*
X138606000Y-80490000D01*
X137606000Y-80490000D01*
X137606000Y-80837844D01*
X131206500Y-80837844D01*
X131206499Y-79925451D01*
X131226183Y-79858413D01*
X131242813Y-79837776D01*
X131438434Y-79642155D01*
X137606000Y-79642155D01*
X137606000Y-79990000D01*
X138606000Y-79990000D01*
X139106000Y-79990000D01*
X140106000Y-79990000D01*
X140106000Y-79642172D01*
X140105999Y-79642155D01*
X140099598Y-79582627D01*
X140099596Y-79582620D01*
X140049354Y-79447913D01*
X140049350Y-79447906D01*
X139963190Y-79332812D01*
X139963187Y-79332809D01*
X139848093Y-79246649D01*
X139848086Y-79246645D01*
X139713379Y-79196403D01*
X139713372Y-79196401D01*
X139653844Y-79190000D01*
X139106000Y-79190000D01*
X139106000Y-79990000D01*
X138606000Y-79990000D01*
X138606000Y-79190000D01*
X138058155Y-79190000D01*
X137998627Y-79196401D01*
X137998620Y-79196403D01*
X137863913Y-79246645D01*
X137863906Y-79246649D01*
X137748812Y-79332809D01*
X137748809Y-79332812D01*
X137662649Y-79447906D01*
X137662645Y-79447913D01*
X137612403Y-79582620D01*
X137612401Y-79582627D01*
X137606000Y-79642155D01*
X131438434Y-79642155D01*
X132782746Y-78297844D01*
X137606000Y-78297844D01*
X137612401Y-78357372D01*
X137612403Y-78357379D01*
X137662645Y-78492086D01*
X137662649Y-78492093D01*
X137748809Y-78607187D01*
X137748812Y-78607190D01*
X137863906Y-78693350D01*
X137863913Y-78693354D01*
X137998620Y-78743596D01*
X137998627Y-78743598D01*
X138058155Y-78749999D01*
X138058172Y-78750000D01*
X138606000Y-78750000D01*
X139106000Y-78750000D01*
X139653828Y-78750000D01*
X139653844Y-78749999D01*
X139713372Y-78743598D01*
X139713379Y-78743596D01*
X139848086Y-78693354D01*
X139848093Y-78693350D01*
X139963187Y-78607190D01*
X139963190Y-78607187D01*
X140049350Y-78492093D01*
X140049354Y-78492086D01*
X140099596Y-78357379D01*
X140099598Y-78357372D01*
X140105999Y-78297844D01*
X140106000Y-78297827D01*
X140106000Y-77950000D01*
X139106000Y-77950000D01*
X139106000Y-78750000D01*
X138606000Y-78750000D01*
X138606000Y-77950000D01*
X137606000Y-77950000D01*
X137606000Y-78297844D01*
X132782746Y-78297844D01*
X133978436Y-77102155D01*
X137606000Y-77102155D01*
X137606000Y-77450000D01*
X138606000Y-77450000D01*
X139106000Y-77450000D01*
X140106000Y-77450000D01*
X140106000Y-77102172D01*
X140105999Y-77102155D01*
X140099598Y-77042627D01*
X140099596Y-77042620D01*
X140049354Y-76907913D01*
X140049350Y-76907906D01*
X139963190Y-76792812D01*
X139963187Y-76792809D01*
X139848093Y-76706649D01*
X139848086Y-76706645D01*
X139713379Y-76656403D01*
X139713372Y-76656401D01*
X139653844Y-76650000D01*
X139106000Y-76650000D01*
X139106000Y-77450000D01*
X138606000Y-77450000D01*
X138606000Y-76650000D01*
X138058155Y-76650000D01*
X137998627Y-76656401D01*
X137998620Y-76656403D01*
X137863913Y-76706645D01*
X137863906Y-76706649D01*
X137748812Y-76792809D01*
X137748809Y-76792812D01*
X137662649Y-76907906D01*
X137662645Y-76907913D01*
X137612403Y-77042620D01*
X137612401Y-77042627D01*
X137606000Y-77102155D01*
X133978436Y-77102155D01*
X134030857Y-77049734D01*
X134035680Y-77042517D01*
X134099311Y-76947286D01*
X134146463Y-76833452D01*
X134158398Y-76773451D01*
X134170500Y-76712607D01*
X134170500Y-76589394D01*
X134170500Y-75757844D01*
X137606000Y-75757844D01*
X137612401Y-75817372D01*
X137612403Y-75817379D01*
X137662645Y-75952086D01*
X137662649Y-75952093D01*
X137748809Y-76067187D01*
X137748812Y-76067190D01*
X137863906Y-76153350D01*
X137863913Y-76153354D01*
X137998620Y-76203596D01*
X137998627Y-76203598D01*
X138058155Y-76209999D01*
X138058172Y-76210000D01*
X138606000Y-76210000D01*
X139106000Y-76210000D01*
X139653828Y-76210000D01*
X139653844Y-76209999D01*
X139713372Y-76203598D01*
X139713379Y-76203596D01*
X139848086Y-76153354D01*
X139848093Y-76153350D01*
X139963187Y-76067190D01*
X139963190Y-76067187D01*
X140049350Y-75952093D01*
X140049354Y-75952086D01*
X140099596Y-75817379D01*
X140099598Y-75817372D01*
X140105999Y-75757844D01*
X140106000Y-75757827D01*
X140106000Y-75410000D01*
X139106000Y-75410000D01*
X139106000Y-76210000D01*
X138606000Y-76210000D01*
X138606000Y-75410000D01*
X137606000Y-75410000D01*
X137606000Y-75757844D01*
X134170500Y-75757844D01*
X134170500Y-74562155D01*
X137606000Y-74562155D01*
X137606000Y-74910000D01*
X138606000Y-74910000D01*
X139106000Y-74910000D01*
X140106000Y-74910000D01*
X140106000Y-74562172D01*
X140105999Y-74562155D01*
X140099598Y-74502627D01*
X140099596Y-74502620D01*
X140049354Y-74367913D01*
X140049350Y-74367906D01*
X139963190Y-74252812D01*
X139963187Y-74252809D01*
X139848093Y-74166649D01*
X139848086Y-74166645D01*
X139713379Y-74116403D01*
X139713372Y-74116401D01*
X139653844Y-74110000D01*
X139106000Y-74110000D01*
X139106000Y-74910000D01*
X138606000Y-74910000D01*
X138606000Y-74110000D01*
X138058155Y-74110000D01*
X137998627Y-74116401D01*
X137998620Y-74116403D01*
X137863913Y-74166645D01*
X137863906Y-74166649D01*
X137748812Y-74252809D01*
X137748809Y-74252812D01*
X137662649Y-74367906D01*
X137662645Y-74367913D01*
X137612403Y-74502620D01*
X137612401Y-74502627D01*
X137606000Y-74562155D01*
X134170500Y-74562155D01*
X134170500Y-73217844D01*
X137606000Y-73217844D01*
X137612401Y-73277372D01*
X137612403Y-73277379D01*
X137662645Y-73412086D01*
X137662649Y-73412093D01*
X137748809Y-73527187D01*
X137748812Y-73527190D01*
X137863906Y-73613350D01*
X137863913Y-73613354D01*
X137998620Y-73663596D01*
X137998627Y-73663598D01*
X138058155Y-73669999D01*
X138058172Y-73670000D01*
X138606000Y-73670000D01*
X139106000Y-73670000D01*
X139653828Y-73670000D01*
X139653844Y-73669999D01*
X139713372Y-73663598D01*
X139713379Y-73663596D01*
X139848086Y-73613354D01*
X139848093Y-73613350D01*
X139963187Y-73527190D01*
X139963190Y-73527187D01*
X140049350Y-73412093D01*
X140049354Y-73412086D01*
X140099596Y-73277379D01*
X140099598Y-73277372D01*
X140105999Y-73217844D01*
X140106000Y-73217827D01*
X140106000Y-72870000D01*
X139106000Y-72870000D01*
X139106000Y-73670000D01*
X138606000Y-73670000D01*
X138606000Y-72870000D01*
X137606000Y-72870000D01*
X137606000Y-73217844D01*
X134170500Y-73217844D01*
X134170500Y-72022155D01*
X137606000Y-72022155D01*
X137606000Y-72370000D01*
X138606000Y-72370000D01*
X139106000Y-72370000D01*
X140106000Y-72370000D01*
X140106000Y-72022172D01*
X140105999Y-72022155D01*
X140099598Y-71962627D01*
X140099596Y-71962620D01*
X140049354Y-71827913D01*
X140049350Y-71827906D01*
X139963190Y-71712812D01*
X139963187Y-71712809D01*
X139848093Y-71626649D01*
X139848086Y-71626645D01*
X139713379Y-71576403D01*
X139713372Y-71576401D01*
X139653844Y-71570000D01*
X139106000Y-71570000D01*
X139106000Y-72370000D01*
X138606000Y-72370000D01*
X138606000Y-71570000D01*
X138058155Y-71570000D01*
X137998627Y-71576401D01*
X137998620Y-71576403D01*
X137863913Y-71626645D01*
X137863906Y-71626649D01*
X137748812Y-71712809D01*
X137748809Y-71712812D01*
X137662649Y-71827906D01*
X137662645Y-71827913D01*
X137612403Y-71962620D01*
X137612401Y-71962627D01*
X137606000Y-72022155D01*
X134170500Y-72022155D01*
X134170500Y-70677844D01*
X137606000Y-70677844D01*
X137612401Y-70737372D01*
X137612403Y-70737379D01*
X137662645Y-70872086D01*
X137662649Y-70872093D01*
X137748809Y-70987187D01*
X137748812Y-70987190D01*
X137863906Y-71073350D01*
X137863913Y-71073354D01*
X137998620Y-71123596D01*
X137998627Y-71123598D01*
X138058155Y-71129999D01*
X138058172Y-71130000D01*
X138606000Y-71130000D01*
X139106000Y-71130000D01*
X139653828Y-71130000D01*
X139653844Y-71129999D01*
X139713372Y-71123598D01*
X139713379Y-71123596D01*
X139848086Y-71073354D01*
X139848093Y-71073350D01*
X139963187Y-70987190D01*
X139963190Y-70987187D01*
X140049350Y-70872093D01*
X140049354Y-70872086D01*
X140099596Y-70737379D01*
X140099598Y-70737372D01*
X140105999Y-70677844D01*
X140106000Y-70677827D01*
X140106000Y-70330000D01*
X139106000Y-70330000D01*
X139106000Y-71130000D01*
X138606000Y-71130000D01*
X138606000Y-70330000D01*
X137606000Y-70330000D01*
X137606000Y-70677844D01*
X134170500Y-70677844D01*
X134170500Y-69482155D01*
X137606000Y-69482155D01*
X137606000Y-69830000D01*
X138606000Y-69830000D01*
X139106000Y-69830000D01*
X140106000Y-69830000D01*
X140106000Y-69482172D01*
X140105999Y-69482155D01*
X140099598Y-69422627D01*
X140099596Y-69422620D01*
X140049354Y-69287913D01*
X140049350Y-69287906D01*
X139963190Y-69172812D01*
X139963187Y-69172809D01*
X139848093Y-69086649D01*
X139848086Y-69086645D01*
X139713379Y-69036403D01*
X139713372Y-69036401D01*
X139653844Y-69030000D01*
X139106000Y-69030000D01*
X139106000Y-69830000D01*
X138606000Y-69830000D01*
X138606000Y-69030000D01*
X138058155Y-69030000D01*
X137998627Y-69036401D01*
X137998620Y-69036403D01*
X137863913Y-69086645D01*
X137863906Y-69086649D01*
X137748812Y-69172809D01*
X137748809Y-69172812D01*
X137662649Y-69287906D01*
X137662645Y-69287913D01*
X137612403Y-69422620D01*
X137612401Y-69422627D01*
X137606000Y-69482155D01*
X134170500Y-69482155D01*
X134170500Y-68014394D01*
X134168539Y-68004537D01*
X134168538Y-68004530D01*
X134168538Y-68004529D01*
X134153460Y-67928729D01*
X134146463Y-67893549D01*
X134135779Y-67867756D01*
X134099313Y-67779718D01*
X134099310Y-67779713D01*
X134084272Y-67757206D01*
X134084270Y-67757204D01*
X134030858Y-67677267D01*
X134030856Y-67677264D01*
X133940637Y-67587045D01*
X133940606Y-67587016D01*
X132661291Y-66307701D01*
X132627806Y-66246378D01*
X132632790Y-66176686D01*
X132674662Y-66120753D01*
X132708709Y-66102739D01*
X132849603Y-66054369D01*
X132849614Y-66054364D01*
X133068228Y-65936057D01*
X133068231Y-65936055D01*
X133115056Y-65899609D01*
X132415234Y-65199787D01*
X132457292Y-65188518D01*
X132582708Y-65116110D01*
X132685110Y-65013708D01*
X132757518Y-64888292D01*
X132768787Y-64846234D01*
X133468434Y-65545882D01*
X133568731Y-65392369D01*
X133668587Y-65164717D01*
X133729612Y-64923738D01*
X133729614Y-64923729D01*
X133750141Y-64676005D01*
X133750141Y-64675994D01*
X137239859Y-64675994D01*
X137239859Y-64676005D01*
X137260385Y-64923729D01*
X137260387Y-64923738D01*
X137321412Y-65164717D01*
X137421266Y-65392364D01*
X137521564Y-65545882D01*
X138221212Y-64846234D01*
X138232482Y-64888292D01*
X138304890Y-65013708D01*
X138407292Y-65116110D01*
X138532708Y-65188518D01*
X138574765Y-65199787D01*
X137874942Y-65899609D01*
X137921768Y-65936055D01*
X137921770Y-65936056D01*
X138140385Y-66054364D01*
X138140396Y-66054369D01*
X138375506Y-66135083D01*
X138620707Y-66176000D01*
X138869293Y-66176000D01*
X139114493Y-66135083D01*
X139349603Y-66054369D01*
X139349614Y-66054364D01*
X139568228Y-65936057D01*
X139568231Y-65936055D01*
X139615056Y-65899609D01*
X138915234Y-65199787D01*
X138957292Y-65188518D01*
X139082708Y-65116110D01*
X139185110Y-65013708D01*
X139257518Y-64888292D01*
X139268787Y-64846235D01*
X139968434Y-65545882D01*
X140068731Y-65392369D01*
X140168587Y-65164717D01*
X140229612Y-64923738D01*
X140229614Y-64923729D01*
X140250141Y-64676005D01*
X140250141Y-64675994D01*
X140229614Y-64428270D01*
X140229612Y-64428261D01*
X140168587Y-64187282D01*
X140068731Y-63959630D01*
X139968434Y-63806116D01*
X139268787Y-64505764D01*
X139257518Y-64463708D01*
X139185110Y-64338292D01*
X139082708Y-64235890D01*
X138957292Y-64163482D01*
X138915235Y-64152212D01*
X139615057Y-63452390D01*
X139615056Y-63452389D01*
X139568229Y-63415943D01*
X139349614Y-63297635D01*
X139349603Y-63297630D01*
X139114493Y-63216916D01*
X138869293Y-63176000D01*
X138620707Y-63176000D01*
X138375506Y-63216916D01*
X138140396Y-63297630D01*
X138140390Y-63297632D01*
X137921761Y-63415949D01*
X137874942Y-63452388D01*
X137874942Y-63452390D01*
X138574765Y-64152212D01*
X138532708Y-64163482D01*
X138407292Y-64235890D01*
X138304890Y-64338292D01*
X138232482Y-64463708D01*
X138221212Y-64505764D01*
X137521564Y-63806116D01*
X137421267Y-63959632D01*
X137321412Y-64187282D01*
X137260387Y-64428261D01*
X137260385Y-64428270D01*
X137239859Y-64675994D01*
X133750141Y-64675994D01*
X133729614Y-64428270D01*
X133729612Y-64428261D01*
X133668587Y-64187282D01*
X133568731Y-63959630D01*
X133468434Y-63806116D01*
X132768787Y-64505764D01*
X132757518Y-64463708D01*
X132685110Y-64338292D01*
X132582708Y-64235890D01*
X132457292Y-64163482D01*
X132415235Y-64152212D01*
X133115057Y-63452390D01*
X133115056Y-63452389D01*
X133068229Y-63415943D01*
X132849614Y-63297635D01*
X132849603Y-63297630D01*
X132614493Y-63216916D01*
X132369293Y-63176000D01*
X132120707Y-63176000D01*
X131875506Y-63216916D01*
X131640396Y-63297630D01*
X131640390Y-63297632D01*
X131421761Y-63415949D01*
X131374942Y-63452388D01*
X131374942Y-63452390D01*
X132074765Y-64152212D01*
X132032708Y-64163482D01*
X131907292Y-64235890D01*
X131804890Y-64338292D01*
X131732482Y-64463708D01*
X131721212Y-64505765D01*
X131021564Y-63806116D01*
X130921267Y-63959632D01*
X130821411Y-64187284D01*
X130821408Y-64187291D01*
X130818295Y-64199585D01*
X130782753Y-64259739D01*
X130720331Y-64291128D01*
X130650848Y-64283787D01*
X130610410Y-64256820D01*
X128935198Y-62581608D01*
X128935178Y-62581586D01*
X128843733Y-62490141D01*
X128792509Y-62455915D01*
X128741287Y-62421689D01*
X128741286Y-62421688D01*
X128741283Y-62421686D01*
X128741280Y-62421685D01*
X128660792Y-62388347D01*
X128627453Y-62374537D01*
X128616301Y-62372319D01*
X128567029Y-62362518D01*
X128506610Y-62350500D01*
X128506607Y-62350500D01*
X128506606Y-62350500D01*
X123142452Y-62350500D01*
X123075413Y-62330815D01*
X123029658Y-62278011D01*
X123019714Y-62208853D01*
X123048739Y-62145297D01*
X123054771Y-62138819D01*
X123782771Y-61410818D01*
X123844094Y-61377333D01*
X123870452Y-61374499D01*
X124535002Y-61374499D01*
X124535008Y-61374499D01*
X124637797Y-61363999D01*
X124804334Y-61308814D01*
X124953656Y-61216712D01*
X125047319Y-61123049D01*
X125108642Y-61089564D01*
X125178334Y-61094548D01*
X125222681Y-61123049D01*
X125316344Y-61216712D01*
X125465666Y-61308814D01*
X125632203Y-61363999D01*
X125734991Y-61374500D01*
X126535008Y-61374499D01*
X126535016Y-61374498D01*
X126535019Y-61374498D01*
X126591302Y-61368748D01*
X126637797Y-61363999D01*
X126804334Y-61308814D01*
X126953656Y-61216712D01*
X127077712Y-61092656D01*
X127169814Y-60943334D01*
X127189311Y-60884493D01*
X127229084Y-60827051D01*
X127293600Y-60800228D01*
X127307017Y-60799500D01*
X130798973Y-60799500D01*
X130866012Y-60819185D01*
X130911767Y-60871989D01*
X130912529Y-60873690D01*
X130920826Y-60892606D01*
X131056833Y-61100782D01*
X131056836Y-61100785D01*
X131225256Y-61283738D01*
X131421491Y-61436474D01*
X131640190Y-61554828D01*
X131875386Y-61635571D01*
X132120665Y-61676500D01*
X132369335Y-61676500D01*
X132614614Y-61635571D01*
X132849810Y-61554828D01*
X133068509Y-61436474D01*
X133264744Y-61283738D01*
X133433164Y-61100785D01*
X133569173Y-60892607D01*
X133569175Y-60892603D01*
X133576595Y-60875689D01*
X133621551Y-60822203D01*
X133688287Y-60801514D01*
X133690150Y-60801500D01*
X137299850Y-60801500D01*
X137366889Y-60821185D01*
X137412644Y-60873989D01*
X137413405Y-60875689D01*
X137420824Y-60892603D01*
X137556833Y-61100782D01*
X137556836Y-61100785D01*
X137725256Y-61283738D01*
X137921491Y-61436474D01*
X138140190Y-61554828D01*
X138375386Y-61635571D01*
X138620665Y-61676500D01*
X138869335Y-61676500D01*
X139114614Y-61635571D01*
X139349810Y-61554828D01*
X139568509Y-61436474D01*
X139764744Y-61283738D01*
X139933164Y-61100785D01*
X140069173Y-60892607D01*
X140169063Y-60664881D01*
X140180196Y-60620914D01*
X140215734Y-60560760D01*
X140278154Y-60529366D01*
X140347637Y-60536703D01*
X140388083Y-60563673D01*
X143183181Y-63358771D01*
X143216666Y-63420094D01*
X143219500Y-63446452D01*
X143219500Y-73003983D01*
X143199815Y-73071022D01*
X143147011Y-73116777D01*
X143134510Y-73121686D01*
X143075666Y-73141186D01*
X143075663Y-73141187D01*
X142926342Y-73233289D01*
X142802289Y-73357342D01*
X142710187Y-73506663D01*
X142710185Y-73506668D01*
X142696128Y-73549090D01*
X142655001Y-73673203D01*
X142655001Y-73673204D01*
X142655000Y-73673204D01*
X142644500Y-73775983D01*
X142644500Y-74576001D01*
X142644501Y-74576019D01*
X142655000Y-74678796D01*
X142655001Y-74678799D01*
X142710185Y-74845331D01*
X142710187Y-74845336D01*
X142738701Y-74891564D01*
X142802287Y-74994655D01*
X142802289Y-74994657D01*
X142895951Y-75088319D01*
X142929436Y-75149642D01*
X142924452Y-75219334D01*
X142895951Y-75263681D01*
X142802289Y-75357342D01*
X142710187Y-75506663D01*
X142710185Y-75506668D01*
X142692359Y-75560463D01*
X142655001Y-75673203D01*
X142655001Y-75673204D01*
X142655000Y-75673204D01*
X142644500Y-75775983D01*
X142644500Y-76576001D01*
X142644501Y-76576019D01*
X142655000Y-76678796D01*
X142655001Y-76678799D01*
X142710185Y-76845331D01*
X142710187Y-76845336D01*
X142724238Y-76868116D01*
X142802288Y-76994656D01*
X142926344Y-77118712D01*
X143075666Y-77210814D01*
X143242203Y-77265999D01*
X143344991Y-77276500D01*
X144345008Y-77276499D01*
X144345016Y-77276498D01*
X144345019Y-77276498D01*
X144401302Y-77270748D01*
X144447797Y-77265999D01*
X144614334Y-77210814D01*
X144763656Y-77118712D01*
X144887712Y-76994656D01*
X144970519Y-76860402D01*
X145022467Y-76813679D01*
X145076058Y-76801500D01*
X145115179Y-76801500D01*
X145182218Y-76821185D01*
X145227973Y-76873989D01*
X145228735Y-76875690D01*
X145309075Y-77058848D01*
X145436016Y-77253147D01*
X145436019Y-77253151D01*
X145436021Y-77253153D01*
X145593216Y-77423913D01*
X145593219Y-77423915D01*
X145593222Y-77423918D01*
X145776365Y-77566464D01*
X145776371Y-77566468D01*
X145776374Y-77566470D01*
X145980497Y-77676936D01*
X146070934Y-77707983D01*
X146200015Y-77752297D01*
X146200017Y-77752297D01*
X146200019Y-77752298D01*
X146428951Y-77790500D01*
X146428952Y-77790500D01*
X146661048Y-77790500D01*
X146661049Y-77790500D01*
X146889981Y-77752298D01*
X147109503Y-77676936D01*
X147313626Y-77566470D01*
X147339008Y-77546715D01*
X147445434Y-77463880D01*
X147496784Y-77423913D01*
X147653979Y-77253153D01*
X147780924Y-77058849D01*
X147874157Y-76846300D01*
X147931134Y-76621305D01*
X147931807Y-76613181D01*
X147950300Y-76390006D01*
X147950300Y-76389993D01*
X147931135Y-76158702D01*
X147931133Y-76158691D01*
X147874157Y-75933699D01*
X147780924Y-75721151D01*
X147653983Y-75526852D01*
X147653980Y-75526849D01*
X147653979Y-75526847D01*
X147586241Y-75453264D01*
X147555321Y-75390612D01*
X147563181Y-75321186D01*
X147607329Y-75267031D01*
X147634140Y-75253102D01*
X147687086Y-75233354D01*
X147687093Y-75233350D01*
X147802187Y-75147190D01*
X147802190Y-75147187D01*
X147888350Y-75032093D01*
X147888354Y-75032086D01*
X147938596Y-74897379D01*
X147938598Y-74897372D01*
X147944999Y-74837844D01*
X147945000Y-74837827D01*
X147945000Y-74140000D01*
X146920278Y-74140000D01*
X146964333Y-74063694D01*
X146995000Y-73949244D01*
X146995000Y-73830756D01*
X146964333Y-73716306D01*
X146920278Y-73640000D01*
X147945000Y-73640000D01*
X147945000Y-72942172D01*
X147944999Y-72942155D01*
X147938598Y-72882627D01*
X147938596Y-72882620D01*
X147888354Y-72747913D01*
X147888350Y-72747906D01*
X147802190Y-72632812D01*
X147802187Y-72632809D01*
X147687093Y-72546649D01*
X147687086Y-72546645D01*
X147552379Y-72496403D01*
X147552372Y-72496401D01*
X147492844Y-72490000D01*
X146795000Y-72490000D01*
X146795000Y-73514722D01*
X146718694Y-73470667D01*
X146604244Y-73440000D01*
X146485756Y-73440000D01*
X146371306Y-73470667D01*
X146295000Y-73514722D01*
X146295000Y-72490000D01*
X145597155Y-72490000D01*
X145537627Y-72496401D01*
X145537620Y-72496403D01*
X145402913Y-72546645D01*
X145402906Y-72546649D01*
X145287812Y-72632809D01*
X145287809Y-72632812D01*
X145201649Y-72747906D01*
X145201645Y-72747913D01*
X145151403Y-72882620D01*
X145151401Y-72882627D01*
X145145000Y-72942155D01*
X145145000Y-73337236D01*
X145125315Y-73404275D01*
X145072511Y-73450030D01*
X145003353Y-73459974D01*
X144939797Y-73430949D01*
X144915461Y-73402333D01*
X144887712Y-73357344D01*
X144763656Y-73233288D01*
X144631356Y-73151685D01*
X144614336Y-73141187D01*
X144614335Y-73141186D01*
X144614334Y-73141186D01*
X144555493Y-73121688D01*
X144498051Y-73081916D01*
X144471228Y-73017400D01*
X144470500Y-73003983D01*
X144470500Y-63074395D01*
X144470500Y-63074394D01*
X144467635Y-63059992D01*
X144450638Y-62974537D01*
X144450638Y-62974535D01*
X144450638Y-62974534D01*
X144446464Y-62953552D01*
X144446463Y-62953550D01*
X144446463Y-62953548D01*
X144399311Y-62839714D01*
X144399310Y-62839713D01*
X144399307Y-62839707D01*
X144330858Y-62737267D01*
X144330855Y-62737263D01*
X144240637Y-62647045D01*
X144240606Y-62647016D01*
X139375198Y-57781608D01*
X139375178Y-57781586D01*
X139283733Y-57690141D01*
X139232509Y-57655915D01*
X139216732Y-57645373D01*
X139181286Y-57621688D01*
X139181283Y-57621686D01*
X139181280Y-57621685D01*
X139100792Y-57588347D01*
X139067453Y-57574537D01*
X139057427Y-57572543D01*
X139007029Y-57562518D01*
X138946610Y-57550500D01*
X138946607Y-57550500D01*
X138946606Y-57550500D01*
X119006607Y-57550500D01*
X118883393Y-57550500D01*
X118883389Y-57550500D01*
X118822971Y-57562518D01*
X118779743Y-57571116D01*
X118762546Y-57574537D01*
X118648716Y-57621687D01*
X118648707Y-57621692D01*
X118546268Y-57690140D01*
X118502705Y-57733703D01*
X118459142Y-57777267D01*
X118459139Y-57777270D01*
X110959072Y-65277336D01*
X110922404Y-65302676D01*
X110394269Y-65541055D01*
X110353536Y-65561705D01*
X110348610Y-65564816D01*
X110348294Y-65564316D01*
X110331200Y-65574515D01*
X110292271Y-65591847D01*
X110292267Y-65591849D01*
X110139132Y-65703109D01*
X110045371Y-65807241D01*
X109985884Y-65843889D01*
X109916027Y-65842558D01*
X109865540Y-65811949D01*
X108076754Y-64023164D01*
X108043269Y-63961841D01*
X108041077Y-63922880D01*
X108047499Y-63860016D01*
X108047500Y-63860009D01*
X108047499Y-63059992D01*
X108038769Y-62974535D01*
X108036999Y-62957203D01*
X108036998Y-62957200D01*
X108035788Y-62953548D01*
X107981814Y-62790666D01*
X107889712Y-62641344D01*
X107796049Y-62547681D01*
X107762564Y-62486358D01*
X107767548Y-62416666D01*
X107796049Y-62372319D01*
X107837553Y-62330815D01*
X107889712Y-62278656D01*
X107981814Y-62129334D01*
X108036999Y-61962797D01*
X108047500Y-61860009D01*
X108047499Y-61059992D01*
X108036999Y-60957203D01*
X107981814Y-60790666D01*
X107889712Y-60641344D01*
X107765656Y-60517288D01*
X107672888Y-60460069D01*
X107616336Y-60425187D01*
X107616331Y-60425185D01*
X107612188Y-60423812D01*
X107449797Y-60370001D01*
X107449795Y-60370000D01*
X107347016Y-60359500D01*
X107347009Y-60359500D01*
X106682453Y-60359500D01*
X106615414Y-60339815D01*
X106594772Y-60323181D01*
X106055928Y-59784338D01*
X106055925Y-59784334D01*
X106055925Y-59784335D01*
X106048858Y-59777268D01*
X106048858Y-59777267D01*
X105961733Y-59690142D01*
X105961732Y-59690141D01*
X105961731Y-59690140D01*
X105910509Y-59655915D01*
X105859287Y-59621689D01*
X105859286Y-59621688D01*
X105859283Y-59621686D01*
X105859280Y-59621685D01*
X105778792Y-59588347D01*
X105745453Y-59574537D01*
X105735427Y-59572543D01*
X105685029Y-59562518D01*
X105624610Y-59550500D01*
X105624607Y-59550500D01*
X105624606Y-59550500D01*
X105190150Y-59550500D01*
X105123111Y-59530815D01*
X105077356Y-59478011D01*
X105076595Y-59476311D01*
X105069175Y-59459396D01*
X104933166Y-59251217D01*
X104822763Y-59131288D01*
X104764744Y-59068262D01*
X104568509Y-58915526D01*
X104568507Y-58915525D01*
X104568506Y-58915524D01*
X104349811Y-58797172D01*
X104349802Y-58797169D01*
X104114616Y-58716429D01*
X103869335Y-58675500D01*
X103620665Y-58675500D01*
X103375383Y-58716429D01*
X103140197Y-58797169D01*
X103140188Y-58797172D01*
X102921493Y-58915524D01*
X102725257Y-59068261D01*
X102556833Y-59251217D01*
X102420824Y-59459396D01*
X102413405Y-59476311D01*
X102368449Y-59529797D01*
X102301713Y-59550486D01*
X102299850Y-59550500D01*
X98690150Y-59550500D01*
X98623111Y-59530815D01*
X98577356Y-59478011D01*
X98576595Y-59476311D01*
X98569175Y-59459396D01*
X98433166Y-59251217D01*
X98322763Y-59131288D01*
X98264744Y-59068262D01*
X98068509Y-58915526D01*
X98068507Y-58915525D01*
X98068506Y-58915524D01*
X97849811Y-58797172D01*
X97849802Y-58797169D01*
X97614616Y-58716429D01*
X97369335Y-58675500D01*
X97120665Y-58675500D01*
X96875383Y-58716429D01*
X96640197Y-58797169D01*
X96640188Y-58797172D01*
X96421493Y-58915524D01*
X96225257Y-59068261D01*
X96056833Y-59251217D01*
X95920826Y-59459393D01*
X95820936Y-59687118D01*
X95759892Y-59928175D01*
X95759890Y-59928187D01*
X95739357Y-60175994D01*
X84886943Y-60175994D01*
X84876187Y-60150875D01*
X84876186Y-60150874D01*
X84876186Y-60150873D01*
X84821617Y-60084783D01*
X84784550Y-60039890D01*
X84736140Y-60004542D01*
X84736125Y-60004532D01*
X83094363Y-59056662D01*
X83039540Y-59032409D01*
X83039537Y-59032408D01*
X82897611Y-59008542D01*
X82897609Y-59008541D01*
X82754703Y-59025629D01*
X82754700Y-59025630D01*
X82622406Y-59082281D01*
X82511421Y-59173918D01*
X82511421Y-59173919D01*
X82476073Y-59222328D01*
X82476063Y-59222343D01*
X81528193Y-60864105D01*
X81503940Y-60918928D01*
X81503939Y-60918931D01*
X81480073Y-61060857D01*
X81480072Y-61060859D01*
X81497160Y-61203765D01*
X81497161Y-61203768D01*
X81553812Y-61336063D01*
X81553814Y-61336065D01*
X81607496Y-61401082D01*
X81635000Y-61465310D01*
X81623413Y-61534213D01*
X81576415Y-61585913D01*
X81552140Y-61597312D01*
X81380504Y-61656235D01*
X81380495Y-61656238D01*
X81176371Y-61766705D01*
X81176365Y-61766709D01*
X80993222Y-61909255D01*
X80993219Y-61909258D01*
X80836016Y-62080026D01*
X80709075Y-62274325D01*
X80615842Y-62486873D01*
X80558866Y-62711865D01*
X80558864Y-62711876D01*
X80539700Y-62943167D01*
X77245000Y-62943167D01*
X77245000Y-58984782D01*
X77245011Y-58983160D01*
X77245227Y-58966643D01*
X77247495Y-58793285D01*
X77248162Y-58781971D01*
X77287948Y-58403421D01*
X77289979Y-58390606D01*
X77327587Y-58213676D01*
X77368942Y-58019115D01*
X77372300Y-58006585D01*
X77445399Y-57781608D01*
X77489664Y-57645373D01*
X77494313Y-57633263D01*
X77499465Y-57621692D01*
X77648797Y-57286286D01*
X77654675Y-57274752D01*
X77844585Y-56945816D01*
X77851639Y-56934954D01*
X78074891Y-56627674D01*
X78083038Y-56617613D01*
X78337190Y-56335349D01*
X78346349Y-56326190D01*
X78628613Y-56072038D01*
X78638674Y-56063891D01*
X78945954Y-55840639D01*
X78956816Y-55833585D01*
X79285752Y-55643675D01*
X79297286Y-55637797D01*
X79644270Y-55483310D01*
X79656373Y-55478664D01*
X80017591Y-55361298D01*
X80030115Y-55357942D01*
X80401611Y-55278978D01*
X80414421Y-55276948D01*
X80792971Y-55237162D01*
X80804285Y-55236495D01*
X80991391Y-55234047D01*
X80994160Y-55234011D01*
X80995782Y-55234000D01*
X144495000Y-55234000D01*
X144495000Y-63734000D01*
G37*
G04 #@! TD.AperFunction*
G04 #@! TA.AperFunction,Conductor*
G36*
X148495840Y-55234011D02*
G01*
X148498677Y-55234048D01*
X148685713Y-55236495D01*
X148697029Y-55237162D01*
X149075575Y-55276948D01*
X149088391Y-55278978D01*
X149459879Y-55357941D01*
X149472414Y-55361300D01*
X149833619Y-55478662D01*
X149845736Y-55483313D01*
X150192705Y-55637794D01*
X150204255Y-55643679D01*
X150533171Y-55833578D01*
X150544053Y-55840645D01*
X150851315Y-56063884D01*
X150861398Y-56072049D01*
X151143640Y-56326181D01*
X151152818Y-56335359D01*
X151406950Y-56617601D01*
X151415118Y-56627688D01*
X151638352Y-56934943D01*
X151645421Y-56945828D01*
X151835316Y-57274737D01*
X151841209Y-57286302D01*
X151995686Y-57633263D01*
X152000337Y-57645380D01*
X152117699Y-58006585D01*
X152121058Y-58019122D01*
X152200020Y-58390606D01*
X152202051Y-58403426D01*
X152241836Y-58781958D01*
X152242504Y-58793296D01*
X152244989Y-58983159D01*
X152245000Y-58984782D01*
X152245000Y-63676000D01*
X144495000Y-63734000D01*
X144495000Y-55234000D01*
X148494218Y-55234000D01*
X148495840Y-55234011D01*
G37*
G04 #@! TD.AperFunction*
G04 #@! TA.AperFunction,Conductor*
G36*
X108102786Y-75579069D02*
G01*
X107948713Y-75948621D01*
X107309358Y-75666000D01*
X107309358Y-75416000D01*
X107948713Y-75209517D01*
X108102786Y-75579069D01*
G37*
G04 #@! TD.AperFunction*
G04 #@! TA.AperFunction,Conductor*
G36*
X108897993Y-75435000D02*
G01*
X108897993Y-75685000D01*
X108254859Y-75948621D01*
X108100786Y-75579069D01*
X108254859Y-75209517D01*
X108897993Y-75435000D01*
G37*
G04 #@! TD.AperFunction*
G04 #@! TA.AperFunction,Conductor*
G36*
X119357879Y-76176197D02*
G01*
X119712619Y-76324097D01*
X119718936Y-76330443D01*
X119718915Y-76339397D01*
X119718412Y-76340452D01*
X119333470Y-77053719D01*
X119326525Y-77059372D01*
X119317617Y-77058458D01*
X119314901Y-77056435D01*
X118975727Y-76717261D01*
X118972306Y-76709367D01*
X118955506Y-76191534D01*
X118955500Y-76191155D01*
X118955500Y-76187678D01*
X118958927Y-76179405D01*
X118967177Y-76175978D01*
X119353357Y-76175297D01*
X119357879Y-76176197D01*
G37*
G04 #@! TD.AperFunction*
G04 #@! TA.AperFunction,Conductor*
G36*
X123370879Y-69428676D02*
G01*
X123573850Y-69467809D01*
X124125515Y-69574171D01*
X124132990Y-69579102D01*
X124135000Y-69585659D01*
X124135000Y-70066340D01*
X124131573Y-70074613D01*
X124125515Y-70077828D01*
X123370879Y-70223323D01*
X123362107Y-70221525D01*
X123357176Y-70214050D01*
X123356964Y-70211870D01*
X123356000Y-69826000D01*
X123356964Y-69440133D01*
X123360412Y-69431870D01*
X123368693Y-69428464D01*
X123370879Y-69428676D01*
G37*
G04 #@! TD.AperFunction*
G04 #@! TA.AperFunction,Conductor*
G36*
X120945000Y-77726000D02*
G01*
X120945000Y-78226000D01*
X120145000Y-78376000D01*
X120144000Y-77976000D01*
X120145000Y-77576000D01*
X120945000Y-77726000D01*
G37*
G04 #@! TD.AperFunction*
G04 #@! TA.AperFunction,Conductor*
G36*
X107356000Y-77573000D02*
G01*
X107201927Y-77942552D01*
X106563553Y-77741000D01*
X106563553Y-77491000D01*
X107201927Y-77203448D01*
X107356000Y-77573000D01*
G37*
G04 #@! TD.AperFunction*
G04 #@! TA.AperFunction,Conductor*
G36*
X117334032Y-73032236D02*
G01*
X117340681Y-73038234D01*
X117341817Y-73043262D01*
X117341817Y-73277113D01*
X117338390Y-73285386D01*
X117334507Y-73287958D01*
X116708806Y-73541207D01*
X116699851Y-73541135D01*
X116693617Y-73534864D01*
X116590677Y-73287958D01*
X116545875Y-73180499D01*
X116545855Y-73171550D01*
X116693807Y-72816679D01*
X116700153Y-72810363D01*
X116708520Y-72810157D01*
X117334032Y-73032236D01*
G37*
G04 #@! TD.AperFunction*
G04 #@! TA.AperFunction,Conductor*
G36*
X113663641Y-69924722D02*
G01*
X113669958Y-69931068D01*
X113670085Y-69939651D01*
X113432856Y-70568337D01*
X113426729Y-70574867D01*
X113421909Y-70575906D01*
X113188079Y-70575906D01*
X113179806Y-70572479D01*
X113177138Y-70568351D01*
X112938983Y-69939660D01*
X112939257Y-69930709D01*
X112945420Y-69924717D01*
X113300025Y-69776875D01*
X113308974Y-69776855D01*
X113663641Y-69924722D01*
G37*
G04 #@! TD.AperFunction*
G04 #@! TA.AperFunction,Conductor*
G36*
X126503956Y-69124655D02*
G01*
X126510274Y-69131002D01*
X126510337Y-69139749D01*
X126262923Y-69766606D01*
X126256698Y-69773044D01*
X126252040Y-69774011D01*
X126018194Y-69774011D01*
X126009921Y-69770584D01*
X126007199Y-69766310D01*
X125779266Y-69139571D01*
X125779658Y-69130626D01*
X125785759Y-69124774D01*
X126140500Y-68976875D01*
X126149449Y-68976855D01*
X126503956Y-69124655D01*
G37*
G04 #@! TD.AperFunction*
G04 #@! TA.AperFunction,Conductor*
G36*
X111228014Y-65727643D02*
G01*
X111393356Y-65892985D01*
X111396783Y-65901258D01*
X111395747Y-65906071D01*
X111119206Y-66518760D01*
X111112679Y-66524891D01*
X111104090Y-66524767D01*
X110748804Y-66378563D01*
X110742457Y-66372245D01*
X110742436Y-66372195D01*
X110596232Y-66016909D01*
X110596253Y-66007955D01*
X110602237Y-66001794D01*
X111214928Y-65725251D01*
X111223878Y-65724972D01*
X111228014Y-65727643D01*
G37*
G04 #@! TD.AperFunction*
G04 #@! TA.AperFunction,Conductor*
G36*
X108695572Y-71933315D02*
G01*
X108696139Y-71933570D01*
X109312968Y-72231805D01*
X109318924Y-72238491D01*
X109319575Y-72242338D01*
X109319575Y-72476188D01*
X109316148Y-72484461D01*
X109311106Y-72487433D01*
X108695048Y-72664424D01*
X108686150Y-72663415D01*
X108681018Y-72657681D01*
X108532832Y-72302250D01*
X108532812Y-72293301D01*
X108680272Y-71939610D01*
X108686618Y-71933294D01*
X108695572Y-71933315D01*
G37*
G04 #@! TD.AperFunction*
G04 #@! TA.AperFunction,Conductor*
G36*
X116065102Y-78466425D02*
G01*
X116071419Y-78472771D01*
X116071537Y-78481377D01*
X116067708Y-78491460D01*
X116066498Y-78493806D01*
X116041133Y-78531768D01*
X116029499Y-78590255D01*
X116029443Y-78590827D01*
X116029339Y-78590816D01*
X116028738Y-78594096D01*
X115832866Y-79109965D01*
X115826726Y-79116483D01*
X115821928Y-79117512D01*
X115588096Y-79117512D01*
X115579823Y-79114085D01*
X115577147Y-79109935D01*
X115379782Y-78585838D01*
X115379256Y-78583998D01*
X115368867Y-78531769D01*
X115347965Y-78500488D01*
X115346748Y-78498118D01*
X115340436Y-78481356D01*
X115340727Y-78472408D01*
X115346880Y-78466438D01*
X115701507Y-78318587D01*
X115710456Y-78318567D01*
X116065102Y-78466425D01*
G37*
G04 #@! TD.AperFunction*
G04 #@! TA.AperFunction,Conductor*
G36*
X119480190Y-73982427D02*
G01*
X119482861Y-73986563D01*
X119720553Y-74615344D01*
X119720273Y-74624294D01*
X119714111Y-74630280D01*
X119359504Y-74778123D01*
X119350550Y-74778144D01*
X119350500Y-74778123D01*
X118995892Y-74630280D01*
X118989574Y-74623933D01*
X118989450Y-74615345D01*
X119227143Y-73986562D01*
X119233274Y-73980036D01*
X119238087Y-73979000D01*
X119471917Y-73979000D01*
X119480190Y-73982427D01*
G37*
G04 #@! TD.AperFunction*
M02*
