M48
; DRILL file {KiCad 8.0.1} date 2024-06-07T17:51:58+0200
; FORMAT={-:-/ absolute / metric / decimal}
; #@! TF.CreationDate,2024-06-07T17:51:58+02:00
; #@! TF.GenerationSoftware,Kicad,Pcbnew,8.0.1
; #@! TF.FileFunction,Plated,1,2,PTH
FMAT,2
METRIC
; #@! TA.AperFunction,Plated,PTH,ViaDrill
T1C0.400
; #@! TA.AperFunction,Plated,PTH,ComponentDrill
T2C0.900
; #@! TA.AperFunction,Plated,PTH,ComponentDrill
T3C1.000
; #@! TA.AperFunction,Plated,PTH,ComponentDrill
T4C1.020
; #@! TA.AperFunction,Plated,PTH,ComponentDrill
T5C1.100
; #@! TA.AperFunction,Plated,PTH,ComponentDrill
T6C3.200
%
G90
G05
T1
X121.835Y-91.805
X121.835Y-98.663
X139.66Y-100.441
X145.035Y-104.85
X145.05Y-90.281
X145.645Y-97.647
X146.28Y-95.634
X146.28Y-100.822
X146.822Y-92.372
X148.835Y-99.484
X149.035Y-86.45
X149.963Y-97.622
X151.233Y-87.741
X151.595Y-89.85
X152.035Y-94.05
X153.996Y-98.392
X154.835Y-93.25
X157.645Y-94.853
X157.645Y-96.25
X158.435Y-98.05
X158.853Y-79.994
X161.647Y-89.9
X164.435Y-89.05
T2
X120.235Y-83.017
X120.235Y-107.5
X121.485Y-109.665
X121.505Y-80.817
X121.835Y-94.0
X121.835Y-96.54
X184.835Y-93.964
X184.835Y-96.464
T3
X162.155Y-92.679
X162.155Y-95.219
X162.155Y-97.759
X164.695Y-92.679
X164.695Y-95.219
X164.695Y-97.759
T4
X125.87Y-87.755
X125.87Y-102.745
T5
X135.535Y-80.25
X135.535Y-84.75
X135.535Y-105.25
X135.535Y-109.75
X142.035Y-80.25
X142.035Y-84.75
X142.035Y-105.25
X142.035Y-109.75
X170.535Y-80.25
X170.535Y-84.75
X177.035Y-80.25
X177.035Y-84.75
T6
X187.035Y-78.75
X187.035Y-111.75
M30
