G04 #@! TF.GenerationSoftware,KiCad,Pcbnew,8.0.1*
G04 #@! TF.CreationDate,2024-06-07T17:50:56+02:00*
G04 #@! TF.ProjectId,Remote,52656d6f-7465-42e6-9b69-6361645f7063,rev?*
G04 #@! TF.SameCoordinates,Original*
G04 #@! TF.FileFunction,Legend,Bot*
G04 #@! TF.FilePolarity,Positive*
%FSLAX46Y46*%
G04 Gerber Fmt 4.6, Leading zero omitted, Abs format (unit mm)*
G04 Created by KiCad (PCBNEW 8.0.1) date 2024-06-07 17:50:56*
%MOMM*%
%LPD*%
G01*
G04 APERTURE LIST*
G04 Aperture macros list*
%AMRotRect*
0 Rectangle, with rotation*
0 The origin of the aperture is its center*
0 $1 length*
0 $2 width*
0 $3 Rotation angle, in degrees counterclockwise*
0 Add horizontal line*
21,1,$1,$2,0,0,$3*%
G04 Aperture macros list end*
%ADD10C,0.150000*%
%ADD11C,0.120000*%
%ADD12R,1.700000X1.700000*%
%ADD13O,1.700000X1.700000*%
%ADD14C,5.700000*%
%ADD15RotRect,1.800000X1.800000X240.000000*%
%ADD16C,1.800000*%
%ADD17RotRect,1.800000X1.800000X300.000000*%
%ADD18C,2.000000*%
%ADD19R,1.800000X1.800000*%
%ADD20R,2.000000X2.000000*%
G04 APERTURE END LIST*
D10*
G36*
X126686259Y-113320000D02*
G01*
X126686259Y-113190795D01*
X126417103Y-113190795D01*
X126365705Y-113188154D01*
X126317553Y-113178870D01*
X126272607Y-113158444D01*
X126260055Y-113148541D01*
X126230167Y-113109617D01*
X126215516Y-113061906D01*
X126213893Y-113036922D01*
X126213893Y-113034968D01*
X126219423Y-112983837D01*
X126237894Y-112937903D01*
X126253216Y-112917243D01*
X126293591Y-112888620D01*
X126340914Y-112875798D01*
X126382909Y-112873035D01*
X126686259Y-112873035D01*
X126686259Y-112747250D01*
X126382909Y-112747250D01*
X126334210Y-112742921D01*
X126285337Y-112724889D01*
X126266405Y-112710614D01*
X126238180Y-112668861D01*
X126227696Y-112620694D01*
X126227082Y-112603635D01*
X126233230Y-112553054D01*
X126255944Y-112507413D01*
X126270801Y-112492260D01*
X126313539Y-112468224D01*
X126365797Y-112456912D01*
X126401960Y-112455136D01*
X126686259Y-112455136D01*
X126686259Y-112326175D01*
X126376559Y-112326175D01*
X126324148Y-112328743D01*
X126269667Y-112338228D01*
X126222361Y-112354702D01*
X126177085Y-112382088D01*
X126157961Y-112399204D01*
X126126545Y-112438848D01*
X126104106Y-112484750D01*
X126090642Y-112536911D01*
X126086224Y-112587686D01*
X126086154Y-112595331D01*
X126091320Y-112645074D01*
X126106818Y-112691873D01*
X126129873Y-112731863D01*
X126165847Y-112769064D01*
X126208818Y-112793717D01*
X126255854Y-112808441D01*
X126267382Y-112810753D01*
X126218734Y-112822717D01*
X126172385Y-112846025D01*
X126134146Y-112879875D01*
X126124256Y-112892086D01*
X126097337Y-112936303D01*
X126080387Y-112984383D01*
X126073408Y-113036328D01*
X126073209Y-113047180D01*
X126073209Y-113049378D01*
X126076972Y-113100337D01*
X126090490Y-113153052D01*
X126113838Y-113199874D01*
X126147017Y-113240804D01*
X126151855Y-113245505D01*
X126194674Y-113278097D01*
X126244484Y-113301376D01*
X126293803Y-113314107D01*
X126348475Y-113319709D01*
X126365079Y-113320000D01*
X126686259Y-113320000D01*
G37*
G36*
X126768324Y-113320000D02*
G01*
X126768324Y-112326175D01*
X126629594Y-112326175D01*
X126629594Y-113320000D01*
X126768324Y-113320000D01*
G37*
G36*
X125720522Y-113320000D02*
G01*
X125720522Y-112407508D01*
X125581060Y-112407508D01*
X125581060Y-113320000D01*
X125720522Y-113320000D01*
G37*
G36*
X126001402Y-112458555D02*
G01*
X126001402Y-112326175D01*
X125299936Y-112326175D01*
X125299936Y-112458555D01*
X126001402Y-112458555D01*
G37*
G36*
X124971185Y-112326175D02*
G01*
X124971185Y-113320000D01*
X125110648Y-113320000D01*
X125110648Y-112477850D01*
X125252065Y-112564556D01*
X125252065Y-112420453D01*
X125110648Y-112326175D01*
X124971185Y-112326175D01*
G37*
G36*
X122287337Y-84834919D02*
G01*
X121368495Y-84834919D01*
X121368495Y-85100167D01*
X122287337Y-85100167D01*
X122287337Y-84834919D01*
G37*
G36*
X122583080Y-106031221D02*
G01*
X121473241Y-106031221D01*
X121473241Y-106296468D01*
X122583080Y-106296468D01*
X122583080Y-106031221D01*
G37*
G36*
X121888453Y-105608681D02*
G01*
X121888453Y-106719009D01*
X122167379Y-106719009D01*
X122167379Y-105608681D01*
X121888453Y-105608681D01*
G37*
G36*
X164226060Y-87590915D02*
G01*
X163393680Y-87590915D01*
X163393680Y-87789851D01*
X164226060Y-87789851D01*
X164226060Y-87590915D01*
G37*
G36*
X163705090Y-87274010D02*
G01*
X163705090Y-88106756D01*
X163914284Y-88106756D01*
X163914284Y-87274010D01*
X163705090Y-87274010D01*
G37*
G36*
X142564252Y-87743689D02*
G01*
X141875121Y-87743689D01*
X141875121Y-87942625D01*
X142564252Y-87942625D01*
X142564252Y-87743689D01*
G37*
D11*
X123180000Y-78690000D02*
X123180000Y-111810000D01*
X123180000Y-111810000D02*
X182890000Y-111810000D01*
X124450000Y-79960000D02*
X124450000Y-110540000D01*
X124450000Y-94996000D02*
X181620000Y-94996000D01*
X124450000Y-110540000D02*
X130795000Y-110540000D01*
X130795000Y-79960000D02*
X124450000Y-79960000D01*
X130795000Y-82500000D02*
X130795000Y-79960000D01*
X130795000Y-110540000D02*
X130795000Y-108000000D01*
X143495000Y-79960000D02*
X143495000Y-82500000D01*
X143495000Y-82500000D02*
X130795000Y-82500000D01*
X143495000Y-85215000D02*
X161275000Y-85215000D01*
X143495000Y-90295000D02*
X143495000Y-85215000D01*
X143495000Y-101475000D02*
X144765000Y-101475000D01*
X143495000Y-104015000D02*
X143495000Y-101475000D01*
X143495000Y-108000000D02*
X130795000Y-108000000D01*
X143495000Y-108000000D02*
X143495000Y-110540000D01*
X143495000Y-110540000D02*
X162545000Y-110540000D01*
X144765000Y-100205000D02*
X162545000Y-100205000D01*
X144765000Y-101475000D02*
X144765000Y-100205000D01*
X144765000Y-104015000D02*
X143495000Y-104015000D01*
X144765000Y-105285000D02*
X144765000Y-104015000D01*
X161275000Y-85215000D02*
X161275000Y-86485000D01*
X161275000Y-86485000D02*
X162545000Y-86485000D01*
X161275000Y-89025000D02*
X161275000Y-90295000D01*
X161275000Y-90295000D02*
X143495000Y-90295000D01*
X162545000Y-79960000D02*
X143495000Y-79960000D01*
X162545000Y-82500000D02*
X162545000Y-79960000D01*
X162545000Y-82500000D02*
X175245000Y-82500000D01*
X162545000Y-86485000D02*
X162545000Y-89025000D01*
X162545000Y-89025000D02*
X161275000Y-89025000D01*
X162545000Y-100205000D02*
X162545000Y-104015000D01*
X162545000Y-104015000D02*
X162545000Y-105285000D01*
X162545000Y-105285000D02*
X144765000Y-105285000D01*
X162545000Y-108000000D02*
X175245000Y-108000000D01*
X162545000Y-110540000D02*
X162545000Y-108000000D01*
X175245000Y-79960000D02*
X181620000Y-79960000D01*
X175245000Y-82500000D02*
X175245000Y-79960000D01*
X175245000Y-108000000D02*
X175245000Y-110540000D01*
X175245000Y-110540000D02*
X181620000Y-110540000D01*
X181620000Y-79960000D02*
X181620000Y-110540000D01*
X181620000Y-95504000D02*
X124450000Y-95504000D01*
X182890000Y-78690000D02*
X123180000Y-78690000D01*
X182890000Y-111810000D02*
X182890000Y-78690000D01*
%LPC*%
D12*
X164695000Y-97759000D03*
D13*
X162155000Y-97759000D03*
X164695000Y-95219000D03*
X162155000Y-95219000D03*
X164695000Y-92679000D03*
X162155000Y-92679000D03*
D14*
X187035000Y-78750000D03*
D15*
X121505000Y-80817469D03*
D16*
X120235000Y-83017174D03*
D14*
X187035000Y-111750000D03*
D17*
X121485001Y-109665064D03*
D16*
X120235000Y-107500000D03*
D18*
X170535000Y-80250000D03*
X177035000Y-80250000D03*
X170535000Y-84750000D03*
X177035000Y-84750000D03*
D19*
X121835000Y-94000000D03*
D16*
X121835000Y-96540000D03*
D18*
X135535000Y-105250000D03*
X142035000Y-105250000D03*
X135535000Y-109750000D03*
X142035000Y-109750000D03*
X135535000Y-80250000D03*
X142035000Y-80250000D03*
X135535000Y-84750000D03*
X142035000Y-84750000D03*
D19*
X184835000Y-93964000D03*
D16*
X184835000Y-96464000D03*
D20*
X125870000Y-102745000D03*
D18*
X125870000Y-87755000D03*
%LPD*%
M02*
