G04 #@! TF.GenerationSoftware,KiCad,Pcbnew,8.0.2*
G04 #@! TF.CreationDate,2024-06-08T23:01:55+02:00*
G04 #@! TF.ProjectId,Remote,52656d6f-7465-42e6-9b69-6361645f7063,rev?*
G04 #@! TF.SameCoordinates,Original*
G04 #@! TF.FileFunction,Legend,Bot*
G04 #@! TF.FilePolarity,Positive*
%FSLAX46Y46*%
G04 Gerber Fmt 4.6, Leading zero omitted, Abs format (unit mm)*
G04 Created by KiCad (PCBNEW 8.0.2) date 2024-06-08 23:01:55*
%MOMM*%
%LPD*%
G01*
G04 APERTURE LIST*
G04 Aperture macros list*
%AMRotRect*
0 Rectangle, with rotation*
0 The origin of the aperture is its center*
0 $1 length*
0 $2 width*
0 $3 Rotation angle, in degrees counterclockwise*
0 Add horizontal line*
21,1,$1,$2,0,0,$3*%
G04 Aperture macros list end*
%ADD10C,0.175000*%
%ADD11C,0.150000*%
%ADD12C,0.120000*%
%ADD13R,1.700000X1.700000*%
%ADD14O,1.700000X1.700000*%
%ADD15C,0.800000*%
%ADD16C,6.400000*%
%ADD17RotRect,1.800000X1.800000X240.000000*%
%ADD18C,1.800000*%
%ADD19RotRect,1.800000X1.800000X300.000000*%
%ADD20C,2.000000*%
%ADD21R,1.800000X1.800000*%
%ADD22R,2.000000X2.000000*%
G04 APERTURE END LIST*
D10*
G36*
X88151381Y-93121500D02*
G01*
X88151381Y-93031056D01*
X87962972Y-93031056D01*
X87926993Y-93029208D01*
X87893287Y-93022709D01*
X87861824Y-93008411D01*
X87853038Y-93001479D01*
X87832116Y-92974232D01*
X87821861Y-92940834D01*
X87820725Y-92923345D01*
X87820725Y-92921978D01*
X87824596Y-92886186D01*
X87837525Y-92854032D01*
X87848251Y-92839570D01*
X87876513Y-92819534D01*
X87909640Y-92810559D01*
X87939036Y-92808624D01*
X88151381Y-92808624D01*
X88151381Y-92720575D01*
X87939036Y-92720575D01*
X87904947Y-92717544D01*
X87870736Y-92704922D01*
X87857483Y-92694929D01*
X87837726Y-92665703D01*
X87830387Y-92631986D01*
X87829957Y-92620045D01*
X87834261Y-92584638D01*
X87850160Y-92552689D01*
X87860561Y-92542082D01*
X87890477Y-92525256D01*
X87927058Y-92517338D01*
X87952372Y-92516095D01*
X88151381Y-92516095D01*
X88151381Y-92425823D01*
X87934591Y-92425823D01*
X87897904Y-92427620D01*
X87859767Y-92434259D01*
X87826653Y-92445791D01*
X87794959Y-92464961D01*
X87781573Y-92476943D01*
X87759582Y-92504693D01*
X87743874Y-92536825D01*
X87734449Y-92573338D01*
X87731357Y-92608880D01*
X87731307Y-92614232D01*
X87734924Y-92649051D01*
X87745772Y-92681811D01*
X87761911Y-92709804D01*
X87787093Y-92735845D01*
X87817173Y-92753102D01*
X87850098Y-92763409D01*
X87858167Y-92765027D01*
X87824114Y-92773401D01*
X87791670Y-92789717D01*
X87764902Y-92813412D01*
X87757979Y-92821960D01*
X87739135Y-92852912D01*
X87727271Y-92886568D01*
X87722386Y-92922929D01*
X87722246Y-92930526D01*
X87722246Y-92932065D01*
X87724880Y-92967736D01*
X87734342Y-93004636D01*
X87750686Y-93037411D01*
X87773911Y-93066062D01*
X87777298Y-93069354D01*
X87807272Y-93092167D01*
X87842139Y-93108463D01*
X87876662Y-93117375D01*
X87914933Y-93121296D01*
X87926555Y-93121500D01*
X88151381Y-93121500D01*
G37*
G36*
X88208827Y-93121500D02*
G01*
X88208827Y-92425823D01*
X88111716Y-92425823D01*
X88111716Y-93121500D01*
X88208827Y-93121500D01*
G37*
G36*
X87475365Y-93121500D02*
G01*
X87475365Y-92482756D01*
X87377741Y-92482756D01*
X87377741Y-93121500D01*
X87475365Y-93121500D01*
G37*
G36*
X87671981Y-92518488D02*
G01*
X87671981Y-92425823D01*
X87180955Y-92425823D01*
X87180955Y-92518488D01*
X87671981Y-92518488D01*
G37*
G36*
X86950829Y-92425823D02*
G01*
X86950829Y-93121500D01*
X87048453Y-93121500D01*
X87048453Y-92531995D01*
X87147445Y-92592689D01*
X87147445Y-92491817D01*
X87048453Y-92425823D01*
X86950829Y-92425823D01*
G37*
D11*
G36*
X83997337Y-64760919D02*
G01*
X83078495Y-64760919D01*
X83078495Y-65026167D01*
X83997337Y-65026167D01*
X83997337Y-64760919D01*
G37*
G36*
X84293080Y-85957221D02*
G01*
X83183241Y-85957221D01*
X83183241Y-86222468D01*
X84293080Y-86222468D01*
X84293080Y-85957221D01*
G37*
G36*
X83598453Y-85534681D02*
G01*
X83598453Y-86645009D01*
X83877379Y-86645009D01*
X83877379Y-85534681D01*
X83598453Y-85534681D01*
G37*
G36*
X125936060Y-67516915D02*
G01*
X125103680Y-67516915D01*
X125103680Y-67715851D01*
X125936060Y-67715851D01*
X125936060Y-67516915D01*
G37*
G36*
X125415090Y-67200010D02*
G01*
X125415090Y-68032756D01*
X125624284Y-68032756D01*
X125624284Y-67200010D01*
X125415090Y-67200010D01*
G37*
G36*
X104274252Y-67669689D02*
G01*
X103585121Y-67669689D01*
X103585121Y-67868625D01*
X104274252Y-67868625D01*
X104274252Y-67669689D01*
G37*
D12*
X84890000Y-58616000D02*
X84890000Y-91736000D01*
X84890000Y-91736000D02*
X144600000Y-91736000D01*
X86160000Y-59886000D02*
X86160000Y-90466000D01*
X86160000Y-74922000D02*
X143330000Y-74922000D01*
X86160000Y-90466000D02*
X92505000Y-90466000D01*
X92505000Y-59886000D02*
X86160000Y-59886000D01*
X92505000Y-62426000D02*
X92505000Y-59886000D01*
X92505000Y-90466000D02*
X92505000Y-87926000D01*
X105205000Y-59886000D02*
X105205000Y-62426000D01*
X105205000Y-62426000D02*
X92505000Y-62426000D01*
X105205000Y-65141000D02*
X122985000Y-65141000D01*
X105205000Y-70221000D02*
X105205000Y-65141000D01*
X105205000Y-81401000D02*
X106475000Y-81401000D01*
X105205000Y-83941000D02*
X105205000Y-81401000D01*
X105205000Y-87926000D02*
X92505000Y-87926000D01*
X105205000Y-87926000D02*
X105205000Y-90466000D01*
X105205000Y-90466000D02*
X124255000Y-90466000D01*
X106475000Y-80131000D02*
X124255000Y-80131000D01*
X106475000Y-81401000D02*
X106475000Y-80131000D01*
X106475000Y-83941000D02*
X105205000Y-83941000D01*
X106475000Y-85211000D02*
X106475000Y-83941000D01*
X122985000Y-65141000D02*
X122985000Y-66411000D01*
X122985000Y-66411000D02*
X124255000Y-66411000D01*
X122985000Y-68951000D02*
X122985000Y-70221000D01*
X122985000Y-70221000D02*
X105205000Y-70221000D01*
X124255000Y-59886000D02*
X105205000Y-59886000D01*
X124255000Y-62426000D02*
X124255000Y-59886000D01*
X124255000Y-62426000D02*
X136955000Y-62426000D01*
X124255000Y-66411000D02*
X124255000Y-68951000D01*
X124255000Y-68951000D02*
X122985000Y-68951000D01*
X124255000Y-80131000D02*
X124255000Y-83941000D01*
X124255000Y-83941000D02*
X124255000Y-85211000D01*
X124255000Y-85211000D02*
X106475000Y-85211000D01*
X124255000Y-87926000D02*
X136955000Y-87926000D01*
X124255000Y-90466000D02*
X124255000Y-87926000D01*
X136955000Y-59886000D02*
X143330000Y-59886000D01*
X136955000Y-62426000D02*
X136955000Y-59886000D01*
X136955000Y-87926000D02*
X136955000Y-90466000D01*
X136955000Y-90466000D02*
X143330000Y-90466000D01*
X143330000Y-59886000D02*
X143330000Y-90466000D01*
X143330000Y-75430000D02*
X86160000Y-75430000D01*
X144600000Y-58616000D02*
X84890000Y-58616000D01*
X144600000Y-91736000D02*
X144600000Y-58616000D01*
%LPC*%
D13*
X126405000Y-77685000D03*
D14*
X123865000Y-77685000D03*
X126405000Y-75145000D03*
X123865000Y-75145000D03*
X126405000Y-72605000D03*
X123865000Y-72605000D03*
D15*
X146095000Y-58984000D03*
X146797944Y-57286944D03*
X146797944Y-60681056D03*
X148495000Y-56584000D03*
D16*
X148495000Y-58984000D03*
D15*
X148495000Y-61384000D03*
X150192056Y-57286944D03*
X150192056Y-60681056D03*
X150895000Y-58984000D03*
D17*
X83215000Y-60743469D03*
D18*
X81945000Y-62943174D03*
D15*
X146095000Y-91484000D03*
X146797944Y-89786944D03*
X146797944Y-93181056D03*
X148495000Y-89084000D03*
D16*
X148495000Y-91484000D03*
D15*
X148495000Y-93884000D03*
X150192056Y-89786944D03*
X150192056Y-93181056D03*
X150895000Y-91484000D03*
D19*
X83195001Y-89591064D03*
D18*
X81945000Y-87426000D03*
D20*
X132245000Y-60176000D03*
X138745000Y-60176000D03*
X132245000Y-64676000D03*
X138745000Y-64676000D03*
D21*
X83545000Y-73926000D03*
D18*
X83545000Y-76466000D03*
D20*
X97245000Y-85176000D03*
X103745000Y-85176000D03*
X97245000Y-89676000D03*
X103745000Y-89676000D03*
X97245000Y-60176000D03*
X103745000Y-60176000D03*
X97245000Y-64676000D03*
X103745000Y-64676000D03*
D21*
X146545000Y-73890000D03*
D18*
X146545000Y-76390000D03*
D22*
X87580000Y-82671000D03*
D20*
X87580000Y-67681000D03*
%LPD*%
M02*
