G04 #@! TF.GenerationSoftware,KiCad,Pcbnew,8.0.2*
G04 #@! TF.CreationDate,2024-06-08T23:01:55+02:00*
G04 #@! TF.ProjectId,Remote,52656d6f-7465-42e6-9b69-6361645f7063,rev?*
G04 #@! TF.SameCoordinates,Original*
G04 #@! TF.FileFunction,Copper,L2,Bot*
G04 #@! TF.FilePolarity,Positive*
%FSLAX46Y46*%
G04 Gerber Fmt 4.6, Leading zero omitted, Abs format (unit mm)*
G04 Created by KiCad (PCBNEW 8.0.2) date 2024-06-08 23:01:55*
%MOMM*%
%LPD*%
G01*
G04 APERTURE LIST*
G04 Aperture macros list*
%AMRotRect*
0 Rectangle, with rotation*
0 The origin of the aperture is its center*
0 $1 length*
0 $2 width*
0 $3 Rotation angle, in degrees counterclockwise*
0 Add horizontal line*
21,1,$1,$2,0,0,$3*%
G04 Aperture macros list end*
G04 #@! TA.AperFunction,ComponentPad*
%ADD10R,1.700000X1.700000*%
G04 #@! TD*
G04 #@! TA.AperFunction,ComponentPad*
%ADD11O,1.700000X1.700000*%
G04 #@! TD*
G04 #@! TA.AperFunction,ComponentPad*
%ADD12C,0.800000*%
G04 #@! TD*
G04 #@! TA.AperFunction,ComponentPad*
%ADD13C,6.400000*%
G04 #@! TD*
G04 #@! TA.AperFunction,ComponentPad*
%ADD14RotRect,1.800000X1.800000X240.000000*%
G04 #@! TD*
G04 #@! TA.AperFunction,ComponentPad*
%ADD15C,1.800000*%
G04 #@! TD*
G04 #@! TA.AperFunction,ComponentPad*
%ADD16RotRect,1.800000X1.800000X300.000000*%
G04 #@! TD*
G04 #@! TA.AperFunction,ComponentPad*
%ADD17C,2.000000*%
G04 #@! TD*
G04 #@! TA.AperFunction,ComponentPad*
%ADD18R,1.800000X1.800000*%
G04 #@! TD*
G04 #@! TA.AperFunction,ComponentPad*
%ADD19R,2.000000X2.000000*%
G04 #@! TD*
G04 #@! TA.AperFunction,ViaPad*
%ADD20C,0.800000*%
G04 #@! TD*
G04 #@! TA.AperFunction,Conductor*
%ADD21C,0.250000*%
G04 #@! TD*
G04 #@! TA.AperFunction,Conductor*
%ADD22C,0.500000*%
G04 #@! TD*
G04 #@! TA.AperFunction,Conductor*
%ADD23C,1.000000*%
G04 #@! TD*
G04 APERTURE END LIST*
D10*
X126405000Y-77685000D03*
D11*
X123865000Y-77685000D03*
X126405000Y-75145000D03*
X123865000Y-75145000D03*
X126405000Y-72605000D03*
X123865000Y-72605000D03*
D12*
X146095000Y-58984000D03*
X146797944Y-57286944D03*
X146797944Y-60681056D03*
X148495000Y-56584000D03*
D13*
X148495000Y-58984000D03*
D12*
X148495000Y-61384000D03*
X150192056Y-57286944D03*
X150192056Y-60681056D03*
X150895000Y-58984000D03*
D14*
X83215000Y-60743469D03*
D15*
X81945000Y-62943174D03*
D12*
X146095000Y-91484000D03*
X146797944Y-89786944D03*
X146797944Y-93181056D03*
X148495000Y-89084000D03*
D13*
X148495000Y-91484000D03*
D12*
X148495000Y-93884000D03*
X150192056Y-89786944D03*
X150192056Y-93181056D03*
X150895000Y-91484000D03*
D16*
X83195001Y-89591064D03*
D15*
X81945000Y-87426000D03*
D17*
X132245000Y-60176000D03*
X138745000Y-60176000D03*
X132245000Y-64676000D03*
X138745000Y-64676000D03*
D18*
X83545000Y-73926000D03*
D15*
X83545000Y-76466000D03*
D17*
X97245000Y-85176000D03*
X103745000Y-85176000D03*
X97245000Y-89676000D03*
X103745000Y-89676000D03*
X97245000Y-60176000D03*
X103745000Y-60176000D03*
X97245000Y-64676000D03*
X103745000Y-64676000D03*
D18*
X146545000Y-73890000D03*
D15*
X146545000Y-76390000D03*
D19*
X87580000Y-82671000D03*
D17*
X87580000Y-67681000D03*
D20*
X143870000Y-74859000D03*
X134495000Y-92984000D03*
X134495000Y-88984000D03*
X134495000Y-84984000D03*
X123357000Y-69826000D03*
X119355002Y-76176000D03*
X106760500Y-70207000D03*
X113745000Y-73976000D03*
X112943000Y-67667000D03*
X108101786Y-75579069D03*
X83545000Y-78589000D03*
X83545000Y-71731000D03*
X107355000Y-77573000D03*
X107990000Y-80748000D03*
X111673000Y-77547600D03*
X120563000Y-59920000D03*
X120145000Y-77976000D03*
X106745000Y-84776000D03*
X116545000Y-73176000D03*
X113304525Y-69776000D03*
X126145000Y-68976000D03*
X101370000Y-80367000D03*
X110545000Y-79410000D03*
X108531957Y-72297751D03*
X110745000Y-66376000D03*
X115706007Y-78317712D03*
X119355002Y-74779000D03*
D21*
X143870000Y-81109000D02*
X143870000Y-74859000D01*
X135995000Y-88984000D02*
X143870000Y-81109000D01*
X134495000Y-88984000D02*
X135995000Y-88984000D01*
X131164000Y-84984000D02*
X123865000Y-77685000D01*
X134495000Y-84984000D02*
X131164000Y-84984000D01*
X110745000Y-92984000D02*
X134495000Y-92984000D01*
X105745000Y-84742000D02*
X105745000Y-87984000D01*
X105745000Y-87984000D02*
X110745000Y-92984000D01*
X101370000Y-80367000D02*
X105745000Y-84742000D01*
D22*
X94296500Y-82671000D02*
X87580000Y-82671000D01*
X121945000Y-71238000D02*
X121945000Y-75765000D01*
X123357000Y-69826000D02*
X121945000Y-71238000D01*
X87580000Y-80501000D02*
X87580000Y-82671000D01*
X119355002Y-76176000D02*
X119766002Y-75765000D01*
X121945000Y-75765000D02*
X123865000Y-77685000D01*
X106760500Y-70207000D02*
X94296500Y-82671000D01*
X119766002Y-75765000D02*
X121945000Y-75765000D01*
X83545000Y-76466000D02*
X87580000Y-80501000D01*
D23*
X123865000Y-72605000D02*
X123865000Y-71656000D01*
X123865000Y-71656000D02*
X124545000Y-70976000D01*
D21*
X115820000Y-75901000D02*
X115820000Y-75875695D01*
X116244695Y-75451000D02*
X116270000Y-75451000D01*
X116545000Y-75176000D02*
X116545000Y-73176000D01*
X106945000Y-84776000D02*
X115820000Y-75901000D01*
X106745000Y-84776000D02*
X106945000Y-84776000D01*
X115820000Y-75875695D02*
X116244695Y-75451000D01*
X116270000Y-75451000D02*
X116545000Y-75176000D01*
X125924783Y-68755783D02*
X126145000Y-68976000D01*
X113304525Y-69776000D02*
X114324742Y-68755783D01*
X114324742Y-68755783D02*
X125924783Y-68755783D01*
X101370000Y-80367000D02*
X102327000Y-79410000D01*
X102327000Y-79410000D02*
X110545000Y-79410000D01*
X110745000Y-66376000D02*
X108531957Y-68589043D01*
X108531957Y-68589043D02*
X108531957Y-72297751D01*
X119244719Y-74779000D02*
X115706007Y-78317712D01*
X119355002Y-74779000D02*
X119244719Y-74779000D01*
G04 #@! TA.AperFunction,Conductor*
G36*
X152245000Y-91483217D02*
G01*
X152244989Y-91484840D01*
X152242504Y-91674703D01*
X152241836Y-91686041D01*
X152202051Y-92064573D01*
X152200020Y-92077393D01*
X152121058Y-92448877D01*
X152117699Y-92461414D01*
X152000337Y-92822619D01*
X151995686Y-92834736D01*
X151841209Y-93181697D01*
X151835316Y-93193262D01*
X151645421Y-93522171D01*
X151638352Y-93533056D01*
X151415118Y-93840311D01*
X151406950Y-93850398D01*
X151152818Y-94132640D01*
X151143640Y-94141818D01*
X150861398Y-94395950D01*
X150851311Y-94404118D01*
X150544056Y-94627352D01*
X150533171Y-94634421D01*
X150204262Y-94824316D01*
X150192697Y-94830209D01*
X149845736Y-94984686D01*
X149833619Y-94989337D01*
X149472414Y-95106699D01*
X149459877Y-95110058D01*
X149088393Y-95189020D01*
X149075574Y-95191051D01*
X148992784Y-95199753D01*
X148980750Y-95200429D01*
X144604473Y-95233180D01*
X144537288Y-95213997D01*
X144515864Y-95196864D01*
X144495000Y-95176000D01*
X144495000Y-86734000D01*
X152245000Y-86734000D01*
X152245000Y-91483217D01*
G37*
G04 #@! TD.AperFunction*
G04 #@! TA.AperFunction,Conductor*
G36*
X144495000Y-63734000D02*
G01*
X152245000Y-63676000D01*
X152245000Y-86734000D01*
X144495000Y-86734000D01*
X144495000Y-95176000D01*
X80353381Y-95176000D01*
X80327600Y-95173290D01*
X80030122Y-95110058D01*
X80017585Y-95106699D01*
X79656380Y-94989337D01*
X79644263Y-94984686D01*
X79297302Y-94830209D01*
X79285737Y-94824316D01*
X78956828Y-94634421D01*
X78945943Y-94627352D01*
X78638688Y-94404118D01*
X78628601Y-94395950D01*
X78346359Y-94141818D01*
X78337181Y-94132640D01*
X78083049Y-93850398D01*
X78074881Y-93840311D01*
X78022451Y-93768148D01*
X77851645Y-93533053D01*
X77844578Y-93522171D01*
X77814376Y-93469859D01*
X77654679Y-93193255D01*
X77648794Y-93181705D01*
X77494313Y-92834736D01*
X77489662Y-92822619D01*
X77372300Y-92461414D01*
X77368941Y-92448877D01*
X77345546Y-92338815D01*
X77289978Y-92077391D01*
X77287948Y-92064573D01*
X77267633Y-91871287D01*
X77248162Y-91686029D01*
X77247495Y-91674713D01*
X77245011Y-91484839D01*
X77245000Y-91483217D01*
X77245000Y-87425993D01*
X80539700Y-87425993D01*
X80539700Y-87426006D01*
X80558864Y-87657297D01*
X80558866Y-87657308D01*
X80615842Y-87882300D01*
X80709075Y-88094848D01*
X80836016Y-88289147D01*
X80836019Y-88289151D01*
X80836021Y-88289153D01*
X80993216Y-88459913D01*
X80993219Y-88459915D01*
X80993222Y-88459918D01*
X81176365Y-88602464D01*
X81176371Y-88602468D01*
X81176374Y-88602470D01*
X81380497Y-88712936D01*
X81432206Y-88730687D01*
X81514273Y-88758862D01*
X81571288Y-88799248D01*
X81597419Y-88864047D01*
X81584367Y-88932687D01*
X81569629Y-88955092D01*
X81533815Y-88998467D01*
X81533813Y-88998469D01*
X81477162Y-89130764D01*
X81477161Y-89130767D01*
X81460073Y-89273673D01*
X81460074Y-89273675D01*
X81483939Y-89415599D01*
X81483940Y-89415603D01*
X81483941Y-89415604D01*
X81505221Y-89463708D01*
X81508198Y-89470436D01*
X82456064Y-91112188D01*
X82491423Y-91160615D01*
X82602404Y-91252249D01*
X82602406Y-91252251D01*
X82734701Y-91308902D01*
X82734704Y-91308903D01*
X82734707Y-91308904D01*
X82855152Y-91323305D01*
X82877610Y-91325991D01*
X82877610Y-91325990D01*
X82877611Y-91325991D01*
X82996737Y-91305958D01*
X83019536Y-91302125D01*
X83019536Y-91302124D01*
X83019541Y-91302124D01*
X83074369Y-91277869D01*
X84716132Y-90329996D01*
X84764552Y-90294641D01*
X84856187Y-90183660D01*
X84912841Y-90051358D01*
X84929928Y-89908454D01*
X84906061Y-89766524D01*
X84881806Y-89711696D01*
X84861193Y-89675994D01*
X95739859Y-89675994D01*
X95739859Y-89676005D01*
X95760385Y-89923729D01*
X95760387Y-89923738D01*
X95821412Y-90164717D01*
X95921266Y-90392364D01*
X96021564Y-90545882D01*
X96721212Y-89846234D01*
X96732482Y-89888292D01*
X96804890Y-90013708D01*
X96907292Y-90116110D01*
X97032708Y-90188518D01*
X97074765Y-90199787D01*
X96374942Y-90899609D01*
X96421768Y-90936055D01*
X96421770Y-90936056D01*
X96640385Y-91054364D01*
X96640396Y-91054369D01*
X96875506Y-91135083D01*
X97120707Y-91176000D01*
X97369293Y-91176000D01*
X97614493Y-91135083D01*
X97849603Y-91054369D01*
X97849614Y-91054364D01*
X98068228Y-90936057D01*
X98068231Y-90936055D01*
X98115056Y-90899609D01*
X97415234Y-90199787D01*
X97457292Y-90188518D01*
X97582708Y-90116110D01*
X97685110Y-90013708D01*
X97757518Y-89888292D01*
X97768787Y-89846235D01*
X98468434Y-90545882D01*
X98568731Y-90392369D01*
X98668587Y-90164717D01*
X98729612Y-89923738D01*
X98729614Y-89923729D01*
X98750141Y-89676005D01*
X98750141Y-89675994D01*
X102239859Y-89675994D01*
X102239859Y-89676005D01*
X102260385Y-89923729D01*
X102260387Y-89923738D01*
X102321412Y-90164717D01*
X102421266Y-90392364D01*
X102521564Y-90545882D01*
X103221212Y-89846234D01*
X103232482Y-89888292D01*
X103304890Y-90013708D01*
X103407292Y-90116110D01*
X103532708Y-90188518D01*
X103574765Y-90199787D01*
X102874942Y-90899609D01*
X102921768Y-90936055D01*
X102921770Y-90936056D01*
X103140385Y-91054364D01*
X103140396Y-91054369D01*
X103375506Y-91135083D01*
X103620707Y-91176000D01*
X103869293Y-91176000D01*
X104114493Y-91135083D01*
X104349603Y-91054369D01*
X104349614Y-91054364D01*
X104568228Y-90936057D01*
X104568231Y-90936055D01*
X104615056Y-90899609D01*
X103915234Y-90199787D01*
X103957292Y-90188518D01*
X104082708Y-90116110D01*
X104185110Y-90013708D01*
X104257518Y-89888292D01*
X104268787Y-89846235D01*
X104968434Y-90545882D01*
X105068731Y-90392369D01*
X105168587Y-90164717D01*
X105229612Y-89923738D01*
X105229614Y-89923729D01*
X105250141Y-89676005D01*
X105250141Y-89675994D01*
X105229614Y-89428270D01*
X105229612Y-89428261D01*
X105168587Y-89187282D01*
X105068731Y-88959630D01*
X104968434Y-88806116D01*
X104268787Y-89505764D01*
X104257518Y-89463708D01*
X104185110Y-89338292D01*
X104082708Y-89235890D01*
X103957292Y-89163482D01*
X103915235Y-89152212D01*
X104615057Y-88452390D01*
X104615056Y-88452389D01*
X104568229Y-88415943D01*
X104349614Y-88297635D01*
X104349603Y-88297630D01*
X104114493Y-88216916D01*
X103869293Y-88176000D01*
X103620707Y-88176000D01*
X103375506Y-88216916D01*
X103140396Y-88297630D01*
X103140390Y-88297632D01*
X102921761Y-88415949D01*
X102874942Y-88452388D01*
X102874942Y-88452390D01*
X103574765Y-89152212D01*
X103532708Y-89163482D01*
X103407292Y-89235890D01*
X103304890Y-89338292D01*
X103232482Y-89463708D01*
X103221212Y-89505764D01*
X102521564Y-88806116D01*
X102421267Y-88959632D01*
X102321412Y-89187282D01*
X102260387Y-89428261D01*
X102260385Y-89428270D01*
X102239859Y-89675994D01*
X98750141Y-89675994D01*
X98729614Y-89428270D01*
X98729612Y-89428261D01*
X98668587Y-89187282D01*
X98568731Y-88959630D01*
X98468434Y-88806116D01*
X97768787Y-89505764D01*
X97757518Y-89463708D01*
X97685110Y-89338292D01*
X97582708Y-89235890D01*
X97457292Y-89163482D01*
X97415235Y-89152212D01*
X98115057Y-88452390D01*
X98115056Y-88452389D01*
X98068229Y-88415943D01*
X97849614Y-88297635D01*
X97849603Y-88297630D01*
X97614493Y-88216916D01*
X97369293Y-88176000D01*
X97120707Y-88176000D01*
X96875506Y-88216916D01*
X96640396Y-88297630D01*
X96640390Y-88297632D01*
X96421761Y-88415949D01*
X96374942Y-88452388D01*
X96374942Y-88452390D01*
X97074765Y-89152212D01*
X97032708Y-89163482D01*
X96907292Y-89235890D01*
X96804890Y-89338292D01*
X96732482Y-89463708D01*
X96721212Y-89505764D01*
X96021564Y-88806116D01*
X95921267Y-88959632D01*
X95821412Y-89187282D01*
X95760387Y-89428261D01*
X95760385Y-89428270D01*
X95739859Y-89675994D01*
X84861193Y-89675994D01*
X84543654Y-89126000D01*
X83933937Y-88069939D01*
X83898578Y-88021512D01*
X83787597Y-87929878D01*
X83787595Y-87929876D01*
X83655300Y-87873225D01*
X83655297Y-87873224D01*
X83512391Y-87856136D01*
X83512385Y-87856137D01*
X83457904Y-87865298D01*
X83388529Y-87857003D01*
X83334652Y-87812517D01*
X83313378Y-87745964D01*
X83317138Y-87712573D01*
X83331132Y-87657313D01*
X83331135Y-87657297D01*
X83350300Y-87426006D01*
X83350300Y-87425993D01*
X83331135Y-87194702D01*
X83331133Y-87194691D01*
X83274157Y-86969699D01*
X83180924Y-86757151D01*
X83053983Y-86562852D01*
X83053980Y-86562849D01*
X83053979Y-86562847D01*
X82896784Y-86392087D01*
X82896779Y-86392083D01*
X82896777Y-86392081D01*
X82713634Y-86249535D01*
X82713628Y-86249531D01*
X82509504Y-86139064D01*
X82509495Y-86139061D01*
X82289984Y-86063702D01*
X82118282Y-86035050D01*
X82061049Y-86025500D01*
X81828951Y-86025500D01*
X81783164Y-86033140D01*
X81600015Y-86063702D01*
X81380504Y-86139061D01*
X81380495Y-86139064D01*
X81176371Y-86249531D01*
X81176365Y-86249535D01*
X80993222Y-86392081D01*
X80993219Y-86392084D01*
X80836016Y-86562852D01*
X80709075Y-86757151D01*
X80615842Y-86969699D01*
X80558866Y-87194691D01*
X80558864Y-87194702D01*
X80539700Y-87425993D01*
X77245000Y-87425993D01*
X77245000Y-85175994D01*
X95739357Y-85175994D01*
X95739357Y-85176005D01*
X95759890Y-85423812D01*
X95759892Y-85423824D01*
X95820936Y-85664881D01*
X95920826Y-85892606D01*
X96056833Y-86100782D01*
X96056836Y-86100785D01*
X96225256Y-86283738D01*
X96421491Y-86436474D01*
X96640190Y-86554828D01*
X96875386Y-86635571D01*
X97120665Y-86676500D01*
X97369335Y-86676500D01*
X97614614Y-86635571D01*
X97849810Y-86554828D01*
X98068509Y-86436474D01*
X98264744Y-86283738D01*
X98433164Y-86100785D01*
X98569173Y-85892607D01*
X98669063Y-85664881D01*
X98730108Y-85423821D01*
X98736036Y-85352284D01*
X98750643Y-85176005D01*
X98750643Y-85175994D01*
X98730109Y-84928187D01*
X98730107Y-84928175D01*
X98669063Y-84687118D01*
X98569173Y-84459393D01*
X98433166Y-84251217D01*
X98385877Y-84199848D01*
X98264744Y-84068262D01*
X98068509Y-83915526D01*
X98068507Y-83915525D01*
X98068506Y-83915524D01*
X97849811Y-83797172D01*
X97849802Y-83797169D01*
X97614616Y-83716429D01*
X97369335Y-83675500D01*
X97120665Y-83675500D01*
X96875383Y-83716429D01*
X96640197Y-83797169D01*
X96640188Y-83797172D01*
X96421493Y-83915524D01*
X96225257Y-84068261D01*
X96056833Y-84251217D01*
X95920826Y-84459393D01*
X95820936Y-84687118D01*
X95759892Y-84928175D01*
X95759890Y-84928187D01*
X95739357Y-85175994D01*
X77245000Y-85175994D01*
X77245000Y-76465993D01*
X82139700Y-76465993D01*
X82139700Y-76466006D01*
X82158864Y-76697297D01*
X82158866Y-76697308D01*
X82215842Y-76922300D01*
X82309075Y-77134848D01*
X82436016Y-77329147D01*
X82436019Y-77329151D01*
X82436021Y-77329153D01*
X82593216Y-77499913D01*
X82593219Y-77499915D01*
X82593222Y-77499918D01*
X82776365Y-77642464D01*
X82776371Y-77642468D01*
X82776374Y-77642470D01*
X82980497Y-77752936D01*
X83075341Y-77785496D01*
X83200015Y-77828297D01*
X83200017Y-77828297D01*
X83200019Y-77828298D01*
X83428951Y-77866500D01*
X83428952Y-77866500D01*
X83661047Y-77866500D01*
X83661049Y-77866500D01*
X83789274Y-77845102D01*
X83858635Y-77853483D01*
X83897362Y-77879730D01*
X86793181Y-80775549D01*
X86826666Y-80836872D01*
X86829500Y-80863230D01*
X86829500Y-81046500D01*
X86809815Y-81113539D01*
X86757011Y-81159294D01*
X86705501Y-81170500D01*
X86532130Y-81170500D01*
X86532123Y-81170501D01*
X86472516Y-81176908D01*
X86337671Y-81227202D01*
X86337664Y-81227206D01*
X86222455Y-81313452D01*
X86222452Y-81313455D01*
X86136206Y-81428664D01*
X86136202Y-81428671D01*
X86085908Y-81563517D01*
X86079501Y-81623116D01*
X86079501Y-81623123D01*
X86079500Y-81623135D01*
X86079500Y-83718870D01*
X86079501Y-83718876D01*
X86085908Y-83778483D01*
X86136202Y-83913328D01*
X86136206Y-83913335D01*
X86222452Y-84028544D01*
X86222455Y-84028547D01*
X86337664Y-84114793D01*
X86337671Y-84114797D01*
X86472517Y-84165091D01*
X86472516Y-84165091D01*
X86479444Y-84165835D01*
X86532127Y-84171500D01*
X88627872Y-84171499D01*
X88687483Y-84165091D01*
X88822331Y-84114796D01*
X88937546Y-84028546D01*
X89023796Y-83913331D01*
X89074091Y-83778483D01*
X89080500Y-83718873D01*
X89080500Y-83545500D01*
X89100185Y-83478461D01*
X89152989Y-83432706D01*
X89204500Y-83421500D01*
X94370420Y-83421500D01*
X94467962Y-83402096D01*
X94515413Y-83392658D01*
X94651995Y-83336084D01*
X94701229Y-83303186D01*
X94774916Y-83253952D01*
X97661868Y-80367000D01*
X100464540Y-80367000D01*
X100484326Y-80555256D01*
X100484327Y-80555259D01*
X100542818Y-80735277D01*
X100542821Y-80735284D01*
X100637467Y-80899216D01*
X100764129Y-81039888D01*
X100917265Y-81151148D01*
X100917270Y-81151151D01*
X101090192Y-81228142D01*
X101090197Y-81228144D01*
X101275354Y-81267500D01*
X101334548Y-81267500D01*
X101401587Y-81287185D01*
X101422228Y-81303818D01*
X103598795Y-83480386D01*
X103632279Y-83541707D01*
X103627295Y-83611399D01*
X103585423Y-83667332D01*
X103531523Y-83690374D01*
X103375382Y-83716429D01*
X103140197Y-83797169D01*
X103140188Y-83797172D01*
X102921493Y-83915524D01*
X102725257Y-84068261D01*
X102556833Y-84251217D01*
X102420826Y-84459393D01*
X102320936Y-84687118D01*
X102259892Y-84928175D01*
X102259890Y-84928187D01*
X102239357Y-85175994D01*
X102239357Y-85176005D01*
X102259890Y-85423812D01*
X102259892Y-85423824D01*
X102320936Y-85664881D01*
X102420826Y-85892606D01*
X102556833Y-86100782D01*
X102556836Y-86100785D01*
X102725256Y-86283738D01*
X102921491Y-86436474D01*
X103140190Y-86554828D01*
X103375386Y-86635571D01*
X103620665Y-86676500D01*
X103869335Y-86676500D01*
X104114614Y-86635571D01*
X104349810Y-86554828D01*
X104568509Y-86436474D01*
X104764744Y-86283738D01*
X104904272Y-86132169D01*
X104964157Y-86096181D01*
X105033995Y-86098281D01*
X105091611Y-86137805D01*
X105118713Y-86202204D01*
X105119500Y-86216154D01*
X105119500Y-88045606D01*
X105129295Y-88094849D01*
X105143104Y-88164278D01*
X105143537Y-88166453D01*
X105143537Y-88166454D01*
X105190685Y-88280281D01*
X105190688Y-88280286D01*
X105211284Y-88311109D01*
X105211285Y-88311112D01*
X105211286Y-88311112D01*
X105259141Y-88382732D01*
X105259144Y-88382736D01*
X105350586Y-88474178D01*
X105350608Y-88474198D01*
X110256016Y-93379606D01*
X110256045Y-93379637D01*
X110346263Y-93469855D01*
X110346267Y-93469858D01*
X110415647Y-93516216D01*
X110448715Y-93538312D01*
X110512504Y-93564734D01*
X110562548Y-93585463D01*
X110622971Y-93597481D01*
X110683393Y-93609500D01*
X110683394Y-93609500D01*
X133791252Y-93609500D01*
X133858291Y-93629185D01*
X133883400Y-93650526D01*
X133889126Y-93656885D01*
X133889130Y-93656889D01*
X134042265Y-93768148D01*
X134042270Y-93768151D01*
X134215192Y-93845142D01*
X134215197Y-93845144D01*
X134400354Y-93884500D01*
X134400355Y-93884500D01*
X134589644Y-93884500D01*
X134589646Y-93884500D01*
X134774803Y-93845144D01*
X134947730Y-93768151D01*
X135100871Y-93656888D01*
X135227533Y-93516216D01*
X135322179Y-93352284D01*
X135380674Y-93172256D01*
X135400460Y-92984000D01*
X135380674Y-92795744D01*
X135322179Y-92615716D01*
X135227533Y-92451784D01*
X135100871Y-92311112D01*
X135100870Y-92311111D01*
X134947734Y-92199851D01*
X134947729Y-92199848D01*
X134774807Y-92122857D01*
X134774802Y-92122855D01*
X134629001Y-92091865D01*
X134589646Y-92083500D01*
X134400354Y-92083500D01*
X134367897Y-92090398D01*
X134215197Y-92122855D01*
X134215192Y-92122857D01*
X134042270Y-92199848D01*
X134042265Y-92199851D01*
X133889130Y-92311110D01*
X133889126Y-92311114D01*
X133883400Y-92317474D01*
X133823913Y-92354121D01*
X133791252Y-92358500D01*
X111055452Y-92358500D01*
X110988413Y-92338815D01*
X110967771Y-92322181D01*
X107629590Y-88984000D01*
X133589540Y-88984000D01*
X133609326Y-89172256D01*
X133609327Y-89172259D01*
X133667818Y-89352277D01*
X133667821Y-89352284D01*
X133762467Y-89516216D01*
X133866230Y-89631456D01*
X133889129Y-89656888D01*
X134042265Y-89768148D01*
X134042270Y-89768151D01*
X134215192Y-89845142D01*
X134215197Y-89845144D01*
X134400354Y-89884500D01*
X134400355Y-89884500D01*
X134589644Y-89884500D01*
X134589646Y-89884500D01*
X134774803Y-89845144D01*
X134947730Y-89768151D01*
X135100871Y-89656888D01*
X135103788Y-89653647D01*
X135106600Y-89650526D01*
X135166087Y-89613879D01*
X135198748Y-89609500D01*
X136056607Y-89609500D01*
X136117029Y-89597481D01*
X136177452Y-89585463D01*
X136227496Y-89564734D01*
X136291286Y-89538312D01*
X136342509Y-89504084D01*
X136393733Y-89469858D01*
X136480858Y-89382733D01*
X136480859Y-89382731D01*
X136487925Y-89375665D01*
X136487928Y-89375661D01*
X144268729Y-81594860D01*
X144268733Y-81594858D01*
X144355858Y-81507733D01*
X144424311Y-81405286D01*
X144424312Y-81405285D01*
X144424313Y-81405282D01*
X144424315Y-81405279D01*
X144434672Y-81380272D01*
X144471463Y-81291451D01*
X144495500Y-81170607D01*
X144495500Y-81047393D01*
X144495500Y-76389993D01*
X145139700Y-76389993D01*
X145139700Y-76390006D01*
X145158864Y-76621297D01*
X145158866Y-76621308D01*
X145215842Y-76846300D01*
X145309075Y-77058848D01*
X145436016Y-77253147D01*
X145436019Y-77253151D01*
X145436021Y-77253153D01*
X145593216Y-77423913D01*
X145593219Y-77423915D01*
X145593222Y-77423918D01*
X145776365Y-77566464D01*
X145776371Y-77566468D01*
X145776374Y-77566470D01*
X145980497Y-77676936D01*
X146094487Y-77716068D01*
X146200015Y-77752297D01*
X146200017Y-77752297D01*
X146200019Y-77752298D01*
X146428951Y-77790500D01*
X146428952Y-77790500D01*
X146661048Y-77790500D01*
X146661049Y-77790500D01*
X146889981Y-77752298D01*
X147109503Y-77676936D01*
X147313626Y-77566470D01*
X147496784Y-77423913D01*
X147653979Y-77253153D01*
X147780924Y-77058849D01*
X147874157Y-76846300D01*
X147931134Y-76621305D01*
X147933507Y-76592669D01*
X147950300Y-76390006D01*
X147950300Y-76389993D01*
X147931135Y-76158702D01*
X147931133Y-76158691D01*
X147874157Y-75933699D01*
X147780924Y-75721151D01*
X147653983Y-75526852D01*
X147653980Y-75526849D01*
X147653979Y-75526847D01*
X147586241Y-75453264D01*
X147555321Y-75390612D01*
X147563181Y-75321186D01*
X147607329Y-75267031D01*
X147634140Y-75253102D01*
X147687086Y-75233354D01*
X147687093Y-75233350D01*
X147802187Y-75147190D01*
X147802190Y-75147187D01*
X147888350Y-75032093D01*
X147888354Y-75032086D01*
X147938596Y-74897379D01*
X147938598Y-74897372D01*
X147944999Y-74837844D01*
X147945000Y-74837827D01*
X147945000Y-74140000D01*
X146920278Y-74140000D01*
X146964333Y-74063694D01*
X146995000Y-73949244D01*
X146995000Y-73830756D01*
X146964333Y-73716306D01*
X146920278Y-73640000D01*
X147945000Y-73640000D01*
X147945000Y-72942172D01*
X147944999Y-72942155D01*
X147938598Y-72882627D01*
X147938596Y-72882620D01*
X147888354Y-72747913D01*
X147888350Y-72747906D01*
X147802190Y-72632812D01*
X147802187Y-72632809D01*
X147687093Y-72546649D01*
X147687086Y-72546645D01*
X147552379Y-72496403D01*
X147552372Y-72496401D01*
X147492844Y-72490000D01*
X146795000Y-72490000D01*
X146795000Y-73514722D01*
X146718694Y-73470667D01*
X146604244Y-73440000D01*
X146485756Y-73440000D01*
X146371306Y-73470667D01*
X146295000Y-73514722D01*
X146295000Y-72490000D01*
X145597155Y-72490000D01*
X145537627Y-72496401D01*
X145537620Y-72496403D01*
X145402913Y-72546645D01*
X145402906Y-72546649D01*
X145287812Y-72632809D01*
X145287809Y-72632812D01*
X145201649Y-72747906D01*
X145201645Y-72747913D01*
X145151403Y-72882620D01*
X145151401Y-72882627D01*
X145145000Y-72942155D01*
X145145000Y-73640000D01*
X146169722Y-73640000D01*
X146125667Y-73716306D01*
X146095000Y-73830756D01*
X146095000Y-73949244D01*
X146125667Y-74063694D01*
X146169722Y-74140000D01*
X145145000Y-74140000D01*
X145145000Y-74837844D01*
X145151401Y-74897372D01*
X145151403Y-74897379D01*
X145201645Y-75032086D01*
X145201649Y-75032093D01*
X145287809Y-75147187D01*
X145287812Y-75147190D01*
X145402906Y-75233350D01*
X145402913Y-75233354D01*
X145455859Y-75253102D01*
X145511793Y-75294973D01*
X145536210Y-75360438D01*
X145521358Y-75428711D01*
X145503757Y-75453265D01*
X145436021Y-75526847D01*
X145436019Y-75526848D01*
X145436016Y-75526853D01*
X145309075Y-75721151D01*
X145215842Y-75933699D01*
X145158866Y-76158691D01*
X145158864Y-76158702D01*
X145139700Y-76389993D01*
X144495500Y-76389993D01*
X144495500Y-75557687D01*
X144515185Y-75490648D01*
X144527350Y-75474715D01*
X144546662Y-75453266D01*
X144602533Y-75391216D01*
X144697179Y-75227284D01*
X144755674Y-75047256D01*
X144775460Y-74859000D01*
X144755674Y-74670744D01*
X144697179Y-74490716D01*
X144602533Y-74326784D01*
X144475871Y-74186112D01*
X144466841Y-74179551D01*
X144322734Y-74074851D01*
X144322729Y-74074848D01*
X144149807Y-73997857D01*
X144149802Y-73997855D01*
X144004001Y-73966865D01*
X143964646Y-73958500D01*
X143775354Y-73958500D01*
X143742897Y-73965398D01*
X143590197Y-73997855D01*
X143590192Y-73997857D01*
X143417270Y-74074848D01*
X143417265Y-74074851D01*
X143264129Y-74186111D01*
X143137466Y-74326785D01*
X143042821Y-74490715D01*
X143042818Y-74490722D01*
X142984327Y-74670740D01*
X142984326Y-74670744D01*
X142964540Y-74859000D01*
X142984326Y-75047256D01*
X142984327Y-75047259D01*
X143042818Y-75227277D01*
X143042821Y-75227284D01*
X143137467Y-75391216D01*
X143171228Y-75428711D01*
X143212650Y-75474715D01*
X143242880Y-75537706D01*
X143244500Y-75557687D01*
X143244500Y-80798548D01*
X143224815Y-80865587D01*
X143208181Y-80886229D01*
X135772229Y-88322181D01*
X135710906Y-88355666D01*
X135684548Y-88358500D01*
X135198748Y-88358500D01*
X135131709Y-88338815D01*
X135106600Y-88317474D01*
X135100871Y-88311112D01*
X135100869Y-88311110D01*
X134947734Y-88199851D01*
X134947729Y-88199848D01*
X134774807Y-88122857D01*
X134774802Y-88122855D01*
X134629001Y-88091865D01*
X134589646Y-88083500D01*
X134400354Y-88083500D01*
X134367897Y-88090398D01*
X134215197Y-88122855D01*
X134215192Y-88122857D01*
X134042270Y-88199848D01*
X134042265Y-88199851D01*
X133889129Y-88311111D01*
X133762466Y-88451785D01*
X133667821Y-88615715D01*
X133667818Y-88615722D01*
X133611745Y-88788298D01*
X133609326Y-88795744D01*
X133589540Y-88984000D01*
X107629590Y-88984000D01*
X106406819Y-87761229D01*
X106373334Y-87699906D01*
X106370500Y-87673548D01*
X106370500Y-85770142D01*
X106390185Y-85703103D01*
X106442989Y-85657348D01*
X106512147Y-85647404D01*
X106520270Y-85648850D01*
X106650354Y-85676500D01*
X106650355Y-85676500D01*
X106839644Y-85676500D01*
X106839646Y-85676500D01*
X107024803Y-85637144D01*
X107197730Y-85560151D01*
X107350871Y-85448888D01*
X107477533Y-85308216D01*
X107506434Y-85258157D01*
X107512472Y-85248712D01*
X107878089Y-84730065D01*
X107891746Y-84713842D01*
X114620780Y-77984810D01*
X114682102Y-77951326D01*
X114751794Y-77956310D01*
X114807727Y-77998182D01*
X114832144Y-78063646D01*
X114826392Y-78110808D01*
X114820333Y-78129453D01*
X114820333Y-78129456D01*
X114800547Y-78317712D01*
X114820333Y-78505968D01*
X114820334Y-78505971D01*
X114878825Y-78685989D01*
X114878828Y-78685996D01*
X114973474Y-78849928D01*
X115071594Y-78958901D01*
X115100136Y-78990600D01*
X115253272Y-79101860D01*
X115253277Y-79101863D01*
X115426199Y-79178854D01*
X115426204Y-79178856D01*
X115611361Y-79218212D01*
X115611362Y-79218212D01*
X115800651Y-79218212D01*
X115800653Y-79218212D01*
X115985810Y-79178856D01*
X116158737Y-79101863D01*
X116311878Y-78990600D01*
X116438540Y-78849928D01*
X116533186Y-78685996D01*
X116533189Y-78685984D01*
X116535826Y-78680064D01*
X116535982Y-78680133D01*
X116539243Y-78672521D01*
X116539132Y-78672471D01*
X116617170Y-78499571D01*
X116779324Y-78140309D01*
X116804659Y-78103648D01*
X118353602Y-76554706D01*
X118414923Y-76521223D01*
X118484615Y-76526207D01*
X118540548Y-76568079D01*
X118548668Y-76580389D01*
X118622469Y-76708216D01*
X118717357Y-76813599D01*
X118749131Y-76848888D01*
X118902267Y-76960148D01*
X118902272Y-76960151D01*
X119075194Y-77037142D01*
X119075199Y-77037144D01*
X119260356Y-77076500D01*
X119260357Y-77076500D01*
X119449646Y-77076500D01*
X119449648Y-77076500D01*
X119634805Y-77037144D01*
X119807732Y-76960151D01*
X119960873Y-76848888D01*
X119963204Y-76846300D01*
X120014273Y-76789581D01*
X120018416Y-76784979D01*
X120024714Y-76778478D01*
X120044248Y-76759743D01*
X120062038Y-76736982D01*
X120067590Y-76730366D01*
X120087535Y-76708216D01*
X120091705Y-76700991D01*
X120101392Y-76686631D01*
X120197919Y-76563137D01*
X120254713Y-76522440D01*
X120295616Y-76515500D01*
X121582770Y-76515500D01*
X121649809Y-76535185D01*
X121670451Y-76551819D01*
X122492130Y-77373498D01*
X122525615Y-77434821D01*
X122527977Y-77471986D01*
X122509341Y-77684997D01*
X122509341Y-77685000D01*
X122529936Y-77920403D01*
X122529938Y-77920413D01*
X122591094Y-78148655D01*
X122591096Y-78148659D01*
X122591097Y-78148663D01*
X122669926Y-78317712D01*
X122690965Y-78362830D01*
X122690967Y-78362834D01*
X122799281Y-78517521D01*
X122826505Y-78556401D01*
X122993599Y-78723495D01*
X123080723Y-78784500D01*
X123187165Y-78859032D01*
X123187167Y-78859033D01*
X123187170Y-78859035D01*
X123401337Y-78958903D01*
X123629592Y-79020063D01*
X123809634Y-79035815D01*
X123864999Y-79040659D01*
X123865000Y-79040659D01*
X123865001Y-79040659D01*
X123920366Y-79035815D01*
X124100408Y-79020063D01*
X124200873Y-78993143D01*
X124270722Y-78994806D01*
X124320647Y-79025237D01*
X130675016Y-85379606D01*
X130675045Y-85379637D01*
X130765263Y-85469855D01*
X130765267Y-85469858D01*
X130834647Y-85516216D01*
X130867715Y-85538312D01*
X130914728Y-85557785D01*
X130914729Y-85557786D01*
X130951271Y-85572922D01*
X130981548Y-85585463D01*
X131041971Y-85597481D01*
X131102393Y-85609500D01*
X131102394Y-85609500D01*
X133791252Y-85609500D01*
X133858291Y-85629185D01*
X133883400Y-85650526D01*
X133889126Y-85656885D01*
X133889130Y-85656889D01*
X134042265Y-85768148D01*
X134042270Y-85768151D01*
X134215192Y-85845142D01*
X134215197Y-85845144D01*
X134400354Y-85884500D01*
X134400355Y-85884500D01*
X134589644Y-85884500D01*
X134589646Y-85884500D01*
X134774803Y-85845144D01*
X134947730Y-85768151D01*
X135100871Y-85656888D01*
X135227533Y-85516216D01*
X135322179Y-85352284D01*
X135380674Y-85172256D01*
X135400460Y-84984000D01*
X135380674Y-84795744D01*
X135322179Y-84615716D01*
X135227533Y-84451784D01*
X135100871Y-84311112D01*
X135100870Y-84311111D01*
X134947734Y-84199851D01*
X134947729Y-84199848D01*
X134774807Y-84122857D01*
X134774802Y-84122855D01*
X134623440Y-84090683D01*
X134589646Y-84083500D01*
X134400354Y-84083500D01*
X134367897Y-84090398D01*
X134215197Y-84122855D01*
X134215192Y-84122857D01*
X134042270Y-84199848D01*
X134042265Y-84199851D01*
X133889130Y-84311110D01*
X133889126Y-84311114D01*
X133883400Y-84317474D01*
X133823913Y-84354121D01*
X133791252Y-84358500D01*
X131474452Y-84358500D01*
X131407413Y-84338815D01*
X131386771Y-84322181D01*
X126311770Y-79247180D01*
X126278285Y-79185857D01*
X126283269Y-79116165D01*
X126325141Y-79060232D01*
X126390605Y-79035815D01*
X126399451Y-79035499D01*
X127302871Y-79035499D01*
X127302872Y-79035499D01*
X127362483Y-79029091D01*
X127497331Y-78978796D01*
X127612546Y-78892546D01*
X127698796Y-78777331D01*
X127749091Y-78642483D01*
X127755500Y-78582873D01*
X127755499Y-76787128D01*
X127749091Y-76727517D01*
X127747810Y-76724083D01*
X127698797Y-76592671D01*
X127698793Y-76592664D01*
X127612547Y-76477455D01*
X127612544Y-76477452D01*
X127497335Y-76391206D01*
X127497328Y-76391202D01*
X127365917Y-76342189D01*
X127309983Y-76300318D01*
X127285566Y-76234853D01*
X127300418Y-76166580D01*
X127321563Y-76138332D01*
X127443495Y-76016401D01*
X127579035Y-75822830D01*
X127678903Y-75608663D01*
X127740063Y-75380408D01*
X127760659Y-75145000D01*
X127740063Y-74909592D01*
X127678903Y-74681337D01*
X127579035Y-74467171D01*
X127573425Y-74459158D01*
X127443494Y-74273597D01*
X127276402Y-74106506D01*
X127276396Y-74106501D01*
X127090842Y-73976575D01*
X127047217Y-73921998D01*
X127040023Y-73852500D01*
X127071546Y-73790145D01*
X127090842Y-73773425D01*
X127275608Y-73644050D01*
X127276401Y-73643495D01*
X127443495Y-73476401D01*
X127579035Y-73282830D01*
X127678903Y-73068663D01*
X127740063Y-72840408D01*
X127760659Y-72605000D01*
X127740063Y-72369592D01*
X127678903Y-72141337D01*
X127579035Y-71927171D01*
X127573731Y-71919595D01*
X127443494Y-71733597D01*
X127276402Y-71566506D01*
X127276395Y-71566501D01*
X127082834Y-71430967D01*
X127082830Y-71430965D01*
X126999632Y-71392169D01*
X126868663Y-71331097D01*
X126868659Y-71331096D01*
X126868655Y-71331094D01*
X126640413Y-71269938D01*
X126640403Y-71269936D01*
X126405001Y-71249341D01*
X126404999Y-71249341D01*
X126169596Y-71269936D01*
X126169586Y-71269938D01*
X125941344Y-71331094D01*
X125941335Y-71331098D01*
X125727171Y-71430964D01*
X125727169Y-71430965D01*
X125533597Y-71566505D01*
X125366508Y-71733594D01*
X125236269Y-71919595D01*
X125181692Y-71963219D01*
X125112193Y-71970412D01*
X125049839Y-71938890D01*
X125033119Y-71919594D01*
X124903113Y-71733926D01*
X124903108Y-71733920D01*
X124736082Y-71566894D01*
X124542578Y-71431399D01*
X124328492Y-71331570D01*
X124328486Y-71331567D01*
X124115000Y-71274364D01*
X124115000Y-72171988D01*
X124057993Y-72139075D01*
X123930826Y-72105000D01*
X123799174Y-72105000D01*
X123672007Y-72139075D01*
X123615000Y-72171988D01*
X123615000Y-71274364D01*
X123614999Y-71274364D01*
X123401513Y-71331567D01*
X123401507Y-71331570D01*
X123187422Y-71431399D01*
X123187420Y-71431400D01*
X123099379Y-71493047D01*
X123033172Y-71515374D01*
X122965405Y-71498363D01*
X122917593Y-71447415D01*
X122904915Y-71378705D01*
X122931397Y-71314049D01*
X122940566Y-71303800D01*
X123261782Y-70982584D01*
X123279431Y-70967936D01*
X123779314Y-70625912D01*
X123798889Y-70614977D01*
X123809730Y-70610151D01*
X123962871Y-70498888D01*
X124009334Y-70447284D01*
X124013298Y-70443084D01*
X124022682Y-70433601D01*
X124022683Y-70433598D01*
X124022685Y-70433597D01*
X124026186Y-70429077D01*
X124032070Y-70422033D01*
X124089533Y-70358216D01*
X124184179Y-70194284D01*
X124242674Y-70014256D01*
X124262460Y-69826000D01*
X124242674Y-69637744D01*
X124212085Y-69543601D01*
X124210090Y-69473760D01*
X124246170Y-69413927D01*
X124308871Y-69383099D01*
X124330016Y-69381283D01*
X125181913Y-69381283D01*
X125248952Y-69400968D01*
X125262520Y-69411057D01*
X125481705Y-69598601D01*
X125526890Y-69637263D01*
X125526802Y-69637365D01*
X125536802Y-69646792D01*
X125539125Y-69648883D01*
X125539129Y-69648888D01*
X125603031Y-69695315D01*
X125692265Y-69760148D01*
X125692270Y-69760151D01*
X125865192Y-69837142D01*
X125865197Y-69837144D01*
X126050354Y-69876500D01*
X126050355Y-69876500D01*
X126239644Y-69876500D01*
X126239646Y-69876500D01*
X126424803Y-69837144D01*
X126597730Y-69760151D01*
X126750871Y-69648888D01*
X126877533Y-69508216D01*
X126972179Y-69344284D01*
X127030674Y-69164256D01*
X127050460Y-68976000D01*
X127030674Y-68787744D01*
X126972179Y-68607716D01*
X126877533Y-68443784D01*
X126750871Y-68303112D01*
X126750870Y-68303111D01*
X126597734Y-68191851D01*
X126597729Y-68191848D01*
X126424807Y-68114857D01*
X126424802Y-68114855D01*
X126279001Y-68083865D01*
X126239646Y-68075500D01*
X126239645Y-68075500D01*
X126137278Y-68075500D01*
X126128933Y-68075219D01*
X126127866Y-68075147D01*
X126094345Y-68072886D01*
X126094344Y-68072886D01*
X126094343Y-68072886D01*
X126064436Y-68075147D01*
X126055088Y-68075500D01*
X126050354Y-68075500D01*
X126050350Y-68075500D01*
X126045048Y-68076058D01*
X126036868Y-68077230D01*
X125393037Y-68125901D01*
X125370008Y-68128449D01*
X125360232Y-68129531D01*
X125346599Y-68130283D01*
X114263131Y-68130283D01*
X114142297Y-68154318D01*
X114142283Y-68154322D01*
X114120431Y-68163374D01*
X114028463Y-68201467D01*
X114028450Y-68201474D01*
X113926009Y-68269924D01*
X113926005Y-68269927D01*
X113518595Y-68677337D01*
X113481927Y-68702677D01*
X112953794Y-68941055D01*
X112913061Y-68961705D01*
X112908135Y-68964816D01*
X112907819Y-68964316D01*
X112890725Y-68974515D01*
X112851796Y-68991847D01*
X112851792Y-68991849D01*
X112698654Y-69103111D01*
X112571991Y-69243785D01*
X112477346Y-69407715D01*
X112477343Y-69407722D01*
X112422893Y-69575304D01*
X112418851Y-69587744D01*
X112399065Y-69776000D01*
X112418851Y-69964256D01*
X112418852Y-69964259D01*
X112477343Y-70144277D01*
X112477346Y-70144284D01*
X112571992Y-70308216D01*
X112693408Y-70443062D01*
X112698654Y-70448888D01*
X112851790Y-70560148D01*
X112851795Y-70560151D01*
X113024717Y-70637142D01*
X113024722Y-70637144D01*
X113209879Y-70676500D01*
X113209880Y-70676500D01*
X113399169Y-70676500D01*
X113399171Y-70676500D01*
X113584328Y-70637144D01*
X113757255Y-70560151D01*
X113910396Y-70448888D01*
X114037058Y-70308216D01*
X114131704Y-70144284D01*
X114131707Y-70144272D01*
X114134344Y-70138352D01*
X114134499Y-70138421D01*
X114137760Y-70130808D01*
X114137649Y-70130758D01*
X114139469Y-70126724D01*
X114139473Y-70126719D01*
X114377843Y-69598597D01*
X114403176Y-69561938D01*
X114547515Y-69417600D01*
X114608838Y-69384117D01*
X114635195Y-69381283D01*
X122337325Y-69381283D01*
X122404364Y-69400968D01*
X122450119Y-69453772D01*
X122460063Y-69522930D01*
X122439663Y-69575304D01*
X122215061Y-69903567D01*
X122200404Y-69921227D01*
X121362050Y-70759580D01*
X121362044Y-70759588D01*
X121312812Y-70833268D01*
X121312813Y-70833269D01*
X121279921Y-70882496D01*
X121279914Y-70882508D01*
X121223342Y-71019086D01*
X121223340Y-71019092D01*
X121194500Y-71164079D01*
X121194500Y-74890500D01*
X121174815Y-74957539D01*
X121122011Y-75003294D01*
X121070500Y-75014500D01*
X120373426Y-75014500D01*
X120306387Y-74994815D01*
X120260632Y-74942011D01*
X120250105Y-74877539D01*
X120260462Y-74779000D01*
X120240676Y-74590744D01*
X120182181Y-74410716D01*
X120087535Y-74246784D01*
X119960873Y-74106112D01*
X119960872Y-74106111D01*
X119807736Y-73994851D01*
X119807731Y-73994848D01*
X119634809Y-73917857D01*
X119634804Y-73917855D01*
X119489003Y-73886865D01*
X119449648Y-73878500D01*
X119260356Y-73878500D01*
X119227899Y-73885398D01*
X119075199Y-73917855D01*
X119075194Y-73917857D01*
X118902272Y-73994848D01*
X118902267Y-73994851D01*
X118749131Y-74106111D01*
X118622468Y-74246785D01*
X118554932Y-74363757D01*
X118544738Y-74378760D01*
X118543528Y-74380287D01*
X118543516Y-74380303D01*
X118251183Y-74882143D01*
X118231718Y-74907409D01*
X115920078Y-77219049D01*
X115883410Y-77244389D01*
X115550199Y-77394787D01*
X115480997Y-77404425D01*
X115417570Y-77375120D01*
X115380056Y-77316175D01*
X115380364Y-77246306D01*
X115411503Y-77194086D01*
X116305857Y-76299734D01*
X116308096Y-76296384D01*
X116350033Y-76233618D01*
X116365446Y-76214837D01*
X116583837Y-75996447D01*
X116602619Y-75981033D01*
X116622698Y-75967616D01*
X116630200Y-75962605D01*
X116639898Y-75956124D01*
X116668733Y-75936858D01*
X116755858Y-75849733D01*
X116755858Y-75849731D01*
X116766066Y-75839524D01*
X116766066Y-75839522D01*
X117030858Y-75574733D01*
X117099312Y-75472285D01*
X117132629Y-75391849D01*
X117146463Y-75358452D01*
X117170500Y-75237606D01*
X117170500Y-74104235D01*
X117178511Y-74060389D01*
X117383390Y-73518410D01*
X117383391Y-73518406D01*
X117383394Y-73518399D01*
X117397580Y-73475054D01*
X117398016Y-73471674D01*
X117403066Y-73449221D01*
X117430672Y-73364262D01*
X117430671Y-73364262D01*
X117430674Y-73364256D01*
X117450460Y-73176000D01*
X117430674Y-72987744D01*
X117372179Y-72807716D01*
X117277533Y-72643784D01*
X117150871Y-72503112D01*
X117132824Y-72490000D01*
X116997734Y-72391851D01*
X116997729Y-72391848D01*
X116824807Y-72314857D01*
X116824802Y-72314855D01*
X116679001Y-72283865D01*
X116639646Y-72275500D01*
X116450354Y-72275500D01*
X116417897Y-72282398D01*
X116265197Y-72314855D01*
X116265192Y-72314857D01*
X116092270Y-72391848D01*
X116092265Y-72391851D01*
X115939129Y-72503111D01*
X115812466Y-72643785D01*
X115717821Y-72807715D01*
X115717818Y-72807722D01*
X115662450Y-72978128D01*
X115659326Y-72987744D01*
X115650584Y-73070925D01*
X115639540Y-73176000D01*
X115659326Y-73364256D01*
X115659328Y-73364262D01*
X115698706Y-73485458D01*
X115701823Y-73496880D01*
X115706602Y-73518389D01*
X115706607Y-73518406D01*
X115911489Y-74060390D01*
X115919500Y-74104236D01*
X115919500Y-74849725D01*
X115899815Y-74916764D01*
X115864395Y-74952824D01*
X115851488Y-74961449D01*
X115851486Y-74961451D01*
X115845959Y-74965143D01*
X115845957Y-74965145D01*
X115516131Y-75294973D01*
X115421269Y-75389835D01*
X115421267Y-75389837D01*
X115382393Y-75428711D01*
X115334140Y-75476963D01*
X115300812Y-75526843D01*
X115300807Y-75526851D01*
X115289962Y-75543079D01*
X115274546Y-75561861D01*
X111618877Y-79217530D01*
X111557554Y-79251015D01*
X111487862Y-79246031D01*
X111431929Y-79204159D01*
X111413266Y-79168170D01*
X111372179Y-79041716D01*
X111277533Y-78877784D01*
X111150871Y-78737112D01*
X111132126Y-78723493D01*
X110997734Y-78625851D01*
X110997729Y-78625848D01*
X110824807Y-78548857D01*
X110824802Y-78548855D01*
X110679001Y-78517865D01*
X110639646Y-78509500D01*
X110450354Y-78509500D01*
X110410999Y-78517865D01*
X110265198Y-78548855D01*
X110265193Y-78548857D01*
X110236938Y-78561437D01*
X110213400Y-78569205D01*
X110202607Y-78571602D01*
X110202593Y-78571607D01*
X109660609Y-78776489D01*
X109616763Y-78784500D01*
X102265389Y-78784500D01*
X102204971Y-78796518D01*
X102161743Y-78805116D01*
X102144546Y-78808537D01*
X102044622Y-78849928D01*
X102044621Y-78849928D01*
X102030718Y-78855686D01*
X102030716Y-78855687D01*
X101928265Y-78924142D01*
X101928262Y-78924145D01*
X101422229Y-79430181D01*
X101360906Y-79463666D01*
X101334548Y-79466500D01*
X101275354Y-79466500D01*
X101242897Y-79473398D01*
X101090197Y-79505855D01*
X101090192Y-79505857D01*
X100917270Y-79582848D01*
X100917265Y-79582851D01*
X100764129Y-79694111D01*
X100637466Y-79834785D01*
X100542821Y-79998715D01*
X100542818Y-79998722D01*
X100515471Y-80082889D01*
X100484326Y-80178744D01*
X100464540Y-80367000D01*
X97661868Y-80367000D01*
X105731115Y-72297751D01*
X107626497Y-72297751D01*
X107646283Y-72486007D01*
X107646284Y-72486010D01*
X107704775Y-72666028D01*
X107704778Y-72666035D01*
X107799424Y-72829967D01*
X107879154Y-72918516D01*
X107926086Y-72970639D01*
X108079222Y-73081899D01*
X108079227Y-73081902D01*
X108252149Y-73158893D01*
X108252154Y-73158895D01*
X108437311Y-73198251D01*
X108437312Y-73198251D01*
X108626601Y-73198251D01*
X108626603Y-73198251D01*
X108811760Y-73158895D01*
X108984687Y-73081902D01*
X109137828Y-72970639D01*
X109264490Y-72829967D01*
X109359136Y-72666035D01*
X109417631Y-72486007D01*
X109437417Y-72297751D01*
X109417631Y-72109495D01*
X109378242Y-71988272D01*
X109375128Y-71976856D01*
X109370351Y-71955351D01*
X109165467Y-71413358D01*
X109157457Y-71369515D01*
X109157457Y-68899495D01*
X109177142Y-68832456D01*
X109193776Y-68811814D01*
X109851272Y-68154318D01*
X110530936Y-67474653D01*
X110567597Y-67449318D01*
X111095719Y-67210948D01*
X111136422Y-67190317D01*
X111136424Y-67190314D01*
X111141354Y-67187203D01*
X111141671Y-67187706D01*
X111158778Y-67177492D01*
X111197730Y-67160151D01*
X111350871Y-67048888D01*
X111477533Y-66908216D01*
X111572179Y-66744284D01*
X111630674Y-66564256D01*
X111650460Y-66376000D01*
X111630674Y-66187744D01*
X111572179Y-66007716D01*
X111477533Y-65843784D01*
X111350871Y-65703112D01*
X111350870Y-65703111D01*
X111197734Y-65591851D01*
X111197729Y-65591848D01*
X111024807Y-65514857D01*
X111024802Y-65514855D01*
X110879001Y-65483865D01*
X110839646Y-65475500D01*
X110650354Y-65475500D01*
X110617897Y-65482398D01*
X110465197Y-65514855D01*
X110465192Y-65514857D01*
X110292270Y-65591848D01*
X110292265Y-65591851D01*
X110139129Y-65703111D01*
X110012465Y-65843785D01*
X109917820Y-66007716D01*
X109915179Y-66013648D01*
X109915028Y-66013581D01*
X109911765Y-66021196D01*
X109911873Y-66021245D01*
X109910052Y-66025277D01*
X109910052Y-66025279D01*
X109715016Y-66457388D01*
X109679496Y-66536085D01*
X109679494Y-66536089D01*
X109671678Y-66553404D01*
X109646340Y-66590068D01*
X108868556Y-67367853D01*
X108133226Y-68103183D01*
X108133224Y-68103185D01*
X108110508Y-68125901D01*
X108046099Y-68190309D01*
X108027513Y-68218126D01*
X107977646Y-68292755D01*
X107977642Y-68292762D01*
X107951015Y-68357048D01*
X107930495Y-68406586D01*
X107930495Y-68406588D01*
X107906457Y-68527439D01*
X107906457Y-70129115D01*
X107886772Y-70196154D01*
X107875781Y-70205676D01*
X107904434Y-70262577D01*
X107906457Y-70284884D01*
X107906457Y-71369512D01*
X107898446Y-71413358D01*
X107693563Y-71955345D01*
X107679375Y-71998696D01*
X107678937Y-72002095D01*
X107673889Y-72024529D01*
X107646285Y-72109488D01*
X107646283Y-72109494D01*
X107642936Y-72141337D01*
X107626497Y-72297751D01*
X105731115Y-72297751D01*
X106913271Y-71115595D01*
X106974592Y-71082112D01*
X106974948Y-71082034D01*
X107040303Y-71068144D01*
X107213230Y-70991151D01*
X107366371Y-70879888D01*
X107493033Y-70739216D01*
X107587679Y-70575284D01*
X107646174Y-70395256D01*
X107659136Y-70271921D01*
X107685720Y-70207308D01*
X107689558Y-70204629D01*
X107663480Y-70164050D01*
X107659136Y-70142077D01*
X107658752Y-70138421D01*
X107646174Y-70018744D01*
X107587679Y-69838716D01*
X107493033Y-69674784D01*
X107366371Y-69534112D01*
X107366370Y-69534111D01*
X107213234Y-69422851D01*
X107213229Y-69422848D01*
X107040307Y-69345857D01*
X107040302Y-69345855D01*
X106894501Y-69314865D01*
X106855146Y-69306500D01*
X106665854Y-69306500D01*
X106633397Y-69313398D01*
X106480697Y-69345855D01*
X106480692Y-69345857D01*
X106307770Y-69422848D01*
X106307765Y-69422851D01*
X106154629Y-69534111D01*
X106027966Y-69674785D01*
X105933321Y-69838715D01*
X105933319Y-69838719D01*
X105877979Y-70009039D01*
X105847729Y-70058401D01*
X94021951Y-81884181D01*
X93960628Y-81917666D01*
X93934270Y-81920500D01*
X89204499Y-81920500D01*
X89137460Y-81900815D01*
X89091705Y-81848011D01*
X89080499Y-81796500D01*
X89080499Y-81623129D01*
X89080498Y-81623123D01*
X89080497Y-81623116D01*
X89074091Y-81563517D01*
X89053284Y-81507731D01*
X89023797Y-81428671D01*
X89023793Y-81428664D01*
X88937547Y-81313455D01*
X88937544Y-81313452D01*
X88822335Y-81227206D01*
X88822328Y-81227202D01*
X88687482Y-81176908D01*
X88687483Y-81176908D01*
X88627883Y-81170501D01*
X88627881Y-81170500D01*
X88627873Y-81170500D01*
X88627865Y-81170500D01*
X88454500Y-81170500D01*
X88387461Y-81150815D01*
X88341706Y-81098011D01*
X88330500Y-81046500D01*
X88330500Y-80427079D01*
X88307310Y-80310500D01*
X88301659Y-80282088D01*
X88265234Y-80194151D01*
X88245084Y-80145505D01*
X88203245Y-80082888D01*
X88162952Y-80022584D01*
X88162950Y-80022581D01*
X88162947Y-80022578D01*
X84962069Y-76821701D01*
X84928584Y-76760378D01*
X84929544Y-76703579D01*
X84931134Y-76697305D01*
X84932019Y-76686622D01*
X84950300Y-76466006D01*
X84950300Y-76465993D01*
X84931135Y-76234702D01*
X84931133Y-76234691D01*
X84874157Y-76009699D01*
X84780924Y-75797151D01*
X84653983Y-75602852D01*
X84653980Y-75602849D01*
X84653979Y-75602847D01*
X84559195Y-75499884D01*
X84528275Y-75437232D01*
X84536135Y-75367806D01*
X84580283Y-75313651D01*
X84607095Y-75299722D01*
X84687326Y-75269798D01*
X84687326Y-75269797D01*
X84687331Y-75269796D01*
X84802546Y-75183546D01*
X84888796Y-75068331D01*
X84939091Y-74933483D01*
X84945500Y-74873873D01*
X84945499Y-72978128D01*
X84939091Y-72918517D01*
X84925702Y-72882620D01*
X84888797Y-72783671D01*
X84888793Y-72783664D01*
X84802547Y-72668455D01*
X84802544Y-72668452D01*
X84687335Y-72582206D01*
X84687328Y-72582202D01*
X84552482Y-72531908D01*
X84552483Y-72531908D01*
X84492883Y-72525501D01*
X84492881Y-72525500D01*
X84492873Y-72525500D01*
X84492864Y-72525500D01*
X82597129Y-72525500D01*
X82597123Y-72525501D01*
X82537516Y-72531908D01*
X82402671Y-72582202D01*
X82402664Y-72582206D01*
X82287455Y-72668452D01*
X82287452Y-72668455D01*
X82201206Y-72783664D01*
X82201202Y-72783671D01*
X82150908Y-72918517D01*
X82145305Y-72970639D01*
X82144501Y-72978123D01*
X82144500Y-72978135D01*
X82144500Y-74873870D01*
X82144501Y-74873876D01*
X82150908Y-74933483D01*
X82201202Y-75068328D01*
X82201206Y-75068335D01*
X82287452Y-75183544D01*
X82287455Y-75183547D01*
X82402664Y-75269793D01*
X82402673Y-75269798D01*
X82482904Y-75299722D01*
X82538838Y-75341593D01*
X82563256Y-75407057D01*
X82548405Y-75475330D01*
X82530802Y-75499886D01*
X82436019Y-75602849D01*
X82309075Y-75797151D01*
X82215842Y-76009699D01*
X82158866Y-76234691D01*
X82158864Y-76234702D01*
X82139700Y-76465993D01*
X77245000Y-76465993D01*
X77245000Y-67680994D01*
X86074859Y-67680994D01*
X86074859Y-67681005D01*
X86095385Y-67928729D01*
X86095387Y-67928738D01*
X86156412Y-68169717D01*
X86256266Y-68397364D01*
X86356564Y-68550882D01*
X87088871Y-67818575D01*
X87104755Y-67877853D01*
X87171898Y-67994147D01*
X87266853Y-68089102D01*
X87383147Y-68156245D01*
X87442424Y-68172128D01*
X86709942Y-68904609D01*
X86756768Y-68941055D01*
X86756770Y-68941056D01*
X86975385Y-69059364D01*
X86975396Y-69059369D01*
X87210506Y-69140083D01*
X87455707Y-69181000D01*
X87704293Y-69181000D01*
X87949493Y-69140083D01*
X88184603Y-69059369D01*
X88184614Y-69059364D01*
X88403228Y-68941057D01*
X88403231Y-68941055D01*
X88450056Y-68904609D01*
X87717575Y-68172128D01*
X87776853Y-68156245D01*
X87893147Y-68089102D01*
X87988102Y-67994147D01*
X88055245Y-67877853D01*
X88071127Y-67818575D01*
X88803434Y-68550882D01*
X88903731Y-68397369D01*
X89003587Y-68169717D01*
X89064612Y-67928738D01*
X89064614Y-67928729D01*
X89085141Y-67681005D01*
X89085141Y-67680994D01*
X89064614Y-67433270D01*
X89064612Y-67433261D01*
X89003587Y-67192282D01*
X88903731Y-66964630D01*
X88803434Y-66811116D01*
X88071127Y-67543423D01*
X88055245Y-67484147D01*
X87988102Y-67367853D01*
X87893147Y-67272898D01*
X87776853Y-67205755D01*
X87717575Y-67189872D01*
X88450057Y-66457390D01*
X88450056Y-66457389D01*
X88403229Y-66420943D01*
X88184614Y-66302635D01*
X88184603Y-66302630D01*
X87949493Y-66221916D01*
X87704293Y-66181000D01*
X87455707Y-66181000D01*
X87210506Y-66221916D01*
X86975396Y-66302630D01*
X86975390Y-66302632D01*
X86756761Y-66420949D01*
X86709942Y-66457388D01*
X86709942Y-66457390D01*
X87442424Y-67189871D01*
X87383147Y-67205755D01*
X87266853Y-67272898D01*
X87171898Y-67367853D01*
X87104755Y-67484147D01*
X87088872Y-67543424D01*
X86356564Y-66811116D01*
X86256267Y-66964632D01*
X86156412Y-67192282D01*
X86095387Y-67433261D01*
X86095385Y-67433270D01*
X86074859Y-67680994D01*
X77245000Y-67680994D01*
X77245000Y-64675994D01*
X95739859Y-64675994D01*
X95739859Y-64676005D01*
X95760385Y-64923729D01*
X95760387Y-64923738D01*
X95821412Y-65164717D01*
X95921266Y-65392364D01*
X96021564Y-65545882D01*
X96721212Y-64846234D01*
X96732482Y-64888292D01*
X96804890Y-65013708D01*
X96907292Y-65116110D01*
X97032708Y-65188518D01*
X97074765Y-65199787D01*
X96374942Y-65899609D01*
X96421768Y-65936055D01*
X96421770Y-65936056D01*
X96640385Y-66054364D01*
X96640396Y-66054369D01*
X96875506Y-66135083D01*
X97120707Y-66176000D01*
X97369293Y-66176000D01*
X97614493Y-66135083D01*
X97849603Y-66054369D01*
X97849614Y-66054364D01*
X98068228Y-65936057D01*
X98068231Y-65936055D01*
X98115056Y-65899609D01*
X97415234Y-65199787D01*
X97457292Y-65188518D01*
X97582708Y-65116110D01*
X97685110Y-65013708D01*
X97757518Y-64888292D01*
X97768787Y-64846234D01*
X98468434Y-65545882D01*
X98568731Y-65392369D01*
X98668587Y-65164717D01*
X98729612Y-64923738D01*
X98729614Y-64923729D01*
X98750141Y-64676005D01*
X98750141Y-64675994D01*
X102239859Y-64675994D01*
X102239859Y-64676005D01*
X102260385Y-64923729D01*
X102260387Y-64923738D01*
X102321412Y-65164717D01*
X102421266Y-65392364D01*
X102521564Y-65545882D01*
X103221212Y-64846234D01*
X103232482Y-64888292D01*
X103304890Y-65013708D01*
X103407292Y-65116110D01*
X103532708Y-65188518D01*
X103574765Y-65199787D01*
X102874942Y-65899609D01*
X102921768Y-65936055D01*
X102921770Y-65936056D01*
X103140385Y-66054364D01*
X103140396Y-66054369D01*
X103375506Y-66135083D01*
X103620707Y-66176000D01*
X103869293Y-66176000D01*
X104114493Y-66135083D01*
X104349603Y-66054369D01*
X104349614Y-66054364D01*
X104568228Y-65936057D01*
X104568231Y-65936055D01*
X104615056Y-65899609D01*
X103915234Y-65199787D01*
X103957292Y-65188518D01*
X104082708Y-65116110D01*
X104185110Y-65013708D01*
X104257518Y-64888292D01*
X104268787Y-64846235D01*
X104968434Y-65545882D01*
X105068731Y-65392369D01*
X105168587Y-65164717D01*
X105229612Y-64923738D01*
X105229614Y-64923729D01*
X105250141Y-64676005D01*
X105250141Y-64675994D01*
X130739859Y-64675994D01*
X130739859Y-64676005D01*
X130760385Y-64923729D01*
X130760387Y-64923738D01*
X130821412Y-65164717D01*
X130921266Y-65392364D01*
X131021564Y-65545882D01*
X131721212Y-64846234D01*
X131732482Y-64888292D01*
X131804890Y-65013708D01*
X131907292Y-65116110D01*
X132032708Y-65188518D01*
X132074765Y-65199787D01*
X131374942Y-65899609D01*
X131421768Y-65936055D01*
X131421770Y-65936056D01*
X131640385Y-66054364D01*
X131640396Y-66054369D01*
X131875506Y-66135083D01*
X132120707Y-66176000D01*
X132369293Y-66176000D01*
X132614493Y-66135083D01*
X132849603Y-66054369D01*
X132849614Y-66054364D01*
X133068228Y-65936057D01*
X133068231Y-65936055D01*
X133115056Y-65899609D01*
X132415234Y-65199787D01*
X132457292Y-65188518D01*
X132582708Y-65116110D01*
X132685110Y-65013708D01*
X132757518Y-64888292D01*
X132768787Y-64846234D01*
X133468434Y-65545882D01*
X133568731Y-65392369D01*
X133668587Y-65164717D01*
X133729612Y-64923738D01*
X133729614Y-64923729D01*
X133750141Y-64676005D01*
X133750141Y-64675994D01*
X137239859Y-64675994D01*
X137239859Y-64676005D01*
X137260385Y-64923729D01*
X137260387Y-64923738D01*
X137321412Y-65164717D01*
X137421266Y-65392364D01*
X137521564Y-65545882D01*
X138221212Y-64846234D01*
X138232482Y-64888292D01*
X138304890Y-65013708D01*
X138407292Y-65116110D01*
X138532708Y-65188518D01*
X138574765Y-65199787D01*
X137874942Y-65899609D01*
X137921768Y-65936055D01*
X137921770Y-65936056D01*
X138140385Y-66054364D01*
X138140396Y-66054369D01*
X138375506Y-66135083D01*
X138620707Y-66176000D01*
X138869293Y-66176000D01*
X139114493Y-66135083D01*
X139349603Y-66054369D01*
X139349614Y-66054364D01*
X139568228Y-65936057D01*
X139568231Y-65936055D01*
X139615056Y-65899609D01*
X138915234Y-65199787D01*
X138957292Y-65188518D01*
X139082708Y-65116110D01*
X139185110Y-65013708D01*
X139257518Y-64888292D01*
X139268787Y-64846235D01*
X139968434Y-65545882D01*
X140068731Y-65392369D01*
X140168587Y-65164717D01*
X140229612Y-64923738D01*
X140229614Y-64923729D01*
X140250141Y-64676005D01*
X140250141Y-64675994D01*
X140229614Y-64428270D01*
X140229612Y-64428261D01*
X140168587Y-64187282D01*
X140068731Y-63959630D01*
X139968434Y-63806116D01*
X139268787Y-64505764D01*
X139257518Y-64463708D01*
X139185110Y-64338292D01*
X139082708Y-64235890D01*
X138957292Y-64163482D01*
X138915235Y-64152212D01*
X139615057Y-63452390D01*
X139615056Y-63452389D01*
X139568229Y-63415943D01*
X139349614Y-63297635D01*
X139349603Y-63297630D01*
X139114493Y-63216916D01*
X138869293Y-63176000D01*
X138620707Y-63176000D01*
X138375506Y-63216916D01*
X138140396Y-63297630D01*
X138140390Y-63297632D01*
X137921761Y-63415949D01*
X137874942Y-63452388D01*
X137874942Y-63452390D01*
X138574765Y-64152212D01*
X138532708Y-64163482D01*
X138407292Y-64235890D01*
X138304890Y-64338292D01*
X138232482Y-64463708D01*
X138221212Y-64505764D01*
X137521564Y-63806116D01*
X137421267Y-63959632D01*
X137321412Y-64187282D01*
X137260387Y-64428261D01*
X137260385Y-64428270D01*
X137239859Y-64675994D01*
X133750141Y-64675994D01*
X133729614Y-64428270D01*
X133729612Y-64428261D01*
X133668587Y-64187282D01*
X133568731Y-63959630D01*
X133468434Y-63806116D01*
X132768787Y-64505764D01*
X132757518Y-64463708D01*
X132685110Y-64338292D01*
X132582708Y-64235890D01*
X132457292Y-64163482D01*
X132415235Y-64152212D01*
X133115057Y-63452390D01*
X133115056Y-63452389D01*
X133068229Y-63415943D01*
X132849614Y-63297635D01*
X132849603Y-63297630D01*
X132614493Y-63216916D01*
X132369293Y-63176000D01*
X132120707Y-63176000D01*
X131875506Y-63216916D01*
X131640396Y-63297630D01*
X131640390Y-63297632D01*
X131421761Y-63415949D01*
X131374942Y-63452388D01*
X131374942Y-63452390D01*
X132074765Y-64152212D01*
X132032708Y-64163482D01*
X131907292Y-64235890D01*
X131804890Y-64338292D01*
X131732482Y-64463708D01*
X131721212Y-64505764D01*
X131021564Y-63806116D01*
X130921267Y-63959632D01*
X130821412Y-64187282D01*
X130760387Y-64428261D01*
X130760385Y-64428270D01*
X130739859Y-64675994D01*
X105250141Y-64675994D01*
X105229614Y-64428270D01*
X105229612Y-64428261D01*
X105168587Y-64187282D01*
X105068731Y-63959630D01*
X104968434Y-63806116D01*
X104268787Y-64505764D01*
X104257518Y-64463708D01*
X104185110Y-64338292D01*
X104082708Y-64235890D01*
X103957292Y-64163482D01*
X103915235Y-64152212D01*
X104615057Y-63452390D01*
X104615056Y-63452389D01*
X104568229Y-63415943D01*
X104349614Y-63297635D01*
X104349603Y-63297630D01*
X104114493Y-63216916D01*
X103869293Y-63176000D01*
X103620707Y-63176000D01*
X103375506Y-63216916D01*
X103140396Y-63297630D01*
X103140390Y-63297632D01*
X102921761Y-63415949D01*
X102874942Y-63452388D01*
X102874942Y-63452390D01*
X103574765Y-64152212D01*
X103532708Y-64163482D01*
X103407292Y-64235890D01*
X103304890Y-64338292D01*
X103232482Y-64463708D01*
X103221212Y-64505764D01*
X102521564Y-63806116D01*
X102421267Y-63959632D01*
X102321412Y-64187282D01*
X102260387Y-64428261D01*
X102260385Y-64428270D01*
X102239859Y-64675994D01*
X98750141Y-64675994D01*
X98729614Y-64428270D01*
X98729612Y-64428261D01*
X98668587Y-64187282D01*
X98568731Y-63959630D01*
X98468434Y-63806116D01*
X97768787Y-64505764D01*
X97757518Y-64463708D01*
X97685110Y-64338292D01*
X97582708Y-64235890D01*
X97457292Y-64163482D01*
X97415235Y-64152212D01*
X98115057Y-63452390D01*
X98115056Y-63452389D01*
X98068229Y-63415943D01*
X97849614Y-63297635D01*
X97849603Y-63297630D01*
X97614493Y-63216916D01*
X97369293Y-63176000D01*
X97120707Y-63176000D01*
X96875506Y-63216916D01*
X96640396Y-63297630D01*
X96640390Y-63297632D01*
X96421761Y-63415949D01*
X96374942Y-63452388D01*
X96374942Y-63452390D01*
X97074765Y-64152212D01*
X97032708Y-64163482D01*
X96907292Y-64235890D01*
X96804890Y-64338292D01*
X96732482Y-64463708D01*
X96721212Y-64505764D01*
X96021564Y-63806116D01*
X95921267Y-63959632D01*
X95821412Y-64187282D01*
X95760387Y-64428261D01*
X95760385Y-64428270D01*
X95739859Y-64675994D01*
X77245000Y-64675994D01*
X77245000Y-62943167D01*
X80539700Y-62943167D01*
X80539700Y-62943180D01*
X80558864Y-63174471D01*
X80558866Y-63174482D01*
X80615842Y-63399474D01*
X80709075Y-63612022D01*
X80836016Y-63806321D01*
X80836019Y-63806325D01*
X80836021Y-63806327D01*
X80993216Y-63977087D01*
X80993219Y-63977089D01*
X80993222Y-63977092D01*
X81176365Y-64119638D01*
X81176371Y-64119642D01*
X81176374Y-64119644D01*
X81380497Y-64230110D01*
X81494487Y-64269242D01*
X81600015Y-64305471D01*
X81600017Y-64305471D01*
X81600019Y-64305472D01*
X81828951Y-64343674D01*
X81828952Y-64343674D01*
X82061048Y-64343674D01*
X82061049Y-64343674D01*
X82289981Y-64305472D01*
X82509503Y-64230110D01*
X82713626Y-64119644D01*
X82896784Y-63977087D01*
X83053979Y-63806327D01*
X83180924Y-63612023D01*
X83274157Y-63399474D01*
X83331134Y-63174479D01*
X83350300Y-62943174D01*
X83350300Y-62943167D01*
X83331135Y-62711876D01*
X83331131Y-62711856D01*
X83307086Y-62616904D01*
X83309710Y-62547083D01*
X83349666Y-62489766D01*
X83414267Y-62463149D01*
X83447850Y-62464179D01*
X83532390Y-62478396D01*
X83675294Y-62461309D01*
X83807596Y-62404655D01*
X83918577Y-62313020D01*
X83953932Y-62264601D01*
X84901804Y-60622837D01*
X84926060Y-60568009D01*
X84949927Y-60426079D01*
X84932840Y-60283175D01*
X84932839Y-60283172D01*
X84932838Y-60283169D01*
X84886943Y-60175994D01*
X95739357Y-60175994D01*
X95739357Y-60176005D01*
X95759890Y-60423812D01*
X95759892Y-60423824D01*
X95820936Y-60664881D01*
X95920826Y-60892606D01*
X96056833Y-61100782D01*
X96056836Y-61100785D01*
X96225256Y-61283738D01*
X96421491Y-61436474D01*
X96640190Y-61554828D01*
X96875386Y-61635571D01*
X97120665Y-61676500D01*
X97369335Y-61676500D01*
X97614614Y-61635571D01*
X97849810Y-61554828D01*
X98068509Y-61436474D01*
X98264744Y-61283738D01*
X98433164Y-61100785D01*
X98569173Y-60892607D01*
X98669063Y-60664881D01*
X98730108Y-60423821D01*
X98736023Y-60352443D01*
X98750643Y-60176005D01*
X98750643Y-60175994D01*
X102239357Y-60175994D01*
X102239357Y-60176005D01*
X102259890Y-60423812D01*
X102259892Y-60423824D01*
X102320936Y-60664881D01*
X102420826Y-60892606D01*
X102556833Y-61100782D01*
X102556836Y-61100785D01*
X102725256Y-61283738D01*
X102921491Y-61436474D01*
X103140190Y-61554828D01*
X103375386Y-61635571D01*
X103620665Y-61676500D01*
X103869335Y-61676500D01*
X104114614Y-61635571D01*
X104349810Y-61554828D01*
X104568509Y-61436474D01*
X104764744Y-61283738D01*
X104933164Y-61100785D01*
X105069173Y-60892607D01*
X105169063Y-60664881D01*
X105230108Y-60423821D01*
X105236023Y-60352443D01*
X105250643Y-60176005D01*
X105250643Y-60175994D01*
X130739357Y-60175994D01*
X130739357Y-60176005D01*
X130759890Y-60423812D01*
X130759892Y-60423824D01*
X130820936Y-60664881D01*
X130920826Y-60892606D01*
X131056833Y-61100782D01*
X131056836Y-61100785D01*
X131225256Y-61283738D01*
X131421491Y-61436474D01*
X131640190Y-61554828D01*
X131875386Y-61635571D01*
X132120665Y-61676500D01*
X132369335Y-61676500D01*
X132614614Y-61635571D01*
X132849810Y-61554828D01*
X133068509Y-61436474D01*
X133264744Y-61283738D01*
X133433164Y-61100785D01*
X133569173Y-60892607D01*
X133669063Y-60664881D01*
X133730108Y-60423821D01*
X133736023Y-60352443D01*
X133750643Y-60176005D01*
X133750643Y-60175994D01*
X137239357Y-60175994D01*
X137239357Y-60176005D01*
X137259890Y-60423812D01*
X137259892Y-60423824D01*
X137320936Y-60664881D01*
X137420826Y-60892606D01*
X137556833Y-61100782D01*
X137556836Y-61100785D01*
X137725256Y-61283738D01*
X137921491Y-61436474D01*
X138140190Y-61554828D01*
X138375386Y-61635571D01*
X138620665Y-61676500D01*
X138869335Y-61676500D01*
X139114614Y-61635571D01*
X139349810Y-61554828D01*
X139568509Y-61436474D01*
X139764744Y-61283738D01*
X139933164Y-61100785D01*
X140069173Y-60892607D01*
X140169063Y-60664881D01*
X140230108Y-60423821D01*
X140236023Y-60352443D01*
X140250643Y-60176005D01*
X140250643Y-60175994D01*
X140230109Y-59928187D01*
X140230107Y-59928175D01*
X140169063Y-59687118D01*
X140069173Y-59459393D01*
X139933166Y-59251217D01*
X139862007Y-59173918D01*
X139764744Y-59068262D01*
X139568509Y-58915526D01*
X139568507Y-58915525D01*
X139568506Y-58915524D01*
X139349811Y-58797172D01*
X139349802Y-58797169D01*
X139114616Y-58716429D01*
X138869335Y-58675500D01*
X138620665Y-58675500D01*
X138375383Y-58716429D01*
X138140197Y-58797169D01*
X138140188Y-58797172D01*
X137921493Y-58915524D01*
X137725257Y-59068261D01*
X137556833Y-59251217D01*
X137420826Y-59459393D01*
X137320936Y-59687118D01*
X137259892Y-59928175D01*
X137259890Y-59928187D01*
X137239357Y-60175994D01*
X133750643Y-60175994D01*
X133730109Y-59928187D01*
X133730107Y-59928175D01*
X133669063Y-59687118D01*
X133569173Y-59459393D01*
X133433166Y-59251217D01*
X133362007Y-59173918D01*
X133264744Y-59068262D01*
X133068509Y-58915526D01*
X133068507Y-58915525D01*
X133068506Y-58915524D01*
X132849811Y-58797172D01*
X132849802Y-58797169D01*
X132614616Y-58716429D01*
X132369335Y-58675500D01*
X132120665Y-58675500D01*
X131875383Y-58716429D01*
X131640197Y-58797169D01*
X131640188Y-58797172D01*
X131421493Y-58915524D01*
X131225257Y-59068261D01*
X131056833Y-59251217D01*
X130920826Y-59459393D01*
X130820936Y-59687118D01*
X130759892Y-59928175D01*
X130759890Y-59928187D01*
X130739357Y-60175994D01*
X105250643Y-60175994D01*
X105230109Y-59928187D01*
X105230107Y-59928175D01*
X105169063Y-59687118D01*
X105069173Y-59459393D01*
X104933166Y-59251217D01*
X104862007Y-59173918D01*
X104764744Y-59068262D01*
X104568509Y-58915526D01*
X104568507Y-58915525D01*
X104568506Y-58915524D01*
X104349811Y-58797172D01*
X104349802Y-58797169D01*
X104114616Y-58716429D01*
X103869335Y-58675500D01*
X103620665Y-58675500D01*
X103375383Y-58716429D01*
X103140197Y-58797169D01*
X103140188Y-58797172D01*
X102921493Y-58915524D01*
X102725257Y-59068261D01*
X102556833Y-59251217D01*
X102420826Y-59459393D01*
X102320936Y-59687118D01*
X102259892Y-59928175D01*
X102259890Y-59928187D01*
X102239357Y-60175994D01*
X98750643Y-60175994D01*
X98730109Y-59928187D01*
X98730107Y-59928175D01*
X98669063Y-59687118D01*
X98569173Y-59459393D01*
X98433166Y-59251217D01*
X98362007Y-59173918D01*
X98264744Y-59068262D01*
X98068509Y-58915526D01*
X98068507Y-58915525D01*
X98068506Y-58915524D01*
X97849811Y-58797172D01*
X97849802Y-58797169D01*
X97614616Y-58716429D01*
X97369335Y-58675500D01*
X97120665Y-58675500D01*
X96875383Y-58716429D01*
X96640197Y-58797169D01*
X96640188Y-58797172D01*
X96421493Y-58915524D01*
X96225257Y-59068261D01*
X96056833Y-59251217D01*
X95920826Y-59459393D01*
X95820936Y-59687118D01*
X95759892Y-59928175D01*
X95759890Y-59928187D01*
X95739357Y-60175994D01*
X84886943Y-60175994D01*
X84876187Y-60150875D01*
X84876186Y-60150874D01*
X84876186Y-60150873D01*
X84821617Y-60084783D01*
X84784550Y-60039890D01*
X84736140Y-60004542D01*
X84736125Y-60004532D01*
X83094363Y-59056662D01*
X83039540Y-59032409D01*
X83039537Y-59032408D01*
X82897611Y-59008542D01*
X82897609Y-59008541D01*
X82754703Y-59025629D01*
X82754700Y-59025630D01*
X82622406Y-59082281D01*
X82511421Y-59173918D01*
X82511421Y-59173919D01*
X82476073Y-59222328D01*
X82476063Y-59222343D01*
X81528193Y-60864105D01*
X81503940Y-60918928D01*
X81503939Y-60918931D01*
X81480073Y-61060857D01*
X81480072Y-61060859D01*
X81497160Y-61203765D01*
X81497161Y-61203768D01*
X81553812Y-61336063D01*
X81553814Y-61336065D01*
X81607496Y-61401082D01*
X81635000Y-61465310D01*
X81623413Y-61534213D01*
X81576415Y-61585913D01*
X81552140Y-61597312D01*
X81380504Y-61656235D01*
X81380495Y-61656238D01*
X81176371Y-61766705D01*
X81176365Y-61766709D01*
X80993222Y-61909255D01*
X80993219Y-61909258D01*
X80836016Y-62080026D01*
X80709075Y-62274325D01*
X80615842Y-62486873D01*
X80558866Y-62711865D01*
X80558864Y-62711876D01*
X80539700Y-62943167D01*
X77245000Y-62943167D01*
X77245000Y-58984782D01*
X77245011Y-58983160D01*
X77245896Y-58915524D01*
X77247495Y-58793285D01*
X77248162Y-58781971D01*
X77287948Y-58403421D01*
X77289979Y-58390606D01*
X77327587Y-58213676D01*
X77368942Y-58019115D01*
X77372300Y-58006585D01*
X77489662Y-57645380D01*
X77494313Y-57633263D01*
X77563884Y-57477005D01*
X77648797Y-57286286D01*
X77654675Y-57274752D01*
X77844585Y-56945816D01*
X77851639Y-56934954D01*
X78074891Y-56627674D01*
X78083038Y-56617613D01*
X78337190Y-56335349D01*
X78346349Y-56326190D01*
X78628613Y-56072038D01*
X78638674Y-56063891D01*
X78945954Y-55840639D01*
X78956816Y-55833585D01*
X79285752Y-55643675D01*
X79297286Y-55637797D01*
X79644270Y-55483310D01*
X79656373Y-55478664D01*
X80017591Y-55361298D01*
X80030115Y-55357942D01*
X80401611Y-55278978D01*
X80414421Y-55276948D01*
X80792971Y-55237162D01*
X80804285Y-55236495D01*
X80991391Y-55234047D01*
X80994160Y-55234011D01*
X80995782Y-55234000D01*
X144495000Y-55234000D01*
X144495000Y-63734000D01*
G37*
G04 #@! TD.AperFunction*
G04 #@! TA.AperFunction,NonConductor*
G36*
X109660610Y-80043510D02*
G01*
X110202599Y-80248394D01*
X110202607Y-80248397D01*
X110239958Y-80260621D01*
X110251828Y-80265192D01*
X110265191Y-80271142D01*
X110265193Y-80271142D01*
X110265197Y-80271144D01*
X110289277Y-80276262D01*
X110350757Y-80309453D01*
X110384534Y-80370616D01*
X110379882Y-80440331D01*
X110351176Y-80485233D01*
X107081609Y-83754799D01*
X107021919Y-83787917D01*
X106574022Y-83891703D01*
X106571812Y-83892194D01*
X106465199Y-83914855D01*
X106465195Y-83914856D01*
X106415793Y-83936851D01*
X106414023Y-83937623D01*
X106362289Y-83959696D01*
X106360283Y-83960850D01*
X106348936Y-83966617D01*
X106292275Y-83991845D01*
X106292274Y-83991846D01*
X106138840Y-84103321D01*
X106073033Y-84126800D01*
X106004979Y-84110974D01*
X105978274Y-84090683D01*
X102342271Y-80454681D01*
X102308786Y-80393358D01*
X102313770Y-80323666D01*
X102342271Y-80279319D01*
X102442847Y-80178744D01*
X102549772Y-80071819D01*
X102611095Y-80038334D01*
X102637453Y-80035500D01*
X109616766Y-80035500D01*
X109660610Y-80043510D01*
G37*
G04 #@! TD.AperFunction*
G04 #@! TA.AperFunction,Conductor*
G36*
X148495840Y-55234011D02*
G01*
X148498677Y-55234048D01*
X148685713Y-55236495D01*
X148697029Y-55237162D01*
X149075575Y-55276948D01*
X149088391Y-55278978D01*
X149459879Y-55357941D01*
X149472414Y-55361300D01*
X149833619Y-55478662D01*
X149845736Y-55483313D01*
X150192705Y-55637794D01*
X150204255Y-55643679D01*
X150533171Y-55833578D01*
X150544053Y-55840645D01*
X150851315Y-56063884D01*
X150861398Y-56072049D01*
X151143640Y-56326181D01*
X151152818Y-56335359D01*
X151406950Y-56617601D01*
X151415118Y-56627688D01*
X151638352Y-56934943D01*
X151645421Y-56945828D01*
X151835316Y-57274737D01*
X151841209Y-57286302D01*
X151995686Y-57633263D01*
X152000337Y-57645380D01*
X152117699Y-58006585D01*
X152121058Y-58019122D01*
X152200020Y-58390606D01*
X152202051Y-58403426D01*
X152241836Y-58781958D01*
X152242504Y-58793296D01*
X152244989Y-58983159D01*
X152245000Y-58984782D01*
X152245000Y-63676000D01*
X144495000Y-63734000D01*
X144495000Y-55234000D01*
X148494218Y-55234000D01*
X148495840Y-55234011D01*
G37*
G04 #@! TD.AperFunction*
G04 #@! TA.AperFunction,Conductor*
G36*
X123082479Y-69551713D02*
G01*
X123084124Y-69553075D01*
X123357707Y-69825293D01*
X123357749Y-69825335D01*
X123629924Y-70098875D01*
X123633330Y-70107156D01*
X123629882Y-70115421D01*
X123628237Y-70116783D01*
X122976104Y-70562978D01*
X122967341Y-70564822D01*
X122961224Y-70561595D01*
X122621404Y-70221775D01*
X122617977Y-70213502D01*
X122620021Y-70206895D01*
X123066217Y-69554761D01*
X123073716Y-69549869D01*
X123082479Y-69551713D01*
G37*
G04 #@! TD.AperFunction*
G04 #@! TA.AperFunction,Conductor*
G36*
X119977928Y-75521200D02*
G01*
X119984026Y-75527758D01*
X119984761Y-75531840D01*
X119984761Y-76010970D01*
X119982279Y-76018175D01*
X119645973Y-76448443D01*
X119638178Y-76452851D01*
X119629550Y-76450456D01*
X119628496Y-76449526D01*
X119355667Y-76177659D01*
X119353106Y-76173823D01*
X119206535Y-75817641D01*
X119206556Y-75808687D01*
X119212903Y-75802369D01*
X119213240Y-75802236D01*
X119968980Y-75520875D01*
X119977928Y-75521200D01*
G37*
G04 #@! TD.AperFunction*
G04 #@! TA.AperFunction,Conductor*
G36*
X116904109Y-73324719D02*
G01*
X116910427Y-73331066D01*
X116910551Y-73339655D01*
X116672859Y-73968437D01*
X116666728Y-73974964D01*
X116661915Y-73976000D01*
X116428085Y-73976000D01*
X116419812Y-73972573D01*
X116417141Y-73968437D01*
X116179448Y-73339655D01*
X116179728Y-73330705D01*
X116185889Y-73324719D01*
X116540500Y-73176875D01*
X116549449Y-73176855D01*
X116904109Y-73324719D01*
G37*
G04 #@! TD.AperFunction*
G04 #@! TA.AperFunction,Conductor*
G36*
X107304914Y-84244754D02*
G01*
X107306995Y-84246408D01*
X107472217Y-84411630D01*
X107475644Y-84419903D01*
X107473507Y-84426644D01*
X107035830Y-85047511D01*
X107028262Y-85052299D01*
X107019526Y-85050333D01*
X107018015Y-85049064D01*
X106745964Y-84778369D01*
X106743396Y-84774527D01*
X106597169Y-84419187D01*
X106597190Y-84410233D01*
X106603537Y-84403915D01*
X106605335Y-84403341D01*
X107296081Y-84243283D01*
X107304914Y-84244754D01*
G37*
G04 #@! TD.AperFunction*
G04 #@! TA.AperFunction,Conductor*
G36*
X113787539Y-69127643D02*
G01*
X113952881Y-69292985D01*
X113956308Y-69301258D01*
X113955272Y-69306071D01*
X113678731Y-69918760D01*
X113672204Y-69924891D01*
X113663615Y-69924767D01*
X113308329Y-69778563D01*
X113301982Y-69772245D01*
X113301961Y-69772195D01*
X113155757Y-69416909D01*
X113155778Y-69407955D01*
X113161762Y-69401794D01*
X113774453Y-69125251D01*
X113783403Y-69124972D01*
X113787539Y-69127643D01*
G37*
G04 #@! TD.AperFunction*
G04 #@! TA.AperFunction,Conductor*
G36*
X126140957Y-68579742D02*
G01*
X126144998Y-68587733D01*
X126145031Y-68588586D01*
X126145987Y-68971124D01*
X126142581Y-68979405D01*
X126142546Y-68979441D01*
X125869811Y-69251215D01*
X125861531Y-69254627D01*
X125853946Y-69251817D01*
X125424405Y-68884285D01*
X125420347Y-68876302D01*
X125420312Y-68875395D01*
X125420312Y-68641632D01*
X125423739Y-68633359D01*
X125431129Y-68629965D01*
X126132450Y-68576948D01*
X126140957Y-68579742D01*
G37*
G04 #@! TD.AperFunction*
G04 #@! TA.AperFunction,Conductor*
G36*
X110390294Y-79044728D02*
G01*
X110396280Y-79050890D01*
X110544123Y-79405498D01*
X110544144Y-79414452D01*
X110544123Y-79414502D01*
X110396280Y-79769109D01*
X110389933Y-79775427D01*
X110381344Y-79775551D01*
X109752563Y-79537858D01*
X109746036Y-79531727D01*
X109745000Y-79526914D01*
X109745000Y-79293085D01*
X109748427Y-79284812D01*
X109752563Y-79282141D01*
X110381345Y-79044448D01*
X110390294Y-79044728D01*
G37*
G04 #@! TD.AperFunction*
G04 #@! TA.AperFunction,Conductor*
G36*
X110385909Y-66227232D02*
G01*
X110528763Y-66286018D01*
X110741195Y-66373436D01*
X110747542Y-66379754D01*
X110747563Y-66379804D01*
X110893767Y-66735090D01*
X110893746Y-66744044D01*
X110887760Y-66750206D01*
X110275071Y-67026747D01*
X110266121Y-67027027D01*
X110261985Y-67024356D01*
X110096643Y-66859014D01*
X110093216Y-66850741D01*
X110094252Y-66845928D01*
X110140238Y-66744044D01*
X110370794Y-66233238D01*
X110377320Y-66227108D01*
X110385909Y-66227232D01*
G37*
G04 #@! TD.AperFunction*
G04 #@! TA.AperFunction,Conductor*
G36*
X108657145Y-71501178D02*
G01*
X108659816Y-71505314D01*
X108897508Y-72134095D01*
X108897228Y-72143045D01*
X108891066Y-72149031D01*
X108536459Y-72296874D01*
X108527505Y-72296895D01*
X108527455Y-72296874D01*
X108172847Y-72149031D01*
X108166529Y-72142684D01*
X108166405Y-72134096D01*
X108404098Y-71505313D01*
X108410229Y-71498787D01*
X108415042Y-71497751D01*
X108648872Y-71497751D01*
X108657145Y-71501178D01*
G37*
G04 #@! TD.AperFunction*
G04 #@! TA.AperFunction,Conductor*
G36*
X118994878Y-74629806D02*
G01*
X119351197Y-74776436D01*
X119357544Y-74782754D01*
X119357565Y-74782804D01*
X119503264Y-75136862D01*
X119503243Y-75145816D01*
X119496896Y-75152134D01*
X119496048Y-75152445D01*
X118840345Y-75364758D01*
X118831419Y-75364046D01*
X118828468Y-75361900D01*
X118663128Y-75196560D01*
X118659701Y-75188287D01*
X118661289Y-75182402D01*
X118980317Y-74634737D01*
X118987443Y-74629314D01*
X118994878Y-74629806D01*
G37*
G04 #@! TD.AperFunction*
G04 #@! TA.AperFunction,Conductor*
G36*
X116189021Y-77669355D02*
G01*
X116354363Y-77834697D01*
X116357790Y-77842970D01*
X116356754Y-77847783D01*
X116080213Y-78460472D01*
X116073686Y-78466603D01*
X116065097Y-78466479D01*
X115709811Y-78320275D01*
X115703464Y-78313957D01*
X115703443Y-78313907D01*
X115557239Y-77958621D01*
X115557260Y-77949667D01*
X115563244Y-77943506D01*
X116175935Y-77666963D01*
X116184885Y-77666684D01*
X116189021Y-77669355D01*
G37*
G04 #@! TD.AperFunction*
M02*
