G04 #@! TF.GenerationSoftware,KiCad,Pcbnew,7.0.8*
G04 #@! TF.CreationDate,2023-10-29T22:23:11+01:00*
G04 #@! TF.ProjectId,sumec,73756d65-632e-46b6-9963-61645f706362,rev?*
G04 #@! TF.SameCoordinates,Original*
G04 #@! TF.FileFunction,Copper,L2,Bot*
G04 #@! TF.FilePolarity,Positive*
%FSLAX46Y46*%
G04 Gerber Fmt 4.6, Leading zero omitted, Abs format (unit mm)*
G04 Created by KiCad (PCBNEW 7.0.8) date 2023-10-29 22:23:11*
%MOMM*%
%LPD*%
G01*
G04 APERTURE LIST*
G04 Aperture macros list*
%AMRoundRect*
0 Rectangle with rounded corners*
0 $1 Rounding radius*
0 $2 $3 $4 $5 $6 $7 $8 $9 X,Y pos of 4 corners*
0 Add a 4 corners polygon primitive as box body*
4,1,4,$2,$3,$4,$5,$6,$7,$8,$9,$2,$3,0*
0 Add four circle primitives for the rounded corners*
1,1,$1+$1,$2,$3*
1,1,$1+$1,$4,$5*
1,1,$1+$1,$6,$7*
1,1,$1+$1,$8,$9*
0 Add four rect primitives between the rounded corners*
20,1,$1+$1,$2,$3,$4,$5,0*
20,1,$1+$1,$4,$5,$6,$7,0*
20,1,$1+$1,$6,$7,$8,$9,0*
20,1,$1+$1,$8,$9,$2,$3,0*%
G04 Aperture macros list end*
G04 #@! TA.AperFunction,ComponentPad*
%ADD10C,5.700000*%
G04 #@! TD*
G04 #@! TA.AperFunction,ComponentPad*
%ADD11RoundRect,0.250000X-0.550000X-0.550000X0.550000X-0.550000X0.550000X0.550000X-0.550000X0.550000X0*%
G04 #@! TD*
G04 #@! TA.AperFunction,ComponentPad*
%ADD12R,3.800000X3.800000*%
G04 #@! TD*
G04 #@! TA.AperFunction,ComponentPad*
%ADD13C,3.800000*%
G04 #@! TD*
G04 #@! TA.AperFunction,ComponentPad*
%ADD14R,1.700000X1.700000*%
G04 #@! TD*
G04 #@! TA.AperFunction,ComponentPad*
%ADD15O,1.700000X1.700000*%
G04 #@! TD*
G04 #@! TA.AperFunction,ComponentPad*
%ADD16O,2.000000X0.900000*%
G04 #@! TD*
G04 #@! TA.AperFunction,ComponentPad*
%ADD17O,1.700000X0.900000*%
G04 #@! TD*
G04 #@! TA.AperFunction,SMDPad,CuDef*
%ADD18RoundRect,0.250000X-0.625000X0.312500X-0.625000X-0.312500X0.625000X-0.312500X0.625000X0.312500X0*%
G04 #@! TD*
G04 #@! TA.AperFunction,SMDPad,CuDef*
%ADD19RoundRect,0.250000X0.312500X0.625000X-0.312500X0.625000X-0.312500X-0.625000X0.312500X-0.625000X0*%
G04 #@! TD*
G04 #@! TA.AperFunction,SMDPad,CuDef*
%ADD20RoundRect,0.250000X-0.325000X-0.650000X0.325000X-0.650000X0.325000X0.650000X-0.325000X0.650000X0*%
G04 #@! TD*
G04 #@! TA.AperFunction,ComponentPad*
%ADD21RoundRect,0.275000X0.275000X0.525000X-0.275000X0.525000X-0.275000X-0.525000X0.275000X-0.525000X0*%
G04 #@! TD*
G04 #@! TA.AperFunction,ComponentPad*
%ADD22O,1.100000X1.600000*%
G04 #@! TD*
G04 #@! TA.AperFunction,SMDPad,CuDef*
%ADD23RoundRect,0.250000X0.625000X-0.312500X0.625000X0.312500X-0.625000X0.312500X-0.625000X-0.312500X0*%
G04 #@! TD*
G04 #@! TA.AperFunction,ViaPad*
%ADD24C,0.800000*%
G04 #@! TD*
G04 #@! TA.AperFunction,ViaPad*
%ADD25C,1.500000*%
G04 #@! TD*
G04 #@! TA.AperFunction,Conductor*
%ADD26C,0.508000*%
G04 #@! TD*
G04 #@! TA.AperFunction,Conductor*
%ADD27C,1.000000*%
G04 #@! TD*
G04 #@! TA.AperFunction,Conductor*
%ADD28C,0.900000*%
G04 #@! TD*
G04 #@! TA.AperFunction,Conductor*
%ADD29C,2.000000*%
G04 #@! TD*
G04 #@! TA.AperFunction,Conductor*
%ADD30C,0.300000*%
G04 #@! TD*
G04 #@! TA.AperFunction,Conductor*
%ADD31C,0.250000*%
G04 #@! TD*
G04 #@! TA.AperFunction,Conductor*
%ADD32C,1.150000*%
G04 #@! TD*
G04 #@! TA.AperFunction,Conductor*
%ADD33C,0.254000*%
G04 #@! TD*
G04 APERTURE END LIST*
D10*
X154500000Y-48250000D03*
X239000000Y-85750000D03*
X154500000Y-85750000D03*
X239000000Y-48250000D03*
D11*
X173350000Y-75550000D03*
D12*
X239014000Y-77201400D03*
D13*
X239014000Y-72201400D03*
D14*
X200800000Y-48250000D03*
D15*
X198260000Y-48250000D03*
X195720000Y-48250000D03*
X193180000Y-48250000D03*
D14*
X187590000Y-52250000D03*
D15*
X185050000Y-52250000D03*
X182510000Y-52250000D03*
D14*
X232537000Y-74701400D03*
D15*
X232537000Y-72161400D03*
D14*
X187575000Y-48325000D03*
D15*
X185035000Y-48325000D03*
X182495000Y-48325000D03*
D16*
X157078000Y-72383000D03*
X157078000Y-81033000D03*
D17*
X152908000Y-72383000D03*
X152908000Y-81033000D03*
D18*
X234492800Y-95870300D03*
X234492800Y-98795300D03*
D19*
X239511300Y-92811600D03*
X236586300Y-92811600D03*
D20*
X189500000Y-60756800D03*
X192450000Y-60756800D03*
D21*
X197500000Y-95536000D03*
D22*
X197500000Y-99536000D03*
D21*
X195700000Y-99536000D03*
D22*
X195700000Y-95536000D03*
D21*
X156000000Y-95500000D03*
D22*
X156000000Y-99500000D03*
D21*
X154200000Y-99500000D03*
D22*
X154200000Y-95500000D03*
D20*
X181875000Y-60800000D03*
X184825000Y-60800000D03*
D19*
X156554900Y-93014800D03*
X153629900Y-93014800D03*
X198058500Y-92964000D03*
X195133500Y-92964000D03*
D18*
X151892000Y-96073500D03*
X151892000Y-98998500D03*
D20*
X160250000Y-76911200D03*
X163200000Y-76911200D03*
D18*
X193040000Y-96073500D03*
X193040000Y-98998500D03*
D20*
X181875000Y-63250000D03*
X184825000Y-63250000D03*
X160250000Y-74523600D03*
X163200000Y-74523600D03*
D21*
X239000000Y-95500000D03*
D22*
X239000000Y-99500000D03*
D21*
X237200000Y-99500000D03*
D22*
X237200000Y-95500000D03*
D23*
X152908000Y-78170500D03*
X152908000Y-75245500D03*
D20*
X189500000Y-63246000D03*
X192450000Y-63246000D03*
D24*
X230450000Y-51200000D03*
X231450000Y-49750000D03*
X229050000Y-49750000D03*
X226700000Y-49750000D03*
X229050000Y-47100000D03*
X227700000Y-51200000D03*
X227700000Y-48350000D03*
X226650000Y-52500000D03*
X226650000Y-47100000D03*
X231450000Y-52500000D03*
X231450000Y-47100000D03*
X229050000Y-52500000D03*
X230450000Y-48350000D03*
X215200000Y-51200000D03*
X217950000Y-51200000D03*
X217950000Y-48350000D03*
X215200000Y-48350000D03*
X216550000Y-49750000D03*
X216550000Y-52500000D03*
X216550000Y-47100000D03*
X218950000Y-49750000D03*
X214200000Y-49750000D03*
X214150000Y-52500000D03*
X218950000Y-52500000D03*
X218950000Y-47100000D03*
X214150000Y-47100000D03*
X151950000Y-90100000D03*
X199000000Y-71900000D03*
X199000000Y-84100000D03*
X199000000Y-77800000D03*
X166268400Y-66344800D03*
X165963600Y-73609200D03*
X165963600Y-78206600D03*
X173228000Y-57429400D03*
X160248600Y-90093800D03*
X173228000Y-51054000D03*
X178511200Y-57404000D03*
X187553600Y-61722000D03*
X165963600Y-75742800D03*
X162384000Y-71882000D03*
X180550000Y-49900000D03*
X166194000Y-71882000D03*
X169062400Y-81127600D03*
X164924000Y-71882000D03*
X161175700Y-49949100D03*
X206349600Y-65735200D03*
X180750000Y-63200000D03*
X194832800Y-67750000D03*
X159844000Y-71882000D03*
X160224600Y-83616800D03*
X156311600Y-76962000D03*
X158851600Y-74676000D03*
X163654000Y-71882000D03*
X202631600Y-71028000D03*
X193750000Y-82250000D03*
X199000000Y-82250000D03*
D25*
X189534800Y-58521600D03*
X228549200Y-63652400D03*
D24*
X199000000Y-75750000D03*
X193750000Y-75750000D03*
X197000000Y-72898000D03*
X170004000Y-71882000D03*
X171274000Y-71882000D03*
X196000000Y-71882000D03*
X177655000Y-63655000D03*
X182118000Y-67259200D03*
X167500000Y-50750000D03*
X179750000Y-67250000D03*
X179750884Y-68457916D03*
X166250000Y-50750000D03*
X165000000Y-50750000D03*
X179781200Y-69697600D03*
X167464000Y-71900000D03*
X178350500Y-74000000D03*
D26*
X171020000Y-72898000D02*
X170004000Y-71882000D01*
X197000000Y-72898000D02*
X171020000Y-72898000D01*
X171274000Y-71882000D02*
X196000000Y-71882000D01*
X164018000Y-49850000D02*
X162384000Y-51484000D01*
X180550000Y-49900000D02*
X180500000Y-49850000D01*
X180500000Y-49850000D02*
X164018000Y-49850000D01*
X162384000Y-51484000D02*
X162384000Y-71882000D01*
D27*
X182420000Y-48250000D02*
X162874800Y-48250000D01*
X182500000Y-65000000D02*
X182500000Y-48330000D01*
X182500000Y-48330000D02*
X182420000Y-48250000D01*
X162874800Y-48250000D02*
X161175700Y-49949100D01*
X182500000Y-63250000D02*
X182450000Y-63200000D01*
X182450000Y-63200000D02*
X180750000Y-63200000D01*
D26*
X239000000Y-95162400D02*
X239000000Y-95500000D01*
X239511300Y-94651100D02*
X239000000Y-95162400D01*
X239511300Y-92811600D02*
X239511300Y-94651100D01*
X169062400Y-81127600D02*
X167100000Y-79165200D01*
X193040000Y-98998500D02*
X195162500Y-98998500D01*
X195689000Y-99314000D02*
X195850000Y-99475000D01*
X167100000Y-79165200D02*
X167100000Y-72788000D01*
X167100000Y-72788000D02*
X166194000Y-71882000D01*
X195162500Y-98998500D02*
X195700000Y-99536000D01*
X153698500Y-98998500D02*
X151892000Y-98998500D01*
X154200000Y-99500000D02*
X153698500Y-98998500D01*
X164936400Y-71894400D02*
X164936400Y-88763600D01*
X164924000Y-71882000D02*
X164936400Y-71894400D01*
X164936400Y-88763600D02*
X154200000Y-99500000D01*
D27*
X160250000Y-86394700D02*
X151892000Y-94752700D01*
X197550500Y-90547000D02*
X232279000Y-90547000D01*
X160250000Y-86394700D02*
X160250000Y-71882000D01*
X193040000Y-96073500D02*
X193040000Y-95057500D01*
X193040000Y-95057500D02*
X195133500Y-92964000D01*
X209042000Y-72491600D02*
X204300400Y-67750000D01*
X160250000Y-50874800D02*
X161175700Y-49949100D01*
X160250000Y-71882000D02*
X160250000Y-50874800D01*
X209042000Y-90547000D02*
X209042000Y-72491600D01*
X195133500Y-92964000D02*
X197550500Y-90547000D01*
D28*
X159844000Y-71882000D02*
X160250000Y-71882000D01*
D27*
X204334800Y-67750000D02*
X204300400Y-67750000D01*
X234492800Y-95870300D02*
X234492800Y-92811600D01*
X234543600Y-92811600D02*
X236586300Y-92811600D01*
X151892000Y-94752700D02*
X151892000Y-96073500D01*
X194832800Y-67750000D02*
X185250000Y-67750000D01*
X185250000Y-67750000D02*
X182500000Y-65000000D01*
X206349600Y-65735200D02*
X204334800Y-67750000D01*
X232279000Y-90547000D02*
X234543600Y-92811600D01*
X204300400Y-67750000D02*
X194832800Y-67750000D01*
D26*
X194832800Y-67750000D02*
X195250000Y-67750000D01*
D27*
X182500000Y-65000000D02*
X182500000Y-63250000D01*
D29*
X239014000Y-72201400D02*
X232577000Y-72201400D01*
X232577000Y-72201400D02*
X232537000Y-72161400D01*
D30*
X158597600Y-74676000D02*
X156311600Y-76962000D01*
X158851600Y-74676000D02*
X158597600Y-74676000D01*
D26*
X236495300Y-98795300D02*
X237200000Y-99500000D01*
X234492800Y-98795300D02*
X236495300Y-98795300D01*
X164720800Y-70815200D02*
X163654000Y-71882000D01*
X202631600Y-71028000D02*
X202418800Y-70815200D01*
X202418800Y-70815200D02*
X164720800Y-70815200D01*
X152908000Y-80992000D02*
X152908000Y-78170500D01*
X199000000Y-82250000D02*
X193750000Y-82250000D01*
X198109300Y-92760800D02*
X198109300Y-94926700D01*
X198109300Y-94926700D02*
X197500000Y-95536000D01*
D31*
X197612000Y-95487000D02*
X197650000Y-95525000D01*
D26*
X197500000Y-95536000D02*
X197500000Y-95500000D01*
X156554900Y-93014800D02*
X156554900Y-94945100D01*
X156554900Y-94945100D02*
X156000000Y-95500000D01*
D29*
X223418400Y-58521600D02*
X228549200Y-63652400D01*
D32*
X189500000Y-58556400D02*
X189534800Y-58521600D01*
X189500000Y-60756800D02*
X189500000Y-63246000D01*
D29*
X189534800Y-58521600D02*
X223418400Y-58521600D01*
D32*
X189500000Y-60756800D02*
X189500000Y-58556400D01*
D26*
X193750000Y-75750000D02*
X199000000Y-75750000D01*
D33*
X181259200Y-67259200D02*
X177655000Y-63655000D01*
X182118000Y-67259200D02*
X181259200Y-67259200D01*
D26*
X167500000Y-55000000D02*
X179750000Y-67250000D01*
X167500000Y-50750000D02*
X167500000Y-55000000D01*
X179750884Y-68457916D02*
X166250000Y-54957032D01*
X166250000Y-54957032D02*
X166250000Y-50750000D01*
X179781200Y-69697600D02*
X165000000Y-54916400D01*
X165000000Y-54916400D02*
X165000000Y-50750000D01*
X167464000Y-71944968D02*
X169519032Y-74000000D01*
X167464000Y-71900000D02*
X167464000Y-71944968D01*
X169519032Y-74000000D02*
X178350500Y-74000000D01*
G04 #@! TA.AperFunction,Conductor*
G36*
X238239403Y-44770185D02*
G01*
X238285158Y-44822989D01*
X238295102Y-44892147D01*
X238266077Y-44955703D01*
X238207299Y-44993477D01*
X238199020Y-44995601D01*
X238102330Y-45016883D01*
X237872363Y-45094369D01*
X237758031Y-45132892D01*
X237758028Y-45132893D01*
X237758020Y-45132896D01*
X237428300Y-45285440D01*
X237428296Y-45285442D01*
X237196453Y-45424937D01*
X237116981Y-45472755D01*
X237052121Y-45522060D01*
X236827755Y-45692617D01*
X236827745Y-45692625D01*
X236563978Y-45942479D01*
X236328772Y-46219386D01*
X236124884Y-46520098D01*
X236124878Y-46520107D01*
X235954706Y-46841086D01*
X235954700Y-46841098D01*
X235820226Y-47178603D01*
X235820221Y-47178618D01*
X235723030Y-47528670D01*
X235723024Y-47528696D01*
X235664250Y-47887200D01*
X235664248Y-47887217D01*
X235644579Y-48249997D01*
X235644579Y-48250002D01*
X235664248Y-48612782D01*
X235664250Y-48612799D01*
X235723024Y-48971303D01*
X235723030Y-48971329D01*
X235820221Y-49321381D01*
X235820226Y-49321396D01*
X235954700Y-49658901D01*
X235954706Y-49658913D01*
X236124878Y-49979892D01*
X236124881Y-49979897D01*
X236124883Y-49979900D01*
X236226828Y-50130257D01*
X236328772Y-50280613D01*
X236550941Y-50542171D01*
X236563979Y-50557521D01*
X236827746Y-50807375D01*
X237116981Y-51027245D01*
X237428292Y-51214555D01*
X237428294Y-51214556D01*
X237428296Y-51214557D01*
X237428300Y-51214559D01*
X237700698Y-51340583D01*
X237758031Y-51367108D01*
X238102330Y-51483116D01*
X238457153Y-51561218D01*
X238818341Y-51600500D01*
X238818347Y-51600500D01*
X239181653Y-51600500D01*
X239181659Y-51600500D01*
X239542847Y-51561218D01*
X239897670Y-51483116D01*
X240241969Y-51367108D01*
X240571708Y-51214555D01*
X240883019Y-51027245D01*
X241172254Y-50807375D01*
X241436021Y-50557521D01*
X241671227Y-50280614D01*
X241875117Y-49979900D01*
X242045298Y-49658905D01*
X242179775Y-49321391D01*
X242191057Y-49280758D01*
X242256020Y-49046783D01*
X242292922Y-48987453D01*
X242356042Y-48957492D01*
X242425340Y-48966413D01*
X242478814Y-49011383D01*
X242499486Y-49078124D01*
X242499500Y-49079956D01*
X242499500Y-84920043D01*
X242479815Y-84987082D01*
X242427011Y-85032837D01*
X242357853Y-85042781D01*
X242294297Y-85013756D01*
X242256523Y-84954978D01*
X242256020Y-84953217D01*
X242179776Y-84678614D01*
X242179773Y-84678603D01*
X242045299Y-84341098D01*
X242045298Y-84341095D01*
X241875117Y-84020100D01*
X241671227Y-83719386D01*
X241436021Y-83442479D01*
X241172254Y-83192625D01*
X241172244Y-83192617D01*
X241065067Y-83111144D01*
X240883019Y-82972755D01*
X240571708Y-82785445D01*
X240571707Y-82785444D01*
X240571703Y-82785442D01*
X240571699Y-82785440D01*
X240241979Y-82632896D01*
X240241974Y-82632894D01*
X240241969Y-82632892D01*
X240074143Y-82576344D01*
X239897669Y-82516883D01*
X239542845Y-82438781D01*
X239181660Y-82399500D01*
X239181659Y-82399500D01*
X238818341Y-82399500D01*
X238818339Y-82399500D01*
X238457154Y-82438781D01*
X238102330Y-82516883D01*
X237836178Y-82606560D01*
X237758031Y-82632892D01*
X237758028Y-82632893D01*
X237758020Y-82632896D01*
X237428300Y-82785440D01*
X237428296Y-82785442D01*
X237199860Y-82922888D01*
X237116981Y-82972755D01*
X237036220Y-83034148D01*
X236827755Y-83192617D01*
X236827745Y-83192625D01*
X236563978Y-83442479D01*
X236328772Y-83719386D01*
X236124884Y-84020098D01*
X236124878Y-84020107D01*
X235954706Y-84341086D01*
X235954700Y-84341098D01*
X235820226Y-84678603D01*
X235820221Y-84678618D01*
X235723030Y-85028670D01*
X235723024Y-85028696D01*
X235664250Y-85387200D01*
X235664248Y-85387217D01*
X235644579Y-85749997D01*
X235644579Y-85750002D01*
X235664248Y-86112782D01*
X235664250Y-86112799D01*
X235723024Y-86471303D01*
X235723030Y-86471329D01*
X235820221Y-86821381D01*
X235820226Y-86821396D01*
X235954700Y-87158901D01*
X235954706Y-87158913D01*
X236124878Y-87479892D01*
X236124884Y-87479901D01*
X236311451Y-87755067D01*
X236328773Y-87780614D01*
X236563979Y-88057521D01*
X236827746Y-88307375D01*
X237116981Y-88527245D01*
X237428292Y-88714555D01*
X237428294Y-88714556D01*
X237428296Y-88714557D01*
X237428300Y-88714559D01*
X237692966Y-88837006D01*
X237758031Y-88867108D01*
X238102330Y-88983116D01*
X238457153Y-89061218D01*
X238818341Y-89100500D01*
X238818347Y-89100500D01*
X239181653Y-89100500D01*
X239181659Y-89100500D01*
X239542847Y-89061218D01*
X239897670Y-88983116D01*
X240241969Y-88867108D01*
X240571708Y-88714555D01*
X240883019Y-88527245D01*
X241172254Y-88307375D01*
X241436021Y-88057521D01*
X241671227Y-87780614D01*
X241875117Y-87479900D01*
X242045298Y-87158905D01*
X242179775Y-86821391D01*
X242194669Y-86767749D01*
X242256020Y-86546783D01*
X242292922Y-86487453D01*
X242356042Y-86457492D01*
X242425340Y-86466413D01*
X242478814Y-86511383D01*
X242499486Y-86578124D01*
X242499500Y-86579956D01*
X242499500Y-99996951D01*
X242499201Y-100003032D01*
X242486296Y-100134064D01*
X242481554Y-100157906D01*
X242445993Y-100275134D01*
X242436690Y-100297592D01*
X242378942Y-100405630D01*
X242365438Y-100425840D01*
X242287725Y-100520535D01*
X242270535Y-100537725D01*
X242175840Y-100615438D01*
X242155630Y-100628942D01*
X242047592Y-100686690D01*
X242025134Y-100695993D01*
X241907906Y-100731554D01*
X241884064Y-100736296D01*
X241753033Y-100749201D01*
X241746952Y-100749500D01*
X238146585Y-100749500D01*
X238079546Y-100729815D01*
X238033791Y-100677011D01*
X238023847Y-100607853D01*
X238052872Y-100544297D01*
X238058904Y-100537819D01*
X238066746Y-100529977D01*
X238085147Y-100511576D01*
X238178122Y-100363606D01*
X238235841Y-100198657D01*
X238250500Y-100068552D01*
X238250500Y-98931448D01*
X238235841Y-98801343D01*
X238178122Y-98636394D01*
X238085147Y-98488424D01*
X237961576Y-98364853D01*
X237813606Y-98271878D01*
X237813605Y-98271877D01*
X237813604Y-98271877D01*
X237648658Y-98214159D01*
X237648648Y-98214157D01*
X237518558Y-98199500D01*
X237518552Y-98199500D01*
X237004180Y-98199500D01*
X236937141Y-98179815D01*
X236924476Y-98170491D01*
X236912726Y-98160632D01*
X236906694Y-98156665D01*
X236906722Y-98156621D01*
X236900261Y-98152504D01*
X236900234Y-98152550D01*
X236894090Y-98148760D01*
X236824108Y-98116127D01*
X236755115Y-98081477D01*
X236748331Y-98079008D01*
X236748349Y-98078958D01*
X236741107Y-98076441D01*
X236741091Y-98076491D01*
X236734238Y-98074220D01*
X236658611Y-98058604D01*
X236583481Y-98040798D01*
X236576314Y-98039961D01*
X236576320Y-98039907D01*
X236568705Y-98039129D01*
X236568701Y-98039183D01*
X236561510Y-98038553D01*
X236484318Y-98040800D01*
X235788530Y-98040800D01*
X235721491Y-98021115D01*
X235700849Y-98004481D01*
X235586457Y-97890089D01*
X235586456Y-97890088D01*
X235437134Y-97797986D01*
X235270597Y-97742801D01*
X235270595Y-97742800D01*
X235167810Y-97732300D01*
X233817798Y-97732300D01*
X233817781Y-97732301D01*
X233715003Y-97742800D01*
X233715000Y-97742801D01*
X233548468Y-97797985D01*
X233548463Y-97797987D01*
X233399142Y-97890089D01*
X233275089Y-98014142D01*
X233182987Y-98163463D01*
X233182985Y-98163468D01*
X233155149Y-98247470D01*
X233127801Y-98330003D01*
X233127801Y-98330004D01*
X233127800Y-98330004D01*
X233117300Y-98432783D01*
X233117300Y-99157801D01*
X233117301Y-99157819D01*
X233127800Y-99260596D01*
X233127801Y-99260599D01*
X233182985Y-99427131D01*
X233182986Y-99427134D01*
X233275088Y-99576456D01*
X233399144Y-99700512D01*
X233548466Y-99792614D01*
X233715003Y-99847799D01*
X233817791Y-99858300D01*
X235167808Y-99858299D01*
X235270597Y-99847799D01*
X235437134Y-99792614D01*
X235586456Y-99700512D01*
X235700849Y-99586119D01*
X235762172Y-99552634D01*
X235788530Y-99549800D01*
X236025500Y-99549800D01*
X236092539Y-99569485D01*
X236138294Y-99622289D01*
X236149500Y-99673800D01*
X236149500Y-100068558D01*
X236164157Y-100198648D01*
X236164159Y-100198658D01*
X236198778Y-100297592D01*
X236221878Y-100363606D01*
X236260982Y-100425840D01*
X236314853Y-100511576D01*
X236341096Y-100537819D01*
X236374581Y-100599142D01*
X236369597Y-100668834D01*
X236327725Y-100724767D01*
X236262261Y-100749184D01*
X236253415Y-100749500D01*
X196681606Y-100749500D01*
X196614567Y-100729815D01*
X196568812Y-100677011D01*
X196558868Y-100607853D01*
X196582176Y-100553933D01*
X196581442Y-100553472D01*
X196584436Y-100548706D01*
X196584663Y-100548182D01*
X196585135Y-100547587D01*
X196585147Y-100547576D01*
X196678122Y-100399606D01*
X196735841Y-100234657D01*
X196750500Y-100104552D01*
X196750500Y-98967448D01*
X196735841Y-98837343D01*
X196678122Y-98672394D01*
X196585147Y-98524424D01*
X196461576Y-98400853D01*
X196313606Y-98307878D01*
X196313605Y-98307877D01*
X196313604Y-98307877D01*
X196148658Y-98250159D01*
X196148648Y-98250157D01*
X196018558Y-98235500D01*
X196018552Y-98235500D01*
X195381448Y-98235500D01*
X195381439Y-98235500D01*
X195289972Y-98245805D01*
X195257969Y-98243878D01*
X195257857Y-98244838D01*
X195243512Y-98243161D01*
X195243518Y-98243107D01*
X195235905Y-98242329D01*
X195235901Y-98242383D01*
X195228710Y-98241753D01*
X195151518Y-98244000D01*
X194335730Y-98244000D01*
X194268691Y-98224315D01*
X194248049Y-98207681D01*
X194133657Y-98093289D01*
X194133656Y-98093288D01*
X194016644Y-98021115D01*
X193984336Y-98001187D01*
X193984331Y-98001185D01*
X193931498Y-97983678D01*
X193817797Y-97946001D01*
X193817795Y-97946000D01*
X193715010Y-97935500D01*
X192364998Y-97935500D01*
X192364981Y-97935501D01*
X192262203Y-97946000D01*
X192262200Y-97946001D01*
X192095668Y-98001185D01*
X192095663Y-98001187D01*
X191946342Y-98093289D01*
X191822289Y-98217342D01*
X191730187Y-98366663D01*
X191730185Y-98366668D01*
X191708277Y-98432783D01*
X191675001Y-98533203D01*
X191675001Y-98533204D01*
X191675000Y-98533204D01*
X191664500Y-98635983D01*
X191664500Y-99361001D01*
X191664501Y-99361019D01*
X191675000Y-99463796D01*
X191675001Y-99463799D01*
X191727520Y-99622289D01*
X191730186Y-99630334D01*
X191822288Y-99779656D01*
X191946344Y-99903712D01*
X192095666Y-99995814D01*
X192262203Y-100050999D01*
X192364991Y-100061500D01*
X193715008Y-100061499D01*
X193817797Y-100050999D01*
X193984334Y-99995814D01*
X194133656Y-99903712D01*
X194248049Y-99789319D01*
X194309372Y-99755834D01*
X194335730Y-99753000D01*
X194525500Y-99753000D01*
X194592539Y-99772685D01*
X194638294Y-99825489D01*
X194649500Y-99877000D01*
X194649500Y-100104558D01*
X194664157Y-100234648D01*
X194664159Y-100234658D01*
X194686181Y-100297592D01*
X194721878Y-100399606D01*
X194814853Y-100547576D01*
X194814859Y-100547582D01*
X194815337Y-100548182D01*
X194815527Y-100548649D01*
X194818558Y-100553472D01*
X194817713Y-100554002D01*
X194841749Y-100612868D01*
X194828996Y-100681564D01*
X194781128Y-100732460D01*
X194718394Y-100749500D01*
X155146585Y-100749500D01*
X155079546Y-100729815D01*
X155033791Y-100677011D01*
X155023847Y-100607853D01*
X155052872Y-100544297D01*
X155058904Y-100537819D01*
X155066746Y-100529977D01*
X155085147Y-100511576D01*
X155178122Y-100363606D01*
X155235841Y-100198657D01*
X155250500Y-100068552D01*
X155250500Y-99567885D01*
X155270185Y-99500846D01*
X155286814Y-99480209D01*
X165424664Y-89342358D01*
X165438283Y-89330588D01*
X165457694Y-89316139D01*
X165491475Y-89275879D01*
X165495109Y-89271913D01*
X165500983Y-89266041D01*
X165521426Y-89240185D01*
X165571067Y-89181027D01*
X165571071Y-89181018D01*
X165575037Y-89174991D01*
X165575083Y-89175021D01*
X165579195Y-89168566D01*
X165579147Y-89168537D01*
X165582932Y-89162399D01*
X165582938Y-89162392D01*
X165615568Y-89092416D01*
X165650224Y-89023411D01*
X165650225Y-89023403D01*
X165652694Y-89016623D01*
X165652746Y-89016642D01*
X165655259Y-89009415D01*
X165655206Y-89009398D01*
X165657474Y-89002549D01*
X165657479Y-89002540D01*
X165666897Y-88956923D01*
X165673093Y-88926921D01*
X165690900Y-88851787D01*
X165691739Y-88844615D01*
X165691791Y-88844621D01*
X165692569Y-88837006D01*
X165692516Y-88837002D01*
X165693145Y-88829811D01*
X165690900Y-88752653D01*
X165690900Y-82250000D01*
X192844540Y-82250000D01*
X192864326Y-82438256D01*
X192864327Y-82438259D01*
X192922818Y-82618277D01*
X192922821Y-82618284D01*
X193017467Y-82782216D01*
X193144129Y-82922888D01*
X193297265Y-83034148D01*
X193297270Y-83034151D01*
X193470192Y-83111142D01*
X193470197Y-83111144D01*
X193655354Y-83150500D01*
X193655355Y-83150500D01*
X193844644Y-83150500D01*
X193844646Y-83150500D01*
X194029803Y-83111144D01*
X194202730Y-83034151D01*
X194210944Y-83028182D01*
X194276750Y-83004702D01*
X194283831Y-83004500D01*
X198466169Y-83004500D01*
X198533208Y-83024185D01*
X198539056Y-83028183D01*
X198547269Y-83034150D01*
X198547270Y-83034151D01*
X198720192Y-83111142D01*
X198720197Y-83111144D01*
X198905354Y-83150500D01*
X198905355Y-83150500D01*
X199094644Y-83150500D01*
X199094646Y-83150500D01*
X199279803Y-83111144D01*
X199452730Y-83034151D01*
X199605871Y-82922888D01*
X199732533Y-82782216D01*
X199827179Y-82618284D01*
X199885674Y-82438256D01*
X199905460Y-82250000D01*
X199885674Y-82061744D01*
X199827179Y-81881716D01*
X199732533Y-81717784D01*
X199605871Y-81577112D01*
X199605870Y-81577111D01*
X199452734Y-81465851D01*
X199452729Y-81465848D01*
X199279807Y-81388857D01*
X199279802Y-81388855D01*
X199134001Y-81357865D01*
X199094646Y-81349500D01*
X198905354Y-81349500D01*
X198872897Y-81356398D01*
X198720197Y-81388855D01*
X198720192Y-81388857D01*
X198547270Y-81465848D01*
X198547269Y-81465849D01*
X198539056Y-81471817D01*
X198473250Y-81495298D01*
X198466169Y-81495500D01*
X194283831Y-81495500D01*
X194216792Y-81475815D01*
X194210944Y-81471817D01*
X194202730Y-81465849D01*
X194202729Y-81465848D01*
X194029807Y-81388857D01*
X194029802Y-81388855D01*
X193884001Y-81357865D01*
X193844646Y-81349500D01*
X193655354Y-81349500D01*
X193622897Y-81356398D01*
X193470197Y-81388855D01*
X193470192Y-81388857D01*
X193297270Y-81465848D01*
X193297265Y-81465851D01*
X193144129Y-81577111D01*
X193017466Y-81717785D01*
X192922821Y-81881715D01*
X192922818Y-81881722D01*
X192864327Y-82061740D01*
X192864326Y-82061744D01*
X192844540Y-82250000D01*
X165690900Y-82250000D01*
X165690900Y-72834668D01*
X165710585Y-72767629D01*
X165763389Y-72721874D01*
X165832547Y-72711930D01*
X165865329Y-72721386D01*
X165914197Y-72743144D01*
X165972148Y-72755461D01*
X166033627Y-72788653D01*
X166034046Y-72789070D01*
X166309181Y-73064205D01*
X166342666Y-73125528D01*
X166345500Y-73151886D01*
X166345500Y-79101200D01*
X166344191Y-79119169D01*
X166340684Y-79143108D01*
X166345264Y-79195441D01*
X166345500Y-79200848D01*
X166345500Y-79209146D01*
X166349325Y-79241874D01*
X166356056Y-79318810D01*
X166357516Y-79325877D01*
X166357464Y-79325887D01*
X166359123Y-79333367D01*
X166359174Y-79333355D01*
X166360839Y-79340380D01*
X166360839Y-79340382D01*
X166360840Y-79340384D01*
X166375522Y-79380725D01*
X166387247Y-79412940D01*
X166411535Y-79486234D01*
X166414586Y-79492775D01*
X166414536Y-79492798D01*
X166417876Y-79499697D01*
X166417925Y-79499673D01*
X166421165Y-79506125D01*
X166463599Y-79570644D01*
X166504131Y-79636356D01*
X166508611Y-79642022D01*
X166508569Y-79642055D01*
X166513401Y-79647986D01*
X166513443Y-79647952D01*
X166518081Y-79653480D01*
X166518085Y-79653485D01*
X166546166Y-79679978D01*
X166574247Y-79706472D01*
X168152351Y-81284575D01*
X168182601Y-81333938D01*
X168235218Y-81495877D01*
X168235221Y-81495884D01*
X168329867Y-81659816D01*
X168382062Y-81717784D01*
X168456529Y-81800488D01*
X168609665Y-81911748D01*
X168609670Y-81911751D01*
X168782592Y-81988742D01*
X168782597Y-81988744D01*
X168967754Y-82028100D01*
X168967755Y-82028100D01*
X169157044Y-82028100D01*
X169157046Y-82028100D01*
X169342203Y-81988744D01*
X169515130Y-81911751D01*
X169668271Y-81800488D01*
X169794933Y-81659816D01*
X169889579Y-81495884D01*
X169948074Y-81315856D01*
X169967860Y-81127600D01*
X169948074Y-80939344D01*
X169889579Y-80759316D01*
X169794933Y-80595384D01*
X169668271Y-80454712D01*
X169668270Y-80454711D01*
X169515134Y-80343451D01*
X169515129Y-80343448D01*
X169342207Y-80266457D01*
X169342203Y-80266456D01*
X169284253Y-80254138D01*
X169222772Y-80220945D01*
X169222354Y-80220529D01*
X167890819Y-78888994D01*
X167857334Y-78827671D01*
X167854500Y-78801313D01*
X167854500Y-73701854D01*
X167874185Y-73634815D01*
X167926989Y-73589060D01*
X167996147Y-73579116D01*
X168059703Y-73608141D01*
X168066181Y-73614173D01*
X168940266Y-74488258D01*
X168952047Y-74501890D01*
X168966493Y-74521294D01*
X169006747Y-74555071D01*
X169010719Y-74558711D01*
X169016591Y-74564583D01*
X169042447Y-74585027D01*
X169101604Y-74634667D01*
X169107641Y-74638637D01*
X169107611Y-74638682D01*
X169114070Y-74642796D01*
X169114099Y-74642750D01*
X169120238Y-74646537D01*
X169120241Y-74646539D01*
X169190223Y-74679172D01*
X169259221Y-74713824D01*
X169259226Y-74713825D01*
X169266011Y-74716295D01*
X169265992Y-74716347D01*
X169273217Y-74718858D01*
X169273235Y-74718807D01*
X169280094Y-74721080D01*
X169312251Y-74727719D01*
X169355721Y-74736695D01*
X169430844Y-74754500D01*
X169430847Y-74754500D01*
X169438018Y-74755339D01*
X169438011Y-74755392D01*
X169445626Y-74756170D01*
X169445631Y-74756117D01*
X169452821Y-74756746D01*
X169452825Y-74756745D01*
X169452826Y-74756746D01*
X169530014Y-74754500D01*
X171932158Y-74754500D01*
X171999197Y-74774185D01*
X172044952Y-74826989D01*
X172055516Y-74891102D01*
X172049500Y-74949981D01*
X172049500Y-76150001D01*
X172049501Y-76150018D01*
X172060000Y-76252796D01*
X172060001Y-76252799D01*
X172115185Y-76419331D01*
X172115187Y-76419336D01*
X172121632Y-76429785D01*
X172207288Y-76568656D01*
X172331344Y-76692712D01*
X172480666Y-76784814D01*
X172647203Y-76839999D01*
X172749991Y-76850500D01*
X173950008Y-76850499D01*
X174052797Y-76839999D01*
X174219334Y-76784814D01*
X174368656Y-76692712D01*
X174492712Y-76568656D01*
X174584814Y-76419334D01*
X174639999Y-76252797D01*
X174650500Y-76150009D01*
X174650500Y-75750000D01*
X192844540Y-75750000D01*
X192864326Y-75938256D01*
X192864327Y-75938259D01*
X192922818Y-76118277D01*
X192922821Y-76118284D01*
X193017467Y-76282216D01*
X193140926Y-76419331D01*
X193144129Y-76422888D01*
X193297265Y-76534148D01*
X193297270Y-76534151D01*
X193470192Y-76611142D01*
X193470197Y-76611144D01*
X193655354Y-76650500D01*
X193655355Y-76650500D01*
X193844644Y-76650500D01*
X193844646Y-76650500D01*
X194029803Y-76611144D01*
X194202730Y-76534151D01*
X194210944Y-76528182D01*
X194276750Y-76504702D01*
X194283831Y-76504500D01*
X198466169Y-76504500D01*
X198533208Y-76524185D01*
X198539056Y-76528183D01*
X198547269Y-76534150D01*
X198547270Y-76534151D01*
X198720192Y-76611142D01*
X198720197Y-76611144D01*
X198905354Y-76650500D01*
X198905355Y-76650500D01*
X199094644Y-76650500D01*
X199094646Y-76650500D01*
X199279803Y-76611144D01*
X199452730Y-76534151D01*
X199605871Y-76422888D01*
X199732533Y-76282216D01*
X199827179Y-76118284D01*
X199885674Y-75938256D01*
X199905460Y-75750000D01*
X199885674Y-75561744D01*
X199827179Y-75381716D01*
X199732533Y-75217784D01*
X199605871Y-75077112D01*
X199605870Y-75077111D01*
X199452734Y-74965851D01*
X199452729Y-74965848D01*
X199279807Y-74888857D01*
X199279802Y-74888855D01*
X199134001Y-74857865D01*
X199094646Y-74849500D01*
X198905354Y-74849500D01*
X198872897Y-74856398D01*
X198720197Y-74888855D01*
X198720192Y-74888857D01*
X198547270Y-74965848D01*
X198547269Y-74965849D01*
X198539056Y-74971817D01*
X198473250Y-74995298D01*
X198466169Y-74995500D01*
X194283831Y-74995500D01*
X194216792Y-74975815D01*
X194210944Y-74971817D01*
X194202730Y-74965849D01*
X194202729Y-74965848D01*
X194029807Y-74888857D01*
X194029802Y-74888855D01*
X193884001Y-74857865D01*
X193844646Y-74849500D01*
X193655354Y-74849500D01*
X193622897Y-74856398D01*
X193470197Y-74888855D01*
X193470192Y-74888857D01*
X193297270Y-74965848D01*
X193297265Y-74965851D01*
X193144129Y-75077111D01*
X193017466Y-75217785D01*
X192922821Y-75381715D01*
X192922818Y-75381722D01*
X192867500Y-75551974D01*
X192864326Y-75561744D01*
X192844540Y-75750000D01*
X174650500Y-75750000D01*
X174650499Y-74949992D01*
X174644483Y-74891100D01*
X174657252Y-74822409D01*
X174705133Y-74771525D01*
X174767841Y-74754500D01*
X177816669Y-74754500D01*
X177883708Y-74774185D01*
X177889556Y-74778183D01*
X177897769Y-74784150D01*
X177897770Y-74784151D01*
X178070692Y-74861142D01*
X178070697Y-74861144D01*
X178255854Y-74900500D01*
X178255855Y-74900500D01*
X178445144Y-74900500D01*
X178445146Y-74900500D01*
X178630303Y-74861144D01*
X178803230Y-74784151D01*
X178956371Y-74672888D01*
X179083033Y-74532216D01*
X179177679Y-74368284D01*
X179236174Y-74188256D01*
X179255960Y-74000000D01*
X179236174Y-73811744D01*
X179236171Y-73811737D01*
X179234822Y-73805383D01*
X179236889Y-73804943D01*
X179235180Y-73744970D01*
X179271264Y-73685139D01*
X179333966Y-73654315D01*
X179355104Y-73652500D01*
X196466169Y-73652500D01*
X196533208Y-73672185D01*
X196539056Y-73676183D01*
X196547269Y-73682150D01*
X196547270Y-73682151D01*
X196720192Y-73759142D01*
X196720197Y-73759144D01*
X196905354Y-73798500D01*
X196905355Y-73798500D01*
X197094644Y-73798500D01*
X197094646Y-73798500D01*
X197279803Y-73759144D01*
X197452730Y-73682151D01*
X197605871Y-73570888D01*
X197732533Y-73430216D01*
X197827179Y-73266284D01*
X197885674Y-73086256D01*
X197905460Y-72898000D01*
X197885674Y-72709744D01*
X197827179Y-72529716D01*
X197732533Y-72365784D01*
X197605871Y-72225112D01*
X197591880Y-72214947D01*
X197452734Y-72113851D01*
X197452729Y-72113848D01*
X197279807Y-72036857D01*
X197279802Y-72036855D01*
X197106953Y-72000116D01*
X197094646Y-71997500D01*
X197029250Y-71997500D01*
X196962211Y-71977815D01*
X196916456Y-71925011D01*
X196905929Y-71886462D01*
X196902736Y-71856081D01*
X196887031Y-71706659D01*
X196899600Y-71637932D01*
X196947332Y-71586908D01*
X197010352Y-71569700D01*
X201852397Y-71569700D01*
X201919436Y-71589385D01*
X201944546Y-71610727D01*
X202025728Y-71700887D01*
X202025735Y-71700893D01*
X202178865Y-71812148D01*
X202178870Y-71812151D01*
X202351792Y-71889142D01*
X202351797Y-71889144D01*
X202536954Y-71928500D01*
X202536955Y-71928500D01*
X202726244Y-71928500D01*
X202726246Y-71928500D01*
X202911403Y-71889144D01*
X203084330Y-71812151D01*
X203237471Y-71700888D01*
X203364133Y-71560216D01*
X203458779Y-71396284D01*
X203517274Y-71216256D01*
X203537060Y-71028000D01*
X203517274Y-70839744D01*
X203458779Y-70659716D01*
X203364133Y-70495784D01*
X203237471Y-70355112D01*
X203147091Y-70289447D01*
X203084334Y-70243851D01*
X203084329Y-70243848D01*
X202911407Y-70166857D01*
X202911402Y-70166855D01*
X202749452Y-70132432D01*
X202719586Y-70121954D01*
X202678611Y-70101376D01*
X202678609Y-70101375D01*
X202678604Y-70101373D01*
X202671823Y-70098905D01*
X202671840Y-70098855D01*
X202664607Y-70096341D01*
X202664591Y-70096391D01*
X202657738Y-70094120D01*
X202582111Y-70078504D01*
X202506981Y-70060698D01*
X202499814Y-70059861D01*
X202499820Y-70059807D01*
X202492205Y-70059029D01*
X202492201Y-70059083D01*
X202485010Y-70058453D01*
X202407818Y-70060700D01*
X180780735Y-70060700D01*
X180713696Y-70041015D01*
X180667941Y-69988211D01*
X180657997Y-69919053D01*
X180662804Y-69898382D01*
X180666874Y-69885856D01*
X180686660Y-69697600D01*
X180666874Y-69509344D01*
X180608379Y-69329316D01*
X180513733Y-69165384D01*
X180501623Y-69151935D01*
X180493676Y-69143108D01*
X180463447Y-69080116D01*
X180472073Y-69010781D01*
X180480532Y-68995970D01*
X180480168Y-68995760D01*
X180503955Y-68954558D01*
X180578063Y-68826200D01*
X180636558Y-68646172D01*
X180656344Y-68457916D01*
X180636558Y-68269660D01*
X180578063Y-68089632D01*
X180483417Y-67925700D01*
X180480168Y-67920072D01*
X180481362Y-67919382D01*
X180460326Y-67860437D01*
X180476146Y-67792382D01*
X180481238Y-67784460D01*
X180552632Y-67660801D01*
X180603198Y-67612585D01*
X180671805Y-67599361D01*
X180736670Y-67625329D01*
X180747700Y-67635119D01*
X180756824Y-67644243D01*
X180766671Y-67656533D01*
X180766889Y-67656354D01*
X180771857Y-67662360D01*
X180822457Y-67709877D01*
X180836447Y-67723866D01*
X180843405Y-67730824D01*
X180848906Y-67735091D01*
X180853345Y-67738882D01*
X180887433Y-67770893D01*
X180905084Y-67780596D01*
X180921334Y-67791271D01*
X180924282Y-67793558D01*
X180937238Y-67803608D01*
X180937241Y-67803610D01*
X180980142Y-67822174D01*
X180985390Y-67824744D01*
X181026366Y-67847272D01*
X181045440Y-67852169D01*
X181045860Y-67852277D01*
X181064264Y-67858577D01*
X181082742Y-67866574D01*
X181126238Y-67873462D01*
X181128924Y-67873888D01*
X181134629Y-67875069D01*
X181179928Y-67886700D01*
X181200058Y-67886700D01*
X181219457Y-67888227D01*
X181239333Y-67891375D01*
X181281979Y-67887343D01*
X181285879Y-67886975D01*
X181291717Y-67886700D01*
X181416053Y-67886700D01*
X181483092Y-67906385D01*
X181508199Y-67927723D01*
X181512129Y-67932088D01*
X181512132Y-67932091D01*
X181512135Y-67932093D01*
X181665265Y-68043348D01*
X181665270Y-68043351D01*
X181838192Y-68120342D01*
X181838197Y-68120344D01*
X182023354Y-68159700D01*
X182023355Y-68159700D01*
X182212644Y-68159700D01*
X182212646Y-68159700D01*
X182397803Y-68120344D01*
X182570730Y-68043351D01*
X182723871Y-67932088D01*
X182850533Y-67791416D01*
X182945179Y-67627484D01*
X183003674Y-67447456D01*
X183023460Y-67259200D01*
X183022382Y-67248946D01*
X183034951Y-67180218D01*
X183082683Y-67129194D01*
X183150423Y-67112076D01*
X183216665Y-67134298D01*
X183233384Y-67148305D01*
X184533566Y-68448487D01*
X184594941Y-68513053D01*
X184594944Y-68513055D01*
X184594947Y-68513058D01*
X184625877Y-68534584D01*
X184645295Y-68548100D01*
X184649050Y-68550932D01*
X184696593Y-68589698D01*
X184727045Y-68605604D01*
X184733756Y-68609671D01*
X184761951Y-68629295D01*
X184818332Y-68653490D01*
X184822567Y-68655501D01*
X184876951Y-68683909D01*
X184909973Y-68693356D01*
X184917365Y-68695989D01*
X184948940Y-68709539D01*
X184948941Y-68709540D01*
X184962054Y-68712234D01*
X185009055Y-68721892D01*
X185013595Y-68723006D01*
X185072582Y-68739886D01*
X185106841Y-68742494D01*
X185114609Y-68743585D01*
X185148255Y-68750500D01*
X185148259Y-68750500D01*
X185209601Y-68750500D01*
X185214308Y-68750678D01*
X185250651Y-68753446D01*
X185275475Y-68755337D01*
X185275475Y-68755336D01*
X185275476Y-68755337D01*
X185309559Y-68750996D01*
X185317389Y-68750500D01*
X194731059Y-68750500D01*
X203834617Y-68750500D01*
X203901656Y-68770185D01*
X203922298Y-68786819D01*
X208005181Y-72869701D01*
X208038666Y-72931024D01*
X208041500Y-72957382D01*
X208041500Y-89422500D01*
X208021815Y-89489539D01*
X207969011Y-89535294D01*
X207917500Y-89546500D01*
X197563177Y-89546500D01*
X197474137Y-89544244D01*
X197474126Y-89544245D01*
X197413771Y-89555062D01*
X197409107Y-89555716D01*
X197348063Y-89561925D01*
X197348055Y-89561927D01*
X197315281Y-89572210D01*
X197307653Y-89574082D01*
X197273849Y-89580141D01*
X197216881Y-89602895D01*
X197212445Y-89604474D01*
X197153914Y-89622840D01*
X197153910Y-89622842D01*
X197123878Y-89639510D01*
X197116784Y-89642879D01*
X197084882Y-89655623D01*
X197084877Y-89655625D01*
X197033656Y-89689381D01*
X197029628Y-89691822D01*
X196976001Y-89721588D01*
X196949934Y-89743965D01*
X196943665Y-89748692D01*
X196914984Y-89767595D01*
X196914978Y-89767600D01*
X196871609Y-89810968D01*
X196868155Y-89814169D01*
X196821602Y-89854136D01*
X196800576Y-89881298D01*
X196795385Y-89887192D01*
X195130397Y-91552181D01*
X195069074Y-91585666D01*
X195042716Y-91588500D01*
X194770999Y-91588500D01*
X194770980Y-91588501D01*
X194668203Y-91599000D01*
X194668200Y-91599001D01*
X194501668Y-91654185D01*
X194501663Y-91654187D01*
X194352342Y-91746289D01*
X194228289Y-91870342D01*
X194136187Y-92019663D01*
X194136185Y-92019668D01*
X194119352Y-92070468D01*
X194081001Y-92186203D01*
X194081001Y-92186204D01*
X194081000Y-92186204D01*
X194070500Y-92288983D01*
X194070500Y-92560716D01*
X194050815Y-92627755D01*
X194034181Y-92648397D01*
X192341531Y-94341047D01*
X192276946Y-94402442D01*
X192241899Y-94452794D01*
X192239062Y-94456556D01*
X192200302Y-94504092D01*
X192200299Y-94504097D01*
X192184392Y-94534547D01*
X192180324Y-94541261D01*
X192160702Y-94569454D01*
X192136509Y-94625830D01*
X192134488Y-94630084D01*
X192106091Y-94684451D01*
X192106090Y-94684452D01*
X192096640Y-94717475D01*
X192094007Y-94724871D01*
X192080459Y-94756443D01*
X192068113Y-94816519D01*
X192066990Y-94821095D01*
X192050113Y-94880077D01*
X192050113Y-94880079D01*
X192047503Y-94914341D01*
X192046414Y-94922108D01*
X192043947Y-94934118D01*
X192039500Y-94955758D01*
X192039500Y-95017098D01*
X192039321Y-95021807D01*
X192036994Y-95052362D01*
X192012275Y-95117713D01*
X191978451Y-95148483D01*
X191946346Y-95168285D01*
X191822289Y-95292342D01*
X191730187Y-95441663D01*
X191730185Y-95441668D01*
X191711638Y-95497639D01*
X191675001Y-95608203D01*
X191675001Y-95608204D01*
X191675000Y-95608204D01*
X191664500Y-95710983D01*
X191664500Y-96436001D01*
X191664501Y-96436019D01*
X191675000Y-96538796D01*
X191675001Y-96538799D01*
X191730185Y-96705331D01*
X191730186Y-96705334D01*
X191822288Y-96854656D01*
X191946344Y-96978712D01*
X192095666Y-97070814D01*
X192262203Y-97125999D01*
X192364991Y-97136500D01*
X193715008Y-97136499D01*
X193817797Y-97125999D01*
X193984334Y-97070814D01*
X194133656Y-96978712D01*
X194257712Y-96854656D01*
X194349814Y-96705334D01*
X194404999Y-96538797D01*
X194415500Y-96436009D01*
X194415499Y-95710992D01*
X194404999Y-95608203D01*
X194349814Y-95441666D01*
X194294823Y-95352511D01*
X194276384Y-95285121D01*
X194297306Y-95218458D01*
X194312673Y-95199746D01*
X195136601Y-94375817D01*
X195197924Y-94342333D01*
X195224282Y-94339499D01*
X195496002Y-94339499D01*
X195496008Y-94339499D01*
X195598797Y-94328999D01*
X195765334Y-94273814D01*
X195914656Y-94181712D01*
X196038712Y-94057656D01*
X196130814Y-93908334D01*
X196185999Y-93741797D01*
X196196500Y-93639009D01*
X196196499Y-93367281D01*
X196216183Y-93300243D01*
X196232813Y-93279606D01*
X196783821Y-92728598D01*
X196845142Y-92695115D01*
X196914834Y-92700099D01*
X196970767Y-92741971D01*
X196995184Y-92807435D01*
X196995500Y-92816281D01*
X196995500Y-93639001D01*
X196995501Y-93639018D01*
X197006000Y-93741796D01*
X197006001Y-93741799D01*
X197061185Y-93908331D01*
X197061189Y-93908340D01*
X197155033Y-94060486D01*
X197173473Y-94127878D01*
X197152550Y-94194542D01*
X197098908Y-94239311D01*
X197063380Y-94248802D01*
X197051349Y-94250157D01*
X197051341Y-94250159D01*
X196886395Y-94307877D01*
X196738423Y-94400853D01*
X196614853Y-94524423D01*
X196521877Y-94672395D01*
X196464159Y-94837341D01*
X196464157Y-94837351D01*
X196449500Y-94967441D01*
X196449500Y-96104558D01*
X196464157Y-96234648D01*
X196464159Y-96234658D01*
X196509280Y-96363604D01*
X196521878Y-96399606D01*
X196614853Y-96547576D01*
X196738424Y-96671147D01*
X196886394Y-96764122D01*
X197051343Y-96821841D01*
X197051349Y-96821841D01*
X197051351Y-96821842D01*
X197092750Y-96826506D01*
X197181442Y-96836499D01*
X197181445Y-96836500D01*
X197181448Y-96836500D01*
X197818555Y-96836500D01*
X197818556Y-96836499D01*
X197948657Y-96821841D01*
X198113606Y-96764122D01*
X198261576Y-96671147D01*
X198385147Y-96547576D01*
X198478122Y-96399606D01*
X198535841Y-96234657D01*
X198550500Y-96104552D01*
X198550500Y-95603885D01*
X198570185Y-95536846D01*
X198586815Y-95516208D01*
X198597561Y-95505461D01*
X198611183Y-95493688D01*
X198630594Y-95479239D01*
X198664375Y-95438979D01*
X198668009Y-95435013D01*
X198673883Y-95429141D01*
X198694327Y-95403284D01*
X198743967Y-95344127D01*
X198743969Y-95344122D01*
X198747937Y-95338090D01*
X198747983Y-95338120D01*
X198752095Y-95331665D01*
X198752048Y-95331636D01*
X198755832Y-95325499D01*
X198755839Y-95325491D01*
X198788472Y-95255508D01*
X198823124Y-95186511D01*
X198823126Y-95186499D01*
X198825593Y-95179724D01*
X198825646Y-95179743D01*
X198828158Y-95172515D01*
X198828107Y-95172498D01*
X198830379Y-95165639D01*
X198845992Y-95090022D01*
X198852510Y-95062521D01*
X198863800Y-95014888D01*
X198863800Y-95014887D01*
X198864639Y-95007715D01*
X198864691Y-95007721D01*
X198865469Y-95000106D01*
X198865416Y-95000102D01*
X198866045Y-94992911D01*
X198865666Y-94979900D01*
X198863800Y-94915752D01*
X198863800Y-94208930D01*
X198883485Y-94141891D01*
X198900119Y-94121249D01*
X198923727Y-94097641D01*
X198963712Y-94057656D01*
X199055814Y-93908334D01*
X199110999Y-93741797D01*
X199121500Y-93639009D01*
X199121499Y-92288992D01*
X199110999Y-92186203D01*
X199055814Y-92019666D01*
X198963712Y-91870344D01*
X198852549Y-91759181D01*
X198819064Y-91697858D01*
X198824048Y-91628166D01*
X198865920Y-91572233D01*
X198931384Y-91547816D01*
X198940230Y-91547500D01*
X209015071Y-91547500D01*
X209018211Y-91547580D01*
X209044842Y-91548930D01*
X209092936Y-91551369D01*
X209108857Y-91548930D01*
X209127633Y-91547500D01*
X231813217Y-91547500D01*
X231880256Y-91567185D01*
X231900898Y-91583819D01*
X233455981Y-93138901D01*
X233489466Y-93200224D01*
X233492300Y-93226582D01*
X233492300Y-94838421D01*
X233472615Y-94905460D01*
X233433399Y-94943958D01*
X233399146Y-94965085D01*
X233275089Y-95089142D01*
X233182987Y-95238463D01*
X233182985Y-95238468D01*
X233155149Y-95322470D01*
X233127801Y-95405003D01*
X233127801Y-95405004D01*
X233127800Y-95405004D01*
X233117300Y-95507783D01*
X233117300Y-96232801D01*
X233117301Y-96232819D01*
X233127800Y-96335596D01*
X233127801Y-96335599D01*
X233182985Y-96502131D01*
X233182987Y-96502136D01*
X233205599Y-96538796D01*
X233275088Y-96651456D01*
X233399144Y-96775512D01*
X233548466Y-96867614D01*
X233715003Y-96922799D01*
X233817791Y-96933300D01*
X235167808Y-96933299D01*
X235270597Y-96922799D01*
X235437134Y-96867614D01*
X235586456Y-96775512D01*
X235710512Y-96651456D01*
X235802614Y-96502134D01*
X235857799Y-96335597D01*
X235868300Y-96232809D01*
X235868300Y-96068558D01*
X237949500Y-96068558D01*
X237964157Y-96198648D01*
X237964159Y-96198658D01*
X238021877Y-96363604D01*
X238021878Y-96363606D01*
X238114853Y-96511576D01*
X238238424Y-96635147D01*
X238386394Y-96728122D01*
X238551343Y-96785841D01*
X238551349Y-96785841D01*
X238551351Y-96785842D01*
X238561301Y-96786963D01*
X238681442Y-96800499D01*
X238681445Y-96800500D01*
X238681448Y-96800500D01*
X239318555Y-96800500D01*
X239318556Y-96800499D01*
X239448657Y-96785841D01*
X239613606Y-96728122D01*
X239761576Y-96635147D01*
X239885147Y-96511576D01*
X239978122Y-96363606D01*
X240035841Y-96198657D01*
X240050500Y-96068552D01*
X240050500Y-95228744D01*
X240070185Y-95161705D01*
X240077231Y-95151836D01*
X240096331Y-95127680D01*
X240112501Y-95108410D01*
X240145967Y-95068527D01*
X240145970Y-95068520D01*
X240149937Y-95062490D01*
X240149984Y-95062521D01*
X240154090Y-95056076D01*
X240154043Y-95056047D01*
X240157835Y-95049898D01*
X240157836Y-95049895D01*
X240157839Y-95049892D01*
X240190476Y-94979900D01*
X240225124Y-94910911D01*
X240225126Y-94910899D01*
X240227593Y-94904124D01*
X240227646Y-94904143D01*
X240230158Y-94896915D01*
X240230107Y-94896898D01*
X240232379Y-94890039D01*
X240234436Y-94880079D01*
X240247992Y-94814422D01*
X240265800Y-94739288D01*
X240265800Y-94739287D01*
X240266639Y-94732115D01*
X240266691Y-94732121D01*
X240267469Y-94724506D01*
X240267416Y-94724502D01*
X240268045Y-94717311D01*
X240265800Y-94640152D01*
X240265800Y-94107330D01*
X240285485Y-94040291D01*
X240302119Y-94019649D01*
X240326506Y-93995262D01*
X240416512Y-93905256D01*
X240508614Y-93755934D01*
X240563799Y-93589397D01*
X240574300Y-93486609D01*
X240574299Y-92136592D01*
X240563799Y-92033803D01*
X240508614Y-91867266D01*
X240416512Y-91717944D01*
X240292456Y-91593888D01*
X240143134Y-91501786D01*
X239976597Y-91446601D01*
X239976595Y-91446600D01*
X239873810Y-91436100D01*
X239148798Y-91436100D01*
X239148780Y-91436101D01*
X239046003Y-91446600D01*
X239046000Y-91446601D01*
X238879468Y-91501785D01*
X238879463Y-91501787D01*
X238730142Y-91593889D01*
X238606089Y-91717942D01*
X238513987Y-91867263D01*
X238513985Y-91867268D01*
X238486149Y-91951270D01*
X238458801Y-92033803D01*
X238458801Y-92033804D01*
X238458800Y-92033804D01*
X238448300Y-92136583D01*
X238448300Y-93486601D01*
X238448301Y-93486618D01*
X238458800Y-93589396D01*
X238458801Y-93589399D01*
X238513985Y-93755931D01*
X238513987Y-93755936D01*
X238606089Y-93905257D01*
X238696094Y-93995262D01*
X238729579Y-94056585D01*
X238724595Y-94126277D01*
X238682723Y-94182210D01*
X238622298Y-94206163D01*
X238551349Y-94214157D01*
X238551341Y-94214159D01*
X238386395Y-94271877D01*
X238238423Y-94364853D01*
X238114853Y-94488423D01*
X238021877Y-94636395D01*
X237964159Y-94801341D01*
X237964157Y-94801351D01*
X237949500Y-94931441D01*
X237949500Y-96068558D01*
X235868300Y-96068558D01*
X235868299Y-95507792D01*
X235866857Y-95493679D01*
X235857799Y-95405003D01*
X235857798Y-95405000D01*
X235843724Y-95362527D01*
X235802614Y-95238466D01*
X235710512Y-95089144D01*
X235586456Y-94965088D01*
X235586453Y-94965085D01*
X235552201Y-94943958D01*
X235505478Y-94892010D01*
X235493300Y-94838421D01*
X235493300Y-94016830D01*
X235512985Y-93949791D01*
X235565789Y-93904036D01*
X235634947Y-93894092D01*
X235698503Y-93923117D01*
X235704981Y-93929149D01*
X235805144Y-94029312D01*
X235954466Y-94121414D01*
X236121003Y-94176599D01*
X236223791Y-94187100D01*
X236948808Y-94187099D01*
X236948816Y-94187098D01*
X236948819Y-94187098D01*
X237005102Y-94181348D01*
X237051597Y-94176599D01*
X237218134Y-94121414D01*
X237367456Y-94029312D01*
X237491512Y-93905256D01*
X237583614Y-93755934D01*
X237638799Y-93589397D01*
X237649300Y-93486609D01*
X237649299Y-92136592D01*
X237638799Y-92033803D01*
X237583614Y-91867266D01*
X237491512Y-91717944D01*
X237367456Y-91593888D01*
X237218134Y-91501786D01*
X237051597Y-91446601D01*
X237051595Y-91446600D01*
X236948810Y-91436100D01*
X236223798Y-91436100D01*
X236223780Y-91436101D01*
X236121003Y-91446600D01*
X236121000Y-91446601D01*
X235954468Y-91501785D01*
X235954463Y-91501787D01*
X235805142Y-91593889D01*
X235681089Y-91717942D01*
X235681088Y-91717944D01*
X235663606Y-91746288D01*
X235659961Y-91752197D01*
X235608013Y-91798921D01*
X235554422Y-91811100D01*
X235009383Y-91811100D01*
X234942344Y-91791415D01*
X234921702Y-91774781D01*
X232995451Y-89848531D01*
X232934061Y-89783949D01*
X232934060Y-89783948D01*
X232934059Y-89783947D01*
X232906204Y-89764559D01*
X232883709Y-89748902D01*
X232879946Y-89746064D01*
X232832413Y-89707305D01*
X232832406Y-89707300D01*
X232801959Y-89691397D01*
X232795251Y-89687334D01*
X232767049Y-89667705D01*
X232767046Y-89667703D01*
X232767045Y-89667703D01*
X232767041Y-89667701D01*
X232710680Y-89643514D01*
X232706424Y-89641493D01*
X232652057Y-89613094D01*
X232652050Y-89613091D01*
X232652049Y-89613091D01*
X232646008Y-89611362D01*
X232619030Y-89603642D01*
X232611630Y-89601008D01*
X232580057Y-89587459D01*
X232580058Y-89587459D01*
X232519966Y-89575109D01*
X232515391Y-89573986D01*
X232456420Y-89557113D01*
X232456425Y-89557113D01*
X232422158Y-89554503D01*
X232414380Y-89553412D01*
X232380742Y-89546500D01*
X232380741Y-89546500D01*
X232319402Y-89546500D01*
X232314695Y-89546321D01*
X232309121Y-89545896D01*
X232253524Y-89541662D01*
X232233589Y-89544201D01*
X232219440Y-89546003D01*
X232211611Y-89546500D01*
X210166500Y-89546500D01*
X210099461Y-89526815D01*
X210053706Y-89474011D01*
X210042500Y-89422500D01*
X210042500Y-72504298D01*
X210044757Y-72415241D01*
X210044756Y-72415240D01*
X210044757Y-72415237D01*
X210033933Y-72354849D01*
X210033280Y-72350187D01*
X210027074Y-72289163D01*
X210027074Y-72289162D01*
X210016784Y-72256368D01*
X210014917Y-72248755D01*
X210013047Y-72238323D01*
X210008858Y-72214947D01*
X209986100Y-72157974D01*
X209984521Y-72153538D01*
X209981378Y-72143521D01*
X209967466Y-72099179D01*
X231032643Y-72099179D01*
X231042918Y-72347634D01*
X231093951Y-72591016D01*
X231093953Y-72591023D01*
X231184342Y-72822670D01*
X231184344Y-72822674D01*
X231311634Y-73036294D01*
X231420502Y-73164834D01*
X231432101Y-73178529D01*
X231447384Y-73193812D01*
X231452477Y-73199579D01*
X231472412Y-73225192D01*
X231471118Y-73226198D01*
X231498804Y-73282311D01*
X231490937Y-73351736D01*
X231450962Y-73402892D01*
X231329452Y-73493855D01*
X231243206Y-73609064D01*
X231243202Y-73609071D01*
X231192908Y-73743917D01*
X231186501Y-73803516D01*
X231186500Y-73803535D01*
X231186500Y-75599270D01*
X231186501Y-75599276D01*
X231192908Y-75658883D01*
X231243202Y-75793728D01*
X231243206Y-75793735D01*
X231329452Y-75908944D01*
X231329455Y-75908947D01*
X231444664Y-75995193D01*
X231444671Y-75995197D01*
X231579517Y-76045491D01*
X231579516Y-76045491D01*
X231586444Y-76046235D01*
X231639127Y-76051900D01*
X233434872Y-76051899D01*
X233494483Y-76045491D01*
X233629331Y-75995196D01*
X233744546Y-75908946D01*
X233830796Y-75793731D01*
X233881091Y-75658883D01*
X233887500Y-75599273D01*
X233887499Y-73825899D01*
X233907184Y-73758861D01*
X233959987Y-73713106D01*
X234011499Y-73701900D01*
X237081515Y-73701900D01*
X237148554Y-73721585D01*
X237177058Y-73746859D01*
X237260647Y-73847900D01*
X237260649Y-73847902D01*
X237260651Y-73847904D01*
X237307447Y-73891848D01*
X237480836Y-74054672D01*
X237480846Y-74054680D01*
X237725193Y-74232208D01*
X237725198Y-74232210D01*
X237725205Y-74232216D01*
X237989896Y-74377732D01*
X237989901Y-74377734D01*
X237989903Y-74377735D01*
X237989904Y-74377736D01*
X238270734Y-74488924D01*
X238270737Y-74488925D01*
X238368259Y-74513964D01*
X238563302Y-74564042D01*
X238710039Y-74582579D01*
X238862963Y-74601899D01*
X238862969Y-74601899D01*
X238862973Y-74601900D01*
X238862975Y-74601900D01*
X239165025Y-74601900D01*
X239165027Y-74601900D01*
X239165032Y-74601899D01*
X239165036Y-74601899D01*
X239244591Y-74591848D01*
X239464698Y-74564042D01*
X239757262Y-74488925D01*
X239758947Y-74488258D01*
X240038095Y-74377736D01*
X240038096Y-74377735D01*
X240038094Y-74377735D01*
X240038104Y-74377732D01*
X240302795Y-74232216D01*
X240547162Y-74054674D01*
X240767349Y-73847904D01*
X240959885Y-73615168D01*
X241121733Y-73360136D01*
X241250341Y-73086830D01*
X241343681Y-72799560D01*
X241400280Y-72502857D01*
X241402548Y-72466807D01*
X241419246Y-72201405D01*
X241419246Y-72201394D01*
X241400281Y-71899953D01*
X241400280Y-71899946D01*
X241400280Y-71899943D01*
X241343681Y-71603240D01*
X241250341Y-71315970D01*
X241216474Y-71244000D01*
X241163398Y-71131206D01*
X241121733Y-71042664D01*
X241093828Y-70998693D01*
X240959888Y-70787636D01*
X240959885Y-70787632D01*
X240767349Y-70554896D01*
X240547162Y-70348126D01*
X240547159Y-70348124D01*
X240547153Y-70348119D01*
X240302806Y-70170591D01*
X240302799Y-70170586D01*
X240302795Y-70170584D01*
X240038104Y-70025068D01*
X240038101Y-70025066D01*
X240038096Y-70025064D01*
X240038095Y-70025063D01*
X239757265Y-69913875D01*
X239757262Y-69913874D01*
X239464695Y-69838757D01*
X239165036Y-69800900D01*
X239165027Y-69800900D01*
X238862973Y-69800900D01*
X238862963Y-69800900D01*
X238563304Y-69838757D01*
X238270737Y-69913874D01*
X238270734Y-69913875D01*
X237989904Y-70025063D01*
X237989903Y-70025064D01*
X237725205Y-70170584D01*
X237725193Y-70170591D01*
X237480846Y-70348119D01*
X237480836Y-70348127D01*
X237260649Y-70554897D01*
X237260647Y-70554899D01*
X237177058Y-70655941D01*
X237119158Y-70695048D01*
X237081515Y-70700900D01*
X232896249Y-70700900D01*
X232870802Y-70698261D01*
X232723234Y-70667318D01*
X232474782Y-70657043D01*
X232474781Y-70657043D01*
X232474779Y-70657043D01*
X232289709Y-70680111D01*
X232228018Y-70687801D01*
X231989684Y-70758756D01*
X231766291Y-70867966D01*
X231766284Y-70867970D01*
X231563901Y-71012469D01*
X231388069Y-71188301D01*
X231243570Y-71390684D01*
X231243566Y-71390691D01*
X231134356Y-71614084D01*
X231063401Y-71852418D01*
X231032643Y-72099179D01*
X209967466Y-72099179D01*
X209966159Y-72095012D01*
X209966158Y-72095010D01*
X209966157Y-72095007D01*
X209956000Y-72076710D01*
X209949485Y-72064971D01*
X209946117Y-72057878D01*
X209933378Y-72025986D01*
X209933377Y-72025983D01*
X209899620Y-71974763D01*
X209897180Y-71970734D01*
X209886379Y-71951275D01*
X209867409Y-71917098D01*
X209867407Y-71917095D01*
X209845033Y-71891034D01*
X209840302Y-71884759D01*
X209835602Y-71877628D01*
X209821402Y-71856081D01*
X209778012Y-71812691D01*
X209774822Y-71809248D01*
X209734867Y-71762706D01*
X209734863Y-71762702D01*
X209707698Y-71741674D01*
X209701811Y-71736490D01*
X205820200Y-67854880D01*
X205786716Y-67793558D01*
X205791700Y-67723866D01*
X205820201Y-67679519D01*
X206387644Y-67112076D01*
X207092940Y-66406781D01*
X207189297Y-66288608D01*
X207283509Y-66108249D01*
X207339486Y-65912618D01*
X207354937Y-65709724D01*
X207341833Y-65606835D01*
X207329231Y-65507879D01*
X207329230Y-65507877D01*
X207329230Y-65507873D01*
X207263416Y-65315328D01*
X207240650Y-65276655D01*
X207160193Y-65139978D01*
X207160192Y-65139977D01*
X207160190Y-65139973D01*
X207023779Y-64988987D01*
X206978579Y-64955796D01*
X206859771Y-64868553D01*
X206859764Y-64868549D01*
X206674874Y-64783597D01*
X206674861Y-64783592D01*
X206476653Y-64737597D01*
X206273238Y-64732444D01*
X206273235Y-64732444D01*
X206072950Y-64768340D01*
X206072945Y-64768342D01*
X205883983Y-64843823D01*
X205883971Y-64843829D01*
X205714082Y-64955796D01*
X205714078Y-64955799D01*
X203956699Y-66713181D01*
X203895376Y-66746666D01*
X203869018Y-66749500D01*
X185715783Y-66749500D01*
X185648744Y-66729815D01*
X185628102Y-66713181D01*
X183536819Y-64621898D01*
X183503334Y-64560575D01*
X183500500Y-64534217D01*
X183500500Y-63262716D01*
X183500798Y-63250936D01*
X183502757Y-63173637D01*
X183502445Y-63171896D01*
X183500500Y-63150018D01*
X183500500Y-58645934D01*
X188034300Y-58645934D01*
X188075229Y-58891216D01*
X188155969Y-59126402D01*
X188155972Y-59126411D01*
X188274325Y-59345108D01*
X188274328Y-59345112D01*
X188398353Y-59504459D01*
X188423996Y-59569453D01*
X188424500Y-59580621D01*
X188424500Y-63946001D01*
X188424501Y-63946019D01*
X188435000Y-64048796D01*
X188435001Y-64048799D01*
X188485010Y-64199713D01*
X188490186Y-64215334D01*
X188582288Y-64364656D01*
X188706344Y-64488712D01*
X188855666Y-64580814D01*
X189022203Y-64635999D01*
X189124991Y-64646500D01*
X189875008Y-64646499D01*
X189875016Y-64646498D01*
X189875019Y-64646498D01*
X189938659Y-64639997D01*
X189977797Y-64635999D01*
X190144334Y-64580814D01*
X190293656Y-64488712D01*
X190417712Y-64364656D01*
X190509814Y-64215334D01*
X190564999Y-64048797D01*
X190575500Y-63946009D01*
X190575500Y-63250936D01*
X190575500Y-60705568D01*
X190575500Y-60146100D01*
X190595185Y-60079061D01*
X190647989Y-60033306D01*
X190699500Y-60022100D01*
X222745510Y-60022100D01*
X222812549Y-60041785D01*
X222833191Y-60058419D01*
X227532071Y-64757300D01*
X227584058Y-64801330D01*
X227674306Y-64877766D01*
X227674310Y-64877768D01*
X227674315Y-64877772D01*
X227887927Y-65005056D01*
X228119576Y-65095446D01*
X228119584Y-65095448D01*
X228119586Y-65095449D01*
X228362963Y-65146481D01*
X228611421Y-65156757D01*
X228858181Y-65125999D01*
X229096513Y-65055044D01*
X229235118Y-64987284D01*
X229319908Y-64945833D01*
X229319909Y-64945832D01*
X229319916Y-64945829D01*
X229522296Y-64801332D01*
X229698132Y-64625496D01*
X229842629Y-64423116D01*
X229951844Y-64199713D01*
X230022799Y-63961381D01*
X230053557Y-63714621D01*
X230043281Y-63466163D01*
X229992249Y-63222786D01*
X229992248Y-63222783D01*
X229992246Y-63222776D01*
X229929150Y-63061078D01*
X229901856Y-62991127D01*
X229896484Y-62982111D01*
X229774572Y-62777515D01*
X229774568Y-62777510D01*
X229774566Y-62777506D01*
X229681855Y-62668042D01*
X229654100Y-62635271D01*
X224548015Y-57529187D01*
X224542924Y-57523422D01*
X224526139Y-57501857D01*
X224457478Y-57438649D01*
X224435529Y-57416700D01*
X224411835Y-57396633D01*
X224343186Y-57333437D01*
X224343185Y-57333436D01*
X224320304Y-57318487D01*
X224314147Y-57313896D01*
X224293294Y-57296234D01*
X224213120Y-57248460D01*
X224135007Y-57197427D01*
X224135004Y-57197425D01*
X224109988Y-57186452D01*
X224103150Y-57182932D01*
X224079675Y-57168944D01*
X223992735Y-57135020D01*
X223907281Y-57097537D01*
X223907277Y-57097536D01*
X223907275Y-57097535D01*
X223880787Y-57090827D01*
X223873467Y-57088482D01*
X223856993Y-57082054D01*
X223848014Y-57078551D01*
X223756688Y-57059401D01*
X223743913Y-57056166D01*
X223666219Y-57036491D01*
X223638990Y-57034235D01*
X223631383Y-57033126D01*
X223611386Y-57028934D01*
X223604637Y-57027519D01*
X223604635Y-57027518D01*
X223511390Y-57023662D01*
X223480467Y-57021100D01*
X223480464Y-57021100D01*
X223449435Y-57021100D01*
X223356180Y-57017243D01*
X223356179Y-57017243D01*
X223329052Y-57020624D01*
X223321381Y-57021100D01*
X220919602Y-57021100D01*
X220852563Y-57001415D01*
X220806808Y-56948611D01*
X220796864Y-56879453D01*
X220810243Y-56838648D01*
X220819781Y-56820806D01*
X220819784Y-56820800D01*
X220830392Y-56798371D01*
X220830392Y-56798370D01*
X220849186Y-56753001D01*
X220857557Y-56729609D01*
X220857557Y-56729610D01*
X220885474Y-56637574D01*
X220914576Y-56541637D01*
X220920607Y-56517560D01*
X220920608Y-56517558D01*
X220920608Y-56517559D01*
X220930189Y-56469387D01*
X220930191Y-56469377D01*
X220933832Y-56444830D01*
X220953374Y-56246412D01*
X220954287Y-56234048D01*
X220955195Y-56215575D01*
X220955500Y-56203160D01*
X220955500Y-56203159D01*
X224694500Y-56203159D01*
X224694805Y-56215575D01*
X224695713Y-56234049D01*
X224696625Y-56246409D01*
X224716168Y-56444838D01*
X224719809Y-56469387D01*
X224729391Y-56517559D01*
X224735422Y-56541636D01*
X224735422Y-56541637D01*
X224792447Y-56729621D01*
X224792447Y-56729620D01*
X224800807Y-56752986D01*
X224819610Y-56798378D01*
X224830215Y-56820799D01*
X224830215Y-56820800D01*
X224922810Y-56994033D01*
X224922811Y-56994034D01*
X224935565Y-57015314D01*
X224935564Y-57015313D01*
X224947467Y-57033126D01*
X224962862Y-57056166D01*
X224977647Y-57076103D01*
X225102257Y-57227939D01*
X225102256Y-57227938D01*
X225118940Y-57246347D01*
X225118941Y-57246347D01*
X225153652Y-57281058D01*
X225153652Y-57281059D01*
X225153662Y-57281068D01*
X225153665Y-57281071D01*
X225172055Y-57297738D01*
X225323896Y-57422352D01*
X225343833Y-57437137D01*
X225364470Y-57450926D01*
X225384686Y-57464435D01*
X225384685Y-57464434D01*
X225405965Y-57477188D01*
X225405966Y-57477189D01*
X225579199Y-57569784D01*
X225601628Y-57580392D01*
X225601629Y-57580392D01*
X225646998Y-57599186D01*
X225670390Y-57607557D01*
X225670389Y-57607557D01*
X225762424Y-57635474D01*
X225858362Y-57664576D01*
X225858368Y-57664577D01*
X225858369Y-57664578D01*
X225882441Y-57670608D01*
X225882440Y-57670608D01*
X225914938Y-57677071D01*
X225930622Y-57680191D01*
X225930629Y-57680192D01*
X225930634Y-57680193D01*
X225930633Y-57680193D01*
X225941250Y-57681767D01*
X225955169Y-57683832D01*
X226153589Y-57703374D01*
X226165950Y-57704287D01*
X226184424Y-57705195D01*
X226190632Y-57705347D01*
X226196840Y-57705500D01*
X226196841Y-57705500D01*
X232003159Y-57705500D01*
X232003160Y-57705500D01*
X232009367Y-57705347D01*
X232015576Y-57705195D01*
X232034050Y-57704287D01*
X232042290Y-57703678D01*
X232046412Y-57703374D01*
X232244830Y-57683832D01*
X232258748Y-57681767D01*
X232269366Y-57680193D01*
X232269365Y-57680193D01*
X232269369Y-57680192D01*
X232269377Y-57680191D01*
X232285060Y-57677071D01*
X232317559Y-57670608D01*
X232317558Y-57670608D01*
X232341630Y-57664578D01*
X232341630Y-57664577D01*
X232341637Y-57664576D01*
X232437574Y-57635474D01*
X232529610Y-57607557D01*
X232529609Y-57607557D01*
X232553001Y-57599186D01*
X232598370Y-57580392D01*
X232598371Y-57580392D01*
X232620800Y-57569784D01*
X232794033Y-57477189D01*
X232794034Y-57477188D01*
X232815314Y-57464434D01*
X232815313Y-57464435D01*
X232835528Y-57450926D01*
X232856166Y-57437137D01*
X232876103Y-57422352D01*
X233027944Y-57297738D01*
X233046334Y-57281071D01*
X233046336Y-57281068D01*
X233046347Y-57281059D01*
X233046347Y-57281058D01*
X233081058Y-57246347D01*
X233081059Y-57246347D01*
X233097743Y-57227938D01*
X233097742Y-57227939D01*
X233222352Y-57076103D01*
X233237137Y-57056166D01*
X233252532Y-57033126D01*
X233264435Y-57015313D01*
X233264434Y-57015314D01*
X233277188Y-56994034D01*
X233277189Y-56994033D01*
X233369784Y-56820800D01*
X233380392Y-56798371D01*
X233380392Y-56798370D01*
X233399186Y-56753001D01*
X233407557Y-56729609D01*
X233407557Y-56729610D01*
X233435474Y-56637574D01*
X233464576Y-56541637D01*
X233470607Y-56517560D01*
X233470608Y-56517558D01*
X233470608Y-56517559D01*
X233480189Y-56469387D01*
X233480191Y-56469377D01*
X233483832Y-56444830D01*
X233503374Y-56246412D01*
X233504287Y-56234048D01*
X233505195Y-56215575D01*
X233505500Y-56203160D01*
X233505500Y-46546839D01*
X233505195Y-46534424D01*
X233504287Y-46515951D01*
X233503374Y-46503587D01*
X233483832Y-46305169D01*
X233480191Y-46280622D01*
X233477071Y-46264938D01*
X233470608Y-46232440D01*
X233470608Y-46232441D01*
X233464578Y-46208369D01*
X233464577Y-46208368D01*
X233464576Y-46208362D01*
X233407557Y-46020390D01*
X233407556Y-46020389D01*
X233399186Y-45996998D01*
X233380392Y-45951629D01*
X233380392Y-45951628D01*
X233369784Y-45929199D01*
X233277189Y-45755966D01*
X233277188Y-45755965D01*
X233264434Y-45734685D01*
X233264435Y-45734686D01*
X233237140Y-45693838D01*
X233237137Y-45693833D01*
X233222352Y-45673896D01*
X233097738Y-45522055D01*
X233081071Y-45503665D01*
X233081066Y-45503660D01*
X233081059Y-45503652D01*
X233081058Y-45503652D01*
X233046347Y-45468941D01*
X233046347Y-45468940D01*
X233027942Y-45452260D01*
X232876103Y-45327647D01*
X232856166Y-45312862D01*
X232815318Y-45285568D01*
X232802508Y-45277890D01*
X232794040Y-45272814D01*
X232794041Y-45272814D01*
X232620806Y-45180219D01*
X232620807Y-45180219D01*
X232606896Y-45173639D01*
X232598378Y-45169611D01*
X232598371Y-45169608D01*
X232598369Y-45169607D01*
X232598367Y-45169606D01*
X232553003Y-45150813D01*
X232529614Y-45142444D01*
X232341637Y-45085422D01*
X232341636Y-45085422D01*
X232341629Y-45085420D01*
X232334362Y-45083600D01*
X232317559Y-45079391D01*
X232269387Y-45069809D01*
X232244836Y-45066168D01*
X232244838Y-45066168D01*
X232086094Y-45050533D01*
X232046410Y-45046625D01*
X232040229Y-45046169D01*
X232034049Y-45045713D01*
X232015575Y-45044805D01*
X232003160Y-45044500D01*
X226196839Y-45044500D01*
X226184421Y-45044805D01*
X226165970Y-45045713D01*
X226165950Y-45045714D01*
X226153591Y-45046626D01*
X226090681Y-45052821D01*
X225955168Y-45066167D01*
X225955167Y-45066167D01*
X225930619Y-45069808D01*
X225930615Y-45069808D01*
X225930608Y-45069810D01*
X225882442Y-45079391D01*
X225868656Y-45082844D01*
X225858379Y-45085418D01*
X225858381Y-45085418D01*
X225858376Y-45085419D01*
X225858370Y-45085421D01*
X225759470Y-45115421D01*
X225670377Y-45142447D01*
X225670378Y-45142447D01*
X225647000Y-45150812D01*
X225646988Y-45150816D01*
X225646985Y-45150818D01*
X225646984Y-45150818D01*
X225611357Y-45165576D01*
X225601625Y-45169608D01*
X225601623Y-45169609D01*
X225601622Y-45169609D01*
X225579196Y-45180217D01*
X225405961Y-45272813D01*
X225395494Y-45279086D01*
X225384894Y-45285440D01*
X225384675Y-45285571D01*
X225343838Y-45312857D01*
X225323902Y-45327642D01*
X225323903Y-45327641D01*
X225172056Y-45452260D01*
X225172050Y-45452265D01*
X225153660Y-45468932D01*
X225153647Y-45468944D01*
X225153647Y-45468945D01*
X225118945Y-45503647D01*
X225118944Y-45503647D01*
X225118934Y-45503657D01*
X225118932Y-45503660D01*
X225118928Y-45503665D01*
X225102260Y-45522056D01*
X225102261Y-45522055D01*
X224977641Y-45673903D01*
X224977642Y-45673902D01*
X224962857Y-45693838D01*
X224935571Y-45734675D01*
X224922813Y-45755961D01*
X224830220Y-45929193D01*
X224830218Y-45929196D01*
X224830217Y-45929196D01*
X224830216Y-45929199D01*
X224819608Y-45951625D01*
X224815576Y-45961357D01*
X224800818Y-45996984D01*
X224800818Y-45996985D01*
X224800812Y-45997000D01*
X224792447Y-46020378D01*
X224792447Y-46020377D01*
X224792443Y-46020390D01*
X224735421Y-46208370D01*
X224735418Y-46208381D01*
X224735418Y-46208379D01*
X224732844Y-46218656D01*
X224729391Y-46232442D01*
X224719810Y-46280608D01*
X224719808Y-46280620D01*
X224719808Y-46280619D01*
X224716167Y-46305167D01*
X224716167Y-46305168D01*
X224696625Y-46503590D01*
X224695713Y-46515950D01*
X224694805Y-46534424D01*
X224694500Y-46546840D01*
X224694500Y-56203159D01*
X220955500Y-56203159D01*
X220955500Y-46546839D01*
X220955195Y-46534424D01*
X220954287Y-46515951D01*
X220953374Y-46503587D01*
X220933832Y-46305169D01*
X220930191Y-46280622D01*
X220927071Y-46264938D01*
X220920608Y-46232440D01*
X220920608Y-46232441D01*
X220914578Y-46208369D01*
X220914577Y-46208368D01*
X220914576Y-46208362D01*
X220857557Y-46020390D01*
X220857556Y-46020389D01*
X220849186Y-45996998D01*
X220830392Y-45951629D01*
X220830392Y-45951628D01*
X220819784Y-45929199D01*
X220727189Y-45755966D01*
X220727188Y-45755965D01*
X220714434Y-45734685D01*
X220714435Y-45734686D01*
X220687140Y-45693838D01*
X220687137Y-45693833D01*
X220672352Y-45673896D01*
X220547738Y-45522055D01*
X220531071Y-45503665D01*
X220531066Y-45503660D01*
X220531059Y-45503652D01*
X220531058Y-45503652D01*
X220496347Y-45468941D01*
X220496347Y-45468940D01*
X220477942Y-45452260D01*
X220326103Y-45327647D01*
X220306166Y-45312862D01*
X220265318Y-45285568D01*
X220252508Y-45277890D01*
X220244040Y-45272814D01*
X220244041Y-45272814D01*
X220070806Y-45180219D01*
X220070807Y-45180219D01*
X220056896Y-45173639D01*
X220048378Y-45169611D01*
X220048371Y-45169608D01*
X220048369Y-45169607D01*
X220048367Y-45169606D01*
X220003003Y-45150813D01*
X219979614Y-45142444D01*
X219791637Y-45085422D01*
X219791636Y-45085422D01*
X219791629Y-45085420D01*
X219784362Y-45083600D01*
X219767559Y-45079391D01*
X219719387Y-45069809D01*
X219694836Y-45066168D01*
X219694838Y-45066168D01*
X219536094Y-45050533D01*
X219496410Y-45046625D01*
X219490229Y-45046169D01*
X219484049Y-45045713D01*
X219465575Y-45044805D01*
X219453160Y-45044500D01*
X213646839Y-45044500D01*
X213634421Y-45044805D01*
X213615970Y-45045713D01*
X213615950Y-45045714D01*
X213603591Y-45046626D01*
X213540681Y-45052821D01*
X213405168Y-45066167D01*
X213405167Y-45066167D01*
X213380619Y-45069808D01*
X213380615Y-45069808D01*
X213380608Y-45069810D01*
X213332442Y-45079391D01*
X213318656Y-45082844D01*
X213308379Y-45085418D01*
X213308381Y-45085418D01*
X213308376Y-45085419D01*
X213308370Y-45085421D01*
X213209470Y-45115421D01*
X213120377Y-45142447D01*
X213120378Y-45142447D01*
X213097000Y-45150812D01*
X213096988Y-45150816D01*
X213096985Y-45150818D01*
X213096984Y-45150818D01*
X213061357Y-45165576D01*
X213051625Y-45169608D01*
X213051623Y-45169609D01*
X213051622Y-45169609D01*
X213029196Y-45180217D01*
X212855961Y-45272813D01*
X212845494Y-45279086D01*
X212834894Y-45285440D01*
X212834675Y-45285571D01*
X212793838Y-45312857D01*
X212773902Y-45327642D01*
X212773903Y-45327641D01*
X212622056Y-45452260D01*
X212622050Y-45452265D01*
X212603660Y-45468932D01*
X212603647Y-45468944D01*
X212603647Y-45468945D01*
X212568945Y-45503647D01*
X212568944Y-45503647D01*
X212568934Y-45503657D01*
X212568932Y-45503660D01*
X212568928Y-45503665D01*
X212552260Y-45522056D01*
X212552261Y-45522055D01*
X212427641Y-45673903D01*
X212427642Y-45673902D01*
X212412857Y-45693838D01*
X212385571Y-45734675D01*
X212372813Y-45755961D01*
X212280220Y-45929193D01*
X212280218Y-45929196D01*
X212280217Y-45929196D01*
X212280216Y-45929199D01*
X212269608Y-45951625D01*
X212265576Y-45961357D01*
X212250818Y-45996984D01*
X212250818Y-45996985D01*
X212250812Y-45997000D01*
X212242447Y-46020378D01*
X212242447Y-46020377D01*
X212242443Y-46020390D01*
X212185421Y-46208370D01*
X212185418Y-46208381D01*
X212185418Y-46208379D01*
X212182844Y-46218656D01*
X212179391Y-46232442D01*
X212169810Y-46280608D01*
X212169808Y-46280620D01*
X212169808Y-46280619D01*
X212166167Y-46305167D01*
X212166167Y-46305168D01*
X212146625Y-46503590D01*
X212145713Y-46515950D01*
X212144805Y-46534424D01*
X212144500Y-46546840D01*
X212144500Y-56203159D01*
X212144805Y-56215575D01*
X212145713Y-56234049D01*
X212146625Y-56246409D01*
X212166168Y-56444838D01*
X212169809Y-56469387D01*
X212179391Y-56517559D01*
X212185422Y-56541636D01*
X212185422Y-56541637D01*
X212242447Y-56729621D01*
X212242447Y-56729620D01*
X212250807Y-56752986D01*
X212250808Y-56752988D01*
X212269609Y-56798375D01*
X212280218Y-56820806D01*
X212289754Y-56838647D01*
X212303997Y-56907047D01*
X212278998Y-56972292D01*
X212222694Y-57013663D01*
X212180397Y-57021100D01*
X189472733Y-57021100D01*
X189453321Y-57022708D01*
X189286986Y-57036490D01*
X189286975Y-57036492D01*
X189045918Y-57097536D01*
X188818193Y-57197426D01*
X188610017Y-57333433D01*
X188427061Y-57501857D01*
X188274324Y-57698093D01*
X188155972Y-57916788D01*
X188155969Y-57916797D01*
X188075229Y-58151983D01*
X188034300Y-58397265D01*
X188034300Y-58645934D01*
X183500500Y-58645934D01*
X183500500Y-53220758D01*
X183520185Y-53153719D01*
X183524898Y-53147870D01*
X186239500Y-53147870D01*
X186239501Y-53147876D01*
X186245908Y-53207483D01*
X186296202Y-53342328D01*
X186296206Y-53342335D01*
X186382452Y-53457544D01*
X186382455Y-53457547D01*
X186497664Y-53543793D01*
X186497671Y-53543797D01*
X186632517Y-53594091D01*
X186632516Y-53594091D01*
X186639444Y-53594835D01*
X186692127Y-53600500D01*
X188487872Y-53600499D01*
X188547483Y-53594091D01*
X188682331Y-53543796D01*
X188797546Y-53457546D01*
X188883796Y-53342331D01*
X188934091Y-53207483D01*
X188940500Y-53147873D01*
X188940499Y-51352128D01*
X188935299Y-51303757D01*
X188934091Y-51292516D01*
X188883797Y-51157671D01*
X188883793Y-51157664D01*
X188797547Y-51042455D01*
X188797544Y-51042452D01*
X188682335Y-50956206D01*
X188682328Y-50956202D01*
X188547482Y-50905908D01*
X188547483Y-50905908D01*
X188487883Y-50899501D01*
X188487881Y-50899500D01*
X188487873Y-50899500D01*
X188487864Y-50899500D01*
X186692129Y-50899500D01*
X186692123Y-50899501D01*
X186632516Y-50905908D01*
X186497671Y-50956202D01*
X186497664Y-50956206D01*
X186382455Y-51042452D01*
X186382452Y-51042455D01*
X186296206Y-51157664D01*
X186296202Y-51157671D01*
X186245908Y-51292517D01*
X186241814Y-51330604D01*
X186239501Y-51352123D01*
X186239500Y-51352135D01*
X186239500Y-53147870D01*
X183524898Y-53147870D01*
X183536819Y-53133077D01*
X183548495Y-53121401D01*
X183684035Y-52927830D01*
X183783903Y-52713663D01*
X183845063Y-52485408D01*
X183865659Y-52250000D01*
X183845063Y-52014592D01*
X183783903Y-51786337D01*
X183684035Y-51572171D01*
X183629987Y-51494981D01*
X183548494Y-51378597D01*
X183536819Y-51366922D01*
X183503334Y-51305599D01*
X183500500Y-51279241D01*
X183500500Y-49280758D01*
X183517498Y-49222870D01*
X186224500Y-49222870D01*
X186224501Y-49222876D01*
X186230908Y-49282483D01*
X186281202Y-49417328D01*
X186281206Y-49417335D01*
X186367452Y-49532544D01*
X186367455Y-49532547D01*
X186482664Y-49618793D01*
X186482671Y-49618797D01*
X186617517Y-49669091D01*
X186617516Y-49669091D01*
X186624444Y-49669835D01*
X186677127Y-49675500D01*
X188472872Y-49675499D01*
X188532483Y-49669091D01*
X188667331Y-49618796D01*
X188782546Y-49532546D01*
X188868796Y-49417331D01*
X188919091Y-49282483D01*
X188925500Y-49222873D01*
X188925499Y-48250000D01*
X191824341Y-48250000D01*
X191844936Y-48485403D01*
X191844938Y-48485413D01*
X191906094Y-48713655D01*
X191906096Y-48713659D01*
X191906097Y-48713663D01*
X191941071Y-48788664D01*
X192005965Y-48927830D01*
X192005967Y-48927834D01*
X192088023Y-49045021D01*
X192141505Y-49121401D01*
X192308599Y-49288495D01*
X192405384Y-49356265D01*
X192502165Y-49424032D01*
X192502167Y-49424033D01*
X192502170Y-49424035D01*
X192716337Y-49523903D01*
X192716343Y-49523904D01*
X192716344Y-49523905D01*
X192748597Y-49532547D01*
X192944592Y-49585063D01*
X193121034Y-49600500D01*
X193179999Y-49605659D01*
X193180000Y-49605659D01*
X193180001Y-49605659D01*
X193238966Y-49600500D01*
X193415408Y-49585063D01*
X193643663Y-49523903D01*
X193857830Y-49424035D01*
X194051401Y-49288495D01*
X194218495Y-49121401D01*
X194348425Y-48935842D01*
X194403002Y-48892217D01*
X194472500Y-48885023D01*
X194534855Y-48916546D01*
X194551575Y-48935842D01*
X194681500Y-49121395D01*
X194681505Y-49121401D01*
X194848599Y-49288495D01*
X194945384Y-49356265D01*
X195042165Y-49424032D01*
X195042167Y-49424033D01*
X195042170Y-49424035D01*
X195256337Y-49523903D01*
X195256343Y-49523904D01*
X195256344Y-49523905D01*
X195288597Y-49532547D01*
X195484592Y-49585063D01*
X195661034Y-49600500D01*
X195719999Y-49605659D01*
X195720000Y-49605659D01*
X195720001Y-49605659D01*
X195778966Y-49600500D01*
X195955408Y-49585063D01*
X196183663Y-49523903D01*
X196397830Y-49424035D01*
X196591401Y-49288495D01*
X196758495Y-49121401D01*
X196888425Y-48935842D01*
X196943002Y-48892217D01*
X197012500Y-48885023D01*
X197074855Y-48916546D01*
X197091575Y-48935842D01*
X197221500Y-49121395D01*
X197221505Y-49121401D01*
X197388599Y-49288495D01*
X197485384Y-49356265D01*
X197582165Y-49424032D01*
X197582167Y-49424033D01*
X197582170Y-49424035D01*
X197796337Y-49523903D01*
X197796343Y-49523904D01*
X197796344Y-49523905D01*
X197828597Y-49532547D01*
X198024592Y-49585063D01*
X198201034Y-49600500D01*
X198259999Y-49605659D01*
X198260000Y-49605659D01*
X198260001Y-49605659D01*
X198318966Y-49600500D01*
X198495408Y-49585063D01*
X198723663Y-49523903D01*
X198937830Y-49424035D01*
X199131401Y-49288495D01*
X199253329Y-49166566D01*
X199314648Y-49133084D01*
X199384340Y-49138068D01*
X199440274Y-49179939D01*
X199457189Y-49210917D01*
X199506202Y-49342328D01*
X199506206Y-49342335D01*
X199592452Y-49457544D01*
X199592455Y-49457547D01*
X199707664Y-49543793D01*
X199707671Y-49543797D01*
X199842517Y-49594091D01*
X199842516Y-49594091D01*
X199849444Y-49594835D01*
X199902127Y-49600500D01*
X201697872Y-49600499D01*
X201757483Y-49594091D01*
X201892331Y-49543796D01*
X202007546Y-49457546D01*
X202093796Y-49342331D01*
X202144091Y-49207483D01*
X202150500Y-49147873D01*
X202150499Y-47352128D01*
X202144091Y-47292517D01*
X202142810Y-47289083D01*
X202093797Y-47157671D01*
X202093793Y-47157664D01*
X202007547Y-47042455D01*
X202007544Y-47042452D01*
X201892335Y-46956206D01*
X201892328Y-46956202D01*
X201757482Y-46905908D01*
X201757483Y-46905908D01*
X201697883Y-46899501D01*
X201697881Y-46899500D01*
X201697873Y-46899500D01*
X201697864Y-46899500D01*
X199902129Y-46899500D01*
X199902123Y-46899501D01*
X199842516Y-46905908D01*
X199707671Y-46956202D01*
X199707664Y-46956206D01*
X199592455Y-47042452D01*
X199592452Y-47042455D01*
X199506206Y-47157664D01*
X199506203Y-47157669D01*
X199457189Y-47289083D01*
X199415317Y-47345016D01*
X199349853Y-47369433D01*
X199281580Y-47354581D01*
X199253326Y-47333430D01*
X199131402Y-47211506D01*
X199131395Y-47211501D01*
X198937834Y-47075967D01*
X198937830Y-47075965D01*
X198937828Y-47075964D01*
X198723663Y-46976097D01*
X198723659Y-46976096D01*
X198723655Y-46976094D01*
X198495413Y-46914938D01*
X198495403Y-46914936D01*
X198260001Y-46894341D01*
X198259999Y-46894341D01*
X198024596Y-46914936D01*
X198024586Y-46914938D01*
X197796344Y-46976094D01*
X197796335Y-46976098D01*
X197582171Y-47075964D01*
X197582169Y-47075965D01*
X197388597Y-47211505D01*
X197221505Y-47378597D01*
X197091575Y-47564158D01*
X197036998Y-47607783D01*
X196967500Y-47614977D01*
X196905145Y-47583454D01*
X196888425Y-47564158D01*
X196758494Y-47378597D01*
X196591402Y-47211506D01*
X196591395Y-47211501D01*
X196397834Y-47075967D01*
X196397830Y-47075965D01*
X196397828Y-47075964D01*
X196183663Y-46976097D01*
X196183659Y-46976096D01*
X196183655Y-46976094D01*
X195955413Y-46914938D01*
X195955403Y-46914936D01*
X195720001Y-46894341D01*
X195719999Y-46894341D01*
X195484596Y-46914936D01*
X195484586Y-46914938D01*
X195256344Y-46976094D01*
X195256335Y-46976098D01*
X195042171Y-47075964D01*
X195042169Y-47075965D01*
X194848597Y-47211505D01*
X194681505Y-47378597D01*
X194551575Y-47564158D01*
X194496998Y-47607783D01*
X194427500Y-47614977D01*
X194365145Y-47583454D01*
X194348425Y-47564158D01*
X194218494Y-47378597D01*
X194051402Y-47211506D01*
X194051395Y-47211501D01*
X193857834Y-47075967D01*
X193857830Y-47075965D01*
X193857828Y-47075964D01*
X193643663Y-46976097D01*
X193643659Y-46976096D01*
X193643655Y-46976094D01*
X193415413Y-46914938D01*
X193415403Y-46914936D01*
X193180001Y-46894341D01*
X193179999Y-46894341D01*
X192944596Y-46914936D01*
X192944586Y-46914938D01*
X192716344Y-46976094D01*
X192716335Y-46976098D01*
X192502171Y-47075964D01*
X192502169Y-47075965D01*
X192308597Y-47211505D01*
X192141505Y-47378597D01*
X192005965Y-47572169D01*
X192005964Y-47572171D01*
X191906098Y-47786335D01*
X191906094Y-47786344D01*
X191844938Y-48014586D01*
X191844936Y-48014596D01*
X191824341Y-48249999D01*
X191824341Y-48250000D01*
X188925499Y-48250000D01*
X188925499Y-47427128D01*
X188919091Y-47367517D01*
X188914266Y-47354581D01*
X188868797Y-47232671D01*
X188868793Y-47232664D01*
X188782547Y-47117455D01*
X188782544Y-47117452D01*
X188667335Y-47031206D01*
X188667328Y-47031202D01*
X188532482Y-46980908D01*
X188532483Y-46980908D01*
X188472883Y-46974501D01*
X188472881Y-46974500D01*
X188472873Y-46974500D01*
X188472864Y-46974500D01*
X186677129Y-46974500D01*
X186677123Y-46974501D01*
X186617516Y-46980908D01*
X186482671Y-47031202D01*
X186482664Y-47031206D01*
X186367455Y-47117452D01*
X186367452Y-47117455D01*
X186281206Y-47232664D01*
X186281202Y-47232671D01*
X186230908Y-47367517D01*
X186224501Y-47427116D01*
X186224501Y-47427123D01*
X186224500Y-47427135D01*
X186224500Y-49222870D01*
X183517498Y-49222870D01*
X183520185Y-49213719D01*
X183530485Y-49200936D01*
X183530018Y-49200544D01*
X183533482Y-49196413D01*
X183533495Y-49196401D01*
X183669035Y-49002830D01*
X183768903Y-48788663D01*
X183830063Y-48560408D01*
X183850659Y-48325000D01*
X183830063Y-48089592D01*
X183783626Y-47916285D01*
X183768905Y-47861344D01*
X183768904Y-47861343D01*
X183768903Y-47861337D01*
X183669035Y-47647171D01*
X183641456Y-47607783D01*
X183533494Y-47453597D01*
X183366402Y-47286506D01*
X183366395Y-47286501D01*
X183361596Y-47283141D01*
X183325780Y-47258062D01*
X183172834Y-47150967D01*
X183172830Y-47150965D01*
X183172828Y-47150964D01*
X182958663Y-47051097D01*
X182958659Y-47051096D01*
X182958655Y-47051094D01*
X182730413Y-46989938D01*
X182730403Y-46989936D01*
X182495001Y-46969341D01*
X182494999Y-46969341D01*
X182259596Y-46989936D01*
X182259586Y-46989938D01*
X182031344Y-47051094D01*
X182031335Y-47051098D01*
X181817171Y-47150964D01*
X181817169Y-47150965D01*
X181708474Y-47227075D01*
X181642268Y-47249402D01*
X181637351Y-47249500D01*
X162887477Y-47249500D01*
X162798437Y-47247244D01*
X162798426Y-47247245D01*
X162738071Y-47258062D01*
X162733407Y-47258716D01*
X162672363Y-47264925D01*
X162672355Y-47264927D01*
X162639581Y-47275210D01*
X162631953Y-47277082D01*
X162598149Y-47283141D01*
X162541181Y-47305895D01*
X162536745Y-47307474D01*
X162478214Y-47325840D01*
X162478210Y-47325842D01*
X162448178Y-47342510D01*
X162441084Y-47345879D01*
X162409182Y-47358623D01*
X162409177Y-47358625D01*
X162357956Y-47392381D01*
X162353928Y-47394822D01*
X162300301Y-47424588D01*
X162274234Y-47446965D01*
X162267965Y-47451692D01*
X162239284Y-47470595D01*
X162239278Y-47470600D01*
X162195909Y-47513968D01*
X162192455Y-47517169D01*
X162145902Y-47557136D01*
X162124876Y-47584298D01*
X162119685Y-47590192D01*
X160540183Y-49169696D01*
X160540181Y-49169698D01*
X159551531Y-50158347D01*
X159486946Y-50219742D01*
X159451899Y-50270094D01*
X159449062Y-50273856D01*
X159410302Y-50321392D01*
X159410299Y-50321397D01*
X159394392Y-50351847D01*
X159390324Y-50358561D01*
X159370702Y-50386754D01*
X159346509Y-50443130D01*
X159344488Y-50447384D01*
X159316091Y-50501751D01*
X159316090Y-50501752D01*
X159306640Y-50534775D01*
X159304007Y-50542171D01*
X159290459Y-50573743D01*
X159278113Y-50633819D01*
X159276990Y-50638395D01*
X159260113Y-50697377D01*
X159260113Y-50697379D01*
X159257503Y-50731641D01*
X159256414Y-50739408D01*
X159254238Y-50750001D01*
X159249500Y-50773058D01*
X159249500Y-50834397D01*
X159249321Y-50839106D01*
X159244662Y-50900274D01*
X159245380Y-50905908D01*
X159249003Y-50934360D01*
X159249500Y-50942188D01*
X159249500Y-71082682D01*
X159229815Y-71149721D01*
X159206271Y-71176767D01*
X159151535Y-71223756D01*
X159151526Y-71223766D01*
X159033205Y-71376624D01*
X159033203Y-71376628D01*
X158948068Y-71550187D01*
X158899616Y-71737317D01*
X158899615Y-71737323D01*
X158889824Y-71930390D01*
X158919095Y-72121466D01*
X158919098Y-72121478D01*
X158986234Y-72302748D01*
X158986238Y-72302757D01*
X159088488Y-72466803D01*
X159088492Y-72466808D01*
X159215374Y-72600288D01*
X159247295Y-72662440D01*
X159249500Y-72685720D01*
X159249500Y-73506802D01*
X159240635Y-73546807D01*
X159242458Y-73547411D01*
X159240186Y-73554264D01*
X159240186Y-73554266D01*
X159220335Y-73614173D01*
X159187273Y-73713946D01*
X159147500Y-73771391D01*
X159082984Y-73798214D01*
X159043788Y-73796233D01*
X158946246Y-73775500D01*
X158756954Y-73775500D01*
X158724497Y-73782398D01*
X158571797Y-73814855D01*
X158571792Y-73814857D01*
X158398870Y-73891848D01*
X158398865Y-73891851D01*
X158245729Y-74003111D01*
X158119065Y-74143785D01*
X158024421Y-74307714D01*
X158024420Y-74307716D01*
X158023262Y-74311282D01*
X157993014Y-74360638D01*
X156328473Y-76025181D01*
X156267150Y-76058666D01*
X156240792Y-76061500D01*
X156216954Y-76061500D01*
X156184497Y-76068398D01*
X156031797Y-76100855D01*
X156031792Y-76100857D01*
X155858870Y-76177848D01*
X155858865Y-76177851D01*
X155705729Y-76289111D01*
X155579066Y-76429785D01*
X155484421Y-76593715D01*
X155484418Y-76593722D01*
X155425927Y-76773740D01*
X155425926Y-76773744D01*
X155406140Y-76962000D01*
X155425926Y-77150256D01*
X155425927Y-77150259D01*
X155484418Y-77330277D01*
X155484421Y-77330284D01*
X155579067Y-77494216D01*
X155705729Y-77634888D01*
X155858865Y-77746148D01*
X155858870Y-77746151D01*
X156031792Y-77823142D01*
X156031797Y-77823144D01*
X156216954Y-77862500D01*
X156216955Y-77862500D01*
X156406244Y-77862500D01*
X156406246Y-77862500D01*
X156591403Y-77823144D01*
X156764330Y-77746151D01*
X156917471Y-77634888D01*
X157044133Y-77494216D01*
X157138779Y-77330284D01*
X157197274Y-77150256D01*
X157210768Y-77021855D01*
X157237352Y-76957242D01*
X157246399Y-76947145D01*
X158593965Y-75599579D01*
X158655286Y-75566096D01*
X158707424Y-75565972D01*
X158756954Y-75576500D01*
X158756955Y-75576500D01*
X158946244Y-75576500D01*
X158946246Y-75576500D01*
X159099721Y-75543878D01*
X159169386Y-75549194D01*
X159225120Y-75591331D01*
X159249225Y-75656911D01*
X159249500Y-75665168D01*
X159249500Y-75894402D01*
X159240635Y-75934407D01*
X159242458Y-75935011D01*
X159240187Y-75941864D01*
X159240186Y-75941866D01*
X159185001Y-76108403D01*
X159185001Y-76108404D01*
X159185000Y-76108404D01*
X159174500Y-76211183D01*
X159174500Y-77611201D01*
X159174501Y-77611218D01*
X159185000Y-77713996D01*
X159185001Y-77713999D01*
X159242458Y-77887390D01*
X159240631Y-77887995D01*
X159249500Y-77927998D01*
X159249500Y-85928917D01*
X159229815Y-85995956D01*
X159213181Y-86016598D01*
X157508196Y-87721582D01*
X157446873Y-87755067D01*
X157377181Y-87750083D01*
X157321248Y-87708211D01*
X157296831Y-87642747D01*
X157311683Y-87574474D01*
X157317870Y-87564332D01*
X157375117Y-87479900D01*
X157545298Y-87158905D01*
X157679775Y-86821391D01*
X157694670Y-86767746D01*
X157715153Y-86693969D01*
X157776973Y-86471316D01*
X157835751Y-86112785D01*
X157855421Y-85750000D01*
X157835751Y-85387215D01*
X157776973Y-85028684D01*
X157746809Y-84920043D01*
X157679778Y-84678618D01*
X157679773Y-84678603D01*
X157545299Y-84341098D01*
X157545298Y-84341095D01*
X157375117Y-84020100D01*
X157171227Y-83719386D01*
X156936021Y-83442479D01*
X156672254Y-83192625D01*
X156672244Y-83192617D01*
X156565067Y-83111144D01*
X156383019Y-82972755D01*
X156071708Y-82785445D01*
X156071707Y-82785444D01*
X156071703Y-82785442D01*
X156071699Y-82785440D01*
X155741979Y-82632896D01*
X155741974Y-82632894D01*
X155741969Y-82632892D01*
X155574143Y-82576344D01*
X155397669Y-82516883D01*
X155042845Y-82438781D01*
X154681660Y-82399500D01*
X154681659Y-82399500D01*
X154318341Y-82399500D01*
X154318339Y-82399500D01*
X153957154Y-82438781D01*
X153602330Y-82516883D01*
X153336178Y-82606560D01*
X153258031Y-82632892D01*
X153258028Y-82632893D01*
X153258020Y-82632896D01*
X152928300Y-82785440D01*
X152928296Y-82785442D01*
X152699860Y-82922888D01*
X152616981Y-82972755D01*
X152536220Y-83034148D01*
X152327755Y-83192617D01*
X152327745Y-83192625D01*
X152063978Y-83442479D01*
X151828772Y-83719386D01*
X151624884Y-84020098D01*
X151624878Y-84020107D01*
X151454706Y-84341086D01*
X151454700Y-84341098D01*
X151320226Y-84678603D01*
X151320223Y-84678614D01*
X151243980Y-84953217D01*
X151207078Y-85012546D01*
X151143958Y-85042507D01*
X151074660Y-85033586D01*
X151021186Y-84988616D01*
X151000514Y-84921875D01*
X151000500Y-84920043D01*
X151000500Y-78533001D01*
X151532500Y-78533001D01*
X151532501Y-78533019D01*
X151543000Y-78635796D01*
X151543001Y-78635799D01*
X151597848Y-78801313D01*
X151598186Y-78802334D01*
X151690288Y-78951656D01*
X151814344Y-79075712D01*
X151963666Y-79167814D01*
X152068506Y-79202554D01*
X152125949Y-79242325D01*
X152152772Y-79306841D01*
X152153500Y-79320259D01*
X152153500Y-80069671D01*
X152133815Y-80136710D01*
X152089678Y-80178090D01*
X151962207Y-80248842D01*
X151962206Y-80248842D01*
X151815533Y-80374758D01*
X151815531Y-80374759D01*
X151697205Y-80527624D01*
X151697203Y-80527628D01*
X151612068Y-80701187D01*
X151563616Y-80888317D01*
X151563615Y-80888323D01*
X151553824Y-81081390D01*
X151583095Y-81272466D01*
X151583098Y-81272478D01*
X151650234Y-81453748D01*
X151650238Y-81453757D01*
X151752488Y-81617803D01*
X151752489Y-81617804D01*
X151752491Y-81617807D01*
X151885677Y-81757919D01*
X152044342Y-81868353D01*
X152221988Y-81944587D01*
X152411344Y-81983500D01*
X153356207Y-81983500D01*
X153500322Y-81968845D01*
X153684759Y-81910977D01*
X153684760Y-81910976D01*
X153684768Y-81910974D01*
X153853791Y-81817159D01*
X154000468Y-81691240D01*
X154118796Y-81538373D01*
X154203930Y-81364816D01*
X154252385Y-81177674D01*
X154257268Y-81081390D01*
X155573824Y-81081390D01*
X155603095Y-81272466D01*
X155603098Y-81272478D01*
X155670234Y-81453748D01*
X155670238Y-81453757D01*
X155772488Y-81617803D01*
X155772489Y-81617804D01*
X155772491Y-81617807D01*
X155905677Y-81757919D01*
X156064342Y-81868353D01*
X156241988Y-81944587D01*
X156431344Y-81983500D01*
X157676207Y-81983500D01*
X157820322Y-81968845D01*
X158004759Y-81910977D01*
X158004760Y-81910976D01*
X158004768Y-81910974D01*
X158173791Y-81817159D01*
X158320468Y-81691240D01*
X158438796Y-81538373D01*
X158523930Y-81364816D01*
X158572385Y-81177674D01*
X158582176Y-80984610D01*
X158552903Y-80793526D01*
X158485764Y-80612247D01*
X158433020Y-80527627D01*
X158383511Y-80448196D01*
X158383510Y-80448195D01*
X158383509Y-80448193D01*
X158250323Y-80308081D01*
X158190521Y-80266457D01*
X158091657Y-80197646D01*
X157914012Y-80121413D01*
X157724656Y-80082500D01*
X157159144Y-80082500D01*
X157092105Y-80062815D01*
X157046350Y-80010011D01*
X157036406Y-79940853D01*
X157057839Y-79886992D01*
X157081377Y-79853647D01*
X157132054Y-79711056D01*
X157142381Y-79560079D01*
X157131169Y-79506124D01*
X157111594Y-79411921D01*
X157111592Y-79411918D01*
X157111592Y-79411915D01*
X157041971Y-79277553D01*
X157041967Y-79277549D01*
X157041967Y-79277548D01*
X156938681Y-79166956D01*
X156830549Y-79101200D01*
X156809382Y-79088328D01*
X156663665Y-79047500D01*
X156550342Y-79047500D01*
X156550341Y-79047500D01*
X156438082Y-79062929D01*
X156438079Y-79062930D01*
X156299283Y-79123217D01*
X156181889Y-79218724D01*
X156094623Y-79342352D01*
X156094621Y-79342355D01*
X156043946Y-79484939D01*
X156043946Y-79484942D01*
X156033619Y-79635918D01*
X156033619Y-79635921D01*
X156064405Y-79784078D01*
X156064407Y-79784083D01*
X156064408Y-79784085D01*
X156134029Y-79918447D01*
X156177067Y-79964529D01*
X156208438Y-80026960D01*
X156201078Y-80096441D01*
X156157321Y-80150912D01*
X156146621Y-80157585D01*
X155982207Y-80248842D01*
X155982206Y-80248842D01*
X155835533Y-80374758D01*
X155835531Y-80374759D01*
X155717205Y-80527624D01*
X155717203Y-80527628D01*
X155632068Y-80701187D01*
X155583616Y-80888317D01*
X155583615Y-80888323D01*
X155573824Y-81081390D01*
X154257268Y-81081390D01*
X154262176Y-80984610D01*
X154232903Y-80793526D01*
X154165764Y-80612247D01*
X154113020Y-80527627D01*
X154063511Y-80448196D01*
X154063510Y-80448195D01*
X154063509Y-80448193D01*
X153930323Y-80308081D01*
X153771658Y-80197647D01*
X153771656Y-80197646D01*
X153737598Y-80183030D01*
X153683755Y-80138503D01*
X153662533Y-80071934D01*
X153662500Y-80069080D01*
X153662500Y-79320259D01*
X153682185Y-79253220D01*
X153734989Y-79207465D01*
X153747480Y-79202559D01*
X153852334Y-79167814D01*
X154001656Y-79075712D01*
X154125712Y-78951656D01*
X154217814Y-78802334D01*
X154272999Y-78635797D01*
X154283500Y-78533009D01*
X154283499Y-77807992D01*
X154272999Y-77705203D01*
X154217814Y-77538666D01*
X154125712Y-77389344D01*
X154001656Y-77265288D01*
X153852334Y-77173186D01*
X153685797Y-77118001D01*
X153685795Y-77118000D01*
X153583010Y-77107500D01*
X152232998Y-77107500D01*
X152232981Y-77107501D01*
X152130203Y-77118000D01*
X152130200Y-77118001D01*
X151963668Y-77173185D01*
X151963663Y-77173187D01*
X151814342Y-77265289D01*
X151690289Y-77389342D01*
X151598187Y-77538663D01*
X151598186Y-77538666D01*
X151543001Y-77705203D01*
X151543001Y-77705204D01*
X151543000Y-77705204D01*
X151532500Y-77807983D01*
X151532500Y-78533001D01*
X151000500Y-78533001D01*
X151000500Y-72431390D01*
X151553824Y-72431390D01*
X151583095Y-72622466D01*
X151583098Y-72622478D01*
X151650234Y-72803748D01*
X151650238Y-72803757D01*
X151752488Y-72967803D01*
X151752489Y-72967804D01*
X151752491Y-72967807D01*
X151885677Y-73107919D01*
X152044342Y-73218353D01*
X152221988Y-73294587D01*
X152411344Y-73333500D01*
X153356207Y-73333500D01*
X153500322Y-73318845D01*
X153684759Y-73260977D01*
X153684760Y-73260976D01*
X153684768Y-73260974D01*
X153853791Y-73167159D01*
X154000468Y-73041240D01*
X154118796Y-72888373D01*
X154203930Y-72714816D01*
X154252385Y-72527674D01*
X154257268Y-72431390D01*
X155573824Y-72431390D01*
X155603095Y-72622466D01*
X155603098Y-72622478D01*
X155670234Y-72803748D01*
X155670238Y-72803757D01*
X155772488Y-72967803D01*
X155772489Y-72967804D01*
X155772491Y-72967807D01*
X155905677Y-73107919D01*
X156064342Y-73218353D01*
X156133255Y-73247926D01*
X156187098Y-73292451D01*
X156208321Y-73359020D01*
X156190186Y-73426495D01*
X156185659Y-73433384D01*
X156140364Y-73497553D01*
X156100332Y-73554266D01*
X156094621Y-73562356D01*
X156043946Y-73704939D01*
X156043946Y-73704942D01*
X156033619Y-73855918D01*
X156033619Y-73855921D01*
X156064405Y-74004078D01*
X156064407Y-74004083D01*
X156064408Y-74004085D01*
X156134029Y-74138447D01*
X156134031Y-74138449D01*
X156134032Y-74138451D01*
X156237318Y-74249043D01*
X156237320Y-74249044D01*
X156366618Y-74327672D01*
X156512335Y-74368500D01*
X156512336Y-74368500D01*
X156625659Y-74368500D01*
X156653723Y-74364642D01*
X156737920Y-74353070D01*
X156847854Y-74305318D01*
X156876716Y-74292782D01*
X156876716Y-74292781D01*
X156876720Y-74292780D01*
X156994108Y-74197278D01*
X157081377Y-74073647D01*
X157088255Y-74054293D01*
X157132053Y-73931060D01*
X157132053Y-73931058D01*
X157132054Y-73931056D01*
X157142381Y-73780079D01*
X157142380Y-73780074D01*
X157111594Y-73631921D01*
X157111592Y-73631917D01*
X157111592Y-73631915D01*
X157050776Y-73514547D01*
X157037411Y-73445969D01*
X157063244Y-73381051D01*
X157120074Y-73340404D01*
X157160874Y-73333500D01*
X157676207Y-73333500D01*
X157820322Y-73318845D01*
X158004759Y-73260977D01*
X158004760Y-73260976D01*
X158004768Y-73260974D01*
X158173791Y-73167159D01*
X158320468Y-73041240D01*
X158438796Y-72888373D01*
X158523930Y-72714816D01*
X158572385Y-72527674D01*
X158582176Y-72334610D01*
X158552903Y-72143526D01*
X158485764Y-71962247D01*
X158465908Y-71930390D01*
X158383511Y-71798196D01*
X158383510Y-71798195D01*
X158383509Y-71798193D01*
X158250323Y-71658081D01*
X158227491Y-71642189D01*
X158091657Y-71547646D01*
X157914012Y-71471413D01*
X157724656Y-71432500D01*
X156479794Y-71432500D01*
X156479793Y-71432500D01*
X156335677Y-71447154D01*
X156151240Y-71505022D01*
X156151225Y-71505029D01*
X155982211Y-71598839D01*
X155982206Y-71598842D01*
X155835533Y-71724758D01*
X155835531Y-71724759D01*
X155717205Y-71877624D01*
X155717203Y-71877628D01*
X155632068Y-72051187D01*
X155583616Y-72238317D01*
X155583615Y-72238323D01*
X155573824Y-72431390D01*
X154257268Y-72431390D01*
X154262176Y-72334610D01*
X154232903Y-72143526D01*
X154165764Y-71962247D01*
X154145908Y-71930390D01*
X154063511Y-71798196D01*
X154063510Y-71798195D01*
X154063509Y-71798193D01*
X153930323Y-71658081D01*
X153907491Y-71642189D01*
X153771657Y-71547646D01*
X153594012Y-71471413D01*
X153404656Y-71432500D01*
X152459794Y-71432500D01*
X152459793Y-71432500D01*
X152315677Y-71447154D01*
X152131240Y-71505022D01*
X152131225Y-71505029D01*
X151962211Y-71598839D01*
X151962206Y-71598842D01*
X151815533Y-71724758D01*
X151815531Y-71724759D01*
X151697205Y-71877624D01*
X151697203Y-71877628D01*
X151612068Y-72051187D01*
X151563616Y-72238317D01*
X151563615Y-72238323D01*
X151553824Y-72431390D01*
X151000500Y-72431390D01*
X151000500Y-71244000D01*
X151020185Y-71176961D01*
X151072989Y-71131206D01*
X151124500Y-71120000D01*
X157480000Y-71120000D01*
X157480000Y-52324000D01*
X151124500Y-52324000D01*
X151057461Y-52304315D01*
X151011706Y-52251511D01*
X151000500Y-52200000D01*
X151000500Y-49079956D01*
X151020185Y-49012917D01*
X151072989Y-48967162D01*
X151142147Y-48957218D01*
X151205703Y-48986243D01*
X151243477Y-49045021D01*
X151243980Y-49046783D01*
X151320221Y-49321381D01*
X151320226Y-49321396D01*
X151454700Y-49658901D01*
X151454706Y-49658913D01*
X151624878Y-49979892D01*
X151624881Y-49979897D01*
X151624883Y-49979900D01*
X151726828Y-50130257D01*
X151828772Y-50280613D01*
X152050941Y-50542171D01*
X152063979Y-50557521D01*
X152327746Y-50807375D01*
X152616981Y-51027245D01*
X152928292Y-51214555D01*
X152928294Y-51214556D01*
X152928296Y-51214557D01*
X152928300Y-51214559D01*
X153200698Y-51340583D01*
X153258031Y-51367108D01*
X153602330Y-51483116D01*
X153957153Y-51561218D01*
X154318341Y-51600500D01*
X154318347Y-51600500D01*
X154681653Y-51600500D01*
X154681659Y-51600500D01*
X155042847Y-51561218D01*
X155397670Y-51483116D01*
X155741969Y-51367108D01*
X156071708Y-51214555D01*
X156383019Y-51027245D01*
X156672254Y-50807375D01*
X156936021Y-50557521D01*
X157171227Y-50280614D01*
X157375117Y-49979900D01*
X157545298Y-49658905D01*
X157679775Y-49321391D01*
X157776973Y-48971316D01*
X157835751Y-48612785D01*
X157855421Y-48250000D01*
X157835751Y-47887215D01*
X157831508Y-47861335D01*
X157776975Y-47528696D01*
X157776974Y-47528695D01*
X157776973Y-47528684D01*
X157735302Y-47378599D01*
X157679778Y-47178618D01*
X157679773Y-47178603D01*
X157590123Y-46953599D01*
X157545298Y-46841095D01*
X157375117Y-46520100D01*
X157171227Y-46219386D01*
X156936021Y-45942479D01*
X156672254Y-45692625D01*
X156672244Y-45692617D01*
X156603635Y-45640462D01*
X156383019Y-45472755D01*
X156071708Y-45285445D01*
X156071707Y-45285444D01*
X156071703Y-45285442D01*
X156071699Y-45285440D01*
X155741979Y-45132896D01*
X155741974Y-45132894D01*
X155741969Y-45132892D01*
X155554743Y-45069808D01*
X155397669Y-45016883D01*
X155300980Y-44995601D01*
X155239739Y-44961965D01*
X155206405Y-44900560D01*
X155211561Y-44830881D01*
X155253570Y-44775050D01*
X155319094Y-44750795D01*
X155327636Y-44750500D01*
X238172364Y-44750500D01*
X238239403Y-44770185D01*
G37*
G04 #@! TD.AperFunction*
G04 #@! TA.AperFunction,Conductor*
G36*
X155411234Y-92750899D02*
G01*
X155467167Y-92792771D01*
X155491584Y-92858235D01*
X155491900Y-92867081D01*
X155491900Y-93689801D01*
X155491901Y-93689818D01*
X155502400Y-93792596D01*
X155502401Y-93792599D01*
X155545651Y-93923117D01*
X155557586Y-93959134D01*
X155604919Y-94035874D01*
X155623359Y-94103264D01*
X155602437Y-94169928D01*
X155548795Y-94214698D01*
X155540336Y-94218010D01*
X155386394Y-94271878D01*
X155238423Y-94364853D01*
X155114853Y-94488423D01*
X155021877Y-94636395D01*
X154964159Y-94801341D01*
X154964157Y-94801351D01*
X154949500Y-94931441D01*
X154949500Y-96068558D01*
X154964157Y-96198648D01*
X154964159Y-96198658D01*
X155021877Y-96363604D01*
X155021878Y-96363606D01*
X155114853Y-96511576D01*
X155238424Y-96635147D01*
X155386394Y-96728122D01*
X155551343Y-96785841D01*
X155561307Y-96786963D01*
X155625721Y-96814026D01*
X155665279Y-96871619D01*
X155667421Y-96941456D01*
X155635110Y-96997865D01*
X154469795Y-98163181D01*
X154408472Y-98196666D01*
X154382114Y-98199500D01*
X153881441Y-98199500D01*
X153751351Y-98214157D01*
X153751341Y-98214159D01*
X153685951Y-98237041D01*
X153644996Y-98244000D01*
X153187730Y-98244000D01*
X153120691Y-98224315D01*
X153100049Y-98207681D01*
X152985657Y-98093289D01*
X152985656Y-98093288D01*
X152868644Y-98021115D01*
X152836336Y-98001187D01*
X152836331Y-98001185D01*
X152783498Y-97983678D01*
X152669797Y-97946001D01*
X152669795Y-97946000D01*
X152567010Y-97935500D01*
X151216998Y-97935500D01*
X151216978Y-97935502D01*
X151137100Y-97943661D01*
X151068407Y-97930891D01*
X151017524Y-97883009D01*
X151000500Y-97820303D01*
X151000500Y-97251696D01*
X151020185Y-97184657D01*
X151072989Y-97138902D01*
X151137101Y-97128338D01*
X151216991Y-97136500D01*
X152567008Y-97136499D01*
X152669797Y-97125999D01*
X152836334Y-97070814D01*
X152985656Y-96978712D01*
X153109712Y-96854656D01*
X153201814Y-96705334D01*
X153256999Y-96538797D01*
X153267500Y-96436009D01*
X153267499Y-95710992D01*
X153256999Y-95608203D01*
X153201814Y-95441666D01*
X153109712Y-95292344D01*
X153026175Y-95208807D01*
X152992690Y-95147484D01*
X152997674Y-95077792D01*
X153026175Y-95033445D01*
X153633002Y-94426618D01*
X153694325Y-94393133D01*
X153720683Y-94390299D01*
X153992402Y-94390299D01*
X153992408Y-94390299D01*
X154095197Y-94379799D01*
X154261734Y-94324614D01*
X154411056Y-94232512D01*
X154535112Y-94108456D01*
X154627214Y-93959134D01*
X154682399Y-93792597D01*
X154692900Y-93689809D01*
X154692899Y-93418080D01*
X154712583Y-93351042D01*
X154729213Y-93330405D01*
X155280220Y-92779399D01*
X155341542Y-92745915D01*
X155411234Y-92750899D01*
G37*
G04 #@! TD.AperFunction*
G04 #@! TA.AperFunction,Conductor*
G36*
X161455703Y-71984692D02*
G01*
X161493477Y-72043470D01*
X161497819Y-72065435D01*
X161498326Y-72070256D01*
X161498327Y-72070259D01*
X161556818Y-72250277D01*
X161556821Y-72250284D01*
X161651467Y-72414216D01*
X161778129Y-72554888D01*
X161931265Y-72666148D01*
X161931270Y-72666151D01*
X162104192Y-72743142D01*
X162104195Y-72743143D01*
X162104197Y-72743144D01*
X162289354Y-72782500D01*
X162289355Y-72782500D01*
X162478644Y-72782500D01*
X162478646Y-72782500D01*
X162663803Y-72743144D01*
X162836730Y-72666151D01*
X162946117Y-72586676D01*
X163011920Y-72563198D01*
X163079974Y-72579023D01*
X163091871Y-72586668D01*
X163146398Y-72626284D01*
X163201270Y-72666151D01*
X163374192Y-72743142D01*
X163374195Y-72743143D01*
X163374197Y-72743144D01*
X163559354Y-72782500D01*
X163559355Y-72782500D01*
X163748644Y-72782500D01*
X163748646Y-72782500D01*
X163933803Y-72743144D01*
X164007466Y-72710346D01*
X164076713Y-72701061D01*
X164139990Y-72730689D01*
X164177204Y-72789823D01*
X164181900Y-72823626D01*
X164181900Y-88399714D01*
X164162215Y-88466753D01*
X164145581Y-88487395D01*
X157522824Y-95110151D01*
X157461501Y-95143636D01*
X157391809Y-95138652D01*
X157335876Y-95096780D01*
X157311459Y-95031316D01*
X157311615Y-95011657D01*
X157311644Y-95011315D01*
X157311646Y-95011306D01*
X157309400Y-94934118D01*
X157309400Y-94310530D01*
X157329085Y-94243491D01*
X157345719Y-94222849D01*
X157398640Y-94169928D01*
X157460112Y-94108456D01*
X157552214Y-93959134D01*
X157607399Y-93792597D01*
X157617900Y-93689809D01*
X157617899Y-92339792D01*
X157607399Y-92237003D01*
X157552214Y-92070466D01*
X157460112Y-91921144D01*
X157336056Y-91797088D01*
X157243288Y-91739869D01*
X157186736Y-91704987D01*
X157186731Y-91704985D01*
X157165223Y-91697858D01*
X157020197Y-91649801D01*
X157020195Y-91649800D01*
X156917416Y-91639300D01*
X156917409Y-91639300D01*
X156719681Y-91639300D01*
X156652642Y-91619615D01*
X156606887Y-91566811D01*
X156596943Y-91497653D01*
X156625968Y-91434097D01*
X156632000Y-91427619D01*
X158787720Y-89271899D01*
X160948467Y-87111152D01*
X161013053Y-87049759D01*
X161048099Y-86999406D01*
X161050938Y-86995641D01*
X161054612Y-86991135D01*
X161089698Y-86948107D01*
X161105601Y-86917660D01*
X161109674Y-86910939D01*
X161114489Y-86904020D01*
X161129295Y-86882749D01*
X161153492Y-86826360D01*
X161155498Y-86822135D01*
X161183909Y-86767749D01*
X161193360Y-86734715D01*
X161195991Y-86727328D01*
X161209540Y-86695758D01*
X161221893Y-86635640D01*
X161223006Y-86631112D01*
X161239887Y-86572118D01*
X161242495Y-86537855D01*
X161243587Y-86530076D01*
X161247114Y-86512917D01*
X161250500Y-86496441D01*
X161250500Y-86435101D01*
X161250679Y-86430392D01*
X161255337Y-86369226D01*
X161250997Y-86335142D01*
X161250500Y-86327303D01*
X161250500Y-77927998D01*
X161259368Y-77887995D01*
X161257542Y-77887390D01*
X161278831Y-77823144D01*
X161314999Y-77713997D01*
X161325500Y-77611209D01*
X161325499Y-76211192D01*
X161314999Y-76108403D01*
X161259814Y-75941866D01*
X161259813Y-75941864D01*
X161257542Y-75935011D01*
X161259364Y-75934407D01*
X161250500Y-75894402D01*
X161250500Y-75540398D01*
X161259368Y-75500395D01*
X161257542Y-75499790D01*
X161261034Y-75489253D01*
X161314999Y-75326397D01*
X161325500Y-75223609D01*
X161325499Y-73823592D01*
X161323449Y-73803528D01*
X161314999Y-73720803D01*
X161314998Y-73720800D01*
X161300213Y-73676183D01*
X161259814Y-73554266D01*
X161259813Y-73554264D01*
X161257542Y-73547411D01*
X161259364Y-73546807D01*
X161250500Y-73506802D01*
X161250500Y-72078405D01*
X161270185Y-72011366D01*
X161322989Y-71965611D01*
X161392147Y-71955667D01*
X161455703Y-71984692D01*
G37*
G04 #@! TD.AperFunction*
G04 #@! TA.AperFunction,Conductor*
G36*
X151205703Y-86486243D02*
G01*
X151243477Y-86545021D01*
X151243980Y-86546783D01*
X151320221Y-86821381D01*
X151320226Y-86821396D01*
X151454700Y-87158901D01*
X151454706Y-87158913D01*
X151624878Y-87479892D01*
X151624884Y-87479901D01*
X151811451Y-87755067D01*
X151828773Y-87780614D01*
X152063979Y-88057521D01*
X152327746Y-88307375D01*
X152616981Y-88527245D01*
X152928292Y-88714555D01*
X152928294Y-88714556D01*
X152928296Y-88714557D01*
X152928300Y-88714559D01*
X153192966Y-88837006D01*
X153258031Y-88867108D01*
X153602330Y-88983116D01*
X153957153Y-89061218D01*
X154318341Y-89100500D01*
X154318347Y-89100500D01*
X154681653Y-89100500D01*
X154681659Y-89100500D01*
X155042847Y-89061218D01*
X155397670Y-88983116D01*
X155741969Y-88867108D01*
X156071708Y-88714555D01*
X156317683Y-88566556D01*
X156385272Y-88548861D01*
X156451700Y-88570517D01*
X156495876Y-88624650D01*
X156503772Y-88694072D01*
X156472883Y-88756742D01*
X156469290Y-88760488D01*
X153626797Y-91602981D01*
X153565474Y-91636466D01*
X153539116Y-91639300D01*
X153267399Y-91639300D01*
X153267380Y-91639301D01*
X153164603Y-91649800D01*
X153164600Y-91649801D01*
X152998068Y-91704985D01*
X152998063Y-91704987D01*
X152848742Y-91797089D01*
X152724689Y-91921142D01*
X152632587Y-92070463D01*
X152632586Y-92070466D01*
X152577401Y-92237003D01*
X152577401Y-92237004D01*
X152577400Y-92237004D01*
X152566900Y-92339783D01*
X152566900Y-92611516D01*
X152547215Y-92678555D01*
X152530581Y-92699197D01*
X151212181Y-94017597D01*
X151150858Y-94051082D01*
X151081166Y-94046098D01*
X151025233Y-94004226D01*
X151000816Y-93938762D01*
X151000500Y-93929916D01*
X151000500Y-86579956D01*
X151020185Y-86512917D01*
X151072989Y-86467162D01*
X151142147Y-86457218D01*
X151205703Y-86486243D01*
G37*
G04 #@! TD.AperFunction*
G04 #@! TA.AperFunction,Conductor*
G36*
X164073427Y-50964108D02*
G01*
X164129361Y-51005980D01*
X164148025Y-51041971D01*
X164172819Y-51118280D01*
X164172821Y-51118284D01*
X164228403Y-51214555D01*
X164228887Y-51215392D01*
X164245500Y-51277392D01*
X164245500Y-54852400D01*
X164244191Y-54870369D01*
X164240684Y-54894308D01*
X164245264Y-54946641D01*
X164245500Y-54952048D01*
X164245500Y-54960346D01*
X164249325Y-54993074D01*
X164256056Y-55070010D01*
X164257516Y-55077077D01*
X164257464Y-55077087D01*
X164259123Y-55084567D01*
X164259174Y-55084555D01*
X164260839Y-55091580D01*
X164287247Y-55164140D01*
X164311535Y-55237434D01*
X164314586Y-55243975D01*
X164314536Y-55243998D01*
X164317876Y-55250897D01*
X164317925Y-55250873D01*
X164321165Y-55257325D01*
X164363599Y-55321844D01*
X164404131Y-55387556D01*
X164408611Y-55393222D01*
X164408569Y-55393255D01*
X164413401Y-55399186D01*
X164413443Y-55399152D01*
X164418081Y-55404680D01*
X164418085Y-55404685D01*
X164446166Y-55431178D01*
X164474247Y-55457672D01*
X178865595Y-69849019D01*
X178899080Y-69910342D01*
X178894096Y-69980034D01*
X178852224Y-70035967D01*
X178786760Y-70060384D01*
X178777914Y-70060700D01*
X164784800Y-70060700D01*
X164766831Y-70059391D01*
X164742891Y-70055884D01*
X164702819Y-70059391D01*
X164690551Y-70060464D01*
X164685151Y-70060700D01*
X164676853Y-70060700D01*
X164644125Y-70064525D01*
X164567187Y-70071256D01*
X164560121Y-70072716D01*
X164560110Y-70072664D01*
X164552632Y-70074322D01*
X164552645Y-70074374D01*
X164545619Y-70076039D01*
X164545616Y-70076039D01*
X164545616Y-70076040D01*
X164483039Y-70098815D01*
X164473060Y-70102447D01*
X164399762Y-70126736D01*
X164393220Y-70129787D01*
X164393197Y-70129739D01*
X164386307Y-70133075D01*
X164386331Y-70133122D01*
X164379876Y-70136363D01*
X164315355Y-70178798D01*
X164249649Y-70219327D01*
X164243979Y-70223811D01*
X164243946Y-70223769D01*
X164238014Y-70228601D01*
X164238048Y-70228642D01*
X164232517Y-70233282D01*
X164179528Y-70289447D01*
X163494046Y-70974928D01*
X163432723Y-71008413D01*
X163432148Y-71008537D01*
X163374195Y-71020856D01*
X163374192Y-71020857D01*
X163312936Y-71048131D01*
X163243686Y-71057416D01*
X163180409Y-71027788D01*
X163143196Y-70968653D01*
X163138500Y-70934852D01*
X163138500Y-51847885D01*
X163158185Y-51780846D01*
X163174815Y-51760208D01*
X163942415Y-50992607D01*
X164003736Y-50959124D01*
X164073427Y-50964108D01*
G37*
G04 #@! TD.AperFunction*
G04 #@! TA.AperFunction,Conductor*
G36*
X181412694Y-50395990D02*
G01*
X181470742Y-50434876D01*
X181498552Y-50498973D01*
X181499500Y-50514280D01*
X181499500Y-51300103D01*
X181479815Y-51367142D01*
X181473920Y-51375148D01*
X181335965Y-51572169D01*
X181335964Y-51572171D01*
X181236098Y-51786335D01*
X181236094Y-51786344D01*
X181174938Y-52014586D01*
X181174936Y-52014596D01*
X181154341Y-52249999D01*
X181154341Y-52250000D01*
X181174936Y-52485403D01*
X181174938Y-52485413D01*
X181236094Y-52713655D01*
X181236096Y-52713659D01*
X181236097Y-52713663D01*
X181335965Y-52927830D01*
X181335967Y-52927834D01*
X181474610Y-53125836D01*
X181473344Y-53126721D01*
X181498501Y-53184185D01*
X181499500Y-53199896D01*
X181499500Y-59287837D01*
X181479815Y-59354876D01*
X181427011Y-59400631D01*
X181401459Y-59409089D01*
X181397207Y-59409999D01*
X181230668Y-59465185D01*
X181230663Y-59465187D01*
X181081342Y-59557289D01*
X180957289Y-59681342D01*
X180865187Y-59830663D01*
X180865186Y-59830666D01*
X180810001Y-59997203D01*
X180810001Y-59997204D01*
X180810000Y-59997204D01*
X180799500Y-60099983D01*
X180799500Y-61500001D01*
X180799501Y-61500018D01*
X180810000Y-61602796D01*
X180810001Y-61602799D01*
X180865185Y-61769331D01*
X180865187Y-61769336D01*
X180957289Y-61918657D01*
X180975951Y-61937319D01*
X181009436Y-61998642D01*
X181004452Y-62068334D01*
X180975951Y-62112681D01*
X180957288Y-62131343D01*
X180957287Y-62131344D01*
X180951580Y-62140598D01*
X180899632Y-62187322D01*
X180846042Y-62199500D01*
X180699257Y-62199500D01*
X180547560Y-62214925D01*
X180353420Y-62275837D01*
X180353405Y-62275844D01*
X180175500Y-62374589D01*
X180175495Y-62374592D01*
X180021106Y-62507132D01*
X180021104Y-62507134D01*
X179896554Y-62668037D01*
X179896553Y-62668040D01*
X179806940Y-62850728D01*
X179755937Y-63047714D01*
X179745631Y-63250936D01*
X179776442Y-63452063D01*
X179776445Y-63452075D01*
X179847111Y-63642881D01*
X179847113Y-63642884D01*
X179847114Y-63642887D01*
X179886583Y-63706209D01*
X179954745Y-63815567D01*
X179954749Y-63815572D01*
X180093351Y-63961381D01*
X180094941Y-63963053D01*
X180218130Y-64048795D01*
X180261949Y-64079294D01*
X180261950Y-64079294D01*
X180261951Y-64079295D01*
X180448942Y-64159540D01*
X180648259Y-64200500D01*
X180784362Y-64200500D01*
X180851401Y-64220185D01*
X180889899Y-64259401D01*
X180957288Y-64368656D01*
X181081344Y-64492712D01*
X181230666Y-64584814D01*
X181397203Y-64639999D01*
X181397209Y-64639999D01*
X181401448Y-64640907D01*
X181462884Y-64674185D01*
X181496576Y-64735394D01*
X181499500Y-64762162D01*
X181499500Y-64987283D01*
X181497243Y-65076362D01*
X181497243Y-65076370D01*
X181508064Y-65136739D01*
X181508718Y-65141404D01*
X181514925Y-65202430D01*
X181514927Y-65202444D01*
X181525208Y-65235213D01*
X181527079Y-65242837D01*
X181533142Y-65276652D01*
X181533142Y-65276655D01*
X181555894Y-65333612D01*
X181557474Y-65338051D01*
X181575841Y-65396588D01*
X181575844Y-65396595D01*
X181592509Y-65426619D01*
X181595879Y-65433714D01*
X181608622Y-65465614D01*
X181608627Y-65465624D01*
X181642377Y-65516833D01*
X181644818Y-65520863D01*
X181674588Y-65574498D01*
X181674589Y-65574499D01*
X181674591Y-65574502D01*
X181696968Y-65600567D01*
X181701693Y-65606835D01*
X181714263Y-65625906D01*
X181720598Y-65635519D01*
X181763978Y-65678899D01*
X181767169Y-65682343D01*
X181807131Y-65728892D01*
X181807134Y-65728895D01*
X181834294Y-65749918D01*
X181840190Y-65755111D01*
X182232098Y-66147019D01*
X182265583Y-66208342D01*
X182260599Y-66278034D01*
X182218727Y-66333967D01*
X182153263Y-66358384D01*
X182144417Y-66358700D01*
X182023354Y-66358700D01*
X181990897Y-66365598D01*
X181838197Y-66398055D01*
X181838192Y-66398057D01*
X181665270Y-66475048D01*
X181665265Y-66475051D01*
X181575568Y-66540220D01*
X181509761Y-66563700D01*
X181441708Y-66547874D01*
X181415002Y-66527583D01*
X178593628Y-63706209D01*
X178560143Y-63644886D01*
X178557990Y-63631506D01*
X178540674Y-63466744D01*
X178482179Y-63286716D01*
X178387533Y-63122784D01*
X178260871Y-62982112D01*
X178260870Y-62982111D01*
X178107734Y-62870851D01*
X178107729Y-62870848D01*
X177934807Y-62793857D01*
X177934802Y-62793855D01*
X177789001Y-62762865D01*
X177749646Y-62754500D01*
X177560354Y-62754500D01*
X177527897Y-62761398D01*
X177375197Y-62793855D01*
X177375192Y-62793857D01*
X177202270Y-62870848D01*
X177202265Y-62870851D01*
X177049129Y-62982111D01*
X176922466Y-63122785D01*
X176918105Y-63130338D01*
X176867536Y-63178552D01*
X176798928Y-63191772D01*
X176734065Y-63165802D01*
X176723039Y-63156015D01*
X168290819Y-54723795D01*
X168257334Y-54662472D01*
X168254500Y-54636114D01*
X168254500Y-51277392D01*
X168271113Y-51215392D01*
X168271595Y-51214557D01*
X168327179Y-51118284D01*
X168385674Y-50938256D01*
X168405460Y-50750000D01*
X168404562Y-50741460D01*
X168417131Y-50672733D01*
X168464862Y-50621709D01*
X168527883Y-50604500D01*
X179947349Y-50604500D01*
X180014388Y-50624185D01*
X180020234Y-50628182D01*
X180097265Y-50684148D01*
X180097270Y-50684151D01*
X180270192Y-50761142D01*
X180270197Y-50761144D01*
X180455354Y-50800500D01*
X180455355Y-50800500D01*
X180644644Y-50800500D01*
X180644646Y-50800500D01*
X180829803Y-50761144D01*
X181002730Y-50684151D01*
X181155871Y-50572888D01*
X181282533Y-50432216D01*
X181282534Y-50432214D01*
X181283350Y-50431308D01*
X181342837Y-50394659D01*
X181412694Y-50395990D01*
G37*
G04 #@! TD.AperFunction*
G04 #@! TA.AperFunction,Conductor*
G36*
X219453032Y-45550299D02*
G01*
X219514067Y-45556310D01*
X219632941Y-45568018D01*
X219656769Y-45572757D01*
X219821001Y-45622576D01*
X219843453Y-45631877D01*
X219994798Y-45712772D01*
X220015010Y-45726277D01*
X220147666Y-45835145D01*
X220164854Y-45852333D01*
X220273722Y-45984989D01*
X220287227Y-46005201D01*
X220368121Y-46156543D01*
X220377424Y-46179001D01*
X220427240Y-46343224D01*
X220431982Y-46367065D01*
X220449701Y-46546967D01*
X220450000Y-46553048D01*
X220450000Y-56196951D01*
X220449701Y-56203032D01*
X220431982Y-56382934D01*
X220427240Y-56406775D01*
X220377424Y-56570998D01*
X220368121Y-56593456D01*
X220287227Y-56744798D01*
X220273722Y-56765010D01*
X220164854Y-56897666D01*
X220147666Y-56914854D01*
X220052503Y-56992953D01*
X219988193Y-57020266D01*
X219973838Y-57021100D01*
X213126162Y-57021100D01*
X213059123Y-57001415D01*
X213047497Y-56992953D01*
X212952333Y-56914854D01*
X212935145Y-56897666D01*
X212826277Y-56765010D01*
X212812772Y-56744798D01*
X212731878Y-56593456D01*
X212722575Y-56570998D01*
X212672757Y-56406769D01*
X212668018Y-56382941D01*
X212650299Y-56203032D01*
X212650000Y-56196951D01*
X212650000Y-46553048D01*
X212650299Y-46546967D01*
X212654706Y-46502213D01*
X212668018Y-46367056D01*
X212672757Y-46343232D01*
X212722577Y-46178994D01*
X212731875Y-46156549D01*
X212812775Y-46005195D01*
X212826272Y-45984995D01*
X212935149Y-45852328D01*
X212952328Y-45835149D01*
X213084995Y-45726272D01*
X213105195Y-45712775D01*
X213256549Y-45631875D01*
X213278994Y-45622577D01*
X213443232Y-45572757D01*
X213467056Y-45568018D01*
X213581501Y-45556746D01*
X213646969Y-45550299D01*
X213653049Y-45550000D01*
X219446951Y-45550000D01*
X219453032Y-45550299D01*
G37*
G04 #@! TD.AperFunction*
G04 #@! TA.AperFunction,Conductor*
G36*
X232003032Y-45550299D02*
G01*
X232064067Y-45556310D01*
X232182941Y-45568018D01*
X232206769Y-45572757D01*
X232371001Y-45622576D01*
X232393453Y-45631877D01*
X232544798Y-45712772D01*
X232565010Y-45726277D01*
X232697666Y-45835145D01*
X232714854Y-45852333D01*
X232823722Y-45984989D01*
X232837227Y-46005201D01*
X232918121Y-46156543D01*
X232927424Y-46179001D01*
X232977240Y-46343224D01*
X232981982Y-46367065D01*
X232999701Y-46546967D01*
X233000000Y-46553048D01*
X233000000Y-56196951D01*
X232999701Y-56203032D01*
X232981982Y-56382934D01*
X232977240Y-56406775D01*
X232927424Y-56570998D01*
X232918121Y-56593456D01*
X232837227Y-56744798D01*
X232823722Y-56765010D01*
X232714854Y-56897666D01*
X232697666Y-56914854D01*
X232565010Y-57023722D01*
X232544798Y-57037227D01*
X232393456Y-57118121D01*
X232370998Y-57127424D01*
X232206775Y-57177240D01*
X232182934Y-57181982D01*
X232003032Y-57199701D01*
X231996951Y-57200000D01*
X226203049Y-57200000D01*
X226196968Y-57199701D01*
X226017065Y-57181982D01*
X225993224Y-57177240D01*
X225829001Y-57127424D01*
X225806543Y-57118121D01*
X225655201Y-57037227D01*
X225634989Y-57023722D01*
X225502333Y-56914854D01*
X225485145Y-56897666D01*
X225376277Y-56765010D01*
X225362772Y-56744798D01*
X225281878Y-56593456D01*
X225272575Y-56570998D01*
X225222757Y-56406769D01*
X225218018Y-56382941D01*
X225200299Y-56203032D01*
X225200000Y-56196951D01*
X225200000Y-46553048D01*
X225200299Y-46546967D01*
X225204706Y-46502213D01*
X225218018Y-46367056D01*
X225222757Y-46343232D01*
X225272577Y-46178994D01*
X225281875Y-46156549D01*
X225362775Y-46005195D01*
X225376272Y-45984995D01*
X225485149Y-45852328D01*
X225502328Y-45835149D01*
X225634995Y-45726272D01*
X225655195Y-45712775D01*
X225806549Y-45631875D01*
X225828994Y-45622577D01*
X225993232Y-45572757D01*
X226017056Y-45568018D01*
X226131501Y-45556746D01*
X226196969Y-45550299D01*
X226203049Y-45550000D01*
X231996951Y-45550000D01*
X232003032Y-45550299D01*
G37*
G04 #@! TD.AperFunction*
M02*
