G04 #@! TF.GenerationSoftware,KiCad,Pcbnew,7.0.8*
G04 #@! TF.CreationDate,2023-10-29T22:23:11+01:00*
G04 #@! TF.ProjectId,sumec,73756d65-632e-46b6-9963-61645f706362,rev?*
G04 #@! TF.SameCoordinates,Original*
G04 #@! TF.FileFunction,Paste,Top*
G04 #@! TF.FilePolarity,Positive*
%FSLAX46Y46*%
G04 Gerber Fmt 4.6, Leading zero omitted, Abs format (unit mm)*
G04 Created by KiCad (PCBNEW 7.0.8) date 2023-10-29 22:23:11*
%MOMM*%
%LPD*%
G01*
G04 APERTURE LIST*
G04 Aperture macros list*
%AMRoundRect*
0 Rectangle with rounded corners*
0 $1 Rounding radius*
0 $2 $3 $4 $5 $6 $7 $8 $9 X,Y pos of 4 corners*
0 Add a 4 corners polygon primitive as box body*
4,1,4,$2,$3,$4,$5,$6,$7,$8,$9,$2,$3,0*
0 Add four circle primitives for the rounded corners*
1,1,$1+$1,$2,$3*
1,1,$1+$1,$4,$5*
1,1,$1+$1,$6,$7*
1,1,$1+$1,$8,$9*
0 Add four rect primitives between the rounded corners*
20,1,$1+$1,$2,$3,$4,$5,0*
20,1,$1+$1,$4,$5,$6,$7,0*
20,1,$1+$1,$6,$7,$8,$9,0*
20,1,$1+$1,$8,$9,$2,$3,0*%
G04 Aperture macros list end*
%ADD10RoundRect,0.250001X0.624999X-0.462499X0.624999X0.462499X-0.624999X0.462499X-0.624999X-0.462499X0*%
%ADD11RoundRect,0.250000X-0.312500X-0.625000X0.312500X-0.625000X0.312500X0.625000X-0.312500X0.625000X0*%
%ADD12RoundRect,0.250000X0.312500X0.625000X-0.312500X0.625000X-0.312500X-0.625000X0.312500X-0.625000X0*%
%ADD13R,1.750000X0.450000*%
%ADD14R,1.700000X0.900000*%
%ADD15RoundRect,0.150000X-0.150000X-0.625000X0.150000X-0.625000X0.150000X0.625000X-0.150000X0.625000X0*%
%ADD16RoundRect,0.250000X-0.350000X-0.650000X0.350000X-0.650000X0.350000X0.650000X-0.350000X0.650000X0*%
%ADD17RoundRect,0.250000X0.350000X-0.850000X0.350000X0.850000X-0.350000X0.850000X-0.350000X-0.850000X0*%
%ADD18RoundRect,0.250000X1.125000X-1.275000X1.125000X1.275000X-1.125000X1.275000X-1.125000X-1.275000X0*%
%ADD19R,0.900000X1.500000*%
%ADD20R,1.500000X0.900000*%
%ADD21R,0.900000X0.900000*%
%ADD22RoundRect,0.250000X-0.412500X-0.650000X0.412500X-0.650000X0.412500X0.650000X-0.412500X0.650000X0*%
%ADD23RoundRect,0.250000X0.375000X0.625000X-0.375000X0.625000X-0.375000X-0.625000X0.375000X-0.625000X0*%
%ADD24RoundRect,0.250000X0.650000X-0.325000X0.650000X0.325000X-0.650000X0.325000X-0.650000X-0.325000X0*%
%ADD25R,2.000000X0.650000*%
%ADD26RoundRect,0.250000X0.412500X0.650000X-0.412500X0.650000X-0.412500X-0.650000X0.412500X-0.650000X0*%
%ADD27RoundRect,0.250000X-0.325000X-0.650000X0.325000X-0.650000X0.325000X0.650000X-0.325000X0.650000X0*%
%ADD28RoundRect,0.250000X0.625000X-0.400000X0.625000X0.400000X-0.625000X0.400000X-0.625000X-0.400000X0*%
%ADD29RoundRect,0.250000X-0.625000X0.312500X-0.625000X-0.312500X0.625000X-0.312500X0.625000X0.312500X0*%
%ADD30RoundRect,0.250000X-0.650000X0.325000X-0.650000X-0.325000X0.650000X-0.325000X0.650000X0.325000X0*%
%ADD31R,1.140000X0.600000*%
%ADD32R,1.140000X0.300000*%
G04 APERTURE END LIST*
D10*
X178350000Y-78087500D03*
X178350000Y-75112500D03*
D11*
X159987500Y-74600000D03*
X162912500Y-74600000D03*
D12*
X191250000Y-88325000D03*
X188325000Y-88325000D03*
X191250000Y-75825000D03*
X188325000Y-75825000D03*
D13*
X193134800Y-65601800D03*
X193134800Y-64951800D03*
X193134800Y-64301800D03*
X193134800Y-63651800D03*
X193134800Y-63001800D03*
X193134800Y-62351800D03*
X193134800Y-61701800D03*
X193134800Y-61051800D03*
X193134800Y-60401800D03*
X193134800Y-59751800D03*
X193134800Y-59101800D03*
X193134800Y-58451800D03*
X185934800Y-58451800D03*
X185934800Y-59101800D03*
X185934800Y-59751800D03*
X185934800Y-60401800D03*
X185934800Y-61051800D03*
X185934800Y-61701800D03*
X185934800Y-62351800D03*
X185934800Y-63001800D03*
X185934800Y-63651800D03*
X185934800Y-64301800D03*
X185934800Y-64951800D03*
X185934800Y-65601800D03*
D14*
X175100000Y-47750000D03*
X175100000Y-51150000D03*
D12*
X206712500Y-82250000D03*
X203787500Y-82250000D03*
D15*
X195000000Y-74150000D03*
X196000000Y-74150000D03*
X197000000Y-74150000D03*
X198000000Y-74150000D03*
X199000000Y-74150000D03*
X200000000Y-74150000D03*
D16*
X193700000Y-71625000D03*
X201300000Y-71625000D03*
D17*
X226777200Y-56094000D03*
X229057200Y-56094000D03*
D18*
X227532200Y-51469000D03*
X230582200Y-51469000D03*
X227532200Y-48119000D03*
X230582200Y-48119000D03*
D17*
X231337200Y-56094000D03*
D12*
X206675000Y-75750000D03*
X203750000Y-75750000D03*
D11*
X159979900Y-76911200D03*
X162904900Y-76911200D03*
D17*
X214280400Y-56084000D03*
X216560400Y-56084000D03*
D18*
X215035400Y-51459000D03*
X218085400Y-51459000D03*
X215035400Y-48109000D03*
X218085400Y-48109000D03*
D17*
X218840400Y-56084000D03*
D19*
X158574000Y-70500000D03*
X159844000Y-70500000D03*
X161114000Y-70500000D03*
X162384000Y-70500000D03*
X163654000Y-70500000D03*
X164924000Y-70500000D03*
X166194000Y-70500000D03*
X167464000Y-70500000D03*
X168734000Y-70500000D03*
X170004000Y-70500000D03*
X171274000Y-70500000D03*
X172544000Y-70500000D03*
X173814000Y-70500000D03*
X175084000Y-70500000D03*
D20*
X176334000Y-68735000D03*
X176334000Y-67465000D03*
X176334000Y-66195000D03*
X176334000Y-64925000D03*
X176334000Y-63655000D03*
X176334000Y-62385000D03*
X176334000Y-61115000D03*
X176334000Y-59845000D03*
X176334000Y-58575000D03*
X176334000Y-57305000D03*
X176334000Y-56035000D03*
X176334000Y-54765000D03*
D19*
X175084000Y-53000000D03*
X173814000Y-53000000D03*
X172544000Y-53000000D03*
X171274000Y-53000000D03*
X170004000Y-53000000D03*
X168734000Y-53000000D03*
X167464000Y-53000000D03*
X166194000Y-53000000D03*
X164924000Y-53000000D03*
X163654000Y-53000000D03*
X162384000Y-53000000D03*
X161114000Y-53000000D03*
X159844000Y-53000000D03*
X158574000Y-53000000D03*
D21*
X164894000Y-64650000D03*
X166294000Y-64650000D03*
X167694000Y-64650000D03*
X167694000Y-64650000D03*
X164894000Y-63250000D03*
X164894000Y-63250000D03*
X166294000Y-63250000D03*
X167694000Y-63250000D03*
X164894000Y-61850000D03*
X166294000Y-61850000D03*
X167694000Y-61850000D03*
D15*
X195000000Y-86575000D03*
X196000000Y-86575000D03*
X197000000Y-86575000D03*
X198000000Y-86575000D03*
X199000000Y-86575000D03*
X200000000Y-86575000D03*
D16*
X193700000Y-84050000D03*
X201300000Y-84050000D03*
D22*
X218807900Y-58843600D03*
X221932900Y-58843600D03*
D23*
X162842400Y-79248000D03*
X160042400Y-79248000D03*
D24*
X178200000Y-50925000D03*
X178200000Y-47975000D03*
D25*
X167352400Y-74792800D03*
X167352400Y-75742800D03*
X167352400Y-76692800D03*
X170772400Y-76692800D03*
X170772400Y-75742800D03*
X170772400Y-74792800D03*
D26*
X216548100Y-58826400D03*
X213423100Y-58826400D03*
D27*
X167587400Y-79248000D03*
X170537400Y-79248000D03*
D22*
X231355500Y-58826400D03*
X234480500Y-58826400D03*
D26*
X229044900Y-58826400D03*
X225919900Y-58826400D03*
D28*
X175850000Y-78150000D03*
X175850000Y-75050000D03*
D29*
X162839400Y-82105300D03*
X162839400Y-85030300D03*
D30*
X160299400Y-82092800D03*
X160299400Y-85042800D03*
D15*
X195000000Y-80325000D03*
X196000000Y-80325000D03*
X197000000Y-80325000D03*
X198000000Y-80325000D03*
X199000000Y-80325000D03*
X200000000Y-80325000D03*
D16*
X193700000Y-77800000D03*
X201300000Y-77800000D03*
D14*
X161137600Y-47700000D03*
X161137600Y-51100000D03*
D12*
X206675000Y-88325000D03*
X203750000Y-88325000D03*
X191250000Y-82325000D03*
X188325000Y-82325000D03*
D31*
X157658000Y-73508000D03*
X157658000Y-74308000D03*
D32*
X157658000Y-75458000D03*
X157658000Y-76458000D03*
X157658000Y-76958000D03*
X157658000Y-77958000D03*
D31*
X157658000Y-79908000D03*
X157658000Y-79108000D03*
D32*
X157658000Y-78458000D03*
X157658000Y-77458000D03*
X157658000Y-75958000D03*
X157658000Y-74958000D03*
D14*
X165887400Y-85267800D03*
X165887400Y-81867800D03*
M02*
