G04 #@! TF.GenerationSoftware,KiCad,Pcbnew,7.0.8*
G04 #@! TF.CreationDate,2023-10-29T22:23:11+01:00*
G04 #@! TF.ProjectId,sumec,73756d65-632e-46b6-9963-61645f706362,rev?*
G04 #@! TF.SameCoordinates,Original*
G04 #@! TF.FileFunction,Legend,Top*
G04 #@! TF.FilePolarity,Positive*
%FSLAX46Y46*%
G04 Gerber Fmt 4.6, Leading zero omitted, Abs format (unit mm)*
G04 Created by KiCad (PCBNEW 7.0.8) date 2023-10-29 22:23:11*
%MOMM*%
%LPD*%
G01*
G04 APERTURE LIST*
G04 Aperture macros list*
%AMRoundRect*
0 Rectangle with rounded corners*
0 $1 Rounding radius*
0 $2 $3 $4 $5 $6 $7 $8 $9 X,Y pos of 4 corners*
0 Add a 4 corners polygon primitive as box body*
4,1,4,$2,$3,$4,$5,$6,$7,$8,$9,$2,$3,0*
0 Add four circle primitives for the rounded corners*
1,1,$1+$1,$2,$3*
1,1,$1+$1,$4,$5*
1,1,$1+$1,$6,$7*
1,1,$1+$1,$8,$9*
0 Add four rect primitives between the rounded corners*
20,1,$1+$1,$2,$3,$4,$5,0*
20,1,$1+$1,$4,$5,$6,$7,0*
20,1,$1+$1,$6,$7,$8,$9,0*
20,1,$1+$1,$8,$9,$2,$3,0*%
%AMFreePoly0*
4,1,6,1.000000,0.000000,0.500000,-0.750000,-0.500000,-0.750000,-0.500000,0.750000,0.500000,0.750000,1.000000,0.000000,1.000000,0.000000,$1*%
G04 Aperture macros list end*
%ADD10C,0.150000*%
%ADD11C,0.020000*%
%ADD12C,0.120000*%
%ADD13C,0.127000*%
%ADD14C,0.200000*%
%ADD15C,0.010000*%
%ADD16C,5.700000*%
%ADD17RoundRect,0.250001X0.624999X-0.462499X0.624999X0.462499X-0.624999X0.462499X-0.624999X-0.462499X0*%
%ADD18RoundRect,0.250000X-0.312500X-0.625000X0.312500X-0.625000X0.312500X0.625000X-0.312500X0.625000X0*%
%ADD19RoundRect,0.250000X0.312500X0.625000X-0.312500X0.625000X-0.312500X-0.625000X0.312500X-0.625000X0*%
%ADD20RoundRect,0.250000X-0.550000X-0.550000X0.550000X-0.550000X0.550000X0.550000X-0.550000X0.550000X0*%
%ADD21R,1.750000X0.450000*%
%ADD22R,1.500000X1.500000*%
%ADD23FreePoly0,0.000000*%
%ADD24FreePoly0,180.000000*%
%ADD25R,1.700000X0.900000*%
%ADD26RoundRect,0.150000X-0.150000X-0.625000X0.150000X-0.625000X0.150000X0.625000X-0.150000X0.625000X0*%
%ADD27RoundRect,0.250000X-0.350000X-0.650000X0.350000X-0.650000X0.350000X0.650000X-0.350000X0.650000X0*%
%ADD28R,3.800000X3.800000*%
%ADD29C,3.800000*%
%ADD30RoundRect,0.250000X0.350000X-0.850000X0.350000X0.850000X-0.350000X0.850000X-0.350000X-0.850000X0*%
%ADD31RoundRect,0.249997X2.650003X-2.950003X2.650003X2.950003X-2.650003X2.950003X-2.650003X-2.950003X0*%
%ADD32R,1.700000X1.700000*%
%ADD33O,1.700000X1.700000*%
%ADD34R,0.900000X1.500000*%
%ADD35R,1.500000X0.900000*%
%ADD36R,0.900000X0.900000*%
%ADD37RoundRect,0.250000X-0.412500X-0.650000X0.412500X-0.650000X0.412500X0.650000X-0.412500X0.650000X0*%
%ADD38RoundRect,0.250000X0.375000X0.625000X-0.375000X0.625000X-0.375000X-0.625000X0.375000X-0.625000X0*%
%ADD39RoundRect,0.250000X0.650000X-0.325000X0.650000X0.325000X-0.650000X0.325000X-0.650000X-0.325000X0*%
%ADD40R,2.000000X0.650000*%
%ADD41RoundRect,0.250000X0.412500X0.650000X-0.412500X0.650000X-0.412500X-0.650000X0.412500X-0.650000X0*%
%ADD42RoundRect,0.250000X-0.325000X-0.650000X0.325000X-0.650000X0.325000X0.650000X-0.325000X0.650000X0*%
%ADD43RoundRect,0.250000X0.625000X-0.400000X0.625000X0.400000X-0.625000X0.400000X-0.625000X-0.400000X0*%
%ADD44RoundRect,0.250000X-0.625000X0.312500X-0.625000X-0.312500X0.625000X-0.312500X0.625000X0.312500X0*%
%ADD45RoundRect,0.250000X-0.650000X0.325000X-0.650000X-0.325000X0.650000X-0.325000X0.650000X0.325000X0*%
%ADD46C,0.600000*%
%ADD47O,2.204000X1.104000*%
%ADD48O,1.904000X1.104000*%
%ADD49RoundRect,0.275000X0.275000X0.525000X-0.275000X0.525000X-0.275000X-0.525000X0.275000X-0.525000X0*%
%ADD50O,1.100000X1.600000*%
G04 APERTURE END LIST*
D10*
X159554762Y-45619819D02*
X160126190Y-45619819D01*
X159840476Y-46619819D02*
X159840476Y-45619819D01*
X160459524Y-46096009D02*
X160792857Y-46096009D01*
X160935714Y-46619819D02*
X160459524Y-46619819D01*
X160459524Y-46619819D02*
X160459524Y-45619819D01*
X160459524Y-45619819D02*
X160935714Y-45619819D01*
X161316667Y-46572200D02*
X161459524Y-46619819D01*
X161459524Y-46619819D02*
X161697619Y-46619819D01*
X161697619Y-46619819D02*
X161792857Y-46572200D01*
X161792857Y-46572200D02*
X161840476Y-46524580D01*
X161840476Y-46524580D02*
X161888095Y-46429342D01*
X161888095Y-46429342D02*
X161888095Y-46334104D01*
X161888095Y-46334104D02*
X161840476Y-46238866D01*
X161840476Y-46238866D02*
X161792857Y-46191247D01*
X161792857Y-46191247D02*
X161697619Y-46143628D01*
X161697619Y-46143628D02*
X161507143Y-46096009D01*
X161507143Y-46096009D02*
X161411905Y-46048390D01*
X161411905Y-46048390D02*
X161364286Y-46000771D01*
X161364286Y-46000771D02*
X161316667Y-45905533D01*
X161316667Y-45905533D02*
X161316667Y-45810295D01*
X161316667Y-45810295D02*
X161364286Y-45715057D01*
X161364286Y-45715057D02*
X161411905Y-45667438D01*
X161411905Y-45667438D02*
X161507143Y-45619819D01*
X161507143Y-45619819D02*
X161745238Y-45619819D01*
X161745238Y-45619819D02*
X161888095Y-45667438D01*
X162173810Y-45619819D02*
X162745238Y-45619819D01*
X162459524Y-46619819D02*
X162459524Y-45619819D01*
X167994105Y-83674009D02*
X168327438Y-83674009D01*
X168470295Y-84197819D02*
X167994105Y-84197819D01*
X167994105Y-84197819D02*
X167994105Y-83197819D01*
X167994105Y-83197819D02*
X168470295Y-83197819D01*
X168898867Y-84197819D02*
X168898867Y-83197819D01*
X168898867Y-83197819D02*
X169470295Y-84197819D01*
X169470295Y-84197819D02*
X169470295Y-83197819D01*
D11*
G36*
X215894741Y-93984054D02*
G01*
X215901336Y-93990648D01*
X215849703Y-94046238D01*
X215798046Y-93990648D01*
X215804665Y-93984054D01*
X215849703Y-94032951D01*
X215894741Y-93984054D01*
G37*
G36*
X215865872Y-94058206D02*
G01*
X215865872Y-94072397D01*
X215851828Y-94072397D01*
X215851828Y-94058206D01*
X215865872Y-94058206D01*
G37*
G36*
X215815314Y-94058206D02*
G01*
X215815314Y-94072397D01*
X215801270Y-94072397D01*
X215801270Y-94058206D01*
X215815314Y-94058206D01*
G37*
G36*
X215868705Y-94087735D02*
G01*
X215870400Y-94087768D01*
X215872055Y-94087867D01*
X215873669Y-94088032D01*
X215875242Y-94088263D01*
X215876774Y-94088560D01*
X215878265Y-94088923D01*
X215879715Y-94089353D01*
X215881125Y-94089848D01*
X215882493Y-94090409D01*
X215883821Y-94091036D01*
X215885108Y-94091729D01*
X215886355Y-94092489D01*
X215887560Y-94093314D01*
X215888725Y-94094205D01*
X215889848Y-94095162D01*
X215890931Y-94096186D01*
X215891821Y-94097124D01*
X215892654Y-94098088D01*
X215893430Y-94099079D01*
X215894147Y-94100095D01*
X215894808Y-94101138D01*
X215895411Y-94102207D01*
X215895957Y-94103302D01*
X215896445Y-94104423D01*
X215896876Y-94105570D01*
X215897249Y-94106744D01*
X215897565Y-94107943D01*
X215897823Y-94109169D01*
X215898024Y-94110421D01*
X215898168Y-94111699D01*
X215898254Y-94113003D01*
X215898283Y-94114333D01*
X215898254Y-94115864D01*
X215898168Y-94117357D01*
X215898024Y-94118810D01*
X215897823Y-94120224D01*
X215897565Y-94121599D01*
X215897249Y-94122935D01*
X215896876Y-94124231D01*
X215896445Y-94125489D01*
X215895957Y-94126707D01*
X215895411Y-94127887D01*
X215894808Y-94129027D01*
X215894147Y-94130128D01*
X215893430Y-94131190D01*
X215892654Y-94132213D01*
X215891821Y-94133197D01*
X215890931Y-94134141D01*
X215890059Y-94134966D01*
X215889152Y-94135738D01*
X215888209Y-94136457D01*
X215887232Y-94137122D01*
X215886220Y-94137735D01*
X215885173Y-94138294D01*
X215884092Y-94138799D01*
X215882975Y-94139252D01*
X215881823Y-94139651D01*
X215880637Y-94139997D01*
X215879415Y-94140290D01*
X215878159Y-94140530D01*
X215876867Y-94140716D01*
X215875541Y-94140849D01*
X215874180Y-94140929D01*
X215872784Y-94140956D01*
X215871392Y-94140933D01*
X215870044Y-94140866D01*
X215868739Y-94140755D01*
X215867478Y-94140598D01*
X215866260Y-94140397D01*
X215865086Y-94140152D01*
X215863955Y-94139862D01*
X215862868Y-94139527D01*
X215861824Y-94139147D01*
X215860824Y-94138723D01*
X215859867Y-94138254D01*
X215858954Y-94137741D01*
X215858084Y-94137183D01*
X215857258Y-94136580D01*
X215856475Y-94135932D01*
X215855736Y-94135240D01*
X215855014Y-94134507D01*
X215854160Y-94133614D01*
X215853427Y-94132816D01*
X215852683Y-94131955D01*
X215852042Y-94131120D01*
X215851584Y-94130209D01*
X215851137Y-94131228D01*
X215850625Y-94132067D01*
X215849952Y-94132997D01*
X215849298Y-94133808D01*
X215848541Y-94134677D01*
X215847680Y-94135605D01*
X215846967Y-94136339D01*
X215846095Y-94137165D01*
X215845188Y-94137936D01*
X215844246Y-94138655D01*
X215843269Y-94139321D01*
X215842257Y-94139933D01*
X215841210Y-94140492D01*
X215840128Y-94140998D01*
X215839011Y-94141450D01*
X215837860Y-94141849D01*
X215836673Y-94142195D01*
X215835451Y-94142488D01*
X215834195Y-94142728D01*
X215832904Y-94142914D01*
X215831577Y-94143047D01*
X215830216Y-94143127D01*
X215828820Y-94143154D01*
X215827287Y-94143123D01*
X215825788Y-94143030D01*
X215824324Y-94142876D01*
X215822896Y-94142659D01*
X215821502Y-94142381D01*
X215820143Y-94142041D01*
X215818819Y-94141639D01*
X215817530Y-94141175D01*
X215816276Y-94140650D01*
X215815057Y-94140063D01*
X215813872Y-94139413D01*
X215812723Y-94138702D01*
X215811609Y-94137930D01*
X215810529Y-94137095D01*
X215809484Y-94136199D01*
X215808475Y-94135240D01*
X215807516Y-94134224D01*
X215806620Y-94133160D01*
X215805785Y-94132048D01*
X215805013Y-94130888D01*
X215804302Y-94129680D01*
X215803652Y-94128425D01*
X215803065Y-94127121D01*
X215802540Y-94125770D01*
X215802076Y-94124370D01*
X215801674Y-94122923D01*
X215801334Y-94121428D01*
X215801056Y-94119885D01*
X215800839Y-94118294D01*
X215800685Y-94116655D01*
X215800592Y-94114969D01*
X215800561Y-94113234D01*
X215800592Y-94111769D01*
X215800685Y-94110334D01*
X215800839Y-94108929D01*
X215801056Y-94107555D01*
X215801334Y-94106212D01*
X215801674Y-94104899D01*
X215802076Y-94103617D01*
X215802540Y-94102365D01*
X215803065Y-94101144D01*
X215803652Y-94099953D01*
X215804302Y-94098793D01*
X215805013Y-94097663D01*
X215805785Y-94096564D01*
X215806620Y-94095496D01*
X215807516Y-94094458D01*
X215808475Y-94093450D01*
X215809478Y-94092492D01*
X215810503Y-94091596D01*
X215811550Y-94090761D01*
X215812619Y-94089988D01*
X215813710Y-94089277D01*
X215814823Y-94088628D01*
X215815958Y-94088041D01*
X215817115Y-94087515D01*
X215818294Y-94087052D01*
X215819494Y-94086650D01*
X215820717Y-94086310D01*
X215821962Y-94086031D01*
X215823228Y-94085815D01*
X215824517Y-94085660D01*
X215825827Y-94085568D01*
X215827159Y-94085537D01*
X215832337Y-94085537D01*
X215832337Y-94099727D01*
X215827721Y-94099727D01*
X215826458Y-94099769D01*
X215825232Y-94099894D01*
X215824044Y-94100102D01*
X215822894Y-94100394D01*
X215821782Y-94100768D01*
X215820707Y-94101227D01*
X215819671Y-94101768D01*
X215818672Y-94102393D01*
X215817711Y-94103101D01*
X215816787Y-94103892D01*
X215816193Y-94104466D01*
X215815340Y-94105388D01*
X215814601Y-94106360D01*
X215813975Y-94107382D01*
X215813463Y-94108453D01*
X215813065Y-94109574D01*
X215812781Y-94110744D01*
X215812610Y-94111964D01*
X215812554Y-94113234D01*
X215812590Y-94114493D01*
X215812700Y-94115704D01*
X215812884Y-94116868D01*
X215813141Y-94117985D01*
X215813471Y-94119055D01*
X215813875Y-94120078D01*
X215814352Y-94121053D01*
X215814903Y-94121981D01*
X215815527Y-94122862D01*
X215816224Y-94123695D01*
X215816730Y-94124225D01*
X215817552Y-94124971D01*
X215818459Y-94125644D01*
X215819452Y-94126244D01*
X215820531Y-94126770D01*
X215821696Y-94127223D01*
X215822947Y-94127602D01*
X215824284Y-94127908D01*
X215825706Y-94128140D01*
X215826702Y-94128255D01*
X215827736Y-94128336D01*
X215828809Y-94128385D01*
X215829919Y-94128401D01*
X215831274Y-94128365D01*
X215832572Y-94128255D01*
X215833813Y-94128071D01*
X215834998Y-94127814D01*
X215836126Y-94127484D01*
X215837197Y-94127080D01*
X215838212Y-94126603D01*
X215839170Y-94126052D01*
X215840071Y-94125428D01*
X215840916Y-94124731D01*
X215841448Y-94124225D01*
X215842194Y-94123437D01*
X215842867Y-94122632D01*
X215843466Y-94121808D01*
X215843993Y-94120967D01*
X215844580Y-94119816D01*
X215845037Y-94118634D01*
X215845363Y-94117420D01*
X215845559Y-94116173D01*
X215845624Y-94114895D01*
X215845624Y-94109717D01*
X215856517Y-94109717D01*
X215856517Y-94113796D01*
X215856583Y-94114943D01*
X215856778Y-94116075D01*
X215857105Y-94117193D01*
X215857561Y-94118296D01*
X215858149Y-94119385D01*
X215858867Y-94120459D01*
X215859491Y-94121255D01*
X215860188Y-94122043D01*
X215860694Y-94122564D01*
X215861506Y-94123310D01*
X215862384Y-94123983D01*
X215863329Y-94124583D01*
X215864340Y-94125109D01*
X215865418Y-94125562D01*
X215866563Y-94125941D01*
X215867774Y-94126247D01*
X215869052Y-94126480D01*
X215870396Y-94126639D01*
X215871806Y-94126724D01*
X215872784Y-94126741D01*
X215874038Y-94126704D01*
X215875246Y-94126594D01*
X215876406Y-94126410D01*
X215877520Y-94126153D01*
X215878587Y-94125823D01*
X215879608Y-94125419D01*
X215880581Y-94124942D01*
X215881508Y-94124391D01*
X215882388Y-94123767D01*
X215883221Y-94123070D01*
X215883750Y-94122564D01*
X215884472Y-94121768D01*
X215885097Y-94120905D01*
X215885626Y-94119975D01*
X215886058Y-94118980D01*
X215886395Y-94117918D01*
X215886635Y-94116789D01*
X215886780Y-94115594D01*
X215886828Y-94114333D01*
X215886771Y-94113195D01*
X215886602Y-94112088D01*
X215886320Y-94111012D01*
X215885924Y-94109967D01*
X215885416Y-94108954D01*
X215884795Y-94107972D01*
X215884060Y-94107021D01*
X215883213Y-94106102D01*
X215882376Y-94105346D01*
X215881430Y-94104655D01*
X215880377Y-94104027D01*
X215879215Y-94103463D01*
X215877945Y-94102963D01*
X215876567Y-94102527D01*
X215875588Y-94102272D01*
X215874561Y-94102046D01*
X215873486Y-94101848D01*
X215872363Y-94101678D01*
X215871192Y-94101537D01*
X215869972Y-94101424D01*
X215868705Y-94101339D01*
X215868705Y-94087735D01*
G37*
G36*
X241294741Y-99064054D02*
G01*
X241301336Y-99070648D01*
X241249703Y-99126238D01*
X241198046Y-99070648D01*
X241204665Y-99064054D01*
X241249703Y-99112951D01*
X241294741Y-99064054D01*
G37*
G36*
X241265872Y-99138206D02*
G01*
X241265872Y-99152397D01*
X241251828Y-99152397D01*
X241251828Y-99138206D01*
X241265872Y-99138206D01*
G37*
G36*
X241215314Y-99138206D02*
G01*
X241215314Y-99152397D01*
X241201270Y-99152397D01*
X241201270Y-99138206D01*
X241215314Y-99138206D01*
G37*
G36*
X241268705Y-99167735D02*
G01*
X241270400Y-99167768D01*
X241272055Y-99167867D01*
X241273669Y-99168032D01*
X241275242Y-99168263D01*
X241276774Y-99168560D01*
X241278265Y-99168923D01*
X241279715Y-99169353D01*
X241281125Y-99169848D01*
X241282493Y-99170409D01*
X241283821Y-99171036D01*
X241285108Y-99171729D01*
X241286355Y-99172489D01*
X241287560Y-99173314D01*
X241288725Y-99174205D01*
X241289848Y-99175162D01*
X241290931Y-99176186D01*
X241291821Y-99177124D01*
X241292654Y-99178088D01*
X241293430Y-99179079D01*
X241294147Y-99180095D01*
X241294808Y-99181138D01*
X241295411Y-99182207D01*
X241295957Y-99183302D01*
X241296445Y-99184423D01*
X241296876Y-99185570D01*
X241297249Y-99186744D01*
X241297565Y-99187943D01*
X241297823Y-99189169D01*
X241298024Y-99190421D01*
X241298168Y-99191699D01*
X241298254Y-99193003D01*
X241298283Y-99194333D01*
X241298254Y-99195864D01*
X241298168Y-99197357D01*
X241298024Y-99198810D01*
X241297823Y-99200224D01*
X241297565Y-99201599D01*
X241297249Y-99202935D01*
X241296876Y-99204231D01*
X241296445Y-99205489D01*
X241295957Y-99206707D01*
X241295411Y-99207887D01*
X241294808Y-99209027D01*
X241294147Y-99210128D01*
X241293430Y-99211190D01*
X241292654Y-99212213D01*
X241291821Y-99213197D01*
X241290931Y-99214141D01*
X241290059Y-99214966D01*
X241289152Y-99215738D01*
X241288209Y-99216457D01*
X241287232Y-99217122D01*
X241286220Y-99217735D01*
X241285173Y-99218294D01*
X241284092Y-99218799D01*
X241282975Y-99219252D01*
X241281823Y-99219651D01*
X241280637Y-99219997D01*
X241279415Y-99220290D01*
X241278159Y-99220530D01*
X241276867Y-99220716D01*
X241275541Y-99220849D01*
X241274180Y-99220929D01*
X241272784Y-99220956D01*
X241271392Y-99220933D01*
X241270044Y-99220866D01*
X241268739Y-99220755D01*
X241267478Y-99220598D01*
X241266260Y-99220397D01*
X241265086Y-99220152D01*
X241263955Y-99219862D01*
X241262868Y-99219527D01*
X241261824Y-99219147D01*
X241260824Y-99218723D01*
X241259867Y-99218254D01*
X241258954Y-99217741D01*
X241258084Y-99217183D01*
X241257258Y-99216580D01*
X241256475Y-99215932D01*
X241255736Y-99215240D01*
X241255014Y-99214507D01*
X241254160Y-99213614D01*
X241253427Y-99212816D01*
X241252683Y-99211955D01*
X241252042Y-99211120D01*
X241251584Y-99210209D01*
X241251137Y-99211228D01*
X241250625Y-99212067D01*
X241249952Y-99212997D01*
X241249298Y-99213808D01*
X241248541Y-99214677D01*
X241247680Y-99215605D01*
X241246967Y-99216339D01*
X241246095Y-99217165D01*
X241245188Y-99217936D01*
X241244246Y-99218655D01*
X241243269Y-99219321D01*
X241242257Y-99219933D01*
X241241210Y-99220492D01*
X241240128Y-99220998D01*
X241239011Y-99221450D01*
X241237860Y-99221849D01*
X241236673Y-99222195D01*
X241235451Y-99222488D01*
X241234195Y-99222728D01*
X241232904Y-99222914D01*
X241231577Y-99223047D01*
X241230216Y-99223127D01*
X241228820Y-99223154D01*
X241227287Y-99223123D01*
X241225788Y-99223030D01*
X241224324Y-99222876D01*
X241222896Y-99222659D01*
X241221502Y-99222381D01*
X241220143Y-99222041D01*
X241218819Y-99221639D01*
X241217530Y-99221175D01*
X241216276Y-99220650D01*
X241215057Y-99220063D01*
X241213872Y-99219413D01*
X241212723Y-99218702D01*
X241211609Y-99217930D01*
X241210529Y-99217095D01*
X241209484Y-99216199D01*
X241208475Y-99215240D01*
X241207516Y-99214224D01*
X241206620Y-99213160D01*
X241205785Y-99212048D01*
X241205013Y-99210888D01*
X241204302Y-99209680D01*
X241203652Y-99208425D01*
X241203065Y-99207121D01*
X241202540Y-99205770D01*
X241202076Y-99204370D01*
X241201674Y-99202923D01*
X241201334Y-99201428D01*
X241201056Y-99199885D01*
X241200839Y-99198294D01*
X241200685Y-99196655D01*
X241200592Y-99194969D01*
X241200561Y-99193234D01*
X241200592Y-99191769D01*
X241200685Y-99190334D01*
X241200839Y-99188929D01*
X241201056Y-99187555D01*
X241201334Y-99186212D01*
X241201674Y-99184899D01*
X241202076Y-99183617D01*
X241202540Y-99182365D01*
X241203065Y-99181144D01*
X241203652Y-99179953D01*
X241204302Y-99178793D01*
X241205013Y-99177663D01*
X241205785Y-99176564D01*
X241206620Y-99175496D01*
X241207516Y-99174458D01*
X241208475Y-99173450D01*
X241209478Y-99172492D01*
X241210503Y-99171596D01*
X241211550Y-99170761D01*
X241212619Y-99169988D01*
X241213710Y-99169277D01*
X241214823Y-99168628D01*
X241215958Y-99168041D01*
X241217115Y-99167515D01*
X241218294Y-99167052D01*
X241219494Y-99166650D01*
X241220717Y-99166310D01*
X241221962Y-99166031D01*
X241223228Y-99165815D01*
X241224517Y-99165660D01*
X241225827Y-99165568D01*
X241227159Y-99165537D01*
X241232337Y-99165537D01*
X241232337Y-99179727D01*
X241227721Y-99179727D01*
X241226458Y-99179769D01*
X241225232Y-99179894D01*
X241224044Y-99180102D01*
X241222894Y-99180394D01*
X241221782Y-99180768D01*
X241220707Y-99181227D01*
X241219671Y-99181768D01*
X241218672Y-99182393D01*
X241217711Y-99183101D01*
X241216787Y-99183892D01*
X241216193Y-99184466D01*
X241215340Y-99185388D01*
X241214601Y-99186360D01*
X241213975Y-99187382D01*
X241213463Y-99188453D01*
X241213065Y-99189574D01*
X241212781Y-99190744D01*
X241212610Y-99191964D01*
X241212554Y-99193234D01*
X241212590Y-99194493D01*
X241212700Y-99195704D01*
X241212884Y-99196868D01*
X241213141Y-99197985D01*
X241213471Y-99199055D01*
X241213875Y-99200078D01*
X241214352Y-99201053D01*
X241214903Y-99201981D01*
X241215527Y-99202862D01*
X241216224Y-99203695D01*
X241216730Y-99204225D01*
X241217552Y-99204971D01*
X241218459Y-99205644D01*
X241219452Y-99206244D01*
X241220531Y-99206770D01*
X241221696Y-99207223D01*
X241222947Y-99207602D01*
X241224284Y-99207908D01*
X241225706Y-99208140D01*
X241226702Y-99208255D01*
X241227736Y-99208336D01*
X241228809Y-99208385D01*
X241229919Y-99208401D01*
X241231274Y-99208365D01*
X241232572Y-99208255D01*
X241233813Y-99208071D01*
X241234998Y-99207814D01*
X241236126Y-99207484D01*
X241237197Y-99207080D01*
X241238212Y-99206603D01*
X241239170Y-99206052D01*
X241240071Y-99205428D01*
X241240916Y-99204731D01*
X241241448Y-99204225D01*
X241242194Y-99203437D01*
X241242867Y-99202632D01*
X241243466Y-99201808D01*
X241243993Y-99200967D01*
X241244580Y-99199816D01*
X241245037Y-99198634D01*
X241245363Y-99197420D01*
X241245559Y-99196173D01*
X241245624Y-99194895D01*
X241245624Y-99189717D01*
X241256517Y-99189717D01*
X241256517Y-99193796D01*
X241256583Y-99194943D01*
X241256778Y-99196075D01*
X241257105Y-99197193D01*
X241257561Y-99198296D01*
X241258149Y-99199385D01*
X241258867Y-99200459D01*
X241259491Y-99201255D01*
X241260188Y-99202043D01*
X241260694Y-99202564D01*
X241261506Y-99203310D01*
X241262384Y-99203983D01*
X241263329Y-99204583D01*
X241264340Y-99205109D01*
X241265418Y-99205562D01*
X241266563Y-99205941D01*
X241267774Y-99206247D01*
X241269052Y-99206480D01*
X241270396Y-99206639D01*
X241271806Y-99206724D01*
X241272784Y-99206741D01*
X241274038Y-99206704D01*
X241275246Y-99206594D01*
X241276406Y-99206410D01*
X241277520Y-99206153D01*
X241278587Y-99205823D01*
X241279608Y-99205419D01*
X241280581Y-99204942D01*
X241281508Y-99204391D01*
X241282388Y-99203767D01*
X241283221Y-99203070D01*
X241283750Y-99202564D01*
X241284472Y-99201768D01*
X241285097Y-99200905D01*
X241285626Y-99199975D01*
X241286058Y-99198980D01*
X241286395Y-99197918D01*
X241286635Y-99196789D01*
X241286780Y-99195594D01*
X241286828Y-99194333D01*
X241286771Y-99193195D01*
X241286602Y-99192088D01*
X241286320Y-99191012D01*
X241285924Y-99189967D01*
X241285416Y-99188954D01*
X241284795Y-99187972D01*
X241284060Y-99187021D01*
X241283213Y-99186102D01*
X241282376Y-99185346D01*
X241281430Y-99184655D01*
X241280377Y-99184027D01*
X241279215Y-99183463D01*
X241277945Y-99182963D01*
X241276567Y-99182527D01*
X241275588Y-99182272D01*
X241274561Y-99182046D01*
X241273486Y-99181848D01*
X241272363Y-99181678D01*
X241271192Y-99181537D01*
X241269972Y-99181424D01*
X241268705Y-99181339D01*
X241268705Y-99167735D01*
G37*
D10*
X173792857Y-46096009D02*
X173935714Y-46143628D01*
X173935714Y-46143628D02*
X173983333Y-46191247D01*
X173983333Y-46191247D02*
X174030952Y-46286485D01*
X174030952Y-46286485D02*
X174030952Y-46429342D01*
X174030952Y-46429342D02*
X173983333Y-46524580D01*
X173983333Y-46524580D02*
X173935714Y-46572200D01*
X173935714Y-46572200D02*
X173840476Y-46619819D01*
X173840476Y-46619819D02*
X173459524Y-46619819D01*
X173459524Y-46619819D02*
X173459524Y-45619819D01*
X173459524Y-45619819D02*
X173792857Y-45619819D01*
X173792857Y-45619819D02*
X173888095Y-45667438D01*
X173888095Y-45667438D02*
X173935714Y-45715057D01*
X173935714Y-45715057D02*
X173983333Y-45810295D01*
X173983333Y-45810295D02*
X173983333Y-45905533D01*
X173983333Y-45905533D02*
X173935714Y-46000771D01*
X173935714Y-46000771D02*
X173888095Y-46048390D01*
X173888095Y-46048390D02*
X173792857Y-46096009D01*
X173792857Y-46096009D02*
X173459524Y-46096009D01*
X174650000Y-45619819D02*
X174840476Y-45619819D01*
X174840476Y-45619819D02*
X174935714Y-45667438D01*
X174935714Y-45667438D02*
X175030952Y-45762676D01*
X175030952Y-45762676D02*
X175078571Y-45953152D01*
X175078571Y-45953152D02*
X175078571Y-46286485D01*
X175078571Y-46286485D02*
X175030952Y-46476961D01*
X175030952Y-46476961D02*
X174935714Y-46572200D01*
X174935714Y-46572200D02*
X174840476Y-46619819D01*
X174840476Y-46619819D02*
X174650000Y-46619819D01*
X174650000Y-46619819D02*
X174554762Y-46572200D01*
X174554762Y-46572200D02*
X174459524Y-46476961D01*
X174459524Y-46476961D02*
X174411905Y-46286485D01*
X174411905Y-46286485D02*
X174411905Y-45953152D01*
X174411905Y-45953152D02*
X174459524Y-45762676D01*
X174459524Y-45762676D02*
X174554762Y-45667438D01*
X174554762Y-45667438D02*
X174650000Y-45619819D01*
X175697619Y-45619819D02*
X175888095Y-45619819D01*
X175888095Y-45619819D02*
X175983333Y-45667438D01*
X175983333Y-45667438D02*
X176078571Y-45762676D01*
X176078571Y-45762676D02*
X176126190Y-45953152D01*
X176126190Y-45953152D02*
X176126190Y-46286485D01*
X176126190Y-46286485D02*
X176078571Y-46476961D01*
X176078571Y-46476961D02*
X175983333Y-46572200D01*
X175983333Y-46572200D02*
X175888095Y-46619819D01*
X175888095Y-46619819D02*
X175697619Y-46619819D01*
X175697619Y-46619819D02*
X175602381Y-46572200D01*
X175602381Y-46572200D02*
X175507143Y-46476961D01*
X175507143Y-46476961D02*
X175459524Y-46286485D01*
X175459524Y-46286485D02*
X175459524Y-45953152D01*
X175459524Y-45953152D02*
X175507143Y-45762676D01*
X175507143Y-45762676D02*
X175602381Y-45667438D01*
X175602381Y-45667438D02*
X175697619Y-45619819D01*
X176411905Y-45619819D02*
X176983333Y-45619819D01*
X176697619Y-46619819D02*
X176697619Y-45619819D01*
X151104819Y-49011904D02*
X150104819Y-49011904D01*
X150581009Y-49011904D02*
X150581009Y-48440476D01*
X151104819Y-48440476D02*
X150104819Y-48440476D01*
X150438152Y-47535714D02*
X151104819Y-47535714D01*
X150057200Y-47773809D02*
X150771485Y-48011904D01*
X150771485Y-48011904D02*
X150771485Y-47392857D01*
X238238095Y-82354819D02*
X238238095Y-81354819D01*
X238238095Y-81831009D02*
X238809523Y-81831009D01*
X238809523Y-82354819D02*
X238809523Y-81354819D01*
X239190476Y-81354819D02*
X239809523Y-81354819D01*
X239809523Y-81354819D02*
X239476190Y-81735771D01*
X239476190Y-81735771D02*
X239619047Y-81735771D01*
X239619047Y-81735771D02*
X239714285Y-81783390D01*
X239714285Y-81783390D02*
X239761904Y-81831009D01*
X239761904Y-81831009D02*
X239809523Y-81926247D01*
X239809523Y-81926247D02*
X239809523Y-82164342D01*
X239809523Y-82164342D02*
X239761904Y-82259580D01*
X239761904Y-82259580D02*
X239714285Y-82307200D01*
X239714285Y-82307200D02*
X239619047Y-82354819D01*
X239619047Y-82354819D02*
X239333333Y-82354819D01*
X239333333Y-82354819D02*
X239238095Y-82307200D01*
X239238095Y-82307200D02*
X239190476Y-82259580D01*
X153738095Y-90054819D02*
X153738095Y-89054819D01*
X153738095Y-89531009D02*
X154309523Y-89531009D01*
X154309523Y-90054819D02*
X154309523Y-89054819D01*
X154738095Y-89150057D02*
X154785714Y-89102438D01*
X154785714Y-89102438D02*
X154880952Y-89054819D01*
X154880952Y-89054819D02*
X155119047Y-89054819D01*
X155119047Y-89054819D02*
X155214285Y-89102438D01*
X155214285Y-89102438D02*
X155261904Y-89150057D01*
X155261904Y-89150057D02*
X155309523Y-89245295D01*
X155309523Y-89245295D02*
X155309523Y-89340533D01*
X155309523Y-89340533D02*
X155261904Y-89483390D01*
X155261904Y-89483390D02*
X154690476Y-90054819D01*
X154690476Y-90054819D02*
X155309523Y-90054819D01*
X238238095Y-52554819D02*
X238238095Y-51554819D01*
X238238095Y-52031009D02*
X238809523Y-52031009D01*
X238809523Y-52554819D02*
X238809523Y-51554819D01*
X239809523Y-52554819D02*
X239238095Y-52554819D01*
X239523809Y-52554819D02*
X239523809Y-51554819D01*
X239523809Y-51554819D02*
X239428571Y-51697676D01*
X239428571Y-51697676D02*
X239333333Y-51792914D01*
X239333333Y-51792914D02*
X239238095Y-51840533D01*
X178804819Y-80838094D02*
X177804819Y-80838094D01*
X177804819Y-80838094D02*
X177804819Y-80599999D01*
X177804819Y-80599999D02*
X177852438Y-80457142D01*
X177852438Y-80457142D02*
X177947676Y-80361904D01*
X177947676Y-80361904D02*
X178042914Y-80314285D01*
X178042914Y-80314285D02*
X178233390Y-80266666D01*
X178233390Y-80266666D02*
X178376247Y-80266666D01*
X178376247Y-80266666D02*
X178566723Y-80314285D01*
X178566723Y-80314285D02*
X178661961Y-80361904D01*
X178661961Y-80361904D02*
X178757200Y-80457142D01*
X178757200Y-80457142D02*
X178804819Y-80599999D01*
X178804819Y-80599999D02*
X178804819Y-80838094D01*
X178804819Y-79314285D02*
X178804819Y-79885713D01*
X178804819Y-79599999D02*
X177804819Y-79599999D01*
X177804819Y-79599999D02*
X177947676Y-79695237D01*
X177947676Y-79695237D02*
X178042914Y-79790475D01*
X178042914Y-79790475D02*
X178090533Y-79885713D01*
X164788533Y-75105619D02*
X164455200Y-74629428D01*
X164217105Y-75105619D02*
X164217105Y-74105619D01*
X164217105Y-74105619D02*
X164598057Y-74105619D01*
X164598057Y-74105619D02*
X164693295Y-74153238D01*
X164693295Y-74153238D02*
X164740914Y-74200857D01*
X164740914Y-74200857D02*
X164788533Y-74296095D01*
X164788533Y-74296095D02*
X164788533Y-74438952D01*
X164788533Y-74438952D02*
X164740914Y-74534190D01*
X164740914Y-74534190D02*
X164693295Y-74581809D01*
X164693295Y-74581809D02*
X164598057Y-74629428D01*
X164598057Y-74629428D02*
X164217105Y-74629428D01*
X165693295Y-74105619D02*
X165217105Y-74105619D01*
X165217105Y-74105619D02*
X165169486Y-74581809D01*
X165169486Y-74581809D02*
X165217105Y-74534190D01*
X165217105Y-74534190D02*
X165312343Y-74486571D01*
X165312343Y-74486571D02*
X165550438Y-74486571D01*
X165550438Y-74486571D02*
X165645676Y-74534190D01*
X165645676Y-74534190D02*
X165693295Y-74581809D01*
X165693295Y-74581809D02*
X165740914Y-74677047D01*
X165740914Y-74677047D02*
X165740914Y-74915142D01*
X165740914Y-74915142D02*
X165693295Y-75010380D01*
X165693295Y-75010380D02*
X165645676Y-75058000D01*
X165645676Y-75058000D02*
X165550438Y-75105619D01*
X165550438Y-75105619D02*
X165312343Y-75105619D01*
X165312343Y-75105619D02*
X165217105Y-75058000D01*
X165217105Y-75058000D02*
X165169486Y-75010380D01*
X185386742Y-88745219D02*
X185053409Y-88269028D01*
X184815314Y-88745219D02*
X184815314Y-87745219D01*
X184815314Y-87745219D02*
X185196266Y-87745219D01*
X185196266Y-87745219D02*
X185291504Y-87792838D01*
X185291504Y-87792838D02*
X185339123Y-87840457D01*
X185339123Y-87840457D02*
X185386742Y-87935695D01*
X185386742Y-87935695D02*
X185386742Y-88078552D01*
X185386742Y-88078552D02*
X185339123Y-88173790D01*
X185339123Y-88173790D02*
X185291504Y-88221409D01*
X185291504Y-88221409D02*
X185196266Y-88269028D01*
X185196266Y-88269028D02*
X184815314Y-88269028D01*
X186339123Y-88745219D02*
X185767695Y-88745219D01*
X186053409Y-88745219D02*
X186053409Y-87745219D01*
X186053409Y-87745219D02*
X185958171Y-87888076D01*
X185958171Y-87888076D02*
X185862933Y-87983314D01*
X185862933Y-87983314D02*
X185767695Y-88030933D01*
X186720076Y-87840457D02*
X186767695Y-87792838D01*
X186767695Y-87792838D02*
X186862933Y-87745219D01*
X186862933Y-87745219D02*
X187101028Y-87745219D01*
X187101028Y-87745219D02*
X187196266Y-87792838D01*
X187196266Y-87792838D02*
X187243885Y-87840457D01*
X187243885Y-87840457D02*
X187291504Y-87935695D01*
X187291504Y-87935695D02*
X187291504Y-88030933D01*
X187291504Y-88030933D02*
X187243885Y-88173790D01*
X187243885Y-88173790D02*
X186672457Y-88745219D01*
X186672457Y-88745219D02*
X187291504Y-88745219D01*
X173016666Y-76854819D02*
X173016666Y-77569104D01*
X173016666Y-77569104D02*
X172969047Y-77711961D01*
X172969047Y-77711961D02*
X172873809Y-77807200D01*
X172873809Y-77807200D02*
X172730952Y-77854819D01*
X172730952Y-77854819D02*
X172635714Y-77854819D01*
X173445238Y-76950057D02*
X173492857Y-76902438D01*
X173492857Y-76902438D02*
X173588095Y-76854819D01*
X173588095Y-76854819D02*
X173826190Y-76854819D01*
X173826190Y-76854819D02*
X173921428Y-76902438D01*
X173921428Y-76902438D02*
X173969047Y-76950057D01*
X173969047Y-76950057D02*
X174016666Y-77045295D01*
X174016666Y-77045295D02*
X174016666Y-77140533D01*
X174016666Y-77140533D02*
X173969047Y-77283390D01*
X173969047Y-77283390D02*
X173397619Y-77854819D01*
X173397619Y-77854819D02*
X174016666Y-77854819D01*
X185812133Y-76248419D02*
X185478800Y-75772228D01*
X185240705Y-76248419D02*
X185240705Y-75248419D01*
X185240705Y-75248419D02*
X185621657Y-75248419D01*
X185621657Y-75248419D02*
X185716895Y-75296038D01*
X185716895Y-75296038D02*
X185764514Y-75343657D01*
X185764514Y-75343657D02*
X185812133Y-75438895D01*
X185812133Y-75438895D02*
X185812133Y-75581752D01*
X185812133Y-75581752D02*
X185764514Y-75676990D01*
X185764514Y-75676990D02*
X185716895Y-75724609D01*
X185716895Y-75724609D02*
X185621657Y-75772228D01*
X185621657Y-75772228D02*
X185240705Y-75772228D01*
X186383562Y-75676990D02*
X186288324Y-75629371D01*
X186288324Y-75629371D02*
X186240705Y-75581752D01*
X186240705Y-75581752D02*
X186193086Y-75486514D01*
X186193086Y-75486514D02*
X186193086Y-75438895D01*
X186193086Y-75438895D02*
X186240705Y-75343657D01*
X186240705Y-75343657D02*
X186288324Y-75296038D01*
X186288324Y-75296038D02*
X186383562Y-75248419D01*
X186383562Y-75248419D02*
X186574038Y-75248419D01*
X186574038Y-75248419D02*
X186669276Y-75296038D01*
X186669276Y-75296038D02*
X186716895Y-75343657D01*
X186716895Y-75343657D02*
X186764514Y-75438895D01*
X186764514Y-75438895D02*
X186764514Y-75486514D01*
X186764514Y-75486514D02*
X186716895Y-75581752D01*
X186716895Y-75581752D02*
X186669276Y-75629371D01*
X186669276Y-75629371D02*
X186574038Y-75676990D01*
X186574038Y-75676990D02*
X186383562Y-75676990D01*
X186383562Y-75676990D02*
X186288324Y-75724609D01*
X186288324Y-75724609D02*
X186240705Y-75772228D01*
X186240705Y-75772228D02*
X186193086Y-75867466D01*
X186193086Y-75867466D02*
X186193086Y-76057942D01*
X186193086Y-76057942D02*
X186240705Y-76153180D01*
X186240705Y-76153180D02*
X186288324Y-76200800D01*
X186288324Y-76200800D02*
X186383562Y-76248419D01*
X186383562Y-76248419D02*
X186574038Y-76248419D01*
X186574038Y-76248419D02*
X186669276Y-76200800D01*
X186669276Y-76200800D02*
X186716895Y-76153180D01*
X186716895Y-76153180D02*
X186764514Y-76057942D01*
X186764514Y-76057942D02*
X186764514Y-75867466D01*
X186764514Y-75867466D02*
X186716895Y-75772228D01*
X186716895Y-75772228D02*
X186669276Y-75724609D01*
X186669276Y-75724609D02*
X186574038Y-75676990D01*
X186690095Y-66866419D02*
X186690095Y-67675942D01*
X186690095Y-67675942D02*
X186737714Y-67771180D01*
X186737714Y-67771180D02*
X186785333Y-67818800D01*
X186785333Y-67818800D02*
X186880571Y-67866419D01*
X186880571Y-67866419D02*
X187071047Y-67866419D01*
X187071047Y-67866419D02*
X187166285Y-67818800D01*
X187166285Y-67818800D02*
X187213904Y-67771180D01*
X187213904Y-67771180D02*
X187261523Y-67675942D01*
X187261523Y-67675942D02*
X187261523Y-66866419D01*
X188261523Y-67866419D02*
X187690095Y-67866419D01*
X187975809Y-67866419D02*
X187975809Y-66866419D01*
X187975809Y-66866419D02*
X187880571Y-67009276D01*
X187880571Y-67009276D02*
X187785333Y-67104514D01*
X187785333Y-67104514D02*
X187690095Y-67152133D01*
X198251866Y-66002819D02*
X198251866Y-66717104D01*
X198251866Y-66717104D02*
X198204247Y-66859961D01*
X198204247Y-66859961D02*
X198109009Y-66955200D01*
X198109009Y-66955200D02*
X197966152Y-67002819D01*
X197966152Y-67002819D02*
X197870914Y-67002819D01*
X198728057Y-67002819D02*
X198728057Y-66002819D01*
X198728057Y-66002819D02*
X199109009Y-66002819D01*
X199109009Y-66002819D02*
X199204247Y-66050438D01*
X199204247Y-66050438D02*
X199251866Y-66098057D01*
X199251866Y-66098057D02*
X199299485Y-66193295D01*
X199299485Y-66193295D02*
X199299485Y-66336152D01*
X199299485Y-66336152D02*
X199251866Y-66431390D01*
X199251866Y-66431390D02*
X199204247Y-66479009D01*
X199204247Y-66479009D02*
X199109009Y-66526628D01*
X199109009Y-66526628D02*
X198728057Y-66526628D01*
X200251866Y-67002819D02*
X199680438Y-67002819D01*
X199966152Y-67002819D02*
X199966152Y-66002819D01*
X199966152Y-66002819D02*
X199870914Y-66145676D01*
X199870914Y-66145676D02*
X199775676Y-66240914D01*
X199775676Y-66240914D02*
X199680438Y-66288533D01*
X170516667Y-49757200D02*
X170659524Y-49804819D01*
X170659524Y-49804819D02*
X170897619Y-49804819D01*
X170897619Y-49804819D02*
X170992857Y-49757200D01*
X170992857Y-49757200D02*
X171040476Y-49709580D01*
X171040476Y-49709580D02*
X171088095Y-49614342D01*
X171088095Y-49614342D02*
X171088095Y-49519104D01*
X171088095Y-49519104D02*
X171040476Y-49423866D01*
X171040476Y-49423866D02*
X170992857Y-49376247D01*
X170992857Y-49376247D02*
X170897619Y-49328628D01*
X170897619Y-49328628D02*
X170707143Y-49281009D01*
X170707143Y-49281009D02*
X170611905Y-49233390D01*
X170611905Y-49233390D02*
X170564286Y-49185771D01*
X170564286Y-49185771D02*
X170516667Y-49090533D01*
X170516667Y-49090533D02*
X170516667Y-48995295D01*
X170516667Y-48995295D02*
X170564286Y-48900057D01*
X170564286Y-48900057D02*
X170611905Y-48852438D01*
X170611905Y-48852438D02*
X170707143Y-48804819D01*
X170707143Y-48804819D02*
X170945238Y-48804819D01*
X170945238Y-48804819D02*
X171088095Y-48852438D01*
X171421429Y-48804819D02*
X171659524Y-49804819D01*
X171659524Y-49804819D02*
X171850000Y-49090533D01*
X171850000Y-49090533D02*
X172040476Y-49804819D01*
X172040476Y-49804819D02*
X172278572Y-48804819D01*
X172564286Y-48804819D02*
X173183333Y-48804819D01*
X173183333Y-48804819D02*
X172850000Y-49185771D01*
X172850000Y-49185771D02*
X172992857Y-49185771D01*
X172992857Y-49185771D02*
X173088095Y-49233390D01*
X173088095Y-49233390D02*
X173135714Y-49281009D01*
X173135714Y-49281009D02*
X173183333Y-49376247D01*
X173183333Y-49376247D02*
X173183333Y-49614342D01*
X173183333Y-49614342D02*
X173135714Y-49709580D01*
X173135714Y-49709580D02*
X173088095Y-49757200D01*
X173088095Y-49757200D02*
X172992857Y-49804819D01*
X172992857Y-49804819D02*
X172707143Y-49804819D01*
X172707143Y-49804819D02*
X172611905Y-49757200D01*
X172611905Y-49757200D02*
X172564286Y-49709580D01*
X208284242Y-82722619D02*
X207950909Y-82246428D01*
X207712814Y-82722619D02*
X207712814Y-81722619D01*
X207712814Y-81722619D02*
X208093766Y-81722619D01*
X208093766Y-81722619D02*
X208189004Y-81770238D01*
X208189004Y-81770238D02*
X208236623Y-81817857D01*
X208236623Y-81817857D02*
X208284242Y-81913095D01*
X208284242Y-81913095D02*
X208284242Y-82055952D01*
X208284242Y-82055952D02*
X208236623Y-82151190D01*
X208236623Y-82151190D02*
X208189004Y-82198809D01*
X208189004Y-82198809D02*
X208093766Y-82246428D01*
X208093766Y-82246428D02*
X207712814Y-82246428D01*
X209236623Y-82722619D02*
X208665195Y-82722619D01*
X208950909Y-82722619D02*
X208950909Y-81722619D01*
X208950909Y-81722619D02*
X208855671Y-81865476D01*
X208855671Y-81865476D02*
X208760433Y-81960714D01*
X208760433Y-81960714D02*
X208665195Y-82008333D01*
X210189004Y-82722619D02*
X209617576Y-82722619D01*
X209903290Y-82722619D02*
X209903290Y-81722619D01*
X209903290Y-81722619D02*
X209808052Y-81865476D01*
X209808052Y-81865476D02*
X209712814Y-81960714D01*
X209712814Y-81960714D02*
X209617576Y-82008333D01*
X203019066Y-72302019D02*
X203019066Y-73016304D01*
X203019066Y-73016304D02*
X202971447Y-73159161D01*
X202971447Y-73159161D02*
X202876209Y-73254400D01*
X202876209Y-73254400D02*
X202733352Y-73302019D01*
X202733352Y-73302019D02*
X202638114Y-73302019D01*
X203923828Y-72302019D02*
X203733352Y-72302019D01*
X203733352Y-72302019D02*
X203638114Y-72349638D01*
X203638114Y-72349638D02*
X203590495Y-72397257D01*
X203590495Y-72397257D02*
X203495257Y-72540114D01*
X203495257Y-72540114D02*
X203447638Y-72730590D01*
X203447638Y-72730590D02*
X203447638Y-73111542D01*
X203447638Y-73111542D02*
X203495257Y-73206780D01*
X203495257Y-73206780D02*
X203542876Y-73254400D01*
X203542876Y-73254400D02*
X203638114Y-73302019D01*
X203638114Y-73302019D02*
X203828590Y-73302019D01*
X203828590Y-73302019D02*
X203923828Y-73254400D01*
X203923828Y-73254400D02*
X203971447Y-73206780D01*
X203971447Y-73206780D02*
X204019066Y-73111542D01*
X204019066Y-73111542D02*
X204019066Y-72873447D01*
X204019066Y-72873447D02*
X203971447Y-72778209D01*
X203971447Y-72778209D02*
X203923828Y-72730590D01*
X203923828Y-72730590D02*
X203828590Y-72682971D01*
X203828590Y-72682971D02*
X203638114Y-72682971D01*
X203638114Y-72682971D02*
X203542876Y-72730590D01*
X203542876Y-72730590D02*
X203495257Y-72778209D01*
X203495257Y-72778209D02*
X203447638Y-72873447D01*
X235608019Y-71156389D02*
X234608019Y-71156389D01*
X235512780Y-70108771D02*
X235560400Y-70156390D01*
X235560400Y-70156390D02*
X235608019Y-70299247D01*
X235608019Y-70299247D02*
X235608019Y-70394485D01*
X235608019Y-70394485D02*
X235560400Y-70537342D01*
X235560400Y-70537342D02*
X235465161Y-70632580D01*
X235465161Y-70632580D02*
X235369923Y-70680199D01*
X235369923Y-70680199D02*
X235179447Y-70727818D01*
X235179447Y-70727818D02*
X235036590Y-70727818D01*
X235036590Y-70727818D02*
X234846114Y-70680199D01*
X234846114Y-70680199D02*
X234750876Y-70632580D01*
X234750876Y-70632580D02*
X234655638Y-70537342D01*
X234655638Y-70537342D02*
X234608019Y-70394485D01*
X234608019Y-70394485D02*
X234608019Y-70299247D01*
X234608019Y-70299247D02*
X234655638Y-70156390D01*
X234655638Y-70156390D02*
X234703257Y-70108771D01*
X235608019Y-69156390D02*
X235608019Y-69727818D01*
X235608019Y-69442104D02*
X234608019Y-69442104D01*
X234608019Y-69442104D02*
X234750876Y-69537342D01*
X234750876Y-69537342D02*
X234846114Y-69632580D01*
X234846114Y-69632580D02*
X234893733Y-69727818D01*
X239128700Y-68772828D02*
X239128700Y-67629971D01*
X239700128Y-68201399D02*
X238557271Y-68201399D01*
X239128700Y-81772828D02*
X239128700Y-80629971D01*
X224012019Y-51815904D02*
X224821542Y-51815904D01*
X224821542Y-51815904D02*
X224916780Y-51768285D01*
X224916780Y-51768285D02*
X224964400Y-51720666D01*
X224964400Y-51720666D02*
X225012019Y-51625428D01*
X225012019Y-51625428D02*
X225012019Y-51434952D01*
X225012019Y-51434952D02*
X224964400Y-51339714D01*
X224964400Y-51339714D02*
X224916780Y-51292095D01*
X224916780Y-51292095D02*
X224821542Y-51244476D01*
X224821542Y-51244476D02*
X224012019Y-51244476D01*
X224012019Y-50863523D02*
X224012019Y-50196857D01*
X224012019Y-50196857D02*
X225012019Y-50625428D01*
X196662666Y-45170819D02*
X196662666Y-45885104D01*
X196662666Y-45885104D02*
X196615047Y-46027961D01*
X196615047Y-46027961D02*
X196519809Y-46123200D01*
X196519809Y-46123200D02*
X196376952Y-46170819D01*
X196376952Y-46170819D02*
X196281714Y-46170819D01*
X197662666Y-46170819D02*
X197091238Y-46170819D01*
X197376952Y-46170819D02*
X197376952Y-45170819D01*
X197376952Y-45170819D02*
X197281714Y-45313676D01*
X197281714Y-45313676D02*
X197186476Y-45408914D01*
X197186476Y-45408914D02*
X197091238Y-45456533D01*
X208722933Y-76224219D02*
X208389600Y-75748028D01*
X208151505Y-76224219D02*
X208151505Y-75224219D01*
X208151505Y-75224219D02*
X208532457Y-75224219D01*
X208532457Y-75224219D02*
X208627695Y-75271838D01*
X208627695Y-75271838D02*
X208675314Y-75319457D01*
X208675314Y-75319457D02*
X208722933Y-75414695D01*
X208722933Y-75414695D02*
X208722933Y-75557552D01*
X208722933Y-75557552D02*
X208675314Y-75652790D01*
X208675314Y-75652790D02*
X208627695Y-75700409D01*
X208627695Y-75700409D02*
X208532457Y-75748028D01*
X208532457Y-75748028D02*
X208151505Y-75748028D01*
X209199124Y-76224219D02*
X209389600Y-76224219D01*
X209389600Y-76224219D02*
X209484838Y-76176600D01*
X209484838Y-76176600D02*
X209532457Y-76128980D01*
X209532457Y-76128980D02*
X209627695Y-75986123D01*
X209627695Y-75986123D02*
X209675314Y-75795647D01*
X209675314Y-75795647D02*
X209675314Y-75414695D01*
X209675314Y-75414695D02*
X209627695Y-75319457D01*
X209627695Y-75319457D02*
X209580076Y-75271838D01*
X209580076Y-75271838D02*
X209484838Y-75224219D01*
X209484838Y-75224219D02*
X209294362Y-75224219D01*
X209294362Y-75224219D02*
X209199124Y-75271838D01*
X209199124Y-75271838D02*
X209151505Y-75319457D01*
X209151505Y-75319457D02*
X209103886Y-75414695D01*
X209103886Y-75414695D02*
X209103886Y-75652790D01*
X209103886Y-75652790D02*
X209151505Y-75748028D01*
X209151505Y-75748028D02*
X209199124Y-75795647D01*
X209199124Y-75795647D02*
X209294362Y-75843266D01*
X209294362Y-75843266D02*
X209484838Y-75843266D01*
X209484838Y-75843266D02*
X209580076Y-75795647D01*
X209580076Y-75795647D02*
X209627695Y-75748028D01*
X209627695Y-75748028D02*
X209675314Y-75652790D01*
X164831733Y-77416819D02*
X164498400Y-76940628D01*
X164260305Y-77416819D02*
X164260305Y-76416819D01*
X164260305Y-76416819D02*
X164641257Y-76416819D01*
X164641257Y-76416819D02*
X164736495Y-76464438D01*
X164736495Y-76464438D02*
X164784114Y-76512057D01*
X164784114Y-76512057D02*
X164831733Y-76607295D01*
X164831733Y-76607295D02*
X164831733Y-76750152D01*
X164831733Y-76750152D02*
X164784114Y-76845390D01*
X164784114Y-76845390D02*
X164736495Y-76893009D01*
X164736495Y-76893009D02*
X164641257Y-76940628D01*
X164641257Y-76940628D02*
X164260305Y-76940628D01*
X165688876Y-76416819D02*
X165498400Y-76416819D01*
X165498400Y-76416819D02*
X165403162Y-76464438D01*
X165403162Y-76464438D02*
X165355543Y-76512057D01*
X165355543Y-76512057D02*
X165260305Y-76654914D01*
X165260305Y-76654914D02*
X165212686Y-76845390D01*
X165212686Y-76845390D02*
X165212686Y-77226342D01*
X165212686Y-77226342D02*
X165260305Y-77321580D01*
X165260305Y-77321580D02*
X165307924Y-77369200D01*
X165307924Y-77369200D02*
X165403162Y-77416819D01*
X165403162Y-77416819D02*
X165593638Y-77416819D01*
X165593638Y-77416819D02*
X165688876Y-77369200D01*
X165688876Y-77369200D02*
X165736495Y-77321580D01*
X165736495Y-77321580D02*
X165784114Y-77226342D01*
X165784114Y-77226342D02*
X165784114Y-76988247D01*
X165784114Y-76988247D02*
X165736495Y-76893009D01*
X165736495Y-76893009D02*
X165688876Y-76845390D01*
X165688876Y-76845390D02*
X165593638Y-76797771D01*
X165593638Y-76797771D02*
X165403162Y-76797771D01*
X165403162Y-76797771D02*
X165307924Y-76845390D01*
X165307924Y-76845390D02*
X165260305Y-76893009D01*
X165260305Y-76893009D02*
X165212686Y-76988247D01*
X211515219Y-51805904D02*
X212324742Y-51805904D01*
X212324742Y-51805904D02*
X212419980Y-51758285D01*
X212419980Y-51758285D02*
X212467600Y-51710666D01*
X212467600Y-51710666D02*
X212515219Y-51615428D01*
X212515219Y-51615428D02*
X212515219Y-51424952D01*
X212515219Y-51424952D02*
X212467600Y-51329714D01*
X212467600Y-51329714D02*
X212419980Y-51282095D01*
X212419980Y-51282095D02*
X212324742Y-51234476D01*
X212324742Y-51234476D02*
X211515219Y-51234476D01*
X211943790Y-50615428D02*
X211896171Y-50710666D01*
X211896171Y-50710666D02*
X211848552Y-50758285D01*
X211848552Y-50758285D02*
X211753314Y-50805904D01*
X211753314Y-50805904D02*
X211705695Y-50805904D01*
X211705695Y-50805904D02*
X211610457Y-50758285D01*
X211610457Y-50758285D02*
X211562838Y-50710666D01*
X211562838Y-50710666D02*
X211515219Y-50615428D01*
X211515219Y-50615428D02*
X211515219Y-50424952D01*
X211515219Y-50424952D02*
X211562838Y-50329714D01*
X211562838Y-50329714D02*
X211610457Y-50282095D01*
X211610457Y-50282095D02*
X211705695Y-50234476D01*
X211705695Y-50234476D02*
X211753314Y-50234476D01*
X211753314Y-50234476D02*
X211848552Y-50282095D01*
X211848552Y-50282095D02*
X211896171Y-50329714D01*
X211896171Y-50329714D02*
X211943790Y-50424952D01*
X211943790Y-50424952D02*
X211943790Y-50615428D01*
X211943790Y-50615428D02*
X211991409Y-50710666D01*
X211991409Y-50710666D02*
X212039028Y-50758285D01*
X212039028Y-50758285D02*
X212134266Y-50805904D01*
X212134266Y-50805904D02*
X212324742Y-50805904D01*
X212324742Y-50805904D02*
X212419980Y-50758285D01*
X212419980Y-50758285D02*
X212467600Y-50710666D01*
X212467600Y-50710666D02*
X212515219Y-50615428D01*
X212515219Y-50615428D02*
X212515219Y-50424952D01*
X212515219Y-50424952D02*
X212467600Y-50329714D01*
X212467600Y-50329714D02*
X212419980Y-50282095D01*
X212419980Y-50282095D02*
X212324742Y-50234476D01*
X212324742Y-50234476D02*
X212134266Y-50234476D01*
X212134266Y-50234476D02*
X212039028Y-50282095D01*
X212039028Y-50282095D02*
X211991409Y-50329714D01*
X211991409Y-50329714D02*
X211943790Y-50424952D01*
X160954819Y-62511904D02*
X161764342Y-62511904D01*
X161764342Y-62511904D02*
X161859580Y-62464285D01*
X161859580Y-62464285D02*
X161907200Y-62416666D01*
X161907200Y-62416666D02*
X161954819Y-62321428D01*
X161954819Y-62321428D02*
X161954819Y-62130952D01*
X161954819Y-62130952D02*
X161907200Y-62035714D01*
X161907200Y-62035714D02*
X161859580Y-61988095D01*
X161859580Y-61988095D02*
X161764342Y-61940476D01*
X161764342Y-61940476D02*
X160954819Y-61940476D01*
X161050057Y-61511904D02*
X161002438Y-61464285D01*
X161002438Y-61464285D02*
X160954819Y-61369047D01*
X160954819Y-61369047D02*
X160954819Y-61130952D01*
X160954819Y-61130952D02*
X161002438Y-61035714D01*
X161002438Y-61035714D02*
X161050057Y-60988095D01*
X161050057Y-60988095D02*
X161145295Y-60940476D01*
X161145295Y-60940476D02*
X161240533Y-60940476D01*
X161240533Y-60940476D02*
X161383390Y-60988095D01*
X161383390Y-60988095D02*
X161954819Y-61559523D01*
X161954819Y-61559523D02*
X161954819Y-60940476D01*
X154253104Y-66511905D02*
X154253104Y-66035715D01*
X154538819Y-66607143D02*
X153538819Y-66273810D01*
X153538819Y-66273810D02*
X154538819Y-65940477D01*
X153872152Y-65607143D02*
X154538819Y-65607143D01*
X153967390Y-65607143D02*
X153919771Y-65559524D01*
X153919771Y-65559524D02*
X153872152Y-65464286D01*
X153872152Y-65464286D02*
X153872152Y-65321429D01*
X153872152Y-65321429D02*
X153919771Y-65226191D01*
X153919771Y-65226191D02*
X154015009Y-65178572D01*
X154015009Y-65178572D02*
X154538819Y-65178572D01*
X153872152Y-64845238D02*
X153872152Y-64464286D01*
X153538819Y-64702381D02*
X154395961Y-64702381D01*
X154395961Y-64702381D02*
X154491200Y-64654762D01*
X154491200Y-64654762D02*
X154538819Y-64559524D01*
X154538819Y-64559524D02*
X154538819Y-64464286D01*
X154491200Y-63750000D02*
X154538819Y-63845238D01*
X154538819Y-63845238D02*
X154538819Y-64035714D01*
X154538819Y-64035714D02*
X154491200Y-64130952D01*
X154491200Y-64130952D02*
X154395961Y-64178571D01*
X154395961Y-64178571D02*
X154015009Y-64178571D01*
X154015009Y-64178571D02*
X153919771Y-64130952D01*
X153919771Y-64130952D02*
X153872152Y-64035714D01*
X153872152Y-64035714D02*
X153872152Y-63845238D01*
X153872152Y-63845238D02*
X153919771Y-63750000D01*
X153919771Y-63750000D02*
X154015009Y-63702381D01*
X154015009Y-63702381D02*
X154110247Y-63702381D01*
X154110247Y-63702381D02*
X154205485Y-64178571D01*
X153872152Y-63273809D02*
X154538819Y-63273809D01*
X153967390Y-63273809D02*
X153919771Y-63226190D01*
X153919771Y-63226190D02*
X153872152Y-63130952D01*
X153872152Y-63130952D02*
X153872152Y-62988095D01*
X153872152Y-62988095D02*
X153919771Y-62892857D01*
X153919771Y-62892857D02*
X154015009Y-62845238D01*
X154015009Y-62845238D02*
X154538819Y-62845238D01*
X153872152Y-62369047D02*
X154538819Y-62369047D01*
X153967390Y-62369047D02*
X153919771Y-62321428D01*
X153919771Y-62321428D02*
X153872152Y-62226190D01*
X153872152Y-62226190D02*
X153872152Y-62083333D01*
X153872152Y-62083333D02*
X153919771Y-61988095D01*
X153919771Y-61988095D02*
X154015009Y-61940476D01*
X154015009Y-61940476D02*
X154538819Y-61940476D01*
X154538819Y-61035714D02*
X154015009Y-61035714D01*
X154015009Y-61035714D02*
X153919771Y-61083333D01*
X153919771Y-61083333D02*
X153872152Y-61178571D01*
X153872152Y-61178571D02*
X153872152Y-61369047D01*
X153872152Y-61369047D02*
X153919771Y-61464285D01*
X154491200Y-61035714D02*
X154538819Y-61130952D01*
X154538819Y-61130952D02*
X154538819Y-61369047D01*
X154538819Y-61369047D02*
X154491200Y-61464285D01*
X154491200Y-61464285D02*
X154395961Y-61511904D01*
X154395961Y-61511904D02*
X154300723Y-61511904D01*
X154300723Y-61511904D02*
X154205485Y-61464285D01*
X154205485Y-61464285D02*
X154157866Y-61369047D01*
X154157866Y-61369047D02*
X154157866Y-61130952D01*
X154157866Y-61130952D02*
X154110247Y-61035714D01*
X154253104Y-59845237D02*
X154253104Y-59369047D01*
X154538819Y-59940475D02*
X153538819Y-59607142D01*
X153538819Y-59607142D02*
X154538819Y-59273809D01*
X154538819Y-58940475D02*
X153872152Y-58940475D01*
X154062628Y-58940475D02*
X153967390Y-58892856D01*
X153967390Y-58892856D02*
X153919771Y-58845237D01*
X153919771Y-58845237D02*
X153872152Y-58749999D01*
X153872152Y-58749999D02*
X153872152Y-58654761D01*
X154491200Y-57940475D02*
X154538819Y-58035713D01*
X154538819Y-58035713D02*
X154538819Y-58226189D01*
X154538819Y-58226189D02*
X154491200Y-58321427D01*
X154491200Y-58321427D02*
X154395961Y-58369046D01*
X154395961Y-58369046D02*
X154015009Y-58369046D01*
X154015009Y-58369046D02*
X153919771Y-58321427D01*
X153919771Y-58321427D02*
X153872152Y-58226189D01*
X153872152Y-58226189D02*
X153872152Y-58035713D01*
X153872152Y-58035713D02*
X153919771Y-57940475D01*
X153919771Y-57940475D02*
X154015009Y-57892856D01*
X154015009Y-57892856D02*
X154110247Y-57892856D01*
X154110247Y-57892856D02*
X154205485Y-58369046D01*
X154538819Y-57035713D02*
X154015009Y-57035713D01*
X154015009Y-57035713D02*
X153919771Y-57083332D01*
X153919771Y-57083332D02*
X153872152Y-57178570D01*
X153872152Y-57178570D02*
X153872152Y-57369046D01*
X153872152Y-57369046D02*
X153919771Y-57464284D01*
X154491200Y-57035713D02*
X154538819Y-57130951D01*
X154538819Y-57130951D02*
X154538819Y-57369046D01*
X154538819Y-57369046D02*
X154491200Y-57464284D01*
X154491200Y-57464284D02*
X154395961Y-57511903D01*
X154395961Y-57511903D02*
X154300723Y-57511903D01*
X154300723Y-57511903D02*
X154205485Y-57464284D01*
X154205485Y-57464284D02*
X154157866Y-57369046D01*
X154157866Y-57369046D02*
X154157866Y-57130951D01*
X154157866Y-57130951D02*
X154110247Y-57035713D01*
X203019066Y-84697219D02*
X203019066Y-85411504D01*
X203019066Y-85411504D02*
X202971447Y-85554361D01*
X202971447Y-85554361D02*
X202876209Y-85649600D01*
X202876209Y-85649600D02*
X202733352Y-85697219D01*
X202733352Y-85697219D02*
X202638114Y-85697219D01*
X203542876Y-85697219D02*
X203733352Y-85697219D01*
X203733352Y-85697219D02*
X203828590Y-85649600D01*
X203828590Y-85649600D02*
X203876209Y-85601980D01*
X203876209Y-85601980D02*
X203971447Y-85459123D01*
X203971447Y-85459123D02*
X204019066Y-85268647D01*
X204019066Y-85268647D02*
X204019066Y-84887695D01*
X204019066Y-84887695D02*
X203971447Y-84792457D01*
X203971447Y-84792457D02*
X203923828Y-84744838D01*
X203923828Y-84744838D02*
X203828590Y-84697219D01*
X203828590Y-84697219D02*
X203638114Y-84697219D01*
X203638114Y-84697219D02*
X203542876Y-84744838D01*
X203542876Y-84744838D02*
X203495257Y-84792457D01*
X203495257Y-84792457D02*
X203447638Y-84887695D01*
X203447638Y-84887695D02*
X203447638Y-85125790D01*
X203447638Y-85125790D02*
X203495257Y-85221028D01*
X203495257Y-85221028D02*
X203542876Y-85268647D01*
X203542876Y-85268647D02*
X203638114Y-85316266D01*
X203638114Y-85316266D02*
X203828590Y-85316266D01*
X203828590Y-85316266D02*
X203923828Y-85268647D01*
X203923828Y-85268647D02*
X203971447Y-85221028D01*
X203971447Y-85221028D02*
X204019066Y-85125790D01*
X218101942Y-61217980D02*
X218054323Y-61265600D01*
X218054323Y-61265600D02*
X217911466Y-61313219D01*
X217911466Y-61313219D02*
X217816228Y-61313219D01*
X217816228Y-61313219D02*
X217673371Y-61265600D01*
X217673371Y-61265600D02*
X217578133Y-61170361D01*
X217578133Y-61170361D02*
X217530514Y-61075123D01*
X217530514Y-61075123D02*
X217482895Y-60884647D01*
X217482895Y-60884647D02*
X217482895Y-60741790D01*
X217482895Y-60741790D02*
X217530514Y-60551314D01*
X217530514Y-60551314D02*
X217578133Y-60456076D01*
X217578133Y-60456076D02*
X217673371Y-60360838D01*
X217673371Y-60360838D02*
X217816228Y-60313219D01*
X217816228Y-60313219D02*
X217911466Y-60313219D01*
X217911466Y-60313219D02*
X218054323Y-60360838D01*
X218054323Y-60360838D02*
X218101942Y-60408457D01*
X219054323Y-61313219D02*
X218482895Y-61313219D01*
X218768609Y-61313219D02*
X218768609Y-60313219D01*
X218768609Y-60313219D02*
X218673371Y-60456076D01*
X218673371Y-60456076D02*
X218578133Y-60551314D01*
X218578133Y-60551314D02*
X218482895Y-60598933D01*
X219435276Y-60408457D02*
X219482895Y-60360838D01*
X219482895Y-60360838D02*
X219578133Y-60313219D01*
X219578133Y-60313219D02*
X219816228Y-60313219D01*
X219816228Y-60313219D02*
X219911466Y-60360838D01*
X219911466Y-60360838D02*
X219959085Y-60408457D01*
X219959085Y-60408457D02*
X220006704Y-60503695D01*
X220006704Y-60503695D02*
X220006704Y-60598933D01*
X220006704Y-60598933D02*
X219959085Y-60741790D01*
X219959085Y-60741790D02*
X219387657Y-61313219D01*
X219387657Y-61313219D02*
X220006704Y-61313219D01*
X190026666Y-51704819D02*
X190026666Y-52419104D01*
X190026666Y-52419104D02*
X189979047Y-52561961D01*
X189979047Y-52561961D02*
X189883809Y-52657200D01*
X189883809Y-52657200D02*
X189740952Y-52704819D01*
X189740952Y-52704819D02*
X189645714Y-52704819D01*
X190407619Y-51704819D02*
X191026666Y-51704819D01*
X191026666Y-51704819D02*
X190693333Y-52085771D01*
X190693333Y-52085771D02*
X190836190Y-52085771D01*
X190836190Y-52085771D02*
X190931428Y-52133390D01*
X190931428Y-52133390D02*
X190979047Y-52181009D01*
X190979047Y-52181009D02*
X191026666Y-52276247D01*
X191026666Y-52276247D02*
X191026666Y-52514342D01*
X191026666Y-52514342D02*
X190979047Y-52609580D01*
X190979047Y-52609580D02*
X190931428Y-52657200D01*
X190931428Y-52657200D02*
X190836190Y-52704819D01*
X190836190Y-52704819D02*
X190550476Y-52704819D01*
X190550476Y-52704819D02*
X190455238Y-52657200D01*
X190455238Y-52657200D02*
X190407619Y-52609580D01*
X232203666Y-76486219D02*
X232203666Y-77200504D01*
X232203666Y-77200504D02*
X232156047Y-77343361D01*
X232156047Y-77343361D02*
X232060809Y-77438600D01*
X232060809Y-77438600D02*
X231917952Y-77486219D01*
X231917952Y-77486219D02*
X231822714Y-77486219D01*
X233108428Y-76819552D02*
X233108428Y-77486219D01*
X232870333Y-76438600D02*
X232632238Y-77152885D01*
X232632238Y-77152885D02*
X233251285Y-77152885D01*
X164260305Y-79753619D02*
X164260305Y-78753619D01*
X164260305Y-78753619D02*
X164498400Y-78753619D01*
X164498400Y-78753619D02*
X164641257Y-78801238D01*
X164641257Y-78801238D02*
X164736495Y-78896476D01*
X164736495Y-78896476D02*
X164784114Y-78991714D01*
X164784114Y-78991714D02*
X164831733Y-79182190D01*
X164831733Y-79182190D02*
X164831733Y-79325047D01*
X164831733Y-79325047D02*
X164784114Y-79515523D01*
X164784114Y-79515523D02*
X164736495Y-79610761D01*
X164736495Y-79610761D02*
X164641257Y-79706000D01*
X164641257Y-79706000D02*
X164498400Y-79753619D01*
X164498400Y-79753619D02*
X164260305Y-79753619D01*
X165212686Y-78848857D02*
X165260305Y-78801238D01*
X165260305Y-78801238D02*
X165355543Y-78753619D01*
X165355543Y-78753619D02*
X165593638Y-78753619D01*
X165593638Y-78753619D02*
X165688876Y-78801238D01*
X165688876Y-78801238D02*
X165736495Y-78848857D01*
X165736495Y-78848857D02*
X165784114Y-78944095D01*
X165784114Y-78944095D02*
X165784114Y-79039333D01*
X165784114Y-79039333D02*
X165736495Y-79182190D01*
X165736495Y-79182190D02*
X165165067Y-79753619D01*
X165165067Y-79753619D02*
X165784114Y-79753619D01*
X178033333Y-52834580D02*
X177985714Y-52882200D01*
X177985714Y-52882200D02*
X177842857Y-52929819D01*
X177842857Y-52929819D02*
X177747619Y-52929819D01*
X177747619Y-52929819D02*
X177604762Y-52882200D01*
X177604762Y-52882200D02*
X177509524Y-52786961D01*
X177509524Y-52786961D02*
X177461905Y-52691723D01*
X177461905Y-52691723D02*
X177414286Y-52501247D01*
X177414286Y-52501247D02*
X177414286Y-52358390D01*
X177414286Y-52358390D02*
X177461905Y-52167914D01*
X177461905Y-52167914D02*
X177509524Y-52072676D01*
X177509524Y-52072676D02*
X177604762Y-51977438D01*
X177604762Y-51977438D02*
X177747619Y-51929819D01*
X177747619Y-51929819D02*
X177842857Y-51929819D01*
X177842857Y-51929819D02*
X177985714Y-51977438D01*
X177985714Y-51977438D02*
X178033333Y-52025057D01*
X178604762Y-52358390D02*
X178509524Y-52310771D01*
X178509524Y-52310771D02*
X178461905Y-52263152D01*
X178461905Y-52263152D02*
X178414286Y-52167914D01*
X178414286Y-52167914D02*
X178414286Y-52120295D01*
X178414286Y-52120295D02*
X178461905Y-52025057D01*
X178461905Y-52025057D02*
X178509524Y-51977438D01*
X178509524Y-51977438D02*
X178604762Y-51929819D01*
X178604762Y-51929819D02*
X178795238Y-51929819D01*
X178795238Y-51929819D02*
X178890476Y-51977438D01*
X178890476Y-51977438D02*
X178938095Y-52025057D01*
X178938095Y-52025057D02*
X178985714Y-52120295D01*
X178985714Y-52120295D02*
X178985714Y-52167914D01*
X178985714Y-52167914D02*
X178938095Y-52263152D01*
X178938095Y-52263152D02*
X178890476Y-52310771D01*
X178890476Y-52310771D02*
X178795238Y-52358390D01*
X178795238Y-52358390D02*
X178604762Y-52358390D01*
X178604762Y-52358390D02*
X178509524Y-52406009D01*
X178509524Y-52406009D02*
X178461905Y-52453628D01*
X178461905Y-52453628D02*
X178414286Y-52548866D01*
X178414286Y-52548866D02*
X178414286Y-52739342D01*
X178414286Y-52739342D02*
X178461905Y-52834580D01*
X178461905Y-52834580D02*
X178509524Y-52882200D01*
X178509524Y-52882200D02*
X178604762Y-52929819D01*
X178604762Y-52929819D02*
X178795238Y-52929819D01*
X178795238Y-52929819D02*
X178890476Y-52882200D01*
X178890476Y-52882200D02*
X178938095Y-52834580D01*
X178938095Y-52834580D02*
X178985714Y-52739342D01*
X178985714Y-52739342D02*
X178985714Y-52548866D01*
X178985714Y-52548866D02*
X178938095Y-52453628D01*
X178938095Y-52453628D02*
X178890476Y-52406009D01*
X178890476Y-52406009D02*
X178795238Y-52358390D01*
X168249695Y-72911619D02*
X168249695Y-73721142D01*
X168249695Y-73721142D02*
X168297314Y-73816380D01*
X168297314Y-73816380D02*
X168344933Y-73864000D01*
X168344933Y-73864000D02*
X168440171Y-73911619D01*
X168440171Y-73911619D02*
X168630647Y-73911619D01*
X168630647Y-73911619D02*
X168725885Y-73864000D01*
X168725885Y-73864000D02*
X168773504Y-73816380D01*
X168773504Y-73816380D02*
X168821123Y-73721142D01*
X168821123Y-73721142D02*
X168821123Y-72911619D01*
X169202076Y-72911619D02*
X169821123Y-72911619D01*
X169821123Y-72911619D02*
X169487790Y-73292571D01*
X169487790Y-73292571D02*
X169630647Y-73292571D01*
X169630647Y-73292571D02*
X169725885Y-73340190D01*
X169725885Y-73340190D02*
X169773504Y-73387809D01*
X169773504Y-73387809D02*
X169821123Y-73483047D01*
X169821123Y-73483047D02*
X169821123Y-73721142D01*
X169821123Y-73721142D02*
X169773504Y-73816380D01*
X169773504Y-73816380D02*
X169725885Y-73864000D01*
X169725885Y-73864000D02*
X169630647Y-73911619D01*
X169630647Y-73911619D02*
X169344933Y-73911619D01*
X169344933Y-73911619D02*
X169249695Y-73864000D01*
X169249695Y-73864000D02*
X169202076Y-73816380D01*
X212818742Y-61217980D02*
X212771123Y-61265600D01*
X212771123Y-61265600D02*
X212628266Y-61313219D01*
X212628266Y-61313219D02*
X212533028Y-61313219D01*
X212533028Y-61313219D02*
X212390171Y-61265600D01*
X212390171Y-61265600D02*
X212294933Y-61170361D01*
X212294933Y-61170361D02*
X212247314Y-61075123D01*
X212247314Y-61075123D02*
X212199695Y-60884647D01*
X212199695Y-60884647D02*
X212199695Y-60741790D01*
X212199695Y-60741790D02*
X212247314Y-60551314D01*
X212247314Y-60551314D02*
X212294933Y-60456076D01*
X212294933Y-60456076D02*
X212390171Y-60360838D01*
X212390171Y-60360838D02*
X212533028Y-60313219D01*
X212533028Y-60313219D02*
X212628266Y-60313219D01*
X212628266Y-60313219D02*
X212771123Y-60360838D01*
X212771123Y-60360838D02*
X212818742Y-60408457D01*
X213771123Y-61313219D02*
X213199695Y-61313219D01*
X213485409Y-61313219D02*
X213485409Y-60313219D01*
X213485409Y-60313219D02*
X213390171Y-60456076D01*
X213390171Y-60456076D02*
X213294933Y-60551314D01*
X213294933Y-60551314D02*
X213199695Y-60598933D01*
X214104457Y-60313219D02*
X214723504Y-60313219D01*
X214723504Y-60313219D02*
X214390171Y-60694171D01*
X214390171Y-60694171D02*
X214533028Y-60694171D01*
X214533028Y-60694171D02*
X214628266Y-60741790D01*
X214628266Y-60741790D02*
X214675885Y-60789409D01*
X214675885Y-60789409D02*
X214723504Y-60884647D01*
X214723504Y-60884647D02*
X214723504Y-61122742D01*
X214723504Y-61122742D02*
X214675885Y-61217980D01*
X214675885Y-61217980D02*
X214628266Y-61265600D01*
X214628266Y-61265600D02*
X214533028Y-61313219D01*
X214533028Y-61313219D02*
X214247314Y-61313219D01*
X214247314Y-61313219D02*
X214152076Y-61265600D01*
X214152076Y-61265600D02*
X214104457Y-61217980D01*
X172358333Y-79600380D02*
X172310714Y-79648000D01*
X172310714Y-79648000D02*
X172167857Y-79695619D01*
X172167857Y-79695619D02*
X172072619Y-79695619D01*
X172072619Y-79695619D02*
X171929762Y-79648000D01*
X171929762Y-79648000D02*
X171834524Y-79552761D01*
X171834524Y-79552761D02*
X171786905Y-79457523D01*
X171786905Y-79457523D02*
X171739286Y-79267047D01*
X171739286Y-79267047D02*
X171739286Y-79124190D01*
X171739286Y-79124190D02*
X171786905Y-78933714D01*
X171786905Y-78933714D02*
X171834524Y-78838476D01*
X171834524Y-78838476D02*
X171929762Y-78743238D01*
X171929762Y-78743238D02*
X172072619Y-78695619D01*
X172072619Y-78695619D02*
X172167857Y-78695619D01*
X172167857Y-78695619D02*
X172310714Y-78743238D01*
X172310714Y-78743238D02*
X172358333Y-78790857D01*
X172834524Y-79695619D02*
X173025000Y-79695619D01*
X173025000Y-79695619D02*
X173120238Y-79648000D01*
X173120238Y-79648000D02*
X173167857Y-79600380D01*
X173167857Y-79600380D02*
X173263095Y-79457523D01*
X173263095Y-79457523D02*
X173310714Y-79267047D01*
X173310714Y-79267047D02*
X173310714Y-78886095D01*
X173310714Y-78886095D02*
X173263095Y-78790857D01*
X173263095Y-78790857D02*
X173215476Y-78743238D01*
X173215476Y-78743238D02*
X173120238Y-78695619D01*
X173120238Y-78695619D02*
X172929762Y-78695619D01*
X172929762Y-78695619D02*
X172834524Y-78743238D01*
X172834524Y-78743238D02*
X172786905Y-78790857D01*
X172786905Y-78790857D02*
X172739286Y-78886095D01*
X172739286Y-78886095D02*
X172739286Y-79124190D01*
X172739286Y-79124190D02*
X172786905Y-79219428D01*
X172786905Y-79219428D02*
X172834524Y-79267047D01*
X172834524Y-79267047D02*
X172929762Y-79314666D01*
X172929762Y-79314666D02*
X173120238Y-79314666D01*
X173120238Y-79314666D02*
X173215476Y-79267047D01*
X173215476Y-79267047D02*
X173263095Y-79219428D01*
X173263095Y-79219428D02*
X173310714Y-79124190D01*
X231259142Y-61268780D02*
X231211523Y-61316400D01*
X231211523Y-61316400D02*
X231068666Y-61364019D01*
X231068666Y-61364019D02*
X230973428Y-61364019D01*
X230973428Y-61364019D02*
X230830571Y-61316400D01*
X230830571Y-61316400D02*
X230735333Y-61221161D01*
X230735333Y-61221161D02*
X230687714Y-61125923D01*
X230687714Y-61125923D02*
X230640095Y-60935447D01*
X230640095Y-60935447D02*
X230640095Y-60792590D01*
X230640095Y-60792590D02*
X230687714Y-60602114D01*
X230687714Y-60602114D02*
X230735333Y-60506876D01*
X230735333Y-60506876D02*
X230830571Y-60411638D01*
X230830571Y-60411638D02*
X230973428Y-60364019D01*
X230973428Y-60364019D02*
X231068666Y-60364019D01*
X231068666Y-60364019D02*
X231211523Y-60411638D01*
X231211523Y-60411638D02*
X231259142Y-60459257D01*
X232211523Y-61364019D02*
X231640095Y-61364019D01*
X231925809Y-61364019D02*
X231925809Y-60364019D01*
X231925809Y-60364019D02*
X231830571Y-60506876D01*
X231830571Y-60506876D02*
X231735333Y-60602114D01*
X231735333Y-60602114D02*
X231640095Y-60649733D01*
X232830571Y-60364019D02*
X232925809Y-60364019D01*
X232925809Y-60364019D02*
X233021047Y-60411638D01*
X233021047Y-60411638D02*
X233068666Y-60459257D01*
X233068666Y-60459257D02*
X233116285Y-60554495D01*
X233116285Y-60554495D02*
X233163904Y-60744971D01*
X233163904Y-60744971D02*
X233163904Y-60983066D01*
X233163904Y-60983066D02*
X233116285Y-61173542D01*
X233116285Y-61173542D02*
X233068666Y-61268780D01*
X233068666Y-61268780D02*
X233021047Y-61316400D01*
X233021047Y-61316400D02*
X232925809Y-61364019D01*
X232925809Y-61364019D02*
X232830571Y-61364019D01*
X232830571Y-61364019D02*
X232735333Y-61316400D01*
X232735333Y-61316400D02*
X232687714Y-61268780D01*
X232687714Y-61268780D02*
X232640095Y-61173542D01*
X232640095Y-61173542D02*
X232592476Y-60983066D01*
X232592476Y-60983066D02*
X232592476Y-60744971D01*
X232592476Y-60744971D02*
X232640095Y-60554495D01*
X232640095Y-60554495D02*
X232687714Y-60459257D01*
X232687714Y-60459257D02*
X232735333Y-60411638D01*
X232735333Y-60411638D02*
X232830571Y-60364019D01*
X225772742Y-61217980D02*
X225725123Y-61265600D01*
X225725123Y-61265600D02*
X225582266Y-61313219D01*
X225582266Y-61313219D02*
X225487028Y-61313219D01*
X225487028Y-61313219D02*
X225344171Y-61265600D01*
X225344171Y-61265600D02*
X225248933Y-61170361D01*
X225248933Y-61170361D02*
X225201314Y-61075123D01*
X225201314Y-61075123D02*
X225153695Y-60884647D01*
X225153695Y-60884647D02*
X225153695Y-60741790D01*
X225153695Y-60741790D02*
X225201314Y-60551314D01*
X225201314Y-60551314D02*
X225248933Y-60456076D01*
X225248933Y-60456076D02*
X225344171Y-60360838D01*
X225344171Y-60360838D02*
X225487028Y-60313219D01*
X225487028Y-60313219D02*
X225582266Y-60313219D01*
X225582266Y-60313219D02*
X225725123Y-60360838D01*
X225725123Y-60360838D02*
X225772742Y-60408457D01*
X226725123Y-61313219D02*
X226153695Y-61313219D01*
X226439409Y-61313219D02*
X226439409Y-60313219D01*
X226439409Y-60313219D02*
X226344171Y-60456076D01*
X226344171Y-60456076D02*
X226248933Y-60551314D01*
X226248933Y-60551314D02*
X226153695Y-60598933D01*
X227677504Y-61313219D02*
X227106076Y-61313219D01*
X227391790Y-61313219D02*
X227391790Y-60313219D01*
X227391790Y-60313219D02*
X227296552Y-60456076D01*
X227296552Y-60456076D02*
X227201314Y-60551314D01*
X227201314Y-60551314D02*
X227106076Y-60598933D01*
X176304819Y-80716666D02*
X175828628Y-81049999D01*
X176304819Y-81288094D02*
X175304819Y-81288094D01*
X175304819Y-81288094D02*
X175304819Y-80907142D01*
X175304819Y-80907142D02*
X175352438Y-80811904D01*
X175352438Y-80811904D02*
X175400057Y-80764285D01*
X175400057Y-80764285D02*
X175495295Y-80716666D01*
X175495295Y-80716666D02*
X175638152Y-80716666D01*
X175638152Y-80716666D02*
X175733390Y-80764285D01*
X175733390Y-80764285D02*
X175781009Y-80811904D01*
X175781009Y-80811904D02*
X175828628Y-80907142D01*
X175828628Y-80907142D02*
X175828628Y-81288094D01*
X175304819Y-80383332D02*
X175304819Y-79764285D01*
X175304819Y-79764285D02*
X175685771Y-80097618D01*
X175685771Y-80097618D02*
X175685771Y-79954761D01*
X175685771Y-79954761D02*
X175733390Y-79859523D01*
X175733390Y-79859523D02*
X175781009Y-79811904D01*
X175781009Y-79811904D02*
X175876247Y-79764285D01*
X175876247Y-79764285D02*
X176114342Y-79764285D01*
X176114342Y-79764285D02*
X176209580Y-79811904D01*
X176209580Y-79811904D02*
X176257200Y-79859523D01*
X176257200Y-79859523D02*
X176304819Y-79954761D01*
X176304819Y-79954761D02*
X176304819Y-80240475D01*
X176304819Y-80240475D02*
X176257200Y-80335713D01*
X176257200Y-80335713D02*
X176209580Y-80383332D01*
X162672733Y-87273819D02*
X162339400Y-86797628D01*
X162101305Y-87273819D02*
X162101305Y-86273819D01*
X162101305Y-86273819D02*
X162482257Y-86273819D01*
X162482257Y-86273819D02*
X162577495Y-86321438D01*
X162577495Y-86321438D02*
X162625114Y-86369057D01*
X162625114Y-86369057D02*
X162672733Y-86464295D01*
X162672733Y-86464295D02*
X162672733Y-86607152D01*
X162672733Y-86607152D02*
X162625114Y-86702390D01*
X162625114Y-86702390D02*
X162577495Y-86750009D01*
X162577495Y-86750009D02*
X162482257Y-86797628D01*
X162482257Y-86797628D02*
X162101305Y-86797628D01*
X163006067Y-86273819D02*
X163672733Y-86273819D01*
X163672733Y-86273819D02*
X163244162Y-87273819D01*
X189911666Y-47779819D02*
X189911666Y-48494104D01*
X189911666Y-48494104D02*
X189864047Y-48636961D01*
X189864047Y-48636961D02*
X189768809Y-48732200D01*
X189768809Y-48732200D02*
X189625952Y-48779819D01*
X189625952Y-48779819D02*
X189530714Y-48779819D01*
X190530714Y-48208390D02*
X190435476Y-48160771D01*
X190435476Y-48160771D02*
X190387857Y-48113152D01*
X190387857Y-48113152D02*
X190340238Y-48017914D01*
X190340238Y-48017914D02*
X190340238Y-47970295D01*
X190340238Y-47970295D02*
X190387857Y-47875057D01*
X190387857Y-47875057D02*
X190435476Y-47827438D01*
X190435476Y-47827438D02*
X190530714Y-47779819D01*
X190530714Y-47779819D02*
X190721190Y-47779819D01*
X190721190Y-47779819D02*
X190816428Y-47827438D01*
X190816428Y-47827438D02*
X190864047Y-47875057D01*
X190864047Y-47875057D02*
X190911666Y-47970295D01*
X190911666Y-47970295D02*
X190911666Y-48017914D01*
X190911666Y-48017914D02*
X190864047Y-48113152D01*
X190864047Y-48113152D02*
X190816428Y-48160771D01*
X190816428Y-48160771D02*
X190721190Y-48208390D01*
X190721190Y-48208390D02*
X190530714Y-48208390D01*
X190530714Y-48208390D02*
X190435476Y-48256009D01*
X190435476Y-48256009D02*
X190387857Y-48303628D01*
X190387857Y-48303628D02*
X190340238Y-48398866D01*
X190340238Y-48398866D02*
X190340238Y-48589342D01*
X190340238Y-48589342D02*
X190387857Y-48684580D01*
X190387857Y-48684580D02*
X190435476Y-48732200D01*
X190435476Y-48732200D02*
X190530714Y-48779819D01*
X190530714Y-48779819D02*
X190721190Y-48779819D01*
X190721190Y-48779819D02*
X190816428Y-48732200D01*
X190816428Y-48732200D02*
X190864047Y-48684580D01*
X190864047Y-48684580D02*
X190911666Y-48589342D01*
X190911666Y-48589342D02*
X190911666Y-48398866D01*
X190911666Y-48398866D02*
X190864047Y-48303628D01*
X190864047Y-48303628D02*
X190816428Y-48256009D01*
X190816428Y-48256009D02*
X190721190Y-48208390D01*
X160132733Y-87178580D02*
X160085114Y-87226200D01*
X160085114Y-87226200D02*
X159942257Y-87273819D01*
X159942257Y-87273819D02*
X159847019Y-87273819D01*
X159847019Y-87273819D02*
X159704162Y-87226200D01*
X159704162Y-87226200D02*
X159608924Y-87130961D01*
X159608924Y-87130961D02*
X159561305Y-87035723D01*
X159561305Y-87035723D02*
X159513686Y-86845247D01*
X159513686Y-86845247D02*
X159513686Y-86702390D01*
X159513686Y-86702390D02*
X159561305Y-86511914D01*
X159561305Y-86511914D02*
X159608924Y-86416676D01*
X159608924Y-86416676D02*
X159704162Y-86321438D01*
X159704162Y-86321438D02*
X159847019Y-86273819D01*
X159847019Y-86273819D02*
X159942257Y-86273819D01*
X159942257Y-86273819D02*
X160085114Y-86321438D01*
X160085114Y-86321438D02*
X160132733Y-86369057D01*
X160466067Y-86273819D02*
X161132733Y-86273819D01*
X161132733Y-86273819D02*
X160704162Y-87273819D01*
X202968266Y-78499619D02*
X202968266Y-79213904D01*
X202968266Y-79213904D02*
X202920647Y-79356761D01*
X202920647Y-79356761D02*
X202825409Y-79452000D01*
X202825409Y-79452000D02*
X202682552Y-79499619D01*
X202682552Y-79499619D02*
X202587314Y-79499619D01*
X203349219Y-78499619D02*
X204015885Y-78499619D01*
X204015885Y-78499619D02*
X203587314Y-79499619D01*
X163157067Y-49807200D02*
X163299924Y-49854819D01*
X163299924Y-49854819D02*
X163538019Y-49854819D01*
X163538019Y-49854819D02*
X163633257Y-49807200D01*
X163633257Y-49807200D02*
X163680876Y-49759580D01*
X163680876Y-49759580D02*
X163728495Y-49664342D01*
X163728495Y-49664342D02*
X163728495Y-49569104D01*
X163728495Y-49569104D02*
X163680876Y-49473866D01*
X163680876Y-49473866D02*
X163633257Y-49426247D01*
X163633257Y-49426247D02*
X163538019Y-49378628D01*
X163538019Y-49378628D02*
X163347543Y-49331009D01*
X163347543Y-49331009D02*
X163252305Y-49283390D01*
X163252305Y-49283390D02*
X163204686Y-49235771D01*
X163204686Y-49235771D02*
X163157067Y-49140533D01*
X163157067Y-49140533D02*
X163157067Y-49045295D01*
X163157067Y-49045295D02*
X163204686Y-48950057D01*
X163204686Y-48950057D02*
X163252305Y-48902438D01*
X163252305Y-48902438D02*
X163347543Y-48854819D01*
X163347543Y-48854819D02*
X163585638Y-48854819D01*
X163585638Y-48854819D02*
X163728495Y-48902438D01*
X164061829Y-48854819D02*
X164299924Y-49854819D01*
X164299924Y-49854819D02*
X164490400Y-49140533D01*
X164490400Y-49140533D02*
X164680876Y-49854819D01*
X164680876Y-49854819D02*
X164918972Y-48854819D01*
X165823733Y-49854819D02*
X165252305Y-49854819D01*
X165538019Y-49854819D02*
X165538019Y-48854819D01*
X165538019Y-48854819D02*
X165442781Y-48997676D01*
X165442781Y-48997676D02*
X165347543Y-49092914D01*
X165347543Y-49092914D02*
X165252305Y-49140533D01*
X208246742Y-88796019D02*
X207913409Y-88319828D01*
X207675314Y-88796019D02*
X207675314Y-87796019D01*
X207675314Y-87796019D02*
X208056266Y-87796019D01*
X208056266Y-87796019D02*
X208151504Y-87843638D01*
X208151504Y-87843638D02*
X208199123Y-87891257D01*
X208199123Y-87891257D02*
X208246742Y-87986495D01*
X208246742Y-87986495D02*
X208246742Y-88129352D01*
X208246742Y-88129352D02*
X208199123Y-88224590D01*
X208199123Y-88224590D02*
X208151504Y-88272209D01*
X208151504Y-88272209D02*
X208056266Y-88319828D01*
X208056266Y-88319828D02*
X207675314Y-88319828D01*
X209199123Y-88796019D02*
X208627695Y-88796019D01*
X208913409Y-88796019D02*
X208913409Y-87796019D01*
X208913409Y-87796019D02*
X208818171Y-87938876D01*
X208818171Y-87938876D02*
X208722933Y-88034114D01*
X208722933Y-88034114D02*
X208627695Y-88081733D01*
X209532457Y-87796019D02*
X210151504Y-87796019D01*
X210151504Y-87796019D02*
X209818171Y-88176971D01*
X209818171Y-88176971D02*
X209961028Y-88176971D01*
X209961028Y-88176971D02*
X210056266Y-88224590D01*
X210056266Y-88224590D02*
X210103885Y-88272209D01*
X210103885Y-88272209D02*
X210151504Y-88367447D01*
X210151504Y-88367447D02*
X210151504Y-88605542D01*
X210151504Y-88605542D02*
X210103885Y-88700780D01*
X210103885Y-88700780D02*
X210056266Y-88748400D01*
X210056266Y-88748400D02*
X209961028Y-88796019D01*
X209961028Y-88796019D02*
X209675314Y-88796019D01*
X209675314Y-88796019D02*
X209580076Y-88748400D01*
X209580076Y-88748400D02*
X209532457Y-88700780D01*
X185386742Y-82750819D02*
X185053409Y-82274628D01*
X184815314Y-82750819D02*
X184815314Y-81750819D01*
X184815314Y-81750819D02*
X185196266Y-81750819D01*
X185196266Y-81750819D02*
X185291504Y-81798438D01*
X185291504Y-81798438D02*
X185339123Y-81846057D01*
X185339123Y-81846057D02*
X185386742Y-81941295D01*
X185386742Y-81941295D02*
X185386742Y-82084152D01*
X185386742Y-82084152D02*
X185339123Y-82179390D01*
X185339123Y-82179390D02*
X185291504Y-82227009D01*
X185291504Y-82227009D02*
X185196266Y-82274628D01*
X185196266Y-82274628D02*
X184815314Y-82274628D01*
X186339123Y-82750819D02*
X185767695Y-82750819D01*
X186053409Y-82750819D02*
X186053409Y-81750819D01*
X186053409Y-81750819D02*
X185958171Y-81893676D01*
X185958171Y-81893676D02*
X185862933Y-81988914D01*
X185862933Y-81988914D02*
X185767695Y-82036533D01*
X186958171Y-81750819D02*
X187053409Y-81750819D01*
X187053409Y-81750819D02*
X187148647Y-81798438D01*
X187148647Y-81798438D02*
X187196266Y-81846057D01*
X187196266Y-81846057D02*
X187243885Y-81941295D01*
X187243885Y-81941295D02*
X187291504Y-82131771D01*
X187291504Y-82131771D02*
X187291504Y-82369866D01*
X187291504Y-82369866D02*
X187243885Y-82560342D01*
X187243885Y-82560342D02*
X187196266Y-82655580D01*
X187196266Y-82655580D02*
X187148647Y-82703200D01*
X187148647Y-82703200D02*
X187053409Y-82750819D01*
X187053409Y-82750819D02*
X186958171Y-82750819D01*
X186958171Y-82750819D02*
X186862933Y-82703200D01*
X186862933Y-82703200D02*
X186815314Y-82655580D01*
X186815314Y-82655580D02*
X186767695Y-82560342D01*
X186767695Y-82560342D02*
X186720076Y-82369866D01*
X186720076Y-82369866D02*
X186720076Y-82131771D01*
X186720076Y-82131771D02*
X186767695Y-81941295D01*
X186767695Y-81941295D02*
X186815314Y-81846057D01*
X186815314Y-81846057D02*
X186862933Y-81798438D01*
X186862933Y-81798438D02*
X186958171Y-81750819D01*
X151612819Y-76466333D02*
X152327104Y-76466333D01*
X152327104Y-76466333D02*
X152469961Y-76513952D01*
X152469961Y-76513952D02*
X152565200Y-76609190D01*
X152565200Y-76609190D02*
X152612819Y-76752047D01*
X152612819Y-76752047D02*
X152612819Y-76847285D01*
X151612819Y-75513952D02*
X151612819Y-75990142D01*
X151612819Y-75990142D02*
X152089009Y-76037761D01*
X152089009Y-76037761D02*
X152041390Y-75990142D01*
X152041390Y-75990142D02*
X151993771Y-75894904D01*
X151993771Y-75894904D02*
X151993771Y-75656809D01*
X151993771Y-75656809D02*
X152041390Y-75561571D01*
X152041390Y-75561571D02*
X152089009Y-75513952D01*
X152089009Y-75513952D02*
X152184247Y-75466333D01*
X152184247Y-75466333D02*
X152422342Y-75466333D01*
X152422342Y-75466333D02*
X152517580Y-75513952D01*
X152517580Y-75513952D02*
X152565200Y-75561571D01*
X152565200Y-75561571D02*
X152612819Y-75656809D01*
X152612819Y-75656809D02*
X152612819Y-75894904D01*
X152612819Y-75894904D02*
X152565200Y-75990142D01*
X152565200Y-75990142D02*
X152517580Y-76037761D01*
X164554067Y-87226200D02*
X164696924Y-87273819D01*
X164696924Y-87273819D02*
X164935019Y-87273819D01*
X164935019Y-87273819D02*
X165030257Y-87226200D01*
X165030257Y-87226200D02*
X165077876Y-87178580D01*
X165077876Y-87178580D02*
X165125495Y-87083342D01*
X165125495Y-87083342D02*
X165125495Y-86988104D01*
X165125495Y-86988104D02*
X165077876Y-86892866D01*
X165077876Y-86892866D02*
X165030257Y-86845247D01*
X165030257Y-86845247D02*
X164935019Y-86797628D01*
X164935019Y-86797628D02*
X164744543Y-86750009D01*
X164744543Y-86750009D02*
X164649305Y-86702390D01*
X164649305Y-86702390D02*
X164601686Y-86654771D01*
X164601686Y-86654771D02*
X164554067Y-86559533D01*
X164554067Y-86559533D02*
X164554067Y-86464295D01*
X164554067Y-86464295D02*
X164601686Y-86369057D01*
X164601686Y-86369057D02*
X164649305Y-86321438D01*
X164649305Y-86321438D02*
X164744543Y-86273819D01*
X164744543Y-86273819D02*
X164982638Y-86273819D01*
X164982638Y-86273819D02*
X165125495Y-86321438D01*
X165458829Y-86273819D02*
X165696924Y-87273819D01*
X165696924Y-87273819D02*
X165887400Y-86559533D01*
X165887400Y-86559533D02*
X166077876Y-87273819D01*
X166077876Y-87273819D02*
X166315972Y-86273819D01*
X166649305Y-86369057D02*
X166696924Y-86321438D01*
X166696924Y-86321438D02*
X166792162Y-86273819D01*
X166792162Y-86273819D02*
X167030257Y-86273819D01*
X167030257Y-86273819D02*
X167125495Y-86321438D01*
X167125495Y-86321438D02*
X167173114Y-86369057D01*
X167173114Y-86369057D02*
X167220733Y-86464295D01*
X167220733Y-86464295D02*
X167220733Y-86559533D01*
X167220733Y-86559533D02*
X167173114Y-86702390D01*
X167173114Y-86702390D02*
X166601686Y-87273819D01*
X166601686Y-87273819D02*
X167220733Y-87273819D01*
D12*
X177215000Y-79060000D02*
X179485000Y-79060000D01*
X179485000Y-79060000D02*
X179485000Y-75000000D01*
X177215000Y-75000000D02*
X177215000Y-79060000D01*
X160722936Y-73690000D02*
X162177064Y-73690000D01*
X160722936Y-75510000D02*
X162177064Y-75510000D01*
X190514564Y-89235000D02*
X189060436Y-89235000D01*
X190514564Y-87415000D02*
X189060436Y-87415000D01*
G36*
X195829275Y-95071961D02*
G01*
X195829275Y-95830925D01*
X195744946Y-95830925D01*
X195660617Y-95830925D01*
X195660617Y-95071961D01*
X195660617Y-94312997D01*
X195744946Y-94312997D01*
X195829275Y-94312997D01*
X195829275Y-95071961D01*
G37*
G36*
X197178545Y-95071961D02*
G01*
X197178545Y-95830925D01*
X197094216Y-95830925D01*
X197009886Y-95830925D01*
X197009886Y-95071961D01*
X197009886Y-94312997D01*
X197094216Y-94312997D01*
X197178545Y-94312997D01*
X197178545Y-95071961D01*
G37*
G36*
X209693020Y-99220965D02*
G01*
X209693020Y-99305294D01*
X206421042Y-99305294D01*
X203149063Y-99305294D01*
X203149063Y-99220965D01*
X203149063Y-99136635D01*
X206421042Y-99136635D01*
X209693020Y-99136635D01*
X209693020Y-99220965D01*
G37*
G36*
X212121706Y-99220965D02*
G01*
X212121706Y-99979929D01*
X212037376Y-99979929D01*
X211953047Y-99979929D01*
X211953047Y-99220965D01*
X211953047Y-98462001D01*
X212037376Y-98462001D01*
X212121706Y-98462001D01*
X212121706Y-99220965D01*
G37*
G36*
X214213074Y-99220965D02*
G01*
X214213074Y-99979929D01*
X214128744Y-99979929D01*
X214044415Y-99979929D01*
X214044415Y-99220965D01*
X214044415Y-98462001D01*
X214128744Y-98462001D01*
X214213074Y-98462001D01*
X214213074Y-99220965D01*
G37*
G36*
X229114798Y-96632054D02*
G01*
X229123959Y-97281390D01*
X226322768Y-97281390D01*
X223521577Y-97281390D01*
X223530738Y-96632054D01*
X223539900Y-95982718D01*
X226322768Y-95982718D01*
X229105637Y-95982718D01*
X229114798Y-96632054D01*
G37*
G36*
X229122503Y-94498326D02*
G01*
X229122503Y-95156290D01*
X226322040Y-95156290D01*
X223521577Y-95156290D01*
X223530738Y-94506954D01*
X223539900Y-93857618D01*
X226331201Y-93848990D01*
X229122503Y-93840362D01*
X229122503Y-94498326D01*
G37*
G36*
X234823167Y-99220965D02*
G01*
X234823167Y-99305294D01*
X231551188Y-99305294D01*
X228279209Y-99305294D01*
X228279209Y-99220965D01*
X228279209Y-99136635D01*
X231551188Y-99136635D01*
X234823167Y-99136635D01*
X234823167Y-99220965D01*
G37*
G36*
X227705769Y-98546330D02*
G01*
X227702297Y-98590387D01*
X227682080Y-98615602D01*
X227630418Y-98627225D01*
X227532610Y-98630506D01*
X227469647Y-98630659D01*
X227233525Y-98630659D01*
X227233525Y-99305294D01*
X227233525Y-99979929D01*
X227149196Y-99979929D01*
X227064866Y-99979929D01*
X227064866Y-99305294D01*
X227064866Y-98630659D01*
X226828744Y-98630659D01*
X226705383Y-98629419D01*
X226634781Y-98622199D01*
X226602238Y-98603748D01*
X226593052Y-98568817D01*
X226592622Y-98546330D01*
X226592622Y-98462001D01*
X227149196Y-98462001D01*
X227705769Y-98462001D01*
X227705769Y-98546330D01*
G37*
G36*
X229122503Y-92373422D02*
G01*
X229122503Y-93031191D01*
X226345256Y-93031191D01*
X225918285Y-93030924D01*
X225510817Y-93030150D01*
X225127882Y-93028910D01*
X224774511Y-93027244D01*
X224455736Y-93025192D01*
X224176586Y-93022795D01*
X223942093Y-93020093D01*
X223757289Y-93017127D01*
X223627203Y-93013937D01*
X223556866Y-93010563D01*
X223545522Y-93008703D01*
X223538463Y-92969401D01*
X223532313Y-92873541D01*
X223527443Y-92732025D01*
X223524226Y-92555754D01*
X223523034Y-92355632D01*
X223523034Y-92350934D01*
X223523034Y-91715653D01*
X226322768Y-91715653D01*
X229122503Y-91715653D01*
X229122503Y-92373422D01*
G37*
G36*
X215958691Y-98468193D02*
G01*
X216051453Y-98478866D01*
X216068783Y-99052306D01*
X216076179Y-99246008D01*
X216085680Y-99419084D01*
X216096370Y-99558997D01*
X216107335Y-99653209D01*
X216115035Y-99686024D01*
X216188863Y-99769230D01*
X216302090Y-99821963D01*
X216431687Y-99839327D01*
X216554627Y-99816427D01*
X216604085Y-99789996D01*
X216665002Y-99736620D01*
X216710215Y-99667207D01*
X216741854Y-99571836D01*
X216762047Y-99440584D01*
X216772925Y-99263528D01*
X216776619Y-99030745D01*
X216776686Y-98985926D01*
X216776686Y-98462001D01*
X216861015Y-98462001D01*
X216945345Y-98462001D01*
X216944604Y-99027007D01*
X216943342Y-99243766D01*
X216939446Y-99405324D01*
X216931770Y-99523928D01*
X216919170Y-99611825D01*
X216900500Y-99681260D01*
X216878279Y-99736513D01*
X216784946Y-99865919D01*
X216648995Y-99957305D01*
X216486905Y-100005198D01*
X216315152Y-100004124D01*
X216186380Y-99966351D01*
X216083826Y-99909922D01*
X216005032Y-99836671D01*
X215947141Y-99737860D01*
X215907293Y-99604746D01*
X215882629Y-99428589D01*
X215870292Y-99200647D01*
X215867409Y-98991035D01*
X215865929Y-98457520D01*
X215958691Y-98468193D01*
G37*
G36*
X219805081Y-98490855D02*
G01*
X219970987Y-98576497D01*
X220099689Y-98717543D01*
X220189668Y-98912608D01*
X220218071Y-99022178D01*
X220240453Y-99254908D01*
X220212202Y-99468861D01*
X220139521Y-99656832D01*
X220028615Y-99811619D01*
X219885685Y-99926019D01*
X219716935Y-99992827D01*
X219528568Y-100004842D01*
X219394415Y-99978633D01*
X219235818Y-99897379D01*
X219110780Y-99762312D01*
X219023112Y-99580166D01*
X218976624Y-99357677D01*
X218974369Y-99313708D01*
X219149545Y-99313708D01*
X219195306Y-99512507D01*
X219276200Y-99669258D01*
X219384897Y-99778961D01*
X219514068Y-99836618D01*
X219656384Y-99837229D01*
X219804516Y-99775794D01*
X219815987Y-99768325D01*
X219921283Y-99660439D01*
X219993029Y-99510791D01*
X220031181Y-99335436D01*
X220035691Y-99150429D01*
X220006515Y-98971825D01*
X219943605Y-98815680D01*
X219846917Y-98698047D01*
X219819109Y-98677610D01*
X219723287Y-98638794D01*
X219602002Y-98619918D01*
X219580725Y-98619415D01*
X219478735Y-98627346D01*
X219404153Y-98660959D01*
X219325266Y-98734984D01*
X219320294Y-98740388D01*
X219208799Y-98910383D01*
X219151201Y-99111854D01*
X219149545Y-99313708D01*
X218974369Y-99313708D01*
X218969990Y-99228314D01*
X218990657Y-98972321D01*
X219054305Y-98768297D01*
X219161013Y-98616147D01*
X219310860Y-98515773D01*
X219503927Y-98467079D01*
X219603488Y-98462001D01*
X219805081Y-98490855D01*
G37*
G36*
X223119586Y-98486158D02*
G01*
X223292433Y-98559304D01*
X223421201Y-98682452D01*
X223506762Y-98856614D01*
X223549987Y-99082802D01*
X223556025Y-99222250D01*
X223538266Y-99456967D01*
X223480502Y-99645489D01*
X223378145Y-99799042D01*
X223284716Y-99886062D01*
X223141918Y-99962415D01*
X222968956Y-100000278D01*
X222794099Y-99994878D01*
X222730338Y-99979654D01*
X222579442Y-99898867D01*
X222454349Y-99766181D01*
X222360545Y-99594029D01*
X222303514Y-99394843D01*
X222296127Y-99287944D01*
X222491025Y-99287944D01*
X222508413Y-99454646D01*
X222548202Y-99587791D01*
X222555355Y-99601939D01*
X222659532Y-99733453D01*
X222794310Y-99814146D01*
X222945475Y-99839189D01*
X223098811Y-99803749D01*
X223119597Y-99793709D01*
X223233342Y-99698004D01*
X223314626Y-99549582D01*
X223359875Y-99356691D01*
X223368257Y-99220050D01*
X223361787Y-99060918D01*
X223337848Y-98945709D01*
X223302840Y-98869393D01*
X223189465Y-98727711D01*
X223055743Y-98642955D01*
X222912756Y-98615703D01*
X222771584Y-98646537D01*
X222643308Y-98736038D01*
X222568959Y-98830934D01*
X222521730Y-98951645D01*
X222495608Y-99112129D01*
X222491025Y-99287944D01*
X222296127Y-99287944D01*
X222288740Y-99181056D01*
X222307943Y-99022178D01*
X222378885Y-98805218D01*
X222489282Y-98638218D01*
X222635450Y-98524655D01*
X222813706Y-98468003D01*
X222901789Y-98462001D01*
X223119586Y-98486158D01*
G37*
G36*
X211514534Y-99218828D02*
G01*
X211514534Y-99979929D01*
X211427526Y-99979929D01*
X211340518Y-99979929D01*
X211351630Y-99358633D01*
X211354541Y-99163303D01*
X211355944Y-98994414D01*
X211355846Y-98862224D01*
X211354253Y-98776992D01*
X211351183Y-98748965D01*
X211336302Y-98782918D01*
X211302377Y-98869617D01*
X211253461Y-98998419D01*
X211193605Y-99158682D01*
X211143517Y-99294364D01*
X211067193Y-99494857D01*
X211000456Y-99655854D01*
X210946555Y-99770153D01*
X210908738Y-99830554D01*
X210898224Y-99838162D01*
X210870872Y-99821023D01*
X210831838Y-99757370D01*
X210778890Y-99642462D01*
X210709792Y-99471557D01*
X210644043Y-99298454D01*
X210439045Y-98748720D01*
X210437082Y-99364325D01*
X210435119Y-99979929D01*
X210350789Y-99979929D01*
X210266460Y-99979929D01*
X210266460Y-99220965D01*
X210266460Y-98462001D01*
X210377589Y-98462001D01*
X210488719Y-98462001D01*
X210687387Y-99017984D01*
X210752560Y-99196602D01*
X210810861Y-99349298D01*
X210858349Y-99466308D01*
X210891077Y-99537865D01*
X210904485Y-99555539D01*
X210921460Y-99519110D01*
X210956737Y-99429995D01*
X211006166Y-99299125D01*
X211065600Y-99137433D01*
X211112285Y-99007988D01*
X211182235Y-98813578D01*
X211234622Y-98673561D01*
X211274476Y-98578759D01*
X211306826Y-98519997D01*
X211336703Y-98488100D01*
X211369136Y-98473890D01*
X211408096Y-98468296D01*
X211514534Y-98457726D01*
X211514534Y-99218828D01*
G37*
G36*
X225977887Y-98482999D02*
G01*
X226153925Y-98553914D01*
X226292567Y-98676455D01*
X226390347Y-98846338D01*
X226443799Y-99059279D01*
X226449497Y-99310448D01*
X226407581Y-99532055D01*
X226320196Y-99720839D01*
X226194347Y-99869013D01*
X226037043Y-99968786D01*
X225855292Y-100012372D01*
X225816792Y-100013661D01*
X225712191Y-99997894D01*
X225590856Y-99958204D01*
X225545925Y-99937764D01*
X225382207Y-99819157D01*
X225265885Y-99654240D01*
X225198316Y-99446011D01*
X225182505Y-99220965D01*
X225378279Y-99220965D01*
X225392887Y-99423594D01*
X225440614Y-99579858D01*
X225527315Y-99705105D01*
X225582963Y-99757426D01*
X225669606Y-99819087D01*
X225751287Y-99840378D01*
X225841907Y-99835737D01*
X225951043Y-99810830D01*
X226041818Y-99769231D01*
X226059047Y-99756229D01*
X226159507Y-99625697D01*
X226225320Y-99454643D01*
X226253945Y-99261878D01*
X226242839Y-99066215D01*
X226189460Y-98886466D01*
X226179408Y-98865496D01*
X226077543Y-98723322D01*
X225949842Y-98637603D01*
X225806716Y-98611024D01*
X225658575Y-98646268D01*
X225561300Y-98706119D01*
X225462115Y-98818932D01*
X225402169Y-98974060D01*
X225378805Y-99178975D01*
X225378279Y-99220965D01*
X225182505Y-99220965D01*
X225180854Y-99197471D01*
X225183945Y-99136635D01*
X225223620Y-98898410D01*
X225305357Y-98712772D01*
X225429602Y-98579211D01*
X225596802Y-98497216D01*
X225767918Y-98467993D01*
X225977887Y-98482999D01*
G37*
G36*
X218509866Y-98468627D02*
G01*
X218615066Y-98478866D01*
X218624144Y-99229398D01*
X218633222Y-99979929D01*
X218526598Y-99979929D01*
X218419975Y-99979929D01*
X218436689Y-99347459D01*
X218441272Y-99152100D01*
X218444081Y-98984797D01*
X218445046Y-98855246D01*
X218444099Y-98773138D01*
X218441171Y-98748168D01*
X218440922Y-98748720D01*
X218331899Y-99042500D01*
X218243292Y-99278819D01*
X218172598Y-99463669D01*
X218117317Y-99603039D01*
X218074945Y-99702921D01*
X218042982Y-99769306D01*
X218018926Y-99808185D01*
X218000274Y-99825548D01*
X217990158Y-99828136D01*
X217957487Y-99796895D01*
X217906970Y-99702771D01*
X217838328Y-99545163D01*
X217751282Y-99323467D01*
X217731706Y-99271562D01*
X217522981Y-98714989D01*
X217543044Y-99347459D01*
X217563107Y-99979929D01*
X217455971Y-99979929D01*
X217348835Y-99979929D01*
X217357913Y-99229398D01*
X217366991Y-98478866D01*
X217472677Y-98468590D01*
X217551898Y-98471370D01*
X217595274Y-98511824D01*
X217612908Y-98552920D01*
X217636968Y-98619391D01*
X217678346Y-98734304D01*
X217731624Y-98882584D01*
X217791381Y-99049157D01*
X217803222Y-99082197D01*
X217861734Y-99243779D01*
X217913372Y-99383233D01*
X217953340Y-99487834D01*
X217976842Y-99544856D01*
X217979655Y-99550303D01*
X217996982Y-99531218D01*
X218032457Y-99457756D01*
X218082137Y-99339282D01*
X218142078Y-99185161D01*
X218202493Y-99021062D01*
X218404667Y-98458387D01*
X218509866Y-98468627D01*
G37*
G36*
X213605902Y-99218619D02*
G01*
X213605902Y-99979929D01*
X213513140Y-99979922D01*
X213478662Y-99975656D01*
X213444912Y-99957751D01*
X213406361Y-99918531D01*
X213357482Y-99850323D01*
X213292745Y-99745455D01*
X213206623Y-99596252D01*
X213099926Y-99406390D01*
X212998641Y-99225571D01*
X212906978Y-99062786D01*
X212830630Y-98928076D01*
X212775290Y-98831482D01*
X212746649Y-98783045D01*
X212745743Y-98781643D01*
X212733079Y-98789893D01*
X212724746Y-98860625D01*
X212720691Y-98995176D01*
X212720862Y-99194883D01*
X212723123Y-99355175D01*
X212734235Y-99979929D01*
X212647227Y-99979929D01*
X212560218Y-99979929D01*
X212560218Y-99220965D01*
X212560218Y-98462001D01*
X212643770Y-98462001D01*
X212674980Y-98462680D01*
X212702203Y-98469471D01*
X212730532Y-98489506D01*
X212765063Y-98529915D01*
X212810890Y-98597830D01*
X212873108Y-98700381D01*
X212956810Y-98844701D01*
X213067092Y-99037920D01*
X213113681Y-99119770D01*
X213209957Y-99288823D01*
X213295797Y-99439404D01*
X213365133Y-99560878D01*
X213411898Y-99642613D01*
X213428778Y-99671900D01*
X213437236Y-99654924D01*
X213444520Y-99580002D01*
X213450197Y-99456650D01*
X213453831Y-99294380D01*
X213454989Y-99102707D01*
X213454983Y-99098461D01*
X213454877Y-98880241D01*
X213456000Y-98720238D01*
X213459451Y-98609205D01*
X213466332Y-98537894D01*
X213477743Y-98497058D01*
X213494784Y-98477452D01*
X213518556Y-98469827D01*
X213530006Y-98468087D01*
X213605902Y-98457308D01*
X213605902Y-99218619D01*
G37*
G36*
X210165265Y-93840752D02*
G01*
X210165265Y-95965852D01*
X211649461Y-95965852D01*
X213133658Y-95965852D01*
X213133658Y-93840752D01*
X213133658Y-91715653D01*
X213774561Y-91715653D01*
X214415464Y-91715653D01*
X214415135Y-94135905D01*
X214414805Y-96556157D01*
X214336098Y-96724816D01*
X214229265Y-96893648D01*
X214077597Y-97054195D01*
X213902352Y-97184650D01*
X213869338Y-97203585D01*
X213842666Y-97216199D01*
X213808922Y-97226984D01*
X213762863Y-97236103D01*
X213699247Y-97243716D01*
X213612830Y-97249986D01*
X213498370Y-97255075D01*
X213350625Y-97259145D01*
X213164351Y-97262357D01*
X212934305Y-97264873D01*
X212655245Y-97266856D01*
X212321928Y-97268467D01*
X211929112Y-97269867D01*
X211700059Y-97270565D01*
X211331397Y-97271222D01*
X210981171Y-97271025D01*
X210655482Y-97270030D01*
X210360435Y-97268295D01*
X210102133Y-97265878D01*
X209886677Y-97262837D01*
X209720172Y-97259228D01*
X209608721Y-97255110D01*
X209558426Y-97250540D01*
X209557875Y-97250381D01*
X209371090Y-97169163D01*
X209203293Y-97042249D01*
X209127668Y-96965805D01*
X209079156Y-96914436D01*
X209037046Y-96869606D01*
X209000870Y-96826413D01*
X208970159Y-96779952D01*
X208944444Y-96725323D01*
X208923257Y-96657622D01*
X208906129Y-96571946D01*
X208892591Y-96463394D01*
X208882174Y-96327061D01*
X208874410Y-96158046D01*
X208868829Y-95951446D01*
X208864964Y-95702358D01*
X208862345Y-95405879D01*
X208860503Y-95057107D01*
X208858971Y-94651140D01*
X208857278Y-94183073D01*
X208857095Y-94135905D01*
X208847596Y-91715653D01*
X209506431Y-91715653D01*
X210165265Y-91715653D01*
X210165265Y-93840752D01*
G37*
G36*
X221372635Y-98468836D02*
G01*
X221588555Y-98485202D01*
X221748167Y-98514739D01*
X221862049Y-98561789D01*
X221940778Y-98630697D01*
X221994202Y-98724057D01*
X222030501Y-98885347D01*
X222009732Y-99040444D01*
X221936967Y-99173818D01*
X221817277Y-99269940D01*
X221815702Y-99270741D01*
X221745359Y-99306614D01*
X221707603Y-99326475D01*
X221706941Y-99326866D01*
X221717932Y-99356455D01*
X221755538Y-99429634D01*
X221811722Y-99532109D01*
X221878448Y-99649587D01*
X221947678Y-99767772D01*
X222011376Y-99872372D01*
X222031458Y-99904032D01*
X222059829Y-99955251D01*
X222045457Y-99975753D01*
X221976553Y-99979246D01*
X221966820Y-99979192D01*
X221914922Y-99975566D01*
X221872832Y-99958519D01*
X221831042Y-99917630D01*
X221780044Y-99842478D01*
X221710331Y-99722642D01*
X221674449Y-99658741D01*
X221595227Y-99518422D01*
X221538870Y-99426668D01*
X221495309Y-99373162D01*
X221454477Y-99347590D01*
X221406307Y-99339636D01*
X221362430Y-99339026D01*
X221229275Y-99339026D01*
X221229275Y-99659477D01*
X221229275Y-99979929D01*
X221128080Y-99979929D01*
X221026885Y-99979929D01*
X221026885Y-99216543D01*
X221026885Y-98630659D01*
X221229275Y-98630659D01*
X221229275Y-98921997D01*
X221229275Y-99213335D01*
X221450854Y-99195549D01*
X221593723Y-99177318D01*
X221689865Y-99146152D01*
X221754440Y-99100722D01*
X221821516Y-99001118D01*
X221835930Y-98903066D01*
X221819688Y-98783292D01*
X221766760Y-98701954D01*
X221669033Y-98653556D01*
X221518394Y-98632602D01*
X221433883Y-98630659D01*
X221229275Y-98630659D01*
X221026885Y-98630659D01*
X221026885Y-98453157D01*
X221372635Y-98468836D01*
G37*
G36*
X215222573Y-98474602D02*
G01*
X215341940Y-98507854D01*
X215436622Y-98554927D01*
X215495040Y-98608992D01*
X215505617Y-98663219D01*
X215483167Y-98693846D01*
X215437173Y-98710626D01*
X215363969Y-98696226D01*
X215275292Y-98660769D01*
X215168968Y-98619153D01*
X215089679Y-98607349D01*
X215005780Y-98621887D01*
X214982312Y-98628649D01*
X214867254Y-98685641D01*
X214819506Y-98750664D01*
X214802584Y-98841463D01*
X214830736Y-98921610D01*
X214909988Y-98998222D01*
X215046372Y-99078418D01*
X215131724Y-99119282D01*
X215310938Y-99207967D01*
X215434383Y-99288520D01*
X215511282Y-99370905D01*
X215550859Y-99465087D01*
X215562336Y-99581031D01*
X215562343Y-99584524D01*
X215555994Y-99695037D01*
X215527969Y-99770903D01*
X215464806Y-99844434D01*
X215446908Y-99861576D01*
X215289703Y-99965748D01*
X215106331Y-100009708D01*
X214903278Y-99992281D01*
X214833155Y-99972890D01*
X214731652Y-99926653D01*
X214632711Y-99862133D01*
X214630765Y-99860573D01*
X214569597Y-99805928D01*
X214556586Y-99769312D01*
X214584793Y-99729824D01*
X214586699Y-99727871D01*
X214623630Y-99698790D01*
X214665643Y-99697672D01*
X214733087Y-99727638D01*
X214789089Y-99758895D01*
X214944742Y-99823094D01*
X215095243Y-99841267D01*
X215227189Y-99815459D01*
X215327178Y-99747713D01*
X215373418Y-99669807D01*
X215384505Y-99580195D01*
X215348001Y-99496190D01*
X215258740Y-99412180D01*
X215111552Y-99322550D01*
X215004394Y-99268995D01*
X214833333Y-99178981D01*
X214718641Y-99094248D01*
X214651074Y-99004381D01*
X214621389Y-98898968D01*
X214617854Y-98833538D01*
X214647867Y-98688644D01*
X214733252Y-98574999D01*
X214867029Y-98498096D01*
X215042217Y-98463427D01*
X215090099Y-98462001D01*
X215222573Y-98474602D01*
G37*
G36*
X224329095Y-98471133D02*
G01*
X224432142Y-98479590D01*
X224562160Y-98498231D01*
X224650580Y-98527541D01*
X224723270Y-98578077D01*
X224761027Y-98613832D01*
X224842642Y-98718902D01*
X224872301Y-98813809D01*
X224872303Y-98814486D01*
X224852296Y-98927049D01*
X224801435Y-99032192D01*
X224733466Y-99104993D01*
X224704015Y-99119652D01*
X224648940Y-99151872D01*
X224639582Y-99186689D01*
X224680647Y-99204049D01*
X224684191Y-99204099D01*
X224739241Y-99224527D01*
X224815896Y-99275226D01*
X224835984Y-99291427D01*
X224901346Y-99356721D01*
X224931785Y-99426242D01*
X224939730Y-99529981D01*
X224939767Y-99541827D01*
X224928139Y-99668639D01*
X224885936Y-99764636D01*
X224853269Y-99807695D01*
X224773802Y-99880928D01*
X224671490Y-99931480D01*
X224534281Y-99962551D01*
X224350126Y-99977342D01*
X224205456Y-99979741D01*
X223892792Y-99979929D01*
X223901446Y-99264419D01*
X224096473Y-99264419D01*
X224096473Y-99554710D01*
X224096473Y-99845002D01*
X224256699Y-99844814D01*
X224386173Y-99836824D01*
X224512292Y-99817138D01*
X224542424Y-99809771D01*
X224667452Y-99747412D01*
X224745580Y-99651495D01*
X224771388Y-99536563D01*
X224739453Y-99417155D01*
X224706949Y-99368462D01*
X224665871Y-99327806D01*
X224611783Y-99302309D01*
X224527429Y-99287285D01*
X224395554Y-99278045D01*
X224369632Y-99276824D01*
X224096473Y-99264419D01*
X223901446Y-99264419D01*
X223901870Y-99229398D01*
X223909113Y-98630659D01*
X224096473Y-98630659D01*
X224096473Y-98883647D01*
X224096473Y-99136635D01*
X224206101Y-99135831D01*
X224314521Y-99127208D01*
X224435326Y-99107167D01*
X224449753Y-99103953D01*
X224576269Y-99054542D01*
X224647080Y-98973046D01*
X224669889Y-98850419D01*
X224669913Y-98845381D01*
X224649683Y-98744656D01*
X224584727Y-98677835D01*
X224468645Y-98641119D01*
X224308224Y-98630659D01*
X224096473Y-98630659D01*
X223909113Y-98630659D01*
X223910949Y-98478866D01*
X224062742Y-98467746D01*
X224181660Y-98465432D01*
X224329095Y-98471133D01*
G37*
G36*
X217856832Y-93150690D02*
G01*
X218110457Y-93473857D01*
X218325951Y-93746900D01*
X218506195Y-93973261D01*
X218654070Y-94156383D01*
X218772458Y-94299708D01*
X218864238Y-94406678D01*
X218932292Y-94480736D01*
X218979501Y-94525323D01*
X219008746Y-94543883D01*
X219021316Y-94542124D01*
X219049372Y-94507796D01*
X219114901Y-94425411D01*
X219213871Y-94300100D01*
X219342251Y-94136991D01*
X219496010Y-93941216D01*
X219671117Y-93717902D01*
X219863541Y-93472181D01*
X220069250Y-93209182D01*
X220149043Y-93107087D01*
X221236283Y-91715653D01*
X221907414Y-91715653D01*
X222578545Y-91715653D01*
X222578545Y-94498521D01*
X222578545Y-97281390D01*
X221937642Y-97281390D01*
X221296739Y-97281390D01*
X221296739Y-95544205D01*
X221296263Y-95209058D01*
X221294897Y-94895251D01*
X221292731Y-94609071D01*
X221289858Y-94356800D01*
X221286369Y-94144724D01*
X221282356Y-93979127D01*
X221277911Y-93866293D01*
X221273125Y-93812506D01*
X221271440Y-93808786D01*
X221246543Y-93834978D01*
X221184169Y-93909639D01*
X221088176Y-94027920D01*
X220962421Y-94184972D01*
X220810760Y-94375947D01*
X220637051Y-94595994D01*
X220445150Y-94840265D01*
X220238915Y-95103909D01*
X220117587Y-95259505D01*
X219862041Y-95586908D01*
X219644571Y-95863892D01*
X219462438Y-96093756D01*
X219312903Y-96279798D01*
X219193227Y-96425316D01*
X219100672Y-96533608D01*
X219032497Y-96607973D01*
X218985964Y-96651709D01*
X218958334Y-96668114D01*
X218949528Y-96666040D01*
X218921679Y-96631922D01*
X218856396Y-96549717D01*
X218757705Y-96424556D01*
X218629631Y-96261572D01*
X218476202Y-96065896D01*
X218301443Y-95842660D01*
X218109381Y-95596997D01*
X217904043Y-95334037D01*
X217825789Y-95233745D01*
X217616968Y-94966467D01*
X217420128Y-94715311D01*
X217239255Y-94485311D01*
X217078337Y-94281499D01*
X216941360Y-94108907D01*
X216832312Y-93972569D01*
X216755179Y-93877516D01*
X216713948Y-93828782D01*
X216708523Y-93823454D01*
X216700409Y-93851595D01*
X216693386Y-93945748D01*
X216687482Y-94104469D01*
X216682723Y-94326316D01*
X216679139Y-94609843D01*
X216676756Y-94953609D01*
X216675602Y-95356169D01*
X216675491Y-95542214D01*
X216675491Y-97281390D01*
X216034588Y-97281390D01*
X215393684Y-97281390D01*
X215393684Y-94498521D01*
X215393684Y-91715653D01*
X216063260Y-91715653D01*
X216732836Y-91715653D01*
X217856832Y-93150690D01*
G37*
G36*
X234299525Y-91720912D02*
G01*
X234533466Y-91724371D01*
X234726128Y-91730368D01*
X234882750Y-91739373D01*
X235008568Y-91751852D01*
X235108819Y-91768276D01*
X235188741Y-91789112D01*
X235253569Y-91814828D01*
X235308542Y-91845893D01*
X235358897Y-91882776D01*
X235409870Y-91925945D01*
X235443308Y-91955393D01*
X235549083Y-92065073D01*
X235647317Y-92193992D01*
X235691976Y-92268066D01*
X235726308Y-92338277D01*
X235751043Y-92404690D01*
X235768142Y-92480698D01*
X235779568Y-92579695D01*
X235787284Y-92715078D01*
X235793250Y-92900239D01*
X235795109Y-92972160D01*
X235808456Y-93503435D01*
X235147152Y-93503435D01*
X234485849Y-93503435D01*
X234485849Y-93267313D01*
X234485849Y-93031191D01*
X232917323Y-93031191D01*
X231348797Y-93031191D01*
X231348797Y-94498521D01*
X231348797Y-95965852D01*
X232917323Y-95965852D01*
X234485849Y-95965852D01*
X234485849Y-95729730D01*
X234485849Y-95493608D01*
X235147152Y-95493608D01*
X235808456Y-95493608D01*
X235794644Y-96024882D01*
X235786351Y-96258890D01*
X235774638Y-96435104D01*
X235758501Y-96563152D01*
X235736934Y-96652661D01*
X235726219Y-96680614D01*
X235646017Y-96815346D01*
X235527018Y-96959317D01*
X235390101Y-97090302D01*
X235256146Y-97186074D01*
X235246329Y-97191471D01*
X235217695Y-97206233D01*
X235187653Y-97218877D01*
X235151001Y-97229582D01*
X235102537Y-97238530D01*
X235037057Y-97245902D01*
X234949360Y-97251879D01*
X234834243Y-97256642D01*
X234686503Y-97260373D01*
X234500938Y-97263252D01*
X234272346Y-97265461D01*
X233995524Y-97267180D01*
X233665269Y-97268592D01*
X233276379Y-97269876D01*
X232967921Y-97270792D01*
X232528197Y-97271923D01*
X232150795Y-97272476D01*
X231830577Y-97272347D01*
X231562403Y-97271428D01*
X231341134Y-97269614D01*
X231161630Y-97266797D01*
X231018754Y-97262871D01*
X230907364Y-97257730D01*
X230822323Y-97251268D01*
X230758491Y-97243378D01*
X230710729Y-97233953D01*
X230675079Y-97223311D01*
X230553982Y-97160696D01*
X230420154Y-97060444D01*
X230352141Y-96997500D01*
X230295418Y-96941063D01*
X230246756Y-96890075D01*
X230205539Y-96839141D01*
X230171148Y-96782867D01*
X230142967Y-96715858D01*
X230120379Y-96632722D01*
X230102767Y-96528062D01*
X230089514Y-96396485D01*
X230080002Y-96232596D01*
X230073614Y-96031002D01*
X230069734Y-95786308D01*
X230067745Y-95493119D01*
X230067028Y-95146042D01*
X230066968Y-94739681D01*
X230066991Y-94504859D01*
X230067533Y-94025462D01*
X230069184Y-93611534D01*
X230071977Y-93261089D01*
X230075951Y-92972143D01*
X230081140Y-92742709D01*
X230087580Y-92570802D01*
X230095306Y-92454436D01*
X230104356Y-92391625D01*
X230105096Y-92388993D01*
X230183203Y-92220776D01*
X230308843Y-92054056D01*
X230464774Y-91909176D01*
X230572967Y-91837046D01*
X230758492Y-91732519D01*
X232846242Y-91723092D01*
X233297665Y-91721081D01*
X233686862Y-91719736D01*
X234019069Y-91719523D01*
X234299525Y-91720912D01*
G37*
G36*
X197028012Y-91229663D02*
G01*
X197514925Y-91323640D01*
X197977578Y-91475879D01*
X198412029Y-91682791D01*
X198814341Y-91940784D01*
X199180574Y-92246267D01*
X199506788Y-92595650D01*
X199789044Y-92985342D01*
X200023404Y-93411753D01*
X200205927Y-93871291D01*
X200332675Y-94360366D01*
X200386390Y-94721107D01*
X200404177Y-95205713D01*
X200358038Y-95683310D01*
X200251493Y-96148563D01*
X200088057Y-96596135D01*
X199871250Y-97020689D01*
X199604588Y-97416889D01*
X199291590Y-97779399D01*
X198935773Y-98102881D01*
X198540654Y-98382001D01*
X198109753Y-98611420D01*
X197722867Y-98761770D01*
X197405905Y-98847218D01*
X197060245Y-98909111D01*
X196708020Y-98945154D01*
X196371362Y-98953051D01*
X196082264Y-98931875D01*
X195561757Y-98830902D01*
X195078092Y-98673847D01*
X194628839Y-98459488D01*
X194211571Y-98186599D01*
X193823859Y-97853957D01*
X193703728Y-97732691D01*
X193381012Y-97347722D01*
X193116593Y-96934613D01*
X192910314Y-96498908D01*
X192762018Y-96046147D01*
X192671547Y-95581874D01*
X192650705Y-95283092D01*
X193352019Y-95283092D01*
X193413158Y-95720502D01*
X193487853Y-96004616D01*
X193657065Y-96435211D01*
X193881435Y-96830024D01*
X194156638Y-97185103D01*
X194478347Y-97496493D01*
X194842239Y-97760241D01*
X195243987Y-97972395D01*
X195679266Y-98129000D01*
X195863007Y-98175473D01*
X196041058Y-98201956D01*
X196265454Y-98215560D01*
X196516449Y-98216930D01*
X196774293Y-98206709D01*
X197019238Y-98185540D01*
X197231536Y-98154068D01*
X197347204Y-98127101D01*
X197774898Y-97969992D01*
X198172380Y-97755362D01*
X198534355Y-97488384D01*
X198855526Y-97174231D01*
X199130599Y-96818075D01*
X199354280Y-96425088D01*
X199519967Y-96004616D01*
X199623276Y-95567697D01*
X199662306Y-95130986D01*
X199640037Y-94699920D01*
X199559451Y-94279934D01*
X199423529Y-93876465D01*
X199235252Y-93494947D01*
X198997601Y-93140817D01*
X198713557Y-92819510D01*
X198386102Y-92536463D01*
X198018217Y-92297111D01*
X197612882Y-92106890D01*
X197330338Y-92012051D01*
X197216035Y-91981946D01*
X197107693Y-91960697D01*
X196989642Y-91946840D01*
X196846211Y-91938914D01*
X196661730Y-91935455D01*
X196503910Y-91934909D01*
X196282345Y-91936155D01*
X196112544Y-91940869D01*
X195978836Y-91950513D01*
X195865550Y-91966550D01*
X195757017Y-91990442D01*
X195677483Y-92012051D01*
X195249362Y-92167375D01*
X194856753Y-92375366D01*
X194502637Y-92630589D01*
X194189995Y-92927610D01*
X193921808Y-93260992D01*
X193701055Y-93625301D01*
X193530719Y-94015101D01*
X193413781Y-94424956D01*
X193353220Y-94849431D01*
X193352019Y-95283092D01*
X192650705Y-95283092D01*
X192638745Y-95111629D01*
X192663454Y-94640957D01*
X192745518Y-94175399D01*
X192884779Y-93720496D01*
X193081080Y-93281792D01*
X193334265Y-92864829D01*
X193644175Y-92475148D01*
X193858966Y-92255146D01*
X194252953Y-91926262D01*
X194677744Y-91656970D01*
X195130426Y-91448426D01*
X195608084Y-91301788D01*
X196107806Y-91218215D01*
X196520776Y-91197539D01*
X197028012Y-91229663D01*
G37*
G36*
X204272058Y-91719443D02*
G01*
X204662614Y-91720949D01*
X205115305Y-91723044D01*
X205125988Y-91723092D01*
X205552850Y-91725054D01*
X205917533Y-91726921D01*
X206225317Y-91728891D01*
X206481485Y-91731163D01*
X206691321Y-91733936D01*
X206860105Y-91737408D01*
X206993121Y-91741778D01*
X207095651Y-91747244D01*
X207172978Y-91754006D01*
X207230383Y-91762260D01*
X207273149Y-91772208D01*
X207306558Y-91784045D01*
X207335894Y-91797973D01*
X207352593Y-91806803D01*
X207537129Y-91923574D01*
X207674708Y-92057833D01*
X207785759Y-92230273D01*
X207802086Y-92262100D01*
X207841417Y-92343010D01*
X207869216Y-92411933D01*
X207887483Y-92482907D01*
X207898219Y-92569968D01*
X207903423Y-92687155D01*
X207905097Y-92848505D01*
X207905238Y-92985981D01*
X207905238Y-93503435D01*
X207247469Y-93503435D01*
X206589700Y-93503435D01*
X206589700Y-93267313D01*
X206589700Y-93031191D01*
X205038040Y-93031191D01*
X203486380Y-93031191D01*
X203486380Y-93435971D01*
X203486380Y-93840752D01*
X205326689Y-93840752D01*
X205804640Y-93841445D01*
X206215962Y-93843532D01*
X206561477Y-93847029D01*
X206842004Y-93851953D01*
X207058366Y-93858318D01*
X207211382Y-93866139D01*
X207301874Y-93875434D01*
X207316582Y-93878418D01*
X207463350Y-93941351D01*
X207613619Y-94048411D01*
X207745804Y-94181099D01*
X207838316Y-94320917D01*
X207841874Y-94328557D01*
X207859701Y-94373379D01*
X207873786Y-94425858D01*
X207884570Y-94494076D01*
X207892492Y-94586112D01*
X207897992Y-94710048D01*
X207901510Y-94873963D01*
X207903486Y-95085938D01*
X207904358Y-95354055D01*
X207904497Y-95479166D01*
X207904191Y-95801747D01*
X207901755Y-96064883D01*
X207895689Y-96276591D01*
X207884495Y-96444886D01*
X207866675Y-96577783D01*
X207840729Y-96683299D01*
X207805159Y-96769450D01*
X207758465Y-96844252D01*
X207699150Y-96915719D01*
X207625714Y-96991869D01*
X207620718Y-96996870D01*
X207565738Y-97052268D01*
X207516173Y-97099975D01*
X207466788Y-97140564D01*
X207412342Y-97174608D01*
X207347598Y-97202680D01*
X207267319Y-97225354D01*
X207166264Y-97243202D01*
X207039198Y-97256798D01*
X206880880Y-97266715D01*
X206686074Y-97273526D01*
X206449541Y-97277804D01*
X206166042Y-97280123D01*
X205830340Y-97281056D01*
X205437196Y-97281175D01*
X205023599Y-97281060D01*
X202929807Y-97280731D01*
X202760464Y-97201873D01*
X202593738Y-97097129D01*
X202437414Y-96950713D01*
X202309068Y-96782347D01*
X202226274Y-96611753D01*
X202221774Y-96597355D01*
X202194604Y-96461756D01*
X202177826Y-96270476D01*
X202171037Y-96018470D01*
X202170843Y-95959730D01*
X202170843Y-95493608D01*
X202828611Y-95493608D01*
X203486380Y-95493608D01*
X203486380Y-95729730D01*
X203486380Y-95965852D01*
X205038040Y-95965852D01*
X206589700Y-95965852D01*
X206589700Y-95561071D01*
X206589700Y-95156290D01*
X204709156Y-95155549D01*
X204304840Y-95155315D01*
X203962336Y-95154827D01*
X203675992Y-95153893D01*
X203440158Y-95152320D01*
X203249181Y-95149914D01*
X203097410Y-95146483D01*
X202979194Y-95141832D01*
X202888882Y-95135770D01*
X202820821Y-95128103D01*
X202769360Y-95118637D01*
X202728849Y-95107180D01*
X202693634Y-95093539D01*
X202676819Y-95086097D01*
X202471455Y-94960381D01*
X202314264Y-94788997D01*
X202260516Y-94700912D01*
X202239498Y-94658888D01*
X202222830Y-94614044D01*
X202209904Y-94558156D01*
X202200113Y-94483002D01*
X202192848Y-94380357D01*
X202187503Y-94241999D01*
X202183470Y-94059703D01*
X202180142Y-93825247D01*
X202177378Y-93575381D01*
X202174629Y-93250058D01*
X202174873Y-92984069D01*
X202179663Y-92769301D01*
X202190549Y-92597639D01*
X202209083Y-92460970D01*
X202236816Y-92351180D01*
X202275300Y-92260155D01*
X202326084Y-92179781D01*
X202390721Y-92101944D01*
X202470762Y-92018532D01*
X202476021Y-92013240D01*
X202533432Y-91955131D01*
X202585178Y-91905034D01*
X202636475Y-91862379D01*
X202692537Y-91826593D01*
X202758579Y-91797105D01*
X202839817Y-91773346D01*
X202941467Y-91754743D01*
X203068743Y-91740727D01*
X203226861Y-91730725D01*
X203421036Y-91724166D01*
X203656484Y-91720480D01*
X203938419Y-91719096D01*
X204272058Y-91719443D01*
G37*
X190514564Y-76735000D02*
X189060436Y-76735000D01*
X190514564Y-74915000D02*
X189060436Y-74915000D01*
D10*
X192409800Y-66351800D02*
X192409800Y-66126800D01*
X192409800Y-66351800D02*
X186659800Y-66351800D01*
X192409800Y-66126800D02*
X194009800Y-66126800D01*
X192409800Y-57701800D02*
X192409800Y-58001800D01*
X192409800Y-57701800D02*
X186659800Y-57701800D01*
X186659800Y-66351800D02*
X186659800Y-66051800D01*
X186659800Y-57701800D02*
X186659800Y-58001800D01*
D12*
X194760400Y-67427600D02*
X200260400Y-67427600D01*
X194760400Y-69377600D02*
X194760400Y-67427600D01*
X195810400Y-69927600D02*
X196410400Y-69927600D01*
X196110400Y-69627600D02*
X195810400Y-69927600D01*
X196410400Y-69927600D02*
X196110400Y-69627600D01*
X200260400Y-67427600D02*
X200260400Y-69377600D01*
X200260400Y-69377600D02*
X194760400Y-69377600D01*
X176500000Y-47800000D02*
X176500000Y-51100000D01*
X176200000Y-47800000D02*
X176500000Y-47800000D01*
X174000000Y-47800000D02*
X173700000Y-47800000D01*
X173700000Y-47800000D02*
X173700000Y-51100000D01*
X176500000Y-51100000D02*
X176200000Y-51100000D01*
X173700000Y-51100000D02*
X174000000Y-51100000D01*
X205977064Y-83160000D02*
X204522936Y-83160000D01*
X205977064Y-81340000D02*
X204522936Y-81340000D01*
X193390000Y-72785000D02*
X193390000Y-73935000D01*
X193390000Y-73935000D02*
X194440000Y-73935000D01*
X194440000Y-73935000D02*
X194440000Y-74925000D01*
X194560000Y-70815000D02*
X200440000Y-70815000D01*
X201610000Y-72785000D02*
X201610000Y-73935000D01*
X201610000Y-73935000D02*
X200560000Y-73935000D01*
X237604000Y-79911400D02*
X240424000Y-79911400D01*
X237604000Y-79911400D02*
X236304000Y-78211400D01*
X240424000Y-79911400D02*
X241724000Y-78211400D01*
X236304000Y-78211400D02*
X236304000Y-69491400D01*
X241724000Y-78211400D02*
X241724000Y-69491400D01*
X236304000Y-69491400D02*
X241724000Y-69491400D01*
X225607200Y-54364000D02*
X225877200Y-54364000D01*
X225877200Y-54364000D02*
X225877200Y-57194000D01*
X232237200Y-54364000D02*
X232237200Y-55464000D01*
X232507200Y-54364000D02*
X232237200Y-54364000D01*
X225607200Y-47944000D02*
X225607200Y-54364000D01*
X232507200Y-47944000D02*
X232507200Y-54364000D01*
X202130000Y-46920000D02*
X202130000Y-48250000D01*
X200800000Y-46920000D02*
X202130000Y-46920000D01*
X199530000Y-46920000D02*
X191850000Y-46920000D01*
X199530000Y-46920000D02*
X199530000Y-49580000D01*
X191850000Y-46920000D02*
X191850000Y-49580000D01*
X199530000Y-49580000D02*
X191850000Y-49580000D01*
X205939564Y-76660000D02*
X204485436Y-76660000D01*
X205939564Y-74840000D02*
X204485436Y-74840000D01*
X160715336Y-76001200D02*
X162169464Y-76001200D01*
X160715336Y-77821200D02*
X162169464Y-77821200D01*
X213110400Y-54354000D02*
X213380400Y-54354000D01*
X213380400Y-54354000D02*
X213380400Y-57184000D01*
X219740400Y-54354000D02*
X219740400Y-55454000D01*
X220010400Y-54354000D02*
X219740400Y-54354000D01*
X213110400Y-47934000D02*
X213110400Y-54354000D01*
X220010400Y-47934000D02*
X220010400Y-54354000D01*
X151084000Y-70750000D02*
X157834000Y-70750000D01*
X151084000Y-70750000D02*
X151084000Y-52750000D01*
X175834000Y-70750000D02*
X176584000Y-70750000D01*
X176584000Y-70750000D02*
X176584000Y-69750000D01*
X151084000Y-52750000D02*
X157834000Y-52750000D01*
X157024000Y-52750000D02*
X157024000Y-70750000D01*
X175834000Y-52750000D02*
X176584000Y-52750000D01*
X176584000Y-52750000D02*
X176584000Y-53750000D01*
X193390000Y-85210000D02*
X193390000Y-86360000D01*
X193390000Y-86360000D02*
X194440000Y-86360000D01*
X194440000Y-86360000D02*
X194440000Y-87350000D01*
X194560000Y-83240000D02*
X200440000Y-83240000D01*
X201610000Y-85210000D02*
X201610000Y-86360000D01*
X201610000Y-86360000D02*
X200560000Y-86360000D01*
X219659148Y-57933600D02*
X221081652Y-57933600D01*
X219659148Y-59753600D02*
X221081652Y-59753600D01*
X186320000Y-50920000D02*
X181180000Y-50920000D01*
X186320000Y-50920000D02*
X186320000Y-53580000D01*
X181180000Y-50920000D02*
X181180000Y-53580000D01*
X188920000Y-52250000D02*
X188920000Y-53580000D01*
X188920000Y-53580000D02*
X187590000Y-53580000D01*
X186320000Y-53580000D02*
X181180000Y-53580000D01*
X233867000Y-76031400D02*
X232537000Y-76031400D01*
X233867000Y-74701400D02*
X233867000Y-76031400D01*
X233867000Y-73431400D02*
X233867000Y-70831400D01*
X233867000Y-73431400D02*
X231207000Y-73431400D01*
X233867000Y-70831400D02*
X231207000Y-70831400D01*
X231207000Y-73431400D02*
X231207000Y-70831400D01*
X163727400Y-80383000D02*
X163727400Y-78113000D01*
X163727400Y-78113000D02*
X159842400Y-78113000D01*
X159842400Y-80383000D02*
X163727400Y-80383000D01*
X177290000Y-50161252D02*
X177290000Y-48738748D01*
X179110000Y-50161252D02*
X179110000Y-48738748D01*
X168182400Y-77302800D02*
X169942400Y-77302800D01*
X169942400Y-74232800D02*
X167512400Y-74232800D01*
X215696852Y-59736400D02*
X214274348Y-59736400D01*
X215696852Y-57916400D02*
X214274348Y-57916400D01*
X168351148Y-78338000D02*
X169773652Y-78338000D01*
X168351148Y-80158000D02*
X169773652Y-80158000D01*
X232206748Y-57916400D02*
X233629252Y-57916400D01*
X232206748Y-59736400D02*
X233629252Y-59736400D01*
X228193652Y-59736400D02*
X226771148Y-59736400D01*
X228193652Y-57916400D02*
X226771148Y-57916400D01*
X174940000Y-77327064D02*
X174940000Y-75872936D01*
X176760000Y-77327064D02*
X176760000Y-75872936D01*
X163749400Y-82840736D02*
X163749400Y-84294864D01*
X161929400Y-82840736D02*
X161929400Y-84294864D01*
X186305000Y-46995000D02*
X181165000Y-46995000D01*
X186305000Y-46995000D02*
X186305000Y-49655000D01*
X181165000Y-46995000D02*
X181165000Y-49655000D01*
X188905000Y-48325000D02*
X188905000Y-49655000D01*
X188905000Y-49655000D02*
X187575000Y-49655000D01*
X186305000Y-49655000D02*
X181165000Y-49655000D01*
X161209400Y-82856548D02*
X161209400Y-84279052D01*
X159389400Y-82856548D02*
X159389400Y-84279052D01*
X193390000Y-78960000D02*
X193390000Y-80110000D01*
X193390000Y-80110000D02*
X194440000Y-80110000D01*
X194440000Y-80110000D02*
X194440000Y-81100000D01*
X194560000Y-76990000D02*
X200440000Y-76990000D01*
X201610000Y-78960000D02*
X201610000Y-80110000D01*
X201610000Y-80110000D02*
X200560000Y-80110000D01*
X162537600Y-47750000D02*
X162537600Y-51050000D01*
X162237600Y-47750000D02*
X162537600Y-47750000D01*
X160037600Y-47750000D02*
X159737600Y-47750000D01*
X159737600Y-47750000D02*
X159737600Y-51050000D01*
X162537600Y-51050000D02*
X162237600Y-51050000D01*
X159737600Y-51050000D02*
X160037600Y-51050000D01*
X205939564Y-89235000D02*
X204485436Y-89235000D01*
X205939564Y-87415000D02*
X204485436Y-87415000D01*
X190514564Y-83235000D02*
X189060436Y-83235000D01*
X190514564Y-81415000D02*
X189060436Y-81415000D01*
D13*
X155758000Y-72238000D02*
X154078000Y-72238000D01*
X150308000Y-72238000D02*
X151738000Y-72238000D01*
X150308000Y-72238000D02*
X150308000Y-81178000D01*
X155758000Y-81178000D02*
X154078000Y-81178000D01*
X150308000Y-81178000D02*
X151738000Y-81178000D01*
D14*
X159008000Y-73508000D02*
G75*
G03*
X159008000Y-73508000I-100000J0D01*
G01*
D12*
X164487400Y-85217800D02*
X164487400Y-81917800D01*
X164787400Y-85217800D02*
X164487400Y-85217800D01*
X166987400Y-85217800D02*
X167287400Y-85217800D01*
X167287400Y-85217800D02*
X167287400Y-81917800D01*
X164487400Y-81917800D02*
X164787400Y-81917800D01*
X167287400Y-81917800D02*
X166987400Y-81917800D01*
%LPC*%
D15*
X158278000Y-73858000D02*
X157038000Y-73858000D01*
X157038000Y-73158000D01*
X158278000Y-73158000D01*
X158278000Y-73858000D01*
G36*
X158278000Y-73858000D02*
G01*
X157038000Y-73858000D01*
X157038000Y-73158000D01*
X158278000Y-73158000D01*
X158278000Y-73858000D01*
G37*
X158278000Y-74658000D02*
X157038000Y-74658000D01*
X157038000Y-73958000D01*
X158278000Y-73958000D01*
X158278000Y-74658000D01*
G36*
X158278000Y-74658000D02*
G01*
X157038000Y-74658000D01*
X157038000Y-73958000D01*
X158278000Y-73958000D01*
X158278000Y-74658000D01*
G37*
X158278000Y-75158000D02*
X157038000Y-75158000D01*
X157038000Y-74758000D01*
X158278000Y-74758000D01*
X158278000Y-75158000D01*
G36*
X158278000Y-75158000D02*
G01*
X157038000Y-75158000D01*
X157038000Y-74758000D01*
X158278000Y-74758000D01*
X158278000Y-75158000D01*
G37*
X158278000Y-75658000D02*
X157038000Y-75658000D01*
X157038000Y-75258000D01*
X158278000Y-75258000D01*
X158278000Y-75658000D01*
G36*
X158278000Y-75658000D02*
G01*
X157038000Y-75658000D01*
X157038000Y-75258000D01*
X158278000Y-75258000D01*
X158278000Y-75658000D01*
G37*
X158278000Y-76158000D02*
X157038000Y-76158000D01*
X157038000Y-75758000D01*
X158278000Y-75758000D01*
X158278000Y-76158000D01*
G36*
X158278000Y-76158000D02*
G01*
X157038000Y-76158000D01*
X157038000Y-75758000D01*
X158278000Y-75758000D01*
X158278000Y-76158000D01*
G37*
X158278000Y-76658000D02*
X157038000Y-76658000D01*
X157038000Y-76258000D01*
X158278000Y-76258000D01*
X158278000Y-76658000D01*
G36*
X158278000Y-76658000D02*
G01*
X157038000Y-76658000D01*
X157038000Y-76258000D01*
X158278000Y-76258000D01*
X158278000Y-76658000D01*
G37*
X158278000Y-77158000D02*
X157038000Y-77158000D01*
X157038000Y-76758000D01*
X158278000Y-76758000D01*
X158278000Y-77158000D01*
G36*
X158278000Y-77158000D02*
G01*
X157038000Y-77158000D01*
X157038000Y-76758000D01*
X158278000Y-76758000D01*
X158278000Y-77158000D01*
G37*
X158278000Y-77658000D02*
X157038000Y-77658000D01*
X157038000Y-77258000D01*
X158278000Y-77258000D01*
X158278000Y-77658000D01*
G36*
X158278000Y-77658000D02*
G01*
X157038000Y-77658000D01*
X157038000Y-77258000D01*
X158278000Y-77258000D01*
X158278000Y-77658000D01*
G37*
X158278000Y-78158000D02*
X157038000Y-78158000D01*
X157038000Y-77758000D01*
X158278000Y-77758000D01*
X158278000Y-78158000D01*
G36*
X158278000Y-78158000D02*
G01*
X157038000Y-78158000D01*
X157038000Y-77758000D01*
X158278000Y-77758000D01*
X158278000Y-78158000D01*
G37*
X158278000Y-78658000D02*
X157038000Y-78658000D01*
X157038000Y-78258000D01*
X158278000Y-78258000D01*
X158278000Y-78658000D01*
G36*
X158278000Y-78658000D02*
G01*
X157038000Y-78658000D01*
X157038000Y-78258000D01*
X158278000Y-78258000D01*
X158278000Y-78658000D01*
G37*
X158278000Y-79458000D02*
X157038000Y-79458000D01*
X157038000Y-78758000D01*
X158278000Y-78758000D01*
X158278000Y-79458000D01*
G36*
X158278000Y-79458000D02*
G01*
X157038000Y-79458000D01*
X157038000Y-78758000D01*
X158278000Y-78758000D01*
X158278000Y-79458000D01*
G37*
X158278000Y-80258000D02*
X157038000Y-80258000D01*
X157038000Y-79558000D01*
X158278000Y-79558000D01*
X158278000Y-80258000D01*
G36*
X158278000Y-80258000D02*
G01*
X157038000Y-80258000D01*
X157038000Y-79558000D01*
X158278000Y-79558000D01*
X158278000Y-80258000D01*
G37*
D16*
X154500000Y-48250000D03*
X239000000Y-85750000D03*
X154500000Y-85750000D03*
X239000000Y-48250000D03*
D17*
X178350000Y-78087500D03*
X178350000Y-75112500D03*
D18*
X159987500Y-74600000D03*
X162912500Y-74600000D03*
D19*
X191250000Y-88325000D03*
X188325000Y-88325000D03*
D20*
X173350000Y-75550000D03*
D19*
X191250000Y-75825000D03*
X188325000Y-75825000D03*
D21*
X193134800Y-65601800D03*
X193134800Y-64951800D03*
X193134800Y-64301800D03*
X193134800Y-63651800D03*
X193134800Y-63001800D03*
X193134800Y-62351800D03*
X193134800Y-61701800D03*
X193134800Y-61051800D03*
X193134800Y-60401800D03*
X193134800Y-59751800D03*
X193134800Y-59101800D03*
X193134800Y-58451800D03*
X185934800Y-58451800D03*
X185934800Y-59101800D03*
X185934800Y-59751800D03*
X185934800Y-60401800D03*
X185934800Y-61051800D03*
X185934800Y-61701800D03*
X185934800Y-62351800D03*
X185934800Y-63001800D03*
X185934800Y-63651800D03*
X185934800Y-64301800D03*
X185934800Y-64951800D03*
X185934800Y-65601800D03*
D22*
X196310400Y-68427600D03*
X198710400Y-68427600D03*
D23*
X195510400Y-68427600D03*
D24*
X199510400Y-68427600D03*
D25*
X175100000Y-47750000D03*
X175100000Y-51150000D03*
D19*
X206712500Y-82250000D03*
X203787500Y-82250000D03*
D26*
X195000000Y-74150000D03*
X196000000Y-74150000D03*
X197000000Y-74150000D03*
X198000000Y-74150000D03*
X199000000Y-74150000D03*
X200000000Y-74150000D03*
D27*
X193700000Y-71625000D03*
X201300000Y-71625000D03*
D28*
X239014000Y-77201400D03*
D29*
X239014000Y-72201400D03*
D30*
X226777200Y-56094000D03*
X229057200Y-56094000D03*
D31*
X229057200Y-49794000D03*
D30*
X231337200Y-56094000D03*
D32*
X200800000Y-48250000D03*
D33*
X198260000Y-48250000D03*
X195720000Y-48250000D03*
X193180000Y-48250000D03*
D19*
X206675000Y-75750000D03*
X203750000Y-75750000D03*
D18*
X159979900Y-76911200D03*
X162904900Y-76911200D03*
D30*
X214280400Y-56084000D03*
X216560400Y-56084000D03*
D31*
X216560400Y-49784000D03*
D30*
X218840400Y-56084000D03*
D34*
X158574000Y-70500000D03*
X159844000Y-70500000D03*
X161114000Y-70500000D03*
X162384000Y-70500000D03*
X163654000Y-70500000D03*
X164924000Y-70500000D03*
X166194000Y-70500000D03*
X167464000Y-70500000D03*
X168734000Y-70500000D03*
X170004000Y-70500000D03*
X171274000Y-70500000D03*
X172544000Y-70500000D03*
X173814000Y-70500000D03*
X175084000Y-70500000D03*
D35*
X176334000Y-68735000D03*
X176334000Y-67465000D03*
X176334000Y-66195000D03*
X176334000Y-64925000D03*
X176334000Y-63655000D03*
X176334000Y-62385000D03*
X176334000Y-61115000D03*
X176334000Y-59845000D03*
X176334000Y-58575000D03*
X176334000Y-57305000D03*
X176334000Y-56035000D03*
X176334000Y-54765000D03*
D34*
X175084000Y-53000000D03*
X173814000Y-53000000D03*
X172544000Y-53000000D03*
X171274000Y-53000000D03*
X170004000Y-53000000D03*
X168734000Y-53000000D03*
X167464000Y-53000000D03*
X166194000Y-53000000D03*
X164924000Y-53000000D03*
X163654000Y-53000000D03*
X162384000Y-53000000D03*
X161114000Y-53000000D03*
X159844000Y-53000000D03*
X158574000Y-53000000D03*
D36*
X164894000Y-64650000D03*
X166294000Y-64650000D03*
X167694000Y-64650000D03*
X167694000Y-64650000D03*
X164894000Y-63250000D03*
X164894000Y-63250000D03*
X166294000Y-63250000D03*
X167694000Y-63250000D03*
X164894000Y-61850000D03*
X166294000Y-61850000D03*
X167694000Y-61850000D03*
D26*
X195000000Y-86575000D03*
X196000000Y-86575000D03*
X197000000Y-86575000D03*
X198000000Y-86575000D03*
X199000000Y-86575000D03*
X200000000Y-86575000D03*
D27*
X193700000Y-84050000D03*
X201300000Y-84050000D03*
D37*
X218807900Y-58843600D03*
X221932900Y-58843600D03*
D32*
X187590000Y-52250000D03*
D33*
X185050000Y-52250000D03*
X182510000Y-52250000D03*
D32*
X232537000Y-74701400D03*
D33*
X232537000Y-72161400D03*
D38*
X162842400Y-79248000D03*
X160042400Y-79248000D03*
D39*
X178200000Y-50925000D03*
X178200000Y-47975000D03*
D40*
X167352400Y-74792800D03*
X167352400Y-75742800D03*
X167352400Y-76692800D03*
X170772400Y-76692800D03*
X170772400Y-75742800D03*
X170772400Y-74792800D03*
D41*
X216548100Y-58826400D03*
X213423100Y-58826400D03*
D42*
X167587400Y-79248000D03*
X170537400Y-79248000D03*
D37*
X231355500Y-58826400D03*
X234480500Y-58826400D03*
D41*
X229044900Y-58826400D03*
X225919900Y-58826400D03*
D43*
X175850000Y-78150000D03*
X175850000Y-75050000D03*
D44*
X162839400Y-82105300D03*
X162839400Y-85030300D03*
D32*
X187575000Y-48325000D03*
D33*
X185035000Y-48325000D03*
X182495000Y-48325000D03*
D45*
X160299400Y-82092800D03*
X160299400Y-85042800D03*
D26*
X195000000Y-80325000D03*
X196000000Y-80325000D03*
X197000000Y-80325000D03*
X198000000Y-80325000D03*
X199000000Y-80325000D03*
X200000000Y-80325000D03*
D27*
X193700000Y-77800000D03*
X201300000Y-77800000D03*
D25*
X161137600Y-47700000D03*
X161137600Y-51100000D03*
D19*
X206675000Y-88325000D03*
X203750000Y-88325000D03*
X191250000Y-82325000D03*
X188325000Y-82325000D03*
D46*
X156588000Y-73818000D03*
X156588000Y-79598000D03*
D47*
X157078000Y-72383000D03*
X157078000Y-81033000D03*
D48*
X152908000Y-72383000D03*
X152908000Y-81033000D03*
D25*
X165887400Y-85267800D03*
X165887400Y-81867800D03*
D49*
X197500000Y-95536000D03*
D50*
X197500000Y-99536000D03*
D49*
X195700000Y-99536000D03*
D50*
X195700000Y-95536000D03*
D49*
X156000000Y-95500000D03*
D50*
X156000000Y-99500000D03*
D49*
X154200000Y-99500000D03*
D50*
X154200000Y-95500000D03*
D49*
X239000000Y-95500000D03*
D50*
X239000000Y-99500000D03*
D49*
X237200000Y-99500000D03*
D50*
X237200000Y-95500000D03*
%LPD*%
M02*
