M48
; DRILL file {KiCad 7.0.8} date Sun Oct 29 22:23:20 2023
; FORMAT={-:-/ absolute / metric / decimal}
; #@! TF.CreationDate,2023-10-29T22:23:20+01:00
; #@! TF.GenerationSoftware,Kicad,Pcbnew,7.0.8
; #@! TF.FileFunction,Plated,1,2,PTH
FMAT,2
METRIC
; #@! TA.AperFunction,Plated,PTH,ViaDrill
T1C0.400
; #@! TA.AperFunction,Plated,PTH,ComponentDrill
T2C0.600
; #@! TA.AperFunction,Plated,PTH,ViaDrill
T3C0.700
; #@! TA.AperFunction,Plated,PTH,ComponentDrill
T4C0.800
; #@! TA.AperFunction,Plated,PTH,ComponentDrill
T5C1.000
; #@! TA.AperFunction,Plated,PTH,ComponentDrill
T6C2.700
; #@! TA.AperFunction,Plated,PTH,ComponentDrill
T7C3.200
%
G90
G05
T1
X151.95Y-90.1
X156.312Y-76.962
X158.852Y-74.676
X159.844Y-71.882
X160.225Y-83.617
X160.249Y-90.094
X161.176Y-49.949
X162.384Y-71.882
X163.654Y-71.882
X164.924Y-71.882
X165.0Y-50.75
X165.964Y-73.609
X165.964Y-75.743
X165.964Y-78.207
X166.194Y-71.882
X166.25Y-50.75
X166.268Y-66.345
X167.464Y-71.9
X167.5Y-50.75
X169.062Y-81.128
X170.004Y-71.882
X171.274Y-71.882
X173.228Y-51.054
X173.228Y-57.429
X177.655Y-63.655
X178.35Y-74.0
X178.511Y-57.404
X179.75Y-67.25
X179.751Y-68.458
X179.781Y-69.698
X180.55Y-49.9
X180.75Y-63.2
X182.118Y-67.259
X187.554Y-61.722
X193.75Y-75.75
X193.75Y-82.25
X194.833Y-67.75
X196.0Y-71.882
X197.0Y-72.898
X199.0Y-71.9
X199.0Y-75.75
X199.0Y-77.8
X199.0Y-82.25
X199.0Y-84.1
X202.632Y-71.028
X206.35Y-65.735
X214.15Y-47.1
X214.15Y-52.5
X214.2Y-49.75
X215.2Y-48.35
X215.2Y-51.2
X216.55Y-47.1
X216.55Y-49.75
X216.55Y-52.5
X217.95Y-48.35
X217.95Y-51.2
X218.95Y-47.1
X218.95Y-49.75
X218.95Y-52.5
X226.65Y-47.1
X226.65Y-52.5
X226.7Y-49.75
X227.7Y-48.35
X227.7Y-51.2
X229.05Y-47.1
X229.05Y-49.75
X229.05Y-52.5
X230.45Y-48.35
X230.45Y-51.2
X231.45Y-47.1
X231.45Y-49.75
X231.45Y-52.5
T2
X173.35Y-75.55
T3
X189.535Y-58.522
X228.549Y-63.652
T4
X154.2Y-95.5
X154.2Y-99.5
X156.0Y-95.5
X156.0Y-99.5
X195.7Y-95.536
X195.7Y-99.536
X197.5Y-95.536
X197.5Y-99.536
X237.2Y-95.5
X237.2Y-99.5
X239.0Y-95.5
X239.0Y-99.5
T5
X182.495Y-48.325
X182.51Y-52.25
X185.035Y-48.325
X185.05Y-52.25
X187.575Y-48.325
X187.59Y-52.25
X193.18Y-48.25
X195.72Y-48.25
X198.26Y-48.25
X200.8Y-48.25
X232.537Y-72.161
X232.537Y-74.701
T6
X239.014Y-72.201
X239.014Y-77.201
T7
X154.5Y-48.25
X154.5Y-85.75
X239.0Y-48.25
X239.0Y-85.75
T2
X153.308Y-72.383G85X152.508Y-72.383
G05
X153.308Y-81.033G85X152.508Y-81.033
G05
X157.628Y-72.383G85X156.528Y-72.383
G05
X157.628Y-81.033G85X156.528Y-81.033
G05
T0
M30
