M48
; DRILL file {KiCad 8.0.4} date 2024-09-30T21:52:56+0200
; FORMAT={-:-/ absolute / metric / decimal}
; #@! TF.CreationDate,2024-09-30T21:52:56+02:00
; #@! TF.GenerationSoftware,Kicad,Pcbnew,8.0.4
; #@! TF.FileFunction,Plated,1,4,PTH
FMAT,2
METRIC
; #@! TA.AperFunction,Plated,PTH,ViaDrill
T1C0.200
; #@! TA.AperFunction,Plated,PTH,ComponentDrill
T2C0.200
; #@! TA.AperFunction,Plated,PTH,ViaDrill
T3C0.250
; #@! TA.AperFunction,Plated,PTH,ViaDrill
T4C0.300
; #@! TA.AperFunction,Plated,PTH,ComponentDrill
T5C0.500
; #@! TA.AperFunction,Plated,PTH,ComponentDrill
T6C0.600
; #@! TA.AperFunction,Plated,PTH,ComponentDrill
T7C0.900
; #@! TA.AperFunction,Plated,PTH,ComponentDrill
T8C1.000
; #@! TA.AperFunction,Plated,PTH,ComponentDrill
T9C1.700
; #@! TA.AperFunction,Plated,PTH,ComponentDrill
T10C3.200
%
G90
G05
T1
X135.25Y-112.5
X151.938Y-84.081
X151.938Y-84.781
X151.938Y-85.481
X151.938Y-86.181
X151.938Y-86.881
X151.938Y-87.581
X151.938Y-88.35
X151.938Y-92.6
X151.938Y-93.3
X151.938Y-94.0
X151.938Y-94.7
X151.938Y-96.8
X151.943Y-96.1
X151.952Y-95.4
X158.75Y-86.875
X158.761Y-95.325
T2
X149.96Y-109.922
X149.96Y-111.102
X151.14Y-109.922
X151.14Y-111.102
X155.75Y-85.05
X155.75Y-86.05
X155.75Y-87.0
X155.75Y-88.0
X155.75Y-93.55
X155.75Y-94.55
X155.75Y-95.5
X155.75Y-96.5
X156.75Y-85.05
X156.75Y-86.05
X156.75Y-87.0
X156.75Y-88.0
X156.75Y-93.55
X156.75Y-94.55
X156.75Y-95.5
X156.75Y-96.5
X157.75Y-85.05
X157.75Y-86.05
X157.75Y-87.0
X157.75Y-88.0
X157.75Y-93.55
X157.75Y-94.55
X157.75Y-95.5
X157.75Y-96.5
T3
X103.0Y-107.7
X103.0Y-110.5
X103.0Y-111.5
X103.0Y-112.5
X103.0Y-113.5
X103.0Y-114.5
X103.0Y-115.5
X103.0Y-116.5
X103.75Y-111.0
X103.75Y-112.0
X103.75Y-113.0
X103.75Y-114.0
X103.75Y-115.0
X103.75Y-116.0
X109.25Y-82.0
X109.25Y-125.5
X109.75Y-82.75
X109.75Y-124.75
X110.094Y-96.378
X110.094Y-99.878
X110.094Y-120.878
X110.1Y-92.9
X110.25Y-82.0
X110.25Y-125.5
X110.75Y-82.75
X110.75Y-124.75
X111.25Y-82.0
X111.25Y-125.5
X111.75Y-82.75
X111.75Y-124.75
X111.8Y-110.8
X111.8Y-112.7
X112.25Y-82.0
X112.25Y-90.5
X112.25Y-109.0
X112.25Y-125.5
X112.75Y-82.75
X112.75Y-124.75
X113.25Y-82.0
X113.25Y-125.5
X113.508Y-109.0
X113.594Y-99.878
X113.6Y-92.85
X113.6Y-96.35
X113.6Y-120.9
X113.75Y-82.75
X114.25Y-82.0
X114.25Y-125.5
X114.75Y-82.75
X114.75Y-109.0
X115.2Y-110.75
X115.2Y-112.7
X115.25Y-82.0
X115.25Y-125.5
X115.75Y-82.75
X116.075Y-117.6
X116.1Y-88.75
X116.1Y-109.0
X116.25Y-82.0
X116.25Y-125.5
X116.75Y-82.75
X116.95Y-117.6
X117.094Y-92.878
X117.1Y-96.4
X117.25Y-82.0
X117.25Y-125.5
X117.35Y-90.5
X117.35Y-109.0
X117.5Y-120.45
X117.75Y-82.75
X117.75Y-124.75
X118.25Y-82.0
X118.25Y-125.5
X118.63Y-88.75
X118.65Y-109.0
X118.65Y-122.1
X118.75Y-82.75
X118.75Y-124.75
X119.2Y-123.75
X119.25Y-82.0
X119.25Y-125.5
X119.75Y-82.75
X119.75Y-118.75
X119.75Y-124.75
X119.9Y-90.5
X119.9Y-109.0
X120.25Y-82.0
X120.25Y-125.5
X120.594Y-96.378
X120.75Y-82.75
X120.75Y-124.75
X120.95Y-109.0
X121.1Y-122.1
X121.2Y-88.8
X121.25Y-82.0
X121.25Y-125.5
X121.75Y-82.75
X121.75Y-124.75
X121.8Y-109.0
X122.25Y-82.0
X122.25Y-125.5
X122.45Y-90.45
X122.7Y-109.0
X122.75Y-82.75
X122.75Y-124.75
X123.25Y-82.0
X123.25Y-125.5
X123.7Y-109.0
X123.75Y-82.75
X123.75Y-124.75
X124.094Y-96.378
X124.1Y-103.4
X124.25Y-82.0
X124.25Y-125.5
X124.5Y-122.75
X124.7Y-105.5
X124.75Y-82.75
X124.75Y-124.75
X124.95Y-90.45
X125.25Y-82.0
X125.25Y-125.5
X125.75Y-82.75
X126.25Y-82.0
X126.25Y-125.5
X126.5Y-85.0
X126.75Y-82.75
X127.25Y-82.0
X127.25Y-125.5
X127.75Y-82.75
X128.25Y-82.0
X128.25Y-125.5
X128.75Y-82.75
X128.85Y-99.0
X128.85Y-100.25
X128.85Y-101.55
X128.85Y-102.85
X129.25Y-82.0
X129.25Y-125.5
X129.75Y-82.75
X130.25Y-82.0
X130.25Y-125.5
X130.75Y-82.75
X131.25Y-82.0
X131.25Y-125.5
X131.75Y-82.75
X131.75Y-114.25
X131.75Y-115.75
X131.75Y-117.25
X132.25Y-82.0
X132.25Y-115.0
X132.25Y-116.5
X132.25Y-125.5
X132.75Y-82.75
X132.75Y-114.25
X132.75Y-115.75
X132.75Y-117.25
X133.25Y-82.0
X133.25Y-116.5
X133.25Y-125.5
X133.725Y-123.25
X133.75Y-82.75
X133.75Y-117.25
X133.75Y-124.75
X134.25Y-82.0
X134.25Y-116.5
X134.25Y-125.5
X134.75Y-82.75
X134.75Y-117.25
X134.75Y-124.75
X135.25Y-82.0
X135.25Y-116.5
X135.25Y-125.5
X135.338Y-122.662
X135.75Y-82.75
X135.75Y-117.25
X135.75Y-124.75
X136.25Y-82.0
X136.25Y-84.25
X136.25Y-94.0
X136.25Y-97.0
X136.25Y-98.0
X136.25Y-99.0
X136.25Y-116.5
X136.25Y-125.5
X136.75Y-82.75
X136.75Y-117.25
X136.75Y-124.75
X137.0Y-122.675
X137.25Y-82.0
X137.25Y-116.5
X137.25Y-125.5
X137.75Y-82.75
X137.75Y-117.25
X137.75Y-124.75
X138.25Y-82.0
X138.25Y-116.5
X138.25Y-125.5
X138.75Y-82.75
X138.75Y-112.75
X138.75Y-114.25
X138.75Y-115.75
X138.75Y-117.25
X138.75Y-124.75
X138.8Y-122.65
X139.25Y-82.0
X139.25Y-113.5
X139.25Y-115.0
X139.25Y-116.5
X139.25Y-125.5
X139.5Y-90.5
X139.75Y-82.75
X139.75Y-112.75
X139.75Y-114.25
X139.75Y-115.75
X139.75Y-117.25
X139.75Y-124.75
X140.25Y-82.0
X140.25Y-125.5
X140.66Y-122.622
X140.75Y-82.75
X141.25Y-82.0
X141.25Y-125.5
X141.5Y-104.75
X141.5Y-105.75
X141.5Y-106.75
X141.5Y-107.75
X141.5Y-108.75
X141.5Y-109.75
X141.5Y-110.75
X141.5Y-111.75
X141.5Y-112.75
X141.5Y-113.75
X141.5Y-114.75
X141.5Y-115.75
X141.75Y-82.75
X142.25Y-82.0
X142.25Y-105.25
X142.25Y-106.25
X142.25Y-107.25
X142.25Y-108.25
X142.25Y-109.25
X142.25Y-110.25
X142.25Y-111.25
X142.25Y-112.25
X142.25Y-113.25
X142.25Y-114.25
X142.25Y-115.25
X142.25Y-125.5
X142.75Y-82.75
X143.0Y-104.75
X143.0Y-105.75
X143.0Y-114.75
X143.0Y-115.75
X143.25Y-82.0
X143.25Y-125.5
X143.75Y-82.75
X143.75Y-105.25
X143.75Y-115.25
X144.0Y-90.5
X144.25Y-82.0
X144.25Y-125.5
X144.339Y-122.661
X144.5Y-104.75
X144.5Y-105.75
X144.75Y-82.75
X145.25Y-82.0
X145.25Y-105.25
X145.25Y-125.5
X145.75Y-82.75
X146.0Y-104.75
X146.0Y-105.75
X146.25Y-82.0
X146.25Y-125.5
X146.75Y-82.75
X146.75Y-105.25
X147.25Y-82.0
X147.25Y-125.5
X147.5Y-104.75
X147.5Y-105.75
X147.75Y-82.75
X148.0Y-83.933
X148.25Y-82.0
X148.25Y-105.25
X148.25Y-125.5
X148.5Y-90.5
X148.594Y-117.378
X148.75Y-82.75
X148.75Y-124.75
X149.0Y-104.75
X149.0Y-105.75
X149.25Y-82.0
X149.25Y-125.5
X149.65Y-122.7
X149.75Y-82.75
X149.75Y-124.75
X150.25Y-82.0
X150.25Y-125.5
X150.75Y-82.75
X150.75Y-124.75
X151.25Y-82.0
X151.25Y-125.5
X151.75Y-82.75
X151.75Y-124.75
X151.85Y-122.7
X152.094Y-117.378
X152.25Y-82.0
X152.25Y-125.5
X152.75Y-82.75
X152.75Y-124.75
X153.25Y-82.0
X153.25Y-125.5
X153.75Y-82.75
X153.75Y-124.75
X154.05Y-122.7
X154.25Y-82.0
X154.25Y-125.5
X154.75Y-82.75
X154.75Y-124.75
X155.25Y-82.0
X155.25Y-125.5
X155.594Y-106.878
X155.594Y-113.878
X155.594Y-117.378
X155.75Y-82.75
X155.75Y-124.75
X156.25Y-82.0
X156.25Y-125.5
X156.75Y-82.75
X157.25Y-82.0
X157.25Y-125.5
X157.75Y-82.75
X158.25Y-82.0
X158.25Y-125.5
X158.75Y-82.75
X159.094Y-103.378
X159.094Y-113.878
X159.094Y-117.378
X159.25Y-82.0
X159.25Y-125.5
X159.75Y-82.75
X159.75Y-124.75
X160.25Y-82.0
X160.25Y-125.5
X160.75Y-82.75
X160.75Y-124.75
X161.25Y-82.0
X161.25Y-125.5
X161.75Y-82.75
X161.75Y-124.75
X162.25Y-82.0
X162.25Y-125.5
X162.594Y-113.878
X162.594Y-117.378
X162.594Y-120.878
X162.75Y-82.75
X162.75Y-124.75
X163.25Y-82.0
X163.25Y-125.5
X163.75Y-82.75
X163.75Y-124.75
X164.25Y-82.0
X164.25Y-125.5
X164.75Y-82.75
X164.75Y-124.75
X165.25Y-82.0
X165.25Y-125.5
X165.75Y-82.75
X165.75Y-124.75
X166.05Y-85.9
X166.094Y-92.878
X166.094Y-96.378
X166.094Y-103.378
X166.094Y-117.378
X166.094Y-120.878
X166.1Y-99.9
X166.25Y-82.0
X166.25Y-125.5
X166.75Y-82.75
X166.75Y-124.75
X167.25Y-82.0
X167.25Y-125.5
X167.75Y-82.75
X167.75Y-124.75
X168.25Y-82.0
X168.25Y-125.5
X168.75Y-82.75
X168.75Y-124.75
X169.25Y-82.0
X169.25Y-125.5
X169.594Y-85.878
X169.594Y-92.878
X169.594Y-96.378
X169.594Y-103.378
X169.594Y-117.378
X169.594Y-120.878
X169.6Y-99.9
X169.75Y-82.75
X169.75Y-124.75
X170.25Y-82.0
X170.25Y-125.5
X170.75Y-82.75
X170.75Y-124.75
X171.25Y-82.0
X171.25Y-125.5
X171.75Y-82.75
X171.75Y-124.75
X172.25Y-82.0
X172.25Y-125.5
X172.75Y-82.75
X172.75Y-124.75
X173.094Y-85.878
X173.094Y-92.878
X173.094Y-96.378
X173.094Y-117.378
X173.094Y-120.878
X173.1Y-99.9
X173.1Y-103.4
X173.1Y-106.9
X173.1Y-110.4
X173.1Y-113.9
X173.25Y-82.0
X173.25Y-125.5
X173.75Y-82.75
X173.75Y-124.75
X174.25Y-82.0
X174.25Y-125.5
X174.75Y-82.75
X174.75Y-124.75
X175.25Y-82.0
X175.25Y-125.5
X176.594Y-89.378
X176.594Y-92.878
X176.594Y-96.378
X176.594Y-117.378
X176.6Y-99.9
X176.6Y-103.4
X176.6Y-106.9
X176.6Y-110.4
X176.6Y-113.9
X180.75Y-89.0
X180.75Y-90.0
X180.75Y-91.0
X180.75Y-92.0
X180.75Y-93.0
X180.75Y-94.0
X180.75Y-95.0
X180.75Y-96.0
X180.75Y-97.0
X180.75Y-98.0
X180.75Y-99.0
X180.75Y-100.0
X180.75Y-101.0
X180.75Y-102.0
X180.75Y-103.0
X180.75Y-104.0
X180.75Y-105.0
X180.75Y-106.0
X180.75Y-107.0
X180.75Y-108.0
X180.75Y-109.0
X180.75Y-110.0
X180.75Y-111.0
X180.75Y-112.0
X180.75Y-113.0
X180.75Y-114.0
X180.75Y-115.0
X180.75Y-116.0
X180.75Y-117.0
X180.75Y-118.0
X180.75Y-119.0
X181.5Y-88.5
X181.5Y-89.5
X181.5Y-90.5
X181.5Y-91.5
X181.5Y-92.5
X181.5Y-93.5
X181.5Y-94.5
X181.5Y-95.5
X181.5Y-96.5
X181.5Y-97.5
X181.5Y-98.5
X181.5Y-99.5
X181.5Y-100.5
X181.5Y-101.5
X181.5Y-102.5
X181.5Y-103.5
X181.5Y-104.5
X181.5Y-105.5
X181.5Y-106.5
X181.5Y-107.5
X181.5Y-108.5
X181.5Y-109.5
X181.5Y-110.5
X181.5Y-111.5
X181.5Y-112.5
X181.5Y-113.5
X181.5Y-114.5
X181.5Y-115.5
X181.5Y-116.5
X181.5Y-117.5
X181.5Y-118.5
X181.5Y-119.5
T4
X109.362Y-115.85
X110.95Y-109.0
X113.0Y-85.0
X113.15Y-114.65
X114.85Y-111.75
X122.7Y-116.8
X123.2Y-117.55
X123.7Y-116.8
X133.5Y-120.5
X136.0Y-106.5
X136.25Y-95.0
X136.25Y-96.0
X136.5Y-105.75
X137.0Y-106.5
X145.25Y-114.5
X145.75Y-115.25
X146.25Y-114.5
X148.5Y-120.45
X154.0Y-89.85
X154.25Y-103.75
X154.5Y-110.75
X155.0Y-98.0
X155.25Y-110.25
X155.25Y-111.25
X155.5Y-89.85
X158.25Y-109.75
X158.313Y-97.979
X161.088Y-88.75
X161.088Y-97.0
X162.338Y-88.75
X162.338Y-97.0
X166.1Y-108.75
X178.5Y-107.25
X178.5Y-109.75
X178.5Y-112.25
X178.5Y-114.75
T5
X103.6Y-85.0
X103.6Y-122.5
X104.303Y-83.303
X104.303Y-86.697
X104.303Y-120.803
X104.303Y-124.197
X106.0Y-82.6
X106.0Y-87.4
X106.0Y-120.1
X106.0Y-124.9
X107.697Y-83.303
X107.697Y-86.697
X107.697Y-120.803
X107.697Y-124.197
X108.4Y-85.0
X108.4Y-122.5
X176.1Y-85.0
X176.1Y-122.5
X176.803Y-83.303
X176.803Y-86.697
X176.803Y-120.803
X176.803Y-124.197
X178.5Y-82.6
X178.5Y-87.4
X178.5Y-120.1
X178.5Y-124.9
X180.197Y-83.303
X180.197Y-86.697
X180.197Y-120.803
X180.197Y-124.197
X180.9Y-85.0
X180.9Y-122.5
T6
X166.25Y-106.25
X168.75Y-106.25
X171.25Y-106.25
T7
X167.21Y-90.25
X169.75Y-90.25
X172.29Y-90.25
T8
X162.5Y-123.5
X173.5Y-123.5
T9
X165.5Y-113.5
X170.5Y-113.5
T10
X106.0Y-85.0
X106.0Y-122.5
X178.5Y-85.0
X178.5Y-122.5
T6
X103.9Y-109.175G85X103.1Y-109.175
G05
X103.9Y-117.825G85X103.1Y-117.825
G05
X108.22Y-109.175G85X107.12Y-109.175
G05
X108.22Y-117.825G85X107.12Y-117.825
G05
M30
