G04 #@! TF.GenerationSoftware,KiCad,Pcbnew,8.0.4*
G04 #@! TF.CreationDate,2024-09-24T15:17:15+02:00*
G04 #@! TF.ProjectId,SUMEC_MK_IV,53554d45-435f-44d4-9b5f-49562e6b6963,v2.1.1*
G04 #@! TF.SameCoordinates,Original*
G04 #@! TF.FileFunction,Soldermask,Top*
G04 #@! TF.FilePolarity,Negative*
%FSLAX46Y46*%
G04 Gerber Fmt 4.6, Leading zero omitted, Abs format (unit mm)*
G04 Created by KiCad (PCBNEW 8.0.4) date 2024-09-24 15:17:15*
%MOMM*%
%LPD*%
G01*
G04 APERTURE LIST*
G04 Aperture macros list*
%AMRoundRect*
0 Rectangle with rounded corners*
0 $1 Rounding radius*
0 $2 $3 $4 $5 $6 $7 $8 $9 X,Y pos of 4 corners*
0 Add a 4 corners polygon primitive as box body*
4,1,4,$2,$3,$4,$5,$6,$7,$8,$9,$2,$3,0*
0 Add four circle primitives for the rounded corners*
1,1,$1+$1,$2,$3*
1,1,$1+$1,$4,$5*
1,1,$1+$1,$6,$7*
1,1,$1+$1,$8,$9*
0 Add four rect primitives between the rounded corners*
20,1,$1+$1,$2,$3,$4,$5,0*
20,1,$1+$1,$4,$5,$6,$7,0*
20,1,$1+$1,$6,$7,$8,$9,0*
20,1,$1+$1,$8,$9,$2,$3,0*%
G04 Aperture macros list end*
%ADD10C,0.010000*%
%ADD11RoundRect,0.250000X-0.450000X0.350000X-0.450000X-0.350000X0.450000X-0.350000X0.450000X0.350000X0*%
%ADD12RoundRect,0.062500X-0.350000X-0.062500X0.350000X-0.062500X0.350000X0.062500X-0.350000X0.062500X0*%
%ADD13RoundRect,0.062500X-0.062500X-0.350000X0.062500X-0.350000X0.062500X0.350000X-0.062500X0.350000X0*%
%ADD14R,1.680000X1.680000*%
%ADD15RoundRect,0.200000X-0.200000X-0.450000X0.200000X-0.450000X0.200000X0.450000X-0.200000X0.450000X0*%
%ADD16RoundRect,0.250001X-0.799999X-1.249999X0.799999X-1.249999X0.799999X1.249999X-0.799999X1.249999X0*%
%ADD17R,1.475000X0.450000*%
%ADD18R,2.460000X3.550000*%
%ADD19C,0.500000*%
%ADD20R,1.000000X1.000000*%
%ADD21RoundRect,0.250000X-0.250000X0.250000X-0.250000X-0.250000X0.250000X-0.250000X0.250000X0.250000X0*%
%ADD22C,0.800000*%
%ADD23C,6.400000*%
%ADD24RoundRect,0.250000X-0.337500X-0.475000X0.337500X-0.475000X0.337500X0.475000X-0.337500X0.475000X0*%
%ADD25RoundRect,0.250000X0.475000X-0.337500X0.475000X0.337500X-0.475000X0.337500X-0.475000X-0.337500X0*%
%ADD26RoundRect,0.250001X-0.462499X-0.624999X0.462499X-0.624999X0.462499X0.624999X-0.462499X0.624999X0*%
%ADD27C,2.754000*%
%ADD28RoundRect,0.102000X1.275000X1.275000X-1.275000X1.275000X-1.275000X-1.275000X1.275000X-1.275000X0*%
%ADD29C,1.712000*%
%ADD30RoundRect,0.250000X-0.475000X0.337500X-0.475000X-0.337500X0.475000X-0.337500X0.475000X0.337500X0*%
%ADD31RoundRect,0.250200X-0.649800X-0.649800X0.649800X-0.649800X0.649800X0.649800X-0.649800X0.649800X0*%
%ADD32C,1.800000*%
%ADD33RoundRect,0.250000X-0.350000X-0.450000X0.350000X-0.450000X0.350000X0.450000X-0.350000X0.450000X0*%
%ADD34RoundRect,0.150000X0.150000X-0.512500X0.150000X0.512500X-0.150000X0.512500X-0.150000X-0.512500X0*%
%ADD35R,2.000000X1.600000*%
%ADD36RoundRect,0.250000X-0.450000X0.325000X-0.450000X-0.325000X0.450000X-0.325000X0.450000X0.325000X0*%
%ADD37RoundRect,0.250000X-0.400000X-0.275000X0.400000X-0.275000X0.400000X0.275000X-0.400000X0.275000X0*%
%ADD38O,2.204000X1.104000*%
%ADD39O,1.904000X1.104000*%
%ADD40RoundRect,0.250000X0.325000X0.450000X-0.325000X0.450000X-0.325000X-0.450000X0.325000X-0.450000X0*%
%ADD41RoundRect,0.250000X0.425000X-0.537500X0.425000X0.537500X-0.425000X0.537500X-0.425000X-0.537500X0*%
%ADD42R,0.900000X1.500000*%
%ADD43R,1.500000X0.900000*%
%ADD44R,0.900000X0.900000*%
%ADD45RoundRect,0.085000X0.085000X-0.265000X0.085000X0.265000X-0.085000X0.265000X-0.085000X-0.265000X0*%
%ADD46RoundRect,0.250000X0.350000X0.450000X-0.350000X0.450000X-0.350000X-0.450000X0.350000X-0.450000X0*%
%ADD47RoundRect,0.250000X0.450000X-0.350000X0.450000X0.350000X-0.450000X0.350000X-0.450000X-0.350000X0*%
%ADD48RoundRect,0.250000X0.337500X0.475000X-0.337500X0.475000X-0.337500X-0.475000X0.337500X-0.475000X0*%
%ADD49R,2.286000X1.854500*%
%ADD50R,1.500000X1.200000*%
%ADD51RoundRect,0.250000X0.275000X-0.400000X0.275000X0.400000X-0.275000X0.400000X-0.275000X-0.400000X0*%
%ADD52C,0.600000*%
%ADD53C,0.700000*%
G04 APERTURE END LIST*
D10*
X108870000Y-110650000D02*
X107630000Y-110650000D01*
X107630000Y-109950000D01*
X108870000Y-109950000D01*
X108870000Y-110650000D01*
G36*
X108870000Y-110650000D02*
G01*
X107630000Y-110650000D01*
X107630000Y-109950000D01*
X108870000Y-109950000D01*
X108870000Y-110650000D01*
G37*
X108870000Y-111450000D02*
X107630000Y-111450000D01*
X107630000Y-110750000D01*
X108870000Y-110750000D01*
X108870000Y-111450000D01*
G36*
X108870000Y-111450000D02*
G01*
X107630000Y-111450000D01*
X107630000Y-110750000D01*
X108870000Y-110750000D01*
X108870000Y-111450000D01*
G37*
X108870000Y-111950000D02*
X107630000Y-111950000D01*
X107630000Y-111550000D01*
X108870000Y-111550000D01*
X108870000Y-111950000D01*
G36*
X108870000Y-111950000D02*
G01*
X107630000Y-111950000D01*
X107630000Y-111550000D01*
X108870000Y-111550000D01*
X108870000Y-111950000D01*
G37*
X108870000Y-112450000D02*
X107630000Y-112450000D01*
X107630000Y-112050000D01*
X108870000Y-112050000D01*
X108870000Y-112450000D01*
G36*
X108870000Y-112450000D02*
G01*
X107630000Y-112450000D01*
X107630000Y-112050000D01*
X108870000Y-112050000D01*
X108870000Y-112450000D01*
G37*
X108870000Y-112950000D02*
X107630000Y-112950000D01*
X107630000Y-112550000D01*
X108870000Y-112550000D01*
X108870000Y-112950000D01*
G36*
X108870000Y-112950000D02*
G01*
X107630000Y-112950000D01*
X107630000Y-112550000D01*
X108870000Y-112550000D01*
X108870000Y-112950000D01*
G37*
X108870000Y-113450000D02*
X107630000Y-113450000D01*
X107630000Y-113050000D01*
X108870000Y-113050000D01*
X108870000Y-113450000D01*
G36*
X108870000Y-113450000D02*
G01*
X107630000Y-113450000D01*
X107630000Y-113050000D01*
X108870000Y-113050000D01*
X108870000Y-113450000D01*
G37*
X108870000Y-113950000D02*
X107630000Y-113950000D01*
X107630000Y-113550000D01*
X108870000Y-113550000D01*
X108870000Y-113950000D01*
G36*
X108870000Y-113950000D02*
G01*
X107630000Y-113950000D01*
X107630000Y-113550000D01*
X108870000Y-113550000D01*
X108870000Y-113950000D01*
G37*
X108870000Y-114450000D02*
X107630000Y-114450000D01*
X107630000Y-114050000D01*
X108870000Y-114050000D01*
X108870000Y-114450000D01*
G36*
X108870000Y-114450000D02*
G01*
X107630000Y-114450000D01*
X107630000Y-114050000D01*
X108870000Y-114050000D01*
X108870000Y-114450000D01*
G37*
X108870000Y-114950000D02*
X107630000Y-114950000D01*
X107630000Y-114550000D01*
X108870000Y-114550000D01*
X108870000Y-114950000D01*
G36*
X108870000Y-114950000D02*
G01*
X107630000Y-114950000D01*
X107630000Y-114550000D01*
X108870000Y-114550000D01*
X108870000Y-114950000D01*
G37*
X108870000Y-115450000D02*
X107630000Y-115450000D01*
X107630000Y-115050000D01*
X108870000Y-115050000D01*
X108870000Y-115450000D01*
G36*
X108870000Y-115450000D02*
G01*
X107630000Y-115450000D01*
X107630000Y-115050000D01*
X108870000Y-115050000D01*
X108870000Y-115450000D01*
G37*
X108870000Y-116250000D02*
X107630000Y-116250000D01*
X107630000Y-115550000D01*
X108870000Y-115550000D01*
X108870000Y-116250000D01*
G36*
X108870000Y-116250000D02*
G01*
X107630000Y-116250000D01*
X107630000Y-115550000D01*
X108870000Y-115550000D01*
X108870000Y-116250000D01*
G37*
X108870000Y-117050000D02*
X107630000Y-117050000D01*
X107630000Y-116350000D01*
X108870000Y-116350000D01*
X108870000Y-117050000D01*
G36*
X108870000Y-117050000D02*
G01*
X107630000Y-117050000D01*
X107630000Y-116350000D01*
X108870000Y-116350000D01*
X108870000Y-117050000D01*
G37*
D11*
X160150000Y-106750000D03*
X160150000Y-108750000D03*
D12*
X149087500Y-109762500D03*
X149087500Y-110262500D03*
X149087500Y-110762500D03*
X149087500Y-111262500D03*
D13*
X149800000Y-111975000D03*
X150300000Y-111975000D03*
X150800000Y-111975000D03*
X151300000Y-111975000D03*
D12*
X152012500Y-111262500D03*
X152012500Y-110762500D03*
X152012500Y-110262500D03*
X152012500Y-109762500D03*
D13*
X151300000Y-109050000D03*
X150800000Y-109050000D03*
X150300000Y-109050000D03*
X149800000Y-109050000D03*
D14*
X150550000Y-110512500D03*
D15*
X118000000Y-120500000D03*
X119250000Y-120500000D03*
X120500000Y-120500000D03*
X121750000Y-120500000D03*
X123000000Y-120500000D03*
X124250000Y-120500000D03*
D16*
X115450000Y-123250000D03*
X126800000Y-123250000D03*
D17*
X153812000Y-84275000D03*
X153812000Y-84925000D03*
X153812000Y-85575000D03*
X153812000Y-86225000D03*
X153812000Y-86875000D03*
X153812000Y-87525000D03*
X153812000Y-88175000D03*
X153812000Y-88825000D03*
X159688000Y-88825000D03*
X159688000Y-88175000D03*
X159688000Y-87525000D03*
X159688000Y-86875000D03*
X159688000Y-86225000D03*
X159688000Y-85575000D03*
X159688000Y-84925000D03*
X159688000Y-84275000D03*
D18*
X156750000Y-86550000D03*
D15*
X133500000Y-120500000D03*
X134750000Y-120500000D03*
X136000000Y-120500000D03*
X137250000Y-120500000D03*
X138500000Y-120500000D03*
X139750000Y-120500000D03*
D16*
X130950000Y-123250000D03*
X142300000Y-123250000D03*
D19*
X157750000Y-86050000D03*
X155750000Y-85050000D03*
X157750000Y-94550000D03*
D20*
X171250000Y-106250000D03*
D21*
X168750000Y-106250000D03*
X166250000Y-106250000D03*
D19*
X155750000Y-88000000D03*
X156750000Y-93550000D03*
D22*
X176100000Y-85000000D03*
X176802944Y-83302944D03*
X176802944Y-86697056D03*
X178500000Y-82600000D03*
D23*
X178500000Y-85000000D03*
D22*
X178500000Y-87400000D03*
X180197056Y-83302944D03*
X180197056Y-86697056D03*
X180900000Y-85000000D03*
D19*
X156750000Y-88000000D03*
D24*
X149812500Y-113712500D03*
X151887500Y-113712500D03*
D11*
X134600000Y-106750000D03*
X134600000Y-108750000D03*
D25*
X132400000Y-112587500D03*
X132400000Y-110512500D03*
D19*
X155750000Y-93550000D03*
X156750000Y-96500000D03*
D17*
X153812000Y-92725000D03*
X153812000Y-93375000D03*
X153812000Y-94025000D03*
X153812000Y-94675000D03*
X153812000Y-95325000D03*
X153812000Y-95975000D03*
X153812000Y-96625000D03*
X153812000Y-97275000D03*
X159688000Y-97275000D03*
X159688000Y-96625000D03*
X159688000Y-95975000D03*
X159688000Y-95325000D03*
X159688000Y-94675000D03*
X159688000Y-94025000D03*
X159688000Y-93375000D03*
X159688000Y-92725000D03*
D18*
X156750000Y-95000000D03*
D26*
X116512500Y-117000000D03*
X119487500Y-117000000D03*
D27*
X165500000Y-113500000D03*
D28*
X170500000Y-113500000D03*
D29*
X162500000Y-123500000D03*
X173500000Y-123500000D03*
D30*
X153750000Y-111775000D03*
X153750000Y-113850000D03*
D19*
X155750000Y-94550000D03*
D31*
X167210000Y-90250000D03*
D32*
X169750000Y-90250000D03*
X172290000Y-90250000D03*
D25*
X161700000Y-98437500D03*
X161700000Y-96362500D03*
D33*
X110550000Y-110750000D03*
X112550000Y-110750000D03*
D34*
X121300000Y-116887500D03*
X123200000Y-116887500D03*
X122250000Y-114612500D03*
D19*
X156750000Y-87000000D03*
D30*
X161750000Y-84225000D03*
X161750000Y-86300000D03*
D35*
X137450000Y-85000000D03*
X132050000Y-85000000D03*
D36*
X158250000Y-106725000D03*
X158250000Y-108775000D03*
D19*
X157750000Y-85050000D03*
X156750000Y-86050000D03*
D35*
X147450000Y-85000000D03*
X142050000Y-85000000D03*
D33*
X131000000Y-103000000D03*
X133000000Y-103000000D03*
D37*
X149775000Y-107450000D03*
X151725000Y-107450000D03*
D19*
X157750000Y-95500000D03*
X157750000Y-96500000D03*
D38*
X107670000Y-109175000D03*
X107670000Y-117825000D03*
D39*
X103500000Y-109175000D03*
X103500000Y-117825000D03*
D19*
X157750000Y-93550000D03*
D26*
X116512500Y-114565000D03*
X119487500Y-114565000D03*
D37*
X136525000Y-105850000D03*
X138475000Y-105850000D03*
D33*
X146050000Y-113700000D03*
X148050000Y-113700000D03*
D15*
X149000000Y-120500000D03*
X150250000Y-120500000D03*
X151500000Y-120500000D03*
X152750000Y-120500000D03*
X154000000Y-120500000D03*
X155250000Y-120500000D03*
D16*
X146450000Y-123250000D03*
X157800000Y-123250000D03*
D33*
X110550000Y-112700000D03*
X112550000Y-112700000D03*
D40*
X133025000Y-93000000D03*
X130975000Y-93000000D03*
D25*
X161700000Y-90150000D03*
X161700000Y-88075000D03*
D35*
X117450000Y-85000000D03*
X112050000Y-85000000D03*
D19*
X156750000Y-95500000D03*
D41*
X153750000Y-109850000D03*
X153750000Y-106975000D03*
D35*
X122050000Y-85000000D03*
X127450000Y-85000000D03*
D20*
X178500000Y-107250000D03*
D24*
X136462500Y-111350000D03*
X138537500Y-111350000D03*
D42*
X109740000Y-107150000D03*
X111010000Y-107150000D03*
X112280000Y-107150000D03*
X113550000Y-107150000D03*
X114820000Y-107150000D03*
X116090000Y-107150000D03*
X117360000Y-107150000D03*
X118630000Y-107150000D03*
X119900000Y-107150000D03*
X121170000Y-107150000D03*
X122440000Y-107150000D03*
X123710000Y-107150000D03*
X124980000Y-107150000D03*
X126250000Y-107150000D03*
D43*
X127500000Y-105385000D03*
X127500000Y-104115000D03*
X127500000Y-102845000D03*
X127500000Y-101575000D03*
X127500000Y-100305000D03*
X127500000Y-99035000D03*
X127500000Y-97765000D03*
X127500000Y-96495000D03*
X127500000Y-95225000D03*
X127500000Y-93955000D03*
X127500000Y-92685000D03*
X127500000Y-91415000D03*
D42*
X126250000Y-89650000D03*
X124980000Y-89650000D03*
X123710000Y-89650000D03*
X122440000Y-89650000D03*
X121170000Y-89650000D03*
X119900000Y-89650000D03*
X118630000Y-89650000D03*
X117360000Y-89650000D03*
X116090000Y-89650000D03*
X114820000Y-89650000D03*
X113550000Y-89650000D03*
X112280000Y-89650000D03*
X111010000Y-89650000D03*
X109740000Y-89650000D03*
D44*
X116060000Y-101300000D03*
X117460000Y-101300000D03*
X118860000Y-101300000D03*
X118860000Y-101300000D03*
X116060000Y-99900000D03*
X116060000Y-99900000D03*
X117460000Y-99900000D03*
X118860000Y-99900000D03*
X116060000Y-98500000D03*
X117460000Y-98500000D03*
X118860000Y-98500000D03*
D19*
X156750000Y-94550000D03*
D33*
X131000000Y-99000000D03*
X133000000Y-99000000D03*
D37*
X136525000Y-107650000D03*
X138475000Y-107650000D03*
D40*
X133025000Y-101000000D03*
X130975000Y-101000000D03*
D33*
X131000000Y-95000000D03*
X133000000Y-95000000D03*
D22*
X103600000Y-85000000D03*
X104302944Y-83302944D03*
X104302944Y-86697056D03*
X106000000Y-82600000D03*
D23*
X106000000Y-85000000D03*
D22*
X106000000Y-87400000D03*
X107697056Y-83302944D03*
X107697056Y-86697056D03*
X108400000Y-85000000D03*
D20*
X178500000Y-109750000D03*
X178500000Y-114750000D03*
D19*
X155750000Y-95500000D03*
D45*
X134000000Y-111750000D03*
X134500000Y-111750000D03*
X135000000Y-111750000D03*
X135000000Y-110250000D03*
X134500000Y-110250000D03*
X134000000Y-110250000D03*
D46*
X112550000Y-114650000D03*
X110550000Y-114650000D03*
D37*
X136525000Y-109450000D03*
X138475000Y-109450000D03*
D19*
X157750000Y-88000000D03*
D30*
X161700000Y-92562500D03*
X161700000Y-94637500D03*
D47*
X132700000Y-108750000D03*
X132700000Y-106750000D03*
D19*
X155750000Y-87000000D03*
D20*
X178500000Y-112250000D03*
D22*
X103600000Y-122500000D03*
X104302944Y-120802944D03*
X104302944Y-124197056D03*
X106000000Y-120100000D03*
D23*
X106000000Y-122500000D03*
D22*
X106000000Y-124900000D03*
X107697056Y-120802944D03*
X107697056Y-124197056D03*
X108400000Y-122500000D03*
D19*
X156750000Y-85050000D03*
X155750000Y-86050000D03*
D48*
X112587500Y-116650000D03*
X110512500Y-116650000D03*
D19*
X157750000Y-87000000D03*
D49*
X146050000Y-111392250D03*
X146050000Y-107607750D03*
D19*
X155750000Y-96500000D03*
D22*
X176100000Y-122500000D03*
X176802944Y-120802944D03*
X176802944Y-124197056D03*
X178500000Y-120100000D03*
D23*
X178500000Y-122500000D03*
D22*
X178500000Y-124900000D03*
X180197056Y-120802944D03*
X180197056Y-124197056D03*
X180900000Y-122500000D03*
D50*
X134412500Y-114150000D03*
X137112500Y-114150000D03*
D51*
X130500000Y-112525000D03*
X130500000Y-110575000D03*
D40*
X133025000Y-97000000D03*
X130975000Y-97000000D03*
D52*
X116950000Y-117600000D03*
X117500000Y-120450000D03*
D53*
X133500000Y-120500000D03*
X148500000Y-120450000D03*
D52*
X116075000Y-117600000D03*
X167750000Y-124750000D03*
X150250000Y-125500000D03*
X136250000Y-94000000D03*
X143750000Y-105250000D03*
X146750000Y-82750000D03*
X173250000Y-125500000D03*
X111250000Y-125500000D03*
X181500000Y-91500000D03*
X166094048Y-96378049D03*
X173250000Y-82000000D03*
X157250000Y-125500000D03*
X142250000Y-110250000D03*
X169594048Y-117378049D03*
X109250000Y-125500000D03*
X147500000Y-104750000D03*
X132750000Y-115750000D03*
X136250000Y-125500000D03*
X117100000Y-96400000D03*
X109750000Y-124750000D03*
X131094048Y-106878049D03*
X134250000Y-82000000D03*
X168750000Y-82750000D03*
X112250000Y-82000000D03*
X138750000Y-117250000D03*
X161250000Y-125500000D03*
X142250000Y-82000000D03*
X131250000Y-82000000D03*
X134750000Y-124750000D03*
X132250000Y-116500000D03*
X142250000Y-112250000D03*
X148594048Y-117378049D03*
X136250000Y-116500000D03*
X173094048Y-117378049D03*
X139250000Y-82000000D03*
X153250000Y-82000000D03*
X143000000Y-114750000D03*
X141500000Y-109750000D03*
X109250000Y-82000000D03*
X176600000Y-99900000D03*
X169594048Y-85878049D03*
X103000000Y-107700000D03*
X160750000Y-82750000D03*
X124250000Y-82000000D03*
X132750000Y-82750000D03*
X131250000Y-125500000D03*
X161750000Y-124750000D03*
X114250000Y-82000000D03*
X117750000Y-82750000D03*
X119250000Y-125500000D03*
X141500000Y-106750000D03*
X143750000Y-82750000D03*
X180750000Y-97000000D03*
X144500000Y-104750000D03*
X149000000Y-104750000D03*
X172750000Y-124750000D03*
X120594048Y-96378049D03*
X166050000Y-85900000D03*
X155750000Y-124750000D03*
X169750000Y-124750000D03*
X111750000Y-82750000D03*
D19*
X135250000Y-112500000D03*
D52*
X165750000Y-124750000D03*
X168250000Y-125500000D03*
X142250000Y-125500000D03*
X113250000Y-125500000D03*
X144250000Y-82000000D03*
X126250000Y-125500000D03*
X162594048Y-120878049D03*
X103750000Y-114000000D03*
X174750000Y-82750000D03*
X169250000Y-125500000D03*
X125750000Y-82750000D03*
X150750000Y-82750000D03*
X152094048Y-117378049D03*
X181500000Y-96500000D03*
X141250000Y-82000000D03*
X110094048Y-96378049D03*
X157250000Y-82000000D03*
X164750000Y-82750000D03*
X151750000Y-82750000D03*
X147250000Y-125500000D03*
X147250000Y-82000000D03*
X145750000Y-82750000D03*
X137250000Y-125500000D03*
X181500000Y-100500000D03*
X139250000Y-125500000D03*
X120250000Y-125500000D03*
X111750000Y-124750000D03*
X181500000Y-113500000D03*
X180750000Y-113000000D03*
X103000000Y-113500000D03*
X154750000Y-82750000D03*
X144750000Y-82750000D03*
X137250000Y-82000000D03*
X129250000Y-125500000D03*
X181500000Y-108500000D03*
X117250000Y-82000000D03*
X140250000Y-82000000D03*
X170250000Y-82000000D03*
X134250000Y-116500000D03*
X162750000Y-124750000D03*
X180750000Y-119000000D03*
X180750000Y-106000000D03*
X180750000Y-109000000D03*
X113250000Y-82000000D03*
X117750000Y-124750000D03*
X180750000Y-99000000D03*
X149000000Y-105750000D03*
X128750000Y-82750000D03*
X123250000Y-125500000D03*
X130250000Y-125500000D03*
X163750000Y-124750000D03*
X152250000Y-125500000D03*
X181500000Y-104500000D03*
X159094048Y-113878049D03*
X181500000Y-92500000D03*
X173100000Y-99900000D03*
X158250000Y-82000000D03*
X141750000Y-82750000D03*
X143000000Y-115750000D03*
X161250000Y-82000000D03*
X151250000Y-82000000D03*
X172750000Y-82750000D03*
X159250000Y-125500000D03*
X170250000Y-125500000D03*
X127250000Y-82000000D03*
X137750000Y-124750000D03*
X181500000Y-109500000D03*
X155594048Y-113878049D03*
X156250000Y-125500000D03*
X143000000Y-104750000D03*
X128250000Y-125500000D03*
X146250000Y-82000000D03*
X141500000Y-107750000D03*
X171250000Y-125500000D03*
X180750000Y-107000000D03*
X111250000Y-82000000D03*
X141500000Y-113750000D03*
X181500000Y-98500000D03*
X149750000Y-124750000D03*
X141500000Y-114750000D03*
X180750000Y-116000000D03*
X151250000Y-125500000D03*
X173750000Y-82750000D03*
X174750000Y-124750000D03*
X142250000Y-106250000D03*
X153750000Y-82750000D03*
X176600000Y-103400000D03*
X181500000Y-105500000D03*
X180750000Y-102000000D03*
X180750000Y-93000000D03*
X124250000Y-125500000D03*
X180750000Y-111000000D03*
X180750000Y-103000000D03*
X146250000Y-125500000D03*
X132750000Y-117250000D03*
X180750000Y-101000000D03*
X119025000Y-105550000D03*
X103000000Y-115500000D03*
X127750000Y-82750000D03*
X136750000Y-82750000D03*
X180750000Y-90000000D03*
X143750000Y-115250000D03*
X152250000Y-82000000D03*
X113600000Y-96350000D03*
X117094048Y-92878049D03*
X133750000Y-124750000D03*
X139250000Y-113500000D03*
X110100000Y-92900000D03*
X121800000Y-109000000D03*
X138750000Y-114250000D03*
X113600000Y-120900000D03*
X138250000Y-116500000D03*
X138750000Y-82750000D03*
X142250000Y-105250000D03*
X169594048Y-120878049D03*
X181500000Y-106500000D03*
X162250000Y-125500000D03*
X114250000Y-125500000D03*
X159750000Y-82750000D03*
X143250000Y-82000000D03*
X103000000Y-116500000D03*
X180750000Y-117000000D03*
X124750000Y-82750000D03*
X139750000Y-82750000D03*
X159094048Y-103378049D03*
X119750000Y-118750000D03*
X180750000Y-100000000D03*
X181500000Y-97500000D03*
X156250000Y-82000000D03*
X181500000Y-111500000D03*
X128500000Y-110500000D03*
X154250000Y-125500000D03*
X143250000Y-125500000D03*
X103000000Y-112500000D03*
X142250000Y-113250000D03*
X173094048Y-85878049D03*
X138250000Y-125500000D03*
X145250000Y-82000000D03*
X132250000Y-125500000D03*
X135750000Y-82750000D03*
X144500000Y-105750000D03*
X136750000Y-117250000D03*
X130250000Y-82000000D03*
X166094048Y-92878049D03*
X171750000Y-124750000D03*
X155250000Y-82000000D03*
X153750000Y-124750000D03*
X175250000Y-125500000D03*
X151750000Y-124750000D03*
X135250000Y-125500000D03*
X170750000Y-124750000D03*
X170750000Y-82750000D03*
X166094048Y-103378049D03*
X146750000Y-105250000D03*
X115750000Y-82750000D03*
X180750000Y-104000000D03*
X124094048Y-96378049D03*
X181500000Y-114500000D03*
X103000000Y-114500000D03*
X116250000Y-82000000D03*
X117100000Y-103400000D03*
X133250000Y-116500000D03*
X114750000Y-82750000D03*
X180750000Y-118000000D03*
X103000000Y-111500000D03*
X121750000Y-124750000D03*
X174250000Y-82000000D03*
D53*
X167112500Y-108750000D03*
D52*
X166750000Y-124750000D03*
X120600000Y-103400000D03*
X138800000Y-122650000D03*
X152750000Y-124750000D03*
X162594048Y-113878049D03*
X173094048Y-96378049D03*
X176594048Y-117378049D03*
X164250000Y-125500000D03*
X171250000Y-82000000D03*
X180750000Y-112000000D03*
X181500000Y-93500000D03*
X135750000Y-117250000D03*
X118250000Y-82000000D03*
X103750000Y-115000000D03*
X176594048Y-89378049D03*
X155750000Y-82750000D03*
X166094048Y-117378049D03*
X168250000Y-82000000D03*
X103750000Y-112000000D03*
X163250000Y-125500000D03*
X136750000Y-124750000D03*
X181500000Y-88500000D03*
X134750000Y-117250000D03*
X167250000Y-82000000D03*
X103000000Y-110500000D03*
X131750000Y-117250000D03*
X146000000Y-104750000D03*
X132250000Y-82000000D03*
X141500000Y-108750000D03*
X116250000Y-125500000D03*
X135250000Y-82000000D03*
X181500000Y-94500000D03*
X180750000Y-95000000D03*
X155250000Y-125500000D03*
X181500000Y-107500000D03*
X138750000Y-112750000D03*
X166750000Y-82750000D03*
X103750000Y-111000000D03*
X119250000Y-82000000D03*
X180750000Y-91000000D03*
X158750000Y-82750000D03*
X139750000Y-124750000D03*
X135750000Y-124750000D03*
X103750000Y-116000000D03*
X161750000Y-82750000D03*
X156750000Y-82750000D03*
X181500000Y-103500000D03*
X138750000Y-124750000D03*
X160250000Y-125500000D03*
X150250000Y-82000000D03*
X103750000Y-113000000D03*
X110250000Y-82000000D03*
X176594048Y-92878049D03*
X142250000Y-109250000D03*
X133250000Y-82000000D03*
X122750000Y-124750000D03*
X157750000Y-82750000D03*
X118750000Y-124750000D03*
X166250000Y-125500000D03*
X132750000Y-114250000D03*
X181500000Y-115500000D03*
X175250000Y-82000000D03*
X165250000Y-125500000D03*
X181500000Y-89500000D03*
X113594048Y-99878049D03*
X110750000Y-124750000D03*
X165250000Y-82000000D03*
X149250000Y-125500000D03*
X167250000Y-125500000D03*
X142250000Y-115250000D03*
X163250000Y-82000000D03*
X127250000Y-125500000D03*
X150750000Y-124750000D03*
X109750000Y-82750000D03*
X141500000Y-111750000D03*
X142250000Y-108250000D03*
X141500000Y-105750000D03*
X133250000Y-125500000D03*
X165750000Y-82750000D03*
X120750000Y-124750000D03*
X162594048Y-117378049D03*
X180750000Y-89000000D03*
X125250000Y-125500000D03*
X159250000Y-82000000D03*
X118250000Y-125500000D03*
X134250000Y-125500000D03*
X112250000Y-125500000D03*
X162250000Y-82000000D03*
X180750000Y-105000000D03*
X181500000Y-95500000D03*
X129750000Y-82750000D03*
X149750000Y-82750000D03*
X117250000Y-125500000D03*
X148250000Y-82000000D03*
X172250000Y-82000000D03*
X122750000Y-82750000D03*
X180750000Y-98000000D03*
X162750000Y-82750000D03*
X180750000Y-114000000D03*
X139750000Y-114250000D03*
X159750000Y-124750000D03*
X169250000Y-82000000D03*
X180750000Y-110000000D03*
X141500000Y-115750000D03*
X148750000Y-124750000D03*
X140250000Y-125500000D03*
X121750000Y-82750000D03*
X144250000Y-125500000D03*
X147750000Y-82750000D03*
X120750000Y-82750000D03*
X140750000Y-82750000D03*
X146000000Y-105750000D03*
X173094048Y-92878049D03*
X141500000Y-104750000D03*
X130750000Y-82750000D03*
X180750000Y-108000000D03*
X160750000Y-124750000D03*
X168750000Y-124750000D03*
X144338809Y-122661191D03*
X122250000Y-125500000D03*
X113600000Y-92850000D03*
X121250000Y-82000000D03*
X181500000Y-119500000D03*
X166094048Y-120878049D03*
X142750000Y-82750000D03*
X110250000Y-125500000D03*
X158250000Y-125500000D03*
X142250000Y-107250000D03*
X169594048Y-96378049D03*
X139250000Y-115000000D03*
X137750000Y-82750000D03*
X181500000Y-90500000D03*
X139750000Y-112750000D03*
X154750000Y-124750000D03*
X132250000Y-115000000D03*
X125250000Y-82000000D03*
X180750000Y-92000000D03*
X123250000Y-82000000D03*
X167750000Y-82750000D03*
X112750000Y-124750000D03*
X173094048Y-120878049D03*
X126250000Y-82000000D03*
X110750000Y-82750000D03*
X110094048Y-120878049D03*
X131750000Y-114250000D03*
X148500000Y-90500000D03*
X112750000Y-82750000D03*
X139750000Y-117250000D03*
X116750000Y-82750000D03*
X169594048Y-103378049D03*
X169750000Y-82750000D03*
X155594048Y-117378049D03*
X141500000Y-112750000D03*
X159094048Y-117378049D03*
X164750000Y-124750000D03*
X139750000Y-115750000D03*
X154250000Y-82000000D03*
X124750000Y-124750000D03*
X123750000Y-124750000D03*
X113750000Y-82750000D03*
X166250000Y-82000000D03*
X134750000Y-82750000D03*
X164250000Y-82000000D03*
X122250000Y-82000000D03*
X110094048Y-99878049D03*
X133750000Y-82750000D03*
X171750000Y-82750000D03*
X120250000Y-82000000D03*
X143000000Y-105750000D03*
X181500000Y-112500000D03*
X142250000Y-111250000D03*
X115250000Y-82000000D03*
X138250000Y-82000000D03*
X160250000Y-82000000D03*
X180750000Y-96000000D03*
X123750000Y-82750000D03*
X172250000Y-125500000D03*
X141250000Y-125500000D03*
X148250000Y-125500000D03*
X163750000Y-82750000D03*
X148250000Y-105250000D03*
X136250000Y-82000000D03*
X131750000Y-82750000D03*
X155594048Y-106878049D03*
X126750000Y-82750000D03*
X181500000Y-116500000D03*
X173750000Y-124750000D03*
X181500000Y-101500000D03*
X147500000Y-105750000D03*
X181500000Y-110500000D03*
X124500000Y-122750000D03*
X121250000Y-125500000D03*
X133750000Y-117250000D03*
X135250000Y-116500000D03*
X119750000Y-82750000D03*
X145250000Y-105250000D03*
X119750000Y-124750000D03*
X152750000Y-82750000D03*
X181500000Y-102500000D03*
X169594048Y-92878049D03*
X137250000Y-116500000D03*
X128250000Y-82000000D03*
X181500000Y-99500000D03*
X142250000Y-114250000D03*
X181500000Y-117500000D03*
X131750000Y-115750000D03*
X180750000Y-94000000D03*
X176594048Y-96378049D03*
X180750000Y-115000000D03*
X145250000Y-125500000D03*
X115250000Y-125500000D03*
X149250000Y-82000000D03*
X141500000Y-110750000D03*
X129250000Y-82000000D03*
X153250000Y-125500000D03*
X138750000Y-115750000D03*
X181500000Y-118500000D03*
X118750000Y-82750000D03*
X139250000Y-116500000D03*
X137750000Y-117250000D03*
X148750000Y-82750000D03*
X174250000Y-125500000D03*
D53*
X136000000Y-106500000D03*
D52*
X124100000Y-103400000D03*
X136250000Y-97000000D03*
D19*
X151952080Y-95399850D03*
D52*
X140659769Y-122621534D03*
X133724999Y-123250000D03*
X148000000Y-83933058D03*
D53*
X154250000Y-103750000D03*
X136500000Y-105750000D03*
D52*
X154050000Y-122700000D03*
X136250000Y-84250000D03*
X144000000Y-90500000D03*
X119200000Y-123750000D03*
D53*
X110950000Y-109000000D03*
X178500000Y-107250000D03*
D19*
X151937500Y-86881250D03*
D52*
X139500000Y-90500000D03*
D53*
X137000000Y-106500000D03*
X146250000Y-114500000D03*
X123700000Y-116800000D03*
X145250000Y-114500000D03*
X123200000Y-117550000D03*
X145750000Y-115250000D03*
X122700000Y-116800000D03*
D19*
X158750000Y-86875000D03*
X158761347Y-95325000D03*
D53*
X114850000Y-111750000D03*
X113150000Y-114650000D03*
X113000000Y-85000000D03*
D52*
X112250000Y-109000000D03*
X126500000Y-85000000D03*
D19*
X151937500Y-84781241D03*
D52*
X118630000Y-88750000D03*
X121200000Y-88800000D03*
D19*
X151937500Y-94000000D03*
X151937500Y-85481244D03*
D53*
X154000000Y-89850000D03*
D19*
X151937500Y-84081238D03*
D52*
X116100000Y-88750000D03*
D53*
X155500000Y-89850000D03*
D52*
X122450000Y-90450000D03*
D19*
X151937500Y-86181247D03*
X151937500Y-94700000D03*
X151937500Y-88350000D03*
X151937500Y-96800000D03*
D52*
X119900000Y-90500000D03*
D19*
X151937500Y-92599994D03*
D53*
X136250000Y-96000000D03*
X158312634Y-97979006D03*
X136250000Y-95000000D03*
X155000000Y-98000000D03*
D19*
X151937500Y-93299997D03*
D52*
X117350000Y-90500000D03*
X123700000Y-109000000D03*
X118650000Y-122100000D03*
X120950000Y-109000000D03*
X135337500Y-122662500D03*
X149650000Y-122700000D03*
X122700000Y-109000000D03*
X137000000Y-122675000D03*
X121100000Y-122100000D03*
X151850000Y-122700000D03*
X113507824Y-109000000D03*
X119900000Y-109000000D03*
X114750000Y-109000000D03*
X118650000Y-109000000D03*
X117350000Y-109000000D03*
X116100000Y-109000000D03*
X112250000Y-90500000D03*
X128850000Y-102850000D03*
X128850000Y-101550000D03*
D53*
X178500000Y-112250000D03*
D52*
X136250000Y-99000000D03*
X128850000Y-100250000D03*
X136250000Y-98000000D03*
X128850000Y-99000000D03*
D53*
X178500000Y-109750000D03*
D52*
X124950000Y-90450000D03*
D53*
X178500000Y-114750000D03*
D52*
X115200000Y-110750000D03*
X115200000Y-112700000D03*
X111800000Y-110800000D03*
X111800000Y-112700000D03*
D19*
X151937500Y-87581253D03*
X151943467Y-96100000D03*
D53*
X161087500Y-88750000D03*
X162337500Y-88750000D03*
X155250000Y-111250000D03*
X154500000Y-110750000D03*
X161087500Y-97000000D03*
X155250000Y-110250000D03*
X162337500Y-97000000D03*
X158250000Y-109750000D03*
X109362500Y-115850000D03*
M02*
