G04 #@! TF.GenerationSoftware,KiCad,Pcbnew,8.0.4*
G04 #@! TF.CreationDate,2024-09-24T15:17:15+02:00*
G04 #@! TF.ProjectId,SUMEC_MK_IV,53554d45-435f-44d4-9b5f-49562e6b6963,v2.1.1*
G04 #@! TF.SameCoordinates,Original*
G04 #@! TF.FileFunction,Copper,L3,Inr*
G04 #@! TF.FilePolarity,Positive*
%FSLAX46Y46*%
G04 Gerber Fmt 4.6, Leading zero omitted, Abs format (unit mm)*
G04 Created by KiCad (PCBNEW 8.0.4) date 2024-09-24 15:17:15*
%MOMM*%
%LPD*%
G01*
G04 APERTURE LIST*
G04 Aperture macros list*
%AMRoundRect*
0 Rectangle with rounded corners*
0 $1 Rounding radius*
0 $2 $3 $4 $5 $6 $7 $8 $9 X,Y pos of 4 corners*
0 Add a 4 corners polygon primitive as box body*
4,1,4,$2,$3,$4,$5,$6,$7,$8,$9,$2,$3,0*
0 Add four circle primitives for the rounded corners*
1,1,$1+$1,$2,$3*
1,1,$1+$1,$4,$5*
1,1,$1+$1,$6,$7*
1,1,$1+$1,$8,$9*
0 Add four rect primitives between the rounded corners*
20,1,$1+$1,$2,$3,$4,$5,0*
20,1,$1+$1,$4,$5,$6,$7,0*
20,1,$1+$1,$6,$7,$8,$9,0*
20,1,$1+$1,$8,$9,$2,$3,0*%
G04 Aperture macros list end*
G04 #@! TA.AperFunction,HeatsinkPad*
%ADD10C,0.500000*%
G04 #@! TD*
G04 #@! TA.AperFunction,ComponentPad*
%ADD11C,0.500000*%
G04 #@! TD*
G04 #@! TA.AperFunction,ComponentPad*
%ADD12R,1.000000X1.000000*%
G04 #@! TD*
G04 #@! TA.AperFunction,ComponentPad*
%ADD13RoundRect,0.250000X-0.250000X0.250000X-0.250000X-0.250000X0.250000X-0.250000X0.250000X0.250000X0*%
G04 #@! TD*
G04 #@! TA.AperFunction,ComponentPad*
%ADD14C,0.800000*%
G04 #@! TD*
G04 #@! TA.AperFunction,ComponentPad*
%ADD15C,6.400000*%
G04 #@! TD*
G04 #@! TA.AperFunction,ComponentPad*
%ADD16C,2.550000*%
G04 #@! TD*
G04 #@! TA.AperFunction,ComponentPad*
%ADD17R,2.550000X2.550000*%
G04 #@! TD*
G04 #@! TA.AperFunction,ComponentPad*
%ADD18C,1.508000*%
G04 #@! TD*
G04 #@! TA.AperFunction,ComponentPad*
%ADD19RoundRect,0.250200X-0.649800X-0.649800X0.649800X-0.649800X0.649800X0.649800X-0.649800X0.649800X0*%
G04 #@! TD*
G04 #@! TA.AperFunction,ComponentPad*
%ADD20C,1.800000*%
G04 #@! TD*
G04 #@! TA.AperFunction,ComponentPad*
%ADD21O,2.000000X0.900000*%
G04 #@! TD*
G04 #@! TA.AperFunction,ComponentPad*
%ADD22O,1.700000X0.900000*%
G04 #@! TD*
G04 #@! TA.AperFunction,ViaPad*
%ADD23C,0.600000*%
G04 #@! TD*
G04 #@! TA.AperFunction,ViaPad*
%ADD24C,0.700000*%
G04 #@! TD*
G04 #@! TA.AperFunction,ViaPad*
%ADD25C,0.500000*%
G04 #@! TD*
G04 #@! TA.AperFunction,Conductor*
%ADD26C,0.250000*%
G04 #@! TD*
G04 #@! TA.AperFunction,Conductor*
%ADD27C,0.450000*%
G04 #@! TD*
G04 APERTURE END LIST*
D10*
X149960000Y-109922500D03*
X149960000Y-111102500D03*
X151140000Y-109922500D03*
X151140000Y-111102500D03*
D11*
X157750000Y-86050000D03*
X155750000Y-85050000D03*
X157750000Y-94550000D03*
D12*
X171250000Y-106250000D03*
D13*
X168750000Y-106250000D03*
X166250000Y-106250000D03*
D11*
X155750000Y-88000000D03*
X156750000Y-93550000D03*
D14*
X176100000Y-85000000D03*
X176802944Y-83302944D03*
X176802944Y-86697056D03*
X178500000Y-82600000D03*
D15*
X178500000Y-85000000D03*
D14*
X178500000Y-87400000D03*
X180197056Y-83302944D03*
X180197056Y-86697056D03*
X180900000Y-85000000D03*
D11*
X156750000Y-88000000D03*
X155750000Y-93550000D03*
X156750000Y-96500000D03*
D16*
X165500000Y-113500000D03*
D17*
X170500000Y-113500000D03*
D18*
X162500000Y-123500000D03*
X173500000Y-123500000D03*
D11*
X155750000Y-94550000D03*
D19*
X167210000Y-90250000D03*
D20*
X169750000Y-90250000D03*
X172290000Y-90250000D03*
D11*
X156750000Y-87000000D03*
X157750000Y-85050000D03*
X156750000Y-86050000D03*
X157750000Y-95500000D03*
X157750000Y-96500000D03*
D21*
X107670000Y-109175000D03*
X107670000Y-117825000D03*
D22*
X103500000Y-109175000D03*
X103500000Y-117825000D03*
D11*
X157750000Y-93550000D03*
X156750000Y-95500000D03*
X156750000Y-94550000D03*
D14*
X103600000Y-85000000D03*
X104302944Y-83302944D03*
X104302944Y-86697056D03*
X106000000Y-82600000D03*
D15*
X106000000Y-85000000D03*
D14*
X106000000Y-87400000D03*
X107697056Y-83302944D03*
X107697056Y-86697056D03*
X108400000Y-85000000D03*
D11*
X155750000Y-95500000D03*
X157750000Y-88000000D03*
X155750000Y-87000000D03*
D14*
X103600000Y-122500000D03*
X104302944Y-120802944D03*
X104302944Y-124197056D03*
X106000000Y-120100000D03*
D15*
X106000000Y-122500000D03*
D14*
X106000000Y-124900000D03*
X107697056Y-120802944D03*
X107697056Y-124197056D03*
X108400000Y-122500000D03*
D11*
X156750000Y-85050000D03*
X155750000Y-86050000D03*
X157750000Y-87000000D03*
X155750000Y-96500000D03*
D14*
X176100000Y-122500000D03*
X176802944Y-120802944D03*
X176802944Y-124197056D03*
X178500000Y-120100000D03*
D15*
X178500000Y-122500000D03*
D14*
X178500000Y-124900000D03*
X180197056Y-120802944D03*
X180197056Y-124197056D03*
X180900000Y-122500000D03*
D23*
X116950000Y-117600000D03*
X117500000Y-120450000D03*
D24*
X133500000Y-120500000D03*
X148500000Y-120450000D03*
D23*
X116075000Y-117600000D03*
X167750000Y-124750000D03*
X150250000Y-125500000D03*
X136250000Y-94000000D03*
X143750000Y-105250000D03*
X146750000Y-82750000D03*
X173250000Y-125500000D03*
X111250000Y-125500000D03*
X181500000Y-91500000D03*
X166094048Y-96378049D03*
X173250000Y-82000000D03*
X157250000Y-125500000D03*
X142250000Y-110250000D03*
X169594048Y-117378049D03*
X109250000Y-125500000D03*
X147500000Y-104750000D03*
X132750000Y-115750000D03*
X136250000Y-125500000D03*
X117100000Y-96400000D03*
X109750000Y-124750000D03*
X131094048Y-106878049D03*
X134250000Y-82000000D03*
X168750000Y-82750000D03*
X112250000Y-82000000D03*
X138750000Y-117250000D03*
X161250000Y-125500000D03*
X142250000Y-82000000D03*
X131250000Y-82000000D03*
X134750000Y-124750000D03*
X132250000Y-116500000D03*
X142250000Y-112250000D03*
X148594048Y-117378049D03*
X136250000Y-116500000D03*
X173094048Y-117378049D03*
X139250000Y-82000000D03*
X153250000Y-82000000D03*
X143000000Y-114750000D03*
X141500000Y-109750000D03*
X109250000Y-82000000D03*
X176600000Y-99900000D03*
X169594048Y-85878049D03*
X103000000Y-107700000D03*
X160750000Y-82750000D03*
X124250000Y-82000000D03*
X132750000Y-82750000D03*
X131250000Y-125500000D03*
X161750000Y-124750000D03*
X114250000Y-82000000D03*
X117750000Y-82750000D03*
X119250000Y-125500000D03*
X141500000Y-106750000D03*
X143750000Y-82750000D03*
X180750000Y-97000000D03*
X144500000Y-104750000D03*
X149000000Y-104750000D03*
X172750000Y-124750000D03*
X120594048Y-96378049D03*
X166050000Y-85900000D03*
X155750000Y-124750000D03*
X169750000Y-124750000D03*
X111750000Y-82750000D03*
D25*
X135250000Y-112500000D03*
D23*
X165750000Y-124750000D03*
X168250000Y-125500000D03*
X142250000Y-125500000D03*
X113250000Y-125500000D03*
X144250000Y-82000000D03*
X126250000Y-125500000D03*
X162594048Y-120878049D03*
X103750000Y-114000000D03*
X174750000Y-82750000D03*
X169250000Y-125500000D03*
X125750000Y-82750000D03*
X150750000Y-82750000D03*
X152094048Y-117378049D03*
X181500000Y-96500000D03*
X141250000Y-82000000D03*
X110094048Y-96378049D03*
X157250000Y-82000000D03*
X164750000Y-82750000D03*
X151750000Y-82750000D03*
X147250000Y-125500000D03*
X147250000Y-82000000D03*
X145750000Y-82750000D03*
X137250000Y-125500000D03*
X181500000Y-100500000D03*
X139250000Y-125500000D03*
X120250000Y-125500000D03*
X111750000Y-124750000D03*
X181500000Y-113500000D03*
X180750000Y-113000000D03*
X103000000Y-113500000D03*
X154750000Y-82750000D03*
X144750000Y-82750000D03*
X137250000Y-82000000D03*
X129250000Y-125500000D03*
X181500000Y-108500000D03*
X117250000Y-82000000D03*
X140250000Y-82000000D03*
X170250000Y-82000000D03*
X134250000Y-116500000D03*
X162750000Y-124750000D03*
X180750000Y-119000000D03*
X180750000Y-106000000D03*
X180750000Y-109000000D03*
X113250000Y-82000000D03*
X117750000Y-124750000D03*
X180750000Y-99000000D03*
X149000000Y-105750000D03*
X128750000Y-82750000D03*
X123250000Y-125500000D03*
X130250000Y-125500000D03*
X163750000Y-124750000D03*
X152250000Y-125500000D03*
X181500000Y-104500000D03*
X159094048Y-113878049D03*
X181500000Y-92500000D03*
X173100000Y-99900000D03*
X158250000Y-82000000D03*
X141750000Y-82750000D03*
X143000000Y-115750000D03*
X161250000Y-82000000D03*
X151250000Y-82000000D03*
X172750000Y-82750000D03*
X159250000Y-125500000D03*
X170250000Y-125500000D03*
X127250000Y-82000000D03*
X137750000Y-124750000D03*
X181500000Y-109500000D03*
X155594048Y-113878049D03*
X156250000Y-125500000D03*
X143000000Y-104750000D03*
X128250000Y-125500000D03*
X146250000Y-82000000D03*
X141500000Y-107750000D03*
X171250000Y-125500000D03*
X180750000Y-107000000D03*
X111250000Y-82000000D03*
X141500000Y-113750000D03*
X181500000Y-98500000D03*
X149750000Y-124750000D03*
X141500000Y-114750000D03*
X180750000Y-116000000D03*
X151250000Y-125500000D03*
X173750000Y-82750000D03*
X174750000Y-124750000D03*
X142250000Y-106250000D03*
X153750000Y-82750000D03*
X176600000Y-103400000D03*
X181500000Y-105500000D03*
X180750000Y-102000000D03*
X180750000Y-93000000D03*
X124250000Y-125500000D03*
X180750000Y-111000000D03*
X180750000Y-103000000D03*
X146250000Y-125500000D03*
X132750000Y-117250000D03*
X180750000Y-101000000D03*
X119025000Y-105550000D03*
X103000000Y-115500000D03*
X127750000Y-82750000D03*
X136750000Y-82750000D03*
X180750000Y-90000000D03*
X143750000Y-115250000D03*
X152250000Y-82000000D03*
X113600000Y-96350000D03*
X117094048Y-92878049D03*
X133750000Y-124750000D03*
X139250000Y-113500000D03*
X110100000Y-92900000D03*
X121800000Y-109000000D03*
X138750000Y-114250000D03*
X113600000Y-120900000D03*
X138250000Y-116500000D03*
X138750000Y-82750000D03*
X142250000Y-105250000D03*
X169594048Y-120878049D03*
X181500000Y-106500000D03*
X162250000Y-125500000D03*
X114250000Y-125500000D03*
X159750000Y-82750000D03*
X143250000Y-82000000D03*
X103000000Y-116500000D03*
X180750000Y-117000000D03*
X124750000Y-82750000D03*
X139750000Y-82750000D03*
X159094048Y-103378049D03*
X119750000Y-118750000D03*
X180750000Y-100000000D03*
X181500000Y-97500000D03*
X156250000Y-82000000D03*
X181500000Y-111500000D03*
X128500000Y-110500000D03*
X154250000Y-125500000D03*
X143250000Y-125500000D03*
X103000000Y-112500000D03*
X142250000Y-113250000D03*
X173094048Y-85878049D03*
X138250000Y-125500000D03*
X145250000Y-82000000D03*
X132250000Y-125500000D03*
X135750000Y-82750000D03*
X144500000Y-105750000D03*
X136750000Y-117250000D03*
X130250000Y-82000000D03*
X166094048Y-92878049D03*
X171750000Y-124750000D03*
X155250000Y-82000000D03*
X153750000Y-124750000D03*
X175250000Y-125500000D03*
X151750000Y-124750000D03*
X135250000Y-125500000D03*
X170750000Y-124750000D03*
X170750000Y-82750000D03*
X166094048Y-103378049D03*
X146750000Y-105250000D03*
X115750000Y-82750000D03*
X180750000Y-104000000D03*
X124094048Y-96378049D03*
X181500000Y-114500000D03*
X103000000Y-114500000D03*
X116250000Y-82000000D03*
X117100000Y-103400000D03*
X133250000Y-116500000D03*
X114750000Y-82750000D03*
X180750000Y-118000000D03*
X103000000Y-111500000D03*
X121750000Y-124750000D03*
X174250000Y-82000000D03*
D24*
X167112500Y-108750000D03*
D23*
X166750000Y-124750000D03*
X120600000Y-103400000D03*
X138800000Y-122650000D03*
X152750000Y-124750000D03*
X162594048Y-113878049D03*
X173094048Y-96378049D03*
X176594048Y-117378049D03*
X164250000Y-125500000D03*
X171250000Y-82000000D03*
X180750000Y-112000000D03*
X181500000Y-93500000D03*
X135750000Y-117250000D03*
X118250000Y-82000000D03*
X103750000Y-115000000D03*
X176594048Y-89378049D03*
X155750000Y-82750000D03*
X166094048Y-117378049D03*
X168250000Y-82000000D03*
X103750000Y-112000000D03*
X163250000Y-125500000D03*
X136750000Y-124750000D03*
X181500000Y-88500000D03*
X134750000Y-117250000D03*
X167250000Y-82000000D03*
X103000000Y-110500000D03*
X131750000Y-117250000D03*
X146000000Y-104750000D03*
X132250000Y-82000000D03*
X141500000Y-108750000D03*
X116250000Y-125500000D03*
X135250000Y-82000000D03*
X181500000Y-94500000D03*
X180750000Y-95000000D03*
X155250000Y-125500000D03*
X181500000Y-107500000D03*
X138750000Y-112750000D03*
X166750000Y-82750000D03*
X103750000Y-111000000D03*
X119250000Y-82000000D03*
X180750000Y-91000000D03*
X158750000Y-82750000D03*
X139750000Y-124750000D03*
X135750000Y-124750000D03*
X103750000Y-116000000D03*
X161750000Y-82750000D03*
X156750000Y-82750000D03*
X181500000Y-103500000D03*
X138750000Y-124750000D03*
X160250000Y-125500000D03*
X150250000Y-82000000D03*
X103750000Y-113000000D03*
X110250000Y-82000000D03*
X176594048Y-92878049D03*
X142250000Y-109250000D03*
X133250000Y-82000000D03*
X122750000Y-124750000D03*
X157750000Y-82750000D03*
X118750000Y-124750000D03*
X166250000Y-125500000D03*
X132750000Y-114250000D03*
X181500000Y-115500000D03*
X175250000Y-82000000D03*
X165250000Y-125500000D03*
X181500000Y-89500000D03*
X113594048Y-99878049D03*
X110750000Y-124750000D03*
X165250000Y-82000000D03*
X149250000Y-125500000D03*
X167250000Y-125500000D03*
X142250000Y-115250000D03*
X163250000Y-82000000D03*
X127250000Y-125500000D03*
X150750000Y-124750000D03*
X109750000Y-82750000D03*
X141500000Y-111750000D03*
X142250000Y-108250000D03*
X141500000Y-105750000D03*
X133250000Y-125500000D03*
X165750000Y-82750000D03*
X120750000Y-124750000D03*
X162594048Y-117378049D03*
X180750000Y-89000000D03*
X125250000Y-125500000D03*
X159250000Y-82000000D03*
X118250000Y-125500000D03*
X134250000Y-125500000D03*
X112250000Y-125500000D03*
X162250000Y-82000000D03*
X180750000Y-105000000D03*
X181500000Y-95500000D03*
X129750000Y-82750000D03*
X149750000Y-82750000D03*
X117250000Y-125500000D03*
X148250000Y-82000000D03*
X172250000Y-82000000D03*
X122750000Y-82750000D03*
X180750000Y-98000000D03*
X162750000Y-82750000D03*
X180750000Y-114000000D03*
X139750000Y-114250000D03*
X159750000Y-124750000D03*
X169250000Y-82000000D03*
X180750000Y-110000000D03*
X141500000Y-115750000D03*
X148750000Y-124750000D03*
X140250000Y-125500000D03*
X121750000Y-82750000D03*
X144250000Y-125500000D03*
X147750000Y-82750000D03*
X120750000Y-82750000D03*
X140750000Y-82750000D03*
X146000000Y-105750000D03*
X173094048Y-92878049D03*
X141500000Y-104750000D03*
X130750000Y-82750000D03*
X180750000Y-108000000D03*
X160750000Y-124750000D03*
X168750000Y-124750000D03*
X144338809Y-122661191D03*
X122250000Y-125500000D03*
X113600000Y-92850000D03*
X121250000Y-82000000D03*
X181500000Y-119500000D03*
X166094048Y-120878049D03*
X142750000Y-82750000D03*
X110250000Y-125500000D03*
X158250000Y-125500000D03*
X142250000Y-107250000D03*
X169594048Y-96378049D03*
X139250000Y-115000000D03*
X137750000Y-82750000D03*
X181500000Y-90500000D03*
X139750000Y-112750000D03*
X154750000Y-124750000D03*
X132250000Y-115000000D03*
X125250000Y-82000000D03*
X180750000Y-92000000D03*
X123250000Y-82000000D03*
X167750000Y-82750000D03*
X112750000Y-124750000D03*
X173094048Y-120878049D03*
X126250000Y-82000000D03*
X110750000Y-82750000D03*
X110094048Y-120878049D03*
X131750000Y-114250000D03*
X148500000Y-90500000D03*
X112750000Y-82750000D03*
X139750000Y-117250000D03*
X116750000Y-82750000D03*
X169594048Y-103378049D03*
X169750000Y-82750000D03*
X155594048Y-117378049D03*
X141500000Y-112750000D03*
X159094048Y-117378049D03*
X164750000Y-124750000D03*
X139750000Y-115750000D03*
X154250000Y-82000000D03*
X124750000Y-124750000D03*
X123750000Y-124750000D03*
X113750000Y-82750000D03*
X166250000Y-82000000D03*
X134750000Y-82750000D03*
X164250000Y-82000000D03*
X122250000Y-82000000D03*
X110094048Y-99878049D03*
X133750000Y-82750000D03*
X171750000Y-82750000D03*
X120250000Y-82000000D03*
X143000000Y-105750000D03*
X181500000Y-112500000D03*
X142250000Y-111250000D03*
X115250000Y-82000000D03*
X138250000Y-82000000D03*
X160250000Y-82000000D03*
X180750000Y-96000000D03*
X123750000Y-82750000D03*
X172250000Y-125500000D03*
X141250000Y-125500000D03*
X148250000Y-125500000D03*
X163750000Y-82750000D03*
X148250000Y-105250000D03*
X136250000Y-82000000D03*
X131750000Y-82750000D03*
X155594048Y-106878049D03*
X126750000Y-82750000D03*
X181500000Y-116500000D03*
X173750000Y-124750000D03*
X181500000Y-101500000D03*
X147500000Y-105750000D03*
X181500000Y-110500000D03*
X124500000Y-122750000D03*
X121250000Y-125500000D03*
X133750000Y-117250000D03*
X135250000Y-116500000D03*
X119750000Y-82750000D03*
X145250000Y-105250000D03*
X119750000Y-124750000D03*
X152750000Y-82750000D03*
X181500000Y-102500000D03*
X169594048Y-92878049D03*
X137250000Y-116500000D03*
X128250000Y-82000000D03*
X181500000Y-99500000D03*
X142250000Y-114250000D03*
X181500000Y-117500000D03*
X131750000Y-115750000D03*
X180750000Y-94000000D03*
X176594048Y-96378049D03*
X180750000Y-115000000D03*
X145250000Y-125500000D03*
X115250000Y-125500000D03*
X149250000Y-82000000D03*
X141500000Y-110750000D03*
X129250000Y-82000000D03*
X153250000Y-125500000D03*
X138750000Y-115750000D03*
X181500000Y-118500000D03*
X118750000Y-82750000D03*
X139250000Y-116500000D03*
X137750000Y-117250000D03*
X148750000Y-82750000D03*
X174250000Y-125500000D03*
D24*
X136000000Y-106500000D03*
D23*
X124100000Y-103400000D03*
X136250000Y-97000000D03*
D25*
X151952080Y-95399850D03*
D23*
X140659769Y-122621534D03*
X133724999Y-123250000D03*
X148000000Y-83933058D03*
D24*
X154250000Y-103750000D03*
X136500000Y-105750000D03*
D23*
X154050000Y-122700000D03*
X136250000Y-84250000D03*
X144000000Y-90500000D03*
X119200000Y-123750000D03*
D24*
X110950000Y-109000000D03*
X178500000Y-107250000D03*
D25*
X151937500Y-86881250D03*
D23*
X139500000Y-90500000D03*
D24*
X137000000Y-106500000D03*
X146250000Y-114500000D03*
X123700000Y-116800000D03*
X145250000Y-114500000D03*
X123200000Y-117550000D03*
X145750000Y-115250000D03*
X122700000Y-116800000D03*
D25*
X158750000Y-86875000D03*
X158761347Y-95325000D03*
D24*
X114850000Y-111750000D03*
X113150000Y-114650000D03*
X113000000Y-85000000D03*
D23*
X112250000Y-109000000D03*
X126500000Y-85000000D03*
D25*
X151937500Y-84781241D03*
D23*
X118630000Y-88750000D03*
X121200000Y-88800000D03*
D25*
X151937500Y-94000000D03*
X151937500Y-85481244D03*
D24*
X154000000Y-89850000D03*
D25*
X151937500Y-84081238D03*
D23*
X116100000Y-88750000D03*
D24*
X155500000Y-89850000D03*
D23*
X122450000Y-90450000D03*
D25*
X151937500Y-86181247D03*
X151937500Y-94700000D03*
X151937500Y-88350000D03*
X151937500Y-96800000D03*
D23*
X119900000Y-90500000D03*
D25*
X151937500Y-92599994D03*
D24*
X136250000Y-96000000D03*
X158312634Y-97979006D03*
X136250000Y-95000000D03*
X155000000Y-98000000D03*
D25*
X151937500Y-93299997D03*
D23*
X117350000Y-90500000D03*
X123700000Y-109000000D03*
X118650000Y-122100000D03*
X120950000Y-109000000D03*
X135337500Y-122662500D03*
X149650000Y-122700000D03*
X122700000Y-109000000D03*
X137000000Y-122675000D03*
X121100000Y-122100000D03*
X151850000Y-122700000D03*
X113507824Y-109000000D03*
X119900000Y-109000000D03*
X114750000Y-109000000D03*
X118650000Y-109000000D03*
X117350000Y-109000000D03*
X116100000Y-109000000D03*
X112250000Y-90500000D03*
X128850000Y-102850000D03*
X128850000Y-101550000D03*
D24*
X178500000Y-112250000D03*
D23*
X136250000Y-99000000D03*
X128850000Y-100250000D03*
X136250000Y-98000000D03*
X128850000Y-99000000D03*
D24*
X178500000Y-109750000D03*
D23*
X124950000Y-90450000D03*
D24*
X178500000Y-114750000D03*
D23*
X115200000Y-110750000D03*
X115200000Y-112700000D03*
X111800000Y-110800000D03*
X111800000Y-112700000D03*
D25*
X151937500Y-87581253D03*
X151943467Y-96100000D03*
D24*
X161087500Y-88750000D03*
X162337500Y-88750000D03*
X155250000Y-111250000D03*
X154500000Y-110750000D03*
X161087500Y-97000000D03*
X155250000Y-110250000D03*
X162337500Y-97000000D03*
X158250000Y-109750000D03*
X109362500Y-115850000D03*
D26*
X134750000Y-87500000D02*
X136000000Y-86250000D01*
X149602643Y-84781241D02*
X151937500Y-84781241D01*
X119880000Y-87500000D02*
X134750000Y-87500000D01*
X148133884Y-86250000D02*
X149602643Y-84781241D01*
X136000000Y-86250000D02*
X148133884Y-86250000D01*
X118630000Y-88750000D02*
X119880000Y-87500000D01*
X152050670Y-94000000D02*
X152750000Y-93300670D01*
X121500000Y-88500000D02*
X135250000Y-88500000D01*
X135250000Y-88500000D02*
X136500000Y-87250000D01*
X152750000Y-86180574D02*
X152050670Y-85481244D01*
X152050670Y-85481244D02*
X151937500Y-85481244D01*
X121200000Y-88800000D02*
X121500000Y-88500000D01*
X148250000Y-87250000D02*
X150018756Y-85481244D01*
X152750000Y-93300670D02*
X152750000Y-86180574D01*
X151937500Y-94000000D02*
X152050670Y-94000000D01*
X150018756Y-85481244D02*
X151937500Y-85481244D01*
X136500000Y-87250000D02*
X148250000Y-87250000D01*
X135500000Y-85250000D02*
X148000000Y-85250000D01*
X134250000Y-86500000D02*
X135500000Y-85250000D01*
X118350000Y-86500000D02*
X134250000Y-86500000D01*
X149168762Y-84081238D02*
X151937500Y-84081238D01*
X116100000Y-88750000D02*
X118350000Y-86500000D01*
X148000000Y-85250000D02*
X149168762Y-84081238D01*
X135750000Y-89500000D02*
X123400000Y-89500000D01*
X137000000Y-88250000D02*
X135750000Y-89500000D01*
X123400000Y-89500000D02*
X122450000Y-90450000D01*
X150568753Y-86181247D02*
X148500000Y-88250000D01*
X151937500Y-86181247D02*
X150568753Y-86181247D01*
X148500000Y-88250000D02*
X137000000Y-88250000D01*
X121650000Y-92250000D02*
X150562500Y-92250000D01*
X150912494Y-92599994D02*
X151937500Y-92599994D01*
X119900000Y-90500000D02*
X121650000Y-92250000D01*
X150562500Y-92250000D02*
X150912494Y-92599994D01*
D27*
X141025000Y-99025000D02*
X138000000Y-96000000D01*
X138000000Y-96000000D02*
X136250000Y-96000000D01*
X157266640Y-99025000D02*
X141025000Y-99025000D01*
X158312634Y-97979006D02*
X157266640Y-99025000D01*
X155000000Y-98000000D02*
X141375000Y-98000000D01*
X141375000Y-98000000D02*
X138375000Y-95000000D01*
X138375000Y-95000000D02*
X136250000Y-95000000D01*
D26*
X120149997Y-93299997D02*
X151937500Y-93299997D01*
X117350000Y-90500000D02*
X120149997Y-93299997D01*
X134050000Y-123950000D02*
X135337500Y-122662500D01*
X118650000Y-118622472D02*
X118650000Y-118502472D01*
X136625000Y-123950000D02*
X147033600Y-123950000D01*
X148233600Y-123950000D02*
X148400000Y-123950000D01*
X118650000Y-118181199D02*
X118650000Y-112100000D01*
X120950000Y-109800000D02*
X120950000Y-109000000D01*
X121000000Y-109000000D02*
X120950000Y-109000000D01*
X148113600Y-123950000D02*
X148233600Y-123950000D01*
X118210276Y-118862472D02*
X118410000Y-118862472D01*
X117970276Y-119222472D02*
X117970276Y-119102472D01*
X118650000Y-122100000D02*
X118650000Y-119702472D01*
X148712500Y-123637500D02*
X149650000Y-122700000D01*
X147873600Y-123595031D02*
X147873600Y-123710000D01*
X147513600Y-123355031D02*
X147633600Y-123355031D01*
X135337500Y-122662500D02*
X136625000Y-123950000D01*
X118650000Y-122100000D02*
X120500000Y-123950000D01*
X118410000Y-119462472D02*
X118210276Y-119462472D01*
X148400000Y-123950000D02*
X148712500Y-123637500D01*
X118650000Y-118502472D02*
X118650000Y-118181199D01*
X120500000Y-123950000D02*
X134050000Y-123950000D01*
X118650000Y-112100000D02*
X120950000Y-109800000D01*
X147273600Y-123710000D02*
X147273600Y-123595031D01*
X117970276Y-119102472D02*
G75*
G02*
X118210276Y-118862476I240024J-28D01*
G01*
X118410000Y-118862472D02*
G75*
G03*
X118649972Y-118622472I0J239972D01*
G01*
X147873600Y-123710000D02*
G75*
G03*
X148113600Y-123950000I240000J0D01*
G01*
X147633600Y-123355031D02*
G75*
G02*
X147873569Y-123595031I0J-239969D01*
G01*
X118210276Y-119462472D02*
G75*
G02*
X117970328Y-119222472I24J239972D01*
G01*
X147033600Y-123950000D02*
G75*
G03*
X147273600Y-123710000I0J240000D01*
G01*
X118650000Y-119702472D02*
G75*
G03*
X118410000Y-119462500I-240000J-28D01*
G01*
X147273600Y-123595031D02*
G75*
G02*
X147513600Y-123355000I240000J31D01*
G01*
X121100000Y-115714075D02*
X121100000Y-122100000D01*
X121100000Y-112150000D02*
X121100000Y-114039258D01*
X136877437Y-121635502D02*
X136588673Y-121924263D01*
X136588674Y-122263675D02*
X136673528Y-122348528D01*
X122700000Y-109000000D02*
X122700000Y-110550000D01*
X137000000Y-122675000D02*
X138175000Y-121500000D01*
X136164412Y-121500001D02*
X136453173Y-121211237D01*
X136792585Y-121211238D02*
X136877437Y-121296090D01*
X121100000Y-122100000D02*
X121700000Y-121500000D01*
X121684584Y-114879258D02*
X121340000Y-114879258D01*
X136750000Y-122425000D02*
X137000000Y-122675000D01*
X151284528Y-121625000D02*
X151454027Y-121794499D01*
X136673528Y-122348528D02*
X136750000Y-122425000D01*
X121924584Y-114519258D02*
X121924584Y-114639258D01*
X138175000Y-121500000D02*
X150650000Y-121500000D01*
X121100000Y-115119258D02*
X121100000Y-115239258D01*
X150650000Y-121500000D02*
X150775000Y-121625000D01*
X134950000Y-121500000D02*
X135600000Y-121500000D01*
X121340000Y-114279258D02*
X121684584Y-114279258D01*
X121100000Y-115239258D02*
X121100000Y-115714075D01*
X135600000Y-121500000D02*
X135825000Y-121500000D01*
X122700000Y-110550000D02*
X121100000Y-112150000D01*
X151454028Y-122304029D02*
X151623528Y-122473528D01*
X151623528Y-122473528D02*
X151850000Y-122700000D01*
X121700000Y-121500000D02*
X134950000Y-121500000D01*
X151454027Y-121794499D02*
G75*
G02*
X151454046Y-122049282I-127427J-127401D01*
G01*
X150775000Y-121625000D02*
G75*
G03*
X151029764Y-121625000I127382J127380D01*
G01*
X151029764Y-121625000D02*
G75*
G02*
X151284528Y-121625000I127382J-127387D01*
G01*
X121100000Y-114039258D02*
G75*
G03*
X121340000Y-114279300I240000J-42D01*
G01*
X136453173Y-121211237D02*
G75*
G02*
X136792607Y-121211216I169727J-169663D01*
G01*
X135825000Y-121500000D02*
G75*
G03*
X136164405Y-121499995I169700J169700D01*
G01*
X121340000Y-114879258D02*
G75*
G03*
X121099958Y-115119258I0J-240042D01*
G01*
X121924584Y-114639258D02*
G75*
G02*
X121684584Y-114879284I-239984J-42D01*
G01*
X151454028Y-122049265D02*
G75*
G03*
X151454075Y-122303982I127372J-127335D01*
G01*
X136877437Y-121296090D02*
G75*
G02*
X136877441Y-121635506I-169737J-169710D01*
G01*
X136588673Y-121924263D02*
G75*
G03*
X136588642Y-122263706I169727J-169737D01*
G01*
X121684584Y-114279258D02*
G75*
G02*
X121924642Y-114519258I16J-240042D01*
G01*
X139125000Y-101000000D02*
X170750000Y-101000000D01*
X175500000Y-109250000D02*
X178500000Y-112250000D01*
X175500000Y-105750000D02*
X175500000Y-109250000D01*
X136250000Y-99000000D02*
X137125000Y-99000000D01*
X170750000Y-101000000D02*
X175500000Y-105750000D01*
X137125000Y-99000000D02*
X139125000Y-101000000D01*
X139500000Y-100000000D02*
X171500000Y-100000000D01*
X176750000Y-108000000D02*
X178500000Y-109750000D01*
X137500000Y-98000000D02*
X139500000Y-100000000D01*
X176750000Y-105250000D02*
X176750000Y-108000000D01*
X136250000Y-98000000D02*
X137500000Y-98000000D01*
X171500000Y-100000000D02*
X176750000Y-105250000D01*
G04 #@! TA.AperFunction,Conductor*
G36*
X121878566Y-109200331D02*
G01*
X121930524Y-109247044D01*
X121943317Y-109275057D01*
X121966671Y-109349522D01*
X122059471Y-109645427D01*
X122068818Y-109675229D01*
X122074500Y-109712336D01*
X122074500Y-110239547D01*
X122054815Y-110306586D01*
X122038181Y-110327228D01*
X120614144Y-111751264D01*
X120614138Y-111751272D01*
X120545690Y-111853708D01*
X120545688Y-111853713D01*
X120519248Y-111917547D01*
X120519248Y-111917548D01*
X120498537Y-111967547D01*
X120498535Y-111967553D01*
X120486517Y-112027968D01*
X120486518Y-112027969D01*
X120477265Y-112074494D01*
X120477263Y-112074502D01*
X120474500Y-112088389D01*
X120474500Y-114106500D01*
X120474530Y-114107131D01*
X120474527Y-114124393D01*
X120474528Y-114124397D01*
X120502811Y-114266704D01*
X120507765Y-114291627D01*
X120520423Y-114322197D01*
X120572991Y-114449157D01*
X120613889Y-114510380D01*
X120634759Y-114577060D01*
X120616267Y-114644438D01*
X120613875Y-114648159D01*
X120573053Y-114709240D01*
X120573052Y-114709242D01*
X120507794Y-114866729D01*
X120474513Y-115033914D01*
X120474511Y-115051552D01*
X120474500Y-115051780D01*
X120474500Y-115119170D01*
X120474486Y-115202572D01*
X120474500Y-115202799D01*
X120474500Y-121387662D01*
X120468818Y-121424768D01*
X120343692Y-121823746D01*
X120335344Y-121853528D01*
X120334347Y-121858809D01*
X120333783Y-121858702D01*
X120329349Y-121878684D01*
X120314631Y-121920748D01*
X120314630Y-121920751D01*
X120294435Y-122099996D01*
X120294435Y-122100003D01*
X120314630Y-122279249D01*
X120314631Y-122279251D01*
X120314631Y-122279253D01*
X120314632Y-122279255D01*
X120325962Y-122311634D01*
X120374211Y-122449523D01*
X120428125Y-122535326D01*
X120470184Y-122602262D01*
X120597738Y-122729816D01*
X120750478Y-122825789D01*
X120877846Y-122870357D01*
X120920745Y-122885368D01*
X120920750Y-122885369D01*
X121099996Y-122905565D01*
X121100000Y-122905565D01*
X121100004Y-122905565D01*
X121279249Y-122885369D01*
X121279252Y-122885368D01*
X121279255Y-122885368D01*
X121449522Y-122825789D01*
X121602262Y-122729816D01*
X121729816Y-122602262D01*
X121825789Y-122449522D01*
X121825792Y-122449510D01*
X121828435Y-122444024D01*
X121831822Y-122436209D01*
X121959388Y-122192074D01*
X122007881Y-122141773D01*
X122069289Y-122125500D01*
X134505150Y-122125500D01*
X134572189Y-122145185D01*
X134617944Y-122197989D01*
X134627888Y-122267147D01*
X134613569Y-122306139D01*
X134614734Y-122306701D01*
X134609071Y-122318459D01*
X134605679Y-122326280D01*
X134453135Y-122618220D01*
X134404642Y-122668522D01*
X134336653Y-122684620D01*
X134270752Y-122661405D01*
X134255553Y-122648476D01*
X134227261Y-122620184D01*
X134074522Y-122524211D01*
X133904253Y-122464631D01*
X133904248Y-122464630D01*
X133725003Y-122444435D01*
X133724995Y-122444435D01*
X133545749Y-122464630D01*
X133545744Y-122464631D01*
X133375475Y-122524211D01*
X133222736Y-122620184D01*
X133095183Y-122747737D01*
X132999210Y-122900476D01*
X132939630Y-123070745D01*
X132939629Y-123070750D01*
X132923447Y-123214383D01*
X132896381Y-123278797D01*
X132838786Y-123318352D01*
X132800227Y-123324500D01*
X120810452Y-123324500D01*
X120743413Y-123304815D01*
X120722771Y-123288181D01*
X119595995Y-122161405D01*
X119573775Y-122131149D01*
X119401144Y-121800766D01*
X119392727Y-121780447D01*
X119281182Y-121424769D01*
X119275500Y-121387663D01*
X119275500Y-119786022D01*
X119275509Y-119785859D01*
X119275508Y-119778350D01*
X119275509Y-119778348D01*
X119275506Y-119753792D01*
X119275532Y-119753701D01*
X119275527Y-119702399D01*
X119275528Y-119702399D01*
X119275519Y-119617158D01*
X119242242Y-119449956D01*
X119176988Y-119292457D01*
X119136164Y-119231370D01*
X119115281Y-119164696D01*
X119133760Y-119097314D01*
X119136155Y-119093588D01*
X119177029Y-119032407D01*
X119242263Y-118874878D01*
X119275510Y-118707650D01*
X119275500Y-118622399D01*
X119275500Y-118440866D01*
X119275500Y-118119593D01*
X119275500Y-112410451D01*
X119295185Y-112343412D01*
X119311814Y-112322775D01*
X121348729Y-110285860D01*
X121348733Y-110285858D01*
X121435858Y-110198733D01*
X121504311Y-110096286D01*
X121551463Y-109982452D01*
X121560569Y-109936670D01*
X121570968Y-109884393D01*
X121570968Y-109884388D01*
X121575500Y-109861607D01*
X121575500Y-109738393D01*
X121575500Y-109712336D01*
X121581182Y-109675232D01*
X121581183Y-109675229D01*
X121706307Y-109276254D01*
X121706316Y-109276221D01*
X121706681Y-109275058D01*
X121745524Y-109216981D01*
X121809601Y-109189124D01*
X121878566Y-109200331D01*
G37*
G04 #@! TD.AperFunction*
G04 #@! TA.AperFunction,Conductor*
G36*
X139877524Y-122145185D02*
G01*
X139923279Y-122197989D01*
X139933223Y-122267147D01*
X139927526Y-122290455D01*
X139874402Y-122442271D01*
X139874399Y-122442284D01*
X139854204Y-122621530D01*
X139854204Y-122621537D01*
X139874399Y-122800783D01*
X139874400Y-122800788D01*
X139933980Y-122971057D01*
X139983284Y-123049523D01*
X140027683Y-123120184D01*
X140033658Y-123129692D01*
X140032435Y-123130460D01*
X140055876Y-123187867D01*
X140043123Y-123256563D01*
X139995255Y-123307460D01*
X139932521Y-123324500D01*
X137761661Y-123324500D01*
X137694622Y-123304815D01*
X137648867Y-123252011D01*
X137638923Y-123182853D01*
X137656666Y-123134530D01*
X137725789Y-123024522D01*
X137725790Y-123024518D01*
X137728432Y-123019031D01*
X137731819Y-123011216D01*
X137923777Y-122643843D01*
X137945990Y-122613598D01*
X138397771Y-122161819D01*
X138459094Y-122128334D01*
X138485452Y-122125500D01*
X139810485Y-122125500D01*
X139877524Y-122145185D01*
G37*
G04 #@! TD.AperFunction*
G04 #@! TA.AperFunction,Conductor*
G36*
X148908252Y-122145185D02*
G01*
X148954007Y-122197989D01*
X148963951Y-122267147D01*
X148946206Y-122315473D01*
X148924213Y-122350473D01*
X148921573Y-122355954D01*
X148918179Y-122363781D01*
X148726220Y-122731153D01*
X148704000Y-122761408D01*
X148451662Y-123013746D01*
X148390339Y-123047231D01*
X148320647Y-123042247D01*
X148276294Y-123013740D01*
X148185345Y-122922778D01*
X148185341Y-122922775D01*
X148043585Y-122828048D01*
X148043582Y-122828046D01*
X147886074Y-122762798D01*
X147886070Y-122762796D01*
X147886068Y-122762796D01*
X147802458Y-122746163D01*
X147718849Y-122729531D01*
X147718848Y-122729531D01*
X147695206Y-122729531D01*
X147564993Y-122729531D01*
X147564887Y-122729500D01*
X147513600Y-122729500D01*
X147428349Y-122729500D01*
X147428348Y-122729500D01*
X147261123Y-122762767D01*
X147103601Y-122828019D01*
X146961835Y-122922754D01*
X146841286Y-123043320D01*
X146841281Y-123043325D01*
X146746568Y-123185097D01*
X146746567Y-123185100D01*
X146720629Y-123247739D01*
X146720545Y-123247941D01*
X146676709Y-123302349D01*
X146610418Y-123324421D01*
X146605979Y-123324500D01*
X141387017Y-123324500D01*
X141319978Y-123304815D01*
X141274223Y-123252011D01*
X141264279Y-123182853D01*
X141286965Y-123130373D01*
X141285880Y-123129692D01*
X141289585Y-123123796D01*
X141385558Y-122971056D01*
X141445137Y-122800789D01*
X141451087Y-122747981D01*
X141465334Y-122621537D01*
X141465334Y-122621530D01*
X141445138Y-122442284D01*
X141445135Y-122442271D01*
X141392012Y-122290455D01*
X141388450Y-122220676D01*
X141423178Y-122160049D01*
X141485172Y-122127821D01*
X141509053Y-122125500D01*
X148841213Y-122125500D01*
X148908252Y-122145185D01*
G37*
G04 #@! TD.AperFunction*
G04 #@! TA.AperFunction,Conductor*
G36*
X151130082Y-93945182D02*
G01*
X151175837Y-93997986D01*
X151186263Y-94035613D01*
X151201185Y-94168056D01*
X151250520Y-94309045D01*
X151254081Y-94378824D01*
X151250520Y-94390955D01*
X151201185Y-94531943D01*
X151182251Y-94699997D01*
X151182251Y-94700002D01*
X151201186Y-94868057D01*
X151257783Y-95029805D01*
X151261344Y-95099584D01*
X151257783Y-95111713D01*
X151215766Y-95231792D01*
X151196831Y-95399847D01*
X151196831Y-95399852D01*
X151215766Y-95567907D01*
X151260819Y-95696664D01*
X151264380Y-95766443D01*
X151260819Y-95778572D01*
X151207153Y-95931942D01*
X151188218Y-96099997D01*
X151188218Y-96100002D01*
X151207153Y-96268057D01*
X151253503Y-96400520D01*
X151257064Y-96470299D01*
X151253503Y-96482428D01*
X151201186Y-96631942D01*
X151182251Y-96799997D01*
X151182251Y-96800002D01*
X151201185Y-96968056D01*
X151250695Y-97109545D01*
X151254256Y-97179324D01*
X151219527Y-97239952D01*
X151157534Y-97272179D01*
X151133653Y-97274500D01*
X141726874Y-97274500D01*
X141659835Y-97254815D01*
X141639193Y-97238181D01*
X138837483Y-94436470D01*
X138837482Y-94436469D01*
X138724620Y-94361058D01*
X138718653Y-94357071D01*
X138701582Y-94350000D01*
X138586620Y-94302381D01*
X138586614Y-94302379D01*
X138446457Y-94274500D01*
X138446455Y-94274500D01*
X137033763Y-94274500D01*
X137011965Y-94272569D01*
X136938146Y-94259387D01*
X136446352Y-94171566D01*
X136383817Y-94140403D01*
X136348057Y-94080378D01*
X136350426Y-94010548D01*
X136390171Y-93953085D01*
X136454674Y-93926231D01*
X136468150Y-93925497D01*
X151063043Y-93925497D01*
X151130082Y-93945182D01*
G37*
G04 #@! TD.AperFunction*
G04 #@! TA.AperFunction,Conductor*
G36*
X180504853Y-81550881D02*
G01*
X180717028Y-81567580D01*
X180736237Y-81570623D01*
X180938437Y-81619167D01*
X180956930Y-81625176D01*
X181114353Y-81690382D01*
X181149044Y-81704752D01*
X181166381Y-81713586D01*
X181343672Y-81822230D01*
X181359414Y-81833667D01*
X181517530Y-81968711D01*
X181531288Y-81982469D01*
X181666332Y-82140585D01*
X181677769Y-82156327D01*
X181786413Y-82333618D01*
X181795247Y-82350955D01*
X181874821Y-82543063D01*
X181880834Y-82561569D01*
X181929375Y-82763757D01*
X181932419Y-82782975D01*
X181949118Y-82995146D01*
X181949500Y-83004875D01*
X181949500Y-124495124D01*
X181949118Y-124504853D01*
X181932419Y-124717024D01*
X181929375Y-124736242D01*
X181880834Y-124938430D01*
X181874821Y-124956936D01*
X181795247Y-125149044D01*
X181786413Y-125166381D01*
X181677769Y-125343672D01*
X181666332Y-125359414D01*
X181531288Y-125517530D01*
X181517530Y-125531288D01*
X181359414Y-125666332D01*
X181343672Y-125677769D01*
X181166381Y-125786413D01*
X181149044Y-125795247D01*
X180956936Y-125874821D01*
X180938430Y-125880834D01*
X180736242Y-125929375D01*
X180717024Y-125932419D01*
X180504854Y-125949118D01*
X180495125Y-125949500D01*
X104004875Y-125949500D01*
X103995146Y-125949118D01*
X103782975Y-125932419D01*
X103763757Y-125929375D01*
X103561569Y-125880834D01*
X103543063Y-125874821D01*
X103350955Y-125795247D01*
X103333618Y-125786413D01*
X103156327Y-125677769D01*
X103140585Y-125666332D01*
X102982469Y-125531288D01*
X102968711Y-125517530D01*
X102833667Y-125359414D01*
X102822230Y-125343672D01*
X102713586Y-125166381D01*
X102704752Y-125149044D01*
X102690382Y-125114353D01*
X102625176Y-124956930D01*
X102619167Y-124938437D01*
X102570623Y-124736237D01*
X102567580Y-124717024D01*
X102564929Y-124683344D01*
X102550882Y-124504853D01*
X102550500Y-124495124D01*
X102550500Y-118811782D01*
X102570185Y-118744743D01*
X102622989Y-118698988D01*
X102692147Y-118689044D01*
X102721947Y-118697219D01*
X102822749Y-118738973D01*
X103006379Y-118775499D01*
X103006383Y-118775500D01*
X103006384Y-118775500D01*
X103993617Y-118775500D01*
X103993618Y-118775499D01*
X104177251Y-118738973D01*
X104350231Y-118667322D01*
X104505908Y-118563302D01*
X104638302Y-118430908D01*
X104742322Y-118275231D01*
X104813973Y-118102251D01*
X104850500Y-117918616D01*
X104850500Y-117731384D01*
X104850499Y-117731379D01*
X106169500Y-117731379D01*
X106169500Y-117918620D01*
X106206025Y-118102243D01*
X106206027Y-118102251D01*
X106277676Y-118275228D01*
X106277681Y-118275237D01*
X106381697Y-118430907D01*
X106381700Y-118430911D01*
X106514088Y-118563299D01*
X106514092Y-118563302D01*
X106669762Y-118667318D01*
X106669768Y-118667321D01*
X106669769Y-118667322D01*
X106842749Y-118738973D01*
X107026379Y-118775499D01*
X107026383Y-118775500D01*
X107026384Y-118775500D01*
X108313617Y-118775500D01*
X108313618Y-118775499D01*
X108497251Y-118738973D01*
X108670231Y-118667322D01*
X108825908Y-118563302D01*
X108958302Y-118430908D01*
X109062322Y-118275231D01*
X109133973Y-118102251D01*
X109170500Y-117918616D01*
X109170500Y-117731384D01*
X109144365Y-117599996D01*
X115269435Y-117599996D01*
X115269435Y-117600003D01*
X115289630Y-117779249D01*
X115289631Y-117779254D01*
X115349211Y-117949523D01*
X115414019Y-118052663D01*
X115445184Y-118102262D01*
X115572738Y-118229816D01*
X115725478Y-118325789D01*
X115832761Y-118363329D01*
X115895745Y-118385368D01*
X115895750Y-118385369D01*
X116074996Y-118405565D01*
X116075000Y-118405565D01*
X116075004Y-118405565D01*
X116254249Y-118385369D01*
X116254252Y-118385368D01*
X116254255Y-118385368D01*
X116424522Y-118325789D01*
X116446529Y-118311960D01*
X116513762Y-118292960D01*
X116578470Y-118311960D01*
X116600478Y-118325789D01*
X116770745Y-118385368D01*
X116770750Y-118385369D01*
X116949996Y-118405565D01*
X116950000Y-118405565D01*
X116950004Y-118405565D01*
X117129249Y-118385369D01*
X117129252Y-118385368D01*
X117129255Y-118385368D01*
X117299522Y-118325789D01*
X117452262Y-118229816D01*
X117579816Y-118102262D01*
X117675789Y-117949522D01*
X117735368Y-117779255D01*
X117740762Y-117731383D01*
X117755565Y-117600003D01*
X117755565Y-117599996D01*
X117735369Y-117420750D01*
X117735368Y-117420745D01*
X117675788Y-117250476D01*
X117579815Y-117097737D01*
X117452262Y-116970184D01*
X117299523Y-116874211D01*
X117129254Y-116814631D01*
X117129249Y-116814630D01*
X116950004Y-116794435D01*
X116949996Y-116794435D01*
X116770750Y-116814630D01*
X116770737Y-116814633D01*
X116600480Y-116874209D01*
X116578470Y-116888039D01*
X116511233Y-116907038D01*
X116446530Y-116888039D01*
X116424519Y-116874209D01*
X116254262Y-116814633D01*
X116254249Y-116814630D01*
X116075004Y-116794435D01*
X116074996Y-116794435D01*
X115895750Y-116814630D01*
X115895745Y-116814631D01*
X115725476Y-116874211D01*
X115572737Y-116970184D01*
X115445184Y-117097737D01*
X115349211Y-117250476D01*
X115289631Y-117420745D01*
X115289630Y-117420750D01*
X115269435Y-117599996D01*
X109144365Y-117599996D01*
X109133973Y-117547749D01*
X109062322Y-117374769D01*
X109062321Y-117374768D01*
X109062318Y-117374762D01*
X108958302Y-117219092D01*
X108958299Y-117219088D01*
X108825911Y-117086700D01*
X108825907Y-117086697D01*
X108670237Y-116982681D01*
X108670228Y-116982676D01*
X108497251Y-116911027D01*
X108497243Y-116911025D01*
X108313620Y-116874500D01*
X108313616Y-116874500D01*
X107026384Y-116874500D01*
X107026379Y-116874500D01*
X106842756Y-116911025D01*
X106842748Y-116911027D01*
X106669771Y-116982676D01*
X106669762Y-116982681D01*
X106514092Y-117086697D01*
X106514088Y-117086700D01*
X106381700Y-117219088D01*
X106381697Y-117219092D01*
X106277681Y-117374762D01*
X106277676Y-117374771D01*
X106206027Y-117547748D01*
X106206025Y-117547756D01*
X106169500Y-117731379D01*
X104850499Y-117731379D01*
X104813973Y-117547749D01*
X104742322Y-117374769D01*
X104742321Y-117374768D01*
X104742318Y-117374762D01*
X104638302Y-117219092D01*
X104638299Y-117219088D01*
X104505911Y-117086700D01*
X104505907Y-117086697D01*
X104350237Y-116982681D01*
X104350228Y-116982676D01*
X104177251Y-116911027D01*
X104177243Y-116911025D01*
X103993620Y-116874500D01*
X103993616Y-116874500D01*
X103006384Y-116874500D01*
X103006379Y-116874500D01*
X102822756Y-116911025D01*
X102822748Y-116911027D01*
X102721953Y-116952778D01*
X102652483Y-116960247D01*
X102590004Y-116928972D01*
X102554352Y-116868883D01*
X102550500Y-116838217D01*
X102550500Y-115850000D01*
X108507315Y-115850000D01*
X108526003Y-116027805D01*
X108526004Y-116027807D01*
X108581247Y-116197829D01*
X108581250Y-116197835D01*
X108670641Y-116352665D01*
X108681446Y-116364665D01*
X108790264Y-116485521D01*
X108790267Y-116485523D01*
X108790270Y-116485526D01*
X108934907Y-116590612D01*
X109098233Y-116663329D01*
X109273109Y-116700500D01*
X109273110Y-116700500D01*
X109451889Y-116700500D01*
X109451891Y-116700500D01*
X109626767Y-116663329D01*
X109790093Y-116590612D01*
X109934730Y-116485526D01*
X110054359Y-116352665D01*
X110143750Y-116197835D01*
X110198997Y-116027803D01*
X110217685Y-115850000D01*
X110198997Y-115672197D01*
X110171373Y-115587181D01*
X110143752Y-115502170D01*
X110143749Y-115502164D01*
X110054359Y-115347335D01*
X109994231Y-115280556D01*
X109934735Y-115214478D01*
X109934732Y-115214476D01*
X109934731Y-115214475D01*
X109934730Y-115214474D01*
X109790093Y-115109388D01*
X109626767Y-115036671D01*
X109626765Y-115036670D01*
X109499094Y-115009533D01*
X109451891Y-114999500D01*
X109273109Y-114999500D01*
X109258219Y-115002665D01*
X109098233Y-115036670D01*
X109098228Y-115036672D01*
X108934908Y-115109387D01*
X108790268Y-115214475D01*
X108670640Y-115347336D01*
X108581250Y-115502164D01*
X108581247Y-115502170D01*
X108526004Y-115672192D01*
X108526003Y-115672194D01*
X108507315Y-115850000D01*
X102550500Y-115850000D01*
X102550500Y-114650000D01*
X112294815Y-114650000D01*
X112313503Y-114827805D01*
X112313504Y-114827807D01*
X112368747Y-114997829D01*
X112368750Y-114997835D01*
X112458141Y-115152665D01*
X112492627Y-115190965D01*
X112577764Y-115285521D01*
X112577767Y-115285523D01*
X112577770Y-115285526D01*
X112722407Y-115390612D01*
X112885733Y-115463329D01*
X113060609Y-115500500D01*
X113060610Y-115500500D01*
X113239389Y-115500500D01*
X113239391Y-115500500D01*
X113414267Y-115463329D01*
X113577593Y-115390612D01*
X113722230Y-115285526D01*
X113731258Y-115275500D01*
X113782314Y-115218796D01*
X113841859Y-115152665D01*
X113931250Y-114997835D01*
X113986497Y-114827803D01*
X114005185Y-114650000D01*
X113986497Y-114472197D01*
X113931250Y-114302165D01*
X113841859Y-114147335D01*
X113795003Y-114095296D01*
X113722235Y-114014478D01*
X113722232Y-114014476D01*
X113722231Y-114014475D01*
X113722230Y-114014474D01*
X113577593Y-113909388D01*
X113414267Y-113836671D01*
X113414265Y-113836670D01*
X113286594Y-113809533D01*
X113239391Y-113799500D01*
X113060609Y-113799500D01*
X113029954Y-113806015D01*
X112885733Y-113836670D01*
X112885728Y-113836672D01*
X112722408Y-113909387D01*
X112577768Y-114014475D01*
X112458140Y-114147336D01*
X112368750Y-114302164D01*
X112368747Y-114302170D01*
X112313504Y-114472192D01*
X112313503Y-114472194D01*
X112294815Y-114650000D01*
X102550500Y-114650000D01*
X102550500Y-112699996D01*
X110994435Y-112699996D01*
X110994435Y-112700003D01*
X111014630Y-112879249D01*
X111014631Y-112879254D01*
X111074211Y-113049523D01*
X111170184Y-113202262D01*
X111297738Y-113329816D01*
X111450478Y-113425789D01*
X111620745Y-113485368D01*
X111620750Y-113485369D01*
X111799996Y-113505565D01*
X111800000Y-113505565D01*
X111800004Y-113505565D01*
X111979249Y-113485369D01*
X111979252Y-113485368D01*
X111979255Y-113485368D01*
X112149522Y-113425789D01*
X112302262Y-113329816D01*
X112429816Y-113202262D01*
X112525789Y-113049522D01*
X112585368Y-112879255D01*
X112599631Y-112752665D01*
X112605565Y-112700003D01*
X112605565Y-112699996D01*
X112585369Y-112520750D01*
X112585368Y-112520745D01*
X112568194Y-112471664D01*
X112525789Y-112350478D01*
X112429816Y-112197738D01*
X112302262Y-112070184D01*
X112251661Y-112038389D01*
X112149523Y-111974211D01*
X111979254Y-111914631D01*
X111979249Y-111914630D01*
X111800004Y-111894435D01*
X111799996Y-111894435D01*
X111620750Y-111914630D01*
X111620745Y-111914631D01*
X111450476Y-111974211D01*
X111297737Y-112070184D01*
X111170184Y-112197737D01*
X111074211Y-112350476D01*
X111014631Y-112520745D01*
X111014630Y-112520750D01*
X110994435Y-112699996D01*
X102550500Y-112699996D01*
X102550500Y-110799996D01*
X110994435Y-110799996D01*
X110994435Y-110800003D01*
X111014630Y-110979249D01*
X111014631Y-110979254D01*
X111074211Y-111149523D01*
X111138767Y-111252262D01*
X111170184Y-111302262D01*
X111297738Y-111429816D01*
X111355824Y-111466314D01*
X111427092Y-111511095D01*
X111450478Y-111525789D01*
X111620745Y-111585368D01*
X111620750Y-111585369D01*
X111799996Y-111605565D01*
X111800000Y-111605565D01*
X111800004Y-111605565D01*
X111979249Y-111585369D01*
X111979252Y-111585368D01*
X111979255Y-111585368D01*
X112149522Y-111525789D01*
X112302262Y-111429816D01*
X112429816Y-111302262D01*
X112525789Y-111149522D01*
X112585368Y-110979255D01*
X112591002Y-110929254D01*
X112605565Y-110800003D01*
X112605565Y-110799996D01*
X112585369Y-110620750D01*
X112585368Y-110620745D01*
X112568379Y-110572194D01*
X112525789Y-110450478D01*
X112511541Y-110427803D01*
X112448346Y-110327228D01*
X112429816Y-110297738D01*
X112302262Y-110170184D01*
X112245126Y-110134283D01*
X112149519Y-110074209D01*
X112007469Y-110024503D01*
X111995916Y-110016217D01*
X111995254Y-110016376D01*
X111986207Y-110015122D01*
X111986175Y-110015411D01*
X111800004Y-109994435D01*
X111799996Y-109994435D01*
X111620750Y-110014630D01*
X111620745Y-110014631D01*
X111450476Y-110074211D01*
X111297737Y-110170184D01*
X111170184Y-110297737D01*
X111074211Y-110450476D01*
X111014631Y-110620745D01*
X111014630Y-110620750D01*
X110994435Y-110799996D01*
X102550500Y-110799996D01*
X102550500Y-110161782D01*
X102570185Y-110094743D01*
X102622989Y-110048988D01*
X102692147Y-110039044D01*
X102721947Y-110047219D01*
X102822749Y-110088973D01*
X103006379Y-110125499D01*
X103006383Y-110125500D01*
X103006384Y-110125500D01*
X103993617Y-110125500D01*
X103993618Y-110125499D01*
X104177251Y-110088973D01*
X104350231Y-110017322D01*
X104505908Y-109913302D01*
X104638302Y-109780908D01*
X104742322Y-109625231D01*
X104813973Y-109452251D01*
X104850500Y-109268616D01*
X104850500Y-109081384D01*
X104850499Y-109081379D01*
X106169500Y-109081379D01*
X106169500Y-109268620D01*
X106206025Y-109452243D01*
X106206027Y-109452251D01*
X106277676Y-109625228D01*
X106277681Y-109625237D01*
X106381697Y-109780907D01*
X106381700Y-109780911D01*
X106514088Y-109913299D01*
X106514092Y-109913302D01*
X106669762Y-110017318D01*
X106669768Y-110017321D01*
X106669769Y-110017322D01*
X106842749Y-110088973D01*
X107026379Y-110125499D01*
X107026383Y-110125500D01*
X107026384Y-110125500D01*
X108313617Y-110125500D01*
X108313618Y-110125499D01*
X108497251Y-110088973D01*
X108670231Y-110017322D01*
X108825908Y-109913302D01*
X108958302Y-109780908D01*
X109062322Y-109625231D01*
X109133973Y-109452251D01*
X109170500Y-109268616D01*
X109170500Y-109081384D01*
X109154312Y-109000000D01*
X110094815Y-109000000D01*
X110113503Y-109177805D01*
X110113504Y-109177807D01*
X110168747Y-109347829D01*
X110168750Y-109347835D01*
X110258141Y-109502665D01*
X110296043Y-109544759D01*
X110377764Y-109635521D01*
X110377767Y-109635523D01*
X110377770Y-109635526D01*
X110522407Y-109740612D01*
X110685733Y-109813329D01*
X110860609Y-109850500D01*
X110860610Y-109850500D01*
X111039389Y-109850500D01*
X111039391Y-109850500D01*
X111214267Y-109813329D01*
X111377593Y-109740612D01*
X111522230Y-109635526D01*
X111544346Y-109610963D01*
X111603828Y-109574315D01*
X111673685Y-109575643D01*
X111724176Y-109606254D01*
X111747738Y-109629816D01*
X111820012Y-109675229D01*
X111879067Y-109712336D01*
X111900478Y-109725789D01*
X111974679Y-109751753D01*
X112042530Y-109775495D01*
X112054083Y-109783781D01*
X112054746Y-109783623D01*
X112063792Y-109784878D01*
X112063825Y-109784589D01*
X112249996Y-109805565D01*
X112250000Y-109805565D01*
X112250004Y-109805565D01*
X112429249Y-109785369D01*
X112429252Y-109785368D01*
X112429255Y-109785368D01*
X112599522Y-109725789D01*
X112752262Y-109629816D01*
X112791231Y-109590847D01*
X112852554Y-109557362D01*
X112922246Y-109562346D01*
X112966593Y-109590847D01*
X113005562Y-109629816D01*
X113077836Y-109675229D01*
X113136891Y-109712336D01*
X113158302Y-109725789D01*
X113232503Y-109751753D01*
X113328569Y-109785368D01*
X113328574Y-109785369D01*
X113507820Y-109805565D01*
X113507824Y-109805565D01*
X113507828Y-109805565D01*
X113687073Y-109785369D01*
X113687076Y-109785368D01*
X113687079Y-109785368D01*
X113857346Y-109725789D01*
X114010086Y-109629816D01*
X114041231Y-109598671D01*
X114102554Y-109565186D01*
X114172246Y-109570170D01*
X114216593Y-109598671D01*
X114247738Y-109629816D01*
X114320012Y-109675229D01*
X114379067Y-109712336D01*
X114400478Y-109725789D01*
X114474679Y-109751753D01*
X114570745Y-109785368D01*
X114570750Y-109785369D01*
X114749996Y-109805565D01*
X114750000Y-109805565D01*
X114750001Y-109805565D01*
X114751754Y-109805367D01*
X114756566Y-109804825D01*
X114825388Y-109816875D01*
X114876770Y-109864221D01*
X114894398Y-109931830D01*
X114872676Y-109998238D01*
X114836429Y-110033037D01*
X114697739Y-110120182D01*
X114570184Y-110247737D01*
X114474211Y-110400476D01*
X114414631Y-110570745D01*
X114414630Y-110570750D01*
X114394435Y-110749996D01*
X114394435Y-110750003D01*
X114415411Y-110936175D01*
X114412397Y-110936514D01*
X114408916Y-110992839D01*
X114367586Y-111049174D01*
X114365207Y-111050947D01*
X114277768Y-111114475D01*
X114158140Y-111247336D01*
X114068750Y-111402164D01*
X114068747Y-111402170D01*
X114013504Y-111572192D01*
X114013503Y-111572194D01*
X113994815Y-111750000D01*
X114013503Y-111927805D01*
X114013504Y-111927807D01*
X114068747Y-112097829D01*
X114068750Y-112097835D01*
X114158141Y-112252665D01*
X114199812Y-112298946D01*
X114277764Y-112385521D01*
X114277767Y-112385523D01*
X114277770Y-112385526D01*
X114359940Y-112445227D01*
X114402604Y-112500555D01*
X114410273Y-112559426D01*
X114394435Y-112699996D01*
X114394435Y-112700003D01*
X114414630Y-112879249D01*
X114414631Y-112879254D01*
X114474211Y-113049523D01*
X114570184Y-113202262D01*
X114697738Y-113329816D01*
X114850478Y-113425789D01*
X115020745Y-113485368D01*
X115020750Y-113485369D01*
X115199996Y-113505565D01*
X115200000Y-113505565D01*
X115200004Y-113505565D01*
X115379249Y-113485369D01*
X115379252Y-113485368D01*
X115379255Y-113485368D01*
X115549522Y-113425789D01*
X115702262Y-113329816D01*
X115829816Y-113202262D01*
X115925789Y-113049522D01*
X115985368Y-112879255D01*
X115999631Y-112752665D01*
X116005565Y-112700003D01*
X116005565Y-112699996D01*
X115985369Y-112520750D01*
X115985368Y-112520745D01*
X115968194Y-112471664D01*
X115925789Y-112350478D01*
X115829816Y-112197738D01*
X115709177Y-112077099D01*
X115675692Y-112015776D01*
X115678928Y-111951097D01*
X115686497Y-111927803D01*
X115705185Y-111750000D01*
X115686497Y-111572197D01*
X115666642Y-111511092D01*
X115664648Y-111441254D01*
X115698203Y-111385607D01*
X115697337Y-111384741D01*
X115702262Y-111379816D01*
X115829816Y-111252262D01*
X115925789Y-111099522D01*
X115985368Y-110929255D01*
X115985531Y-110927807D01*
X116005565Y-110750003D01*
X116005565Y-110749996D01*
X115985369Y-110570750D01*
X115985368Y-110570745D01*
X115957328Y-110490612D01*
X115925789Y-110400478D01*
X115829816Y-110247738D01*
X115702262Y-110120184D01*
X115666151Y-110097494D01*
X115549523Y-110024211D01*
X115379254Y-109964631D01*
X115379249Y-109964630D01*
X115200004Y-109944435D01*
X115200002Y-109944435D01*
X115200000Y-109944435D01*
X115193423Y-109945175D01*
X115124602Y-109933119D01*
X115073224Y-109885769D01*
X115055601Y-109818159D01*
X115077329Y-109751753D01*
X115113569Y-109716962D01*
X115252262Y-109629816D01*
X115337319Y-109544759D01*
X115398642Y-109511274D01*
X115468334Y-109516258D01*
X115512681Y-109544759D01*
X115597738Y-109629816D01*
X115670012Y-109675229D01*
X115729067Y-109712336D01*
X115750478Y-109725789D01*
X115824679Y-109751753D01*
X115920745Y-109785368D01*
X115920750Y-109785369D01*
X116099996Y-109805565D01*
X116100000Y-109805565D01*
X116100004Y-109805565D01*
X116279249Y-109785369D01*
X116279252Y-109785368D01*
X116279255Y-109785368D01*
X116449522Y-109725789D01*
X116602262Y-109629816D01*
X116637319Y-109594759D01*
X116698642Y-109561274D01*
X116768334Y-109566258D01*
X116812681Y-109594759D01*
X116847738Y-109629816D01*
X116920012Y-109675229D01*
X116979067Y-109712336D01*
X117000478Y-109725789D01*
X117074679Y-109751753D01*
X117170745Y-109785368D01*
X117170750Y-109785369D01*
X117349996Y-109805565D01*
X117350000Y-109805565D01*
X117350004Y-109805565D01*
X117529249Y-109785369D01*
X117529252Y-109785368D01*
X117529255Y-109785368D01*
X117699522Y-109725789D01*
X117852262Y-109629816D01*
X117912319Y-109569759D01*
X117973642Y-109536274D01*
X118043334Y-109541258D01*
X118087681Y-109569759D01*
X118147738Y-109629816D01*
X118220012Y-109675229D01*
X118279067Y-109712336D01*
X118300478Y-109725789D01*
X118374679Y-109751753D01*
X118470745Y-109785368D01*
X118470750Y-109785369D01*
X118649996Y-109805565D01*
X118650000Y-109805565D01*
X118650004Y-109805565D01*
X118829249Y-109785369D01*
X118829252Y-109785368D01*
X118829255Y-109785368D01*
X118999522Y-109725789D01*
X119152262Y-109629816D01*
X119187319Y-109594759D01*
X119248642Y-109561274D01*
X119318334Y-109566258D01*
X119362681Y-109594759D01*
X119397738Y-109629816D01*
X119470012Y-109675229D01*
X119529067Y-109712336D01*
X119550478Y-109725789D01*
X119624679Y-109751753D01*
X119720745Y-109785368D01*
X119720750Y-109785369D01*
X119787787Y-109792922D01*
X119852201Y-109819988D01*
X119891756Y-109877583D01*
X119893894Y-109947420D01*
X119861585Y-110003823D01*
X119053408Y-110812001D01*
X118251270Y-111614139D01*
X118251267Y-111614142D01*
X118207703Y-111657705D01*
X118164140Y-111701268D01*
X118144338Y-111730906D01*
X118144336Y-111730909D01*
X118095690Y-111803709D01*
X118095685Y-111803718D01*
X118069287Y-111867452D01*
X118062347Y-111884207D01*
X118061801Y-111885526D01*
X118048537Y-111917545D01*
X118048537Y-111917548D01*
X118024500Y-112038389D01*
X118024500Y-118159764D01*
X118004815Y-118226803D01*
X117952011Y-118272558D01*
X117947959Y-118274323D01*
X117800293Y-118335497D01*
X117658559Y-118430203D01*
X117658557Y-118430205D01*
X117538014Y-118550747D01*
X117538013Y-118550748D01*
X117443302Y-118692483D01*
X117378057Y-118849971D01*
X117378056Y-118849975D01*
X117344785Y-119017159D01*
X117344784Y-119017165D01*
X117344782Y-119035233D01*
X117344776Y-119035382D01*
X117344776Y-119102399D01*
X117344766Y-119185859D01*
X117344776Y-119186022D01*
X117344776Y-119289658D01*
X117344819Y-119290551D01*
X117344817Y-119307641D01*
X117378059Y-119474855D01*
X117389271Y-119501931D01*
X117396731Y-119571401D01*
X117365449Y-119633876D01*
X117315658Y-119666412D01*
X117150478Y-119724210D01*
X116997737Y-119820184D01*
X116870184Y-119947737D01*
X116774211Y-120100476D01*
X116714631Y-120270745D01*
X116714630Y-120270750D01*
X116694435Y-120449996D01*
X116694435Y-120450003D01*
X116714630Y-120629249D01*
X116714631Y-120629254D01*
X116774211Y-120799523D01*
X116846738Y-120914948D01*
X116870184Y-120952262D01*
X116997738Y-121079816D01*
X117043158Y-121108355D01*
X117150000Y-121175489D01*
X117150478Y-121175789D01*
X117201119Y-121193509D01*
X117320745Y-121235368D01*
X117320750Y-121235369D01*
X117499996Y-121255565D01*
X117500000Y-121255565D01*
X117500004Y-121255565D01*
X117679249Y-121235369D01*
X117679252Y-121235368D01*
X117679255Y-121235368D01*
X117849522Y-121175789D01*
X117849522Y-121175788D01*
X117856095Y-121173489D01*
X117856795Y-121175489D01*
X117915623Y-121165795D01*
X117979761Y-121193509D01*
X118018735Y-121251499D01*
X118024500Y-121288869D01*
X118024500Y-121387662D01*
X118018818Y-121424768D01*
X117893692Y-121823746D01*
X117885344Y-121853528D01*
X117884347Y-121858809D01*
X117883783Y-121858702D01*
X117879349Y-121878684D01*
X117864631Y-121920748D01*
X117864630Y-121920751D01*
X117844435Y-122099996D01*
X117844435Y-122100003D01*
X117864630Y-122279249D01*
X117864631Y-122279251D01*
X117864631Y-122279253D01*
X117864632Y-122279255D01*
X117875962Y-122311634D01*
X117924211Y-122449523D01*
X117978125Y-122535326D01*
X118020184Y-122602262D01*
X118147738Y-122729816D01*
X118224108Y-122777802D01*
X118300479Y-122825790D01*
X118305978Y-122828437D01*
X118313799Y-122831828D01*
X118605721Y-122984362D01*
X118656022Y-123032854D01*
X118672121Y-123100844D01*
X118648906Y-123166744D01*
X118635978Y-123181944D01*
X118570183Y-123247739D01*
X118474211Y-123400476D01*
X118414631Y-123570745D01*
X118414630Y-123570750D01*
X118394435Y-123749996D01*
X118394435Y-123750003D01*
X118414630Y-123929249D01*
X118414631Y-123929254D01*
X118474211Y-124099523D01*
X118536282Y-124198307D01*
X118570184Y-124252262D01*
X118697738Y-124379816D01*
X118754153Y-124415264D01*
X118841398Y-124470084D01*
X118850478Y-124475789D01*
X119010928Y-124531933D01*
X119020745Y-124535368D01*
X119020750Y-124535369D01*
X119199996Y-124555565D01*
X119200000Y-124555565D01*
X119200004Y-124555565D01*
X119379249Y-124535369D01*
X119379252Y-124535368D01*
X119379255Y-124535368D01*
X119549522Y-124475789D01*
X119702262Y-124379816D01*
X119786063Y-124296015D01*
X119847386Y-124262530D01*
X119917078Y-124267514D01*
X119961425Y-124296015D01*
X120011016Y-124345606D01*
X120011045Y-124345637D01*
X120101264Y-124435856D01*
X120101267Y-124435858D01*
X120152490Y-124470084D01*
X120203714Y-124504312D01*
X120284207Y-124537652D01*
X120317548Y-124551463D01*
X120338171Y-124555565D01*
X120438391Y-124575499D01*
X120438392Y-124575500D01*
X120438393Y-124575500D01*
X134111608Y-124575500D01*
X134111608Y-124575499D01*
X134211829Y-124555565D01*
X134211830Y-124555565D01*
X134232447Y-124551464D01*
X134232447Y-124551463D01*
X134232452Y-124551463D01*
X134232457Y-124551460D01*
X134232460Y-124551460D01*
X134265787Y-124537654D01*
X134265786Y-124537654D01*
X134265792Y-124537652D01*
X134346286Y-124504312D01*
X134397509Y-124470084D01*
X134397511Y-124470083D01*
X134423968Y-124452405D01*
X134448733Y-124435858D01*
X134535858Y-124348733D01*
X134535859Y-124348731D01*
X134542925Y-124341665D01*
X134542928Y-124341661D01*
X135249820Y-123634768D01*
X135311141Y-123601285D01*
X135380833Y-123606269D01*
X135425180Y-123634770D01*
X136136016Y-124345606D01*
X136136045Y-124345637D01*
X136226264Y-124435856D01*
X136226267Y-124435858D01*
X136303190Y-124487256D01*
X136328710Y-124504309D01*
X136328712Y-124504310D01*
X136328715Y-124504312D01*
X136395396Y-124531931D01*
X136395398Y-124531933D01*
X136435640Y-124548601D01*
X136442548Y-124551463D01*
X136456602Y-124554258D01*
X136463144Y-124555560D01*
X136463157Y-124555562D01*
X136463171Y-124555565D01*
X136563391Y-124575499D01*
X136563392Y-124575500D01*
X136563393Y-124575500D01*
X147118845Y-124575500D01*
X147118846Y-124575499D01*
X147286057Y-124542240D01*
X147443568Y-124476996D01*
X147504710Y-124436141D01*
X147571386Y-124415264D01*
X147638766Y-124433748D01*
X147642463Y-124436124D01*
X147703632Y-124476996D01*
X147703633Y-124476996D01*
X147703634Y-124476997D01*
X147739314Y-124491776D01*
X147861143Y-124542240D01*
X148028351Y-124575499D01*
X148028355Y-124575500D01*
X148028356Y-124575500D01*
X148461608Y-124575500D01*
X148461608Y-124575499D01*
X148561829Y-124555565D01*
X148561830Y-124555565D01*
X148582447Y-124551464D01*
X148582447Y-124551463D01*
X148582452Y-124551463D01*
X148582457Y-124551460D01*
X148582460Y-124551460D01*
X148615787Y-124537654D01*
X148615786Y-124537654D01*
X148615792Y-124537652D01*
X148696286Y-124504312D01*
X148747509Y-124470084D01*
X148747511Y-124470083D01*
X148773968Y-124452405D01*
X148798733Y-124435858D01*
X148885858Y-124348733D01*
X148885860Y-124348729D01*
X149198357Y-124036233D01*
X149588598Y-123645990D01*
X149618848Y-123623774D01*
X149986206Y-123431824D01*
X149994043Y-123428428D01*
X149999515Y-123425792D01*
X149999516Y-123425790D01*
X149999522Y-123425789D01*
X150152262Y-123329816D01*
X150279816Y-123202262D01*
X150375789Y-123049522D01*
X150435368Y-122879255D01*
X150436371Y-122870354D01*
X150455565Y-122700003D01*
X150455565Y-122699996D01*
X150435369Y-122520750D01*
X150435366Y-122520737D01*
X150385895Y-122379357D01*
X150382333Y-122309578D01*
X150417061Y-122248951D01*
X150479055Y-122216723D01*
X150548630Y-122223128D01*
X150550361Y-122223829D01*
X150667382Y-122272302D01*
X150702324Y-122279252D01*
X150764235Y-122311634D01*
X150798811Y-122372349D01*
X150799748Y-122376654D01*
X150806739Y-122411765D01*
X150867499Y-122558367D01*
X150867502Y-122558373D01*
X150867504Y-122558377D01*
X150909720Y-122621530D01*
X150924904Y-122644243D01*
X150933141Y-122658541D01*
X150948838Y-122690541D01*
X151114170Y-123027587D01*
X151116365Y-123031673D01*
X151124162Y-123049382D01*
X151124210Y-123049521D01*
X151124212Y-123049524D01*
X151209400Y-123185100D01*
X151220184Y-123202262D01*
X151347738Y-123329816D01*
X151438080Y-123386582D01*
X151460192Y-123400476D01*
X151500478Y-123425789D01*
X151517734Y-123431827D01*
X151670745Y-123485368D01*
X151670750Y-123485369D01*
X151849996Y-123505565D01*
X151850000Y-123505565D01*
X151850004Y-123505565D01*
X152029249Y-123485369D01*
X152029252Y-123485368D01*
X152029255Y-123485368D01*
X152199522Y-123425789D01*
X152352262Y-123329816D01*
X152479816Y-123202262D01*
X152575789Y-123049522D01*
X152635368Y-122879255D01*
X152636371Y-122870354D01*
X152655565Y-122700003D01*
X152655565Y-122699996D01*
X153244435Y-122699996D01*
X153244435Y-122700003D01*
X153264630Y-122879249D01*
X153264631Y-122879254D01*
X153324211Y-123049523D01*
X153409400Y-123185100D01*
X153420184Y-123202262D01*
X153547738Y-123329816D01*
X153638080Y-123386582D01*
X153660192Y-123400476D01*
X153700478Y-123425789D01*
X153717734Y-123431827D01*
X153870745Y-123485368D01*
X153870750Y-123485369D01*
X154049996Y-123505565D01*
X154050000Y-123505565D01*
X154050004Y-123505565D01*
X154099422Y-123499997D01*
X161240708Y-123499997D01*
X161240708Y-123500002D01*
X161252498Y-123634770D01*
X161259839Y-123718674D01*
X161316653Y-123930703D01*
X161316654Y-123930706D01*
X161316655Y-123930708D01*
X161409419Y-124129642D01*
X161409423Y-124129650D01*
X161535322Y-124309452D01*
X161535327Y-124309458D01*
X161690541Y-124464672D01*
X161690547Y-124464677D01*
X161870349Y-124590576D01*
X161870351Y-124590577D01*
X161870354Y-124590579D01*
X162069297Y-124683347D01*
X162281326Y-124740161D01*
X162437521Y-124753826D01*
X162499998Y-124759292D01*
X162500000Y-124759292D01*
X162500002Y-124759292D01*
X162554668Y-124754509D01*
X162718674Y-124740161D01*
X162930703Y-124683347D01*
X163129646Y-124590579D01*
X163309457Y-124464674D01*
X163464674Y-124309457D01*
X163590579Y-124129646D01*
X163683347Y-123930703D01*
X163740161Y-123718674D01*
X163759292Y-123500000D01*
X163759292Y-123499997D01*
X172240708Y-123499997D01*
X172240708Y-123500002D01*
X172252498Y-123634770D01*
X172259839Y-123718674D01*
X172316653Y-123930703D01*
X172316654Y-123930706D01*
X172316655Y-123930708D01*
X172409419Y-124129642D01*
X172409423Y-124129650D01*
X172535322Y-124309452D01*
X172535327Y-124309458D01*
X172690541Y-124464672D01*
X172690547Y-124464677D01*
X172870349Y-124590576D01*
X172870351Y-124590577D01*
X172870354Y-124590579D01*
X173069297Y-124683347D01*
X173281326Y-124740161D01*
X173437521Y-124753826D01*
X173499998Y-124759292D01*
X173500000Y-124759292D01*
X173500002Y-124759292D01*
X173554668Y-124754509D01*
X173718674Y-124740161D01*
X173930703Y-124683347D01*
X174129646Y-124590579D01*
X174309457Y-124464674D01*
X174464674Y-124309457D01*
X174590579Y-124129646D01*
X174683347Y-123930703D01*
X174740161Y-123718674D01*
X174759292Y-123500000D01*
X174740161Y-123281326D01*
X174683347Y-123069297D01*
X174590579Y-122870354D01*
X174590577Y-122870351D01*
X174590576Y-122870349D01*
X174464677Y-122690547D01*
X174464672Y-122690541D01*
X174309458Y-122535327D01*
X174309452Y-122535322D01*
X174129650Y-122409423D01*
X174129642Y-122409419D01*
X173930708Y-122316655D01*
X173930706Y-122316654D01*
X173930703Y-122316653D01*
X173765182Y-122272301D01*
X173718675Y-122259839D01*
X173718668Y-122259838D01*
X173500002Y-122240708D01*
X173499998Y-122240708D01*
X173281331Y-122259838D01*
X173281324Y-122259839D01*
X173158902Y-122292642D01*
X173069297Y-122316653D01*
X173069295Y-122316653D01*
X173069291Y-122316655D01*
X172870357Y-122409419D01*
X172870349Y-122409423D01*
X172690547Y-122535322D01*
X172690541Y-122535327D01*
X172535327Y-122690541D01*
X172535322Y-122690547D01*
X172409423Y-122870349D01*
X172409419Y-122870357D01*
X172316655Y-123069291D01*
X172316653Y-123069295D01*
X172316653Y-123069297D01*
X172300264Y-123130460D01*
X172259839Y-123281324D01*
X172259838Y-123281331D01*
X172240708Y-123499997D01*
X163759292Y-123499997D01*
X163740161Y-123281326D01*
X163683347Y-123069297D01*
X163590579Y-122870354D01*
X163590577Y-122870351D01*
X163590576Y-122870349D01*
X163464677Y-122690547D01*
X163464672Y-122690541D01*
X163309458Y-122535327D01*
X163309452Y-122535322D01*
X163129650Y-122409423D01*
X163129642Y-122409419D01*
X162930708Y-122316655D01*
X162930706Y-122316654D01*
X162930703Y-122316653D01*
X162765182Y-122272301D01*
X162718675Y-122259839D01*
X162718668Y-122259838D01*
X162500002Y-122240708D01*
X162499998Y-122240708D01*
X162281331Y-122259838D01*
X162281324Y-122259839D01*
X162158902Y-122292642D01*
X162069297Y-122316653D01*
X162069295Y-122316653D01*
X162069291Y-122316655D01*
X161870357Y-122409419D01*
X161870349Y-122409423D01*
X161690547Y-122535322D01*
X161690541Y-122535327D01*
X161535327Y-122690541D01*
X161535322Y-122690547D01*
X161409423Y-122870349D01*
X161409419Y-122870357D01*
X161316655Y-123069291D01*
X161316653Y-123069295D01*
X161316653Y-123069297D01*
X161300264Y-123130460D01*
X161259839Y-123281324D01*
X161259838Y-123281331D01*
X161240708Y-123499997D01*
X154099422Y-123499997D01*
X154229249Y-123485369D01*
X154229252Y-123485368D01*
X154229255Y-123485368D01*
X154399522Y-123425789D01*
X154552262Y-123329816D01*
X154679816Y-123202262D01*
X154775789Y-123049522D01*
X154835368Y-122879255D01*
X154836371Y-122870354D01*
X154855565Y-122700003D01*
X154855565Y-122699996D01*
X154835369Y-122520750D01*
X154835368Y-122520745D01*
X154815733Y-122464631D01*
X154775789Y-122350478D01*
X154760584Y-122326280D01*
X154706816Y-122240708D01*
X154679816Y-122197738D01*
X154552262Y-122070184D01*
X154399523Y-121974211D01*
X154229254Y-121914631D01*
X154229249Y-121914630D01*
X154050004Y-121894435D01*
X154049996Y-121894435D01*
X153870750Y-121914630D01*
X153870745Y-121914631D01*
X153700476Y-121974211D01*
X153547737Y-122070184D01*
X153420184Y-122197737D01*
X153324211Y-122350476D01*
X153264631Y-122520745D01*
X153264630Y-122520750D01*
X153244435Y-122699996D01*
X152655565Y-122699996D01*
X152635369Y-122520750D01*
X152635368Y-122520745D01*
X152615733Y-122464631D01*
X152575789Y-122350478D01*
X152560584Y-122326280D01*
X152506816Y-122240708D01*
X152479816Y-122197738D01*
X152352262Y-122070184D01*
X152199522Y-121974211D01*
X152199519Y-121974210D01*
X152193626Y-121970507D01*
X152194774Y-121968679D01*
X152150618Y-121928803D01*
X152132287Y-121863923D01*
X152132286Y-121842509D01*
X152132286Y-121842506D01*
X152101326Y-121686883D01*
X152040607Y-121540289D01*
X151952461Y-121408353D01*
X151952458Y-121408350D01*
X151952456Y-121408347D01*
X151944471Y-121400361D01*
X151944384Y-121400265D01*
X151894628Y-121350510D01*
X151894621Y-121350498D01*
X151894619Y-121350501D01*
X151894608Y-121350490D01*
X151842668Y-121298539D01*
X151842665Y-121298537D01*
X151837455Y-121293326D01*
X151837358Y-121293240D01*
X151786376Y-121242258D01*
X151786356Y-121242235D01*
X151709374Y-121165256D01*
X151709374Y-121165255D01*
X151709371Y-121165253D01*
X151683261Y-121139143D01*
X151683260Y-121139142D01*
X151680172Y-121136054D01*
X151680138Y-121136022D01*
X151670706Y-121126591D01*
X151670701Y-121126587D01*
X151583190Y-121068116D01*
X151538755Y-121038426D01*
X151538753Y-121038425D01*
X151538754Y-121038425D01*
X151452866Y-121002850D01*
X151392139Y-120977698D01*
X151392136Y-120977697D01*
X151392135Y-120977697D01*
X151236497Y-120946739D01*
X151236493Y-120946739D01*
X151077799Y-120946739D01*
X151026898Y-120956863D01*
X150957307Y-120950634D01*
X150949357Y-120946960D01*
X150865792Y-120912347D01*
X150840863Y-120902021D01*
X150832452Y-120898537D01*
X150832448Y-120898536D01*
X150832444Y-120898535D01*
X150740433Y-120880232D01*
X150740424Y-120880232D01*
X150711607Y-120874500D01*
X150711606Y-120874500D01*
X149427012Y-120874500D01*
X149359973Y-120854815D01*
X149314218Y-120802011D01*
X149304274Y-120732853D01*
X149309081Y-120712182D01*
X149336025Y-120629255D01*
X149336497Y-120627803D01*
X149355185Y-120450000D01*
X149336497Y-120272197D01*
X149281250Y-120102165D01*
X149191859Y-119947335D01*
X149117254Y-119864478D01*
X149072235Y-119814478D01*
X149072232Y-119814476D01*
X149072231Y-119814475D01*
X149072230Y-119814474D01*
X148927593Y-119709388D01*
X148764267Y-119636671D01*
X148764265Y-119636670D01*
X148636594Y-119609533D01*
X148589391Y-119599500D01*
X148410609Y-119599500D01*
X148379954Y-119606015D01*
X148235733Y-119636670D01*
X148235728Y-119636672D01*
X148072408Y-119709387D01*
X147927768Y-119814475D01*
X147808140Y-119947336D01*
X147718750Y-120102164D01*
X147718747Y-120102170D01*
X147663504Y-120272192D01*
X147663503Y-120272194D01*
X147644815Y-120450000D01*
X147663503Y-120627805D01*
X147663504Y-120627807D01*
X147690919Y-120712182D01*
X147692914Y-120782024D01*
X147656833Y-120841856D01*
X147594132Y-120872684D01*
X147572988Y-120874500D01*
X138113393Y-120874500D01*
X138084574Y-120880232D01*
X138084573Y-120880231D01*
X137992555Y-120898535D01*
X137992547Y-120898537D01*
X137952929Y-120914948D01*
X137952928Y-120914948D01*
X137878719Y-120945685D01*
X137868253Y-120952679D01*
X137776268Y-121014140D01*
X137751984Y-121038425D01*
X137689142Y-121101267D01*
X137689133Y-121101276D01*
X137682053Y-121108355D01*
X137620728Y-121141836D01*
X137551036Y-121136847D01*
X137495106Y-121094971D01*
X137479815Y-121068116D01*
X137474737Y-121055855D01*
X137380035Y-120914106D01*
X137367946Y-120902016D01*
X137367876Y-120901938D01*
X137319775Y-120853838D01*
X137319769Y-120853828D01*
X137319768Y-120853830D01*
X137271243Y-120805297D01*
X137271208Y-120805233D01*
X137174650Y-120708663D01*
X137174649Y-120708662D01*
X137032879Y-120613927D01*
X136875345Y-120548674D01*
X136875336Y-120548671D01*
X136708104Y-120515412D01*
X136537593Y-120515421D01*
X136370362Y-120548701D01*
X136370357Y-120548703D01*
X136212831Y-120613974D01*
X136071073Y-120708727D01*
X136071070Y-120708729D01*
X136071070Y-120708730D01*
X136015341Y-120764478D01*
X135941638Y-120838181D01*
X135880315Y-120871666D01*
X135853957Y-120874500D01*
X135847646Y-120874500D01*
X135840159Y-120874274D01*
X135786958Y-120871056D01*
X135786953Y-120871056D01*
X135779244Y-120872469D01*
X135756894Y-120874500D01*
X134443258Y-120874500D01*
X134376219Y-120854815D01*
X134330464Y-120802011D01*
X134320520Y-120732853D01*
X134325327Y-120712183D01*
X134331149Y-120694259D01*
X134336497Y-120677803D01*
X134355185Y-120500000D01*
X134336497Y-120322197D01*
X134281250Y-120152165D01*
X134191859Y-119997335D01*
X134145003Y-119945296D01*
X134072235Y-119864478D01*
X134072232Y-119864476D01*
X134072231Y-119864475D01*
X134072230Y-119864474D01*
X133927593Y-119759388D01*
X133764267Y-119686671D01*
X133764265Y-119686670D01*
X133636594Y-119659533D01*
X133589391Y-119649500D01*
X133410609Y-119649500D01*
X133379954Y-119656015D01*
X133235733Y-119686670D01*
X133235728Y-119686672D01*
X133072408Y-119759387D01*
X132927768Y-119864475D01*
X132808140Y-119997336D01*
X132718750Y-120152164D01*
X132718747Y-120152170D01*
X132663504Y-120322192D01*
X132663503Y-120322194D01*
X132644815Y-120500000D01*
X132663503Y-120677805D01*
X132663505Y-120677810D01*
X132674673Y-120712183D01*
X132676668Y-120782024D01*
X132640587Y-120841857D01*
X132577886Y-120872684D01*
X132556742Y-120874500D01*
X121849500Y-120874500D01*
X121782461Y-120854815D01*
X121736706Y-120802011D01*
X121725500Y-120750500D01*
X121725500Y-117275890D01*
X121745185Y-117208851D01*
X121797989Y-117163096D01*
X121867147Y-117153152D01*
X121930703Y-117182177D01*
X121956887Y-117213891D01*
X122008137Y-117302660D01*
X122008139Y-117302663D01*
X122127764Y-117435521D01*
X122127767Y-117435523D01*
X122127770Y-117435526D01*
X122272407Y-117540612D01*
X122281926Y-117544850D01*
X122335165Y-117590096D01*
X122354818Y-117645170D01*
X122363503Y-117727804D01*
X122363504Y-117727807D01*
X122418747Y-117897829D01*
X122418750Y-117897835D01*
X122508141Y-118052665D01*
X122549812Y-118098946D01*
X122627764Y-118185521D01*
X122627767Y-118185523D01*
X122627770Y-118185526D01*
X122772407Y-118290612D01*
X122935733Y-118363329D01*
X123110609Y-118400500D01*
X123110610Y-118400500D01*
X123289389Y-118400500D01*
X123289391Y-118400500D01*
X123464267Y-118363329D01*
X123627593Y-118290612D01*
X123772230Y-118185526D01*
X123891859Y-118052665D01*
X123981250Y-117897835D01*
X124036497Y-117727803D01*
X124045182Y-117645168D01*
X124071765Y-117580556D01*
X124118070Y-117544851D01*
X124127593Y-117540612D01*
X124272230Y-117435526D01*
X124285535Y-117420750D01*
X124326934Y-117374771D01*
X124391859Y-117302665D01*
X124481250Y-117147835D01*
X124536497Y-116977803D01*
X124555185Y-116800000D01*
X124536497Y-116622197D01*
X124481250Y-116452165D01*
X124391859Y-116297335D01*
X124345003Y-116245296D01*
X124272235Y-116164478D01*
X124272232Y-116164476D01*
X124272231Y-116164475D01*
X124272230Y-116164474D01*
X124127593Y-116059388D01*
X123964267Y-115986671D01*
X123964265Y-115986670D01*
X123836594Y-115959533D01*
X123789391Y-115949500D01*
X123610609Y-115949500D01*
X123579954Y-115956015D01*
X123435733Y-115986670D01*
X123435728Y-115986672D01*
X123272408Y-116059388D01*
X123266775Y-116062640D01*
X123266097Y-116061465D01*
X123207064Y-116082521D01*
X123139012Y-116066687D01*
X123128207Y-116059742D01*
X123127597Y-116059390D01*
X123127593Y-116059388D01*
X122964267Y-115986671D01*
X122964265Y-115986670D01*
X122836594Y-115959533D01*
X122789391Y-115949500D01*
X122610609Y-115949500D01*
X122579954Y-115956015D01*
X122435733Y-115986670D01*
X122435728Y-115986672D01*
X122272408Y-116059387D01*
X122127768Y-116164475D01*
X122008139Y-116297336D01*
X121956887Y-116386109D01*
X121906320Y-116434325D01*
X121837713Y-116447548D01*
X121772848Y-116421580D01*
X121732320Y-116364665D01*
X121725500Y-116324109D01*
X121725500Y-115615366D01*
X121745185Y-115548327D01*
X121797989Y-115502572D01*
X121825311Y-115493748D01*
X121937035Y-115471530D01*
X122094567Y-115406279D01*
X122236340Y-115311544D01*
X122356904Y-115190968D01*
X122451623Y-115049184D01*
X122516857Y-114891645D01*
X122550098Y-114724404D01*
X122550084Y-114639149D01*
X122550084Y-114637304D01*
X122550084Y-114602799D01*
X122550097Y-114602572D01*
X122550095Y-114595102D01*
X122550097Y-114595098D01*
X122550092Y-114570574D01*
X122550149Y-114570379D01*
X122550141Y-114519149D01*
X122550142Y-114519149D01*
X122550139Y-114500000D01*
X144394815Y-114500000D01*
X144413503Y-114677805D01*
X144413504Y-114677807D01*
X144468747Y-114847829D01*
X144468750Y-114847835D01*
X144558141Y-115002665D01*
X144588760Y-115036671D01*
X144677764Y-115135521D01*
X144677767Y-115135523D01*
X144677770Y-115135526D01*
X144822407Y-115240612D01*
X144831926Y-115244850D01*
X144885165Y-115290096D01*
X144904817Y-115345168D01*
X144909059Y-115385521D01*
X144913503Y-115427804D01*
X144913504Y-115427807D01*
X144968747Y-115597829D01*
X144968750Y-115597835D01*
X145058141Y-115752665D01*
X145099812Y-115798946D01*
X145177764Y-115885521D01*
X145177767Y-115885523D01*
X145177770Y-115885526D01*
X145322407Y-115990612D01*
X145485733Y-116063329D01*
X145660609Y-116100500D01*
X145660610Y-116100500D01*
X145839389Y-116100500D01*
X145839391Y-116100500D01*
X146014267Y-116063329D01*
X146177593Y-115990612D01*
X146322230Y-115885526D01*
X146441859Y-115752665D01*
X146531250Y-115597835D01*
X146586497Y-115427803D01*
X146595182Y-115345168D01*
X146621765Y-115280556D01*
X146668070Y-115244851D01*
X146677593Y-115240612D01*
X146822230Y-115135526D01*
X146824913Y-115132547D01*
X146856167Y-115097835D01*
X146941859Y-115002665D01*
X147031250Y-114847835D01*
X147086497Y-114677803D01*
X147105185Y-114500000D01*
X147086497Y-114322197D01*
X147031250Y-114152165D01*
X146941859Y-113997335D01*
X146862672Y-113909389D01*
X146822235Y-113864478D01*
X146822232Y-113864476D01*
X146822231Y-113864475D01*
X146822230Y-113864474D01*
X146677593Y-113759388D01*
X146514267Y-113686671D01*
X146514265Y-113686670D01*
X146359395Y-113653752D01*
X146339391Y-113649500D01*
X146160609Y-113649500D01*
X146140605Y-113653752D01*
X145985733Y-113686670D01*
X145985728Y-113686672D01*
X145822408Y-113759388D01*
X145816775Y-113762640D01*
X145816097Y-113761465D01*
X145757064Y-113782521D01*
X145689012Y-113766687D01*
X145678207Y-113759742D01*
X145677597Y-113759390D01*
X145677593Y-113759388D01*
X145514267Y-113686671D01*
X145514265Y-113686670D01*
X145359395Y-113653752D01*
X145339391Y-113649500D01*
X145160609Y-113649500D01*
X145140605Y-113653752D01*
X144985733Y-113686670D01*
X144985728Y-113686672D01*
X144822408Y-113759387D01*
X144677768Y-113864475D01*
X144558140Y-113997336D01*
X144468750Y-114152164D01*
X144468747Y-114152170D01*
X144413504Y-114322192D01*
X144413503Y-114322194D01*
X144394815Y-114500000D01*
X122550139Y-114500000D01*
X122550128Y-114433906D01*
X122516841Y-114266702D01*
X122451576Y-114109204D01*
X122356840Y-113967463D01*
X122236274Y-113846927D01*
X122236273Y-113846926D01*
X122236271Y-113846924D01*
X122094516Y-113752228D01*
X122094512Y-113752226D01*
X122094513Y-113752226D01*
X122094511Y-113752225D01*
X121936997Y-113686998D01*
X121936995Y-113686997D01*
X121936986Y-113686995D01*
X121825319Y-113664793D01*
X121763405Y-113632414D01*
X121728826Y-113571701D01*
X121725500Y-113543174D01*
X121725500Y-112460452D01*
X121745185Y-112393413D01*
X121761819Y-112372771D01*
X121957455Y-112177135D01*
X168724500Y-112177135D01*
X168724500Y-114822870D01*
X168724501Y-114822876D01*
X168730908Y-114882483D01*
X168781202Y-115017328D01*
X168781206Y-115017335D01*
X168867452Y-115132544D01*
X168867455Y-115132547D01*
X168982664Y-115218793D01*
X168982671Y-115218797D01*
X169117517Y-115269091D01*
X169117516Y-115269091D01*
X169124444Y-115269835D01*
X169177127Y-115275500D01*
X171822872Y-115275499D01*
X171882483Y-115269091D01*
X172017331Y-115218796D01*
X172132546Y-115132546D01*
X172218796Y-115017331D01*
X172269091Y-114882483D01*
X172275500Y-114822873D01*
X172275500Y-114750000D01*
X177644815Y-114750000D01*
X177663503Y-114927805D01*
X177663504Y-114927807D01*
X177718747Y-115097829D01*
X177718750Y-115097835D01*
X177808141Y-115252665D01*
X177841844Y-115290096D01*
X177927764Y-115385521D01*
X177927767Y-115385523D01*
X177927770Y-115385526D01*
X178072407Y-115490612D01*
X178235733Y-115563329D01*
X178410609Y-115600500D01*
X178410610Y-115600500D01*
X178589389Y-115600500D01*
X178589391Y-115600500D01*
X178764267Y-115563329D01*
X178927593Y-115490612D01*
X179072230Y-115385526D01*
X179191859Y-115252665D01*
X179281250Y-115097835D01*
X179336497Y-114927803D01*
X179355185Y-114750000D01*
X179336497Y-114572197D01*
X179296519Y-114449157D01*
X179281252Y-114402170D01*
X179281249Y-114402164D01*
X179191859Y-114247335D01*
X179106172Y-114152170D01*
X179072235Y-114114478D01*
X179072232Y-114114476D01*
X179072231Y-114114475D01*
X179072230Y-114114474D01*
X178927593Y-114009388D01*
X178764267Y-113936671D01*
X178764265Y-113936670D01*
X178635906Y-113909387D01*
X178589391Y-113899500D01*
X178410609Y-113899500D01*
X178379954Y-113906015D01*
X178235733Y-113936670D01*
X178235728Y-113936672D01*
X178072408Y-114009387D01*
X177927768Y-114114475D01*
X177808140Y-114247336D01*
X177718750Y-114402164D01*
X177718747Y-114402170D01*
X177663504Y-114572192D01*
X177663503Y-114572194D01*
X177644815Y-114750000D01*
X172275500Y-114750000D01*
X172275499Y-112177128D01*
X172269091Y-112117517D01*
X172253047Y-112074502D01*
X172218797Y-111982671D01*
X172218793Y-111982664D01*
X172132547Y-111867455D01*
X172132544Y-111867452D01*
X172017335Y-111781206D01*
X172017328Y-111781202D01*
X171882482Y-111730908D01*
X171882483Y-111730908D01*
X171822883Y-111724501D01*
X171822881Y-111724500D01*
X171822873Y-111724500D01*
X171822864Y-111724500D01*
X169177129Y-111724500D01*
X169177123Y-111724501D01*
X169117516Y-111730908D01*
X168982671Y-111781202D01*
X168982664Y-111781206D01*
X168867455Y-111867452D01*
X168867452Y-111867455D01*
X168781206Y-111982664D01*
X168781202Y-111982671D01*
X168730908Y-112117517D01*
X168727908Y-112145427D01*
X168724501Y-112177123D01*
X168724500Y-112177135D01*
X121957455Y-112177135D01*
X122470449Y-111664142D01*
X123185858Y-110948733D01*
X123254312Y-110846285D01*
X123294194Y-110750000D01*
X153644815Y-110750000D01*
X153663503Y-110927805D01*
X153663504Y-110927807D01*
X153718747Y-111097829D01*
X153718750Y-111097835D01*
X153808141Y-111252665D01*
X153849812Y-111298946D01*
X153927764Y-111385521D01*
X153927767Y-111385523D01*
X153927770Y-111385526D01*
X154072407Y-111490612D01*
X154235733Y-111563329D01*
X154410609Y-111600500D01*
X154410610Y-111600500D01*
X154411313Y-111600574D01*
X154411692Y-111600730D01*
X154416966Y-111601851D01*
X154416760Y-111602815D01*
X154475926Y-111627160D01*
X154505734Y-111661894D01*
X154545580Y-111730908D01*
X154558141Y-111752665D01*
X154583836Y-111781202D01*
X154677764Y-111885521D01*
X154677767Y-111885523D01*
X154677770Y-111885526D01*
X154822407Y-111990612D01*
X154985733Y-112063329D01*
X155160609Y-112100500D01*
X155160610Y-112100500D01*
X155339389Y-112100500D01*
X155339391Y-112100500D01*
X155514267Y-112063329D01*
X155677593Y-111990612D01*
X155822230Y-111885526D01*
X155941859Y-111752665D01*
X156031250Y-111597835D01*
X156086497Y-111427803D01*
X156105185Y-111250000D01*
X156086497Y-111072197D01*
X156039581Y-110927805D01*
X156031252Y-110902170D01*
X156031251Y-110902169D01*
X156031250Y-110902165D01*
X155979190Y-110811996D01*
X155962719Y-110744101D01*
X155979190Y-110688004D01*
X156031250Y-110597835D01*
X156086497Y-110427803D01*
X156105185Y-110250000D01*
X156086497Y-110072197D01*
X156045225Y-109945176D01*
X156031252Y-109902170D01*
X156031249Y-109902164D01*
X156029711Y-109899500D01*
X155943398Y-109750000D01*
X157394815Y-109750000D01*
X157413503Y-109927805D01*
X157413504Y-109927807D01*
X157468747Y-110097829D01*
X157468750Y-110097835D01*
X157558139Y-110252662D01*
X157558139Y-110252663D01*
X157677764Y-110385521D01*
X157677767Y-110385523D01*
X157677770Y-110385526D01*
X157822407Y-110490612D01*
X157985733Y-110563329D01*
X158160609Y-110600500D01*
X158160610Y-110600500D01*
X158339389Y-110600500D01*
X158339391Y-110600500D01*
X158514267Y-110563329D01*
X158677593Y-110490612D01*
X158822230Y-110385526D01*
X158941859Y-110252665D01*
X159031250Y-110097835D01*
X159086497Y-109927803D01*
X159105185Y-109750000D01*
X159086497Y-109572197D01*
X159047524Y-109452251D01*
X159031252Y-109402170D01*
X159031249Y-109402164D01*
X159000857Y-109349523D01*
X158941859Y-109247335D01*
X158895003Y-109195296D01*
X158822235Y-109114478D01*
X158822232Y-109114476D01*
X158822231Y-109114475D01*
X158822230Y-109114474D01*
X158677593Y-109009388D01*
X158514267Y-108936671D01*
X158514265Y-108936670D01*
X158386594Y-108909533D01*
X158339391Y-108899500D01*
X158160609Y-108899500D01*
X158129954Y-108906015D01*
X157985733Y-108936670D01*
X157985728Y-108936672D01*
X157822408Y-109009387D01*
X157677768Y-109114475D01*
X157558140Y-109247336D01*
X157468750Y-109402164D01*
X157468747Y-109402170D01*
X157413504Y-109572192D01*
X157413503Y-109572194D01*
X157394815Y-109750000D01*
X155943398Y-109750000D01*
X155941859Y-109747335D01*
X155876937Y-109675232D01*
X155822235Y-109614478D01*
X155822232Y-109614476D01*
X155822231Y-109614475D01*
X155822230Y-109614474D01*
X155677593Y-109509388D01*
X155514267Y-109436671D01*
X155514265Y-109436670D01*
X155351952Y-109402170D01*
X155339391Y-109399500D01*
X155160609Y-109399500D01*
X155148048Y-109402170D01*
X154985733Y-109436670D01*
X154985728Y-109436672D01*
X154822408Y-109509387D01*
X154677768Y-109614475D01*
X154558139Y-109747336D01*
X154505734Y-109838105D01*
X154455167Y-109886321D01*
X154416883Y-109897763D01*
X154416966Y-109898149D01*
X154412210Y-109899159D01*
X154411330Y-109899423D01*
X154410621Y-109899497D01*
X154235733Y-109936670D01*
X154235728Y-109936672D01*
X154072408Y-110009387D01*
X153927768Y-110114475D01*
X153808140Y-110247336D01*
X153718750Y-110402164D01*
X153718747Y-110402170D01*
X153663504Y-110572192D01*
X153663503Y-110572194D01*
X153644815Y-110750000D01*
X123294194Y-110750000D01*
X123301463Y-110732451D01*
X123325501Y-110611606D01*
X123325501Y-110488393D01*
X123325501Y-110483283D01*
X123325500Y-110483257D01*
X123325500Y-109891810D01*
X123345185Y-109824771D01*
X123397989Y-109779016D01*
X123467147Y-109769072D01*
X123490458Y-109774770D01*
X123519344Y-109784878D01*
X123520745Y-109785368D01*
X123520747Y-109785368D01*
X123520750Y-109785369D01*
X123699996Y-109805565D01*
X123700000Y-109805565D01*
X123700004Y-109805565D01*
X123879249Y-109785369D01*
X123879252Y-109785368D01*
X123879255Y-109785368D01*
X124049522Y-109725789D01*
X124202262Y-109629816D01*
X124329816Y-109502262D01*
X124425789Y-109349522D01*
X124485368Y-109179255D01*
X124485531Y-109177807D01*
X124505565Y-109000003D01*
X124505565Y-108999996D01*
X124485369Y-108820748D01*
X124485368Y-108820745D01*
X124482125Y-108811478D01*
X124425789Y-108650478D01*
X124329816Y-108497738D01*
X124202262Y-108370184D01*
X124159028Y-108343018D01*
X124049523Y-108274211D01*
X123879254Y-108214631D01*
X123879249Y-108214630D01*
X123700004Y-108194435D01*
X123699996Y-108194435D01*
X123520750Y-108214630D01*
X123520737Y-108214633D01*
X123350479Y-108274209D01*
X123265971Y-108327309D01*
X123198734Y-108346309D01*
X123134029Y-108327309D01*
X123049520Y-108274209D01*
X122879262Y-108214633D01*
X122879249Y-108214630D01*
X122700004Y-108194435D01*
X122699996Y-108194435D01*
X122520750Y-108214630D01*
X122520745Y-108214631D01*
X122350476Y-108274211D01*
X122197737Y-108370184D01*
X122070184Y-108497737D01*
X121974209Y-108650480D01*
X121942041Y-108742411D01*
X121901320Y-108799187D01*
X121836367Y-108824934D01*
X121767805Y-108811478D01*
X121717403Y-108763090D01*
X121707959Y-108742411D01*
X121675790Y-108650480D01*
X121675789Y-108650478D01*
X121579816Y-108497738D01*
X121452262Y-108370184D01*
X121409028Y-108343018D01*
X121299523Y-108274211D01*
X121129254Y-108214631D01*
X121129249Y-108214630D01*
X120950004Y-108194435D01*
X120949996Y-108194435D01*
X120770750Y-108214630D01*
X120770745Y-108214631D01*
X120600476Y-108274211D01*
X120490972Y-108343018D01*
X120423735Y-108362018D01*
X120359028Y-108343018D01*
X120249523Y-108274211D01*
X120079254Y-108214631D01*
X120079249Y-108214630D01*
X119900004Y-108194435D01*
X119899996Y-108194435D01*
X119720750Y-108214630D01*
X119720745Y-108214631D01*
X119550476Y-108274211D01*
X119397737Y-108370184D01*
X119362681Y-108405241D01*
X119301358Y-108438726D01*
X119231666Y-108433742D01*
X119187319Y-108405241D01*
X119152262Y-108370184D01*
X118999523Y-108274211D01*
X118829254Y-108214631D01*
X118829249Y-108214630D01*
X118650004Y-108194435D01*
X118649996Y-108194435D01*
X118470750Y-108214630D01*
X118470745Y-108214631D01*
X118300476Y-108274211D01*
X118147737Y-108370184D01*
X118087681Y-108430241D01*
X118026358Y-108463726D01*
X117956666Y-108458742D01*
X117912319Y-108430241D01*
X117852262Y-108370184D01*
X117699523Y-108274211D01*
X117529254Y-108214631D01*
X117529249Y-108214630D01*
X117350004Y-108194435D01*
X117349996Y-108194435D01*
X117170750Y-108214630D01*
X117170745Y-108214631D01*
X117000476Y-108274211D01*
X116847737Y-108370184D01*
X116812681Y-108405241D01*
X116751358Y-108438726D01*
X116681666Y-108433742D01*
X116637319Y-108405241D01*
X116602262Y-108370184D01*
X116449523Y-108274211D01*
X116279254Y-108214631D01*
X116279249Y-108214630D01*
X116100004Y-108194435D01*
X116099996Y-108194435D01*
X115920750Y-108214630D01*
X115920745Y-108214631D01*
X115750476Y-108274211D01*
X115597737Y-108370184D01*
X115512681Y-108455241D01*
X115451358Y-108488726D01*
X115381666Y-108483742D01*
X115337319Y-108455241D01*
X115252262Y-108370184D01*
X115099523Y-108274211D01*
X114929254Y-108214631D01*
X114929249Y-108214630D01*
X114750004Y-108194435D01*
X114749996Y-108194435D01*
X114570750Y-108214630D01*
X114570745Y-108214631D01*
X114400476Y-108274211D01*
X114247737Y-108370184D01*
X114216593Y-108401329D01*
X114155270Y-108434814D01*
X114085578Y-108429830D01*
X114041231Y-108401329D01*
X114010086Y-108370184D01*
X113857347Y-108274211D01*
X113687078Y-108214631D01*
X113687073Y-108214630D01*
X113507828Y-108194435D01*
X113507820Y-108194435D01*
X113328574Y-108214630D01*
X113328569Y-108214631D01*
X113158300Y-108274211D01*
X113005561Y-108370184D01*
X112966593Y-108409153D01*
X112905270Y-108442638D01*
X112835578Y-108437654D01*
X112791231Y-108409153D01*
X112752262Y-108370184D01*
X112599523Y-108274211D01*
X112429254Y-108214631D01*
X112429249Y-108214630D01*
X112250004Y-108194435D01*
X112249996Y-108194435D01*
X112070750Y-108214630D01*
X112070745Y-108214631D01*
X111900476Y-108274211D01*
X111747736Y-108370185D01*
X111724175Y-108393746D01*
X111662851Y-108427230D01*
X111593159Y-108422244D01*
X111544344Y-108389034D01*
X111522234Y-108364477D01*
X111522232Y-108364476D01*
X111522231Y-108364475D01*
X111522230Y-108364474D01*
X111377593Y-108259388D01*
X111214267Y-108186671D01*
X111214265Y-108186670D01*
X111086594Y-108159533D01*
X111039391Y-108149500D01*
X110860609Y-108149500D01*
X110829954Y-108156015D01*
X110685733Y-108186670D01*
X110685728Y-108186672D01*
X110522408Y-108259387D01*
X110377768Y-108364475D01*
X110258140Y-108497336D01*
X110168750Y-108652164D01*
X110168747Y-108652170D01*
X110113504Y-108822192D01*
X110113503Y-108822194D01*
X110094815Y-109000000D01*
X109154312Y-109000000D01*
X109133973Y-108897749D01*
X109069388Y-108741827D01*
X109062323Y-108724771D01*
X109062318Y-108724762D01*
X108958302Y-108569092D01*
X108958299Y-108569088D01*
X108825911Y-108436700D01*
X108825907Y-108436697D01*
X108670237Y-108332681D01*
X108670228Y-108332676D01*
X108497251Y-108261027D01*
X108497243Y-108261025D01*
X108313620Y-108224500D01*
X108313616Y-108224500D01*
X107026384Y-108224500D01*
X107026379Y-108224500D01*
X106842756Y-108261025D01*
X106842748Y-108261027D01*
X106669771Y-108332676D01*
X106669762Y-108332681D01*
X106514092Y-108436697D01*
X106514088Y-108436700D01*
X106381700Y-108569088D01*
X106381697Y-108569092D01*
X106277681Y-108724762D01*
X106277676Y-108724771D01*
X106206027Y-108897748D01*
X106206025Y-108897756D01*
X106169500Y-109081379D01*
X104850499Y-109081379D01*
X104813973Y-108897749D01*
X104749388Y-108741827D01*
X104742323Y-108724771D01*
X104742318Y-108724762D01*
X104638302Y-108569092D01*
X104638299Y-108569088D01*
X104505911Y-108436700D01*
X104505907Y-108436697D01*
X104350237Y-108332681D01*
X104350228Y-108332676D01*
X104177251Y-108261027D01*
X104177243Y-108261025D01*
X103993620Y-108224500D01*
X103993616Y-108224500D01*
X103006384Y-108224500D01*
X103006379Y-108224500D01*
X102822756Y-108261025D01*
X102822748Y-108261027D01*
X102721953Y-108302778D01*
X102652483Y-108310247D01*
X102590004Y-108278972D01*
X102554352Y-108218883D01*
X102550500Y-108188217D01*
X102550500Y-107524000D01*
X102570185Y-107456961D01*
X102622989Y-107411206D01*
X102674500Y-107400000D01*
X108200000Y-107400000D01*
X108200000Y-106500000D01*
X135144815Y-106500000D01*
X135163503Y-106677805D01*
X135163504Y-106677807D01*
X135218747Y-106847829D01*
X135218750Y-106847835D01*
X135308141Y-107002665D01*
X135349812Y-107048946D01*
X135427764Y-107135521D01*
X135427767Y-107135523D01*
X135427770Y-107135526D01*
X135572407Y-107240612D01*
X135735733Y-107313329D01*
X135910609Y-107350500D01*
X135910610Y-107350500D01*
X136089389Y-107350500D01*
X136089391Y-107350500D01*
X136264267Y-107313329D01*
X136427593Y-107240612D01*
X136427597Y-107240608D01*
X136433224Y-107237361D01*
X136433904Y-107238539D01*
X136492911Y-107217480D01*
X136560966Y-107233300D01*
X136571783Y-107240252D01*
X136572402Y-107240609D01*
X136572404Y-107240610D01*
X136572407Y-107240612D01*
X136735733Y-107313329D01*
X136910609Y-107350500D01*
X136910610Y-107350500D01*
X137089389Y-107350500D01*
X137089391Y-107350500D01*
X137264267Y-107313329D01*
X137427593Y-107240612D01*
X137572230Y-107135526D01*
X137597423Y-107107547D01*
X137610782Y-107092710D01*
X137691859Y-107002665D01*
X137781250Y-106847835D01*
X137836497Y-106677803D01*
X137855185Y-106500000D01*
X137836497Y-106322197D01*
X137781250Y-106152165D01*
X137691859Y-105997335D01*
X137649223Y-105949983D01*
X165249500Y-105949983D01*
X165249500Y-106550001D01*
X165249501Y-106550019D01*
X165260000Y-106652796D01*
X165260001Y-106652799D01*
X165308078Y-106797883D01*
X165315186Y-106819334D01*
X165407288Y-106968656D01*
X165531344Y-107092712D01*
X165680666Y-107184814D01*
X165847203Y-107239999D01*
X165949991Y-107250500D01*
X166550008Y-107250499D01*
X166550016Y-107250498D01*
X166550019Y-107250498D01*
X166612739Y-107244091D01*
X166652797Y-107239999D01*
X166819334Y-107184814D01*
X166968656Y-107092712D01*
X167092712Y-106968656D01*
X167184814Y-106819334D01*
X167239999Y-106652797D01*
X167250500Y-106550009D01*
X167250499Y-105949992D01*
X167239999Y-105847203D01*
X167191928Y-105702135D01*
X170249500Y-105702135D01*
X170249500Y-106797870D01*
X170249501Y-106797876D01*
X170255908Y-106857483D01*
X170306202Y-106992328D01*
X170306206Y-106992335D01*
X170392452Y-107107544D01*
X170392455Y-107107547D01*
X170507664Y-107193793D01*
X170507671Y-107193797D01*
X170642517Y-107244091D01*
X170642516Y-107244091D01*
X170649444Y-107244835D01*
X170702127Y-107250500D01*
X171797872Y-107250499D01*
X171857483Y-107244091D01*
X171992331Y-107193796D01*
X172107546Y-107107546D01*
X172193796Y-106992331D01*
X172244091Y-106857483D01*
X172250500Y-106797873D01*
X172250499Y-105702128D01*
X172244091Y-105642517D01*
X172217863Y-105572197D01*
X172193797Y-105507671D01*
X172193793Y-105507664D01*
X172107547Y-105392455D01*
X172107544Y-105392452D01*
X171992335Y-105306206D01*
X171992328Y-105306202D01*
X171857482Y-105255908D01*
X171857483Y-105255908D01*
X171797883Y-105249501D01*
X171797881Y-105249500D01*
X171797873Y-105249500D01*
X171797864Y-105249500D01*
X170702129Y-105249500D01*
X170702123Y-105249501D01*
X170642516Y-105255908D01*
X170507671Y-105306202D01*
X170507664Y-105306206D01*
X170392455Y-105392452D01*
X170392452Y-105392455D01*
X170306206Y-105507664D01*
X170306202Y-105507671D01*
X170255908Y-105642517D01*
X170251807Y-105680666D01*
X170249501Y-105702123D01*
X170249500Y-105702135D01*
X167191928Y-105702135D01*
X167184814Y-105680666D01*
X167092712Y-105531344D01*
X166968656Y-105407288D01*
X166819334Y-105315186D01*
X166652797Y-105260001D01*
X166652795Y-105260000D01*
X166550010Y-105249500D01*
X165949998Y-105249500D01*
X165949980Y-105249501D01*
X165847203Y-105260000D01*
X165847200Y-105260001D01*
X165680668Y-105315185D01*
X165680663Y-105315187D01*
X165531342Y-105407289D01*
X165407289Y-105531342D01*
X165315187Y-105680663D01*
X165315185Y-105680668D01*
X165308074Y-105702128D01*
X165260001Y-105847203D01*
X165260001Y-105847204D01*
X165260000Y-105847204D01*
X165249500Y-105949983D01*
X137649223Y-105949983D01*
X137645003Y-105945296D01*
X137572235Y-105864478D01*
X137572232Y-105864476D01*
X137572231Y-105864475D01*
X137572230Y-105864474D01*
X137427593Y-105759388D01*
X137427592Y-105759387D01*
X137427590Y-105759386D01*
X137418064Y-105755145D01*
X137364828Y-105709894D01*
X137345182Y-105654830D01*
X137336497Y-105572197D01*
X137297999Y-105453714D01*
X137281252Y-105402170D01*
X137281249Y-105402164D01*
X137231033Y-105315187D01*
X137191859Y-105247335D01*
X137138784Y-105188389D01*
X137072235Y-105114478D01*
X137072232Y-105114476D01*
X137072231Y-105114475D01*
X137072230Y-105114474D01*
X136927593Y-105009388D01*
X136764267Y-104936671D01*
X136764265Y-104936670D01*
X136636594Y-104909533D01*
X136589391Y-104899500D01*
X136410609Y-104899500D01*
X136379954Y-104906015D01*
X136235733Y-104936670D01*
X136235728Y-104936672D01*
X136072408Y-105009387D01*
X135927768Y-105114475D01*
X135808140Y-105247336D01*
X135718750Y-105402164D01*
X135718747Y-105402170D01*
X135663504Y-105572192D01*
X135663502Y-105572203D01*
X135654816Y-105654831D01*
X135628231Y-105719445D01*
X135581939Y-105755143D01*
X135572411Y-105759385D01*
X135427768Y-105864475D01*
X135308140Y-105997336D01*
X135218750Y-106152164D01*
X135218747Y-106152170D01*
X135163504Y-106322192D01*
X135163503Y-106322194D01*
X135144815Y-106500000D01*
X108200000Y-106500000D01*
X108200000Y-103399996D01*
X123294435Y-103399996D01*
X123294435Y-103400003D01*
X123314630Y-103579249D01*
X123314631Y-103579254D01*
X123374211Y-103749523D01*
X123374511Y-103750000D01*
X123470184Y-103902262D01*
X123597738Y-104029816D01*
X123688080Y-104086582D01*
X123705989Y-104097835D01*
X123750478Y-104125789D01*
X123920745Y-104185368D01*
X123920750Y-104185369D01*
X124099996Y-104205565D01*
X124100000Y-104205565D01*
X124100004Y-104205565D01*
X124279249Y-104185369D01*
X124279252Y-104185368D01*
X124279255Y-104185368D01*
X124449522Y-104125789D01*
X124602262Y-104029816D01*
X124729816Y-103902262D01*
X124825489Y-103750000D01*
X153394815Y-103750000D01*
X153413503Y-103927805D01*
X153413504Y-103927807D01*
X153468747Y-104097829D01*
X153468750Y-104097835D01*
X153558141Y-104252665D01*
X153599812Y-104298946D01*
X153677764Y-104385521D01*
X153677767Y-104385523D01*
X153677770Y-104385526D01*
X153822407Y-104490612D01*
X153985733Y-104563329D01*
X154160609Y-104600500D01*
X154160610Y-104600500D01*
X154339389Y-104600500D01*
X154339391Y-104600500D01*
X154514267Y-104563329D01*
X154677593Y-104490612D01*
X154822230Y-104385526D01*
X154941859Y-104252665D01*
X155031250Y-104097835D01*
X155086497Y-103927803D01*
X155105185Y-103750000D01*
X155086497Y-103572197D01*
X155031250Y-103402165D01*
X154941859Y-103247335D01*
X154895003Y-103195296D01*
X154822235Y-103114478D01*
X154822232Y-103114476D01*
X154822231Y-103114475D01*
X154822230Y-103114474D01*
X154677593Y-103009388D01*
X154514267Y-102936671D01*
X154514265Y-102936670D01*
X154386594Y-102909533D01*
X154339391Y-102899500D01*
X154160609Y-102899500D01*
X154129954Y-102906015D01*
X153985733Y-102936670D01*
X153985728Y-102936672D01*
X153822408Y-103009387D01*
X153677768Y-103114475D01*
X153558140Y-103247336D01*
X153468750Y-103402164D01*
X153468747Y-103402170D01*
X153413504Y-103572192D01*
X153413503Y-103572194D01*
X153394815Y-103750000D01*
X124825489Y-103750000D01*
X124825789Y-103749522D01*
X124885368Y-103579255D01*
X124885759Y-103575788D01*
X124905565Y-103400003D01*
X124905565Y-103399996D01*
X124885369Y-103220750D01*
X124885368Y-103220745D01*
X124877942Y-103199522D01*
X124825789Y-103050478D01*
X124799970Y-103009388D01*
X124754279Y-102936671D01*
X124729816Y-102897738D01*
X124602262Y-102770184D01*
X124449523Y-102674211D01*
X124279254Y-102614631D01*
X124279249Y-102614630D01*
X124100004Y-102594435D01*
X124099996Y-102594435D01*
X123920750Y-102614630D01*
X123920745Y-102614631D01*
X123750476Y-102674211D01*
X123597737Y-102770184D01*
X123470184Y-102897737D01*
X123374211Y-103050476D01*
X123314631Y-103220745D01*
X123314630Y-103220750D01*
X123294435Y-103399996D01*
X108200000Y-103399996D01*
X108200000Y-98999996D01*
X128044435Y-98999996D01*
X128044435Y-99000003D01*
X128064630Y-99179249D01*
X128064631Y-99179254D01*
X128124211Y-99349523D01*
X128220184Y-99502262D01*
X128255241Y-99537319D01*
X128288726Y-99598642D01*
X128283742Y-99668334D01*
X128255241Y-99712681D01*
X128220184Y-99747737D01*
X128124211Y-99900476D01*
X128064631Y-100070745D01*
X128064630Y-100070750D01*
X128044435Y-100249996D01*
X128044435Y-100250003D01*
X128064630Y-100429249D01*
X128064631Y-100429254D01*
X128124211Y-100599523D01*
X128220184Y-100752262D01*
X128280241Y-100812319D01*
X128313726Y-100873642D01*
X128308742Y-100943334D01*
X128280241Y-100987681D01*
X128220184Y-101047737D01*
X128124211Y-101200476D01*
X128064631Y-101370745D01*
X128064630Y-101370750D01*
X128044435Y-101549996D01*
X128044435Y-101550003D01*
X128064630Y-101729249D01*
X128064631Y-101729254D01*
X128124211Y-101899523D01*
X128220184Y-102052262D01*
X128280241Y-102112319D01*
X128313726Y-102173642D01*
X128308742Y-102243334D01*
X128280241Y-102287681D01*
X128220184Y-102347737D01*
X128124211Y-102500476D01*
X128064631Y-102670745D01*
X128064630Y-102670750D01*
X128044435Y-102849996D01*
X128044435Y-102850003D01*
X128064630Y-103029249D01*
X128064631Y-103029254D01*
X128124211Y-103199523D01*
X128220184Y-103352262D01*
X128347738Y-103479816D01*
X128438080Y-103536582D01*
X128494756Y-103572194D01*
X128500478Y-103575789D01*
X128670745Y-103635368D01*
X128670750Y-103635369D01*
X128849996Y-103655565D01*
X128850000Y-103655565D01*
X128850004Y-103655565D01*
X129029249Y-103635369D01*
X129029252Y-103635368D01*
X129029255Y-103635368D01*
X129199522Y-103575789D01*
X129352262Y-103479816D01*
X129479816Y-103352262D01*
X129575789Y-103199522D01*
X129635368Y-103029255D01*
X129635369Y-103029249D01*
X129655565Y-102850003D01*
X129655565Y-102849996D01*
X129635369Y-102670750D01*
X129635368Y-102670745D01*
X129615733Y-102614631D01*
X129575789Y-102500478D01*
X129479816Y-102347738D01*
X129419759Y-102287681D01*
X129386274Y-102226358D01*
X129391258Y-102156666D01*
X129419759Y-102112319D01*
X129479816Y-102052262D01*
X129575789Y-101899522D01*
X129635368Y-101729255D01*
X129642966Y-101661819D01*
X129655565Y-101550003D01*
X129655565Y-101549996D01*
X129635369Y-101370750D01*
X129635368Y-101370745D01*
X129575788Y-101200476D01*
X129479815Y-101047737D01*
X129419759Y-100987681D01*
X129386274Y-100926358D01*
X129391258Y-100856666D01*
X129419759Y-100812319D01*
X129479816Y-100752262D01*
X129575789Y-100599522D01*
X129635368Y-100429255D01*
X129655565Y-100250000D01*
X129635368Y-100070745D01*
X129575789Y-99900478D01*
X129479816Y-99747738D01*
X129444759Y-99712681D01*
X129411274Y-99651358D01*
X129416258Y-99581666D01*
X129444759Y-99537319D01*
X129479816Y-99502262D01*
X129575789Y-99349522D01*
X129635368Y-99179255D01*
X129655565Y-99000000D01*
X129635368Y-98820745D01*
X129575789Y-98650478D01*
X129574968Y-98649172D01*
X129510896Y-98547202D01*
X129479816Y-98497738D01*
X129352262Y-98370184D01*
X129319379Y-98349522D01*
X129199523Y-98274211D01*
X129029254Y-98214631D01*
X129029249Y-98214630D01*
X128850004Y-98194435D01*
X128849996Y-98194435D01*
X128670750Y-98214630D01*
X128670745Y-98214631D01*
X128500476Y-98274211D01*
X128347737Y-98370184D01*
X128220184Y-98497737D01*
X128124211Y-98650476D01*
X128064631Y-98820745D01*
X128064630Y-98820750D01*
X128044435Y-98999996D01*
X108200000Y-98999996D01*
X108200000Y-90499996D01*
X111444435Y-90499996D01*
X111444435Y-90500003D01*
X111464630Y-90679249D01*
X111464631Y-90679254D01*
X111524211Y-90849523D01*
X111588767Y-90952262D01*
X111620184Y-91002262D01*
X111747738Y-91129816D01*
X111820902Y-91175788D01*
X111890026Y-91219222D01*
X111900478Y-91225789D01*
X111985573Y-91255565D01*
X112070745Y-91285368D01*
X112070750Y-91285369D01*
X112249996Y-91305565D01*
X112250000Y-91305565D01*
X112250004Y-91305565D01*
X112429249Y-91285369D01*
X112429252Y-91285368D01*
X112429255Y-91285368D01*
X112599522Y-91225789D01*
X112752262Y-91129816D01*
X112879816Y-91002262D01*
X112975789Y-90849522D01*
X113035368Y-90679255D01*
X113035369Y-90679249D01*
X113055565Y-90500003D01*
X113055565Y-90499996D01*
X113035369Y-90320750D01*
X113035368Y-90320745D01*
X112979757Y-90161818D01*
X112975789Y-90150478D01*
X112879816Y-89997738D01*
X112752262Y-89870184D01*
X112599523Y-89774211D01*
X112429254Y-89714631D01*
X112429249Y-89714630D01*
X112250004Y-89694435D01*
X112249996Y-89694435D01*
X112070750Y-89714630D01*
X112070745Y-89714631D01*
X111900476Y-89774211D01*
X111747737Y-89870184D01*
X111620184Y-89997737D01*
X111524211Y-90150476D01*
X111464631Y-90320745D01*
X111464630Y-90320750D01*
X111444435Y-90499996D01*
X108200000Y-90499996D01*
X108200000Y-89400000D01*
X102674500Y-89400000D01*
X102607461Y-89380315D01*
X102561706Y-89327511D01*
X102550500Y-89276000D01*
X102550500Y-88749996D01*
X115294435Y-88749996D01*
X115294435Y-88750003D01*
X115314630Y-88929249D01*
X115314631Y-88929254D01*
X115374211Y-89099523D01*
X115457628Y-89232280D01*
X115470184Y-89252262D01*
X115597738Y-89379816D01*
X115688080Y-89436582D01*
X115706312Y-89448038D01*
X115750478Y-89475789D01*
X115893367Y-89525788D01*
X115920745Y-89535368D01*
X115920750Y-89535369D01*
X116099996Y-89555565D01*
X116100000Y-89555565D01*
X116100004Y-89555565D01*
X116279249Y-89535369D01*
X116279252Y-89535368D01*
X116279255Y-89535368D01*
X116449522Y-89475789D01*
X116602262Y-89379816D01*
X116729816Y-89252262D01*
X116825789Y-89099522D01*
X116825792Y-89099510D01*
X116828438Y-89094020D01*
X116831825Y-89086205D01*
X117023774Y-88718850D01*
X117045991Y-88688597D01*
X118572772Y-87161819D01*
X118634095Y-87128334D01*
X118660453Y-87125500D01*
X119070548Y-87125500D01*
X119137587Y-87145185D01*
X119183342Y-87197989D01*
X119193286Y-87267147D01*
X119164261Y-87330703D01*
X119158229Y-87337181D01*
X118691408Y-87804000D01*
X118661153Y-87826220D01*
X118293783Y-88018178D01*
X118285956Y-88021572D01*
X118280479Y-88024210D01*
X118127737Y-88120184D01*
X118000184Y-88247737D01*
X117904211Y-88400476D01*
X117844631Y-88570745D01*
X117844630Y-88570750D01*
X117824435Y-88749996D01*
X117824435Y-88750003D01*
X117844630Y-88929249D01*
X117844631Y-88929254D01*
X117904211Y-89099523D01*
X117987628Y-89232280D01*
X118000184Y-89252262D01*
X118127738Y-89379816D01*
X118218080Y-89436582D01*
X118236312Y-89448038D01*
X118280478Y-89475789D01*
X118423367Y-89525788D01*
X118450745Y-89535368D01*
X118450750Y-89535369D01*
X118629996Y-89555565D01*
X118630000Y-89555565D01*
X118630004Y-89555565D01*
X118809249Y-89535369D01*
X118809252Y-89535368D01*
X118809255Y-89535368D01*
X118979522Y-89475789D01*
X119132262Y-89379816D01*
X119259816Y-89252262D01*
X119355789Y-89099522D01*
X119355792Y-89099510D01*
X119358432Y-89094031D01*
X119361819Y-89086216D01*
X119553777Y-88718843D01*
X119575990Y-88688598D01*
X120102771Y-88161819D01*
X120164094Y-88128334D01*
X120190452Y-88125500D01*
X120454047Y-88125500D01*
X120521086Y-88145185D01*
X120566841Y-88197989D01*
X120576785Y-88267147D01*
X120559041Y-88315472D01*
X120474211Y-88450476D01*
X120414631Y-88620745D01*
X120414630Y-88620750D01*
X120394435Y-88799996D01*
X120394435Y-88800003D01*
X120414630Y-88979249D01*
X120414631Y-88979254D01*
X120474211Y-89149523D01*
X120538767Y-89252262D01*
X120570184Y-89302262D01*
X120697738Y-89429816D01*
X120770902Y-89475788D01*
X120837171Y-89517428D01*
X120850478Y-89525789D01*
X120920175Y-89550177D01*
X121020745Y-89585368D01*
X121020750Y-89585369D01*
X121199996Y-89605565D01*
X121200000Y-89605565D01*
X121200004Y-89605565D01*
X121379249Y-89585369D01*
X121379252Y-89585368D01*
X121379255Y-89585368D01*
X121549522Y-89525789D01*
X121702262Y-89429816D01*
X121829816Y-89302262D01*
X121872610Y-89234153D01*
X121875047Y-89230429D01*
X121897138Y-89197989D01*
X121909587Y-89179707D01*
X121963590Y-89135374D01*
X122012080Y-89125500D01*
X122590547Y-89125500D01*
X122657586Y-89145185D01*
X122703341Y-89197989D01*
X122713285Y-89267147D01*
X122684260Y-89330703D01*
X122678235Y-89337174D01*
X122585594Y-89429815D01*
X122511408Y-89504001D01*
X122481153Y-89526220D01*
X122113783Y-89718178D01*
X122105956Y-89721572D01*
X122100479Y-89724210D01*
X121947737Y-89820184D01*
X121820184Y-89947737D01*
X121724211Y-90100476D01*
X121664631Y-90270745D01*
X121664630Y-90270750D01*
X121644435Y-90449996D01*
X121644435Y-90450003D01*
X121664630Y-90629249D01*
X121664631Y-90629254D01*
X121724211Y-90799523D01*
X121799189Y-90918849D01*
X121820184Y-90952262D01*
X121947738Y-91079816D01*
X122100478Y-91175789D01*
X122255776Y-91230130D01*
X122270745Y-91235368D01*
X122270750Y-91235369D01*
X122449996Y-91255565D01*
X122450000Y-91255565D01*
X122450004Y-91255565D01*
X122629249Y-91235369D01*
X122629252Y-91235368D01*
X122629255Y-91235368D01*
X122799522Y-91175789D01*
X122952262Y-91079816D01*
X123079816Y-90952262D01*
X123175789Y-90799522D01*
X123175792Y-90799510D01*
X123178432Y-90794031D01*
X123181819Y-90786216D01*
X123373777Y-90418843D01*
X123395987Y-90388601D01*
X123622772Y-90161816D01*
X123684094Y-90128334D01*
X123710452Y-90125500D01*
X124042292Y-90125500D01*
X124109331Y-90145185D01*
X124155086Y-90197989D01*
X124164538Y-90263726D01*
X124165411Y-90263825D01*
X124144435Y-90449996D01*
X124144435Y-90450003D01*
X124164630Y-90629249D01*
X124164631Y-90629254D01*
X124224211Y-90799523D01*
X124299189Y-90918849D01*
X124320184Y-90952262D01*
X124447738Y-91079816D01*
X124600478Y-91175789D01*
X124755776Y-91230130D01*
X124770745Y-91235368D01*
X124770750Y-91235369D01*
X124949996Y-91255565D01*
X124950000Y-91255565D01*
X124950004Y-91255565D01*
X125129249Y-91235369D01*
X125129252Y-91235368D01*
X125129255Y-91235368D01*
X125299522Y-91175789D01*
X125452262Y-91079816D01*
X125579816Y-90952262D01*
X125675789Y-90799522D01*
X125735368Y-90629255D01*
X125739722Y-90590611D01*
X125749932Y-90499996D01*
X138694435Y-90499996D01*
X138694435Y-90500003D01*
X138714630Y-90679249D01*
X138714631Y-90679254D01*
X138774211Y-90849523D01*
X138838767Y-90952262D01*
X138870184Y-91002262D01*
X138997738Y-91129816D01*
X139070902Y-91175788D01*
X139140026Y-91219222D01*
X139150478Y-91225789D01*
X139235573Y-91255565D01*
X139320745Y-91285368D01*
X139320750Y-91285369D01*
X139499996Y-91305565D01*
X139500000Y-91305565D01*
X139500004Y-91305565D01*
X139679249Y-91285369D01*
X139679252Y-91285368D01*
X139679255Y-91285368D01*
X139849522Y-91225789D01*
X140002262Y-91129816D01*
X140129816Y-91002262D01*
X140225789Y-90849522D01*
X140285368Y-90679255D01*
X140285369Y-90679249D01*
X140305565Y-90500003D01*
X140305565Y-90499996D01*
X143194435Y-90499996D01*
X143194435Y-90500003D01*
X143214630Y-90679249D01*
X143214631Y-90679254D01*
X143274211Y-90849523D01*
X143338767Y-90952262D01*
X143370184Y-91002262D01*
X143497738Y-91129816D01*
X143570902Y-91175788D01*
X143640026Y-91219222D01*
X143650478Y-91225789D01*
X143735573Y-91255565D01*
X143820745Y-91285368D01*
X143820750Y-91285369D01*
X143999996Y-91305565D01*
X144000000Y-91305565D01*
X144000004Y-91305565D01*
X144179249Y-91285369D01*
X144179252Y-91285368D01*
X144179255Y-91285368D01*
X144349522Y-91225789D01*
X144502262Y-91129816D01*
X144629816Y-91002262D01*
X144725789Y-90849522D01*
X144785368Y-90679255D01*
X144785369Y-90679249D01*
X144805565Y-90500003D01*
X144805565Y-90499996D01*
X144785369Y-90320750D01*
X144785368Y-90320745D01*
X144729757Y-90161818D01*
X144725789Y-90150478D01*
X144629816Y-89997738D01*
X144502262Y-89870184D01*
X144349523Y-89774211D01*
X144179254Y-89714631D01*
X144179249Y-89714630D01*
X144000004Y-89694435D01*
X143999996Y-89694435D01*
X143820750Y-89714630D01*
X143820745Y-89714631D01*
X143650476Y-89774211D01*
X143497737Y-89870184D01*
X143370184Y-89997737D01*
X143274211Y-90150476D01*
X143214631Y-90320745D01*
X143214630Y-90320750D01*
X143194435Y-90499996D01*
X140305565Y-90499996D01*
X140285369Y-90320750D01*
X140285368Y-90320745D01*
X140229757Y-90161818D01*
X140225789Y-90150478D01*
X140129816Y-89997738D01*
X140002262Y-89870184D01*
X139849523Y-89774211D01*
X139679254Y-89714631D01*
X139679249Y-89714630D01*
X139500004Y-89694435D01*
X139499996Y-89694435D01*
X139320750Y-89714630D01*
X139320745Y-89714631D01*
X139150476Y-89774211D01*
X138997737Y-89870184D01*
X138870184Y-89997737D01*
X138774211Y-90150476D01*
X138714631Y-90320745D01*
X138714630Y-90320750D01*
X138694435Y-90499996D01*
X125749932Y-90499996D01*
X125755565Y-90450003D01*
X125755565Y-90449996D01*
X125734589Y-90263825D01*
X125737656Y-90263479D01*
X125741080Y-90207383D01*
X125782364Y-90151015D01*
X125847570Y-90125915D01*
X125857708Y-90125500D01*
X135811607Y-90125500D01*
X135872029Y-90113481D01*
X135932452Y-90101463D01*
X135979029Y-90082170D01*
X136046286Y-90054312D01*
X136102319Y-90016871D01*
X136102320Y-90016871D01*
X136133049Y-89996337D01*
X136148733Y-89985858D01*
X136235858Y-89898733D01*
X136235859Y-89898730D01*
X136242925Y-89891665D01*
X136242927Y-89891661D01*
X137222771Y-88911819D01*
X137284094Y-88878334D01*
X137310452Y-88875500D01*
X148561608Y-88875500D01*
X148561608Y-88875499D01*
X148639512Y-88860004D01*
X148639513Y-88860004D01*
X148654089Y-88857104D01*
X148682452Y-88851463D01*
X148715792Y-88837652D01*
X148796286Y-88804312D01*
X148856900Y-88763810D01*
X148856901Y-88763810D01*
X148884597Y-88745303D01*
X148898733Y-88735858D01*
X148985858Y-88648733D01*
X148985858Y-88648731D01*
X148996066Y-88638524D01*
X148996067Y-88638521D01*
X150791525Y-86843066D01*
X150852848Y-86809581D01*
X150879206Y-86806747D01*
X151063043Y-86806747D01*
X151130082Y-86826432D01*
X151175837Y-86879236D01*
X151186263Y-86916863D01*
X151201186Y-87049307D01*
X151250520Y-87190297D01*
X151254081Y-87260076D01*
X151250520Y-87272205D01*
X151201186Y-87413195D01*
X151182251Y-87581250D01*
X151182251Y-87581255D01*
X151201185Y-87749309D01*
X151257044Y-87908943D01*
X151258433Y-87911827D01*
X151258770Y-87913875D01*
X151259344Y-87915515D01*
X151259056Y-87915615D01*
X151269783Y-87980769D01*
X151258435Y-88019420D01*
X151257046Y-88022303D01*
X151201185Y-88181943D01*
X151182251Y-88349997D01*
X151182251Y-88350002D01*
X151201185Y-88518056D01*
X151257045Y-88677694D01*
X151257047Y-88677697D01*
X151347018Y-88820884D01*
X151347023Y-88820890D01*
X151466609Y-88940476D01*
X151466615Y-88940481D01*
X151609802Y-89030452D01*
X151609805Y-89030454D01*
X151609809Y-89030455D01*
X151609810Y-89030456D01*
X151682413Y-89055860D01*
X151769443Y-89086314D01*
X151937497Y-89105249D01*
X151937500Y-89105249D01*
X151937502Y-89105249D01*
X151986616Y-89099715D01*
X152055438Y-89111769D01*
X152106817Y-89159118D01*
X152124500Y-89222935D01*
X152124500Y-91727058D01*
X152104815Y-91794097D01*
X152052011Y-91839852D01*
X151986618Y-91850278D01*
X151937506Y-91844745D01*
X151937497Y-91844745D01*
X151769445Y-91863679D01*
X151769435Y-91863682D01*
X151733985Y-91876086D01*
X151707091Y-91882245D01*
X151703835Y-91882616D01*
X151368733Y-91970443D01*
X151337296Y-91974494D01*
X151222946Y-91974494D01*
X151155907Y-91954809D01*
X151135265Y-91938175D01*
X151052698Y-91855608D01*
X151052678Y-91855586D01*
X150961233Y-91764141D01*
X150910009Y-91729915D01*
X150858787Y-91695689D01*
X150858786Y-91695688D01*
X150858783Y-91695686D01*
X150858780Y-91695685D01*
X150778292Y-91662347D01*
X150744953Y-91648537D01*
X150734927Y-91646543D01*
X150684529Y-91636518D01*
X150624110Y-91624500D01*
X150624107Y-91624500D01*
X150624106Y-91624500D01*
X121960452Y-91624500D01*
X121893413Y-91604815D01*
X121872771Y-91588181D01*
X120845995Y-90561405D01*
X120823775Y-90531149D01*
X120631824Y-90163791D01*
X120628448Y-90156000D01*
X120625790Y-90150481D01*
X120625789Y-90150478D01*
X120529816Y-89997738D01*
X120402262Y-89870184D01*
X120249523Y-89774211D01*
X120079254Y-89714631D01*
X120079249Y-89714630D01*
X119900004Y-89694435D01*
X119899996Y-89694435D01*
X119720750Y-89714630D01*
X119720745Y-89714631D01*
X119550476Y-89774211D01*
X119397737Y-89870184D01*
X119270184Y-89997737D01*
X119174211Y-90150476D01*
X119114631Y-90320745D01*
X119114630Y-90320750D01*
X119094435Y-90499996D01*
X119094435Y-90500003D01*
X119114630Y-90679249D01*
X119114631Y-90679254D01*
X119174211Y-90849523D01*
X119238767Y-90952262D01*
X119270184Y-91002262D01*
X119397738Y-91129816D01*
X119470902Y-91175788D01*
X119550479Y-91225790D01*
X119555967Y-91228432D01*
X119563797Y-91231826D01*
X119931151Y-91423775D01*
X119961403Y-91445993D01*
X120978226Y-92462816D01*
X121011711Y-92524139D01*
X121006727Y-92593831D01*
X120964855Y-92649764D01*
X120899391Y-92674181D01*
X120890545Y-92674497D01*
X120460450Y-92674497D01*
X120393411Y-92654812D01*
X120372769Y-92638178D01*
X118295995Y-90561405D01*
X118273775Y-90531149D01*
X118081824Y-90163791D01*
X118078448Y-90156000D01*
X118075790Y-90150481D01*
X118075789Y-90150478D01*
X117979816Y-89997738D01*
X117852262Y-89870184D01*
X117699523Y-89774211D01*
X117529254Y-89714631D01*
X117529249Y-89714630D01*
X117350004Y-89694435D01*
X117349996Y-89694435D01*
X117170750Y-89714630D01*
X117170745Y-89714631D01*
X117000476Y-89774211D01*
X116847737Y-89870184D01*
X116720184Y-89997737D01*
X116624211Y-90150476D01*
X116564631Y-90320745D01*
X116564630Y-90320750D01*
X116544435Y-90499996D01*
X116544435Y-90500003D01*
X116564630Y-90679249D01*
X116564631Y-90679254D01*
X116624211Y-90849523D01*
X116688767Y-90952262D01*
X116720184Y-91002262D01*
X116847738Y-91129816D01*
X116920902Y-91175788D01*
X117000479Y-91225790D01*
X117005967Y-91228432D01*
X117013797Y-91231826D01*
X117381150Y-91423774D01*
X117411402Y-91445992D01*
X119751260Y-93785852D01*
X119751264Y-93785855D01*
X119853707Y-93854306D01*
X119853708Y-93854306D01*
X119853712Y-93854309D01*
X119916591Y-93880354D01*
X119967545Y-93901460D01*
X120088386Y-93925496D01*
X120088390Y-93925497D01*
X120088391Y-93925497D01*
X120211604Y-93925497D01*
X136034680Y-93925497D01*
X136101719Y-93945182D01*
X136147474Y-93997986D01*
X136157418Y-94067144D01*
X136128393Y-94130700D01*
X136069615Y-94168474D01*
X136060461Y-94170787D01*
X135985733Y-94186670D01*
X135985728Y-94186672D01*
X135822408Y-94259387D01*
X135677768Y-94364475D01*
X135558140Y-94497336D01*
X135468750Y-94652164D01*
X135468747Y-94652170D01*
X135413504Y-94822192D01*
X135413503Y-94822194D01*
X135394815Y-95000000D01*
X135413503Y-95177805D01*
X135413504Y-95177807D01*
X135468750Y-95347836D01*
X135520806Y-95438000D01*
X135537279Y-95505900D01*
X135520806Y-95562000D01*
X135468750Y-95652163D01*
X135413504Y-95822192D01*
X135413503Y-95822194D01*
X135394815Y-96000000D01*
X135413503Y-96177805D01*
X135413504Y-96177807D01*
X135468747Y-96347829D01*
X135468750Y-96347835D01*
X135549009Y-96486848D01*
X135565482Y-96554748D01*
X135546617Y-96614819D01*
X135524208Y-96650482D01*
X135464633Y-96820737D01*
X135464630Y-96820750D01*
X135444435Y-96999996D01*
X135444435Y-97000003D01*
X135464630Y-97179249D01*
X135464633Y-97179262D01*
X135524209Y-97349520D01*
X135577309Y-97434029D01*
X135596309Y-97501266D01*
X135577309Y-97565971D01*
X135524209Y-97650479D01*
X135464633Y-97820737D01*
X135464630Y-97820750D01*
X135444435Y-97999996D01*
X135444435Y-98000003D01*
X135464630Y-98179249D01*
X135464633Y-98179262D01*
X135524209Y-98349520D01*
X135577309Y-98434029D01*
X135596309Y-98501266D01*
X135577309Y-98565971D01*
X135524209Y-98650479D01*
X135464633Y-98820737D01*
X135464630Y-98820750D01*
X135444435Y-98999996D01*
X135444435Y-99000003D01*
X135464630Y-99179249D01*
X135464631Y-99179254D01*
X135524211Y-99349523D01*
X135584634Y-99445685D01*
X135620184Y-99502262D01*
X135747738Y-99629816D01*
X135809039Y-99668334D01*
X135879616Y-99712681D01*
X135900478Y-99725789D01*
X135994781Y-99758787D01*
X136070745Y-99785368D01*
X136070750Y-99785369D01*
X136249996Y-99805565D01*
X136250000Y-99805565D01*
X136250004Y-99805565D01*
X136429249Y-99785369D01*
X136429250Y-99785368D01*
X136429255Y-99785368D01*
X136489918Y-99764140D01*
X136510978Y-99758788D01*
X136526254Y-99756307D01*
X136812727Y-99666464D01*
X136882583Y-99665187D01*
X136937512Y-99697102D01*
X138636016Y-101395606D01*
X138636045Y-101395637D01*
X138726264Y-101485856D01*
X138726267Y-101485858D01*
X138777490Y-101520084D01*
X138828714Y-101554312D01*
X138909207Y-101587652D01*
X138942548Y-101601463D01*
X139002971Y-101613481D01*
X139063393Y-101625500D01*
X139063394Y-101625500D01*
X170439548Y-101625500D01*
X170506587Y-101645185D01*
X170527229Y-101661819D01*
X174838181Y-105972771D01*
X174871666Y-106034094D01*
X174874500Y-106060452D01*
X174874500Y-109311611D01*
X174898535Y-109432444D01*
X174898540Y-109432461D01*
X174945685Y-109546281D01*
X174945687Y-109546285D01*
X174945688Y-109546286D01*
X174976300Y-109592098D01*
X175014142Y-109648733D01*
X175101267Y-109735858D01*
X175101268Y-109735858D01*
X175108335Y-109742925D01*
X175108334Y-109742925D01*
X175108338Y-109742928D01*
X177476907Y-112111498D01*
X177500970Y-112145427D01*
X177657898Y-112471664D01*
X177716326Y-112593131D01*
X177716416Y-112593300D01*
X177717952Y-112596454D01*
X177718484Y-112597376D01*
X177720652Y-112601293D01*
X177734771Y-112627933D01*
X177736807Y-112631053D01*
X177744311Y-112642109D01*
X177808141Y-112752665D01*
X177849812Y-112798946D01*
X177927764Y-112885521D01*
X177927767Y-112885523D01*
X177927770Y-112885526D01*
X178072407Y-112990612D01*
X178235733Y-113063329D01*
X178410609Y-113100500D01*
X178410610Y-113100500D01*
X178589389Y-113100500D01*
X178589391Y-113100500D01*
X178764267Y-113063329D01*
X178927593Y-112990612D01*
X179072230Y-112885526D01*
X179077877Y-112879255D01*
X179098148Y-112856741D01*
X179191859Y-112752665D01*
X179281250Y-112597835D01*
X179336497Y-112427803D01*
X179355185Y-112250000D01*
X179336497Y-112072197D01*
X179289581Y-111927805D01*
X179281252Y-111902170D01*
X179281249Y-111902164D01*
X179271643Y-111885526D01*
X179191859Y-111747335D01*
X179145003Y-111695296D01*
X179072235Y-111614478D01*
X179072232Y-111614476D01*
X179072231Y-111614475D01*
X179072230Y-111614474D01*
X178950167Y-111525789D01*
X178927591Y-111509386D01*
X178877045Y-111486882D01*
X178858377Y-111476563D01*
X178843108Y-111466314D01*
X178395431Y-111250973D01*
X178361501Y-111226910D01*
X176161819Y-109027228D01*
X176128334Y-108965905D01*
X176125500Y-108939547D01*
X176125500Y-108559454D01*
X176145185Y-108492415D01*
X176197989Y-108446660D01*
X176267147Y-108436716D01*
X176330703Y-108465741D01*
X176337181Y-108471773D01*
X176355586Y-108490178D01*
X176355608Y-108490198D01*
X177476908Y-109611498D01*
X177500970Y-109645425D01*
X177654515Y-109964632D01*
X177657898Y-109971663D01*
X177657898Y-109971664D01*
X177716321Y-110093121D01*
X177716416Y-110093300D01*
X177717952Y-110096454D01*
X177718484Y-110097376D01*
X177720652Y-110101293D01*
X177733481Y-110125500D01*
X177734771Y-110127933D01*
X177736807Y-110131053D01*
X177744312Y-110142110D01*
X177808139Y-110252662D01*
X177808139Y-110252663D01*
X177927764Y-110385521D01*
X177927767Y-110385523D01*
X177927770Y-110385526D01*
X178072407Y-110490612D01*
X178235733Y-110563329D01*
X178410609Y-110600500D01*
X178410610Y-110600500D01*
X178589389Y-110600500D01*
X178589391Y-110600500D01*
X178764267Y-110563329D01*
X178927593Y-110490612D01*
X179072230Y-110385526D01*
X179191859Y-110252665D01*
X179281250Y-110097835D01*
X179336497Y-109927803D01*
X179355185Y-109750000D01*
X179336497Y-109572197D01*
X179297524Y-109452251D01*
X179281252Y-109402170D01*
X179281249Y-109402164D01*
X179250857Y-109349523D01*
X179191859Y-109247335D01*
X179145003Y-109195296D01*
X179072235Y-109114478D01*
X179072232Y-109114476D01*
X179072231Y-109114475D01*
X179072230Y-109114474D01*
X178999911Y-109061931D01*
X178927591Y-109009386D01*
X178877045Y-108986882D01*
X178858377Y-108976563D01*
X178843108Y-108966314D01*
X178395429Y-108750972D01*
X178361499Y-108726909D01*
X177411819Y-107777229D01*
X177378334Y-107715906D01*
X177375500Y-107689548D01*
X177375500Y-107250000D01*
X177644815Y-107250000D01*
X177663503Y-107427805D01*
X177663504Y-107427807D01*
X177718747Y-107597829D01*
X177718750Y-107597835D01*
X177808141Y-107752665D01*
X177830259Y-107777229D01*
X177927764Y-107885521D01*
X177927767Y-107885523D01*
X177927770Y-107885526D01*
X178072407Y-107990612D01*
X178235733Y-108063329D01*
X178410609Y-108100500D01*
X178410610Y-108100500D01*
X178589389Y-108100500D01*
X178589391Y-108100500D01*
X178764267Y-108063329D01*
X178927593Y-107990612D01*
X179072230Y-107885526D01*
X179191859Y-107752665D01*
X179281250Y-107597835D01*
X179336497Y-107427803D01*
X179355185Y-107250000D01*
X179336497Y-107072197D01*
X179281250Y-106902165D01*
X179191859Y-106747335D01*
X179145003Y-106695296D01*
X179072235Y-106614478D01*
X179072232Y-106614476D01*
X179072231Y-106614475D01*
X179072230Y-106614474D01*
X178927593Y-106509388D01*
X178764267Y-106436671D01*
X178764265Y-106436670D01*
X178636594Y-106409533D01*
X178589391Y-106399500D01*
X178410609Y-106399500D01*
X178379954Y-106406015D01*
X178235733Y-106436670D01*
X178235728Y-106436672D01*
X178072408Y-106509387D01*
X177927768Y-106614475D01*
X177808140Y-106747336D01*
X177718750Y-106902164D01*
X177718747Y-106902170D01*
X177663504Y-107072192D01*
X177663503Y-107072194D01*
X177644815Y-107250000D01*
X177375500Y-107250000D01*
X177375500Y-105188393D01*
X177375499Y-105188389D01*
X177351463Y-105067548D01*
X177304311Y-104953714D01*
X177304310Y-104953713D01*
X177304307Y-104953707D01*
X177235858Y-104851267D01*
X177235855Y-104851263D01*
X177145637Y-104761045D01*
X177145606Y-104761016D01*
X171990198Y-99605608D01*
X171990178Y-99605586D01*
X171898733Y-99514141D01*
X171847509Y-99479915D01*
X171796287Y-99445689D01*
X171796286Y-99445688D01*
X171796283Y-99445686D01*
X171796280Y-99445685D01*
X171715792Y-99412347D01*
X171682453Y-99398537D01*
X171672427Y-99396543D01*
X171622029Y-99386518D01*
X171561610Y-99374500D01*
X171561607Y-99374500D01*
X171561606Y-99374500D01*
X158242513Y-99374500D01*
X158175474Y-99354815D01*
X158129719Y-99302011D01*
X158119775Y-99232853D01*
X158148800Y-99169297D01*
X158154812Y-99162838D01*
X158271446Y-99046204D01*
X158288207Y-99032172D01*
X158720659Y-98730765D01*
X158734619Y-98722889D01*
X158734604Y-98722863D01*
X158740215Y-98719623D01*
X158740227Y-98719618D01*
X158823428Y-98659167D01*
X158825376Y-98657781D01*
X158837731Y-98649171D01*
X158847202Y-98641936D01*
X158849468Y-98640248D01*
X158884864Y-98614532D01*
X158926077Y-98568758D01*
X158929858Y-98564745D01*
X158942935Y-98551477D01*
X158942936Y-98551474D01*
X158942939Y-98551472D01*
X158947490Y-98545586D01*
X158947916Y-98545915D01*
X158953593Y-98538198D01*
X159004493Y-98481671D01*
X159093884Y-98326841D01*
X159149131Y-98156809D01*
X159167819Y-97979006D01*
X159149131Y-97801203D01*
X159100707Y-97652170D01*
X159093886Y-97631176D01*
X159093883Y-97631170D01*
X159091279Y-97626660D01*
X159004493Y-97476341D01*
X158966395Y-97434029D01*
X158884869Y-97343484D01*
X158884866Y-97343482D01*
X158884865Y-97343481D01*
X158884864Y-97343480D01*
X158740227Y-97238394D01*
X158576901Y-97165677D01*
X158576899Y-97165676D01*
X158449228Y-97138539D01*
X158402025Y-97128506D01*
X158223243Y-97128506D01*
X158202792Y-97132853D01*
X158048367Y-97165676D01*
X158048362Y-97165678D01*
X157885042Y-97238393D01*
X157740402Y-97343481D01*
X157620777Y-97476338D01*
X157620776Y-97476340D01*
X157594170Y-97522420D01*
X157588513Y-97531320D01*
X157259471Y-98003424D01*
X157245423Y-98020203D01*
X157002445Y-98263182D01*
X156941125Y-98296666D01*
X156914766Y-98299500D01*
X155961422Y-98299500D01*
X155894383Y-98279815D01*
X155848628Y-98227011D01*
X155838101Y-98162538D01*
X155838703Y-98156811D01*
X155855185Y-98000000D01*
X155836497Y-97822197D01*
X155781250Y-97652165D01*
X155691859Y-97497335D01*
X155634858Y-97434029D01*
X155572235Y-97364478D01*
X155572232Y-97364476D01*
X155572231Y-97364475D01*
X155572230Y-97364474D01*
X155427593Y-97259388D01*
X155264267Y-97186671D01*
X155264265Y-97186670D01*
X155136594Y-97159533D01*
X155089391Y-97149500D01*
X154910609Y-97149500D01*
X154825302Y-97167631D01*
X154821321Y-97168409D01*
X154238034Y-97272569D01*
X154216236Y-97274500D01*
X152741347Y-97274500D01*
X152674308Y-97254815D01*
X152628553Y-97202011D01*
X152618609Y-97132853D01*
X152624305Y-97109545D01*
X152662636Y-97000000D01*
X160232315Y-97000000D01*
X160251003Y-97177805D01*
X160251004Y-97177807D01*
X160306247Y-97347828D01*
X160306250Y-97347835D01*
X160395641Y-97502665D01*
X160405977Y-97514144D01*
X160515264Y-97635521D01*
X160515267Y-97635523D01*
X160515270Y-97635526D01*
X160659907Y-97740612D01*
X160823233Y-97813329D01*
X160998109Y-97850500D01*
X160998110Y-97850500D01*
X161176889Y-97850500D01*
X161176891Y-97850500D01*
X161351767Y-97813329D01*
X161515093Y-97740612D01*
X161639614Y-97650140D01*
X161705420Y-97626660D01*
X161773474Y-97642485D01*
X161785382Y-97650138D01*
X161839710Y-97689610D01*
X161909901Y-97740608D01*
X161909902Y-97740609D01*
X161909904Y-97740610D01*
X161909907Y-97740612D01*
X162073233Y-97813329D01*
X162248109Y-97850500D01*
X162248110Y-97850500D01*
X162426889Y-97850500D01*
X162426891Y-97850500D01*
X162601767Y-97813329D01*
X162765093Y-97740612D01*
X162909730Y-97635526D01*
X162913652Y-97631171D01*
X162962500Y-97576919D01*
X163029359Y-97502665D01*
X163118750Y-97347835D01*
X163118751Y-97347830D01*
X163118753Y-97347828D01*
X163166131Y-97202011D01*
X163173997Y-97177803D01*
X163192685Y-97000000D01*
X163173997Y-96822197D01*
X163118750Y-96652165D01*
X163029359Y-96497335D01*
X162966650Y-96427690D01*
X162909735Y-96364478D01*
X162909732Y-96364476D01*
X162909731Y-96364475D01*
X162909730Y-96364474D01*
X162765093Y-96259388D01*
X162601767Y-96186671D01*
X162601765Y-96186670D01*
X162474094Y-96159533D01*
X162426891Y-96149500D01*
X162248109Y-96149500D01*
X162217454Y-96156015D01*
X162073233Y-96186670D01*
X162073228Y-96186672D01*
X161909908Y-96259387D01*
X161785386Y-96349859D01*
X161719579Y-96373339D01*
X161651525Y-96357514D01*
X161639614Y-96349859D01*
X161636828Y-96347835D01*
X161515093Y-96259388D01*
X161351767Y-96186671D01*
X161351765Y-96186670D01*
X161224094Y-96159533D01*
X161176891Y-96149500D01*
X160998109Y-96149500D01*
X160967454Y-96156015D01*
X160823233Y-96186670D01*
X160823228Y-96186672D01*
X160659908Y-96259387D01*
X160515268Y-96364475D01*
X160395640Y-96497336D01*
X160306250Y-96652164D01*
X160306247Y-96652170D01*
X160251004Y-96822192D01*
X160251003Y-96822194D01*
X160232315Y-97000000D01*
X152662636Y-97000000D01*
X152673814Y-96968056D01*
X152692749Y-96800002D01*
X152692749Y-96799997D01*
X152673813Y-96631940D01*
X152673813Y-96631938D01*
X152627464Y-96499481D01*
X152623902Y-96429702D01*
X152627464Y-96417571D01*
X152679780Y-96268061D01*
X152679780Y-96268059D01*
X152698716Y-96100002D01*
X152698716Y-96099997D01*
X152679780Y-95931940D01*
X152679780Y-95931939D01*
X152634727Y-95803187D01*
X152631164Y-95733409D01*
X152634724Y-95721286D01*
X152688393Y-95567909D01*
X152696827Y-95493056D01*
X152707329Y-95399852D01*
X152707329Y-95399847D01*
X152698895Y-95324997D01*
X158006098Y-95324997D01*
X158006098Y-95325002D01*
X158025032Y-95493056D01*
X158080892Y-95652694D01*
X158080894Y-95652697D01*
X158170865Y-95795884D01*
X158170870Y-95795890D01*
X158290456Y-95915476D01*
X158290462Y-95915481D01*
X158433649Y-96005452D01*
X158433652Y-96005454D01*
X158433656Y-96005455D01*
X158433657Y-96005456D01*
X158506260Y-96030860D01*
X158593290Y-96061314D01*
X158761344Y-96080249D01*
X158761347Y-96080249D01*
X158761350Y-96080249D01*
X158929403Y-96061314D01*
X158929406Y-96061313D01*
X159089037Y-96005456D01*
X159089039Y-96005454D01*
X159089041Y-96005454D01*
X159089044Y-96005452D01*
X159232231Y-95915481D01*
X159232232Y-95915480D01*
X159232237Y-95915477D01*
X159351824Y-95795890D01*
X159362706Y-95778572D01*
X159441799Y-95652697D01*
X159441801Y-95652694D01*
X159441801Y-95652692D01*
X159441803Y-95652690D01*
X159497660Y-95493059D01*
X159497660Y-95493058D01*
X159497661Y-95493056D01*
X159516596Y-95325002D01*
X159516596Y-95324997D01*
X159497661Y-95156943D01*
X159452433Y-95027690D01*
X159441803Y-94997310D01*
X159441802Y-94997309D01*
X159441801Y-94997305D01*
X159441799Y-94997302D01*
X159351828Y-94854115D01*
X159351823Y-94854109D01*
X159232237Y-94734523D01*
X159232231Y-94734518D01*
X159089044Y-94644547D01*
X159089041Y-94644545D01*
X158929403Y-94588685D01*
X158761350Y-94569751D01*
X158761344Y-94569751D01*
X158593290Y-94588685D01*
X158433652Y-94644545D01*
X158433649Y-94644547D01*
X158290462Y-94734518D01*
X158290456Y-94734523D01*
X158170870Y-94854109D01*
X158170865Y-94854115D01*
X158080894Y-94997302D01*
X158080892Y-94997305D01*
X158025032Y-95156943D01*
X158006098Y-95324997D01*
X152698895Y-95324997D01*
X152688393Y-95231790D01*
X152688393Y-95231789D01*
X152631796Y-95070046D01*
X152628234Y-95000267D01*
X152631791Y-94988149D01*
X152673813Y-94868059D01*
X152692749Y-94700000D01*
X152673813Y-94531941D01*
X152673813Y-94531940D01*
X152673813Y-94531938D01*
X152638436Y-94430837D01*
X152634874Y-94361058D01*
X152660058Y-94310690D01*
X152806938Y-94133723D01*
X152821386Y-94115196D01*
X152831473Y-94103785D01*
X153148729Y-93786530D01*
X153148733Y-93786528D01*
X153235858Y-93699403D01*
X153266584Y-93653416D01*
X153287254Y-93622483D01*
X153287256Y-93622480D01*
X153304311Y-93596957D01*
X153304311Y-93596956D01*
X153304312Y-93596955D01*
X153344603Y-93499683D01*
X153351463Y-93483122D01*
X153359057Y-93444941D01*
X153366721Y-93406415D01*
X153366721Y-93406412D01*
X153375500Y-93362277D01*
X153375500Y-93239063D01*
X153375500Y-90690914D01*
X153395185Y-90623875D01*
X153447989Y-90578120D01*
X153517147Y-90568176D01*
X153566324Y-90588137D01*
X153566774Y-90587360D01*
X153572376Y-90590594D01*
X153572390Y-90590599D01*
X153572407Y-90590612D01*
X153735733Y-90663329D01*
X153910609Y-90700500D01*
X153910610Y-90700500D01*
X154089389Y-90700500D01*
X154089391Y-90700500D01*
X154264267Y-90663329D01*
X154427593Y-90590612D01*
X154572230Y-90485526D01*
X154657852Y-90390432D01*
X154717336Y-90353787D01*
X154787193Y-90355116D01*
X154842147Y-90390432D01*
X154927770Y-90485526D01*
X155072407Y-90590612D01*
X155235733Y-90663329D01*
X155410609Y-90700500D01*
X155410610Y-90700500D01*
X155589389Y-90700500D01*
X155589391Y-90700500D01*
X155764267Y-90663329D01*
X155927593Y-90590612D01*
X156072230Y-90485526D01*
X156191859Y-90352665D01*
X156281250Y-90197835D01*
X156336497Y-90027803D01*
X156355185Y-89850000D01*
X156336497Y-89672197D01*
X156306914Y-89581151D01*
X156281252Y-89502170D01*
X156281249Y-89502164D01*
X156191859Y-89347335D01*
X156131934Y-89280782D01*
X156072235Y-89214478D01*
X156072232Y-89214476D01*
X156072231Y-89214475D01*
X156072230Y-89214474D01*
X155927593Y-89109388D01*
X155764267Y-89036671D01*
X155764265Y-89036670D01*
X155626228Y-89007330D01*
X155589391Y-88999500D01*
X155410609Y-88999500D01*
X155379954Y-89006015D01*
X155235733Y-89036670D01*
X155235728Y-89036672D01*
X155072408Y-89109387D01*
X154927771Y-89214473D01*
X154927770Y-89214474D01*
X154842148Y-89309565D01*
X154782663Y-89346213D01*
X154712806Y-89344882D01*
X154657850Y-89309564D01*
X154572235Y-89214478D01*
X154572232Y-89214476D01*
X154572231Y-89214475D01*
X154572230Y-89214474D01*
X154427593Y-89109388D01*
X154264267Y-89036671D01*
X154264265Y-89036670D01*
X154126228Y-89007330D01*
X154089391Y-88999500D01*
X153910609Y-88999500D01*
X153879954Y-89006015D01*
X153735733Y-89036670D01*
X153735728Y-89036672D01*
X153572408Y-89109388D01*
X153572404Y-89109390D01*
X153572384Y-89109405D01*
X153572370Y-89109409D01*
X153566775Y-89112640D01*
X153566184Y-89111616D01*
X153506577Y-89132884D01*
X153438523Y-89117057D01*
X153389829Y-89066951D01*
X153375500Y-89009086D01*
X153375500Y-88750000D01*
X160232315Y-88750000D01*
X160251003Y-88927805D01*
X160251004Y-88927807D01*
X160306247Y-89097829D01*
X160306250Y-89097835D01*
X160395641Y-89252665D01*
X160420956Y-89280780D01*
X160515264Y-89385521D01*
X160515267Y-89385523D01*
X160515270Y-89385526D01*
X160659907Y-89490612D01*
X160823233Y-89563329D01*
X160998109Y-89600500D01*
X160998110Y-89600500D01*
X161176889Y-89600500D01*
X161176891Y-89600500D01*
X161351767Y-89563329D01*
X161515093Y-89490612D01*
X161639614Y-89400140D01*
X161705420Y-89376660D01*
X161773474Y-89392485D01*
X161785386Y-89400141D01*
X161909901Y-89490608D01*
X161909902Y-89490609D01*
X161909904Y-89490610D01*
X161909907Y-89490612D01*
X162073233Y-89563329D01*
X162248109Y-89600500D01*
X162248110Y-89600500D01*
X162426889Y-89600500D01*
X162426891Y-89600500D01*
X162601767Y-89563329D01*
X162631332Y-89550166D01*
X165809500Y-89550166D01*
X165809500Y-90949833D01*
X165820003Y-91052638D01*
X165875202Y-91219217D01*
X165875203Y-91219220D01*
X165967330Y-91368581D01*
X166091419Y-91492670D01*
X166240780Y-91584797D01*
X166323771Y-91612297D01*
X166407361Y-91639996D01*
X166444236Y-91643763D01*
X166510174Y-91650500D01*
X166510178Y-91650500D01*
X167909822Y-91650500D01*
X167909826Y-91650500D01*
X168012638Y-91639996D01*
X168179220Y-91584797D01*
X168328581Y-91492670D01*
X168452670Y-91368581D01*
X168544797Y-91219220D01*
X168599996Y-91052638D01*
X168610500Y-90949826D01*
X168610500Y-90249993D01*
X170884700Y-90249993D01*
X170884700Y-90250006D01*
X170903864Y-90481297D01*
X170903866Y-90481308D01*
X170960842Y-90706300D01*
X171054075Y-90918848D01*
X171181016Y-91113147D01*
X171181019Y-91113151D01*
X171181021Y-91113153D01*
X171338216Y-91283913D01*
X171338219Y-91283915D01*
X171338222Y-91283918D01*
X171521365Y-91426464D01*
X171521371Y-91426468D01*
X171521374Y-91426470D01*
X171725497Y-91536936D01*
X171839487Y-91576068D01*
X171945015Y-91612297D01*
X171945017Y-91612297D01*
X171945019Y-91612298D01*
X172173951Y-91650500D01*
X172173952Y-91650500D01*
X172406048Y-91650500D01*
X172406049Y-91650500D01*
X172634981Y-91612298D01*
X172854503Y-91536936D01*
X173058626Y-91426470D01*
X173062093Y-91423772D01*
X173239913Y-91285369D01*
X173241784Y-91283913D01*
X173398979Y-91113153D01*
X173525924Y-90918849D01*
X173619157Y-90706300D01*
X173676134Y-90481305D01*
X173678728Y-90450000D01*
X173695300Y-90250006D01*
X173695300Y-90249993D01*
X173676135Y-90018702D01*
X173676133Y-90018691D01*
X173619157Y-89793699D01*
X173525924Y-89581151D01*
X173398983Y-89386852D01*
X173398980Y-89386849D01*
X173398979Y-89386847D01*
X173241784Y-89216087D01*
X173241779Y-89216083D01*
X173241777Y-89216081D01*
X173058634Y-89073535D01*
X173058628Y-89073531D01*
X172854504Y-88963064D01*
X172854495Y-88963061D01*
X172634984Y-88887702D01*
X172463282Y-88859050D01*
X172406049Y-88849500D01*
X172173951Y-88849500D01*
X172128164Y-88857140D01*
X171945015Y-88887702D01*
X171725504Y-88963061D01*
X171725495Y-88963064D01*
X171521371Y-89073531D01*
X171521365Y-89073535D01*
X171338222Y-89216081D01*
X171338219Y-89216084D01*
X171338216Y-89216086D01*
X171338216Y-89216087D01*
X171321522Y-89234222D01*
X171181016Y-89386852D01*
X171054075Y-89581151D01*
X170960842Y-89793699D01*
X170903866Y-90018691D01*
X170903864Y-90018702D01*
X170884700Y-90249993D01*
X168610500Y-90249993D01*
X168610500Y-89550174D01*
X168599996Y-89447362D01*
X168544797Y-89280780D01*
X168452670Y-89131419D01*
X168328581Y-89007330D01*
X168179220Y-88915203D01*
X168169008Y-88911819D01*
X168012638Y-88860003D01*
X167909833Y-88849500D01*
X167909826Y-88849500D01*
X166510174Y-88849500D01*
X166510166Y-88849500D01*
X166407361Y-88860003D01*
X166240782Y-88915202D01*
X166240777Y-88915204D01*
X166091417Y-89007331D01*
X165967331Y-89131417D01*
X165875204Y-89280777D01*
X165875202Y-89280782D01*
X165820003Y-89447361D01*
X165809500Y-89550166D01*
X162631332Y-89550166D01*
X162765093Y-89490612D01*
X162909730Y-89385526D01*
X162914872Y-89379816D01*
X162935648Y-89356741D01*
X163029359Y-89252665D01*
X163118750Y-89097835D01*
X163173997Y-88927803D01*
X163192685Y-88750000D01*
X163173997Y-88572197D01*
X163118750Y-88402165D01*
X163029359Y-88247335D01*
X162970478Y-88181941D01*
X162909735Y-88114478D01*
X162909732Y-88114476D01*
X162909731Y-88114475D01*
X162909730Y-88114474D01*
X162765093Y-88009388D01*
X162601767Y-87936671D01*
X162601765Y-87936670D01*
X162471317Y-87908943D01*
X162426891Y-87899500D01*
X162248109Y-87899500D01*
X162217454Y-87906015D01*
X162073233Y-87936670D01*
X162073228Y-87936672D01*
X161909908Y-88009387D01*
X161785386Y-88099859D01*
X161719579Y-88123339D01*
X161651525Y-88107514D01*
X161639614Y-88099859D01*
X161535493Y-88024210D01*
X161515093Y-88009388D01*
X161351767Y-87936671D01*
X161351765Y-87936670D01*
X161221317Y-87908943D01*
X161176891Y-87899500D01*
X160998109Y-87899500D01*
X160967454Y-87906015D01*
X160823233Y-87936670D01*
X160823228Y-87936672D01*
X160659908Y-88009387D01*
X160515268Y-88114475D01*
X160395640Y-88247336D01*
X160306250Y-88402164D01*
X160306247Y-88402170D01*
X160251004Y-88572192D01*
X160251003Y-88572194D01*
X160232315Y-88750000D01*
X153375500Y-88750000D01*
X153375500Y-86874997D01*
X157994751Y-86874997D01*
X157994751Y-86875002D01*
X158013685Y-87043056D01*
X158069545Y-87202694D01*
X158069547Y-87202697D01*
X158159518Y-87345884D01*
X158159523Y-87345890D01*
X158279109Y-87465476D01*
X158279115Y-87465481D01*
X158422302Y-87555452D01*
X158422305Y-87555454D01*
X158422309Y-87555455D01*
X158422310Y-87555456D01*
X158494913Y-87580860D01*
X158581943Y-87611314D01*
X158749997Y-87630249D01*
X158750000Y-87630249D01*
X158750003Y-87630249D01*
X158918056Y-87611314D01*
X158918059Y-87611313D01*
X159077690Y-87555456D01*
X159077692Y-87555454D01*
X159077694Y-87555454D01*
X159077697Y-87555452D01*
X159220884Y-87465481D01*
X159220885Y-87465480D01*
X159220890Y-87465477D01*
X159340477Y-87345890D01*
X159394398Y-87260076D01*
X159430452Y-87202697D01*
X159430454Y-87202694D01*
X159430454Y-87202692D01*
X159430456Y-87202690D01*
X159486313Y-87043059D01*
X159486313Y-87043058D01*
X159486314Y-87043056D01*
X159505249Y-86875002D01*
X159505249Y-86874997D01*
X159486314Y-86706943D01*
X159430454Y-86547305D01*
X159430452Y-86547302D01*
X159340481Y-86404115D01*
X159340476Y-86404109D01*
X159220890Y-86284523D01*
X159220884Y-86284518D01*
X159077697Y-86194547D01*
X159077694Y-86194545D01*
X158918056Y-86138685D01*
X158750003Y-86119751D01*
X158749997Y-86119751D01*
X158581943Y-86138685D01*
X158422305Y-86194545D01*
X158422302Y-86194547D01*
X158279115Y-86284518D01*
X158279109Y-86284523D01*
X158159523Y-86404109D01*
X158159518Y-86404115D01*
X158069547Y-86547302D01*
X158069545Y-86547305D01*
X158013685Y-86706943D01*
X157994751Y-86874997D01*
X153375500Y-86874997D01*
X153375500Y-86118968D01*
X153371233Y-86097520D01*
X153371232Y-86097515D01*
X153351463Y-85998123D01*
X153344603Y-85981562D01*
X153314765Y-85909526D01*
X153304312Y-85884289D01*
X153297771Y-85874500D01*
X153282248Y-85851268D01*
X153282247Y-85851267D01*
X153235858Y-85781841D01*
X153235856Y-85781838D01*
X153145637Y-85691619D01*
X153145606Y-85691590D01*
X152825866Y-85371850D01*
X152809519Y-85351118D01*
X152809516Y-85351121D01*
X152809458Y-85351040D01*
X152807829Y-85348974D01*
X152806939Y-85347522D01*
X152660057Y-85170550D01*
X152632391Y-85106396D01*
X152638435Y-85050405D01*
X152673813Y-84949301D01*
X152673813Y-84949300D01*
X152692749Y-84781243D01*
X152692749Y-84781238D01*
X152673813Y-84613181D01*
X152673813Y-84613180D01*
X152634826Y-84501764D01*
X152624478Y-84472192D01*
X152620916Y-84402416D01*
X152624473Y-84390303D01*
X152673813Y-84249297D01*
X152692749Y-84081238D01*
X152691567Y-84070745D01*
X152673814Y-83913181D01*
X152617954Y-83753543D01*
X152617952Y-83753540D01*
X152527981Y-83610353D01*
X152527976Y-83610347D01*
X152408390Y-83490761D01*
X152408384Y-83490756D01*
X152265197Y-83400785D01*
X152265194Y-83400783D01*
X152105556Y-83344923D01*
X151937503Y-83325989D01*
X151937497Y-83325989D01*
X151769445Y-83344923D01*
X151769435Y-83344926D01*
X151733985Y-83357330D01*
X151707091Y-83363489D01*
X151703835Y-83363860D01*
X151368733Y-83451687D01*
X151337296Y-83455738D01*
X149107154Y-83455738D01*
X149084798Y-83460185D01*
X149062441Y-83464632D01*
X148986310Y-83479775D01*
X148959788Y-83490761D01*
X148959786Y-83490762D01*
X148959785Y-83490761D01*
X148872472Y-83526927D01*
X148872467Y-83526930D01*
X148850146Y-83541845D01*
X148783469Y-83562723D01*
X148716089Y-83544238D01*
X148676262Y-83504715D01*
X148667494Y-83490761D01*
X148629816Y-83430796D01*
X148502262Y-83303242D01*
X148349523Y-83207269D01*
X148179254Y-83147689D01*
X148179249Y-83147688D01*
X148000004Y-83127493D01*
X147999996Y-83127493D01*
X147820750Y-83147688D01*
X147820745Y-83147689D01*
X147650476Y-83207269D01*
X147497737Y-83303242D01*
X147370184Y-83430795D01*
X147274211Y-83583534D01*
X147214631Y-83753803D01*
X147214630Y-83753808D01*
X147194435Y-83933054D01*
X147194435Y-83933061D01*
X147214630Y-84112307D01*
X147214631Y-84112312D01*
X147274212Y-84282584D01*
X147369686Y-84434528D01*
X147388687Y-84501764D01*
X147368320Y-84568599D01*
X147315052Y-84613814D01*
X147264693Y-84624500D01*
X137141811Y-84624500D01*
X137074772Y-84604815D01*
X137029017Y-84552011D01*
X137019073Y-84482853D01*
X137024770Y-84459545D01*
X137035366Y-84429262D01*
X137035369Y-84429249D01*
X137055565Y-84250003D01*
X137055565Y-84249996D01*
X137035369Y-84070748D01*
X137035368Y-84070745D01*
X136975788Y-83900476D01*
X136883627Y-83753803D01*
X136879816Y-83747738D01*
X136752262Y-83620184D01*
X136693934Y-83583534D01*
X136599523Y-83524211D01*
X136429254Y-83464631D01*
X136429249Y-83464630D01*
X136250004Y-83444435D01*
X136249996Y-83444435D01*
X136070750Y-83464630D01*
X136070745Y-83464631D01*
X135900476Y-83524211D01*
X135747737Y-83620184D01*
X135620184Y-83747737D01*
X135524211Y-83900476D01*
X135464631Y-84070745D01*
X135464631Y-84070748D01*
X135444435Y-84249996D01*
X135444435Y-84250003D01*
X135464630Y-84429249D01*
X135464632Y-84429257D01*
X135479655Y-84472190D01*
X135483216Y-84541969D01*
X135448487Y-84602596D01*
X135386790Y-84634764D01*
X135382831Y-84635551D01*
X135382830Y-84635550D01*
X135317555Y-84648535D01*
X135317547Y-84648537D01*
X135277154Y-84665269D01*
X135277153Y-84665269D01*
X135203719Y-84695685D01*
X135203716Y-84695687D01*
X135203715Y-84695688D01*
X135187178Y-84706738D01*
X135101268Y-84764140D01*
X135057705Y-84807703D01*
X135014142Y-84851267D01*
X135014139Y-84851270D01*
X134503931Y-85361479D01*
X134027229Y-85838181D01*
X133965906Y-85871666D01*
X133939548Y-85874500D01*
X127043263Y-85874500D01*
X126976224Y-85854815D01*
X126930469Y-85802011D01*
X126920525Y-85732853D01*
X126949550Y-85669297D01*
X126977289Y-85645507D01*
X127002262Y-85629816D01*
X127129816Y-85502262D01*
X127225789Y-85349522D01*
X127285368Y-85179255D01*
X127285531Y-85177807D01*
X127305565Y-85000003D01*
X127305565Y-84999996D01*
X127285369Y-84820750D01*
X127285368Y-84820745D01*
X127245475Y-84706737D01*
X127225789Y-84650478D01*
X127224569Y-84648537D01*
X127157608Y-84541969D01*
X127129816Y-84497738D01*
X127002262Y-84370184D01*
X126862848Y-84282584D01*
X126849523Y-84274211D01*
X126679254Y-84214631D01*
X126679249Y-84214630D01*
X126500004Y-84194435D01*
X126499996Y-84194435D01*
X126320750Y-84214630D01*
X126320745Y-84214631D01*
X126150476Y-84274211D01*
X125997737Y-84370184D01*
X125870184Y-84497737D01*
X125774211Y-84650476D01*
X125714631Y-84820745D01*
X125714630Y-84820750D01*
X125694435Y-84999996D01*
X125694435Y-85000003D01*
X125714630Y-85179249D01*
X125714631Y-85179254D01*
X125774211Y-85349523D01*
X125870184Y-85502262D01*
X125997738Y-85629816D01*
X126022709Y-85645506D01*
X126069000Y-85697841D01*
X126079648Y-85766894D01*
X126051273Y-85830743D01*
X125992884Y-85869115D01*
X125956737Y-85874500D01*
X118417741Y-85874500D01*
X118417721Y-85874499D01*
X118411607Y-85874499D01*
X118288394Y-85874499D01*
X118288392Y-85874499D01*
X118191403Y-85893792D01*
X118191402Y-85893792D01*
X118167553Y-85898535D01*
X118167541Y-85898539D01*
X118135262Y-85911909D01*
X118120397Y-85918067D01*
X118053719Y-85945685D01*
X118053717Y-85945686D01*
X117951266Y-86014141D01*
X116161407Y-87804000D01*
X116131152Y-87826220D01*
X115763783Y-88018178D01*
X115755956Y-88021572D01*
X115750479Y-88024210D01*
X115597737Y-88120184D01*
X115470184Y-88247737D01*
X115374211Y-88400476D01*
X115314631Y-88570745D01*
X115314630Y-88570750D01*
X115294435Y-88749996D01*
X102550500Y-88749996D01*
X102550500Y-85000000D01*
X112144815Y-85000000D01*
X112163503Y-85177805D01*
X112163504Y-85177807D01*
X112218747Y-85347829D01*
X112218750Y-85347835D01*
X112308141Y-85502665D01*
X112349812Y-85548946D01*
X112427764Y-85635521D01*
X112427767Y-85635523D01*
X112427770Y-85635526D01*
X112572407Y-85740612D01*
X112735733Y-85813329D01*
X112910609Y-85850500D01*
X112910610Y-85850500D01*
X113089389Y-85850500D01*
X113089391Y-85850500D01*
X113264267Y-85813329D01*
X113427593Y-85740612D01*
X113572230Y-85635526D01*
X113577372Y-85629816D01*
X113598148Y-85606741D01*
X113691859Y-85502665D01*
X113781250Y-85347835D01*
X113836497Y-85177803D01*
X113855185Y-85000000D01*
X113836497Y-84822197D01*
X113781250Y-84652165D01*
X113691859Y-84497335D01*
X113630561Y-84429257D01*
X113572235Y-84364478D01*
X113572232Y-84364476D01*
X113572231Y-84364475D01*
X113572230Y-84364474D01*
X113427593Y-84259388D01*
X113264267Y-84186671D01*
X113264265Y-84186670D01*
X113136594Y-84159533D01*
X113089391Y-84149500D01*
X112910609Y-84149500D01*
X112879954Y-84156015D01*
X112735733Y-84186670D01*
X112735728Y-84186672D01*
X112572408Y-84259387D01*
X112427768Y-84364475D01*
X112308140Y-84497336D01*
X112218750Y-84652164D01*
X112218747Y-84652170D01*
X112163504Y-84822192D01*
X112163503Y-84822194D01*
X112144815Y-85000000D01*
X102550500Y-85000000D01*
X102550500Y-83004875D01*
X102550882Y-82995146D01*
X102567580Y-82782975D01*
X102570622Y-82763764D01*
X102619168Y-82561558D01*
X102625174Y-82543073D01*
X102704753Y-82350951D01*
X102713586Y-82333618D01*
X102822230Y-82156327D01*
X102833667Y-82140585D01*
X102968715Y-81982464D01*
X102982464Y-81968715D01*
X103140587Y-81833665D01*
X103156327Y-81822230D01*
X103333621Y-81713584D01*
X103350951Y-81704753D01*
X103543073Y-81625174D01*
X103561558Y-81619168D01*
X103763764Y-81570622D01*
X103782969Y-81567580D01*
X103995146Y-81550881D01*
X104004875Y-81550500D01*
X104047595Y-81550500D01*
X180452405Y-81550500D01*
X180495125Y-81550500D01*
X180504853Y-81550881D01*
G37*
G04 #@! TD.AperFunction*
G04 #@! TA.AperFunction,Conductor*
G36*
X151840866Y-84554066D02*
G01*
X151845754Y-84559649D01*
X151936609Y-84776724D01*
X151936642Y-84785678D01*
X151936609Y-84785758D01*
X151845754Y-85002832D01*
X151839398Y-85009141D01*
X151831995Y-85009633D01*
X151446234Y-84908530D01*
X151439100Y-84903117D01*
X151437500Y-84897212D01*
X151437500Y-84665269D01*
X151440927Y-84656996D01*
X151446231Y-84653952D01*
X151831995Y-84552848D01*
X151840866Y-84554066D01*
G37*
G04 #@! TD.AperFunction*
G04 #@! TA.AperFunction,Conductor*
G36*
X118971950Y-88243423D02*
G01*
X119136576Y-88408049D01*
X119140003Y-88416322D01*
X119138673Y-88421740D01*
X118912106Y-88855346D01*
X118905237Y-88861092D01*
X118897292Y-88860751D01*
X118633815Y-88752563D01*
X118627463Y-88746251D01*
X118627436Y-88746184D01*
X118519248Y-88482707D01*
X118519275Y-88473752D01*
X118524651Y-88467894D01*
X118958262Y-88241325D01*
X118967178Y-88240532D01*
X118971950Y-88243423D01*
G37*
G04 #@! TD.AperFunction*
G04 #@! TA.AperFunction,Conductor*
G36*
X152257985Y-93635932D02*
G01*
X152258598Y-93636503D01*
X152417231Y-93795136D01*
X152420658Y-93803409D01*
X152417961Y-93810881D01*
X152122442Y-94166938D01*
X152114521Y-94171116D01*
X152105967Y-94168469D01*
X152105207Y-94167779D01*
X151938477Y-94002377D01*
X151935894Y-93998514D01*
X151846494Y-93780410D01*
X151846527Y-93771459D01*
X151852882Y-93765150D01*
X151853413Y-93764947D01*
X151892533Y-93751161D01*
X151896422Y-93750497D01*
X152002272Y-93750497D01*
X152126569Y-93714001D01*
X152235549Y-93643964D01*
X152241484Y-93637114D01*
X152249488Y-93633106D01*
X152257985Y-93635932D01*
G37*
G04 #@! TD.AperFunction*
G04 #@! TA.AperFunction,Conductor*
G36*
X152121745Y-85313537D02*
G01*
X152122442Y-85314305D01*
X152417961Y-85670363D01*
X152420608Y-85678916D01*
X152417231Y-85686107D01*
X152258598Y-85844739D01*
X152250325Y-85848166D01*
X152242052Y-85844739D01*
X152241483Y-85844128D01*
X152240092Y-85842524D01*
X152235549Y-85837280D01*
X152235546Y-85837278D01*
X152235545Y-85837277D01*
X152126569Y-85767243D01*
X152126570Y-85767243D01*
X152002273Y-85730747D01*
X152002272Y-85730747D01*
X151896422Y-85730747D01*
X151892533Y-85730082D01*
X151853431Y-85716302D01*
X151846767Y-85710320D01*
X151846285Y-85701378D01*
X151846471Y-85700886D01*
X151935895Y-85482727D01*
X151938475Y-85478868D01*
X152105201Y-85313469D01*
X152113486Y-85310077D01*
X152121745Y-85313537D01*
G37*
G04 #@! TD.AperFunction*
G04 #@! TA.AperFunction,Conductor*
G36*
X121670052Y-88379955D02*
G01*
X121675386Y-88387149D01*
X121675736Y-88389990D01*
X121675736Y-88621394D01*
X121673707Y-88627979D01*
X121420066Y-89000479D01*
X121412577Y-89005389D01*
X121403810Y-89003565D01*
X121402141Y-89002187D01*
X121200671Y-88801663D01*
X121198102Y-88797814D01*
X121090331Y-88535345D01*
X121090358Y-88526390D01*
X121096710Y-88520078D01*
X121098299Y-88519555D01*
X121661195Y-88378640D01*
X121670052Y-88379955D01*
G37*
G04 #@! TD.AperFunction*
G04 #@! TA.AperFunction,Conductor*
G36*
X151840866Y-85254069D02*
G01*
X151845754Y-85259652D01*
X151936609Y-85476727D01*
X151936642Y-85485681D01*
X151936609Y-85485761D01*
X151845754Y-85702835D01*
X151839398Y-85709144D01*
X151831995Y-85709636D01*
X151446234Y-85608533D01*
X151439100Y-85603120D01*
X151437500Y-85597215D01*
X151437500Y-85365272D01*
X151440927Y-85356999D01*
X151446231Y-85353955D01*
X151831995Y-85252851D01*
X151840866Y-85254069D01*
G37*
G04 #@! TD.AperFunction*
G04 #@! TA.AperFunction,Conductor*
G36*
X151840866Y-83854063D02*
G01*
X151845754Y-83859646D01*
X151936609Y-84076721D01*
X151936642Y-84085675D01*
X151936609Y-84085755D01*
X151845754Y-84302829D01*
X151839398Y-84309138D01*
X151831995Y-84309630D01*
X151446234Y-84208527D01*
X151439100Y-84203114D01*
X151437500Y-84197209D01*
X151437500Y-83965266D01*
X151440927Y-83956993D01*
X151446231Y-83953949D01*
X151831995Y-83852845D01*
X151840866Y-83854063D01*
G37*
G04 #@! TD.AperFunction*
G04 #@! TA.AperFunction,Conductor*
G36*
X116441950Y-88243423D02*
G01*
X116606576Y-88408049D01*
X116610003Y-88416322D01*
X116608673Y-88421740D01*
X116382106Y-88855346D01*
X116375237Y-88861092D01*
X116367292Y-88860751D01*
X116103815Y-88752563D01*
X116097463Y-88746251D01*
X116097436Y-88746184D01*
X115989248Y-88482707D01*
X115989275Y-88473752D01*
X115994651Y-88467894D01*
X116428262Y-88241325D01*
X116437178Y-88240532D01*
X116441950Y-88243423D01*
G37*
G04 #@! TD.AperFunction*
G04 #@! TA.AperFunction,Conductor*
G36*
X122791950Y-89943423D02*
G01*
X122956576Y-90108049D01*
X122960003Y-90116322D01*
X122958673Y-90121740D01*
X122732106Y-90555346D01*
X122725237Y-90561092D01*
X122717292Y-90560751D01*
X122453815Y-90452563D01*
X122447463Y-90446251D01*
X122447436Y-90446184D01*
X122339248Y-90182707D01*
X122339275Y-90173752D01*
X122344651Y-90167894D01*
X122778262Y-89941325D01*
X122787178Y-89940532D01*
X122791950Y-89943423D01*
G37*
G04 #@! TD.AperFunction*
G04 #@! TA.AperFunction,Conductor*
G36*
X151840866Y-85954072D02*
G01*
X151845754Y-85959655D01*
X151936609Y-86176730D01*
X151936642Y-86185684D01*
X151936609Y-86185764D01*
X151845754Y-86402838D01*
X151839398Y-86409147D01*
X151831995Y-86409639D01*
X151446234Y-86308536D01*
X151439100Y-86303123D01*
X151437500Y-86297218D01*
X151437500Y-86065275D01*
X151440927Y-86057002D01*
X151446231Y-86053958D01*
X151831995Y-85952854D01*
X151840866Y-85954072D01*
G37*
G04 #@! TD.AperFunction*
G04 #@! TA.AperFunction,Conductor*
G36*
X151840866Y-92372819D02*
G01*
X151845754Y-92378402D01*
X151936609Y-92595477D01*
X151936642Y-92604431D01*
X151936609Y-92604511D01*
X151845754Y-92821585D01*
X151839398Y-92827894D01*
X151831995Y-92828386D01*
X151446234Y-92727283D01*
X151439100Y-92721870D01*
X151437500Y-92715965D01*
X151437500Y-92484022D01*
X151440927Y-92475749D01*
X151446231Y-92472705D01*
X151831995Y-92371601D01*
X151840866Y-92372819D01*
G37*
G04 #@! TD.AperFunction*
G04 #@! TA.AperFunction,Conductor*
G36*
X120176247Y-90389275D02*
G01*
X120182105Y-90394652D01*
X120381974Y-90777164D01*
X120408673Y-90828259D01*
X120409467Y-90837178D01*
X120406576Y-90841950D01*
X120241950Y-91006576D01*
X120233677Y-91010003D01*
X120228260Y-91008673D01*
X119794652Y-90782105D01*
X119788907Y-90775237D01*
X119789247Y-90767293D01*
X119897436Y-90503814D01*
X119903746Y-90497464D01*
X120167293Y-90389248D01*
X120176247Y-90389275D01*
G37*
G04 #@! TD.AperFunction*
G04 #@! TA.AperFunction,Conductor*
G36*
X136263711Y-95652448D02*
G01*
X136940357Y-95773278D01*
X136947899Y-95778106D01*
X136950000Y-95784796D01*
X136950000Y-96215203D01*
X136946573Y-96223476D01*
X136940357Y-96226721D01*
X136263717Y-96347550D01*
X136254970Y-96345631D01*
X136250142Y-96338089D01*
X136249960Y-96336065D01*
X136249643Y-96225000D01*
X136249000Y-96000000D01*
X136249960Y-95663933D01*
X136253411Y-95655670D01*
X136261693Y-95652267D01*
X136263711Y-95652448D01*
G37*
G04 #@! TD.AperFunction*
G04 #@! TA.AperFunction,Conductor*
G36*
X158073468Y-97740041D02*
G01*
X158075027Y-97741343D01*
X158313341Y-97978299D01*
X158313389Y-97978347D01*
X158550296Y-98216612D01*
X158553699Y-98224894D01*
X158550248Y-98233158D01*
X158548689Y-98234460D01*
X157984795Y-98627478D01*
X157976048Y-98629397D01*
X157969832Y-98626152D01*
X157665487Y-98321807D01*
X157662060Y-98313534D01*
X157664159Y-98306848D01*
X158057180Y-97742948D01*
X158064721Y-97738122D01*
X158073468Y-97740041D01*
G37*
G04 #@! TD.AperFunction*
G04 #@! TA.AperFunction,Conductor*
G36*
X154995029Y-97654368D02*
G01*
X154999857Y-97661910D01*
X155000039Y-97663934D01*
X155001000Y-98000000D01*
X155001000Y-98000066D01*
X155000039Y-98336065D01*
X154996588Y-98344329D01*
X154988306Y-98347732D01*
X154986282Y-98347550D01*
X154309643Y-98226721D01*
X154302101Y-98221893D01*
X154300000Y-98215203D01*
X154300000Y-97784796D01*
X154303427Y-97776523D01*
X154309643Y-97773278D01*
X154986283Y-97652449D01*
X154995029Y-97654368D01*
G37*
G04 #@! TD.AperFunction*
G04 #@! TA.AperFunction,Conductor*
G36*
X136263711Y-94652448D02*
G01*
X136940357Y-94773278D01*
X136947899Y-94778106D01*
X136950000Y-94784796D01*
X136950000Y-95215203D01*
X136946573Y-95223476D01*
X136940357Y-95226721D01*
X136263717Y-95347550D01*
X136254970Y-95345631D01*
X136250142Y-95338089D01*
X136249960Y-95336065D01*
X136249643Y-95225000D01*
X136249000Y-95000000D01*
X136249960Y-94663933D01*
X136253411Y-94655670D01*
X136261693Y-94652267D01*
X136263711Y-94652448D01*
G37*
G04 #@! TD.AperFunction*
G04 #@! TA.AperFunction,Conductor*
G36*
X151840866Y-93072822D02*
G01*
X151845754Y-93078405D01*
X151936609Y-93295480D01*
X151936642Y-93304434D01*
X151936609Y-93304514D01*
X151845754Y-93521588D01*
X151839398Y-93527897D01*
X151831995Y-93528389D01*
X151446234Y-93427286D01*
X151439100Y-93421873D01*
X151437500Y-93415968D01*
X151437500Y-93184025D01*
X151440927Y-93175752D01*
X151446231Y-93172708D01*
X151831995Y-93071604D01*
X151840866Y-93072822D01*
G37*
G04 #@! TD.AperFunction*
G04 #@! TA.AperFunction,Conductor*
G36*
X117626247Y-90389275D02*
G01*
X117632105Y-90394652D01*
X117831974Y-90777164D01*
X117858673Y-90828259D01*
X117859467Y-90837178D01*
X117856576Y-90841950D01*
X117691950Y-91006576D01*
X117683677Y-91010003D01*
X117678260Y-91008673D01*
X117244652Y-90782105D01*
X117238907Y-90775237D01*
X117239247Y-90767293D01*
X117347436Y-90503814D01*
X117353746Y-90497464D01*
X117617293Y-90389248D01*
X117626247Y-90389275D01*
G37*
G04 #@! TD.AperFunction*
G04 #@! TA.AperFunction,Conductor*
G36*
X135070207Y-122551748D02*
G01*
X135333684Y-122659936D01*
X135340036Y-122666248D01*
X135340063Y-122666315D01*
X135448251Y-122929792D01*
X135448224Y-122938747D01*
X135442846Y-122944606D01*
X135009240Y-123171173D01*
X135000321Y-123171967D01*
X134995549Y-123169076D01*
X134830923Y-123004450D01*
X134827496Y-122996177D01*
X134828824Y-122990764D01*
X135055394Y-122557151D01*
X135062262Y-122551407D01*
X135070207Y-122551748D01*
G37*
G04 #@! TD.AperFunction*
G04 #@! TA.AperFunction,Conductor*
G36*
X121217318Y-109110691D02*
G01*
X121223629Y-109117042D01*
X121223970Y-109124987D01*
X121077571Y-109591801D01*
X121071825Y-109598670D01*
X121066407Y-109600000D01*
X120833593Y-109600000D01*
X120825320Y-109596573D01*
X120822429Y-109591801D01*
X120676029Y-109124987D01*
X120676823Y-109116068D01*
X120682679Y-109110692D01*
X120945490Y-109000883D01*
X120954444Y-109000857D01*
X121217318Y-109110691D01*
G37*
G04 #@! TD.AperFunction*
G04 #@! TA.AperFunction,Conductor*
G36*
X118774680Y-121503427D02*
G01*
X118777571Y-121508199D01*
X118923970Y-121975012D01*
X118923176Y-121983931D01*
X118917317Y-121989309D01*
X118654511Y-122099115D01*
X118645556Y-122099142D01*
X118645489Y-122099115D01*
X118382682Y-121989309D01*
X118376370Y-121982957D01*
X118376029Y-121975013D01*
X118522429Y-121508199D01*
X118528175Y-121501330D01*
X118533593Y-121500000D01*
X118766407Y-121500000D01*
X118774680Y-121503427D01*
G37*
G04 #@! TD.AperFunction*
G04 #@! TA.AperFunction,Conductor*
G36*
X149382707Y-122589248D02*
G01*
X149646184Y-122697436D01*
X149652536Y-122703748D01*
X149652563Y-122703815D01*
X149760751Y-122967292D01*
X149760724Y-122976247D01*
X149755346Y-122982106D01*
X149321740Y-123208673D01*
X149312821Y-123209467D01*
X149308049Y-123206576D01*
X149143423Y-123041950D01*
X149139996Y-123033677D01*
X149141324Y-123028264D01*
X149367894Y-122594651D01*
X149374762Y-122588907D01*
X149382707Y-122589248D01*
G37*
G04 #@! TD.AperFunction*
G04 #@! TA.AperFunction,Conductor*
G36*
X135613747Y-122551775D02*
G01*
X135619605Y-122557152D01*
X135819474Y-122939664D01*
X135846173Y-122990759D01*
X135846967Y-122999678D01*
X135844076Y-123004450D01*
X135679450Y-123169076D01*
X135671177Y-123172503D01*
X135665760Y-123171173D01*
X135232152Y-122944605D01*
X135226407Y-122937737D01*
X135226747Y-122929793D01*
X135334936Y-122666314D01*
X135341246Y-122659964D01*
X135604793Y-122551748D01*
X135613747Y-122551775D01*
G37*
G04 #@! TD.AperFunction*
G04 #@! TA.AperFunction,Conductor*
G36*
X118926247Y-121989275D02*
G01*
X118932105Y-121994652D01*
X119131974Y-122377164D01*
X119158673Y-122428259D01*
X119159467Y-122437178D01*
X119156576Y-122441950D01*
X118991950Y-122606576D01*
X118983677Y-122610003D01*
X118978260Y-122608673D01*
X118544652Y-122382105D01*
X118538907Y-122375237D01*
X118539247Y-122367293D01*
X118647436Y-122103814D01*
X118653746Y-122097464D01*
X118917293Y-121989248D01*
X118926247Y-121989275D01*
G37*
G04 #@! TD.AperFunction*
G04 #@! TA.AperFunction,Conductor*
G36*
X121224680Y-121503427D02*
G01*
X121227571Y-121508199D01*
X121373970Y-121975012D01*
X121373176Y-121983931D01*
X121367317Y-121989309D01*
X121104511Y-122099115D01*
X121095556Y-122099142D01*
X121095489Y-122099115D01*
X120832682Y-121989309D01*
X120826370Y-121982957D01*
X120826029Y-121975013D01*
X120972429Y-121508199D01*
X120978175Y-121501330D01*
X120983593Y-121500000D01*
X121216407Y-121500000D01*
X121224680Y-121503427D01*
G37*
G04 #@! TD.AperFunction*
G04 #@! TA.AperFunction,Conductor*
G36*
X122967318Y-109110691D02*
G01*
X122973629Y-109117042D01*
X122973970Y-109124987D01*
X122827571Y-109591801D01*
X122821825Y-109598670D01*
X122816407Y-109600000D01*
X122583593Y-109600000D01*
X122575320Y-109596573D01*
X122572429Y-109591801D01*
X122426029Y-109124987D01*
X122426823Y-109116068D01*
X122432679Y-109110692D01*
X122695490Y-109000883D01*
X122704444Y-109000857D01*
X122967318Y-109110691D01*
G37*
G04 #@! TD.AperFunction*
G04 #@! TA.AperFunction,Conductor*
G36*
X137341950Y-122168423D02*
G01*
X137506576Y-122333049D01*
X137510003Y-122341322D01*
X137508673Y-122346740D01*
X137282106Y-122780346D01*
X137275237Y-122786092D01*
X137267292Y-122785751D01*
X137003815Y-122677563D01*
X136997463Y-122671251D01*
X136997436Y-122671184D01*
X136889248Y-122407707D01*
X136889275Y-122398752D01*
X136894651Y-122392894D01*
X137328262Y-122166325D01*
X137337178Y-122165532D01*
X137341950Y-122168423D01*
G37*
G04 #@! TD.AperFunction*
G04 #@! TA.AperFunction,Conductor*
G36*
X121441950Y-121593423D02*
G01*
X121606576Y-121758049D01*
X121610003Y-121766322D01*
X121608673Y-121771740D01*
X121382106Y-122205346D01*
X121375237Y-122211092D01*
X121367292Y-122210751D01*
X121103815Y-122102563D01*
X121097463Y-122096251D01*
X121097436Y-122096184D01*
X120989248Y-121832707D01*
X120989275Y-121823752D01*
X120994651Y-121817894D01*
X121428262Y-121591325D01*
X121437178Y-121590532D01*
X121441950Y-121593423D01*
G37*
G04 #@! TD.AperFunction*
G04 #@! TA.AperFunction,Conductor*
G36*
X136769035Y-122262918D02*
G01*
X136775768Y-122265546D01*
X137103711Y-122393507D01*
X137110173Y-122399707D01*
X137110358Y-122408660D01*
X137110281Y-122408851D01*
X137002563Y-122671184D01*
X136996251Y-122677536D01*
X136996184Y-122677563D01*
X136733851Y-122785281D01*
X136724896Y-122785254D01*
X136718584Y-122778902D01*
X136718507Y-122778711D01*
X136587919Y-122444036D01*
X136588104Y-122435083D01*
X136590543Y-122431513D01*
X136756511Y-122265545D01*
X136764783Y-122262119D01*
X136769035Y-122262918D01*
G37*
G04 #@! TD.AperFunction*
G04 #@! TA.AperFunction,Conductor*
G36*
X151549927Y-122219325D02*
G01*
X151954976Y-122418014D01*
X151960894Y-122424734D01*
X151960646Y-122432962D01*
X151852563Y-122696184D01*
X151846251Y-122702536D01*
X151846184Y-122702563D01*
X151582962Y-122810646D01*
X151574007Y-122810619D01*
X151568015Y-122804976D01*
X151369325Y-122399928D01*
X151368758Y-122390991D01*
X151371554Y-122386504D01*
X151536502Y-122221555D01*
X151544774Y-122218129D01*
X151549927Y-122219325D01*
G37*
G04 #@! TD.AperFunction*
G04 #@! TA.AperFunction,Conductor*
G36*
X178100888Y-111670233D02*
G01*
X178623992Y-111921857D01*
X178629962Y-111928532D01*
X178629741Y-111936850D01*
X178502563Y-112246191D01*
X178496248Y-112252540D01*
X178496191Y-112252563D01*
X178186850Y-112379741D01*
X178177895Y-112379718D01*
X178171857Y-112373992D01*
X178113436Y-112252540D01*
X177920233Y-111850889D01*
X177919736Y-111841950D01*
X177922503Y-111837548D01*
X178087547Y-111672504D01*
X178095819Y-111669078D01*
X178100888Y-111670233D01*
G37*
G04 #@! TD.AperFunction*
G04 #@! TA.AperFunction,Conductor*
G36*
X136841802Y-98872429D02*
G01*
X136848670Y-98878174D01*
X136850000Y-98883592D01*
X136850000Y-99116407D01*
X136846573Y-99124680D01*
X136841801Y-99127571D01*
X136374987Y-99273970D01*
X136366068Y-99273176D01*
X136360691Y-99267318D01*
X136250883Y-99004509D01*
X136250857Y-98995556D01*
X136250862Y-98995542D01*
X136360691Y-98732680D01*
X136367042Y-98726370D01*
X136374986Y-98726029D01*
X136841802Y-98872429D01*
G37*
G04 #@! TD.AperFunction*
G04 #@! TA.AperFunction,Conductor*
G36*
X178100888Y-109170233D02*
G01*
X178623992Y-109421857D01*
X178629962Y-109428532D01*
X178629741Y-109436850D01*
X178502563Y-109746191D01*
X178496248Y-109752540D01*
X178496191Y-109752563D01*
X178186850Y-109879741D01*
X178177895Y-109879718D01*
X178171857Y-109873992D01*
X178113436Y-109752540D01*
X177920233Y-109350889D01*
X177919736Y-109341950D01*
X177922503Y-109337548D01*
X178087547Y-109172504D01*
X178095819Y-109169078D01*
X178100888Y-109170233D01*
G37*
G04 #@! TD.AperFunction*
G04 #@! TA.AperFunction,Conductor*
G36*
X136841802Y-97872429D02*
G01*
X136848670Y-97878174D01*
X136850000Y-97883592D01*
X136850000Y-98116407D01*
X136846573Y-98124680D01*
X136841801Y-98127571D01*
X136374987Y-98273970D01*
X136366068Y-98273176D01*
X136360691Y-98267318D01*
X136250883Y-98004509D01*
X136250857Y-97995556D01*
X136250862Y-97995542D01*
X136360691Y-97732680D01*
X136367042Y-97726370D01*
X136374986Y-97726029D01*
X136841802Y-97872429D01*
G37*
G04 #@! TD.AperFunction*
M02*
