G04 #@! TF.GenerationSoftware,KiCad,Pcbnew,8.0.4*
G04 #@! TF.CreationDate,2024-09-30T21:52:52+02:00*
G04 #@! TF.ProjectId,SUMEC_MK_IV,53554d45-435f-44d4-9b5f-49562e6b6963,v2.1.1*
G04 #@! TF.SameCoordinates,Original*
G04 #@! TF.FileFunction,Soldermask,Bot*
G04 #@! TF.FilePolarity,Negative*
%FSLAX46Y46*%
G04 Gerber Fmt 4.6, Leading zero omitted, Abs format (unit mm)*
G04 Created by KiCad (PCBNEW 8.0.4) date 2024-09-30 21:52:52*
%MOMM*%
%LPD*%
G01*
G04 APERTURE LIST*
G04 Aperture macros list*
%AMRoundRect*
0 Rectangle with rounded corners*
0 $1 Rounding radius*
0 $2 $3 $4 $5 $6 $7 $8 $9 X,Y pos of 4 corners*
0 Add a 4 corners polygon primitive as box body*
4,1,4,$2,$3,$4,$5,$6,$7,$8,$9,$2,$3,0*
0 Add four circle primitives for the rounded corners*
1,1,$1+$1,$2,$3*
1,1,$1+$1,$4,$5*
1,1,$1+$1,$6,$7*
1,1,$1+$1,$8,$9*
0 Add four rect primitives between the rounded corners*
20,1,$1+$1,$2,$3,$4,$5,0*
20,1,$1+$1,$4,$5,$6,$7,0*
20,1,$1+$1,$6,$7,$8,$9,0*
20,1,$1+$1,$8,$9,$2,$3,0*%
G04 Aperture macros list end*
%ADD10C,0.500000*%
%ADD11R,1.000000X1.000000*%
%ADD12RoundRect,0.250000X-0.250000X0.250000X-0.250000X-0.250000X0.250000X-0.250000X0.250000X0.250000X0*%
%ADD13C,0.800000*%
%ADD14C,6.400000*%
%ADD15C,2.754000*%
%ADD16RoundRect,0.102000X1.275000X1.275000X-1.275000X1.275000X-1.275000X-1.275000X1.275000X-1.275000X0*%
%ADD17C,1.712000*%
%ADD18RoundRect,0.250200X-0.649800X-0.649800X0.649800X-0.649800X0.649800X0.649800X-0.649800X0.649800X0*%
%ADD19C,1.800000*%
%ADD20O,2.204000X1.104000*%
%ADD21O,1.904000X1.104000*%
%ADD22RoundRect,0.250000X0.337500X0.475000X-0.337500X0.475000X-0.337500X-0.475000X0.337500X-0.475000X0*%
%ADD23RoundRect,0.250000X0.425000X-0.537500X0.425000X0.537500X-0.425000X0.537500X-0.425000X-0.537500X0*%
%ADD24RoundRect,0.162500X-0.837500X-0.162500X0.837500X-0.162500X0.837500X0.162500X-0.837500X0.162500X0*%
%ADD25RoundRect,0.250000X0.350000X0.450000X-0.350000X0.450000X-0.350000X-0.450000X0.350000X-0.450000X0*%
%ADD26RoundRect,0.150000X-0.625000X0.150000X-0.625000X-0.150000X0.625000X-0.150000X0.625000X0.150000X0*%
%ADD27RoundRect,0.250000X-0.650000X0.350000X-0.650000X-0.350000X0.650000X-0.350000X0.650000X0.350000X0*%
%ADD28RoundRect,0.243750X0.243750X0.456250X-0.243750X0.456250X-0.243750X-0.456250X0.243750X-0.456250X0*%
%ADD29RoundRect,0.150000X0.512500X0.150000X-0.512500X0.150000X-0.512500X-0.150000X0.512500X-0.150000X0*%
%ADD30RoundRect,0.200000X-0.200000X-0.450000X0.200000X-0.450000X0.200000X0.450000X-0.200000X0.450000X0*%
%ADD31RoundRect,0.250001X-0.799999X-1.249999X0.799999X-1.249999X0.799999X1.249999X-0.799999X1.249999X0*%
%ADD32RoundRect,0.250000X-0.337500X-0.475000X0.337500X-0.475000X0.337500X0.475000X-0.337500X0.475000X0*%
%ADD33RoundRect,0.250000X-0.475000X0.337500X-0.475000X-0.337500X0.475000X-0.337500X0.475000X0.337500X0*%
%ADD34RoundRect,0.250000X0.450000X-0.350000X0.450000X0.350000X-0.450000X0.350000X-0.450000X-0.350000X0*%
%ADD35RoundRect,0.200000X-0.450000X0.200000X-0.450000X-0.200000X0.450000X-0.200000X0.450000X0.200000X0*%
%ADD36RoundRect,0.250001X-1.249999X0.799999X-1.249999X-0.799999X1.249999X-0.799999X1.249999X0.799999X0*%
%ADD37RoundRect,0.250000X-0.537500X-0.425000X0.537500X-0.425000X0.537500X0.425000X-0.537500X0.425000X0*%
%ADD38RoundRect,0.150000X0.625000X-0.150000X0.625000X0.150000X-0.625000X0.150000X-0.625000X-0.150000X0*%
%ADD39RoundRect,0.250000X0.650000X-0.350000X0.650000X0.350000X-0.650000X0.350000X-0.650000X-0.350000X0*%
%ADD40RoundRect,0.200000X0.450000X-0.200000X0.450000X0.200000X-0.450000X0.200000X-0.450000X-0.200000X0*%
%ADD41RoundRect,0.250001X1.249999X-0.799999X1.249999X0.799999X-1.249999X0.799999X-1.249999X-0.799999X0*%
%ADD42RoundRect,0.250000X-0.350000X-0.450000X0.350000X-0.450000X0.350000X0.450000X-0.350000X0.450000X0*%
%ADD43C,0.600000*%
%ADD44C,0.700000*%
G04 APERTURE END LIST*
D10*
X157750000Y-86050000D03*
X155750000Y-85050000D03*
X157750000Y-94550000D03*
D11*
X171250000Y-106250000D03*
D12*
X168750000Y-106250000D03*
X166250000Y-106250000D03*
D10*
X155750000Y-88000000D03*
X156750000Y-93550000D03*
D13*
X176100000Y-85000000D03*
X176802944Y-83302944D03*
X176802944Y-86697056D03*
X178500000Y-82600000D03*
D14*
X178500000Y-85000000D03*
D13*
X178500000Y-87400000D03*
X180197056Y-83302944D03*
X180197056Y-86697056D03*
X180900000Y-85000000D03*
D10*
X156750000Y-88000000D03*
X155750000Y-93550000D03*
X156750000Y-96500000D03*
D15*
X165500000Y-113500000D03*
D16*
X170500000Y-113500000D03*
D17*
X162500000Y-123500000D03*
X173500000Y-123500000D03*
D10*
X155750000Y-94550000D03*
D18*
X167210000Y-90250000D03*
D19*
X169750000Y-90250000D03*
X172290000Y-90250000D03*
D10*
X156750000Y-87000000D03*
X157750000Y-85050000D03*
X156750000Y-86050000D03*
X157750000Y-95500000D03*
X157750000Y-96500000D03*
D20*
X107670000Y-109175000D03*
X107670000Y-117825000D03*
D21*
X103500000Y-109175000D03*
X103500000Y-117825000D03*
D10*
X157750000Y-93550000D03*
X156750000Y-95500000D03*
X156750000Y-94550000D03*
D13*
X103600000Y-85000000D03*
X104302944Y-83302944D03*
X104302944Y-86697056D03*
X106000000Y-82600000D03*
D14*
X106000000Y-85000000D03*
D13*
X106000000Y-87400000D03*
X107697056Y-83302944D03*
X107697056Y-86697056D03*
X108400000Y-85000000D03*
D10*
X155750000Y-95500000D03*
X157750000Y-88000000D03*
X155750000Y-87000000D03*
D13*
X103600000Y-122500000D03*
X104302944Y-120802944D03*
X104302944Y-124197056D03*
X106000000Y-120100000D03*
D14*
X106000000Y-122500000D03*
D13*
X106000000Y-124900000D03*
X107697056Y-120802944D03*
X107697056Y-124197056D03*
X108400000Y-122500000D03*
D10*
X156750000Y-85050000D03*
X155750000Y-86050000D03*
X157750000Y-87000000D03*
X155750000Y-96500000D03*
D13*
X176100000Y-122500000D03*
X176802944Y-120802944D03*
X176802944Y-124197056D03*
X178500000Y-120100000D03*
D14*
X178500000Y-122500000D03*
D13*
X178500000Y-124900000D03*
X180197056Y-120802944D03*
X180197056Y-124197056D03*
X180900000Y-122500000D03*
D22*
X126037500Y-85000000D03*
X123962500Y-85000000D03*
D23*
X161800000Y-88787500D03*
X161800000Y-85912500D03*
D24*
X110790000Y-112700000D03*
X110790000Y-111750000D03*
X110790000Y-110800000D03*
X114210000Y-110800000D03*
X114210000Y-111750000D03*
X114210000Y-112700000D03*
D25*
X112450000Y-107450000D03*
X110450000Y-107450000D03*
D26*
X146825000Y-95000000D03*
X146825000Y-96000000D03*
X146825000Y-97000000D03*
X146825000Y-98000000D03*
X146825000Y-99000000D03*
X146825000Y-100000000D03*
D27*
X144300000Y-93700000D03*
X144300000Y-101300000D03*
D28*
X112187500Y-114650000D03*
X110312500Y-114650000D03*
D29*
X167112500Y-108750000D03*
X169387500Y-109700000D03*
X169387500Y-107800000D03*
D30*
X141525000Y-123300000D03*
X142775000Y-123300000D03*
X144025000Y-123300000D03*
D31*
X138975000Y-120550000D03*
X146575000Y-120550000D03*
D32*
X113712500Y-85000000D03*
X115787500Y-85000000D03*
D33*
X159700000Y-86312500D03*
X159700000Y-88387500D03*
D34*
X171250000Y-109750000D03*
X171250000Y-107750000D03*
X150737500Y-88300000D03*
X150737500Y-86300000D03*
D33*
X159725000Y-94787500D03*
X159725000Y-96862500D03*
D25*
X144550000Y-90450000D03*
X142550000Y-90450000D03*
D34*
X150737500Y-96800000D03*
X150737500Y-94800000D03*
D32*
X110462500Y-105500000D03*
X112537500Y-105500000D03*
D35*
X155750000Y-102500000D03*
X155750000Y-103750000D03*
X155750000Y-105000000D03*
D36*
X158500000Y-99950000D03*
X158500000Y-107550000D03*
D37*
X110662500Y-103400000D03*
X113537500Y-103400000D03*
D30*
X141000000Y-88300000D03*
X142250000Y-88300000D03*
X143500000Y-88300000D03*
D31*
X138450000Y-85550000D03*
X146050000Y-85550000D03*
D30*
X152775000Y-123300000D03*
X154025000Y-123300000D03*
X155275000Y-123300000D03*
D31*
X150225000Y-120550000D03*
X157825000Y-120550000D03*
D25*
X155750000Y-96800000D03*
X153750000Y-96800000D03*
D38*
X137175000Y-100000000D03*
X137175000Y-99000000D03*
X137175000Y-98000000D03*
X137175000Y-97000000D03*
X137175000Y-96000000D03*
X137175000Y-95000000D03*
D39*
X139700000Y-101300000D03*
X139700000Y-93700000D03*
D25*
X155800000Y-88350000D03*
X153800000Y-88350000D03*
D40*
X125050000Y-104250000D03*
X125050000Y-103000000D03*
X125050000Y-101750000D03*
D41*
X122300000Y-106800000D03*
X122300000Y-99200000D03*
D30*
X117950000Y-123300000D03*
X119200000Y-123300000D03*
X120450000Y-123300000D03*
D31*
X115400000Y-120550000D03*
X123000000Y-120550000D03*
D23*
X127250000Y-102937500D03*
X127250000Y-100062500D03*
X161775000Y-97262500D03*
X161775000Y-94387500D03*
D25*
X155800000Y-86350000D03*
X153800000Y-86350000D03*
X155750000Y-94800000D03*
X153750000Y-94800000D03*
D23*
X153500000Y-103687500D03*
X153500000Y-100812500D03*
D42*
X138850000Y-90450000D03*
X140850000Y-90450000D03*
D30*
X129075000Y-123300000D03*
X130325000Y-123300000D03*
X131575000Y-123300000D03*
X132825000Y-123300000D03*
D31*
X126525000Y-120550000D03*
X135375000Y-120550000D03*
D43*
X124700000Y-105500000D03*
D44*
X166100000Y-108750000D03*
D43*
X176600000Y-106900000D03*
X176600000Y-110400000D03*
X176600000Y-113900000D03*
X173100000Y-113900000D03*
X173100000Y-110400000D03*
X173100000Y-106900000D03*
X173100000Y-103400000D03*
X166100000Y-99900000D03*
X169600000Y-99900000D03*
X116950000Y-117600000D03*
X117500000Y-120450000D03*
D44*
X133500000Y-120500000D03*
X148500000Y-120450000D03*
D43*
X116075000Y-117600000D03*
X167750000Y-124750000D03*
X150250000Y-125500000D03*
X136250000Y-94000000D03*
X143750000Y-105250000D03*
X146750000Y-82750000D03*
X173250000Y-125500000D03*
X111250000Y-125500000D03*
X181500000Y-91500000D03*
X173250000Y-82000000D03*
X157250000Y-125500000D03*
X142250000Y-110250000D03*
X109250000Y-125500000D03*
X147500000Y-104750000D03*
X132750000Y-115750000D03*
X136250000Y-125500000D03*
X109750000Y-124750000D03*
X134250000Y-82000000D03*
X168750000Y-82750000D03*
X112250000Y-82000000D03*
X138750000Y-117250000D03*
X161250000Y-125500000D03*
X142250000Y-82000000D03*
X131250000Y-82000000D03*
X134750000Y-124750000D03*
X132250000Y-116500000D03*
X142250000Y-112250000D03*
X136250000Y-116500000D03*
X139250000Y-82000000D03*
X153250000Y-82000000D03*
X143000000Y-114750000D03*
X141500000Y-109750000D03*
X109250000Y-82000000D03*
X103000000Y-107700000D03*
X160750000Y-82750000D03*
X124250000Y-82000000D03*
X132750000Y-82750000D03*
X131250000Y-125500000D03*
X161750000Y-124750000D03*
X114250000Y-82000000D03*
X117750000Y-82750000D03*
X119250000Y-125500000D03*
X141500000Y-106750000D03*
X143750000Y-82750000D03*
X180750000Y-97000000D03*
X144500000Y-104750000D03*
X149000000Y-104750000D03*
X172750000Y-124750000D03*
X155750000Y-124750000D03*
X169750000Y-124750000D03*
X111750000Y-82750000D03*
D10*
X135250000Y-112500000D03*
D43*
X165750000Y-124750000D03*
X168250000Y-125500000D03*
X142250000Y-125500000D03*
X113250000Y-125500000D03*
X144250000Y-82000000D03*
X126250000Y-125500000D03*
X103750000Y-114000000D03*
X174750000Y-82750000D03*
X169250000Y-125500000D03*
X125750000Y-82750000D03*
X150750000Y-82750000D03*
X181500000Y-96500000D03*
X141250000Y-82000000D03*
X157250000Y-82000000D03*
X164750000Y-82750000D03*
X151750000Y-82750000D03*
X147250000Y-125500000D03*
X147250000Y-82000000D03*
X145750000Y-82750000D03*
X137250000Y-125500000D03*
X181500000Y-100500000D03*
X139250000Y-125500000D03*
X120250000Y-125500000D03*
X111750000Y-124750000D03*
X181500000Y-113500000D03*
X180750000Y-113000000D03*
X103000000Y-113500000D03*
X154750000Y-82750000D03*
X144750000Y-82750000D03*
X137250000Y-82000000D03*
X129250000Y-125500000D03*
X181500000Y-108500000D03*
X117250000Y-82000000D03*
X140250000Y-82000000D03*
X170250000Y-82000000D03*
X134250000Y-116500000D03*
X162750000Y-124750000D03*
X180750000Y-119000000D03*
X180750000Y-106000000D03*
X180750000Y-109000000D03*
X113250000Y-82000000D03*
X117750000Y-124750000D03*
X180750000Y-99000000D03*
X149000000Y-105750000D03*
X128750000Y-82750000D03*
X123250000Y-125500000D03*
X130250000Y-125500000D03*
X163750000Y-124750000D03*
X152250000Y-125500000D03*
X181500000Y-104500000D03*
X181500000Y-92500000D03*
X158250000Y-82000000D03*
X141750000Y-82750000D03*
X143000000Y-115750000D03*
X161250000Y-82000000D03*
X151250000Y-82000000D03*
X172750000Y-82750000D03*
X159250000Y-125500000D03*
X170250000Y-125500000D03*
X127250000Y-82000000D03*
X137750000Y-124750000D03*
X181500000Y-109500000D03*
X156250000Y-125500000D03*
X143000000Y-104750000D03*
X128250000Y-125500000D03*
X146250000Y-82000000D03*
X141500000Y-107750000D03*
X171250000Y-125500000D03*
X180750000Y-107000000D03*
X111250000Y-82000000D03*
X141500000Y-113750000D03*
X181500000Y-98500000D03*
X149750000Y-124750000D03*
X141500000Y-114750000D03*
X180750000Y-116000000D03*
X151250000Y-125500000D03*
X173750000Y-82750000D03*
X174750000Y-124750000D03*
X142250000Y-106250000D03*
X153750000Y-82750000D03*
X181500000Y-105500000D03*
X180750000Y-102000000D03*
X180750000Y-93000000D03*
X124250000Y-125500000D03*
X180750000Y-111000000D03*
X180750000Y-103000000D03*
X146250000Y-125500000D03*
X132750000Y-117250000D03*
X180750000Y-101000000D03*
X103000000Y-115500000D03*
X127750000Y-82750000D03*
X136750000Y-82750000D03*
X180750000Y-90000000D03*
X143750000Y-115250000D03*
X152250000Y-82000000D03*
X133750000Y-124750000D03*
X139250000Y-113500000D03*
X121800000Y-109000000D03*
X138750000Y-114250000D03*
X138250000Y-116500000D03*
X138750000Y-82750000D03*
X142250000Y-105250000D03*
X181500000Y-106500000D03*
X162250000Y-125500000D03*
X114250000Y-125500000D03*
X159750000Y-82750000D03*
X143250000Y-82000000D03*
X103000000Y-116500000D03*
X180750000Y-117000000D03*
X124750000Y-82750000D03*
X139750000Y-82750000D03*
X119750000Y-118750000D03*
X180750000Y-100000000D03*
X181500000Y-97500000D03*
X156250000Y-82000000D03*
X181500000Y-111500000D03*
X154250000Y-125500000D03*
X143250000Y-125500000D03*
X103000000Y-112500000D03*
X142250000Y-113250000D03*
X138250000Y-125500000D03*
X145250000Y-82000000D03*
X132250000Y-125500000D03*
X135750000Y-82750000D03*
X144500000Y-105750000D03*
X136750000Y-117250000D03*
X130250000Y-82000000D03*
X171750000Y-124750000D03*
X155250000Y-82000000D03*
X153750000Y-124750000D03*
X175250000Y-125500000D03*
X151750000Y-124750000D03*
X135250000Y-125500000D03*
X170750000Y-124750000D03*
X170750000Y-82750000D03*
X146750000Y-105250000D03*
X115750000Y-82750000D03*
X180750000Y-104000000D03*
X181500000Y-114500000D03*
X103000000Y-114500000D03*
X116250000Y-82000000D03*
X133250000Y-116500000D03*
X114750000Y-82750000D03*
X180750000Y-118000000D03*
X103000000Y-111500000D03*
X121750000Y-124750000D03*
X174250000Y-82000000D03*
X166750000Y-124750000D03*
X138800000Y-122650000D03*
X152750000Y-124750000D03*
X164250000Y-125500000D03*
X171250000Y-82000000D03*
X180750000Y-112000000D03*
X181500000Y-93500000D03*
X135750000Y-117250000D03*
X118250000Y-82000000D03*
X103750000Y-115000000D03*
X155750000Y-82750000D03*
X168250000Y-82000000D03*
X103750000Y-112000000D03*
X163250000Y-125500000D03*
X136750000Y-124750000D03*
X181500000Y-88500000D03*
X134750000Y-117250000D03*
X167250000Y-82000000D03*
X103000000Y-110500000D03*
X131750000Y-117250000D03*
X146000000Y-104750000D03*
X132250000Y-82000000D03*
X141500000Y-108750000D03*
X116250000Y-125500000D03*
X135250000Y-82000000D03*
X181500000Y-94500000D03*
X180750000Y-95000000D03*
X155250000Y-125500000D03*
X181500000Y-107500000D03*
X138750000Y-112750000D03*
X166750000Y-82750000D03*
X103750000Y-111000000D03*
X119250000Y-82000000D03*
X180750000Y-91000000D03*
X158750000Y-82750000D03*
X139750000Y-124750000D03*
X135750000Y-124750000D03*
X103750000Y-116000000D03*
X161750000Y-82750000D03*
X156750000Y-82750000D03*
X181500000Y-103500000D03*
X138750000Y-124750000D03*
X160250000Y-125500000D03*
X150250000Y-82000000D03*
X103750000Y-113000000D03*
X110250000Y-82000000D03*
X142250000Y-109250000D03*
X133250000Y-82000000D03*
X122750000Y-124750000D03*
X157750000Y-82750000D03*
X118750000Y-124750000D03*
X166250000Y-125500000D03*
X132750000Y-114250000D03*
X181500000Y-115500000D03*
X175250000Y-82000000D03*
X165250000Y-125500000D03*
X181500000Y-89500000D03*
X110750000Y-124750000D03*
X165250000Y-82000000D03*
X149250000Y-125500000D03*
X167250000Y-125500000D03*
X142250000Y-115250000D03*
X163250000Y-82000000D03*
X127250000Y-125500000D03*
X150750000Y-124750000D03*
X109750000Y-82750000D03*
X141500000Y-111750000D03*
X142250000Y-108250000D03*
X141500000Y-105750000D03*
X133250000Y-125500000D03*
X165750000Y-82750000D03*
X120750000Y-124750000D03*
X180750000Y-89000000D03*
X125250000Y-125500000D03*
X159250000Y-82000000D03*
X118250000Y-125500000D03*
X134250000Y-125500000D03*
X112250000Y-125500000D03*
X162250000Y-82000000D03*
X180750000Y-105000000D03*
X181500000Y-95500000D03*
X129750000Y-82750000D03*
X149750000Y-82750000D03*
X117250000Y-125500000D03*
X148250000Y-82000000D03*
X172250000Y-82000000D03*
X122750000Y-82750000D03*
X180750000Y-98000000D03*
X162750000Y-82750000D03*
X180750000Y-114000000D03*
X139750000Y-114250000D03*
X159750000Y-124750000D03*
X169250000Y-82000000D03*
X180750000Y-110000000D03*
X141500000Y-115750000D03*
X148750000Y-124750000D03*
X140250000Y-125500000D03*
X121750000Y-82750000D03*
X144250000Y-125500000D03*
X147750000Y-82750000D03*
X120750000Y-82750000D03*
X140750000Y-82750000D03*
X146000000Y-105750000D03*
X141500000Y-104750000D03*
X130750000Y-82750000D03*
X180750000Y-108000000D03*
X160750000Y-124750000D03*
X168750000Y-124750000D03*
X144338809Y-122661191D03*
X122250000Y-125500000D03*
X121250000Y-82000000D03*
X181500000Y-119500000D03*
X142750000Y-82750000D03*
X110250000Y-125500000D03*
X158250000Y-125500000D03*
X142250000Y-107250000D03*
X139250000Y-115000000D03*
X137750000Y-82750000D03*
X181500000Y-90500000D03*
X139750000Y-112750000D03*
X154750000Y-124750000D03*
X132250000Y-115000000D03*
X125250000Y-82000000D03*
X180750000Y-92000000D03*
X123250000Y-82000000D03*
X167750000Y-82750000D03*
X112750000Y-124750000D03*
X126250000Y-82000000D03*
X110750000Y-82750000D03*
X131750000Y-114250000D03*
X148500000Y-90500000D03*
X112750000Y-82750000D03*
X139750000Y-117250000D03*
X116750000Y-82750000D03*
X169750000Y-82750000D03*
X141500000Y-112750000D03*
X164750000Y-124750000D03*
X139750000Y-115750000D03*
X154250000Y-82000000D03*
X124750000Y-124750000D03*
X123750000Y-124750000D03*
X113750000Y-82750000D03*
X166250000Y-82000000D03*
X134750000Y-82750000D03*
X164250000Y-82000000D03*
X122250000Y-82000000D03*
X133750000Y-82750000D03*
X171750000Y-82750000D03*
X120250000Y-82000000D03*
X143000000Y-105750000D03*
X181500000Y-112500000D03*
X142250000Y-111250000D03*
X115250000Y-82000000D03*
X138250000Y-82000000D03*
X160250000Y-82000000D03*
X180750000Y-96000000D03*
X123750000Y-82750000D03*
X172250000Y-125500000D03*
X141250000Y-125500000D03*
X148250000Y-125500000D03*
X163750000Y-82750000D03*
X148250000Y-105250000D03*
X136250000Y-82000000D03*
X131750000Y-82750000D03*
X126750000Y-82750000D03*
X181500000Y-116500000D03*
X173750000Y-124750000D03*
X181500000Y-101500000D03*
X147500000Y-105750000D03*
X181500000Y-110500000D03*
X124500000Y-122750000D03*
X121250000Y-125500000D03*
X133750000Y-117250000D03*
X135250000Y-116500000D03*
X119750000Y-82750000D03*
X145250000Y-105250000D03*
X119750000Y-124750000D03*
X152750000Y-82750000D03*
X181500000Y-102500000D03*
X137250000Y-116500000D03*
X128250000Y-82000000D03*
X181500000Y-99500000D03*
X142250000Y-114250000D03*
X181500000Y-117500000D03*
X131750000Y-115750000D03*
X180750000Y-94000000D03*
X180750000Y-115000000D03*
X145250000Y-125500000D03*
X115250000Y-125500000D03*
X149250000Y-82000000D03*
X141500000Y-110750000D03*
X129250000Y-82000000D03*
X153250000Y-125500000D03*
X138750000Y-115750000D03*
X181500000Y-118500000D03*
X118750000Y-82750000D03*
X139250000Y-116500000D03*
X137750000Y-117250000D03*
X148750000Y-82750000D03*
X174250000Y-125500000D03*
D44*
X136000000Y-106500000D03*
D43*
X124100000Y-103400000D03*
X136250000Y-97000000D03*
D10*
X151952080Y-95399850D03*
D43*
X140659769Y-122621534D03*
X133724999Y-123250000D03*
X148000000Y-83933058D03*
D44*
X154250000Y-103750000D03*
X136500000Y-105750000D03*
D43*
X154050000Y-122700000D03*
X136250000Y-84250000D03*
X144000000Y-90500000D03*
X119200000Y-123750000D03*
D44*
X110950000Y-109000000D03*
X178500000Y-107250000D03*
D10*
X151937500Y-86881250D03*
D43*
X139500000Y-90500000D03*
D44*
X137000000Y-106500000D03*
X146250000Y-114500000D03*
X123700000Y-116800000D03*
X145250000Y-114500000D03*
X123200000Y-117550000D03*
X145750000Y-115250000D03*
X122700000Y-116800000D03*
D10*
X158750000Y-86875000D03*
X158761347Y-95325000D03*
D44*
X114850000Y-111750000D03*
X113150000Y-114650000D03*
X113000000Y-85000000D03*
D43*
X112250000Y-109000000D03*
X126500000Y-85000000D03*
D10*
X151937500Y-84781241D03*
D43*
X118630000Y-88750000D03*
X121200000Y-88800000D03*
D10*
X151937500Y-94000000D03*
X151937500Y-85481244D03*
D44*
X154000000Y-89850000D03*
D10*
X151937500Y-84081238D03*
D43*
X116100000Y-88750000D03*
D44*
X155500000Y-89850000D03*
D43*
X122450000Y-90450000D03*
D10*
X151937500Y-86181247D03*
X151937500Y-94700000D03*
X151937500Y-88350000D03*
X151937500Y-96800000D03*
D43*
X119900000Y-90500000D03*
D10*
X151937500Y-92599994D03*
D44*
X136250000Y-96000000D03*
X158312634Y-97979006D03*
X136250000Y-95000000D03*
X155000000Y-98000000D03*
D10*
X151937500Y-93299997D03*
D43*
X117350000Y-90500000D03*
X123700000Y-109000000D03*
X118650000Y-122100000D03*
X120950000Y-109000000D03*
X135337500Y-122662500D03*
X149650000Y-122700000D03*
X122700000Y-109000000D03*
X137000000Y-122675000D03*
X121100000Y-122100000D03*
X151850000Y-122700000D03*
X113507824Y-109000000D03*
X119900000Y-109000000D03*
X114750000Y-109000000D03*
X118650000Y-109000000D03*
X117350000Y-109000000D03*
X116100000Y-109000000D03*
X112250000Y-90500000D03*
X128850000Y-102850000D03*
X128850000Y-101550000D03*
D44*
X178500000Y-112250000D03*
D43*
X136250000Y-99000000D03*
X128850000Y-100250000D03*
X136250000Y-98000000D03*
X128850000Y-99000000D03*
D44*
X178500000Y-109750000D03*
D43*
X124950000Y-90450000D03*
D44*
X178500000Y-114750000D03*
D43*
X115200000Y-110750000D03*
X115200000Y-112700000D03*
X111800000Y-110800000D03*
X111800000Y-112700000D03*
D10*
X151937500Y-87581253D03*
X151943467Y-96100000D03*
D44*
X161087500Y-88750000D03*
X162337500Y-88750000D03*
X155250000Y-111250000D03*
X154500000Y-110750000D03*
X161087500Y-97000000D03*
X155250000Y-110250000D03*
X162337500Y-97000000D03*
X158250000Y-109750000D03*
X109362500Y-115850000D03*
D43*
X176594048Y-96378049D03*
X169594048Y-92878049D03*
X110094048Y-99878049D03*
X110094048Y-120878049D03*
X169594048Y-96378049D03*
X166094048Y-120878049D03*
X162594048Y-117378049D03*
X113594048Y-99878049D03*
X166094048Y-117378049D03*
X176594048Y-89378049D03*
X162594048Y-113878049D03*
X124094048Y-96378049D03*
X166094048Y-92878049D03*
X155594048Y-106878049D03*
X173094048Y-85878049D03*
X159094048Y-103378049D03*
X155594048Y-117378049D03*
X113600000Y-92850000D03*
X113600000Y-120900000D03*
X110100000Y-92900000D03*
X113600000Y-96350000D03*
X176600000Y-103400000D03*
X155594048Y-113878049D03*
X173100000Y-99900000D03*
X159094048Y-113878049D03*
X159094048Y-117378049D03*
X117094048Y-92878049D03*
X152094048Y-117378049D03*
X173094048Y-120878049D03*
X162594048Y-120878049D03*
X176594048Y-92878049D03*
X166050000Y-85900000D03*
X120594048Y-96378049D03*
X173094048Y-96378049D03*
X173094048Y-117378049D03*
X110094048Y-96378049D03*
X176600000Y-99900000D03*
X169594048Y-120878049D03*
X148594048Y-117378049D03*
X169594048Y-103378049D03*
X173094048Y-92878049D03*
X169594048Y-85878049D03*
X117100000Y-96400000D03*
X176594048Y-117378049D03*
X166094048Y-103378049D03*
X169594048Y-117378049D03*
X166094048Y-96378049D03*
M02*
