<?xml version="1.0" standalone="no"?>
<!DOCTYPE svg PUBLIC "-//W3C//DTD SVG 1.0//EN" "http://www.w3.org/TR/2001/REC-SVG-20010904/DTD/svg10.dtd">
<svg xmlns="http://www.w3.org/2000/svg" xmlns:xlink="http://www.w3.org/1999/xlink" id="body_-1262492077_3706" width="3174.8049" height="4490.081">

<g transform="matrix(31.582958 0 0 -31.582958 8.2545379 3824.1884)" >
    <g>
            <path d="M0 0L100 0" stroke="#000000" stroke-width="0.026853262" stroke-linecap="round" stroke-linejoin="round" fill="none" />
            <path d="M100 0L100 100" stroke="#000000" stroke-width="0.026853262" stroke-linecap="round" stroke-linejoin="round" fill="none" />
            <path d="M100 100L-4.2632564E-14 100" stroke="#000000" stroke-width="0.026853262" stroke-linecap="round" stroke-linejoin="round" fill="none" />
            <path d="M-3.0616169E-14 100L0 0" stroke="#000000" stroke-width="0.026853262" stroke-linecap="round" stroke-linejoin="round" fill="none" />
            <path d="M6.9999999 94L9.9 94" stroke="#000000" stroke-width="0.026853262" stroke-linecap="round" stroke-linejoin="round" fill="none" />
            <path d="M9.9 94L9.9 90.401" stroke="#000000" stroke-width="0.026853262" stroke-linecap="round" stroke-linejoin="round" fill="none" />
            <path d="M9.9 90.401L6.9999999 90.401" stroke="#000000" stroke-width="0.026853262" stroke-linecap="round" stroke-linejoin="round" fill="none" />
            <path d="M6.9999999 90.401L6.9999999 94" stroke="#000000" stroke-width="0.026853262" stroke-linecap="round" stroke-linejoin="round" fill="none" />
            <path d="M90.1 94L93 94" stroke="#000000" stroke-width="0.026853262" stroke-linecap="round" stroke-linejoin="round" fill="none" />
            <path d="M93 94L93 90.401" stroke="#000000" stroke-width="0.026853262" stroke-linecap="round" stroke-linejoin="round" fill="none" />
            <path d="M93 90.401L90.1 90.401" stroke="#000000" stroke-width="0.026853262" stroke-linecap="round" stroke-linejoin="round" fill="none" />
            <path d="M90.1 90.401L90.1 94" stroke="#000000" stroke-width="0.026853262" stroke-linecap="round" stroke-linejoin="round" fill="none" />
            <path d="M48.55 5.3870192L51.45 5.3870192" stroke="#000000" stroke-width="0.026853262" stroke-linecap="round" stroke-linejoin="round" fill="none" />
            <path d="M51.45 5.3870192L51.45 1.7880192" stroke="#000000" stroke-width="0.026853262" stroke-linecap="round" stroke-linejoin="round" fill="none" />
            <path d="M51.45 1.7880192L48.55 1.7880192" stroke="#000000" stroke-width="0.026853262" stroke-linecap="round" stroke-linejoin="round" fill="none" />
            <path d="M48.55 1.7880192L48.55 5.3870192" stroke="#000000" stroke-width="0.026853262" stroke-linecap="round" stroke-linejoin="round" fill="none" />
            <path d="M4 95L96 95" stroke="#000000" stroke-width="0.026853262" stroke-linecap="round" stroke-linejoin="round" fill="none" />
            <path d="M96 95L96 33" stroke="#000000" stroke-width="0.026853262" stroke-linecap="round" stroke-linejoin="round" fill="none" />
            <path d="M96 33L3.9999999 33" stroke="#000000" stroke-width="0.026853262" stroke-linecap="round" stroke-linejoin="round" fill="none" />
            <path d="M3.9999999 33L4 95" stroke="#000000" stroke-width="0.026853262" stroke-linecap="round" stroke-linejoin="round" fill="none" />
            <path d="M48.55 94L51.45 94" stroke="#000000" stroke-width="0.026853262" stroke-linecap="round" stroke-linejoin="round" fill="none" />
            <path d="M51.45 94L51.45 90.401" stroke="#000000" stroke-width="0.026853262" stroke-linecap="round" stroke-linejoin="round" fill="none" />
            <path d="M51.45 90.401L48.55 90.401" stroke="#000000" stroke-width="0.026853262" stroke-linecap="round" stroke-linejoin="round" fill="none" />
            <path d="M48.55 90.401L48.55 94" stroke="#000000" stroke-width="0.026853262" stroke-linecap="round" stroke-linejoin="round" fill="none" />
    </g>
</g>
</svg>