<?xml version="1.0" standalone="no"?>
<!DOCTYPE svg PUBLIC "-//W3C//DTD SVG 1.0//EN" "http://www.w3.org/TR/2001/REC-SVG-20010904/DTD/svg10.dtd">
<svg xmlns="http://www.w3.org/2000/svg" xmlns:xlink="http://www.w3.org/1999/xlink" id="body_1696945445_7085" width="3174.8049" height="4490.081">

<g transform="matrix(31.582958 0 0 -31.582958 8.2545379 3824.1884)" >
    <g>
            <path d="M0 0L100 0" stroke="#000000" stroke-width="0.026853262" stroke-linecap="round" stroke-linejoin="round" fill="none" />
            <path d="M100 0L100 100" stroke="#000000" stroke-width="0.026853262" stroke-linecap="round" stroke-linejoin="round" fill="none" />
            <path d="M100 100L-4.2632564E-14 100" stroke="#000000" stroke-width="0.026853262" stroke-linecap="round" stroke-linejoin="round" fill="none" />
            <path d="M-3.0616169E-14 100L0 0" stroke="#000000" stroke-width="0.026853262" stroke-linecap="round" stroke-linejoin="round" fill="none" />
            <path d="M47.1 92L57.75 92" stroke="#000000" stroke-width="0.026853262" stroke-linecap="round" stroke-linejoin="round" fill="none" />
            <path d="M57.75 92L57.75 90.4" stroke="#000000" stroke-width="0.026853262" stroke-linecap="round" stroke-linejoin="round" fill="none" />
            <path d="M57.75 90.4L47.1 90.4" stroke="#000000" stroke-width="0.026853262" stroke-linecap="round" stroke-linejoin="round" fill="none" />
            <path d="M47.1 90.4L47.1 92" stroke="#000000" stroke-width="0.026853262" stroke-linecap="round" stroke-linejoin="round" fill="none" />
            <path d="M85.234656 89.335875L92.765343 81.805188" stroke="#000000" stroke-width="0.026853262" stroke-linecap="round" stroke-linejoin="round" fill="none" />
            <path d="M92.765343 81.805188L91.633972 80.673817" stroke="#000000" stroke-width="0.026853262" stroke-linecap="round" stroke-linejoin="round" fill="none" />
            <path d="M91.633972 80.673817L84.103285 88.204504" stroke="#000000" stroke-width="0.026853262" stroke-linecap="round" stroke-linejoin="round" fill="none" />
            <path d="M84.103285 88.204504L85.234656 89.335875" stroke="#000000" stroke-width="0.026853262" stroke-linecap="round" stroke-linejoin="round" fill="none" />
            <path d="M6.9999999 94L9.9 94" stroke="#000000" stroke-width="0.026853262" stroke-linecap="round" stroke-linejoin="round" fill="none" />
            <path d="M9.9 94L9.9 90.401" stroke="#000000" stroke-width="0.026853262" stroke-linecap="round" stroke-linejoin="round" fill="none" />
            <path d="M9.9 90.401L6.9999999 90.401" stroke="#000000" stroke-width="0.026853262" stroke-linecap="round" stroke-linejoin="round" fill="none" />
            <path d="M6.9999999 90.401L6.9999999 94" stroke="#000000" stroke-width="0.026853262" stroke-linecap="round" stroke-linejoin="round" fill="none" />
            <path d="M90.1 94L93 94" stroke="#000000" stroke-width="0.026853262" stroke-linecap="round" stroke-linejoin="round" fill="none" />
            <path d="M93 94L93 90.401" stroke="#000000" stroke-width="0.026853262" stroke-linecap="round" stroke-linejoin="round" fill="none" />
            <path d="M93 90.401L90.1 90.401" stroke="#000000" stroke-width="0.026853262" stroke-linecap="round" stroke-linejoin="round" fill="none" />
            <path d="M90.1 90.401L90.1 94" stroke="#000000" stroke-width="0.026853262" stroke-linecap="round" stroke-linejoin="round" fill="none" />
            <path d="M48.55 5.3870192L51.45 5.3870192" stroke="#000000" stroke-width="0.026853262" stroke-linecap="round" stroke-linejoin="round" fill="none" />
            <path d="M51.45 5.3870192L51.45 1.7880192" stroke="#000000" stroke-width="0.026853262" stroke-linecap="round" stroke-linejoin="round" fill="none" />
            <path d="M51.45 1.7880192L48.55 1.7880192" stroke="#000000" stroke-width="0.026853262" stroke-linecap="round" stroke-linejoin="round" fill="none" />
            <path d="M48.55 1.7880192L48.55 5.3870192" stroke="#000000" stroke-width="0.026853262" stroke-linecap="round" stroke-linejoin="round" fill="none" />
            <path d="M18.194811 92.765343L10.664124 85.234656" stroke="#000000" stroke-width="0.026853262" stroke-linecap="round" stroke-linejoin="round" fill="none" />
            <path d="M10.664124 85.234656L11.795495 84.103285" stroke="#000000" stroke-width="0.026853262" stroke-linecap="round" stroke-linejoin="round" fill="none" />
            <path d="M11.795495 84.103285L19.326182 91.633972" stroke="#000000" stroke-width="0.026853262" stroke-linecap="round" stroke-linejoin="round" fill="none" />
            <path d="M19.326182 91.633972L18.194811 92.765343" stroke="#000000" stroke-width="0.026853262" stroke-linecap="round" stroke-linejoin="round" fill="none" />
            <path d="M47.8 92L47.8 93" stroke="#000000" stroke-width="0.026853262" stroke-linecap="round" stroke-linejoin="round" fill="none" />
            <path d="M47.8 93L52.2 93" stroke="#000000" stroke-width="0.026853262" stroke-linecap="round" stroke-linejoin="round" fill="none" />
            <path d="M52.2 93L52.2 92" stroke="#000000" stroke-width="0.026853262" stroke-linecap="round" stroke-linejoin="round" fill="none" />
            <path d="M85.729631 88.8409L86.436737 89.548007" stroke="#000000" stroke-width="0.026853262" stroke-linecap="round" stroke-linejoin="round" fill="none" />
            <path d="M86.436737 89.548007L89.548007 86.436737" stroke="#000000" stroke-width="0.026853262" stroke-linecap="round" stroke-linejoin="round" fill="none" />
            <path d="M89.548007 86.436737L88.8409 85.729631" stroke="#000000" stroke-width="0.026853262" stroke-linecap="round" stroke-linejoin="round" fill="none" />
            <path d="M11.159099 85.729631L10.451992 86.436737" stroke="#000000" stroke-width="0.026853262" stroke-linecap="round" stroke-linejoin="round" fill="none" />
            <path d="M10.451992 86.436737L13.563262 89.548007" stroke="#000000" stroke-width="0.026853262" stroke-linecap="round" stroke-linejoin="round" fill="none" />
            <path d="M13.563262 89.548007L14.270368 88.8409" stroke="#000000" stroke-width="0.026853262" stroke-linecap="round" stroke-linejoin="round" fill="none" />
            <path d="M4 95L96 95" stroke="#000000" stroke-width="0.026853262" stroke-linecap="round" stroke-linejoin="round" fill="none" />
            <path d="M96 95L96 33" stroke="#000000" stroke-width="0.026853262" stroke-linecap="round" stroke-linejoin="round" fill="none" />
            <path d="M96 33L3.9999999 33" stroke="#000000" stroke-width="0.026853262" stroke-linecap="round" stroke-linejoin="round" fill="none" />
            <path d="M3.9999999 33L4 95" stroke="#000000" stroke-width="0.026853262" stroke-linecap="round" stroke-linejoin="round" fill="none" />
            <path d="M41.2 94L44.1 94" stroke="#000000" stroke-width="0.026853262" stroke-linecap="round" stroke-linejoin="round" fill="none" />
            <path d="M44.1 94L44.1 90.401" stroke="#000000" stroke-width="0.026853262" stroke-linecap="round" stroke-linejoin="round" fill="none" />
            <path d="M44.1 90.401L41.2 90.401" stroke="#000000" stroke-width="0.026853262" stroke-linecap="round" stroke-linejoin="round" fill="none" />
            <path d="M41.2 90.401L41.2 94" stroke="#000000" stroke-width="0.026853262" stroke-linecap="round" stroke-linejoin="round" fill="none" />
    </g>
</g>
</svg>