M48
; DRILL file {KiCad 8.0.2} date 2024-06-09T12:52:50+0200
; FORMAT={-:-/ absolute / metric / decimal}
; #@! TF.CreationDate,2024-06-09T12:52:50+02:00
; #@! TF.GenerationSoftware,Kicad,Pcbnew,8.0.2
; #@! TF.FileFunction,Plated,1,2,PTH
FMAT,2
METRIC
; #@! TA.AperFunction,Plated,PTH,ViaDrill
T1C0.400
; #@! TA.AperFunction,Plated,PTH,ComponentDrill
T2C0.500
; #@! TA.AperFunction,Plated,PTH,ComponentDrill
T3C0.900
; #@! TA.AperFunction,Plated,PTH,ComponentDrill
T4C1.000
; #@! TA.AperFunction,Plated,PTH,ComponentDrill
T5C1.020
; #@! TA.AperFunction,Plated,PTH,ComponentDrill
T6C1.100
; #@! TA.AperFunction,Plated,PTH,ComponentDrill
T7C3.200
%
G90
G05
T1
X83.545Y-71.731
X83.545Y-78.589
X101.37Y-80.367
X106.745Y-84.776
X106.76Y-70.207
X107.355Y-77.573
X107.99Y-80.748
X108.102Y-75.579
X108.532Y-72.298
X110.545Y-79.41
X110.745Y-66.376
X111.673Y-77.548
X112.943Y-67.667
X113.305Y-69.776
X113.745Y-73.976
X115.706Y-78.318
X116.545Y-73.176
X119.355Y-74.779
X119.355Y-76.176
X120.145Y-77.976
X123.357Y-69.826
X126.145Y-68.976
X134.495Y-84.984
X134.495Y-88.984
X134.495Y-92.984
X143.87Y-74.859
T2
X146.095Y-58.984
X146.095Y-91.484
X146.798Y-57.287
X146.798Y-60.681
X146.798Y-89.787
X146.798Y-93.181
X148.495Y-56.584
X148.495Y-61.384
X148.495Y-89.084
X148.495Y-93.884
X150.192Y-57.287
X150.192Y-60.681
X150.192Y-89.787
X150.192Y-93.181
X150.895Y-58.984
X150.895Y-91.484
T3
X81.945Y-62.943
X81.945Y-87.426
X83.195Y-89.591
X83.215Y-60.743
X83.545Y-73.926
X83.545Y-76.466
X146.545Y-73.89
X146.545Y-76.39
T4
X123.865Y-72.605
X123.865Y-75.145
X123.865Y-77.685
X126.405Y-72.605
X126.405Y-75.145
X126.405Y-77.685
T5
X87.58Y-67.681
X87.58Y-82.671
T6
X97.245Y-60.176
X97.245Y-64.676
X97.245Y-85.176
X97.245Y-89.676
X103.745Y-60.176
X103.745Y-64.676
X103.745Y-85.176
X103.745Y-89.676
X132.245Y-60.176
X132.245Y-64.676
X138.745Y-60.176
X138.745Y-64.676
T7
X148.495Y-58.984
X148.495Y-91.484
M30
